<svg width="688" height="177" viewBox="0 0 688 177" fill="none" xmlns="http://www.w3.org/2000/svg">
<path d="M0.604001 137V5.39999H23.916L65.276 66.312L106.26 5.39999H129.76V137H107.952V39.804L65.088 103.16L22.412 40.18V137H0.604001ZM158.249 137V43H179.117V137H158.249ZM168.777 25.14C165.393 25.14 162.448 23.9493 159.941 21.568C157.56 19.0613 156.369 16.116 156.369 12.732C156.369 9.348 157.56 6.46533 159.941 4.084C162.448 1.70266 165.393 0.511998 168.777 0.511998C172.161 0.511998 175.044 1.70266 177.425 4.084C179.932 6.46533 181.185 9.348 181.185 12.732C181.185 16.116 179.932 19.0613 177.425 21.568C175.044 23.9493 172.161 25.14 168.777 25.14ZM203.933 137V43H223.673L224.989 60.296V137H203.933ZM267.665 137V88.872H288.721V137H267.665ZM267.665 88.872C267.665 81.352 266.788 75.5867 265.033 71.576C263.404 67.44 261.023 64.5573 257.889 62.928C254.881 61.2987 251.309 60.484 247.173 60.484C240.155 60.3587 234.703 62.6773 230.817 67.44C226.932 72.2027 224.989 79.0333 224.989 87.932H217.093C217.093 78.0307 218.535 69.5707 221.417 62.552C224.3 55.408 228.436 50.0187 233.825 46.384C239.215 42.624 245.607 40.744 253.001 40.744C260.521 40.744 266.913 42.248 272.177 45.256C277.567 48.264 281.64 52.964 284.397 59.356C287.28 65.6227 288.721 73.832 288.721 83.984V88.872H267.665ZM347.463 139.256C337.561 139.256 329.979 136.812 324.715 131.924C319.576 126.911 317.007 119.767 317.007 110.492V13.672H337.875V106.544C337.875 110.931 338.877 114.252 340.883 116.508C343.013 118.764 346.084 119.892 350.095 119.892C351.348 119.892 352.727 119.641 354.231 119.14C355.735 118.639 357.427 117.699 359.307 116.32L367.015 132.3C363.756 134.556 360.497 136.248 357.239 137.376C353.98 138.629 350.721 139.256 347.463 139.256ZM301.403 61.048V43H363.255V61.048H301.403ZM398.707 176.856C395.699 176.856 392.315 176.292 388.555 175.164C384.921 174.036 381.411 172.595 378.027 170.84L385.923 153.732C388.305 154.86 390.498 155.737 392.503 156.364C394.509 157.116 396.138 157.492 397.391 157.492C400.399 157.492 402.906 156.677 404.911 155.048C407.042 153.544 408.734 151.288 409.987 148.28L421.079 122.336L452.851 43H475.787L432.171 146.964C429.539 152.98 426.845 158.244 424.087 162.756C421.455 167.268 418.134 170.715 414.123 173.096C410.113 175.603 404.974 176.856 398.707 176.856ZM415.439 137L373.327 43H396.263L428.975 122.148L435.743 137H415.439ZM489.26 174.6V43H509L510.316 60.296V174.6H489.26ZM540.02 139.256C532.124 139.256 525.293 137.251 519.528 133.24C513.888 129.104 509.564 123.339 506.556 115.944C503.548 108.549 502.044 99.9013 502.044 90C502.044 79.9733 503.548 71.3253 506.556 64.056C509.564 56.6613 513.888 50.9587 519.528 46.948C525.293 42.812 532.124 40.744 540.02 40.744C548.543 40.744 555.937 42.812 562.204 46.948C568.596 50.9587 573.547 56.6613 577.056 64.056C580.691 71.3253 582.508 79.9733 582.508 90C582.508 99.9013 580.691 108.549 577.056 115.944C573.547 123.339 568.596 129.104 562.204 133.24C555.937 137.251 548.543 139.256 540.02 139.256ZM534.756 120.08C539.769 120.08 544.219 118.827 548.104 116.32C551.989 113.688 555.06 110.116 557.316 105.604C559.697 101.092 560.888 95.8907 560.888 90C560.888 84.1093 559.76 78.908 557.504 74.396C555.373 69.884 552.365 66.3747 548.48 63.868C544.595 61.3613 540.083 60.108 534.944 60.108C530.181 60.108 525.92 61.3613 522.16 63.868C518.4 66.3747 515.455 69.884 513.324 74.396C511.319 78.908 510.316 84.1093 510.316 90C510.316 95.8907 511.319 101.092 513.324 105.604C515.455 110.116 518.337 113.688 521.972 116.32C525.732 118.827 529.993 120.08 534.756 120.08ZM642.42 139.256C633.271 139.256 625.124 137.188 617.98 133.052C610.961 128.791 605.384 122.963 601.248 115.568C597.237 108.173 595.232 99.6507 595.232 90C595.232 80.3493 597.3 71.8267 601.436 64.432C605.572 57.0373 611.212 51.272 618.356 47.136C625.625 42.8747 633.897 40.744 643.172 40.744C651.569 40.744 659.152 42.9373 665.92 47.324C672.688 51.5853 678.015 57.7893 681.9 65.936C685.911 74.0827 687.916 83.796 687.916 95.076H614.032L616.852 92.444C616.852 98.2093 618.105 103.223 620.612 107.484C623.119 111.62 626.44 114.816 630.576 117.072C634.712 119.328 639.287 120.456 644.3 120.456C650.065 120.456 654.828 119.203 658.588 116.696C662.348 114.064 665.293 110.68 667.424 106.544L686.036 114.44C683.404 119.453 680.02 123.84 675.884 127.6C671.873 131.36 667.048 134.243 661.408 136.248C655.893 138.253 649.564 139.256 642.42 139.256ZM618.168 81.54L615.16 78.908H668.176L665.356 81.54C665.356 76.4013 664.228 72.2027 661.972 68.944C659.716 65.56 656.833 63.0533 653.324 61.424C649.94 59.6693 646.368 58.792 642.608 58.792C638.848 58.792 635.088 59.6693 631.328 61.424C627.568 63.0533 624.435 65.56 621.928 68.944C619.421 72.2027 618.168 76.4013 618.168 81.54Z" fill="#AFFFC7"/>
</svg>
