<?xml version="1.0" encoding="UTF-8"?>
<svg xmlns="http://www.w3.org/2000/svg" width="312" height="189" viewBox="0 0 312 189">
  <path d="M 28.1 111.1 Q 28.1 111.1 27.1 112.1 26 113.1 24.9 113.6 23.8 114.2 23.6 114.9 23.3 115.7 22.2 116.8 21.1 118 20.8 119.2 20.4 120.5 19.3 122.2 18.2 123.8 17.8 124.7 17.3 125.7 16.9 127.5 16.5 129.4 15.9 130.9 15.4 132.5 15.5 133.7 15.5 135 15.5 136.5 15.5 138 15.9 139.2 16.4 140.5 17.2 141.2 18.1 142 18.7 143.1 19.3 144.3 20.2 145.1 21 145.9 21.8 146.3 22.6 146.6 23.8 146.6 25 146.5 26 146.5 27 146.5 28.5 146.5 30 146.5 31.8 146 33.6 145.6 34.9 144.7 36.2 143.8 37.5 142.3 38.9 140.9 39.8 139.6 40.8 138.2 42.3 136.6 43.9 134.9 44.9 133.9 45.9 132.9 46.8 131.6 47.8 130.2 48.8 128.7 49.8 127.2 50.2 126.3 50.7 125.3 51.1 123.9 51.6 122.5 52.2 121.9 52.8 121.3 52.7 120.6 52.5 120 52.1 118.8 51.6 117.5 51.3 117.3 50.9 117.1 50.4 116.6 49.9 116.1 49.4 115.6 48.9 115.1 48.4 114.6 47.9 114.1 47.6 113.6 47.3 113.2 46.5 113.3 45.7 113.4 45 112.8 44.3 112.2 43.6 112.3 43 112.5 41.8 112.4 40.7 112.4 40 111.8 39.3 111.2 38.6 111.3 38 111.5 37 111.5 36 111.5 35 111.5 34 111.5 33 111.5 32 111.5 31 111.5 30 111.5 29 111.5 28 111.5 26.8 111.4 25.7 111.4 25 110.8 24.3 110.2 22.6 110.3 21 110.5 20.8 110.5 20.5 110.4 20.3 110.3 20.1 110.2 19.9 110 19.8 109.8 19.7 109.6 19.6 109.4 19.5 109.2 19.5 108.9 19.6 108.7 19.6 108.4 19.7 108.2 19.9 108 20 107.9 20.2 107.7 20.5 107.6 20.7 107.5 20.9 107.5 21.2 107.5 21.4 107.6 21.6 107.6 21.8 107.8 22 107.9 22.2 108.1 22.3 108.3 22.4 108.5 22.5 108.8 22.5 109 22.5 109.2 22.4 109.5 22.3 109.7 22.2 109.9 22 110.1 21.8 110.2 21.6 110.4 21.4 110.4 21.2 110.5 20.9 110.5 20.7 110.5 20.5 110.4 20.2 110.3 20 110.1 19.9 110 19.7 109.8 19.6 109.6 19.6 109.3 19.5 109.1 19.5 108.8 19.6 108.6 19.7 108.4 19.8 108.2 19.9 108 20.1 107.8 20.3 107.7 20.5 107.6 20.8 107.5 21 107.5 21 107.5 21 107.5 23.4 107.7 25.8 107.8 26 108.2 26.3 108.6 27.2 108.6 28 108.5 29 108.5 30 108.5 31 108.5 32 108.5 33 108.5 34 108.5 35 108.5 36 108.5 37 108.5 38 108.5 39.4 108.7 40.8 108.8 41 109.2 41.3 109.6 42.2 109.6 43 109.5 44.4 109.7 45.8 109.8 46 110.2 46.3 110.6 47.5 110.7 48.8 110.8 49.4 111.4 50.1 111.9 50.6 112.4 51.1 112.9 51.6 113.4 52.1 113.9 52.6 114.4 53.1 114.9 53.7 115.7 54.4 116.5 54.9 118.2 55.5 120 55.3 121.4 55.2 122.8 54.8 123.1 54.4 123.5 53.9 125.1 53.3 126.7 52.8 127.7 52.2 128.8 51.2 130.3 50.2 131.8 49.2 133.4 48.1 135.1 47.1 136.1 46.1 137.1 44.7 138.4 43.2 139.8 42.2 141.4 41.1 143.1 39.5 144.7 37.8 146.2 36.1 147.3 34.4 148.4 32.2 149 30 149.5 28.5 149.5 27 149.5 26 149.5 25 149.5 23.2 149.4 21.4 149.4 20.2 148.7 19 148.1 17.8 146.9 16.7 145.7 16.3 144.9 15.9 144 14.8 142.8 13.6 141.5 13.1 139.8 12.5 138 12.5 136.5 12.5 135 12.5 133.3 12.6 131.6 13.1 130.1 13.5 128.6 14.1 126.5 14.7 124.3 15.2 123.3 15.8 122.2 16.7 120.8 17.6 119.5 18.2 117.8 18.9 116 19.8 115.2 20.7 114.3 21.4 113.1 22.2 111.8 23.1 111.4 24 110.9 24.9 109.9 25.9 108.9 26.1 108.8 26.2 108.7 26.4 108.6 26.6 108.6 26.7 108.5 26.9 108.5 27.1 108.5 27.3 108.5 27.4 108.6 27.6 108.6 27.8 108.7 27.9 108.8 28.1 108.9 28.2 109.1 28.3 109.2 28.4 109.4 28.4 109.6 28.5 109.7 28.5 109.9 28.5 110.1 28.5 110.3 28.4 110.4 28.4 110.6 28.3 110.8 28.2 110.9 28.1 111.1 28.1 111.1 Z" fill="rgb(255, 255, 255, 1)"/>
  <path d="M 35.1 145.9 Q 35.1 145.9 36.6 147.4 38 148.9 38.8 149.3 39.6 149.6 40.3 149.6 41.1 149.5 42.3 150.1 43.6 150.6 44.3 150.6 45.1 150.5 46.3 151.1 47.6 151.6 49.3 151.6 51 151.5 52 151.5 53 151.5 55 151.5 57 151.5 58.5 151.5 60 151.5 61.5 151.5 63 151.5 65.5 151.5 68 151.5 69.3 151 70.5 150.6 72.5 150.1 74.5 149.6 74.8 149.3 75 148.9 76.7 148.3 78.5 147.6 79.2 146.8 79.9 145.9 81.5 144.9 83.1 143.8 83.9 142.5 84.8 141.2 85.8 140.1 86.9 139 87.8 137.1 88.7 135.3 89.8 134.2 90.9 133 91.2 131.8 91.6 130.5 92.1 129.4 92.7 128.3 93.1 126.9 93.6 125.5 94.8 124.2 95.9 123 96.3 122.1 96.7 121.3 97.8 120.1 98.9 119 99.3 118.1 99.7 117.3 101.3 115.6 102.9 113.9 103.1 113.8 103.3 113.7 103.6 113.6 103.8 113.5 104 113.5 104.3 113.5 104.5 113.6 104.7 113.7 104.9 113.8 105.1 114 105.2 114.2 105.4 114.4 105.4 114.6 105.5 114.9 105.5 115.1 105.5 115.4 105.4 115.6 105.3 115.8 105.1 116 104.9 116.2 104.7 116.3 104.5 116.4 104.3 116.5 104 116.5 103.8 116.5 103.6 116.4 103.3 116.3 103.1 116.2 103 116 102.8 115.9 102.7 115.7 102.6 115.4 102.5 115.2 102.5 115 102.5 114.7 102.6 114.5 102.7 114.3 102.8 114.1 103 113.9 103.2 113.7 103.4 113.6 103.6 113.5 103.9 113.5 104.1 113.5 104.4 113.6 104.6 113.6 104.8 113.8 105 113.9 105.2 114.1 105.3 114.3 105.4 114.5 105.5 114.7 105.5 115 105.5 115.2 105.4 115.4 105.3 115.7 105.2 115.9 105.1 116.1 105.1 116.1 105.1 116.1 103.7 117.4 102.3 118.7 101.7 119.9 101.1 121 100.2 121.9 99.3 122.7 98.7 123.9 98.1 125 97.2 125.8 96.4 126.5 95.9 128.1 95.3 129.7 94.9 130.6 94.4 131.5 93.8 133.2 93.1 135 92.2 135.8 91.3 136.7 90.2 138.9 89.1 141 88.2 141.9 87.2 142.8 86.1 144.5 84.9 146.2 83.5 147.1 82.1 148.1 80.8 149.2 79.5 150.4 78.3 150.7 77 151.1 76.2 151.7 75.5 152.4 73.5 152.9 71.5 153.4 69.7 154 68 154.5 65.5 154.5 63 154.5 61.5 154.5 60 154.5 58.5 154.5 57 154.5 55 154.5 53 154.5 52 154.5 51 154.5 48.7 154.4 46.4 154.4 45.7 153.9 44.9 153.5 43.7 153.4 42.4 153.4 41.7 152.9 40.9 152.5 39.7 152.4 38.4 152.4 37.2 151.7 36 151.1 34.4 149.6 32.9 148.1 32.8 147.9 32.7 147.8 32.6 147.6 32.6 147.4 32.5 147.3 32.5 147.1 32.5 146.9 32.5 146.7 32.6 146.6 32.6 146.4 32.7 146.2 32.8 146.1 32.9 145.9 33.1 145.8 33.2 145.7 33.4 145.6 33.6 145.6 33.7 145.5 33.9 145.5 34.1 145.5 34.3 145.5 34.4 145.6 34.6 145.6 34.8 145.7 34.9 145.8 35.1 145.9 35.1 145.9 Z" fill="rgb(255, 255, 255, 1)"/>
  <path d="M 49.2 130.8 Q 49.2 130.8 50.7 129.7 52.2 128.7 53.8 128.2 55.5 127.6 56.8 126.7 58.2 125.7 59.9 125.2 61.5 124.6 62.4 124.1 63.3 123.7 65.5 123.1 67.6 122.5 69.1 122.1 70.5 121.6 72 121.1 73.5 120.6 75.6 120.1 77.6 119.5 78.5 119.1 79.4 118.6 81.2 118.6 82.9 118.5 85 118 87 117.5 87.2 117.5 87.5 117.6 87.7 117.7 87.9 117.8 88.1 118 88.2 118.2 88.3 118.4 88.4 118.6 88.5 118.8 88.5 119.1 88.4 119.3 88.4 119.6 88.3 119.8 88.1 120 88 120.1 87.8 120.3 87.5 120.4 87.3 120.5 87.1 120.5 86.8 120.5 86.6 120.4 86.4 120.4 86.2 120.2 86 120.1 85.8 119.9 85.7 119.7 85.6 119.5 85.5 119.2 85.5 119 85.5 118.8 85.6 118.5 85.7 118.3 85.8 118.1 86 117.9 86.2 117.8 86.4 117.6 86.6 117.6 86.8 117.5 87.1 117.5 87.3 117.5 87.5 117.6 87.8 117.7 88 117.9 88.1 118 88.3 118.2 88.4 118.4 88.4 118.7 88.5 118.9 88.5 119.2 88.4 119.4 88.3 119.6 88.2 119.8 88.1 120 87.9 120.2 87.7 120.3 87.5 120.4 87.2 120.5 87 120.5 87 120.5 87 120.5 85 121 83.1 121.5 81.8 121.4 80.6 121.4 79.5 121.9 78.4 122.5 76.4 122.9 74.5 123.4 73 123.9 71.5 124.4 69.9 124.9 68.4 125.5 66.5 125.9 64.7 126.3 63.6 126.9 62.5 127.4 61.1 127.8 59.8 128.3 58.2 129.3 56.5 130.4 55.2 130.8 53.8 131.3 52.3 132.3 50.8 133.2 50.7 133.3 50.5 133.4 50.3 133.5 50.2 133.5 50 133.5 49.8 133.5 49.6 133.4 49.4 133.4 49.3 133.3 49.1 133.2 49 133.1 48.9 133 48.8 132.8 48.7 132.7 48.6 132.5 48.5 132.3 48.5 132.2 48.5 132 48.5 131.8 48.5 131.6 48.6 131.4 48.7 131.3 48.8 131.1 48.9 131 49 130.9 49.2 130.8 49.2 130.8 Z" fill="rgb(255, 255, 255, 1)"/>
  <path d="M 93.5 66 Q 93.5 66 93.5 68 93.5 70 93.5 71 93.5 72 93.5 74 93.5 76 93.5 77 93.5 78 93.5 79.5 93.5 81.1 92.9 82.3 92.4 83.6 92.4 84.8 92.5 86 92.5 87 92.5 88 92.5 89.5 92.5 91.1 91.9 92.3 91.4 93.6 91.4 94.8 91.5 96 91.5 97.5 91.5 99 91.5 100 91.5 101 91.4 102.7 91.4 104.3 90.8 105 90.2 105.8 90.3 106.4 90.5 107 90.5 108 90.5 109 90.5 110 90.5 111 90.5 112 90.5 113 90.4 113.8 90.4 114.7 90.6 114.8 90.8 114.8 91.4 114.7 92 114.5 93.5 114.5 95 114.5 96.5 114.5 98 114.5 99.5 114.5 101 114.5 102 114.5 103 114.5 104 114.5 105 114.5 106 114.5 107 114.5 108.5 114.5 110 114.5 111 114.5 112 114.5 112.2 114.5 112.4 114.5 112.5 114.6 112.7 114.7 112.8 114.8 113 114.9 113.1 115 113.2 115.1 113.3 115.3 113.4 115.5 113.4 115.6 113.5 115.8 113.5 116 113.5 116.2 113.4 116.4 113.4 116.5 113.3 116.7 113.2 116.9 113.1 117 113 117.1 112.8 117.2 112.7 117.3 112.5 117.4 112.4 117.5 112.2 117.5 112 117.5 110.8 117.4 109.7 117.4 108.8 116.6 107.8 115.8 107.7 114.4 107.5 113 107.5 112 107.5 111 107.5 110 107.5 109 107.5 108 107.5 107 107.5 106 107.5 105 107.5 104 107.5 103 107.5 102 107.5 101 107.5 100 107.5 99 107.5 97.5 107.5 96 107.5 95 107.5 94 107.5 93 107.5 92 107.5 91 107.5 90 107.5 89 107.5 88 107.5 87 107.5 86 107.5 85 107.5 84 107.5 83 107.5 82 107.5 81.8 107.5 81.6 107.6 81.5 107.7 81.3 107.8 81.2 107.9 81 108 80.9 108.1 80.8 108.3 80.7 108.5 80.6 108.6 80.6 108.8 80.5 109 80.5 109.2 80.5 109.4 80.6 109.5 80.6 109.7 80.7 109.9 80.8 110 80.9 110.1 81 110.2 81.2 110.3 81.3 110.4 81.5 110.5 81.6 110.5 81.8 110.5 82 110.8 82 111.1 81.9 111.6 82.4 112.1 83 112.7 84.1 113.3 85.3 113.8 86.3 114.3 87.3 115.2 88.1 116.1 89 116.7 90.1 117.3 91.3 117.8 92.3 118.3 93.3 118.9 94.9 119.4 96.5 119.7 96.7 120.1 97 120.8 98.8 121.4 100.5 121.9 101.4 122.3 102.3 122.9 103.9 123.4 105.5 123.8 105.9 124.2 106.3 124.3 107.5 124.4 108.7 124.7 108.8 125.1 109 125.7 110.1 126.3 111.3 126.8 112.3 127.3 113.3 127.8 114.3 128.3 115.3 129.2 115.4 130 115.5 130.2 115.5 130.5 115.6 130.7 115.7 130.9 115.8 131.1 116 131.2 116.2 131.3 116.4 131.4 116.6 131.5 116.8 131.5 117.1 131.4 117.3 131.4 117.6 131.3 117.8 131.1 118 131 118.1 130.8 118.3 130.5 118.4 130.3 118.5 130.1 118.5 129.8 118.5 129.6 118.4 129.4 118.4 129.2 118.2 129 118.1 128.8 117.9 128.7 117.7 128.6 117.5 128.5 117.2 128.5 117 128.5 116.8 128.6 116.5 128.7 116.3 128.8 116.1 129 115.9 129.2 115.8 129.4 115.6 129.6 115.6 129.8 115.5 130.1 115.5 130.3 115.5 130.5 115.6 130.8 115.7 131 115.9 131.1 116 131.3 116.2 131.4 116.4 131.4 116.7 131.5 116.9 131.5 117.2 131.4 117.4 131.3 117.6 131.2 117.8 131.1 118 130.9 118.2 130.7 118.3 130.5 118.4 130.2 118.5 130 118.5 130 118.5 130 118.5 127.8 117.6 125.7 116.7 125.2 115.7 124.7 114.7 124.2 113.7 123.7 112.7 123.3 111.9 122.9 111 122.3 110.2 121.6 109.3 121.7 108.5 121.8 107.8 121.2 107.1 120.6 106.5 120.1 105.1 119.7 103.7 119.1 102.6 118.6 101.5 118.2 100.2 117.9 99 117.3 98.3 116.6 97.5 116.1 96.1 115.7 94.7 115.2 93.7 114.7 92.7 114.3 91.9 113.9 91 112.8 89.9 111.7 88.7 111.2 87.7 110.7 86.7 110.3 85.9 109.9 85 109.4 84.6 108.9 84.1 108.2 83 107.5 82 107.5 81.8 107.5 81.6 107.6 81.5 107.7 81.3 107.8 81.2 107.9 81 108 80.9 108.1 80.8 108.3 80.7 108.5 80.6 108.6 80.6 108.8 80.5 109 80.5 109.2 80.5 109.4 80.6 109.5 80.6 109.7 80.7 109.9 80.8 110 80.9 110.1 81 110.2 81.2 110.3 81.3 110.4 81.5 110.5 81.6 110.5 81.8 110.5 82 110.5 83 110.5 84 110.5 85 110.5 86 110.5 87 110.5 88 110.5 89 110.5 90 110.5 91 110.5 92 110.5 93 110.5 94 110.5 95 110.5 96 110.5 97.5 110.5 99 110.5 100 110.5 101 110.5 102 110.5 103 110.5 104 110.5 105 110.5 106 110.5 107 110.5 108 110.5 109 110.5 110 110.5 111 110.5 112 110.5 113 110.3 113.6 110.2 114.3 110.3 114.4 110.3 114.6 111.2 114.6 112 114.5 112.2 114.5 112.4 114.5 112.5 114.6 112.7 114.7 112.8 114.8 113 114.9 113.1 115 113.2 115.1 113.3 115.3 113.4 115.5 113.4 115.6 113.5 115.8 113.5 116 113.5 116.2 113.4 116.4 113.4 116.5 113.3 116.7 113.2 116.9 113.1 117 113 117.1 112.8 117.2 112.7 117.3 112.5 117.4 112.4 117.5 112.2 117.5 112 117.5 111 117.5 110 117.5 108.5 117.5 107 117.5 106 117.5 105 117.5 104 117.5 103 117.5 102 117.5 101 117.5 99.5 117.5 98 117.5 96.5 117.5 95 117.5 93.5 117.5 92 117.5 90.6 117.3 89.3 117.2 88.4 116.3 87.6 115.3 87.6 114.2 87.5 113 87.5 112 87.5 111 87.5 110 87.5 109 87.5 108 87.5 107 87.7 105.6 87.8 104.3 88.2 104 88.6 103.7 88.6 102.3 88.5 101 88.5 100 88.5 99 88.5 97.5 88.5 96 88.6 94.2 88.6 92.4 89.1 91.7 89.5 90.9 89.5 89.5 89.5 88 89.5 87 89.5 86 89.6 84.2 89.6 82.4 90.1 81.7 90.5 80.9 90.5 79.5 90.5 78 90.5 77 90.5 76 90.5 74 90.5 72 90.5 71 90.5 70 90.5 68 90.5 66 90.5 65.8 90.5 65.6 90.6 65.5 90.7 65.3 90.8 65.2 90.9 65 91 64.9 91.1 64.8 91.3 64.7 91.5 64.6 91.6 64.6 91.8 64.5 92 64.5 92.2 64.5 92.4 64.6 92.5 64.6 92.7 64.7 92.9 64.8 93 64.9 93.1 65 93.2 65.2 93.3 65.3 93.4 65.5 93.5 65.6 93.5 65.8 93.5 66 93.5 66 Z" fill="rgb(255, 255, 255, 1)"/>
  <path d="M 128.5 115.6 Q 128.5 115.6 129 113.6 129.5 111.6 129.5 110.8 129.5 109.9 130.1 108.7 130.6 107.4 130.6 106.7 130.5 105.9 131.1 104.7 131.6 103.4 131.6 102.7 131.5 102 131.5 101 131.5 99.9 132.1 98.7 132.6 97.4 132.6 96.7 132.5 95.9 133.1 94.7 133.6 93.4 133.6 92.5 133.6 91.7 134.3 90.8 134.9 89.9 135.4 89.4 135.9 89 136.3 88.2 136.6 87.4 136.6 86.5 136.6 85.7 137.1 85.3 137.5 85 137.5 84.8 137.5 84.6 137.6 84.5 137.7 84.3 137.8 84.2 137.9 84 138 83.9 138.1 83.8 138.3 83.7 138.5 83.6 138.6 83.6 138.8 83.5 139 83.5 139.2 83.5 139.4 83.6 139.5 83.6 139.7 83.7 139.9 83.8 140 83.9 140.1 84 140.2 84.2 140.3 84.3 140.4 84.5 140.5 84.6 140.5 84.8 140.5 85 140.5 86 140.5 87 141 88.3 141.4 89.6 141.5 91.3 141.5 93 141.5 94 141.5 95 141.5 96 141.5 97 141.5 98 141.5 99 141.5 100 141.5 101 141.4 102.3 141.4 103.7 141.8 104 142.2 104.3 142.3 106.1 142.5 108 142.5 109 142.5 110 142.5 111 142.5 112 141.8 112.3 141 112.5 142 112.5 143 112.5 143.8 112.6 144.7 112.6 145 112.2 145.3 111.8 147.1 111.7 149 111.5 150 111.5 151 111.5 152 111.5 153 111.5 154 111.2 154.9 110.9 155.1 110.8 155.3 110.7 155.6 110.6 155.8 110.5 156 110.5 156.3 110.5 156.5 110.6 156.7 110.7 156.9 110.8 157.1 111 157.2 111.2 157.4 111.4 157.4 111.6 157.5 111.9 157.5 112.1 157.5 112.4 157.4 112.6 157.3 112.8 157.1 113 156.9 113.2 156.7 113.3 156.5 113.4 156.3 113.5 156 113.5 155.8 113.5 155.6 113.4 155.3 113.3 155.1 113.2 155 113 154.8 112.9 154.7 112.7 154.6 112.4 154.5 112.2 154.5 112 154.5 111.7 154.6 111.5 154.7 111.3 154.8 111.1 155 110.9 155.2 110.7 155.4 110.6 155.6 110.5 155.9 110.5 156.1 110.5 156.4 110.6 156.6 110.6 156.8 110.8 157 110.9 157.2 111.1 157.3 111.3 157.4 111.5 157.5 111.7 157.5 112 157.5 112.2 157.4 112.4 157.3 112.7 157.2 112.9 157.1 113.1 157.1 113.1 157.1 113.1 155 113.8 153 114.5 152 114.5 151 114.5 150 114.5 149 114.5 147.9 114.3 146.8 114.2 146 114.8 145.3 115.4 144.2 115.4 143 115.5 142 115.5 141 115.5 140.3 113.8 139.5 112 139.5 111 139.5 110 139.5 109 139.5 108 139.7 106.9 139.8 105.8 139.2 105 138.6 104.3 138.6 102.7 138.5 101 138.5 100 138.5 99 138.5 98 138.5 97 138.5 96 138.5 95 138.5 94 138.5 93 138.5 91.7 138.6 90.5 138 88.7 137.5 87 137.5 86 137.5 85 137.5 84.8 137.5 84.6 137.6 84.5 137.7 84.3 137.8 84.2 137.9 84 138 83.9 138.1 83.8 138.3 83.7 138.5 83.6 138.6 83.6 138.8 83.5 139 83.5 139.2 83.5 139.4 83.6 139.5 83.6 139.7 83.7 139.9 83.8 140 83.9 140.1 84 140.2 84.2 140.3 84.3 140.4 84.5 140.5 84.6 140.5 84.8 140.5 85 139.9 85.7 139.4 86.3 139.4 87.5 139.4 88.6 138.7 89.8 138.1 91 137.6 91.6 137.1 92.1 136.7 92.2 136.4 92.3 136.4 93.5 136.4 94.6 135.9 95.3 135.5 96.1 135.4 97.3 135.4 98.6 134.9 99.3 134.5 100.1 134.5 101 134.5 102 134.4 103.3 134.4 104.6 133.9 105.3 133.5 106.1 133.4 107.3 133.4 108.6 132.9 109.3 132.5 110.1 132.5 111.2 132.5 112.4 132 114.4 131.5 116.4 131.4 116.5 131.3 116.7 131.2 116.8 131.1 117 131 117.1 130.8 117.2 130.7 117.3 130.5 117.4 130.4 117.4 130.2 117.5 130 117.5 129.8 117.5 129.6 117.4 129.5 117.4 129.3 117.3 129.1 117.2 129 117.1 128.9 117 128.8 116.8 128.7 116.7 128.6 116.5 128.5 116.4 128.5 116.2 128.5 116 128.5 115.8 128.5 115.6 128.5 115.6 Z" fill="rgb(255, 255, 255, 1)"/>
  <path d="M 155.5 113 Q 155.5 113 155.5 111 155.5 109 155.5 107.5 155.5 106 155.5 104.5 155.5 103 155.5 101.5 155.5 100 155.5 99 155.5 98 155.5 97 155.5 96 155.5 94.5 155.5 93 155.5 92 155.5 91 155.5 90 155.5 89 155 87.2 154.5 85.4 154.5 83.2 154.5 81 154.5 80 154.5 79 154.5 77.5 154.5 76 154.5 74.5 154.5 73 154.5 72 154.5 71 154.5 70 154.5 69 154.5 68 154.5 67 154.5 66 154.5 65 154.5 64 154.5 63 154.5 62 154.5 61 154.5 60 154.5 59 154.6 58.2 154.6 57.3 155.3 57.2 156.1 57.1 155.4 57.6 154.8 58.2 152.9 58.3 151.1 58.5 150.3 58.9 149.6 59.4 148.3 59.4 147.1 59.5 146.3 59.9 145.6 60.4 144.3 60.4 143 60.5 142.2 60.4 141.3 60.4 141 60.8 140.8 61.2 139.4 61.3 138 61.5 137 61.5 136 61.5 135.8 60.8 135.5 60 135.4 61.2 135.4 62.3 134.7 63.2 134.1 64 133.7 64.9 133.3 65.7 132.9 67.1 132.4 68.5 131.8 69.1 131.2 69.8 131.3 70.4 131.5 71.1 130.9 72.4 130.3 73.7 129.9 74.6 129.4 75.6 129.4 76.5 129.4 77.3 128.8 78 128.2 78.8 128.3 79.5 128.4 80.3 126.7 81.2 124.9 82.1 124.4 81.6 123.9 81.1 123.4 80.4 122.8 79.8 122.7 78.5 122.6 77.3 122.3 77.2 121.9 77.1 121.4 76.6 120.9 76 120.3 74.9 119.7 73.7 119.2 72.7 118.7 71.7 118.2 70.7 117.7 69.7 117.3 69.4 116.9 69.1 116.4 68.6 115.9 68.1 115.4 67.6 114.9 67 114.3 65.9 113.7 64.7 113.3 64.4 112.9 64.1 112.6 63.6 112.3 63.2 111.6 63.3 111 63.5 110 63.5 109 63.5 108.2 63.4 107.3 63.4 107 63.8 106.8 64.2 105.4 64.3 104 64.5 102.5 64.5 101 64.5 99.5 64.5 98.1 64.5 97.3 64.9 96.6 65.4 94.3 65.4 92 65.5 91.8 65.5 91.5 65.4 91.3 65.3 91.1 65.2 90.9 65 90.8 64.8 90.7 64.6 90.6 64.4 90.5 64.2 90.5 63.9 90.6 63.7 90.6 63.4 90.7 63.2 90.9 63 91 62.9 91.2 62.7 91.5 62.6 91.7 62.5 91.9 62.5 92.2 62.5 92.4 62.6 92.6 62.6 92.8 62.8 93 62.9 93.2 63.1 93.3 63.3 93.4 63.5 93.5 63.8 93.5 64 93.5 64.2 93.4 64.5 93.3 64.7 93.2 64.9 93 65.1 92.8 65.2 92.6 65.4 92.4 65.4 92.2 65.5 91.9 65.5 91.7 65.5 91.5 65.4 91.2 65.3 91 65.1 90.9 65 90.7 64.8 90.6 64.6 90.6 64.3 90.5 64.1 90.5 63.8 90.6 63.6 90.7 63.4 90.8 63.2 90.9 63 91.1 62.8 91.3 62.7 91.5 62.6 91.8 62.5 92 62.5 92 62.5 92 62.5 93.7 62.6 95.4 62.6 96.7 62.1 97.9 61.5 99.5 61.5 101 61.5 102.5 61.5 104 61.5 104.6 61.7 105.3 61.8 106 61.2 106.7 60.6 107.8 60.6 109 60.5 110 60.5 111 60.5 112.4 60.7 113.8 60.8 114.4 61.4 115.1 61.9 115.7 62.6 116.3 63.3 116.7 64.1 117.1 65 117.6 65.4 118.1 65.9 118.6 66.4 119.1 66.9 119.7 67.6 120.3 68.3 120.8 69.3 121.3 70.3 121.8 71.3 122.3 72.3 122.7 73.1 123.1 74 123.6 74.4 124.1 74.9 124.7 75.8 125.4 76.7 125.3 77.5 125.2 78.3 125.6 78.6 126.1 78.9 126.6 79.4 127.1 79.9 126.3 79.8 125.6 79.7 125.7 78.5 125.8 77.3 126.2 77 126.6 76.7 126.6 75.5 126.6 74.4 127.2 73.4 127.7 72.3 128.1 71.6 128.5 70.9 128.7 69.6 128.8 68.3 129.2 67.9 129.6 67.5 130.1 65.9 130.7 64.3 131.3 63.1 131.9 62 132.3 61.8 132.6 61.7 132.6 60.8 132.5 60 134.3 59.3 136 58.5 137 58.5 138 58.5 138.6 58.7 139.3 58.8 140 58.2 140.7 57.6 141.8 57.6 143 57.5 143.7 57.6 144.4 57.6 145.7 57.1 146.9 56.5 147.7 56.6 148.4 56.6 149.7 56.1 150.9 55.5 152.1 55.7 153.3 55.8 153.6 55.4 153.9 54.9 155.7 55.8 157.4 56.7 157.4 57.8 157.5 59 157.5 60 157.5 61 157.5 62 157.5 63 157.5 64 157.5 65 157.5 66 157.5 67 157.5 68 157.5 69 157.5 70 157.5 71 157.5 72 157.5 73 157.5 74.5 157.5 76 157.5 77.5 157.5 79 157.5 80 157.5 81 157.5 82.8 157.5 84.6 158 86.8 158.5 89 158.5 90 158.5 91 158.5 92 158.5 93 158.5 94.5 158.5 96 158.5 97 158.5 98 158.5 99 158.5 100 158.5 101.5 158.5 103 158.5 104.5 158.5 106 158.5 107.5 158.5 109 158.5 111 158.5 113 158.5 113.2 158.5 113.4 158.4 113.5 158.3 113.7 158.2 113.8 158.1 114 158 114.1 157.9 114.2 157.7 114.3 157.5 114.4 157.4 114.4 157.2 114.5 157 114.5 156.8 114.5 156.6 114.4 156.5 114.4 156.3 114.3 156.1 114.2 156 114.1 155.9 114 155.8 113.8 155.7 113.7 155.6 113.5 155.5 113.4 155.5 113.2 155.5 113 155.5 113 Z" fill="rgb(255, 255, 255, 1)"/>
  <path d="M 175.5 80 Q 175.5 80 175.5 82 175.5 84 175.5 85 175.5 86 175.5 87 175.5 88 175.5 89 175.5 90 175.5 91 175.5 92 175.4 92.8 175.4 93.7 175.8 94 176.2 94.3 176.3 96.1 176.5 98 176.5 99 176.5 100 176.5 101.5 176.5 103 176.5 104 176.5 105 176.5 106 176.5 107 176.5 108 176.5 109 175.8 109.3 175 109.5 175.8 109.6 176.7 109.6 177 109.2 177.3 108.8 178.6 108.7 180 108.5 180.8 108.6 181.7 108.6 181.8 108.4 181.8 108.3 181.7 107.6 181.5 107 181.5 106 181.5 104.9 182.1 103.7 182.6 102.4 182.6 101.7 182.5 101 182.5 100 182.5 99 182.5 98 182.5 97 182.5 96 182.5 95 182.5 94 182.5 93 182.5 92 182.5 91 182.5 90 182.5 89 182.5 88 182.5 87 182.5 86 182.5 85 182.5 84 182.5 83 182.5 82 182.5 81 182.6 80.2 182.6 79.3 182.3 79.2 181.9 79.1 181.6 78.6 181.3 78.2 180.8 78.3 180.3 78.4 180 78.8 179.8 79.2 178.4 79.3 177.1 79.5 175 80 173 80.5 172.8 80.5 172.5 80.4 172.3 80.3 172.1 80.2 171.9 80 171.8 79.8 171.7 79.6 171.6 79.4 171.5 79.2 171.5 78.9 171.6 78.7 171.6 78.4 171.7 78.2 171.9 78 172 77.9 172.2 77.7 172.5 77.6 172.7 77.5 172.9 77.5 173.2 77.5 173.4 77.6 173.6 77.6 173.8 77.8 174 77.9 174.2 78.1 174.3 78.3 174.4 78.5 174.5 78.8 174.5 79 174.5 79.2 174.4 79.5 174.3 79.7 174.2 79.9 174 80.1 173.8 80.2 173.6 80.4 173.4 80.4 173.2 80.5 172.9 80.5 172.7 80.5 172.5 80.4 172.2 80.3 172 80.1 171.9 80 171.7 79.8 171.6 79.6 171.6 79.3 171.5 79.1 171.5 78.8 171.6 78.6 171.7 78.4 171.8 78.2 171.9 78 172.1 77.8 172.3 77.7 172.5 77.6 172.8 77.5 173 77.5 173 77.5 173 77.5 175 77 176.9 76.5 177.6 76.7 178.3 76.8 179 76.2 179.7 75.6 181.2 75.7 182.8 75.8 183.4 76.4 184.1 76.9 184.7 77.8 185.4 78.7 185.4 79.8 185.5 81 185.5 82 185.5 83 185.5 84 185.5 85 185.5 86 185.5 87 185.5 88 185.5 89 185.5 90 185.5 91 185.5 92 185.5 93 185.5 94 185.5 95 185.5 96 185.5 97 185.5 98 185.5 99 185.5 100 185.5 101 185.4 102.3 185.4 103.6 184.9 104.3 184.5 105.1 184.5 106 184.5 107 184.3 108.4 184.2 109.8 183.3 110.6 182.3 111.4 181.2 111.4 180 111.5 179.4 111.3 178.8 111.2 178 111.8 177.3 112.4 176.2 112.4 175 112.5 174.3 110.8 173.5 109 173.5 108 173.5 107 173.5 106 173.5 105 173.5 104 173.5 103 173.5 101.5 173.5 100 173.5 99 173.5 98 173.7 96.9 173.8 95.8 173.2 95 172.6 94.3 172.6 93.2 172.5 92 172.5 91 172.5 90 172.5 89 172.5 88 172.5 87 172.5 86 172.5 85 172.5 84 172.5 82 172.5 80 172.5 79.8 172.5 79.6 172.6 79.5 172.7 79.3 172.8 79.2 172.9 79 173 78.9 173.1 78.8 173.3 78.7 173.5 78.6 173.6 78.6 173.8 78.5 174 78.5 174.2 78.5 174.4 78.6 174.5 78.6 174.7 78.7 174.9 78.8 175 78.9 175.1 79 175.2 79.2 175.3 79.3 175.4 79.5 175.5 79.6 175.5 79.8 175.5 80 175.5 80 Z" fill="rgb(255, 255, 255, 1)"/>
  <path d="M 193.5 19.6 Q 193.5 19.6 195 20.1 196.5 20.6 197.7 20.5 199 20.5 200 20.5 201 20.5 202 20.5 203 20.5 204.5 20.5 206 20.5 207.3 20 208.6 19.6 210.2 19.5 211.9 19.5 212.7 19.1 213.4 18.6 214.7 18.6 216 18.5 217 18.5 218 18.5 220 18.5 222 18.5 222.2 18.5 222.5 18.6 222.7 18.7 222.9 18.8 223.1 19 223.2 19.2 223.3 19.4 223.4 19.6 223.5 19.8 223.5 20.1 223.4 20.3 223.4 20.6 223.3 20.8 223.1 21 223 21.1 222.8 21.3 222.5 21.4 222.3 21.5 222.1 21.5 221.8 21.5 221.6 21.4 221.4 21.4 221.2 21.2 221 21.1 220.8 20.9 220.7 20.7 220.6 20.5 220.5 20.2 220.5 20 220.5 19.8 220.6 19.5 220.7 19.3 220.8 19.1 221 18.9 221.2 18.8 221.4 18.6 221.6 18.6 221.8 18.5 222.1 18.5 222.3 18.5 222.5 18.6 222.8 18.7 223 18.9 223.1 19 223.3 19.2 223.4 19.4 223.4 19.7 223.5 19.9 223.5 20.2 223.4 20.4 223.3 20.6 223.2 20.8 223.1 21 222.9 21.2 222.7 21.3 222.5 21.4 222.2 21.5 222 21.5 222 21.5 222 21.5 220 21.5 218 21.5 217 21.5 216 21.5 215.3 21.4 214.6 21.4 213.3 21.9 212.1 22.5 210.8 22.5 209.5 22.4 207.7 23 206 23.5 204.5 23.5 203 23.5 202 23.5 201 23.5 200 23.5 199 23.5 197.3 23.5 195.6 23.4 194 22.9 192.5 22.4 192.4 22.3 192.2 22.3 192.1 22.2 191.9 22 191.8 21.9 191.7 21.8 191.6 21.6 191.6 21.4 191.5 21.2 191.5 21.1 191.5 20.9 191.5 20.7 191.6 20.5 191.6 20.4 191.7 20.2 191.8 20.1 192 19.9 192.1 19.8 192.3 19.7 192.4 19.6 192.6 19.6 192.8 19.5 192.9 19.5 193.1 19.5 193.3 19.5 193.5 19.6 193.5 19.6 Z" fill="rgb(255, 255, 255, 1)"/>
  <path d="M 189.5 20 Q 189.5 20 189.5 18 189.5 16 189.5 15 189.5 14 189.5 13 189.5 12 189.6 11.2 189.6 10.3 189.3 10.2 188.9 10.1 188.4 9.6 187.9 9.1 187.4 8.6 187 8.1 186.1 7.7 185.3 7.3 184.8 6.8 184.3 6.2 183.5 6.3 182.7 6.4 182 5.8 181.3 5.2 180.6 5.3 180 5.5 179 5.5 178 5.5 177 5.5 176.1 5.5 175.4 5.9 174.7 6.3 174.4 6.7 174 7.1 172.9 7.6 171.8 8.2 171.6 8.9 171.3 9.7 170.7 10.4 170.1 11 169.7 11.8 169.4 12.6 169.4 13.5 169.4 14.3 168.8 15 168.2 15.8 168.3 16.4 168.5 17 168.4 17.8 168.4 18.7 168.7 18.8 169.1 19 169.7 20.1 170.3 21.3 170.8 22.3 171.3 23.3 171.7 23.6 172.1 23.9 172.6 24.4 173.1 24.9 173.4 25.4 173.8 25.8 174.5 25.7 175.3 25.6 176 26.2 176.8 26.8 177.4 26.7 178 26.5 178.8 26.6 179.7 26.6 180 26.2 180.3 25.8 181.5 25.7 182.7 25.6 183 25.2 183.3 24.8 184.5 24.7 185.7 24.6 185.8 24.3 185.9 23.9 186.6 23.4 187.3 22.8 188.5 22.7 189.7 22.6 189.8 22.3 189.9 21.9 190.4 21.4 190.9 20.9 191.2 20 191.5 19 191.5 18.8 191.6 18.5 191.7 18.3 191.8 18.1 192 17.9 192.2 17.8 192.4 17.7 192.6 17.6 192.8 17.5 193.1 17.5 193.3 17.6 193.6 17.6 193.8 17.7 194 17.9 194.1 18 194.3 18.2 194.4 18.5 194.5 18.7 194.5 18.9 194.5 19.2 194.4 19.4 194.4 19.6 194.2 19.8 194.1 20 193.9 20.2 193.7 20.3 193.5 20.4 193.2 20.5 193 20.5 192.8 20.5 192.5 20.4 192.3 20.3 192.1 20.2 191.9 20 191.8 19.8 191.6 19.6 191.6 19.4 191.5 19.2 191.5 18.9 191.5 18.7 191.6 18.5 191.7 18.2 191.9 18 192 17.9 192.2 17.7 192.4 17.6 192.7 17.6 192.9 17.5 193.2 17.5 193.4 17.6 193.6 17.7 193.8 17.8 194 17.9 194.2 18.1 194.3 18.3 194.4 18.5 194.5 18.8 194.5 19 194.5 19 194.5 19 193.8 21 193.1 23.1 192.6 23.6 192.1 24.1 191.2 24.7 190.3 25.4 189.5 25.3 188.8 25.2 188.4 25.6 188.1 26.1 187.2 26.7 186.3 27.4 185.5 27.3 184.8 27.2 184 27.8 183.3 28.4 182.5 28.3 181.8 28.2 181 28.8 180.3 29.4 179.2 29.4 178 29.5 176.6 29.3 175.3 29.2 175 28.8 174.7 28.4 173.5 28.3 172.3 28.2 171.6 27.6 170.9 27.1 170.4 26.6 169.9 26.1 169.3 25.4 168.7 24.7 168.2 23.7 167.7 22.7 167.3 21.9 166.9 21 166.3 20.2 165.6 19.3 165.6 18.2 165.5 17 165.7 15.6 165.8 14.3 166.2 14 166.6 13.7 166.6 12.5 166.6 11.4 167.3 10.2 167.9 9 168.3 8.6 168.7 8.3 169.4 7.1 170.2 5.8 171.1 5.4 172 4.9 172.6 4.3 173.3 3.7 174.6 3.1 175.9 2.5 177 2.5 178 2.5 179 2.5 180 2.5 181.4 2.7 182.8 2.8 183 3.2 183.3 3.6 184.5 3.7 185.8 3.8 186.2 4.2 186.7 4.7 187.9 5.3 189 5.9 189.6 6.4 190.1 6.9 190.6 7.4 191.1 7.9 191.7 8.8 192.4 9.7 192.4 10.8 192.5 12 192.5 13 192.5 14 192.5 15 192.5 16 192.5 18 192.5 20 192.5 20.2 192.5 20.4 192.4 20.5 192.3 20.7 192.2 20.8 192.1 21 192 21.1 191.9 21.2 191.7 21.3 191.5 21.4 191.4 21.4 191.2 21.5 191 21.5 190.8 21.5 190.6 21.4 190.5 21.4 190.3 21.3 190.1 21.2 190 21.1 189.9 21 189.8 20.8 189.7 20.7 189.6 20.5 189.5 20.4 189.5 20.2 189.5 20 189.5 20 Z" fill="rgb(255, 255, 255, 1)"/>
  <path d="M 191.3 18.7 Q 191.3 18.7 193.3 17.7 195.3 16.7 196.4 16.2 197.4 15.6 198.5 15.6 199.7 15.6 200 15.2 200.3 14.8 201.5 14.7 202.7 14.6 202.8 14.3 203 13.9 204.2 13.3 205.4 12.6 207.7 12.6 210 12.5 210.2 12.5 210.5 12.6 210.7 12.7 210.9 12.8 211.1 13 211.2 13.2 211.3 13.4 211.4 13.6 211.5 13.8 211.5 14.1 211.4 14.3 211.4 14.6 211.3 14.8 211.1 15 211 15.1 210.8 15.3 210.5 15.4 210.3 15.5 210.1 15.5 209.8 15.5 209.6 15.4 209.4 15.4 209.2 15.2 209 15.1 208.8 14.9 208.7 14.7 208.6 14.5 208.5 14.2 208.5 14 208.5 13.8 208.6 13.5 208.7 13.3 208.8 13.1 209 12.9 209.2 12.8 209.4 12.6 209.6 12.6 209.8 12.5 210.1 12.5 210.3 12.5 210.5 12.6 210.8 12.7 211 12.9 211.1 13 211.3 13.2 211.4 13.4 211.4 13.7 211.5 13.9 211.5 14.2 211.4 14.4 211.3 14.6 211.2 14.8 211.1 15 210.9 15.2 210.7 15.3 210.5 15.4 210.2 15.5 210 15.5 210 15.5 210 15.5 208.3 15.4 206.6 15.4 205.8 15.7 205 16.1 204.2 16.7 203.3 17.4 202.5 17.3 201.8 17.2 201 17.8 200.3 18.4 199.5 18.4 198.6 18.4 197.6 18.9 196.7 19.3 194.7 20.3 192.7 21.3 192.5 21.4 192.3 21.5 192.2 21.5 192 21.5 191.8 21.5 191.6 21.4 191.4 21.4 191.3 21.3 191.1 21.2 191 21.1 190.9 21 190.7 20.8 190.7 20.7 190.6 20.5 190.5 20.3 190.5 20.2 190.5 20 190.5 19.8 190.6 19.6 190.6 19.4 190.7 19.3 190.8 19.1 190.9 19 191 18.9 191.2 18.8 191.3 18.7 191.3 18.7 Z" fill="rgb(255, 255, 255, 1)"/>
  <path d="M 217.4 14.5 Q 217.4 14.5 214.2 15 211 15.5 210.8 15.5 210.5 15.4 210.3 15.3 210.1 15.2 209.9 15 209.8 14.8 209.7 14.6 209.6 14.4 209.5 14.2 209.5 13.9 209.6 13.7 209.6 13.4 209.7 13.2 209.9 13 210 12.9 210.2 12.7 210.5 12.6 210.7 12.5 210.9 12.5 211.2 12.5 211.4 12.6 211.6 12.6 211.8 12.8 212 12.9 212.2 13.1 212.3 13.3 212.4 13.5 212.5 13.8 212.5 14 212.5 14.2 212.4 14.5 212.3 14.7 212.2 14.9 212 15.1 211.8 15.2 211.6 15.4 211.4 15.4 211.2 15.5 210.9 15.5 210.7 15.5 210.5 15.4 210.2 15.3 210 15.1 209.9 15 209.7 14.8 209.6 14.6 209.6 14.3 209.5 14.1 209.5 13.8 209.6 13.6 209.7 13.4 209.8 13.2 209.9 13 210.1 12.8 210.3 12.7 210.5 12.6 210.8 12.5 211 12.5 211 12.5 211 12.5 213.8 12 216.6 11.5 216.8 11.5 217 11.5 217.2 11.5 217.4 11.5 217.5 11.6 217.7 11.7 217.8 11.8 218 11.9 218.1 12 218.2 12.1 218.3 12.3 218.4 12.5 218.4 12.6 218.5 12.8 218.5 13 218.5 13.2 218.4 13.4 218.4 13.5 218.3 13.7 218.2 13.8 218.1 14 218 14.1 217.8 14.2 217.7 14.3 217.5 14.4 217.4 14.5 217.4 14.5 Z" fill="rgb(255, 255, 255, 1)"/>
  <path d="M 176.1 20.9 Q 176.1 20.9 176.2 21.1 176.3 21.3 176.4 21.6 176.5 21.8 176.5 22 176.5 22.3 176.4 22.5 176.3 22.7 176.2 22.9 176 23.1 175.8 23.2 175.6 23.4 175.4 23.4 175.1 23.5 174.9 23.5 174.6 23.5 174.4 23.4 174.2 23.3 174 23.1 173.8 22.9 173.7 22.7 173.6 22.5 173.5 22.3 173.5 22 173.5 21.8 173.6 21.6 173.7 21.3 173.8 21.1 174 21 174.1 20.8 174.3 20.7 174.6 20.6 174.8 20.5 175 20.5 175.3 20.5 175.5 20.6 175.7 20.7 175.9 20.8 176.1 21 176.3 21.2 176.4 21.4 176.5 21.6 176.5 21.9 176.5 22.1 176.4 22.4 176.4 22.6 176.2 22.8 176.1 23 175.9 23.2 175.7 23.3 175.5 23.4 175.3 23.5 175 23.5 174.8 23.5 174.6 23.4 174.3 23.3 174.1 23.2 173.9 23.1 173.9 23.1 173.9 23.1 173.7 23 173.4 23 173.2 22.9 173 22.8 172.8 22.6 172.6 22.5 172.4 22.3 172.3 22.1 172.2 21.9 172.1 21.7 172 21.4 171.9 21.2 172 20.9 172 20.7 172 20.5 172.1 20.2 172.2 20 172.3 19.8 172.5 19.6 172.7 19.4 172.9 19.3 173.1 19.1 173.3 19.1 173.6 19 173.8 19 174.1 18.9 175.1 19.9 Z" fill="rgb(255, 255, 255, 1)"/>
  <path d="M 177.1 12.9 Q 177.1 12.9 177.2 13.1 177.3 13.3 177.4 13.6 177.5 13.8 177.5 14 177.5 14.3 177.4 14.5 177.3 14.7 177.2 14.9 177 15.1 176.8 15.2 176.6 15.4 176.4 15.4 176.1 15.5 175.9 15.5 175.6 15.5 175.4 15.4 175.2 15.3 175 15.1 174.8 14.9 174.7 14.7 174.6 14.5 174.5 14.3 174.5 14 174.5 13.8 174.6 13.6 174.7 13.3 174.8 13.1 175 13 175.1 12.8 175.3 12.7 175.6 12.6 175.8 12.5 176 12.5 176.3 12.5 176.5 12.6 176.7 12.7 176.9 12.8 177.1 13 177.3 13.2 177.4 13.4 177.5 13.6 177.5 13.9 177.5 14.1 177.4 14.4 177.4 14.6 177.2 14.8 177.1 15 176.9 15.2 176.7 15.3 176.5 15.4 176.3 15.5 176 15.5 175.8 15.5 175.6 15.4 175.3 15.3 175.1 15.2 174.9 15.1 174.9 15.1 174.9 15.1 174.7 15 174.4 15 174.2 14.9 174 14.8 173.8 14.6 173.6 14.5 173.4 14.3 173.3 14.1 173.2 13.9 173.1 13.7 173 13.4 172.9 13.2 173 12.9 173 12.7 173 12.5 173.1 12.2 173.2 12 173.3 11.8 173.5 11.6 173.7 11.4 173.9 11.3 174.1 11.1 174.3 11.1 174.6 11 174.8 11 175.1 10.9 176.1 11.9 Z" fill="rgb(255, 255, 255, 1)"/>
  <path d="M 181.5 19.6 Q 181.5 19.6 183 19.1 184.5 18.6 184.6 18.4 184.8 18.3 184.7 17.6 184.5 17 184.6 16.2 184.6 15.3 183.3 14.2 181.9 13.1 181.8 12.9 181.7 12.7 181.6 12.4 181.5 12.2 181.5 12 181.5 11.7 181.6 11.5 181.7 11.3 181.8 11.1 182 10.9 182.2 10.8 182.4 10.6 182.6 10.6 182.9 10.5 183.1 10.5 183.4 10.5 183.6 10.6 183.8 10.7 184 10.9 184.2 11.1 184.3 11.3 184.4 11.5 184.5 11.7 184.5 12 184.5 12.2 184.4 12.4 184.3 12.7 184.2 12.9 184 13 183.9 13.2 183.7 13.3 183.4 13.4 183.2 13.5 183 13.5 182.7 13.5 182.5 13.4 182.3 13.3 182.1 13.2 181.9 13 181.7 12.8 181.6 12.6 181.5 12.4 181.5 12.1 181.5 11.9 181.6 11.6 181.6 11.4 181.8 11.2 181.9 11 182.1 10.8 182.3 10.7 182.5 10.6 182.7 10.5 183 10.5 183.2 10.5 183.4 10.6 183.7 10.7 183.9 10.8 184.1 10.9 184.1 10.9 184.1 10.9 185.7 12.8 187.4 14.7 187.4 15.8 187.5 17 187.3 18.4 187.2 19.8 186.4 20.6 185.5 21.4 184 21.9 182.5 22.4 182.3 22.5 182.1 22.5 181.9 22.5 181.8 22.5 181.6 22.4 181.4 22.4 181.3 22.3 181.1 22.2 181 22.1 180.8 21.9 180.7 21.8 180.6 21.6 180.6 21.5 180.5 21.3 180.5 21.1 180.5 20.9 180.5 20.8 180.6 20.6 180.6 20.4 180.7 20.2 180.8 20.1 180.9 20 181.1 19.8 181.2 19.7 181.4 19.7 181.5 19.6 181.5 19.6 Z" fill="rgb(255, 255, 255, 1)"/>
  <path d="M 28.1 121.9 Q 28.1 121.9 28.2 122.1 28.3 122.3 28.4 122.6 28.5 122.8 28.5 123 28.5 123.3 28.4 123.5 28.3 123.7 28.2 123.9 28 124.1 27.8 124.2 27.6 124.4 27.4 124.4 27.1 124.5 26.9 124.5 26.6 124.5 26.4 124.4 26.2 124.3 26 124.1 25.8 123.9 25.7 123.7 25.6 123.5 25.5 123.3 25.5 123 25.5 122.8 25.6 122.6 25.7 122.3 25.8 122.1 26 122 26.1 121.8 26.3 121.7 26.6 121.6 26.8 121.5 27 121.5 27.3 121.5 27.5 121.6 27.7 121.7 27.9 121.8 28.1 122 28.3 122.2 28.4 122.4 28.5 122.6 28.5 122.9 28.5 123.1 28.4 123.4 28.4 123.6 28.2 123.8 28.1 124 27.9 124.2 27.7 124.3 27.5 124.4 27.3 124.5 27 124.5 26.8 124.5 26.6 124.4 26.3 124.3 26.1 124.2 25.9 124.1 25.9 124.1 25.9 124.1 25.7 124 25.4 124 25.2 123.9 25 123.8 24.8 123.6 24.6 123.5 24.4 123.3 24.3 123.1 24.2 122.9 24.1 122.7 24 122.4 23.9 122.2 24 121.9 24 121.7 24 121.5 24.1 121.2 24.2 121 24.3 120.8 24.5 120.6 24.7 120.4 24.9 120.3 25.1 120.1 25.3 120.1 25.6 120 25.8 120 26.1 119.9 27.1 120.9 Z" fill="rgb(255, 255, 255, 1)"/>
  <path d="M 33.1 115.9 Q 33.1 115.9 33.2 116.1 33.3 116.3 33.4 116.6 33.5 116.8 33.5 117 33.5 117.3 33.4 117.5 33.3 117.7 33.2 117.9 33 118.1 32.8 118.2 32.6 118.4 32.4 118.4 32.1 118.5 31.9 118.5 31.6 118.5 31.4 118.4 31.2 118.3 31 118.1 30.8 117.9 30.7 117.7 30.6 117.5 30.5 117.3 30.5 117 30.5 116.8 30.6 116.6 30.7 116.3 30.8 116.1 31 116 31.1 115.8 31.3 115.7 31.6 115.6 31.8 115.5 32 115.5 32.3 115.5 32.5 115.6 32.7 115.7 32.9 115.8 33.1 116 33.3 116.2 33.4 116.4 33.5 116.6 33.5 116.9 33.5 117.1 33.4 117.4 33.4 117.6 33.2 117.8 33.1 118 32.9 118.2 32.7 118.3 32.5 118.4 32.3 118.5 32 118.5 31.8 118.5 31.6 118.4 31.3 118.3 31.1 118.2 30.9 118.1 30.9 118.1 30.9 118.1 30.7 118 30.4 118 30.2 117.9 30 117.8 29.8 117.6 29.6 117.5 29.4 117.3 29.3 117.1 29.2 116.9 29.1 116.7 29 116.4 28.9 116.2 29 115.9 29 115.7 29 115.5 29.1 115.2 29.2 115 29.3 114.8 29.5 114.6 29.7 114.4 29.9 114.3 30.1 114.1 30.3 114.1 30.6 114 30.8 114 31.1 113.9 32.1 114.9 Z" fill="rgb(255, 255, 255, 1)"/>
  <path d="M 28 134.5 Q 28 134.5 30 134.5 32 134.5 33.3 134 34.6 133.6 35.6 133.6 36.7 133.6 36.8 133.3 36.9 132.9 37.4 132.4 37.9 131.9 38.4 131.4 39 130.9 40.1 130.3 41.3 129.7 41.6 129.5 41.8 129.3 41.7 128.5 41.6 127.7 42.2 127 42.8 126.3 42.7 125.6 42.5 125 43.1 122.7 43.7 120.3 43.8 120.1 43.9 119.9 44.1 119.8 44.3 119.7 44.6 119.6 44.8 119.5 45 119.5 45.3 119.5 45.5 119.6 45.7 119.7 45.9 119.8 46.1 120 46.2 120.2 46.4 120.4 46.4 120.6 46.5 120.9 46.5 121.1 46.5 121.4 46.4 121.6 46.3 121.8 46.1 122 45.9 122.2 45.7 122.3 45.5 122.4 45.3 122.5 45 122.5 44.8 122.5 44.6 122.4 44.3 122.3 44.1 122.2 43.9 122 43.8 121.9 43.7 121.7 43.6 121.4 43.5 121.2 43.5 121 43.5 120.7 43.6 120.5 43.7 120.3 43.8 120.1 44 119.9 44.2 119.7 44.4 119.6 44.6 119.5 44.9 119.5 45.1 119.5 45.4 119.6 45.6 119.6 45.8 119.8 46 119.9 46.2 120.1 46.3 120.3 46.4 120.5 46.5 120.7 46.5 121 46.5 121.2 46.4 121.4 46.3 121.7 46.3 121.7 46.3 121.7 45.9 123.3 45.5 125 45.3 126.4 45.2 127.8 44.8 128 44.4 128.3 44.3 129.5 44.2 130.8 43.4 131.5 42.7 132.3 41.9 132.7 41 133.1 40.6 133.6 40.1 134.1 39.6 134.6 39.1 135.1 38.2 135.7 37.3 136.4 36.4 136.4 35.5 136.4 33.7 137 32 137.5 30 137.5 28 137.5 27.8 137.5 27.6 137.5 27.5 137.4 27.3 137.3 27.2 137.2 27 137.1 26.9 137 26.8 136.9 26.7 136.7 26.6 136.5 26.6 136.4 26.5 136.2 26.5 136 26.5 135.8 26.6 135.6 26.6 135.5 26.7 135.3 26.8 135.1 26.9 135 27 134.9 27.2 134.8 27.3 134.7 27.5 134.6 27.6 134.5 27.8 134.5 28 134.5 28 134.5 Z" fill="rgb(255, 255, 255, 1)"/>
  <path d="M 35.5 148 Q 35.5 148 35.5 150 35.5 152 35.5 153 35.5 154 35.5 155.5 35.5 157 35.5 158 35.5 159 35.5 160.5 35.5 162 35.5 163 35.5 164 35.5 165.5 35.5 167 35.4 168.7 35.4 170.3 34.8 171 34.2 171.8 34.3 172.4 34.5 173 34.5 174 34.5 175 34.5 176 34.5 177 34.5 178 34.5 179 34.5 180 34.5 181 34.5 183 34.5 185 34.5 185.2 34.4 185.5 34.3 185.7 34.2 185.9 34 186.1 33.8 186.2 33.6 186.3 33.4 186.4 33.2 186.5 32.9 186.5 32.7 186.4 32.4 186.4 32.2 186.3 32 186.1 31.9 186 31.7 185.8 31.6 185.5 31.5 185.3 31.5 185.1 31.5 184.8 31.6 184.6 31.6 184.4 31.8 184.2 31.9 184 32.1 183.8 32.3 183.7 32.5 183.6 32.8 183.5 33 183.5 33.2 183.5 33.5 183.6 33.7 183.7 33.9 183.8 34.1 184 34.2 184.2 34.4 184.4 34.4 184.6 34.5 184.8 34.5 185.1 34.5 185.3 34.4 185.5 34.3 185.8 34.1 186 34 186.1 33.8 186.3 33.6 186.4 33.3 186.4 33.1 186.5 32.8 186.5 32.6 186.4 32.4 186.3 32.2 186.2 32 186.1 31.8 185.9 31.7 185.7 31.6 185.5 31.5 185.2 31.5 185 31.5 185 31.5 185 31.5 183 31.5 181 31.5 180 31.5 179 31.5 178 31.5 177 31.5 176 31.5 175 31.5 174 31.5 173 31.7 171.6 31.8 170.3 32.2 170 32.6 169.7 32.6 168.3 32.5 167 32.5 165.5 32.5 164 32.5 163 32.5 162 32.5 160.5 32.5 159 32.5 158 32.5 157 32.5 155.5 32.5 154 32.5 153 32.5 152 32.5 150 32.5 148 32.5 147.8 32.5 147.6 32.6 147.5 32.7 147.3 32.8 147.2 32.9 147 33 146.9 33.1 146.8 33.3 146.7 33.5 146.6 33.6 146.6 33.8 146.5 34 146.5 34.2 146.5 34.4 146.6 34.5 146.6 34.7 146.7 34.9 146.8 35 146.9 35.1 147 35.2 147.2 35.3 147.3 35.4 147.5 35.5 147.6 35.5 147.8 35.5 148 35.5 148 Z" fill="rgb(255, 255, 255, 1)"/>
  <path d="M 193.4 21.5 Q 193.4 21.5 193.9 23 194.4 24.6 194.5 26.3 194.5 28 194.4 29.3 194.4 30.7 194.8 31 195.2 31.3 195.3 32.6 195.5 34 195.5 35 195.5 36 195.4 37.2 195.4 38.3 194.8 39 194.2 39.8 193.1 41.9 192.1 44.1 191.9 44.2 191.7 44.3 191.4 44.4 191.2 44.5 191 44.5 190.7 44.5 190.5 44.4 190.3 44.3 190.1 44.2 189.9 44 189.8 43.8 189.6 43.6 189.6 43.4 189.5 43.1 189.5 42.9 189.5 42.6 189.6 42.4 189.7 42.2 189.9 42 190.1 41.8 190.3 41.7 190.5 41.6 190.7 41.5 191 41.5 191.2 41.5 191.4 41.6 191.7 41.7 191.9 41.8 192 42 192.2 42.1 192.3 42.3 192.4 42.6 192.5 42.8 192.5 43 192.5 43.3 192.4 43.5 192.3 43.7 192.2 43.9 192 44.1 191.8 44.3 191.6 44.4 191.4 44.5 191.1 44.5 190.9 44.5 190.6 44.4 190.4 44.4 190.2 44.2 190 44.1 189.8 43.9 189.7 43.7 189.6 43.5 189.5 43.3 189.5 43 189.5 42.8 189.6 42.6 189.7 42.3 189.8 42.1 189.9 41.9 189.9 41.9 189.9 41.9 190.9 40.1 191.8 38.3 192.2 38 192.6 37.7 192.6 36.8 192.5 36 192.5 35 192.5 34 192.7 33.4 192.8 32.8 192.2 32 191.6 31.3 191.6 29.7 191.5 28 191.5 26.7 191.6 25.5 191.1 24 190.6 22.5 190.5 22.3 190.5 22.1 190.5 21.9 190.5 21.8 190.6 21.6 190.6 21.4 190.7 21.3 190.8 21.1 190.9 21 191.1 20.8 191.2 20.7 191.4 20.6 191.5 20.6 191.7 20.5 191.9 20.5 192.1 20.5 192.2 20.5 192.4 20.6 192.6 20.6 192.8 20.7 192.9 20.8 193 20.9 193.2 21.1 193.3 21.2 193.3 21.4 193.4 21.5 193.4 21.5 Z" fill="rgb(255, 255, 255, 1)"/>
  <path d="M 188.9 46.1 Q 188.9 46.1 188.1 45.1 187.3 44.2 186.5 44.3 185.7 44.4 185 43.8 184.3 43.2 183.5 43.3 182.7 43.4 182 42.8 181.3 42.2 180.8 42.3 180.3 42.4 180.2 42.7 180.1 43.1 179.6 43.6 179.1 44.1 178.6 44.4 178.2 44.8 178.3 45.4 178.5 46 178.5 47 178.5 48 178.4 48.8 178.4 49.7 178.7 49.8 179.1 49.9 179.6 50.4 180.1 50.9 180.4 51.4 180.8 51.8 181.4 51.7 182 51.5 183 51.5 184 51.5 185 51.5 186 51.5 186.8 51.6 187.7 51.6 187.8 51.3 187.9 50.9 188.4 50.6 188.8 50.3 188.7 48.6 188.5 47 188.5 46.8 188.6 46.5 188.7 46.3 188.8 46.1 189 45.9 189.2 45.8 189.4 45.7 189.6 45.6 189.8 45.5 190.1 45.5 190.3 45.6 190.6 45.6 190.8 45.7 191 45.9 191.1 46 191.3 46.2 191.4 46.5 191.5 46.7 191.5 46.9 191.5 47.2 191.4 47.4 191.4 47.6 191.2 47.8 191.1 48 190.9 48.2 190.7 48.3 190.5 48.4 190.2 48.5 190 48.5 189.8 48.5 189.5 48.4 189.3 48.3 189.1 48.2 188.9 48 188.8 47.8 188.6 47.6 188.6 47.4 188.5 47.2 188.5 46.9 188.5 46.7 188.6 46.5 188.7 46.2 188.9 46 189 45.9 189.2 45.7 189.4 45.6 189.7 45.6 189.9 45.5 190.2 45.5 190.4 45.6 190.6 45.7 190.8 45.8 191 45.9 191.2 46.1 191.3 46.3 191.4 46.5 191.5 46.8 191.5 47 191.5 47 191.5 47 191.3 49.4 191.2 51.8 190.6 52.4 190.1 53.1 189.2 53.7 188.3 54.4 187.2 54.4 186 54.5 185 54.5 184 54.5 183 54.5 182 54.5 180.6 54.3 179.3 54.2 178.6 53.6 177.9 53.1 177.4 52.6 176.9 52.1 176.3 51.2 175.6 50.3 175.6 49.2 175.5 48 175.5 47 175.5 46 175.7 44.6 175.8 43.3 176.4 42.6 176.9 41.9 177.4 41.4 177.9 40.9 178.8 40.3 179.7 39.6 181.2 39.7 182.8 39.8 183 40.2 183.3 40.6 184.5 40.7 185.8 40.8 186 41.2 186.3 41.6 187.5 41.7 188.8 41.8 189.9 42.9 191.1 43.9 191.2 44.1 191.3 44.2 191.4 44.4 191.4 44.6 191.5 44.7 191.5 44.9 191.5 45.1 191.5 45.3 191.4 45.4 191.4 45.6 191.3 45.8 191.2 45.9 191.1 46.1 190.9 46.2 190.8 46.3 190.6 46.4 190.4 46.4 190.3 46.5 190.1 46.5 189.9 46.5 189.7 46.5 189.6 46.4 189.4 46.4 189.2 46.3 189.1 46.2 188.9 46.1 188.9 46.1 Z" fill="rgb(255, 255, 255, 1)"/>
  <path d="M 262.5 71.4 Q 262.5 71.4 261 70.9 259.5 70.4 258.7 69.7 258 69.1 257.2 68.7 256.4 68.4 255.7 68.4 254.9 68.5 253.7 67.9 252.4 67.4 251.5 67.4 250.7 67.4 249.8 66.7 249 66.1 248.7 65.6 248.5 65.1 248.4 65.4 248.2 65.8 248.3 66.4 248.5 67 248.5 68 248.5 69 248.4 69.8 248.4 70.7 248.7 70.8 249 70.9 249.8 71.3 250.6 71.6 251.3 71.6 252 71.5 253 71.5 254 71.5 256 72.2 258.1 72.9 258.2 73.1 258.3 73.3 258.4 73.6 258.5 73.8 258.5 74 258.5 74.3 258.4 74.5 258.3 74.7 258.2 74.9 258 75.1 257.8 75.2 257.6 75.4 257.4 75.4 257.1 75.5 256.9 75.5 256.6 75.5 256.4 75.4 256.2 75.3 256 75.1 255.8 74.9 255.7 74.7 255.6 74.5 255.5 74.3 255.5 74 255.5 73.8 255.6 73.6 255.7 73.3 255.8 73.1 256 73 256.1 72.8 256.3 72.7 256.6 72.6 256.8 72.5 257 72.5 257.3 72.5 257.5 72.6 257.7 72.7 257.9 72.8 258.1 73 258.3 73.2 258.4 73.4 258.5 73.6 258.5 73.9 258.5 74.1 258.4 74.4 258.4 74.6 258.2 74.8 258.1 75 257.9 75.2 257.7 75.3 257.5 75.4 257.3 75.5 257 75.5 256.8 75.5 256.6 75.4 256.3 75.3 256.1 75.2 255.9 75.1 255.9 75.1 255.9 75.1 255 74.8 254 74.5 253 74.5 252 74.5 250.7 74.4 249.4 74.4 248.2 73.7 247 73.1 246.3 72.2 245.6 71.3 245.6 70.2 245.5 69 245.5 68 245.5 67 245.7 65.6 245.8 64.3 246.6 63.6 247.5 62.9 249.3 63.4 251 63.9 251.2 64.3 251.3 64.6 252.5 64.6 253.6 64.6 254.3 65.1 255.1 65.5 256.3 65.6 257.6 65.6 258.8 66.3 260 66.9 260.3 67.3 260.5 67.6 262 68.1 263.5 68.6 263.6 68.7 263.8 68.7 263.9 68.8 264.1 69 264.2 69.1 264.3 69.2 264.4 69.4 264.4 69.6 264.5 69.8 264.5 69.9 264.5 70.1 264.5 70.3 264.4 70.5 264.4 70.6 264.3 70.8 264.2 70.9 264 71.1 263.9 71.2 263.7 71.3 263.6 71.4 263.4 71.4 263.2 71.5 263.1 71.5 262.9 71.5 262.7 71.5 262.5 71.4 262.5 71.4 Z" fill="rgb(255, 255, 255, 1)"/>
  <path d="M 260.5 74.4 Q 260.5 74.4 260 76.4 259.5 78.4 259.5 79.2 259.5 80 259 81.7 258.4 83.5 258.5 84.2 258.5 85 258.4 86.2 258.4 87.3 257.8 88 257.2 88.8 257.3 89.4 257.5 90 257.4 91.2 257.4 92.3 256.8 93 256.2 93.8 256.3 94.4 256.5 95 256.5 96 256.5 97 256.5 98 256.5 99 256.4 99.8 256.4 100.7 256.7 100.8 257.1 100.9 257.6 101.4 258.1 101.9 258.6 102.4 259.1 102.9 259.4 103.4 259.8 103.8 260.4 103.7 261 103.5 262 103.5 263 103.5 264 103.5 265 103.5 265.8 103.6 266.7 103.6 267 103.2 267.3 102.8 268.5 102.7 269.7 102.6 269.8 102.4 269.8 102.3 269.7 101.5 269.6 100.7 270.2 100 270.8 99.3 270.7 98.8 270.6 98.3 270.3 98.2 269.9 98.1 270.5 97.6 271.1 97.1 270.4 97.6 269.8 98.2 268.5 98.3 267.3 98.4 267.2 98.7 267.1 99.1 265.5 99.6 263.9 100.1 263.4 99.6 262.9 99.1 262.4 98.6 261.9 98.1 261.4 97.4 260.8 96.8 260.7 95.4 260.5 94 260.5 93 260.5 92 260.5 91 260.5 90 260.6 88.8 260.6 87.7 261.2 87 261.8 86.3 261.7 85.6 261.5 85 261.6 83.8 261.6 82.7 262.2 82 262.8 81.3 262.7 80.6 262.5 80 263.3 78.3 264 76.5 265.2 76.6 266.3 76.6 267.2 77.3 268 77.9 268.9 78.3 269.7 78.7 270.7 79.2 271.7 79.7 272.2 80.2 272.8 80.8 272.6 81.4 272.5 82 272.5 81 272.5 80 272.5 79 272.5 77.9 273.1 76.7 273.6 75.4 273.6 74.7 273.5 74 273.6 73.2 273.6 72.3 273.4 72.3 273.3 72.2 272.6 72.3 271.9 72.5 270.7 71.9 269.4 71.4 268.7 71.4 268 71.5 266.8 71.4 265.7 71.4 264.8 70.6 263.8 69.8 263.7 68.4 263.5 67 263.6 65.8 263.6 64.7 264.2 64 264.8 63.3 264.7 62.6 264.5 62 264.5 61 264.5 60 264.5 59 264.5 58 264.6 56.8 264.6 55.7 265.2 55 265.8 54.3 265.7 53.5 265.6 52.7 266.1 52.3 266.5 52 266.5 51.8 266.5 51.6 266.6 51.5 266.7 51.3 266.8 51.2 266.9 51 267 50.9 267.1 50.8 267.3 50.7 267.5 50.6 267.6 50.6 267.8 50.5 268 50.5 268.2 50.5 268.4 50.6 268.5 50.6 268.7 50.7 268.9 50.8 269 50.9 269.1 51 269.2 51.2 269.3 51.3 269.4 51.5 269.5 51.6 269.5 51.8 269.5 52 267.7 52.8 266 53.5 265 53.5 264 53.5 263.2 53.4 262.3 53.4 262.3 53.6 262.2 53.8 262.3 54.5 262.4 55.3 261.8 56 261.2 56.8 261.3 57.5 261.4 58.3 260.8 59 260.2 59.8 260.3 60.4 260.5 61 260.4 62.2 260.4 63.3 259.9 64.7 259.5 66 259.5 66.2 259.4 66.5 259.3 66.7 259.2 66.9 259 67.1 258.8 67.2 258.6 67.3 258.4 67.4 258.2 67.5 257.9 67.5 257.7 67.4 257.4 67.4 257.2 67.3 257 67.1 256.9 67 256.7 66.8 256.6 66.5 256.5 66.3 256.5 66.1 256.5 65.8 256.6 65.6 256.6 65.4 256.8 65.2 256.9 65 257.1 64.8 257.3 64.7 257.5 64.6 257.8 64.5 258 64.5 258.2 64.5 258.5 64.6 258.7 64.7 258.9 64.8 259.1 65 259.2 65.2 259.4 65.4 259.4 65.6 259.5 65.8 259.5 66.1 259.5 66.3 259.4 66.5 259.3 66.8 259.1 67 259 67.1 258.8 67.3 258.6 67.4 258.3 67.4 258.1 67.5 257.8 67.5 257.6 67.4 257.4 67.3 257.2 67.2 257 67.1 256.8 66.9 256.7 66.7 256.6 66.5 256.5 66.2 256.5 66 256.5 66 256.5 66 257.1 64.3 257.6 62.7 257.6 61.8 257.5 61 257.7 59.6 257.8 58.3 258.2 58 258.6 57.7 258.7 56.5 258.8 55.3 259.2 55 259.6 54.7 259.7 53.5 259.8 52.3 260.8 51.4 261.7 50.6 262.8 50.6 264 50.5 265 50.5 266 50.5 266.3 51.3 266.5 52 266.5 51.8 266.5 51.6 266.6 51.5 266.7 51.3 266.8 51.2 266.9 51 267 50.9 267.1 50.8 267.3 50.7 267.5 50.6 267.6 50.6 267.8 50.5 268 50.5 268.2 50.5 268.4 50.6 268.5 50.6 268.7 50.7 268.9 50.8 269 50.9 269.1 51 269.2 51.2 269.3 51.3 269.4 51.5 269.5 51.6 269.5 51.8 269.5 52 268.9 52.7 268.4 53.3 268.3 54.5 268.2 55.8 267.8 56 267.4 56.3 267.4 57.2 267.5 58 267.5 59 267.5 60 267.5 61 267.5 62 267.3 63.4 267.2 64.8 266.8 65 266.4 65.3 266.4 66.2 266.5 67 266.3 67.6 266.2 68.3 266.3 68.4 266.3 68.6 267.2 68.6 268 68.5 269.3 68.6 270.6 68.6 271.3 69.1 272.1 69.5 273.4 69.7 274.8 69.8 275.6 70.8 276.4 71.7 276.4 72.8 276.5 74 276.4 75.3 276.4 76.6 275.9 77.3 275.5 78.1 275.5 79 275.5 80 275.5 81 275.5 82 273.4 82.6 271.3 83.2 270.8 82.8 270.3 82.3 269.3 81.8 268.3 81.3 267.1 80.7 266 80.1 265.8 79.7 265.7 79.4 264.8 79.4 264 79.5 264.8 79.8 265.5 80 265.3 81.4 265.2 82.8 264.8 83 264.4 83.3 264.4 84.2 264.5 85 264.3 86.4 264.2 87.8 263.8 88 263.4 88.3 263.4 89.2 263.5 90 263.5 91 263.5 92 263.5 93 263.5 94 263.3 94.6 263.2 95.3 263.6 95.6 264.1 95.9 264.6 96.4 265.1 96.9 265.6 97.4 266.1 97.9 265.5 97.4 264.9 96.9 265.8 96.3 266.7 95.6 267.5 95.7 268.3 95.8 268.6 95.4 268.9 94.9 270.5 95.4 272.1 95.9 272.7 96.8 273.4 97.7 273.3 99.2 273.2 100.8 272.8 101 272.4 101.3 272.3 102.5 272.2 103.8 271.3 104.6 270.3 105.4 269.5 105.3 268.8 105.2 268 105.8 267.3 106.4 266.2 106.4 265 106.5 264 106.5 263 106.5 262 106.5 261 106.5 259.6 106.3 258.3 106.2 257.6 105.6 256.9 105.1 256.4 104.6 255.9 104.1 255.4 103.6 254.9 103.1 254.3 102.2 253.6 101.3 253.6 100.2 253.5 99 253.5 98 253.5 97 253.5 96 253.5 95 253.7 93.6 253.8 92.3 254.2 92 254.6 91.7 254.6 90.8 254.5 90 254.7 88.6 254.8 87.3 255.2 87 255.6 86.7 255.6 85.8 255.5 85 255.5 83.8 255.6 82.6 256 81.3 256.5 80 256.5 78.8 256.5 77.6 257 75.6 257.5 73.6 257.6 73.5 257.7 73.3 257.8 73.2 257.9 73 258 72.9 258.2 72.8 258.3 72.7 258.5 72.6 258.6 72.6 258.8 72.5 259 72.5 259.2 72.5 259.4 72.6 259.5 72.6 259.7 72.7 259.9 72.8 260 72.9 260.1 73 260.2 73.2 260.3 73.3 260.4 73.5 260.5 73.6 260.5 73.8 260.5 74 260.5 74.2 260.5 74.4 260.5 74.4 Z" fill="rgb(255, 255, 255, 1)"/>
  <path d="M 270.5 103.6 Q 270.5 103.6 272 103.1 273.6 102.6 274.6 102.6 275.7 102.6 275.8 102.3 275.9 101.9 276.4 101.4 276.9 100.9 277.4 100.4 278 99.9 279.1 99.3 280.3 98.7 280.6 98.3 281 97.9 282.1 97.3 283.3 96.7 284.6 95.3 285.9 93.9 286.1 93.8 286.3 93.7 286.6 93.6 286.8 93.5 287 93.5 287.3 93.5 287.5 93.6 287.7 93.7 287.9 93.8 288.1 94 288.2 94.2 288.4 94.4 288.4 94.6 288.5 94.9 288.5 95.1 288.5 95.4 288.4 95.6 288.3 95.8 288.1 96 287.9 96.2 287.7 96.3 287.5 96.4 287.3 96.5 287 96.5 286.8 96.5 286.6 96.4 286.3 96.3 286.1 96.2 286 96 285.8 95.9 285.7 95.7 285.6 95.4 285.5 95.2 285.5 95 285.5 94.7 285.6 94.5 285.7 94.3 285.8 94.1 286 93.9 286.2 93.7 286.4 93.6 286.6 93.5 286.9 93.5 287.1 93.5 287.4 93.6 287.6 93.6 287.8 93.8 288 93.9 288.2 94.1 288.3 94.3 288.4 94.5 288.5 94.7 288.5 95 288.5 95.2 288.4 95.4 288.3 95.7 288.2 95.9 288.1 96.1 288.1 96.1 288.1 96.1 286.4 97.7 284.7 99.3 283.9 99.7 283 100.1 282.4 100.7 281.7 101.3 280.9 101.7 280 102.1 279.6 102.6 279.1 103.1 278.6 103.6 278.1 104.1 277.2 104.7 276.3 105.4 275.4 105.4 274.5 105.4 273 105.9 271.5 106.4 271.3 106.5 271.1 106.5 270.9 106.5 270.8 106.5 270.6 106.4 270.4 106.4 270.3 106.3 270.1 106.2 270 106.1 269.8 105.9 269.7 105.8 269.6 105.6 269.6 105.5 269.5 105.3 269.5 105.1 269.5 104.9 269.5 104.8 269.6 104.6 269.6 104.4 269.7 104.2 269.8 104.1 269.9 104 270.1 103.8 270.2 103.7 270.4 103.7 270.5 103.6 270.5 103.6 Z" fill="rgb(255, 255, 255, 1)"/>
  <path d="M 274.5 79.6 Q 274.5 79.6 276.1 80.2 277.7 80.8 278.5 82 279.2 83.2 279.9 83.4 280.7 83.7 281.4 84.3 282.1 84.9 282.6 85.4 283.1 85.9 283.6 86.4 284.1 87 284.7 88.1 285.3 89.3 285.7 89.6 286.1 90 286.7 91.2 287.4 92.4 287.7 93.7 288.1 94.9 288.2 95.1 288.3 95.3 288.4 95.6 288.5 95.8 288.5 96 288.5 96.3 288.4 96.5 288.3 96.7 288.2 96.9 288 97.1 287.8 97.2 287.6 97.4 287.4 97.4 287.1 97.5 286.9 97.5 286.6 97.5 286.4 97.4 286.2 97.3 286 97.1 285.8 96.9 285.7 96.7 285.6 96.5 285.5 96.3 285.5 96 285.5 95.8 285.6 95.6 285.7 95.3 285.8 95.1 286 95 286.1 94.8 286.3 94.7 286.6 94.6 286.8 94.5 287 94.5 287.3 94.5 287.5 94.6 287.7 94.7 287.9 94.8 288.1 95 288.3 95.2 288.4 95.4 288.5 95.6 288.5 95.9 288.5 96.1 288.4 96.4 288.4 96.6 288.2 96.8 288.1 97 287.9 97.2 287.7 97.3 287.5 97.4 287.3 97.5 287 97.5 286.8 97.5 286.6 97.4 286.3 97.3 286.1 97.2 285.9 97.1 285.9 97.1 285.9 97.1 285.3 95.3 284.6 93.6 284.3 92.8 283.9 92 283.3 91.4 282.7 90.7 282.3 89.9 281.9 89 281.4 88.6 280.9 88.1 280.4 87.6 279.9 87.1 279.6 86.7 279.3 86.3 278.1 85.6 276.8 84.8 276.5 84 276.3 83.2 274.9 82.8 273.5 82.4 273.4 82.3 273.2 82.3 273.1 82.2 272.9 82 272.8 81.9 272.7 81.8 272.6 81.6 272.6 81.4 272.5 81.2 272.5 81.1 272.5 80.9 272.5 80.7 272.6 80.5 272.6 80.4 272.7 80.2 272.8 80.1 273 79.9 273.1 79.8 273.3 79.7 273.4 79.6 273.6 79.6 273.8 79.5 273.9 79.5 274.1 79.5 274.3 79.5 274.5 79.6 274.5 79.6 Z" fill="rgb(255, 255, 255, 1)"/>
  <path d="M 289.5 96 Q 289.5 96 289.5 98 289.5 100 289.5 101 289.5 102.1 288.9 103.3 288.4 104.6 288.4 106 288.4 107.3 287.7 108.2 287.1 109 286.8 110.2 286.4 111.5 286.5 112.2 286.5 113 285.4 115.8 284.4 118.6 283.8 119.2 283.2 119.8 283.3 120.5 283.4 121.3 282.8 122 282.2 122.8 282.3 123.5 282.4 124.3 281.7 125.2 281.1 126.1 280.6 126.4 280.2 126.8 279.6 128.4 279.1 130.1 278.9 130.2 278.7 130.3 278.4 130.4 278.2 130.5 278 130.5 277.7 130.5 277.5 130.4 277.3 130.3 277.1 130.2 276.9 130 276.8 129.8 276.6 129.6 276.6 129.4 276.5 129.1 276.5 128.9 276.5 128.6 276.6 128.4 276.7 128.2 276.9 128 277.1 127.8 277.3 127.7 277.5 127.6 277.7 127.5 278 127.5 278.2 127.5 278.4 127.6 278.7 127.7 278.9 127.8 279 128 279.2 128.1 279.3 128.3 279.4 128.6 279.5 128.8 279.5 129 279.5 129.3 279.4 129.5 279.3 129.7 279.2 129.9 279 130.1 278.8 130.3 278.6 130.4 278.4 130.5 278.1 130.5 277.9 130.5 277.6 130.4 277.4 130.4 277.2 130.2 277 130.1 276.8 129.9 276.7 129.7 276.6 129.5 276.5 129.3 276.5 129 276.5 128.8 276.6 128.6 276.7 128.3 276.8 128.1 276.9 127.9 276.9 127.9 276.9 127.9 277.4 126.6 277.8 125.3 278.4 124.6 278.9 123.9 279.3 123.8 279.6 123.7 279.7 122.5 279.8 121.3 280.2 121 280.6 120.7 280.7 119.5 280.8 118.3 281.2 117.8 281.6 117.4 282.6 115.2 283.5 113 283.5 111.8 283.6 110.6 284.2 108.8 284.9 107 285.3 106.8 285.6 106.7 285.6 105 285.6 103.4 286.1 102.7 286.5 101.9 286.5 101 286.5 100 286.5 98 286.5 96 286.5 95.8 286.5 95.6 286.6 95.5 286.7 95.3 286.8 95.2 286.9 95 287 94.9 287.1 94.8 287.3 94.7 287.5 94.6 287.6 94.6 287.8 94.5 288 94.5 288.2 94.5 288.4 94.6 288.5 94.6 288.7 94.7 288.9 94.8 289 94.9 289.1 95 289.2 95.2 289.3 95.3 289.4 95.5 289.5 95.6 289.5 95.8 289.5 96 289.5 96 Z" fill="rgb(255, 255, 255, 1)"/>
  <path d="M 293.1 80.9 Q 293.1 80.9 293.2 81.1 293.3 81.3 293.4 81.6 293.5 81.8 293.5 82 293.5 82.3 293.4 82.5 293.3 82.7 293.2 82.9 293 83.1 292.8 83.2 292.6 83.4 292.4 83.4 292.1 83.5 291.9 83.5 291.6 83.5 291.4 83.4 291.2 83.3 291 83.1 290.8 82.9 290.7 82.7 290.6 82.5 290.5 82.3 290.5 82 290.5 81.8 290.6 81.6 290.7 81.3 290.8 81.1 291 81 291.1 80.8 291.3 80.7 291.6 80.6 291.8 80.5 292 80.5 292.3 80.5 292.5 80.6 292.7 80.7 292.9 80.8 293.1 81 293.3 81.2 293.4 81.4 293.5 81.6 293.5 81.9 293.5 82.1 293.4 82.4 293.4 82.6 293.2 82.8 293.1 83 292.9 83.2 292.7 83.3 292.5 83.4 292.3 83.5 292 83.5 291.8 83.5 291.6 83.4 291.3 83.3 291.1 83.2 290.9 83.1 290.9 83.1 290.9 83.1 290.7 83 290.4 83 290.2 82.9 290 82.8 289.8 82.6 289.6 82.5 289.4 82.3 289.3 82.1 289.2 81.9 289.1 81.7 289 81.4 288.9 81.2 289 80.9 289 80.7 289 80.5 289.1 80.2 289.2 80 289.3 79.8 289.5 79.6 289.7 79.4 289.9 79.3 290.1 79.1 290.3 79.1 290.6 79 290.8 79 291.1 78.9 292.1 79.9 Z" fill="rgb(255, 255, 255, 1)"/>
  <path d="M 300.1 83.9 Q 300.1 83.9 300.2 84.1 300.3 84.3 300.4 84.6 300.5 84.8 300.5 85 300.5 85.3 300.4 85.5 300.3 85.7 300.2 85.9 300 86.1 299.8 86.2 299.6 86.4 299.4 86.4 299.1 86.5 298.9 86.5 298.6 86.5 298.4 86.4 298.2 86.3 298 86.1 297.8 85.9 297.7 85.7 297.6 85.5 297.5 85.3 297.5 85 297.5 84.8 297.6 84.6 297.7 84.3 297.8 84.1 298 84 298.1 83.8 298.3 83.7 298.6 83.6 298.8 83.5 299 83.5 299.3 83.5 299.5 83.6 299.7 83.7 299.9 83.8 300.1 84 300.3 84.2 300.4 84.4 300.5 84.6 300.5 84.9 300.5 85.1 300.4 85.4 300.4 85.6 300.2 85.8 300.1 86 299.9 86.2 299.7 86.3 299.5 86.4 299.3 86.5 299 86.5 298.8 86.5 298.6 86.4 298.3 86.3 298.1 86.2 297.9 86.1 297.9 86.1 297.9 86.1 297.7 86 297.4 86 297.2 85.9 297 85.8 296.8 85.6 296.6 85.5 296.4 85.3 296.3 85.1 296.2 84.9 296.1 84.7 296 84.4 295.9 84.2 296 83.9 296 83.7 296 83.5 296.1 83.2 296.2 83 296.3 82.8 296.5 82.6 296.7 82.4 296.9 82.3 297.1 82.1 297.3 82.1 297.6 82 297.8 82 298.1 81.9 299.1 82.9 Z" fill="rgb(255, 255, 255, 1)"/>
  <path d="M 290.2 86.2 Q 290.2 86.2 291.2 87.7 292.2 89.2 292.8 90.2 293.3 91.3 293.7 91.6 294.1 91.9 295 92.2 296 92.5 296.2 92.5 296.5 92.6 296.7 92.7 296.9 92.8 297.1 93 297.2 93.2 297.3 93.4 297.4 93.6 297.5 93.8 297.5 94.1 297.4 94.3 297.4 94.6 297.3 94.8 297.1 95 297 95.1 296.8 95.3 296.5 95.4 296.3 95.5 296.1 95.5 295.8 95.5 295.6 95.4 295.4 95.4 295.2 95.2 295 95.1 294.8 94.9 294.7 94.7 294.6 94.5 294.5 94.2 294.5 94 294.5 93.8 294.6 93.5 294.7 93.3 294.8 93.1 295 92.9 295.2 92.8 295.4 92.6 295.6 92.6 295.8 92.5 296.1 92.5 296.3 92.5 296.5 92.6 296.8 92.7 297 92.9 297.1 93 297.3 93.2 297.4 93.4 297.4 93.7 297.5 93.9 297.5 94.2 297.4 94.4 297.3 94.6 297.2 94.8 297.1 95 296.9 95.2 296.7 95.3 296.5 95.4 296.2 95.5 296 95.5 296 95.5 296 95.5 294 94.8 291.9 94.1 291.3 93.4 290.7 92.7 290.2 91.8 289.8 90.8 288.8 89.3 287.8 87.8 287.7 87.7 287.6 87.5 287.5 87.3 287.5 87.2 287.5 87 287.5 86.8 287.6 86.6 287.6 86.4 287.7 86.3 287.8 86.1 287.9 86 288 85.9 288.2 85.8 288.3 85.7 288.5 85.6 288.7 85.5 288.8 85.5 289 85.5 289.2 85.5 289.4 85.5 289.6 85.6 289.7 85.7 289.9 85.8 290 85.9 290.1 86 290.2 86.2 290.2 86.2 Z" fill="rgb(255, 255, 255, 1)"/>
  <path d="M 8.9 129.1 Q 8.9 129.1 7.9 128.1 6.9 127.1 6.4 126.6 5.9 126.1 5.4 125.6 4.9 125 4.3 123.8 3.6 122.6 3.6 121.5 3.6 120.3 3.2 120 2.8 119.8 2.7 118.4 2.5 117 2.5 116 2.5 115 2.5 114 2.5 113 2.6 111.8 2.6 110.7 3.2 110 3.8 109.3 3.7 108.5 3.6 107.7 4.3 106.8 4.9 105.9 5.4 105.4 5.9 104.9 6.4 104.4 6.9 103.9 7.4 103.4 7.9 102.9 8.6 102.4 9.3 101.8 10.5 101.7 11.7 101.6 12 101.2 12.3 100.8 13.6 100.7 15 100.5 16 100.5 17 100.5 18 100.5 19 100.5 20 100.5 21 100.5 22 100.5 23 100.5 24.2 100.6 25.3 100.6 26.2 101.3 27.1 101.9 27.6 102.4 28.1 102.9 28.6 103.4 29.1 103.9 29.6 105.5 30.1 107.1 29.6 107.6 29.1 108.1 28.6 108.6 28.1 109.1 27.6 109.6 27.1 110.1 26.6 110.6 26.1 111.1 25.6 111.6 25 112.1 23.9 112.7 22.7 113.3 22.4 113.7 22.1 114.1 21.6 114.6 21 115.1 19.9 115.7 18.7 116.3 18.4 116.7 18.1 117.1 17.6 117.6 17.1 118 16.7 118.9 16.3 119.7 15.7 120.4 15.1 121.1 14.6 121.4 14.2 121.8 14.3 122.5 14.4 123.3 13.7 124.2 13.1 125.1 12.6 125.4 12.2 125.8 12.3 126.5 12.4 127.3 10.7 128.2 8.9 129.1 9.5 127.6 10.1 126.1 9.9 126.2 9.8 126.3 9.6 126.4 9.4 126.4 9.3 126.5 9.1 126.5 8.9 126.5 8.7 126.5 8.6 126.4 8.4 126.4 8.2 126.3 8.1 126.2 7.9 126.1 7.8 125.9 7.7 125.8 7.6 125.6 7.6 125.4 7.5 125.3 7.5 125.1 7.5 124.9 7.5 124.7 7.6 124.6 7.6 124.4 7.7 124.2 7.8 124.1 7.9 123.9 7.8 124.2 7.6 124.5 7.7 124.3 7.8 124.1 8 123.9 8.2 123.8 8.4 123.7 8.6 123.6 8.8 123.5 9.1 123.5 9.3 123.6 9.6 123.6 9.8 123.7 10 123.9 10.1 124 10.3 124.2 10.4 124.5 10.5 124.7 10.5 124.9 10.5 125.2 10.4 125.4 10.4 125.6 10.2 125.8 10.1 126 9.9 126.2 9.7 126.3 9.5 126.4 9.2 126.5 9 126.5 8.8 126.5 8.5 126.4 8.3 126.3 8.1 126.2 7.9 126 7.8 125.8 7.6 125.6 7.6 125.4 7.5 125.2 7.5 124.9 7.5 124.7 7.6 124.5 7.7 124.2 7.9 124 8 123.9 8.2 123.7 8.4 123.6 8.7 123.6 8.9 123.5 9.2 123.5 9.4 123.6 9.6 123.7 9.8 123.8 10 123.9 10.2 124.1 10.3 124.3 10.4 124.5 10.5 124.8 10.5 125 10.3 125.5 10.1 126.1 9.9 126.2 9.8 126.3 9.6 126.4 9.4 126.4 9.3 126.5 9.1 126.5 8.9 126.5 8.7 126.5 8.6 126.4 8.4 126.4 8.2 126.3 8.1 126.2 7.9 126.1 7.8 125.9 7.7 125.8 7.6 125.6 7.6 125.4 7.5 125.3 7.5 125.1 7.5 124.9 7.5 124.7 7.6 124.6 7.6 124.4 7.7 124.2 7.8 124.1 7.9 123.9 9.5 125.4 11.1 126.9 10.3 126.8 9.6 126.7 9.7 125.5 9.8 124.3 10.4 123.6 10.9 122.9 11.3 122.8 11.6 122.7 11.7 121.5 11.8 120.3 12.4 119.6 12.9 118.9 13.3 118.6 13.7 118.3 14.3 117.1 14.9 116 15.4 115.4 15.9 114.9 16.6 114.3 17.3 113.7 18.1 113.3 19 112.9 19.4 112.4 19.9 111.9 20.6 111.3 21.3 110.7 22.1 110.3 23 109.9 23.4 109.4 23.9 108.9 24.4 108.4 24.9 107.9 25.4 107.4 25.9 106.9 26.4 106.4 26.9 105.9 27.4 105.4 27.9 104.9 27.4 105.5 26.9 106.1 26.4 105.6 25.9 105.1 25.4 104.6 24.9 104.1 24.8 103.7 24.7 103.4 23.8 103.4 23 103.5 22 103.5 21 103.5 20 103.5 19 103.5 18 103.5 17 103.5 16 103.5 15 103.5 14.4 103.3 13.8 103.2 13 103.8 12.3 104.4 11.5 104.3 10.8 104.2 10.4 104.6 10.1 105.1 9.6 105.6 9.1 106.1 8.6 106.6 8.1 107.1 7.6 107.6 7.1 108.1 6.7 108.2 6.4 108.3 6.3 109.5 6.2 110.8 5.8 111 5.4 111.3 5.4 112.2 5.5 113 5.5 114 5.5 115 5.5 116 5.5 117 5.3 117.6 5.2 118.3 5.8 119 6.4 119.7 6.4 120.5 6.4 121.4 6.7 122.2 7.1 123 7.6 123.4 8.1 123.9 8.6 124.4 9.1 124.9 10.1 125.9 11.1 126.9 11.2 127.1 11.3 127.2 11.4 127.4 11.4 127.6 11.5 127.7 11.5 127.9 11.5 128.1 11.5 128.3 11.4 128.4 11.4 128.6 11.3 128.8 11.2 128.9 11.1 129.1 10.9 129.2 10.8 129.3 10.6 129.4 10.4 129.4 10.3 129.5 10.1 129.5 9.9 129.5 9.7 129.5 9.6 129.4 9.4 129.4 9.2 129.3 9.1 129.2 8.9 129.1 8.9 129.1 Z" fill="rgb(255, 255, 255, 1)"/>
  <path d="M 8.4 109.5 Q 8.4 109.5 8.9 111 9.4 112.5 9.9 113.4 10.3 114.3 10.9 115.4 11.4 116.4 11.4 117.5 11.4 118.7 11.9 119.3 12.5 120 12.5 120.2 12.5 120.4 12.4 120.5 12.3 120.7 12.2 120.8 12.1 121 12 121.1 11.9 121.2 11.7 121.3 11.5 121.4 11.4 121.4 11.2 121.5 11 121.5 10.8 121.5 10.6 121.4 10.5 121.4 10.3 121.3 10.1 121.2 10 121.1 9.9 121 9.8 120.8 9.7 120.7 9.6 120.5 9.5 120.4 9.5 120.2 9.5 120 9.5 119 9.5 118 9.5 117 9.5 116 9.5 114.5 9.5 113 9.5 112 9.5 111 9.5 110 9.5 109 9.5 108.8 9.5 108.6 9.6 108.5 9.7 108.3 9.8 108.2 9.9 108 10 107.9 10.1 107.8 10.3 107.7 10.5 107.6 10.6 107.6 10.8 107.5 11 107.5 11.2 107.5 11.4 107.6 11.5 107.6 11.7 107.7 11.9 107.8 12 107.9 12.1 108 12.2 108.2 12.3 108.3 12.4 108.5 12.5 108.6 12.5 108.8 12.5 109 13.3 109.5 14.1 109.9 14.6 110.4 15.1 110.9 15.2 111.1 15.3 111.2 15.4 111.4 15.4 111.6 15.5 111.7 15.5 111.9 15.5 112.1 15.5 112.3 15.4 112.4 15.4 112.6 15.3 112.8 15.2 112.9 15.1 113.1 14.9 113.2 14.8 113.3 14.6 113.4 14.4 113.4 14.3 113.5 14.1 113.5 13.9 113.5 13.7 113.5 13.6 113.4 13.4 113.4 13.2 113.3 13.1 113.2 12.9 113.1 12.7 111.6 12.5 110.1 12.1 109.3 11.6 108.6 11.6 107 11.6 105.3 11.1 104.7 10.5 104 10.5 103.8 10.5 103.6 10.6 103.5 10.7 103.3 10.8 103.2 10.9 103 11 102.9 11.1 102.8 11.3 102.7 11.5 102.6 11.6 102.6 11.8 102.5 12 102.5 12.2 102.5 12.4 102.6 12.5 102.6 12.7 102.7 12.9 102.8 13 102.9 13.1 103 13.2 103.2 13.3 103.3 13.4 103.5 13.5 103.6 13.5 103.8 13.5 104 13.8 104 14.1 103.9 14.6 104.4 15.1 105 15.7 106.1 16.3 107.3 16.7 107.6 17.1 107.9 17.6 108.4 18.1 108.9 18.4 109.4 18.8 109.8 19.9 109.9 21.1 109.9 21.2 110.1 21.3 110.2 21.4 110.4 21.4 110.6 21.5 110.7 21.5 110.9 21.5 111.1 21.5 111.3 21.4 111.4 21.4 111.6 21.3 111.8 21.2 111.9 21.1 112.1 20.9 112.2 20.8 112.3 20.6 112.4 20.4 112.4 20.3 112.5 20.1 112.5 19.9 112.5 19.7 112.5 19.6 112.4 19.4 112.4 19.2 112.3 19.1 112.2 18.9 112.1 18.4 111.6 17.9 111.1 17.4 110.6 16.9 110.1 16.4 109.6 15.9 109.1 15.4 108.4 14.8 107.8 14.7 106.5 14.6 105.3 14.1 104.7 13.5 104 13.5 103.8 13.5 103.6 13.6 103.5 13.7 103.3 13.8 103.2 13.9 103 14 102.9 14.1 102.8 14.3 102.7 14.5 102.6 14.6 102.6 14.8 102.5 15 102.5 15.2 102.5 15.4 102.6 15.5 102.6 15.7 102.7 15.9 102.8 16 102.9 16.1 103 16.2 103.2 16.3 103.3 16.4 103.5 16.5 103.6 16.5 103.8 16.5 104 16.6 103.9 16.8 103.8 17.4 103.7 18 103.5 19.2 103.6 20.3 103.6 21.2 104.3 22.1 104.9 23 105.2 24 105.5 24.2 105.5 24.5 105.6 24.7 105.7 24.9 105.8 25.1 106 25.2 106.2 25.3 106.4 25.4 106.6 25.5 106.8 25.5 107.1 25.4 107.3 25.4 107.6 25.3 107.8 25.1 108 25 108.1 24.8 108.3 24.5 108.4 24.3 108.5 24.1 108.5 23.8 108.5 23.6 108.4 23.4 108.4 23.2 108.2 23 108.1 22.8 107.9 22.7 107.7 22.6 107.5 22.5 107.2 22.5 107 22.5 106.8 22.6 106.5 22.7 106.3 22.8 106.1 23 105.9 23.2 105.8 23.4 105.6 23.6 105.6 23.8 105.5 24.1 105.5 24.3 105.5 24.5 105.6 24.8 105.7 25 105.9 25.1 106 25.3 106.2 25.4 106.4 25.4 106.7 25.5 106.9 25.5 107.2 25.4 107.4 25.3 107.6 25.2 107.8 25.1 108 24.9 108.2 24.7 108.3 24.5 108.4 24.2 108.5 24 108.5 24 108.5 24 108.5 22 107.8 19.9 107.1 19.8 106.7 19.7 106.4 18.8 106.4 18 106.5 16.6 106.3 15.3 106.2 14.4 105.1 13.5 104 13.5 103.8 13.5 103.6 13.6 103.5 13.7 103.3 13.8 103.2 13.9 103 14 102.9 14.1 102.8 14.3 102.7 14.5 102.6 14.6 102.6 14.8 102.5 15 102.5 15.2 102.5 15.4 102.6 15.5 102.6 15.7 102.7 15.9 102.8 16 102.9 16.1 103 16.2 103.2 16.3 103.3 16.4 103.5 16.5 103.6 16.5 103.8 16.5 104 16.9 104.3 17.4 104.7 17.3 105.5 17.2 106.3 17.6 106.6 18.1 106.9 18.6 107.4 19.1 107.9 19.6 108.4 20.1 108.9 20.6 109.4 21.1 109.9 21.2 110.1 21.3 110.2 21.4 110.4 21.4 110.6 21.5 110.7 21.5 110.9 21.5 111.1 21.5 111.3 21.4 111.4 21.4 111.6 21.3 111.8 21.2 111.9 21.1 112.1 20.9 112.2 20.8 112.3 20.6 112.4 20.4 112.4 20.3 112.5 20.1 112.5 19.9 112.5 19.7 112.5 19.6 112.4 19.4 112.4 19.2 112.3 19.1 112.2 18.9 112.1 18.1 112.1 17.3 112.2 16.6 111.6 15.9 111.1 15.4 110.6 14.9 110.1 14.3 109.4 13.7 108.7 13.3 107.9 12.9 107 12.4 106.6 11.9 106.1 11.2 105 10.5 104 10.5 103.8 10.5 103.6 10.6 103.5 10.7 103.3 10.8 103.2 10.9 103 11 102.9 11.1 102.8 11.3 102.7 11.5 102.6 11.6 102.6 11.8 102.5 12 102.5 12.2 102.5 12.4 102.6 12.5 102.6 12.7 102.7 12.9 102.8 13 102.9 13.1 103 13.2 103.2 13.3 103.3 13.4 103.5 13.5 103.6 13.5 103.8 13.5 104 13.9 104.3 14.4 104.7 14.4 106 14.4 107.4 14.9 108.7 15.5 109.9 15.3 110.4 15.1 110.9 15.2 111.1 15.3 111.2 15.4 111.4 15.4 111.6 15.5 111.7 15.5 111.9 15.5 112.1 15.5 112.3 15.4 112.4 15.4 112.6 15.3 112.8 15.2 112.9 15.1 113.1 14.9 113.2 14.8 113.3 14.6 113.4 14.4 113.4 14.3 113.5 14.1 113.5 13.9 113.5 13.7 113.5 13.6 113.4 13.4 113.4 13.2 113.3 13.1 113.2 12.9 113.1 12.4 112.6 11.9 112.1 10.7 110.5 9.5 109 9.5 108.8 9.5 108.6 9.6 108.5 9.7 108.3 9.8 108.2 9.9 108 10 107.9 10.1 107.8 10.3 107.7 10.5 107.6 10.6 107.6 10.8 107.5 11 107.5 11.2 107.5 11.4 107.6 11.5 107.6 11.7 107.7 11.9 107.8 12 107.9 12.1 108 12.2 108.2 12.3 108.3 12.4 108.5 12.5 108.6 12.5 108.8 12.5 109 12.5 110 12.5 111 12.5 112 12.5 113 12.5 114.5 12.5 116 12.5 117 12.5 118 12.5 119 12.5 120 12.5 120.2 12.5 120.4 12.4 120.5 12.3 120.7 12.2 120.8 12.1 121 12 121.1 11.9 121.2 11.7 121.3 11.5 121.4 11.4 121.4 11.2 121.5 11 121.5 10.8 121.5 10.6 121.4 10.5 121.4 10.3 121.3 10.1 121.2 10 121.1 9.9 121 9.8 120.8 9.7 120.7 9.6 120.5 9.5 120.4 9.5 120.2 9.5 120 9.1 119.7 8.6 119.3 8.6 118.5 8.6 117.6 8.2 116.6 7.7 115.7 7.1 114.6 6.6 113.5 6.1 112 5.6 110.5 5.5 110.3 5.5 110.1 5.5 109.9 5.5 109.8 5.6 109.6 5.6 109.4 5.7 109.3 5.8 109.1 5.9 109 6.1 108.8 6.2 108.7 6.4 108.6 6.5 108.6 6.7 108.5 6.9 108.5 7.1 108.5 7.2 108.5 7.4 108.6 7.6 108.6 7.8 108.7 7.9 108.8 8 108.9 8.2 109.1 8.3 109.2 8.3 109.4 8.4 109.5 8.4 109.5 Z" fill="rgb(255, 255, 255, 1)"/>
  <path d="M 28.8 107.2 Q 28.8 107.2 29.8 105.6 30.8 104.1 32.1 103.4 33.3 102.7 33.6 102.3 34 101.9 35.1 101.3 36.3 100.7 37.3 100.2 38.3 99.7 38.6 99.3 38.9 98.9 39.6 98.4 40.3 97.8 41.5 97.7 42.7 97.6 42.8 97.3 42.9 96.9 43.4 96.4 43.9 95.9 44.1 95.8 44.2 95.7 44.4 95.6 44.6 95.6 44.7 95.5 44.9 95.5 45.1 95.5 45.3 95.5 45.4 95.6 45.6 95.6 45.8 95.7 45.9 95.8 46.1 95.9 46.2 96.1 46.3 96.2 46.4 96.4 46.4 96.6 46.5 96.7 46.5 96.9 46.5 97.1 46.5 97.3 46.4 97.4 46.4 97.6 46.3 97.8 46.2 97.9 46.1 98.1 44.5 98.3 43 98.5 42 98.5 41 98.5 40.2 98.4 39.3 98.4 39 98.8 38.8 99.2 37.5 99.3 36.3 99.4 36.2 99.7 36.1 100.1 35.6 100.6 35.1 101.1 34.6 101.6 34.1 102.1 33.4 102.6 32.8 103.2 31.5 103.3 30.3 103.4 29.2 104.7 28.1 106.1 27.9 106.2 27.7 106.3 27.4 106.4 27.2 106.5 27 106.5 26.7 106.5 26.5 106.4 26.3 106.3 26.1 106.2 25.9 106 25.8 105.8 25.6 105.6 25.6 105.4 25.5 105.1 25.5 104.9 25.5 104.6 25.6 104.4 25.7 104.2 25.9 104 26.1 103.8 26.3 103.7 26.5 103.6 26.7 103.5 27 103.5 27.2 103.5 27.4 103.6 27.7 103.7 27.9 103.8 28 104 28.2 104.1 28.3 104.3 28.4 104.6 28.5 104.8 28.5 105 28.5 105.3 28.4 105.5 28.3 105.7 28.2 105.9 28 106.1 27.8 106.3 27.6 106.4 27.4 106.5 27.1 106.5 26.9 106.5 26.6 106.4 26.4 106.4 26.2 106.2 26 106.1 25.8 105.9 25.7 105.7 25.6 105.5 25.5 105.3 25.5 105 25.5 104.8 25.6 104.6 25.7 104.3 25.8 104.1 25.9 103.9 25.9 103.9 25.9 103.9 27.8 102.3 29.7 100.6 30.5 100.7 31.3 100.8 31.6 100.4 31.9 99.9 32.4 99.4 32.9 98.9 33.4 98.4 33.9 97.9 34.8 97.3 35.7 96.6 36.5 96.7 37.3 96.8 38 96.2 38.7 95.6 39.8 95.6 41 95.5 42 95.5 43 95.5 43.5 95.7 43.9 95.9 44.1 95.8 44.2 95.7 44.4 95.6 44.6 95.6 44.7 95.5 44.9 95.5 45.1 95.5 45.3 95.5 45.4 95.6 45.6 95.6 45.8 95.7 45.9 95.8 46.1 95.9 46.2 96.1 46.3 96.2 46.4 96.4 46.4 96.6 46.5 96.7 46.5 96.9 46.5 97.1 46.5 97.3 46.4 97.4 46.4 97.6 46.3 97.8 46.2 97.9 46.1 98.1 45.6 98.6 45.1 99.1 44.2 99.7 43.3 100.4 42.5 100.3 41.8 100.2 41.4 100.6 41.1 101.1 40.4 101.7 39.7 102.3 38.7 102.8 37.7 103.3 36.9 103.7 36 104.1 35.4 104.7 34.7 105.3 33.9 105.6 33.2 105.9 32.2 107.4 31.2 108.8 31.1 109 31 109.1 30.9 109.2 30.7 109.3 30.6 109.4 30.4 109.5 30.2 109.5 30 109.5 29.8 109.5 29.7 109.5 29.5 109.4 29.3 109.3 29.2 109.2 29 109.1 28.9 109 28.8 108.9 28.7 108.7 28.6 108.6 28.6 108.4 28.5 108.2 28.5 108 28.5 107.8 28.5 107.7 28.6 107.5 28.7 107.3 28.8 107.2 28.8 107.2 Z" fill="rgb(255, 255, 255, 1)"/>
  <path d="M 277.5 130.4 Q 277.5 130.4 276 130.9 274.5 131.4 273.6 131.8 272.7 132.3 272 133.6 271.2 134.9 269.9 135.6 268.7 136.3 267.7 136.8 266.7 137.3 265.3 138.3 263.8 139.2 262.8 139.8 261.7 140.3 260.3 141.3 258.9 142.2 258.6 143 258.2 143.8 256.9 144.6 255.7 145.3 254.7 145.8 253.7 146.3 251.9 147.7 250.1 149.1 249.9 149.2 249.7 149.3 249.4 149.4 249.2 149.5 249 149.5 248.7 149.5 248.5 149.4 248.3 149.3 248.1 149.2 247.9 149 247.8 148.8 247.6 148.6 247.6 148.4 247.5 148.1 247.5 147.9 247.5 147.6 247.6 147.4 247.7 147.2 247.9 147 248.1 146.8 248.3 146.7 248.5 146.6 248.7 146.5 249 146.5 249.2 146.5 249.4 146.6 249.7 146.7 249.9 146.8 250 147 250.2 147.1 250.3 147.3 250.4 147.6 250.5 147.8 250.5 148 250.5 148.3 250.4 148.5 250.3 148.7 250.2 148.9 250 149.1 249.8 149.3 249.6 149.4 249.4 149.5 249.1 149.5 248.9 149.5 248.6 149.4 248.4 149.4 248.2 149.2 248 149.1 247.8 148.9 247.7 148.7 247.6 148.5 247.5 148.3 247.5 148 247.5 147.8 247.6 147.6 247.7 147.3 247.8 147.1 247.9 146.9 247.9 146.9 247.9 146.9 250.1 145.3 252.3 143.7 253.3 143.2 254.3 142.7 255.1 142.4 255.8 142.2 256.4 141 257.1 139.8 258.7 138.7 260.3 137.7 261.2 137.2 262.2 136.8 263.7 135.7 265.3 134.7 266.3 134.2 267.3 133.7 268.1 133.4 268.8 133.1 270 131.4 271.3 129.7 272.4 129.2 273.5 128.6 275 128.1 276.5 127.6 276.7 127.5 276.9 127.5 277.1 127.5 277.2 127.5 277.4 127.6 277.6 127.6 277.7 127.7 277.9 127.8 278 127.9 278.2 128.1 278.3 128.2 278.4 128.4 278.4 128.5 278.5 128.7 278.5 128.9 278.5 129.1 278.5 129.2 278.4 129.4 278.4 129.6 278.3 129.8 278.2 129.9 278.1 130 277.9 130.2 277.8 130.3 277.6 130.3 277.5 130.4 277.5 130.4 Z" fill="rgb(255, 255, 255, 1)"/>
  <path d="M 278.1 128.9 Q 278.1 128.9 279.1 129.9 280.1 130.9 280.6 131.5 281.1 132 281.8 133.8 282.4 135.6 282.5 136.8 282.5 138 283 139.3 283.4 140.6 283.5 141.8 283.5 143 283.5 144 283.5 145 283.5 146 283.5 147 284 148.8 284.5 150.6 284.5 151.8 284.5 153 284.4 153.8 284.4 154.7 284.9 156.3 285.5 158 285.5 158.2 285.4 158.5 285.3 158.7 285.2 158.9 285 159.1 284.8 159.2 284.6 159.3 284.4 159.4 284.2 159.5 283.9 159.5 283.7 159.4 283.4 159.4 283.2 159.3 283 159.1 282.9 159 282.7 158.8 282.6 158.5 282.5 158.3 282.5 158.1 282.5 157.8 282.6 157.6 282.6 157.4 282.8 157.2 282.9 157 283.1 156.8 283.3 156.7 283.5 156.6 283.8 156.5 284 156.5 284.2 156.5 284.5 156.6 284.7 156.7 284.9 156.8 285.1 157 285.2 157.2 285.4 157.4 285.4 157.6 285.5 157.8 285.5 158.1 285.5 158.3 285.4 158.5 285.3 158.8 285.1 159 285 159.1 284.8 159.3 284.6 159.4 284.3 159.4 284.1 159.5 283.8 159.5 283.6 159.4 283.4 159.3 283.2 159.2 283 159.1 282.8 158.9 282.7 158.7 282.6 158.5 282.5 158.2 282.5 158 282.5 158 282.5 158 282.1 156.7 281.6 155.3 281.6 154.2 281.5 153 281.5 152.2 281.5 151.4 281 149.2 280.5 147 280.5 146 280.5 145 280.5 144 280.5 143 280.5 142.2 280.6 141.5 280 139.7 279.5 138 279.5 137.2 279.6 136.5 279.2 135.2 278.9 134 278.4 133.5 277.9 133.1 276.9 132.1 275.9 131.1 275.8 130.9 275.7 130.8 275.6 130.6 275.6 130.4 275.5 130.3 275.5 130.1 275.5 129.9 275.5 129.7 275.6 129.6 275.6 129.4 275.7 129.2 275.8 129.1 275.9 128.9 276.1 128.8 276.2 128.7 276.4 128.6 276.6 128.6 276.7 128.5 276.9 128.5 277.1 128.5 277.3 128.5 277.4 128.6 277.6 128.6 277.8 128.7 277.9 128.8 278.1 128.9 278.1 128.9 Z" fill="rgb(255, 255, 255, 1)"/>
  <path d="M 289.6 98.5 Q 289.6 98.5 287.2 97.4 284.8 96.4 284.7 95.3 284.6 94.3 284.3 94.2 283.9 94.1 283.4 93.4 282.8 92.8 282.7 91.5 282.6 90.3 282.2 90 281.8 89.8 281.7 88.5 281.6 87.3 281.2 87 280.8 86.8 280.7 85.4 280.5 84 280.5 83 280.5 82 280.6 80.8 280.6 79.7 281.3 78.8 281.9 77.9 282.4 77.4 282.9 76.9 283.4 76.4 283.9 75.9 284.4 75.4 284.9 74.9 285.4 74.4 286 73.9 287.1 73.3 288.3 72.7 288.8 72.2 289.3 71.8 290.6 71.7 292 71.5 292.8 71.6 293.7 71.6 294 71.2 294.3 70.8 295.6 70.7 297 70.5 298 70.5 299 70.5 300.2 70.6 301.3 70.6 302.2 71.3 303.1 71.9 303.6 72.4 304.1 72.9 304.6 73.4 305.1 73.9 305.6 74.4 306.1 74.9 306.6 75.4 307.1 76 307.7 77.2 308.4 78.4 308.4 79.5 308.4 80.7 308.8 81 309.2 81.3 309.3 82.6 309.5 84 309.5 85 309.5 86 309.5 87 309.5 88 309.4 89.2 309.4 90.3 308.7 91.2 308.1 92.1 307.6 92.6 307.1 93.1 306.6 93.6 306.1 94.1 305.6 94.6 305.1 95.1 304.4 95.6 303.8 96.2 302.5 96.3 301.3 96.4 301 96.8 300.8 97.2 299.5 97.3 298.3 97.4 298 97.8 297.8 98.2 296.4 98.3 295 98.5 293 98.5 291 98.5 290.8 98.5 290.5 98.4 290.3 98.3 290.1 98.2 289.9 98 289.8 97.8 289.7 97.6 289.6 97.4 289.5 97.2 289.5 96.9 289.6 96.7 289.6 96.4 289.7 96.2 289.9 96 290 95.9 290.2 95.7 290.5 95.6 290.7 95.5 290.9 95.5 291.2 95.5 291.4 95.6 291.6 95.6 291.8 95.8 292 95.9 292.2 96.1 292.3 96.3 292.4 96.5 292.5 96.8 292.5 97 292.5 97.2 292.4 97.5 292.3 97.7 292.2 97.9 292 98.1 291.8 98.2 291.6 98.4 291.4 98.4 291.2 98.5 290.9 98.5 290.7 98.5 290.5 98.4 290.2 98.3 290 98.1 289.9 98 289.7 97.8 289.6 97.6 289.6 97.3 289.5 97.1 289.5 96.8 289.6 96.6 289.7 96.4 289.8 96.2 289.9 96 290.1 95.8 290.3 95.7 290.5 95.6 290.8 95.5 291 95.5 291 95.5 291 95.5 293 95.5 295 95.5 295.6 95.7 296.3 95.8 297 95.2 297.7 94.6 298.5 94.7 299.3 94.8 300 94.2 300.7 93.6 301.5 93.7 302.3 93.8 302.6 93.4 302.9 92.9 303.4 92.4 303.9 91.9 304.4 91.4 304.9 90.9 305.4 90.4 305.9 89.9 306.3 89.8 306.6 89.7 306.6 88.8 306.5 88 306.5 87 306.5 86 306.5 85 306.5 84 306.7 83.4 306.8 82.8 306.2 82 305.6 81.3 305.6 80.5 305.6 79.6 305.3 78.8 304.9 78 304.4 77.6 303.9 77.1 303.4 76.6 302.9 76.1 302.4 75.6 301.9 75.1 301.4 74.6 300.9 74.1 300.8 73.7 300.7 73.4 299.8 73.4 299 73.5 298 73.5 297 73.5 296.4 73.3 295.8 73.2 295 73.8 294.3 74.4 293.2 74.4 292 74.5 291.4 74.3 290.8 74.2 290.2 74.8 289.7 75.3 288.9 75.7 288 76.1 287.6 76.6 287.1 77.1 286.6 77.6 286.1 78.1 285.6 78.6 285.1 79.1 284.6 79.6 284.1 80.1 283.7 80.2 283.4 80.3 283.4 81.2 283.5 82 283.5 83 283.5 84 283.3 84.6 283.2 85.3 283.8 86 284.4 86.7 284.3 87.5 284.2 88.3 284.8 89 285.4 89.7 285.3 90.5 285.2 91.3 285.6 91.6 286.1 91.9 286.7 92.8 287.4 93.7 287.3 94.7 287.2 95.6 288.8 95.6 290.4 95.5 290.5 95.6 290.7 95.7 290.8 95.8 291 95.9 291.1 96 291.2 96.2 291.3 96.3 291.4 96.5 291.4 96.6 291.5 96.8 291.5 97 291.5 97.2 291.4 97.4 291.4 97.5 291.3 97.7 291.2 97.9 291.1 98 291 98.1 290.8 98.2 290.7 98.3 290.5 98.4 290.4 98.5 290.2 98.5 290 98.5 289.8 98.5 289.6 98.5 289.6 98.5 Z" fill="rgb(255, 255, 255, 1)"/>
  <path d="M 199.5 76 Q 199.5 76 199.5 77.5 199.5 79 199.5 80 199.5 81 200 82.3 200.4 83.6 200.5 84.8 200.5 86 200.5 87.5 200.5 89 200.5 90 200.5 91 200.5 92 200.5 93 200.5 94 200.5 95 200.5 96 200.5 97 200.5 98 200.5 99 200.5 100 200.5 101 200.5 102 200.5 103 200.5 104 200.5 105 200.4 105.8 200.4 106.7 200.6 106.8 200.8 106.8 201.2 106.7 201.7 106.6 202 106.2 202.3 105.8 204.6 105.7 207 105.5 207.2 105.5 207.5 105.6 207.7 105.7 207.9 105.8 208.1 106 208.2 106.2 208.3 106.4 208.4 106.6 208.5 106.8 208.5 107.1 208.4 107.3 208.4 107.6 208.3 107.8 208.1 108 208 108.1 207.8 108.3 207.5 108.4 207.3 108.5 207.1 108.5 206.8 108.5 206.6 108.4 206.4 108.4 206.2 108.2 206 108.1 205.8 107.9 205.7 107.7 205.6 107.5 205.5 107.2 205.5 107 205.5 106.8 205.6 106.5 205.7 106.3 205.8 106.1 206 105.9 206.2 105.8 206.4 105.6 206.6 105.6 206.8 105.5 207.1 105.5 207.3 105.5 207.5 105.6 207.8 105.7 208 105.9 208.1 106 208.3 106.2 208.4 106.4 208.4 106.7 208.5 106.9 208.5 107.2 208.4 107.4 208.3 107.6 208.2 107.8 208.1 108 207.9 108.2 207.7 108.3 207.5 108.4 207.2 108.5 207 108.5 207 108.5 207 108.5 205.4 108.3 203.8 108.2 203 108.8 202.3 109.4 200.8 109.3 199.3 109.2 198.4 108.3 197.6 107.3 197.6 106.2 197.5 105 197.5 104 197.5 103 197.5 102 197.5 101 197.5 100 197.5 99 197.5 98 197.5 97 197.5 96 197.5 95 197.5 94 197.5 93 197.5 92 197.5 91 197.5 90 197.5 89 197.5 87.5 197.5 86 197.5 85.2 197.6 84.5 197 82.7 196.5 81 196.5 80 196.5 79 196.5 77.5 196.5 76 196.5 75.8 196.5 75.6 196.6 75.5 196.7 75.3 196.8 75.2 196.9 75 197 74.9 197.1 74.8 197.3 74.7 197.5 74.6 197.6 74.6 197.8 74.5 198 74.5 198.2 74.5 198.4 74.6 198.5 74.6 198.7 74.7 198.9 74.8 199 74.9 199.1 75 199.2 75.2 199.3 75.3 199.4 75.5 199.5 75.6 199.5 75.8 199.5 76 199.5 76 Z" fill="rgb(255, 255, 255, 1)"/>
  <path d="M 208.3 86.3 Q 208.3 86.3 209.4 88.4 210.4 90.4 210.4 91.7 210.5 93 210.5 94.5 210.5 96 210.5 97 210.5 98 210.5 99 210.5 100 210.5 102.5 210.5 105 210.5 105.2 210.4 105.5 210.3 105.7 210.2 105.9 210 106.1 209.8 106.2 209.6 106.3 209.4 106.4 209.2 106.5 208.9 106.5 208.7 106.4 208.4 106.4 208.2 106.3 208 106.1 207.9 106 207.7 105.8 207.6 105.5 207.5 105.3 207.5 105.1 207.5 104.8 207.6 104.6 207.6 104.4 207.8 104.2 207.9 104 208.1 103.8 208.3 103.7 208.5 103.6 208.8 103.5 209 103.5 209.2 103.5 209.5 103.6 209.7 103.7 209.9 103.8 210.1 104 210.2 104.2 210.4 104.4 210.4 104.6 210.5 104.8 210.5 105.1 210.5 105.3 210.4 105.5 210.3 105.8 210.1 106 210 106.1 209.8 106.3 209.6 106.4 209.3 106.4 209.1 106.5 208.8 106.5 208.6 106.4 208.4 106.3 208.2 106.2 208 106.1 207.8 105.9 207.7 105.7 207.6 105.5 207.5 105.2 207.5 105 207.5 105 207.5 105 207.5 102.5 207.5 100 207.5 99 207.5 98 207.5 97 207.5 96 207.5 94.5 207.5 93 207.6 92.3 207.6 91.6 206.7 89.6 205.7 87.7 205.6 87.5 205.5 87.3 205.5 87.2 205.5 87 205.5 86.8 205.6 86.6 205.6 86.4 205.7 86.3 205.8 86.1 205.9 86 206 85.9 206.2 85.7 206.3 85.7 206.5 85.6 206.7 85.5 206.8 85.5 207 85.5 207.2 85.5 207.4 85.6 207.6 85.6 207.7 85.7 207.9 85.8 208 85.9 208.1 86 208.2 86.2 208.3 86.3 208.3 86.3 Z" fill="rgb(255, 255, 255, 1)"/>
  <path d="M 206.8 87.2 Q 206.8 87.2 207.8 85.7 208.8 84.2 209.3 83.6 209.9 82.9 210.6 82.4 211.3 81.8 212.8 81.7 214.3 81.6 215.2 82.3 216.1 82.9 216.6 83.4 217.1 83.9 217.6 84.4 218.1 84.9 218.6 85.4 219.1 85.9 219.6 86.5 220.1 87 220.7 88.7 221.4 90.5 221.8 90.9 222.2 91.3 222.3 93.1 222.5 94.9 222.9 95.7 223.4 96.4 223.4 97.7 223.5 99 223.5 100 223.5 101 223.5 102 223.5 103 222.8 105 222.1 107.1 221.9 107.2 221.7 107.3 221.4 107.4 221.2 107.5 221 107.5 220.7 107.5 220.5 107.4 220.3 107.3 220.1 107.2 219.9 107 219.8 106.8 219.6 106.6 219.6 106.4 219.5 106.1 219.5 105.9 219.5 105.6 219.6 105.4 219.7 105.2 219.9 105 220.1 104.8 220.3 104.7 220.5 104.6 220.7 104.5 221 104.5 221.2 104.5 221.4 104.6 221.7 104.7 221.9 104.8 222 105 222.2 105.1 222.3 105.3 222.4 105.6 222.5 105.8 222.5 106 222.5 106.3 222.4 106.5 222.3 106.7 222.2 106.9 222 107.1 221.8 107.3 221.6 107.4 221.4 107.5 221.1 107.5 220.9 107.5 220.6 107.4 220.4 107.4 220.2 107.2 220 107.1 219.8 106.9 219.7 106.7 219.6 106.5 219.5 106.3 219.5 106 219.5 105.8 219.6 105.6 219.7 105.3 219.8 105.1 219.9 104.9 219.9 104.9 219.9 104.9 220.2 104 220.5 103 220.5 102 220.5 101 220.5 100 220.5 99 220.6 98.3 220.6 97.6 220.1 96.3 219.5 95.1 219.7 93.9 219.8 92.8 219.2 92.1 218.6 91.5 218.3 90.3 217.9 89 217.4 88.5 216.9 88.1 216.4 87.6 215.9 87.1 215.4 86.6 214.9 86.1 214.4 85.6 213.9 85.1 213.8 84.7 213.7 84.4 213.2 84.3 212.8 84.2 212.4 84.6 212.1 85.1 211.7 85.4 211.2 85.8 210.2 87.3 209.2 88.8 209.1 89 209 89.1 208.9 89.2 208.7 89.3 208.6 89.4 208.4 89.5 208.2 89.5 208 89.5 207.8 89.5 207.7 89.5 207.5 89.4 207.3 89.3 207.2 89.2 207 89.1 206.9 89 206.8 88.9 206.7 88.7 206.6 88.6 206.6 88.4 206.5 88.2 206.5 88 206.5 87.8 206.5 87.7 206.6 87.5 206.7 87.3 206.8 87.2 206.8 87.2 Z" fill="rgb(255, 255, 255, 1)"/>
  <path d="M 221 103.5 Q 221 103.5 223 103.5 225 103.5 226 103.5 227 103.5 229 103.5 231 103.5 231.2 103.5 231.5 103.6 231.7 103.7 231.9 103.8 232.1 104 232.2 104.2 232.3 104.4 232.4 104.6 232.5 104.8 232.5 105.1 232.4 105.3 232.4 105.6 232.3 105.8 232.1 106 232 106.1 231.8 106.3 231.5 106.4 231.3 106.5 231.1 106.5 230.8 106.5 230.6 106.4 230.4 106.4 230.2 106.2 230 106.1 229.8 105.9 229.7 105.7 229.6 105.5 229.5 105.2 229.5 105 229.5 104.8 229.6 104.5 229.7 104.3 229.8 104.1 230 103.9 230.2 103.8 230.4 103.6 230.6 103.6 230.8 103.5 231.1 103.5 231.3 103.5 231.5 103.6 231.8 103.7 232 103.9 232.1 104 232.3 104.2 232.4 104.4 232.4 104.7 232.5 104.9 232.5 105.2 232.4 105.4 232.3 105.6 232.2 105.8 232.1 106 231.9 106.2 231.7 106.3 231.5 106.4 231.2 106.5 231 106.5 231 106.5 231 106.5 229 106.5 227 106.5 226 106.5 225 106.5 223 106.5 221 106.5 220.8 106.5 220.6 106.5 220.5 106.4 220.3 106.3 220.2 106.2 220 106.1 219.9 106 219.8 105.9 219.7 105.7 219.6 105.5 219.6 105.4 219.5 105.2 219.5 105 219.5 104.8 219.6 104.6 219.6 104.5 219.7 104.3 219.8 104.1 219.9 104 220 103.9 220.2 103.8 220.3 103.7 220.5 103.6 220.6 103.5 220.8 103.5 221 103.5 221 103.5 Z" fill="rgb(255, 255, 255, 1)"/>
  <path d="M 228.5 104 Q 228.5 104 228.5 102 228.5 100 228.5 99 228.5 98 228.5 97 228.5 96 228.5 95 228.5 94 228.5 92.5 228.5 91 228.5 90 228.5 89 228.5 88 228.5 87 228.5 86 228.5 85 228.5 84 228.5 83.1 228.1 82.3 227.6 81.6 227.6 80.5 227.6 79.3 227.3 79.2 226.9 79.1 226.4 78.4 225.8 77.8 225.7 76.5 225.6 75.3 225.3 75.2 224.9 75.1 224.4 74.6 223.9 74.1 223.4 73.6 222.9 73.1 222.6 72.6 222.3 72.2 221.5 72.3 220.7 72.4 220 71.8 219.3 71.2 218.6 71.3 218 71.5 217 71.5 216 71.5 215 71.5 214 71.5 213.2 71.4 212.3 71.4 212 71.8 211.8 72.2 210.5 72.3 209.3 72.4 209.2 72.7 209.1 73.1 208.6 73.6 208.1 74.1 207.6 74.6 207.1 75 206.7 75.9 206.3 76.7 205.9 77.8 205.5 79 205.5 79.2 205.4 79.5 205.3 79.7 205.2 79.9 205 80.1 204.8 80.2 204.6 80.3 204.4 80.4 204.2 80.5 203.9 80.5 203.7 80.4 203.4 80.4 203.2 80.3 203 80.1 202.9 80 202.7 79.8 202.6 79.5 202.5 79.3 202.5 79.1 202.5 78.8 202.6 78.6 202.6 78.4 202.8 78.2 202.9 78 203.1 77.8 203.3 77.7 203.5 77.6 203.8 77.5 204 77.5 204.2 77.5 204.5 77.6 204.7 77.7 204.9 77.8 205.1 78 205.2 78.2 205.4 78.4 205.4 78.6 205.5 78.8 205.5 79.1 205.5 79.3 205.4 79.5 205.3 79.8 205.1 80 205 80.1 204.8 80.3 204.6 80.4 204.3 80.4 204.1 80.5 203.8 80.5 203.6 80.4 203.4 80.3 203.2 80.2 203 80.1 202.8 79.9 202.7 79.7 202.6 79.5 202.5 79.2 202.5 79 202.5 79 202.5 79 203.1 77.2 203.7 75.3 204.3 74.1 204.9 73 205.4 72.4 205.9 71.9 206.4 71.4 206.9 70.9 207.8 70.3 208.7 69.6 209.5 69.7 210.3 69.8 211 69.2 211.7 68.6 212.8 68.6 214 68.5 215 68.5 216 68.5 217 68.5 218 68.5 219.4 68.7 220.8 68.8 221 69.2 221.3 69.6 222.5 69.7 223.8 69.8 224.4 70.4 225.1 70.9 225.6 71.4 226.1 71.9 226.6 72.4 227.1 72.9 227.7 73.8 228.4 74.7 228.3 75.5 228.2 76.3 228.6 76.6 229.1 76.9 229.7 77.8 230.4 78.7 230.4 79.5 230.4 80.4 230.9 81.7 231.5 82.9 231.5 84 231.5 85 231.5 86 231.5 87 231.5 88 231.5 89 231.5 90 231.5 91 231.5 92.5 231.5 94 231.5 95 231.5 96 231.5 97 231.5 98 231.5 99 231.5 100 231.5 102 231.5 104 231.5 104.2 231.5 104.4 231.4 104.5 231.3 104.7 231.2 104.8 231.1 105 231 105.1 230.9 105.2 230.7 105.3 230.5 105.4 230.4 105.4 230.2 105.5 230 105.5 229.8 105.5 229.6 105.4 229.5 105.4 229.3 105.3 229.1 105.2 229 105.1 228.9 105 228.8 104.8 228.7 104.7 228.6 104.5 228.5 104.4 228.5 104.2 228.5 104 228.5 104 Z" fill="rgb(255, 255, 255, 1)"/>
  <path d="M 198 72.5 Q 198 72.5 200 72.5 202 72.5 203.2 72.6 204.3 72.6 205.4 74.8 206.5 77 206.5 77.2 206.4 77.5 206.3 77.7 206.2 77.9 206 78.1 205.8 78.2 205.6 78.3 205.4 78.4 205.2 78.5 204.9 78.5 204.7 78.4 204.4 78.4 204.2 78.3 204 78.1 203.9 78 203.7 77.8 203.6 77.5 203.5 77.3 203.5 77.1 203.5 76.8 203.6 76.6 203.6 76.4 203.8 76.2 203.9 76 204.1 75.8 204.3 75.7 204.5 75.6 204.8 75.5 205 75.5 205.2 75.5 205.5 75.6 205.7 75.7 205.9 75.8 206.1 76 206.2 76.2 206.4 76.4 206.4 76.6 206.5 76.8 206.5 77.1 206.5 77.3 206.4 77.5 206.3 77.8 206.1 78 206 78.1 205.8 78.3 205.6 78.4 205.3 78.4 205.1 78.5 204.8 78.5 204.6 78.4 204.4 78.3 204.2 78.2 204 78.1 203.8 77.9 203.7 77.7 203.6 77.5 203.5 77.2 203.5 77 203.5 77 203.5 77 203.6 76.2 203.7 75.4 202.8 75.4 202 75.5 200 75.5 198 75.5 197.8 75.5 197.6 75.5 197.5 75.4 197.3 75.3 197.2 75.2 197 75.1 196.9 75 196.8 74.9 196.7 74.7 196.6 74.5 196.6 74.4 196.5 74.2 196.5 74 196.5 73.8 196.6 73.6 196.6 73.5 196.7 73.3 196.8 73.1 196.9 73 197 72.9 197.2 72.8 197.3 72.7 197.5 72.6 197.6 72.5 197.8 72.5 198 72.5 198 72.5 Z" fill="rgb(255, 255, 255, 1)"/>
</svg>