<?xml version="1.0" encoding="UTF-8"?>
<svg xmlns="http://www.w3.org/2000/svg" width="395.39999999999964" height="159.30000000000018" viewBox="0 0 395.39999999999964 159.30000000000018">
  <path d="M 5.5 70 Q 5.5 70 5.5 71.1 5.5 72.2 5.7 72.4 5.9 72.7 6.3 73.7 6.6 74.6 6.7 75.4 6.7 76.2 6.7 76.8 6.7 77.4 6.9 78 7.1 78.7 7.2 80 7.2 81.3 7.4 81.6 7.6 81.9 7.7 82.7 7.8 83.6 7.8 84.2 7.8 84.8 8.1 85.4 8.3 86 8.4 87.1 8.4 88.2 8.4 89.1 8.4 89.9 8.4 90.7 8.4 91.6 8.6 92.6 8.9 93.6 8.9 94.9 8.9 96.2 8.9 97.6 8.9 99 8.9 100.1 8.9 101.3 9.2 102.3 9.5 103.2 9.5 104.5 9.5 105.8 9.5 106.7 9.5 107.5 9.5 108.7 9.5 109.8 9.5 111 9.5 112.1 9.5 113 9.5 113.8 9.5 114.7 9.5 115.5 9.5 116.3 9.5 117.2 9.5 117.7 9.5 118.3 9.8 118.9 10 119.5 10.1 120.4 10.1 121.2 10.1 122.1 10.1 122.9 10.1 123.5 10.1 124 10.1 124.8 10.1 125.7 10.3 126.3 10.5 127 10.6 127.8 10.6 128.6 10.6 129.2 10.6 129.7 10.6 130.3 10.6 130.9 10.6 131.5 10.6 132 10.8 133.3 11 134.7 11.1 134.9 11.2 135.1 11.2 135.4 11.2 135.6 11.1 135.9 11 136.1 10.9 136.3 10.7 136.5 10.5 136.6 10.3 136.8 10.1 136.8 9.9 136.9 9.6 136.9 9.4 136.9 9.2 136.8 8.9 136.7 8.8 136.5 8.6 136.4 8.4 136.2 8.3 136 8.3 135.7 8.2 135.5 8.2 135.3 8.3 135 8.3 134.8 8.4 134.6 8.6 134.4 8.8 134.2 9 134.1 9.2 134 9.4 133.9 9.7 133.9 9.9 133.9 10.2 134 10.4 134.1 10.6 134.2 10.8 134.4 10.9 134.5 11 134.8 11.1 135 11.2 135.2 11.2 135.5 11.1 135.7 11.1 135.9 11 136.1 10.9 136.4 10.7 136.5 10.5 136.7 10.3 136.8 10 136.9 9.8 136.9 9.6 136.9 9.3 136.8 9.1 136.8 8.9 136.6 8.7 136.5 8.5 136.3 8.4 136.1 8.4 136.1 8.4 136.1 8 134.1 7.6 132 7.6 131.5 7.6 130.9 7.6 130.3 7.6 129.7 7.6 129.2 7.6 128.6 7.6 128.2 7.7 127.8 7.4 126.8 7.1 125.7 7.1 124.9 7.1 124 7.1 123.5 7.1 122.9 7.1 122.1 7.1 121.2 7.1 120.8 7.2 120.5 6.8 119.4 6.5 118.3 6.5 117.8 6.5 117.2 6.5 116.3 6.5 115.5 6.5 114.7 6.5 113.8 6.5 113 6.5 112.1 6.5 111 6.5 109.8 6.5 108.7 6.5 107.5 6.5 106.7 6.5 105.8 6.5 104.9 6.5 104 6.2 102.6 5.9 101.3 5.9 100.2 5.9 99 5.9 97.6 5.9 96.2 5.9 95.2 5.9 94.2 5.7 92.9 5.4 91.6 5.4 90.8 5.4 89.9 5.4 89.1 5.4 88.2 5.4 87.6 5.5 87 5.1 85.9 4.8 84.8 4.8 84.2 4.8 83.6 4.9 83.4 5 83.1 4.6 82.3 4.2 81.5 4.2 80.5 4.3 79.5 4 78.5 3.7 77.4 3.7 76.8 3.7 76.2 3.7 75.9 3.8 75.6 3.5 74.8 3.3 74.1 2.9 73.3 2.5 72.4 2.5 71.2 2.5 70 2.5 69.8 2.5 69.6 2.6 69.5 2.7 69.3 2.8 69.2 2.9 69 3 68.9 3.1 68.8 3.3 68.7 3.5 68.6 3.6 68.6 3.8 68.5 4 68.5 4.2 68.5 4.4 68.6 4.5 68.6 4.7 68.7 4.9 68.8 5 68.9 5.1 69 5.2 69.2 5.3 69.3 5.4 69.5 5.5 69.6 5.5 69.8 5.5 70 5.5 70 Z" fill="rgb(255, 255, 255, 1)"/>
  <path d="M 5.2 67.9 Q 5.2 67.9 6.3 67.9 7.4 67.9 8 67.7 8.7 67.5 9.7 67.4 10.8 67.4 11.7 67.4 12.5 67.4 13.4 67.4 14.3 67.4 15.2 67.1 16.1 66.9 16.9 66.8 17.7 66.8 18.8 66.8 19.9 66.8 20.9 66.5 21.8 66.2 22.9 66.2 23.9 66.2 24.8 66.2 25.6 66.2 27 66.2 28.5 66.2 29.1 65.9 29.7 65.7 31.1 65.6 32.5 65.6 33.1 65.6 33.6 65.6 34.8 65.6 35.9 65.6 36.7 65.6 37.6 65.6 38.2 65.4 38.9 65.2 39.6 65.1 40.4 65.1 41.5 65.1 42.7 65.1 43.7 64.8 44.6 64.5 45.4 64.5 46.1 64.5 46.7 64.2 47.3 64 48.4 63.9 49.5 63.9 50.1 63.9 50.7 63.9 51.3 63.7 52 63.5 52.7 63.4 53.4 63.4 53.7 63.2 54 63 55.1 62.9 56.2 62.8 56.6 62.6 56.9 62.3 58 62.3 59.2 62.2 59.8 62 60.5 61.8 61.5 61.7 62.6 61.7 63.2 61.4 63.8 61.2 64.6 61.1 65.4 61.1 66.1 60.8 66.7 60.6 67.5 60.5 68.2 60.5 68.5 60.3 68.8 60.1 69.7 60.1 70.5 60 70.8 59.8 71.1 59.6 71.9 59.5 72.7 59.4 73.1 59.2 73.4 58.9 75.4 58.9 77.4 58.8 77.6 58.8 77.9 58.9 78.1 59 78.3 59.1 78.5 59.3 78.6 59.5 78.7 59.7 78.8 59.9 78.9 60.1 78.9 60.4 78.8 60.6 78.8 60.9 78.7 61.1 78.5 61.3 78.4 61.4 78.2 61.6 77.9 61.7 77.7 61.8 77.5 61.8 77.2 61.8 77 61.7 76.8 61.7 76.6 61.5 76.4 61.4 76.2 61.2 76.1 61 76 60.8 75.9 60.5 75.9 60.3 75.9 60.1 76 59.8 76.1 59.6 76.2 59.4 76.4 59.2 76.6 59.1 76.8 58.9 77 58.9 77.2 58.8 77.5 58.8 77.7 58.8 77.9 58.9 78.2 59 78.4 59.2 78.5 59.3 78.7 59.5 78.8 59.7 78.8 60 78.9 60.2 78.9 60.5 78.8 60.7 78.7 60.9 78.6 61.1 78.5 61.3 78.3 61.5 78.1 61.6 77.9 61.7 77.6 61.8 77.4 61.8 77.4 61.8 77.4 61.8 76 61.7 74.6 61.7 73.7 62 72.9 62.4 72.6 62.3 72.3 62.2 71.5 62.6 70.7 63 70.3 62.9 70 62.9 69.2 63.2 68.4 63.5 68 63.5 67.7 63.4 66.5 63.8 65.4 64.1 65.1 64.1 64.8 64 63.7 64.4 62.6 64.7 62 64.7 61.3 64.6 60.3 64.9 59.2 65.2 58.7 65.1 58.1 65.1 57.2 65.4 56.4 65.8 55.8 65.7 55.2 65.6 54.4 66 53.6 66.4 53.2 66.4 52.8 66.3 51.8 66.6 50.7 66.9 50.1 66.9 49.5 66.9 48.9 66.9 48.3 66.8 47.2 67.2 46.1 67.5 45.7 67.5 45.4 67.5 44 67.8 42.7 68.1 41.6 68.1 40.4 68.1 40.1 68.1 39.7 68 38.7 68.3 37.6 68.6 36.8 68.6 35.9 68.6 34.8 68.6 33.6 68.6 33.1 68.6 32.5 68.6 31.6 68.6 30.7 68.5 29.6 68.9 28.5 69.2 27.1 69.2 25.6 69.2 24.8 69.2 23.9 69.2 23.2 69.2 22.6 69.2 21.2 69.5 19.9 69.8 18.8 69.8 17.7 69.8 17.3 69.8 16.9 69.7 15.6 70.1 14.3 70.4 13.4 70.4 12.5 70.4 11.7 70.4 10.8 70.4 10.2 70.4 9.5 70.3 8.5 70.6 7.4 70.9 6.3 70.9 5.2 70.9 5 70.9 4.8 70.9 4.7 70.8 4.5 70.7 4.4 70.6 4.2 70.5 4.1 70.4 4 70.3 3.9 70.1 3.8 69.9 3.8 69.8 3.7 69.6 3.7 69.4 3.7 69.2 3.8 69 3.8 68.9 3.9 68.7 4 68.5 4.1 68.4 4.2 68.3 4.4 68.2 4.5 68.1 4.7 68 4.8 67.9 5 67.9 5.2 67.9 5.2 67.9 Z" fill="rgb(255, 255, 255, 1)"/>
  <path d="M 11.4 137.4 Q 11.4 137.4 12.5 136.9 13.7 136.3 14.5 136.3 15.4 136.2 16 135.9 16.6 135.7 17.5 135.4 18.3 135.1 19.5 134.8 20.8 134.5 21.9 134.2 23 133.9 24.1 133.7 25.2 133.4 26 133.1 26.9 132.9 28.4 132.5 29.9 132.2 31 131.9 32.1 131.6 33.2 131.4 34.4 131.1 35.7 131.1 37 131.1 37.6 130.8 38.2 130.6 39.7 130.3 41.3 129.9 42.1 129.7 42.9 129.5 43.7 129.2 44.5 128.9 45.7 128.6 46.8 128.3 47.7 128 48.6 127.8 49.9 127.7 51.2 127.7 51.8 127.4 52.4 127.2 53.6 126.9 54.8 126.5 55.9 126.5 56.9 126.5 57.5 126.2 58.1 126 59.3 125.7 60.6 125.4 61.6 125.4 62.6 125.4 63.6 125.1 64.5 124.8 65.3 124.6 66.1 124.3 67.2 124.2 68.2 124.2 68.5 124 68.8 123.8 70.3 123.8 71.7 123.7 72.3 123.4 72.9 123.2 74 123.1 75 123.1 75.4 122.9 75.7 122.6 76.8 122.6 78 122.5 78.6 122.3 79.3 122.1 80.3 122 81.4 122 82.2 122 83.1 122 83.7 121.7 84.3 121.5 85.1 121.4 85.9 121.4 86.5 121.1 87.1 120.9 87.9 120.8 88.7 120.8 89 120.6 89.3 120.4 90.2 120.4 91 120.3 91.6 120.3 92.2 120.3 92.7 120.3 93.3 120.3 93.9 120 94.5 119.8 95.4 119.7 96.2 119.7 96.7 119.7 97.2 119.7 97.5 119.5 97.8 119.3 98.6 119.2 99.5 119.1 100.9 118.6 102.4 118.1 102.6 118.1 102.8 118 103.1 118 103.3 118 103.6 118.1 103.8 118.2 104 118.4 104.1 118.5 104.3 118.7 104.4 119 104.4 119.2 104.5 119.4 104.5 119.7 104.4 119.9 104.3 120.1 104.2 120.4 104.1 120.5 103.9 120.7 103.7 120.8 103.5 120.9 103.2 121 103 121 102.8 121 102.5 120.9 102.3 120.8 102.1 120.7 101.9 120.5 101.8 120.3 101.7 120.1 101.6 119.9 101.5 119.6 101.5 119.4 101.6 119.2 101.6 118.9 101.7 118.7 101.9 118.5 102 118.4 102.2 118.2 102.5 118.1 102.7 118 102.9 118 103.2 118 103.4 118.1 103.6 118.1 103.8 118.3 104 118.4 104.2 118.6 104.3 118.8 104.4 119 104.5 119.3 104.5 119.5 104.5 119.8 104.4 120 104.3 120.2 104.2 120.4 104 120.6 103.8 120.7 103.6 120.9 103.6 120.9 103.6 120.9 101.7 121.5 99.7 122.1 99.4 122 99 121.9 98.2 122.3 97.4 122.7 96.8 122.7 96.2 122.7 95.8 122.7 95.5 122.6 94.4 123 93.3 123.3 92.8 123.3 92.2 123.3 91.6 123.3 91 123.3 90.7 123.2 90.5 123.2 89.7 123.5 88.9 123.8 88.5 123.8 88.1 123.7 87 124.1 85.9 124.4 85.6 124.4 85.3 124.3 84.2 124.7 83.1 125 82.3 125 81.4 125 80.8 125 80.1 124.9 79.1 125.2 78 125.5 77.5 125.4 76.9 125.4 76 125.7 75.2 126.1 74.5 126.1 73.9 126 72.8 126.4 71.7 126.7 70.8 126.6 70 126.6 69.2 126.9 68.4 127.2 67.7 127.2 67.1 127.1 66.2 127.4 65.3 127.8 63.9 128.1 62.6 128.4 61.9 128.4 61.2 128.4 60.2 128.6 59.1 128.8 58 129.2 56.9 129.5 56.2 129.5 55.6 129.5 54.5 129.7 53.4 130 52.3 130.4 51.2 130.7 50.3 130.7 49.4 130.6 48.5 130.9 47.6 131.1 46.5 131.4 45.5 131.7 44.6 132 43.7 132.3 42.8 132.6 41.9 132.9 40.6 133.1 39.2 133.4 38.1 133.8 37 134.1 36 134.1 35 134.1 34 134.3 32.9 134.6 31.7 134.9 30.5 135.2 29.1 135.5 27.7 135.7 26.9 136 26 136.2 24.9 136.5 23.8 136.9 22.6 137.2 21.4 137.5 20.4 137.7 19.3 137.9 18.4 138.2 17.6 138.5 16.5 138.9 15.4 139.2 15.2 139.1 14.9 139.1 13.8 139.6 12.6 140.2 12.5 140.2 12.3 140.3 12.1 140.3 11.9 140.3 11.8 140.3 11.6 140.2 11.4 140.2 11.3 140.1 11.1 140 11 139.9 10.8 139.7 10.7 139.6 10.7 139.4 10.6 139.3 10.5 139.1 10.5 138.9 10.5 138.7 10.5 138.6 10.6 138.4 10.6 138.2 10.7 138.1 10.8 137.9 10.9 137.8 11 137.6 11.2 137.5 11.4 137.4 11.4 137.4 Z" fill="rgb(255, 255, 255, 1)"/>
  <path d="M 94.8 56.3 Q 94.8 56.3 94.8 57.4 94.8 58.6 95.1 59.2 95.3 59.8 95.4 60.9 95.4 62 95.4 62.6 95.4 63.2 95.4 64.3 95.4 65.4 95.7 66.4 96 67.3 96 68.1 96 68.9 96 69.5 96 70 96 70.5 96 71.1 96.2 71.4 96.4 71.8 96.4 72.6 96.5 73.4 96.5 73.9 96.5 74.5 96.8 75.1 97 75.7 97.1 76.6 97.1 77.4 97.4 78 97.6 78.6 97.7 79.4 97.7 80.2 97.9 80.8 98.1 81.5 98.2 82.3 98.2 83.1 98.2 83.9 98.2 84.8 98.5 85.4 98.7 86 98.8 86.8 98.8 87.6 98.8 88.5 98.8 89.3 98.8 89.9 98.8 90.5 98.8 91 98.8 91.5 99 91.8 99.2 92.1 99.3 93.3 99.4 94.4 99.6 94.7 99.8 95 99.8 95.9 99.9 96.7 99.9 97.3 99.9 97.9 99.9 98.7 99.9 99.6 100.2 100.2 100.4 100.8 100.5 101.6 100.5 102.3 100.7 102.7 101 103 101 103.8 101.1 104.7 101.1 105.2 101.1 105.8 101.3 106.4 101.5 107.1 101.6 107.9 101.6 108.7 101.6 109.3 101.6 109.8 101.6 110.4 101.6 110.9 101.6 111.5 101.6 112 101.8 112.3 102 112.6 102.1 113.5 102.2 114.4 102.2 115 102.2 115.5 102.2 116.1 102.2 116.6 102.2 117.4 102.2 118.3 102.5 119.7 102.8 121.2 102.8 121.4 102.7 121.7 102.6 121.9 102.5 122.1 102.3 122.3 102.1 122.4 101.9 122.5 101.7 122.6 101.5 122.7 101.2 122.7 101 122.6 100.7 122.6 100.5 122.5 100.3 122.3 100.2 122.2 100 122 99.9 121.7 99.8 121.5 99.8 121.3 99.8 121 99.9 120.8 99.9 120.6 100.1 120.4 100.2 120.2 100.4 120 100.6 119.9 100.8 119.8 101.1 119.7 101.3 119.7 101.5 119.7 101.8 119.8 102 119.9 102.2 120 102.4 120.2 102.5 120.4 102.7 120.6 102.7 120.8 102.8 121 102.8 121.3 102.8 121.5 102.7 121.7 102.6 122 102.4 122.2 102.3 122.3 102.1 122.5 101.9 122.6 101.6 122.6 101.4 122.7 101.1 122.7 100.9 122.6 100.7 122.5 100.5 122.4 100.3 122.3 100.1 122.1 100 121.9 99.9 121.7 99.8 121.4 99.8 121.2 99.8 121.2 99.8 121.2 99.5 119.8 99.2 118.3 99.2 117.5 99.2 116.6 99.2 116.1 99.2 115.5 99.2 115 99.2 114.4 99.3 114.1 99.4 113.8 99 113 98.6 112.2 98.6 111.5 98.6 110.9 98.6 110.4 98.6 109.8 98.6 109.3 98.6 108.7 98.6 108.3 98.7 107.9 98.4 106.9 98.1 105.8 98.1 105.3 98.1 104.7 98.2 104.5 98.2 104.2 97.9 103.3 97.5 102.5 97.5 102.1 97.6 101.8 97.2 100.7 96.9 99.6 96.9 98.8 96.9 97.9 96.9 97.3 96.9 96.7 97 96.4 97 96.2 96.7 95.4 96.4 94.6 96.5 93.9 96.6 93.3 96.2 92.5 95.8 91.7 95.8 91.1 95.8 90.5 95.8 89.9 95.8 89.3 95.8 88.5 95.8 87.6 95.8 87.3 95.9 87 95.5 85.9 95.2 84.8 95.2 84 95.2 83.1 95.2 82.7 95.3 82.3 95 81.3 94.7 80.2 94.7 79.9 94.8 79.6 94.4 78.5 94.1 77.4 94.1 77 94.2 76.7 93.8 75.6 93.5 74.5 93.5 74 93.5 73.4 93.6 73.1 93.6 72.8 93.3 72 93 71.1 93 70.6 93 70 93 69.5 93 68.9 93 68.5 93 68.1 92.7 66.7 92.4 65.4 92.4 64.3 92.4 63.2 92.4 62.6 92.4 62 92.4 61.4 92.5 60.8 92.1 59.7 91.8 58.6 91.8 57.5 91.8 56.3 91.8 56.1 91.8 55.9 91.9 55.8 92 55.6 92.1 55.5 92.2 55.3 92.3 55.2 92.4 55.1 92.6 55 92.8 54.9 92.9 54.9 93.1 54.8 93.3 54.8 93.5 54.8 93.7 54.9 93.8 54.9 94 55 94.2 55.1 94.3 55.2 94.4 55.3 94.5 55.5 94.6 55.6 94.7 55.8 94.8 55.9 94.8 56.1 94.8 56.3 94.8 56.3 Z" fill="rgb(255, 255, 255, 1)"/>
  <path d="M 92.8 57.8 Q 92.8 57.8 91.7 57.8 90.5 57.8 89.9 58.1 89.3 58.3 88.8 58.6 88.2 58.9 87.1 58.9 86 59 85.7 59.2 85.4 59.4 84.2 59.4 83.1 59.5 82.5 59.8 81.9 60 81.1 60 80.3 60.1 78.5 60.4 76.8 60.7 76.6 60.7 76.3 60.6 76.1 60.5 75.9 60.4 75.7 60.2 75.6 60 75.5 59.8 75.4 59.6 75.3 59.4 75.3 59.1 75.4 58.9 75.4 58.6 75.5 58.4 75.7 58.2 75.8 58.1 76 57.9 76.3 57.8 76.5 57.7 76.7 57.7 77 57.7 77.2 57.8 77.4 57.8 77.6 58 77.8 58.1 78 58.3 78.1 58.5 78.2 58.7 78.3 59 78.3 59.2 78.3 59.4 78.2 59.7 78.1 59.9 78 60.1 77.8 60.3 77.6 60.4 77.4 60.6 77.2 60.6 77 60.7 76.7 60.7 76.5 60.7 76.3 60.6 76 60.5 75.8 60.3 75.7 60.2 75.5 60 75.4 59.8 75.4 59.5 75.3 59.3 75.3 59 75.4 58.8 75.5 58.6 75.6 58.4 75.7 58.2 75.9 58 76.1 57.9 76.3 57.8 76.6 57.7 76.8 57.7 76.8 57.7 76.8 57.7 78.5 57.4 80.1 57.1 80.5 57.2 80.9 57.2 82 56.8 83.1 56.5 83.7 56.6 84.2 56.6 85 56.3 85.8 56 86.4 56.1 87 56.1 87.6 55.8 88.3 55.5 89.4 55.1 90.5 54.8 91.6 54.8 92.8 54.8 93 54.8 93.2 54.8 93.3 54.9 93.5 55 93.6 55.1 93.8 55.2 93.9 55.3 94 55.4 94.1 55.6 94.2 55.8 94.2 55.9 94.3 56.1 94.3 56.3 94.3 56.5 94.2 56.7 94.2 56.8 94.1 57 94 57.2 93.9 57.3 93.8 57.4 93.6 57.5 93.5 57.6 93.3 57.7 93.2 57.8 93 57.8 92.8 57.8 92.8 57.8 Z" fill="rgb(255, 255, 255, 1)"/>
  <path d="M 11.4 138 Q 11.4 138 12.6 138.6 13.7 139.1 14 139.1 14.3 139 15.4 139.3 16.5 139.7 17.3 140 18.2 140.3 18.8 140.6 19.4 140.8 20 140.8 20.6 140.7 21.5 141.1 22.3 141.5 23.1 141.7 23.9 142 24.2 141.9 24.6 141.9 25.4 142.2 26.2 142.5 26.8 142.8 27.4 143.1 27.7 143.1 28 143 28.8 143.4 29.7 143.8 30.4 144 31.2 144.2 31.6 144.1 32 144.1 32.8 144.5 33.6 144.9 34 144.8 34.3 144.7 35.2 145.1 36 145.5 36.8 145.7 37.5 146 38.6 146.2 39.6 146.4 40.5 146.8 41.5 147.1 41.8 147 42.2 147 43.1 147.4 44 147.8 44.5 148 45 148.2 45.6 148.2 46.2 148.1 47 148.5 47.8 148.9 48.2 148.8 48.5 148.7 49.4 149.1 50.2 149.5 50.7 149.7 51.2 149.9 51.6 149.9 51.9 149.8 52.8 150.2 53.6 150.6 54.2 150.9 54.7 151.1 56.4 151.7 58.2 152.3 58.4 152.4 58.6 152.5 58.7 152.7 58.8 152.9 58.9 153.2 59 153.4 59 153.6 59 153.9 58.9 154.1 58.8 154.3 58.7 154.5 58.5 154.7 58.3 154.8 58.1 155 57.9 155 57.6 155.1 57.4 155.1 57.1 155.1 56.9 155 56.7 154.9 56.5 154.7 56.3 154.5 56.2 154.3 56.1 154.1 56 153.9 56 153.6 56 153.4 56.1 153.2 56.2 152.9 56.3 152.7 56.5 152.5 56.6 152.4 56.8 152.3 57.1 152.2 57.3 152.1 57.5 152.1 57.8 152.1 58 152.2 58.2 152.3 58.4 152.4 58.6 152.6 58.8 152.8 58.9 153 59 153.2 59 153.5 59 153.7 58.9 154 58.9 154.2 58.7 154.4 58.6 154.6 58.4 154.8 58.2 154.9 58 155 57.8 155.1 57.5 155.1 57.3 155.1 57.1 155 56.8 154.9 56.8 154.9 56.8 154.9 55.2 154.4 53.5 153.9 52.8 153.5 52.2 153.2 51.9 153 51.7 152.8 50.9 152.7 50.2 152.7 49.5 152.4 48.8 152.1 48.5 151.9 48.3 151.7 47.4 151.6 46.6 151.5 46.3 151.3 46 151.1 44.9 151 43.8 151 43.2 150.7 42.6 150.4 42.3 150.2 42 150 41.3 150 40.5 149.9 39.8 149.6 39 149.4 37.7 149.1 36.5 148.8 35.5 148.5 34.6 148.1 34.3 147.9 34.1 147.7 33.2 147.6 32.4 147.5 32.1 147.3 31.8 147.1 31.1 147.1 30.4 147 29.4 146.7 28.3 146.4 28.1 146.2 27.8 146 27 145.9 26.2 145.9 25.6 145.6 25 145.3 24.7 145.1 24.4 144.9 23.7 144.9 22.9 144.8 21.9 144.5 20.9 144.1 20.6 143.9 20.4 143.7 19.3 143.6 18.2 143.6 17.7 143.3 17.2 143.1 16.4 142.8 15.5 142.5 14.9 142.3 14.3 142 13.4 141.9 12.5 141.9 11.3 141.3 10.2 140.8 10 140.7 9.8 140.6 9.7 140.4 9.6 140.3 9.5 140.1 9.4 140 9.4 139.8 9.3 139.6 9.3 139.5 9.3 139.3 9.3 139.1 9.4 138.9 9.5 138.8 9.5 138.6 9.6 138.5 9.8 138.3 9.9 138.2 10.1 138.1 10.2 138 10.4 138 10.6 137.9 10.7 137.9 10.9 137.9 11.1 137.9 11.3 138 11.4 138 11.4 138 Z" fill="rgb(255, 255, 255, 1)"/>
  <path d="M 59.8 152.7 Q 59.8 152.7 61.2 152.7 62.5 152.7 62.8 152.5 63.1 152.3 64.2 152.2 65.3 152.1 65.6 151.9 65.9 151.7 67.3 151.3 68.6 151 69.3 151 70 151 70.6 150.7 71.2 150.5 72.9 150.4 74.6 150.4 75.2 150.1 75.8 149.9 76.9 149.8 78 149.8 78.6 149.6 79.3 149.4 80.6 149.3 81.8 149.3 82.2 149.1 82.5 148.8 84.2 148.8 85.9 148.7 86.5 148.4 87.1 148.2 87.7 147.9 88.3 147.7 89.6 147.7 90.9 147.6 91.2 147.4 91.5 147.2 92.1 146.9 92.7 146.6 93.6 146.5 94.4 146.4 94.7 146.2 95 146 95.8 146 96.6 145.9 97 145.7 97.3 145.4 98.4 145.4 99.5 145.3 99.7 145.1 100 144.9 100.6 144.6 101.3 144.2 102.1 144.2 102.9 144.1 103.2 143.9 103.5 143.7 104.4 143.4 105.3 143.1 106.2 142.8 107 142.5 107.6 142.2 108.2 142 109.2 142 110.3 141.9 110.6 141.7 110.9 141.5 111.8 141.4 112.7 141.3 113.3 141 113.9 140.8 114.8 140.5 115.7 140.3 116.4 140.2 117.2 140.2 117.8 139.9 118.4 139.7 118.9 139.4 119.5 139.1 120.3 139.1 121.2 139 121.8 138.8 122.5 138.6 123.2 138.5 123.9 138.5 124.3 138.3 124.6 138 125.4 138 126.2 137.9 126.6 137.7 126.9 137.4 127.7 137.4 128.5 137.3 128.8 137.1 129.1 136.9 130 136.9 130.9 136.8 131.4 136.8 132 136.8 132.5 136.8 133 136.8 133.4 136.6 133.7 136.3 134.5 136.3 135.4 136.2 137.4 135.6 139.4 135 139.6 135 139.9 135.1 140.1 135.2 140.3 135.3 140.5 135.5 140.6 135.7 140.7 135.9 140.8 136.1 140.9 136.3 140.9 136.6 140.8 136.8 140.8 137.1 140.7 137.3 140.5 137.5 140.4 137.6 140.2 137.8 139.9 137.9 139.7 138 139.5 138 139.2 138 139 137.9 138.8 137.9 138.6 137.7 138.4 137.6 138.2 137.4 138.1 137.2 138 137 137.9 136.7 137.9 136.5 137.9 136.3 138 136 138.1 135.8 138.2 135.6 138.4 135.4 138.6 135.3 138.8 135.1 139 135.1 139.2 135 139.5 135 139.7 135 139.9 135.1 140.2 135.2 140.4 135.4 140.5 135.5 140.7 135.7 140.8 135.9 140.8 136.2 140.9 136.4 140.9 136.7 140.8 136.9 140.7 137.1 140.6 137.3 140.5 137.5 140.3 137.7 140.1 137.8 139.9 137.9 139.6 138 139.4 138 139.4 138 139.4 138 137.4 138.6 135.4 139.2 135.2 139.1 134.9 139.1 134 139.4 133.2 139.8 132.6 139.8 132 139.8 131.4 139.8 130.9 139.8 130.6 139.7 130.3 139.7 129.5 140 128.7 140.3 128.4 140.2 128.1 140.2 127.2 140.5 126.4 140.9 126.1 140.8 125.8 140.8 124.9 141.1 124.1 141.5 123.7 141.5 123.3 141.4 122.3 141.7 121.2 142 121 141.9 120.7 141.9 120.1 142.2 119.4 142.5 118.3 142.9 117.2 143.2 116.9 143.2 116.5 143.1 115.7 143.4 114.9 143.6 113.8 144 112.7 144.3 112.4 144.2 112.1 144.1 111.3 144.5 110.5 144.9 109.9 144.8 109.2 144.8 108.6 145.1 108 145.3 107.1 145.6 106.3 145.9 105.5 146.2 104.7 146.5 103.9 146.8 103.1 147.1 102.8 147 102.5 147 102 147.2 101.4 147.5 100.6 147.9 99.7 148.3 99.1 148.2 98.5 148.2 97.6 148.5 96.8 148.9 96.5 148.8 96.2 148.8 95.4 149.1 94.6 149.4 94.2 149.3 93.9 149.2 93.4 149.5 92.9 149.8 92 150.2 91.1 150.6 90.2 150.5 89.3 150.5 88.7 150.8 88.1 151 87 151.4 85.9 151.7 84.8 151.6 83.7 151.6 82.8 151.9 82 152.3 81 152.3 80.1 152.2 79.1 152.5 78 152.8 77.4 152.8 76.8 152.7 75.7 153.1 74.6 153.4 73.4 153.4 72.2 153.3 71.1 153.7 70 154 69.6 154 69.2 154 68.2 154.2 67.3 154.3 66.4 154.7 65.5 155.1 64.9 155 64.3 154.9 63.5 155.3 62.7 155.7 61.2 155.7 59.8 155.7 59.6 155.7 59.4 155.7 59.3 155.6 59.1 155.5 59 155.4 58.8 155.3 58.7 155.2 58.6 155.1 58.5 154.9 58.4 154.7 58.4 154.6 58.3 154.4 58.3 154.2 58.3 154 58.4 153.8 58.4 153.7 58.5 153.5 58.6 153.3 58.7 153.2 58.8 153.1 59 153 59.1 152.9 59.3 152.8 59.4 152.7 59.6 152.7 59.8 152.7 59.8 152.7 Z" fill="rgb(255, 255, 255, 1)"/>
  <path d="M 102.7 119.7 Q 102.7 119.7 104.2 120 105.6 120.3 106 120.3 106.5 120.3 107.3 120.6 108.1 120.9 109.1 121.2 110.2 121.4 111.1 121.8 112 122.1 112.6 122 113.2 122 114.1 122.3 114.9 122.6 115.5 122.6 116.1 122.5 116.7 122.5 117.2 122.5 118.3 122.8 119.4 123.2 119.7 123.1 120.1 123.1 120.7 123.1 121.3 123.1 122.1 123.5 122.9 123.9 123.2 123.8 123.6 123.7 124.4 124 125.2 124.3 125.8 124.6 126.3 125 126.7 124.9 127 124.8 127.8 125.2 128.6 125.6 128.9 125.5 129.3 125.4 130.1 125.7 130.9 126 131.2 126 131.5 125.9 132.3 126.3 133.2 126.6 133.5 126.6 133.8 126.5 134.7 126.9 135.5 127.3 136.1 127.6 136.7 127.9 137.2 128.1 137.7 128.3 138.3 128.6 139 129 139.5 129.3 140.1 129.6 140.6 129.8 141.1 130 141.7 130.3 142.4 130.7 144.1 131.5 145.8 132.4 146 132.5 146.2 132.6 146.3 132.8 146.4 133 146.5 133.3 146.6 133.5 146.6 133.7 146.6 134 146.5 134.2 146.4 134.4 146.3 134.6 146.1 134.8 145.9 134.9 145.7 135.1 145.5 135.1 145.2 135.2 145 135.2 144.7 135.2 144.5 135.1 144.3 135 144.1 134.8 143.9 134.6 143.8 134.4 143.7 134.2 143.6 134 143.6 133.7 143.6 133.5 143.7 133.3 143.8 133 143.9 132.8 144.1 132.6 144.2 132.5 144.4 132.4 144.7 132.3 144.9 132.2 145.1 132.2 145.4 132.2 145.6 132.3 145.8 132.4 146 132.5 146.2 132.7 146.4 132.9 146.5 133.1 146.6 133.3 146.6 133.6 146.6 133.8 146.5 134.1 146.5 134.3 146.3 134.5 146.2 134.7 146 134.9 145.8 135 145.6 135.1 145.4 135.2 145.1 135.2 144.9 135.2 144.7 135.1 144.4 135 144.4 135 144.4 135 142.7 134.2 141 133.3 140.5 133.1 139.9 132.8 139.3 132.5 138.7 132.2 138.2 131.9 137.6 131.6 137.1 131.4 136.5 131.1 135.9 130.8 135.3 130.5 134.7 130.2 134.1 129.9 133.8 129.7 133.6 129.5 132.8 129.4 132 129.4 131.7 129.1 131.3 128.9 130.5 128.8 129.7 128.8 129.4 128.6 129.1 128.4 128.3 128.3 127.4 128.2 127.1 128 126.8 127.8 125.9 127.7 125.1 127.6 124.5 127.4 124 127.1 123.7 126.9 123.4 126.7 122.6 126.6 121.7 126.5 121.4 126.3 121.1 126.1 120.6 126.1 120.1 126.1 119.3 126.1 118.4 126 117.8 125.8 117.2 125.5 116.6 125.5 116.1 125.5 115 125.4 113.9 125.4 113.5 125.2 113.2 125 112.1 125 111 124.9 110.2 124.6 109.4 124.4 108.2 124 106.9 123.7 106.6 123.5 106.3 123.3 105.7 123.3 105 123.3 103.5 123 102.1 122.7 101.9 122.6 101.8 122.6 101.6 122.5 101.4 122.4 101.3 122.2 101.2 122.1 101.1 121.9 101 121.8 101 121.6 100.9 121.4 100.9 121.3 100.9 121.1 100.9 120.9 101 120.7 101.1 120.6 101.1 120.4 101.2 120.3 101.4 120.1 101.5 120 101.7 119.9 101.8 119.8 102 119.8 102.2 119.7 102.3 119.7 102.5 119.7 102.7 119.7 102.7 119.7 Z" fill="rgb(255, 255, 255, 1)"/>
  <path d="M 142.8 137.5 Q 142.8 137.5 142.6 137.5 142.3 137.4 142.1 137.3 141.9 137.2 141.7 137 141.6 136.8 141.5 136.6 141.4 136.4 141.3 136.2 141.3 135.9 141.4 135.7 141.4 135.4 141.5 135.2 141.7 135 141.8 134.9 142 134.7 142.3 134.6 142.5 134.5 142.7 134.5 143 134.5 143.2 134.6 143.4 134.6 143.6 134.8 143.8 134.9 144 135.1 144.1 135.3 144.2 135.5 144.3 135.8 144.3 136 144.3 136.2 144.2 136.5 144.1 136.7 144 136.9 143.8 137.1 143.6 137.2 143.4 137.4 143.2 137.4 143 137.5 142.7 137.5 142.5 137.5 142.3 137.4 142 137.3 141.8 137.1 141.7 137 141.5 136.8 141.4 136.6 141.4 136.3 141.3 136.1 141.3 135.8 141.4 135.6 141.5 135.4 141.6 135.2 141.7 135 141.9 134.8 142.1 134.7 142.3 134.6 142.6 134.5 142.8 134.5 142.8 134.5 142.8 134.5 143 134.4 143.2 134.3 143.4 134.2 143.6 134.2 143.8 134.2 144.1 134.1 144.3 134.2 144.5 134.2 144.7 134.3 144.9 134.4 145.1 134.6 145.3 134.7 145.4 134.9 145.5 135.1 145.6 135.3 145.7 135.5 145.7 135.7 145.8 135.9 145.7 136.2 145.7 136.4 145.6 136.6 145.6 136.8 145.4 137 145.3 137.2 145.2 137.3 145 137.5 143.9 137.5 Z" fill="rgb(255, 255, 255, 1)"/>
  <path d="M 151.1 14.8 Q 151.1 14.8 151.1 16.3 151.1 17.7 151.1 18.2 151.1 18.8 151.4 19.4 151.6 20 151.7 20.8 151.7 21.6 151.7 22.2 151.7 22.8 151.7 23.3 151.7 23.8 151.9 24.2 152.2 24.5 152.2 25.7 152.3 26.8 152.3 27.7 152.3 28.5 152.3 29 152.3 29.5 152.5 29.8 152.7 30.1 152.7 31 152.8 31.9 152.8 32.5 152.8 33 152.8 33.6 152.8 34.2 152.8 34.8 152.8 35.3 152.8 35.9 152.8 36.4 152.8 37 152.8 37.6 152.8 38.5 152.8 39.3 152.8 39.9 152.8 40.4 152.8 41 152.8 41.6 152.8 42.2 152.8 42.7 152.8 43.3 152.8 43.8 152.8 44.7 152.8 45.5 152.8 46.1 152.8 46.7 152.8 47.3 152.8 47.8 152.8 48.4 152.8 48.9 152.8 49.5 152.8 50.2 152.5 51 152.2 51.8 152.2 52.1 152.3 52.5 151.9 53.3 151.5 54.1 151.6 54.4 151.7 54.6 151.7 55.2 151.7 55.8 151.7 56.4 151.7 56.9 151.7 57.5 151.7 58 151.7 58.6 151.7 59.2 151.7 59.8 151.7 60.3 151.7 60.9 151.7 61.5 151.7 62.1 151.7 62.6 151.7 63.2 151.7 63.7 151.7 64.3 151.7 64.9 151.7 65.5 151.7 66 151.7 66.6 151.7 67.1 151.7 67.7 151.7 68.3 151.7 68.9 151.7 69.4 151.7 70 151.7 70.5 151.9 70.8 152.1 71.1 152.2 71.9 152.3 72.8 152.3 73.4 152.3 74 152.3 74.6 152.3 75.1 152.3 75.6 152.3 76.2 152.5 76.5 152.7 76.9 152.7 77.7 152.8 78.5 152.8 79.1 152.8 79.7 152.8 80.3 152.8 80.8 152.8 81.4 152.8 81.9 152.8 82.5 152.8 83.1 152.8 83.7 152.8 84.2 152.8 84.8 152.8 85.4 152.8 86 152.8 86.5 152.8 87.1 152.8 87.6 152.8 88.2 152.8 88.8 152.8 89.4 152.8 89.9 152.8 90.8 152.8 91.6 152.8 92.2 152.8 92.7 152.5 93.6 152.2 94.4 152.2 94.7 152.3 95 152.3 95.6 152.3 96.2 152.3 96.8 152.3 97.3 152.3 97.9 152.3 98.4 152.3 99 152.3 99.6 152.3 100.1 152.3 100.6 152.5 100.9 152.7 101.2 152.6 101.5 152.5 101.9 152.7 101.7 153 101.5 153.6 101.5 154.2 101.5 154.8 101.5 155.3 101.5 155.9 101.5 156.5 101.5 157.3 101.5 158.2 101.5 159 101.5 159.9 101.5 160.8 101.5 161.6 101.5 162.5 101.5 163.3 101.5 164.4 101.8 165.5 102.2 165.8 102.1 166.1 102.1 166.7 102.1 167.3 102.1 167.8 102.1 168.4 102.1 168.9 102.1 169.5 102.1 170.1 102.1 170.7 102.1 171.5 102.1 172.4 102.1 172.9 102.1 173.5 102.1 174.1 102.1 174.7 102.1 175.3 102.1 175.8 102.1 176.3 102.1 176.9 102.1 177.5 102.1 178.1 102.1 179 102.1 179.8 102.1 180.7 102.1 181.5 102.1 182.3 102.1 183.2 102.1 184 102.1 184.9 102.1 185.4 102.1 186 102.1 186.6 102.1 187.2 102.1 188.3 102.1 189.5 102.1 190.1 102.1 190.6 102.1 191.2 102.1 191.7 102.1 192.5 102.1 193.4 102.1 194 102.1 194.6 102.1 195.2 102.1 195.7 102.1 196.3 102.1 196.8 102.1 197.7 102.1 198.6 102.1 199.2 102.1 199.7 102.1 200.3 102.1 200.8 102.1 201.4 102.1 202 102.1 202.6 102.1 203.1 102.1 203.7 102.1 204.2 102.1 204.8 102.1 205.4 102.1 206.5 102.1 207.7 102.1 208.3 102.1 208.8 102.1 209.3 102.1 209.9 102.1 210.5 102.1 211.1 102.1 212.2 102.1 213.3 102.1 214.2 102.1 215.1 102.1 215.7 102.1 216.2 102.1 216.8 102.1 217.3 102.1 217.9 102.1 218.5 102.1 219.1 102.1 219.6 102.1 220.5 102.1 221.3 102.1 222.2 102.1 223 102.1 223.6 102.1 224.2 102.1 224.8 102.1 225.3 102.1 225.8 102.1 226.4 102.1 227 102.1 227.6 102.1 228.5 102.1 229.3 102.1 230.2 102.1 231 102.1 231.8 102.1 232.7 102.1 233.5 102.1 234.4 102.1 234.9 102.1 235.5 102.1 236.1 102.1 236.7 102.1 237.3 102.1 237.8 102.1 238.3 102.1 238.9 102.1 239.5 102.1 240.1 102.1 240.7 102.1 241.2 102.1 242 102.1 242.9 102.1 243.5 102.1 244.1 102.1 244.7 102.1 245.2 102.1 245.8 102.1 246.3 102.1 246.9 102.1 247.5 102.1 248.3 102.1 249.2 102.1 250 102.1 250.9 102.1 251.4 102.1 252 102.1 252.6 102.1 253.2 102.1 253.8 102.1 254.3 102.1 254.8 102.1 255.4 102.1 256 102.1 256.6 102.1 257.2 102.1 257.7 102.1 258.3 102.1 258.9 102.1 259.5 102.1 260.1 102.1 260.9 102.4 261.7 102.7 262.2 102.7 262.8 102.6 263.4 102.6 264 102.6 264.8 102.6 265.7 102.6 266.5 102.6 267.4 102.6 267.9 102.6 268.5 102.6 269.1 102.6 269.7 102.6 270.5 102.6 271.4 102.6 271.9 102.6 272.5 102.6 273.1 102.6 273.6 102.6 274.2 102.6 274.9 102.6 275.7 103 276.5 103.4 276.8 103.3 277.1 103.2 277.7 103.2 278.2 103.2 278.8 103.2 279.3 103.2 279.9 103.2 280.5 103.2 281.1 103.2 281.6 103.2 282.2 103.2 282.7 103.2 283.3 103.2 283.9 103.2 284.4 103.2 285 103.2 285.6 103.2 286.2 103.2 286.8 103.2 287.3 103.2 287.8 103.2 288.4 103.2 289 103.2 289.6 103.2 290.2 103.2 290.7 103.2 291.3 103.2 291.8 103.2 292.4 103.2 292.9 103.2 293.2 103 293.5 102.8 294 102.9 294.5 103.1 294.5 102.8 294.4 102.4 294.4 102.1 294.3 101.7 294.7 100.9 295.1 100.1 295 99.8 294.9 99.6 294.9 99 294.9 98.3 295.3 97.5 295.7 96.7 295.6 96.4 295.5 96.2 295.8 95.3 296.1 94.5 296.1 94.2 296 93.9 296 93.3 296 92.7 296 92.2 296 91.6 296 91.1 296 90.5 296 89.9 296 89.3 296 88.8 296 88.2 296 87.7 296 87.1 296 86.5 296 85.9 296 85.4 296 84.8 296 84.2 296 83.6 296 82.8 296 81.9 296 81.1 296 80.2 296 79.7 296 79.1 296 78.6 296 78 296 77.4 296 76.8 296 76 296 75.1 296 74.3 296 73.4 296 72.9 296 72.3 295.8 72 295.6 71.6 295.6 70.8 295.5 70 295.5 69.5 295.5 68.9 295.5 68 295.5 67.1 295.5 66.6 295.5 66 295.5 65.2 295.5 64.3 295.2 63.7 295 63.1 294.9 62.3 294.9 61.5 294.9 60.9 294.9 60.3 294.9 59.8 294.9 59.2 294.9 58.6 294.9 58 294.9 57.5 294.9 56.9 294.9 56.1 294.9 55.2 294.9 54.7 294.9 54.1 294.9 53.5 294.9 52.9 294.9 52.1 294.9 51.2 294.9 50.7 294.9 50.1 294.9 49.3 294.9 48.4 294.9 47.8 294.9 47.2 294.9 46.7 294.9 46.1 294.9 45.6 294.9 45 294.9 44.2 294.9 43.3 294.9 42.7 294.9 42.1 294.9 41.6 294.9 41 294.9 40.4 294.9 39.8 294.9 39.3 294.9 38.7 294.9 38.2 294.9 37.6 294.9 37 294.9 36.4 294.9 35.9 294.9 35.3 294.9 34.7 294.9 34.1 295.3 33.3 295.6 32.4 295.6 32.2 295.5 31.9 295.5 31.3 295.5 30.7 295.5 30.2 295.5 29.6 295.5 29.1 295.5 28.5 295.5 27.7 295.5 26.8 295.5 26.2 295.5 25.6 295.5 25 295.5 24.5 295.8 23.6 296.1 22.8 296.1 22.5 296 22.2 296 21.7 296 21.1 296 20.5 296 19.9 296 19.4 296 18.8 296 18.3 296 17.7 296 17.1 296 16.5 296 16 296 15.4 296 14.8 296 14.2 296 13.7 296 13.1 296 12.6 296 12 296 11.4 296 10.8 296 10.3 296 9.7 296 9.2 296 8.6 295.8 8.3 295.6 8 295.4 7.5 295.2 7.1 294.9 7.1 294.6 7 294 6.7 293.4 6.4 292.9 6.2 292.4 6 292.1 6 291.8 6.1 291 6.1 290.1 6.1 289.2 6.1 288.4 6.1 287.3 5.8 286.2 5.4 285.6 5.5 285 5.5 284.4 5.5 283.9 5.5 282.8 5.5 281.6 5.5 280.8 5.5 279.9 5.5 278.8 5.5 277.6 5.5 276.8 5.5 275.9 5.5 275.3 5.5 274.8 5.5 274.2 5.5 273.6 5.5 272.5 5.5 271.4 5.5 270.5 5.5 269.7 5.5 269.1 5.5 268.5 5.5 267.9 5.5 267.4 5.5 266.5 5.5 265.7 5.5 265.1 5.5 264.5 5.5 263.7 5.5 262.8 5.5 262.3 5.5 261.7 5.5 260.8 5.5 260 5.5 259.4 5.5 258.9 5.5 258.3 5.5 257.7 5.5 256.9 5.5 256 5.5 255.4 5.8 254.8 6 254 6.1 253.2 6.1 252.6 6.1 252 6.1 251.2 6.1 250.3 6.1 249.8 6.1 249.2 6.1 248.3 6.1 247.5 6.1 246.7 6.1 245.8 6.1 245.2 6.1 244.6 6.1 244.1 6.1 243.6 6.1 243.3 6.3 243 6.5 241.8 6.5 240.6 6.6 240.1 6.6 239.5 6.6 238.7 6.6 237.8 6.6 237.3 6.6 236.7 6.6 236.1 6.6 235.5 6.6 234.9 6.6 234.4 6.6 233.5 6.6 232.7 6.6 232.1 6.6 231.5 6.6 230.9 6.6 230.4 6.6 229.5 6.6 228.7 6.6 228.2 6.6 227.6 6.6 227 6.6 226.4 6.6 225.5 6.6 224.7 6.6 224.2 6.6 223.6 6.6 223 6.6 222.4 6.6 221.9 6.6 221.3 6.6 220.7 6.9 220.1 7.1 219 7.2 217.9 7.2 217 7.2 216.2 7.2 215.3 7.2 214.5 7.2 213.7 7.2 212.8 7.2 212.2 7.2 211.6 7.2 210.5 7.2 209.4 7.2 208.4 7.5 207.5 7.8 205.8 7.8 204.2 7.8 203.7 7.8 203.1 7.8 202.3 7.8 201.4 7.8 200.8 7.8 200.3 7.8 199.7 7.8 199.1 7.8 198.3 7.8 197.4 7.8 196.8 7.8 196.3 7.8 195.7 7.8 195.1 7.8 194.6 7.8 194 7.8 193.2 7.8 192.3 7.8 191.5 7.8 190.6 7.8 190.1 7.8 189.5 7.8 188.6 7.8 187.7 7.8 186.8 7.8 186 7.8 185.2 7.8 184.3 7.8 183.8 7.8 183.2 7.8 182.7 7.8 182.1 7.8 181.5 7.8 180.9 7.8 180.3 7.8 179.8 7.8 179.2 7.8 178.6 7.8 177.8 7.8 176.9 7.8 176 7.8 175.2 7.8 174.7 7.8 174.1 7.8 173.6 7.8 173 7.8 172.4 7.8 171.8 7.8 171 7.8 170.1 7.8 169.5 8.1 168.9 8.3 168.1 8.4 167.3 8.4 166.7 8.4 166.1 8.4 165.6 8.4 165 8.4 164.4 8.4 163.9 8.4 163.3 8.4 162.7 8.4 162.2 8.4 161.6 8.4 161 8.4 160.4 8.4 159.9 8.4 159.4 8.4 159.1 8.6 158.8 8.8 157.9 8.8 157 8.9 156.4 8.9 155.9 8.9 155.3 8.9 154.8 8.9 154.2 8.9 153.6 8.9 153.1 8.9 152.5 8.9 151.9 8.9 151.3 8.9 151.5 8.2 151.7 7.4 151.7 8.1 151.7 8.7 151 9.9 150.4 11.1 150.1 11.6 149.8 12.1 149.5 12.6 149.2 13.1 149.3 13.4 149.4 13.8 149.1 14.6 148.8 15.4 148.8 15.7 148.9 16 148.9 16.6 148.9 17.1 149.1 18.5 149.3 19.9 149.3 20.1 149.4 20.3 149.4 20.6 149.4 20.8 149.3 21.1 149.2 21.3 149 21.5 148.9 21.6 148.7 21.8 148.4 21.9 148.2 21.9 148 22 147.7 22 147.5 21.9 147.3 21.8 147 21.7 146.9 21.6 146.7 21.4 146.6 21.2 146.5 21 146.4 20.7 146.4 20.5 146.4 20.3 146.5 20 146.6 19.8 146.7 19.6 146.9 19.4 147.1 19.3 147.3 19.2 147.5 19.1 147.8 19 148 19 148.2 19.1 148.5 19.1 148.7 19.2 148.9 19.4 149 19.5 149.2 19.7 149.3 20 149.4 20.2 149.4 20.4 149.4 20.7 149.3 20.9 149.3 21.1 149.1 21.3 149 21.5 148.8 21.7 148.6 21.8 148.4 21.9 148.1 22 147.9 22 147.6 22 147.4 21.9 147.2 21.8 147 21.7 146.8 21.5 146.7 21.3 146.5 21.1 146.5 21.1 146.5 21.1 146.2 19.1 145.9 17.1 145.9 16.6 145.9 16 146 15.1 146 14.2 146.2 13.9 146.4 13.6 146.5 12.8 146.6 11.9 146.9 11.3 147.2 10.7 147.5 10.1 147.8 9.5 148.3 9 148.7 8.5 148.7 7.9 148.7 7.4 150 6.7 151.3 5.9 151.9 5.9 152.5 5.9 153.1 5.9 153.6 5.9 154.2 5.9 154.8 5.9 155.3 5.9 155.9 5.9 156.4 5.9 157 5.9 157.3 6 157.6 6 158.4 5.7 159.2 5.4 159.8 5.4 160.4 5.4 161 5.4 161.6 5.4 162.2 5.4 162.7 5.4 163.3 5.4 163.9 5.4 164.4 5.4 165 5.4 165.6 5.4 166.1 5.4 166.7 5.4 167.3 5.4 167.6 5.4 167.9 5.5 169 5.1 170.1 4.8 170.9 4.8 171.8 4.8 172.4 4.8 173 4.8 173.6 4.8 174.1 4.8 174.7 4.8 175.2 4.8 176 4.8 176.9 4.8 177.8 4.8 178.6 4.8 179.2 4.8 179.8 4.8 180.3 4.8 180.9 4.8 181.5 4.8 182.1 4.8 182.7 4.8 183.2 4.8 183.8 4.8 184.3 4.8 185.2 4.8 186 4.8 186.8 4.8 187.7 4.8 188.6 4.8 189.5 4.8 190.1 4.8 190.6 4.8 191.5 4.8 192.3 4.8 193.2 4.8 194 4.8 194.6 4.8 195.1 4.8 195.7 4.8 196.3 4.8 196.8 4.8 197.4 4.8 198.3 4.8 199.1 4.8 199.7 4.8 200.3 4.8 200.8 4.8 201.4 4.8 202.3 4.8 203.1 4.8 203.7 4.8 204.2 4.8 205.5 4.8 206.7 4.8 208.1 4.5 209.4 4.2 210.5 4.2 211.6 4.2 212.2 4.2 212.8 4.2 213.7 4.2 214.5 4.2 215.3 4.2 216.2 4.2 217 4.2 217.9 4.2 218.5 4.2 219.1 4.3 220.2 3.9 221.3 3.6 221.8 3.6 222.4 3.6 223 3.6 223.6 3.6 224.2 3.6 224.7 3.6 225.5 3.6 226.4 3.6 227 3.6 227.6 3.6 228.2 3.6 228.7 3.6 229.5 3.6 230.4 3.6 230.9 3.6 231.5 3.6 232.1 3.6 232.7 3.6 233.5 3.6 234.4 3.6 234.9 3.6 235.5 3.6 236.1 3.6 236.7 3.6 237.3 3.6 237.8 3.6 238.7 3.6 239.5 3.6 240.1 3.6 240.6 3.6 241.2 3.7 241.8 3.7 242.6 3.4 243.4 3.1 244 3.1 244.6 3.1 245.2 3.1 245.8 3.1 246.7 3.1 247.5 3.1 248.3 3.1 249.2 3.1 249.8 3.1 250.3 3.1 251.2 3.1 252 3.1 252.6 3.1 253.2 3.1 253.5 3.1 253.8 3.2 254.9 2.8 256 2.5 256.8 2.5 257.7 2.5 258.3 2.5 258.9 2.5 259.4 2.5 260 2.5 260.8 2.5 261.7 2.5 262.3 2.5 262.8 2.5 263.7 2.5 264.5 2.5 265.1 2.5 265.7 2.5 266.5 2.5 267.4 2.5 267.9 2.5 268.5 2.5 269.1 2.5 269.7 2.5 270.5 2.5 271.4 2.5 272.5 2.5 273.6 2.5 274.2 2.5 274.8 2.5 275.3 2.5 275.9 2.5 276.8 2.5 277.6 2.5 278.8 2.5 279.9 2.5 280.8 2.5 281.6 2.5 282.8 2.5 283.9 2.5 284.4 2.5 285 2.5 286.1 2.5 287.2 2.6 287.8 2.8 288.4 3.1 289.3 3.1 290.1 3.1 291 3.1 291.8 3.1 292.7 3.2 293.6 3.2 294.2 3.5 294.8 3.8 295.4 4.1 296 4.4 296.8 4.9 297.6 5.5 298 6.2 298.4 6.8 298.7 7.7 299 8.6 299 9.1 299 9.7 299 10.3 299 10.8 299 11.4 299 12 299 12.6 299 13.1 299 13.7 299 14.2 299 14.8 299 15.4 299 16 299 16.5 299 17.1 299 17.7 299 18.3 299 18.8 299 19.4 299 19.9 299 20.5 299 21.1 299 21.7 299 22.2 298.9 23 298.9 23.8 298.7 24.2 298.5 24.5 298.5 25.1 298.5 25.6 298.5 26.2 298.5 26.8 298.5 27.7 298.5 28.5 298.5 29.1 298.5 29.6 298.5 30.2 298.5 30.7 298.5 31.3 298.5 31.9 298.4 32.8 298.4 33.6 298.1 33.9 297.9 34.3 297.9 34.8 297.9 35.3 297.9 35.9 297.9 36.4 297.9 37 297.9 37.6 297.9 38.2 297.9 38.7 297.9 39.3 297.9 39.8 297.9 40.4 297.9 41 297.9 41.6 297.9 42.1 297.9 42.7 297.9 43.3 297.9 44.2 297.9 45 297.9 45.6 297.9 46.1 297.9 46.7 297.9 47.2 297.9 47.8 297.9 48.4 297.9 49.3 297.9 50.1 297.9 50.7 297.9 51.2 297.9 52.1 297.9 52.9 297.9 53.5 297.9 54.1 297.9 54.7 297.9 55.2 297.9 56.1 297.9 56.9 297.9 57.5 297.9 58 297.9 58.6 297.9 59.2 297.9 59.8 297.9 60.3 297.9 60.9 297.9 61.5 297.9 61.8 297.8 62.1 298.2 63.2 298.5 64.3 298.5 65.1 298.5 66 298.5 66.6 298.5 67.1 298.5 68 298.5 68.9 298.5 69.5 298.5 70 298.4 70.3 298.4 70.6 298.7 71.4 299 72.3 299 72.8 299 73.4 299 74.3 299 75.1 299 76 299 76.8 299 77.4 299 78 299 78.6 299 79.1 299 79.7 299 80.2 299 81.1 299 81.9 299 82.8 299 83.6 299 84.2 299 84.8 299 85.4 299 85.9 299 86.5 299 87.1 299 87.7 299 88.2 299 88.8 299 89.3 299 89.9 299 90.5 299 91.1 299 91.6 299 92.2 299 92.7 299 93.3 299 93.9 298.9 94.7 298.9 95.5 298.7 95.9 298.5 96.2 298.4 97.1 298.3 97.9 298.1 98.2 297.9 98.5 297.9 99 297.9 99.6 297.8 100.5 297.7 101.3 297.5 101.6 297.3 101.9 297.2 102.7 297.2 103.6 296.6 104.3 296.1 105.1 295.4 105.3 294.7 105.4 293.9 105.8 293.1 106.2 292.4 106.2 291.8 106.2 291.3 106.2 290.7 106.2 290.2 106.2 289.6 106.2 289 106.2 288.4 106.2 287.8 106.2 287.3 106.2 286.8 106.2 286.2 106.2 285.6 106.2 285 106.2 284.4 106.2 283.9 106.2 283.3 106.2 282.7 106.2 282.2 106.2 281.6 106.2 281.1 106.2 280.5 106.2 279.9 106.2 279.3 106.2 278.8 106.2 278.2 106.2 277.7 106.2 277.1 106.2 276.2 106.1 275.3 106 275 105.8 274.7 105.6 274.2 105.6 273.6 105.6 273.1 105.6 272.5 105.6 271.9 105.6 271.4 105.6 270.5 105.6 269.7 105.6 269.1 105.6 268.5 105.6 267.9 105.6 267.4 105.6 266.5 105.6 265.7 105.6 264.8 105.6 264 105.6 263.4 105.6 262.8 105.6 261.7 105.5 260.5 105.5 260.2 105.3 259.9 105.1 259.4 105.1 258.9 105.1 258.3 105.1 257.7 105.1 257.2 105.1 256.6 105.1 256 105.1 255.4 105.1 254.8 105.1 254.3 105.1 253.8 105.1 253.2 105.1 252.6 105.1 252 105.1 251.4 105.1 250.9 105.1 250 105.1 249.2 105.1 248.3 105.1 247.5 105.1 246.9 105.1 246.3 105.1 245.8 105.1 245.2 105.1 244.7 105.1 244.1 105.1 243.5 105.1 242.9 105.1 242 105.1 241.2 105.1 240.7 105.1 240.1 105.1 239.5 105.1 238.9 105.1 238.3 105.1 237.8 105.1 237.3 105.1 236.7 105.1 236.1 105.1 235.5 105.1 234.9 105.1 234.4 105.1 233.5 105.1 232.7 105.1 231.8 105.1 231 105.1 230.2 105.1 229.3 105.1 228.5 105.1 227.6 105.1 227 105.1 226.4 105.1 225.8 105.1 225.3 105.1 224.8 105.1 224.2 105.1 223.6 105.1 223 105.1 222.2 105.1 221.3 105.1 220.5 105.1 219.6 105.1 219.1 105.1 218.5 105.1 217.9 105.1 217.3 105.1 216.8 105.1 216.2 105.1 215.7 105.1 215.1 105.1 214.2 105.1 213.3 105.1 212.2 105.1 211.1 105.1 210.5 105.1 209.9 105.1 209.3 105.1 208.8 105.1 208.3 105.1 207.7 105.1 206.5 105.1 205.4 105.1 204.8 105.1 204.2 105.1 203.7 105.1 203.1 105.1 202.6 105.1 202 105.1 201.4 105.1 200.8 105.1 200.3 105.1 199.7 105.1 199.2 105.1 198.6 105.1 197.7 105.1 196.8 105.1 196.3 105.1 195.7 105.1 195.2 105.1 194.6 105.1 194 105.1 193.4 105.1 192.5 105.1 191.7 105.1 191.2 105.1 190.6 105.1 190.1 105.1 189.5 105.1 188.3 105.1 187.2 105.1 186.6 105.1 186 105.1 185.4 105.1 184.9 105.1 184 105.1 183.2 105.1 182.3 105.1 181.5 105.1 180.7 105.1 179.8 105.1 179 105.1 178.1 105.1 177.5 105.1 176.9 105.1 176.3 105.1 175.8 105.1 175.3 105.1 174.7 105.1 174.1 105.1 173.5 105.1 172.9 105.1 172.4 105.1 171.5 105.1 170.7 105.1 170.1 105.1 169.5 105.1 168.9 105.1 168.4 105.1 167.8 105.1 167.3 105.1 166.7 105.1 166.1 105.1 165.3 105.1 164.5 105 163.9 104.8 163.3 104.5 162.4 104.5 161.6 104.5 160.8 104.5 159.9 104.5 159 104.5 158.2 104.5 157.3 104.5 156.5 104.5 155.9 104.5 155.3 104.5 154.8 104.5 154.2 104.5 153.6 104.5 153 104.5 152.1 104.3 151.3 104.1 150.6 103.3 149.9 102.4 149.6 101.6 149.3 100.8 149.3 100.2 149.3 99.6 149.3 99 149.3 98.4 149.3 97.9 149.3 97.3 149.3 96.8 149.3 96.2 149.3 95.6 149.3 95 149.4 94.2 149.4 93.4 149.6 93 149.8 92.7 149.8 92.1 149.8 91.6 149.8 90.8 149.8 89.9 149.8 89.4 149.8 88.8 149.8 88.2 149.8 87.6 149.8 87.1 149.8 86.5 149.8 86 149.8 85.4 149.8 84.8 149.8 84.2 149.8 83.7 149.8 83.1 149.8 82.5 149.8 81.9 149.8 81.4 149.8 80.8 149.8 80.3 149.8 79.7 149.8 79.1 149.8 78.5 149.9 78.2 149.9 77.9 149.6 77.1 149.3 76.2 149.3 75.7 149.3 75.1 149.3 74.6 149.3 74 149.3 73.4 149.3 72.8 149.4 72.6 149.5 72.3 149.1 71.5 148.7 70.7 148.7 70 148.7 69.4 148.7 68.9 148.7 68.3 148.7 67.7 148.7 67.1 148.7 66.6 148.7 66 148.7 65.5 148.7 64.9 148.7 64.3 148.7 63.7 148.7 63.2 148.7 62.6 148.7 62.1 148.7 61.5 148.7 60.9 148.7 60.3 148.7 59.8 148.7 59.2 148.7 58.6 148.7 58 148.7 57.5 148.7 56.9 148.7 56.4 148.7 55.8 148.7 55.2 148.7 54.6 148.8 53.7 148.9 52.9 149.1 52.6 149.3 52.3 149.4 51.5 149.4 50.6 149.6 50.3 149.8 50 149.8 49.5 149.8 48.9 149.8 48.4 149.8 47.8 149.8 47.3 149.8 46.7 149.8 46.1 149.8 45.5 149.8 44.7 149.8 43.8 149.8 43.3 149.8 42.7 149.8 42.2 149.8 41.6 149.8 41 149.8 40.4 149.8 39.9 149.8 39.3 149.8 38.5 149.8 37.6 149.8 37 149.8 36.4 149.8 35.9 149.8 35.3 149.8 34.8 149.8 34.2 149.8 33.6 149.8 33 149.8 32.5 149.8 31.9 149.9 31.6 149.9 31.3 149.6 30.5 149.3 29.7 149.3 29.1 149.3 28.5 149.3 27.7 149.3 26.8 149.4 26.3 149.4 25.7 149.1 24.8 148.7 24 148.7 23.4 148.7 22.8 148.7 22.2 148.7 21.6 148.7 21.3 148.8 21 148.4 19.9 148.1 18.8 148.1 18.3 148.1 17.7 148.1 16.3 148.1 14.8 148.1 14.6 148.1 14.4 148.2 14.3 148.3 14.1 148.4 14 148.5 13.8 148.6 13.7 148.7 13.6 148.9 13.5 149.1 13.4 149.2 13.4 149.4 13.3 149.6 13.3 149.8 13.3 150 13.4 150.1 13.4 150.3 13.5 150.5 13.6 150.6 13.7 150.7 13.8 150.8 14 150.9 14.1 151 14.3 151.1 14.4 151.1 14.6 151.1 14.8 151.1 14.8 Z" fill="rgb(255, 255, 255, 1)"/>
  <path d="M 218.2 105.7 Q 218.2 105.7 217.9 106.8 217.6 107.9 217.7 108.3 217.7 108.7 217.7 109.3 217.7 109.9 217.3 110.7 216.9 111.5 217 111.8 217.1 112.1 217.1 113 217.1 113.8 217.1 114.4 217.1 114.9 217.1 115.1 217.1 115.3 217 115.4 216.9 115.6 216.8 115.7 216.7 115.9 216.6 116 216.5 116.1 216.3 116.2 216.1 116.3 216 116.3 215.8 116.4 215.6 116.4 215.4 116.4 215.2 116.3 215.1 116.3 214.9 116.2 214.7 116.1 214.6 116 214.5 115.9 214.4 115.7 214.3 115.6 214.2 115.4 214.1 115.3 214.1 115.1 214.1 114.9 214.5 114 214.9 113.2 214.8 112.9 214.7 112.6 215.1 111.7 215.5 110.8 215.7 110.3 215.9 109.8 215.9 109.5 215.8 109.2 215.8 108.7 215.8 108.1 215.8 107.6 215.8 107 216.1 106 216.4 104.9 217.3 104.4 218.3 103.9 219.3 104.3 220.4 104.6 221 105.5 221.5 106.3 221.8 106.9 222.1 107.5 222.3 108 222.6 108.5 222.9 109.1 223.2 109.7 223.5 110.3 223.7 110.9 224.2 111.3 224.7 111.7 225 113.1 225.3 114.5 224.5 115.3 223.7 116.1 222.5 116.3 221.3 116.4 220.7 116.7 220.1 116.9 219.3 117 218.5 117 217.4 117 216.3 117 216 117.2 215.7 117.4 214.5 117.5 213.3 117.6 212.8 117.6 212.2 117.6 211.7 117.6 211.1 117.6 210.5 117.6 209.9 117.6 209.3 117.6 208.8 117.6 208.3 117.6 207.7 117.6 207.1 117.6 206.5 117.6 205.9 117.6 205.3 117.6 204.5 117.2 203.6 116.9 203.3 116.9 203.1 117 202.6 117 202 117 201.1 117 200.2 117 199.7 116.7 199.1 116.4 198.9 116.4 198.7 116.4 198.6 116.3 198.4 116.2 198.3 116.1 198.1 116 198 115.9 197.9 115.8 197.8 115.6 197.7 115.4 197.7 115.3 197.6 115.1 197.6 114.9 197.6 114.7 197.7 114.5 197.7 114.4 197.8 114.2 197.9 114 198 113.9 198.1 113.8 198.3 113.7 198.4 113.6 198.6 113.5 198.7 113.4 198.9 113.4 199.1 113.4 199.7 113.4 200.3 113.4 200.8 113.4 201.4 113.4 201.9 113.4 202.5 113.4 203.3 113.4 204.2 113.4 205 113.4 205.9 113.4 206.8 113.4 207.7 113.4 208.3 113.4 208.8 113.4 209.7 113.4 210.5 113.4 211.1 113.4 211.6 113.4 212.2 113.4 212.8 113.4 213.3 113.4 213.9 113.4 214.5 113.4 215.1 113.4 215.7 113.4 216.2 113.4 217 113.4 217.9 113.4 218.4 113.4 219 113.4 219.8 113.4 220.7 113.4 221.3 113.4 222 113.4 222.8 113.8 223.6 114.2 223.9 114.1 224.2 114 224.8 114 225.3 114 226.2 114 227 114 227.6 114 228.1 114 228.7 114 229.3 114 229.8 114 230.4 114 230.9 114 231.5 114 232.4 114 233.3 114 233.8 114 234.4 114 234.9 114 235.5 114 237.2 114 238.9 114 239.1 114 239.4 114.1 239.6 114.2 239.8 114.3 240 114.5 240.1 114.7 240.2 114.9 240.3 115.1 240.4 115.3 240.4 115.6 240.3 115.8 240.3 116.1 240.2 116.3 240 116.5 239.9 116.6 239.7 116.8 239.4 116.9 239.2 117 239 117 238.7 117 238.5 116.9 238.3 116.9 238.1 116.7 237.9 116.6 237.7 116.4 237.6 116.2 237.5 116 237.4 115.7 237.4 115.5 237.4 115.3 237.5 115 237.6 114.8 237.7 114.6 237.9 114.4 238.1 114.3 238.3 114.1 238.5 114.1 238.7 114 239 114 239.2 114 239.4 114.1 239.7 114.2 239.9 114.4 240 114.5 240.2 114.7 240.3 114.9 240.3 115.2 240.4 115.4 240.4 115.7 240.3 115.9 240.2 116.1 240.1 116.3 240 116.5 239.8 116.7 239.6 116.8 239.4 116.9 239.1 117 238.9 117 238.9 117 238.9 117 237.2 117 235.5 117 234.9 117 234.4 117 233.8 117 233.3 117 232.4 117 231.5 117 230.9 117 230.4 117 229.8 117 229.3 117 228.7 117 228.1 117 227.6 117 227 117 226.2 117 225.3 117 224.8 117 224.2 117 223.3 116.9 222.4 116.8 222.1 116.6 221.8 116.4 221.3 116.4 220.7 116.4 219.8 116.4 219 116.4 218.4 116.4 217.9 116.4 217 116.4 216.2 116.4 215.7 116.4 215.1 116.4 214.5 116.4 213.9 116.4 213.3 116.4 212.8 116.4 212.2 116.4 211.6 116.4 211.1 116.4 210.5 116.4 209.7 116.4 208.8 116.4 208.3 116.4 207.7 116.4 206.8 116.4 205.9 116.4 205 116.4 204.2 116.4 203.3 116.4 202.5 116.4 201.9 116.4 201.4 116.4 200.8 116.4 200.3 116.4 199.7 116.4 199.1 116.4 198.9 116.4 198.7 116.4 198.6 116.3 198.4 116.2 198.3 116.1 198.1 116 198 115.9 197.9 115.8 197.8 115.6 197.7 115.4 197.7 115.3 197.6 115.1 197.6 114.9 197.6 114.7 197.7 114.5 197.7 114.4 197.8 114.2 197.9 114 198 113.9 198.1 113.8 198.3 113.7 198.4 113.6 198.6 113.5 198.7 113.4 198.9 113.4 199.1 113.4 199.7 113.7 200.4 114 201.2 114 202 114 202.6 114 203.1 114 204 114.1 204.8 114.1 205.1 114.4 205.5 114.6 206 114.6 206.5 114.6 207.1 114.6 207.7 114.6 208.3 114.6 208.8 114.6 209.3 114.6 209.9 114.6 210.5 114.6 211.1 114.6 211.7 114.6 212.2 114.6 212.8 114.6 213.3 114.6 213.9 114.7 214.5 114.8 215.3 114.4 216.1 114 217.3 114 218.5 114 218.8 114 219.1 114.1 220.2 113.7 221.3 113.4 221.8 113.5 222.3 113.7 222.7 113.4 223.1 113.1 222.8 113.4 222.5 113.7 221.8 112.9 221.1 112.1 220.8 111.6 220.6 111.1 220.3 110.5 220 109.9 219.7 109.3 219.3 108.7 219.1 108.2 218.9 107.7 218.8 107.3 218.8 107 218.8 106.8 218.7 106.7 218.5 106.7 218.2 106.7 218.5 106.8 218.8 107 218.8 107.6 218.8 108.1 218.8 108.7 218.8 109.2 218.7 110.1 218.7 111 218.4 111.6 218.1 112.2 217.9 112.5 217.7 112.8 217.6 113.6 217.5 114.4 217.3 114.7 217.1 114.9 217.1 115.1 217.1 115.3 217 115.4 216.9 115.6 216.8 115.7 216.7 115.9 216.6 116 216.5 116.1 216.3 116.2 216.1 116.3 216 116.3 215.8 116.4 215.6 116.4 215.4 116.4 215.2 116.3 215.1 116.3 214.9 116.2 214.7 116.1 214.6 116 214.5 115.9 214.4 115.7 214.3 115.6 214.2 115.4 214.1 115.3 214.1 115.1 214.1 114.9 214.1 114.4 214.1 113.8 214.1 113 214.1 112.1 214.2 111.2 214.3 110.3 214.5 110 214.7 109.7 214.7 109.2 214.7 108.7 214.7 107.9 214.8 107.1 215.1 106 215.4 104.9 215.4 104.7 215.5 104.6 215.6 104.4 215.7 104.3 215.8 104.2 216 104 216.1 104 216.3 103.9 216.5 103.8 216.7 103.8 216.8 103.8 217 103.8 217.2 103.9 217.4 103.9 217.5 104 217.7 104.1 217.8 104.2 217.9 104.3 218 104.5 218.1 104.6 218.2 104.8 218.3 105 218.3 105.2 218.3 105.3 218.3 105.5 218.2 105.7 218.2 105.7 Z" fill="rgb(255, 255, 255, 1)"/>
  <path d="M 214.7 139 Q 214.7 139 213.2 139.8 211.8 140.7 210.9 140.8 210 140.9 209.7 141.1 209.5 141.3 208.6 141.6 207.6 141.9 207.3 142.3 206.9 142.8 206.2 143.2 205.4 143.6 204.9 143.8 204.4 144.1 203.8 144.4 203.2 144.7 202.6 145 202 145.3 201.5 145.5 201 145.8 200.1 146.2 199.1 146.5 198.5 146.7 198 147 197.5 147.3 197 147.5 196.4 147.8 195.8 148.1 195.2 148.4 194.7 148.7 194.1 149 193.5 149.3 192.9 149.6 192.4 149.8 191.8 150.1 191.3 150.4 190.7 150.7 190.1 151 189.5 151.3 189 151.5 188.5 151.8 188 152 188 152.3 187.9 152.5 188 152.8 188.1 153 187.8 153.2 187.6 153.4 188 153.4 188.3 153.3 188.9 153.6 189.5 153.9 189.7 153.9 190 153.8 190.6 153.8 191.2 153.8 191.8 153.8 192.3 153.8 192.8 153.8 193.4 153.8 194 153.8 194.6 153.8 195.2 153.8 195.7 153.8 196.3 153.8 196.8 153.8 197.4 153.8 198 153.8 198.6 153.8 199.1 153.8 199.7 153.8 200.3 153.8 200.8 153.8 201.4 153.8 201.9 153.8 202.5 153.8 203.1 153.8 203.6 153.8 203.8 153.6 204.1 153.4 204.7 153.1 205.3 152.8 205.9 152.5 206.4 152.3 207 152 207.5 151.7 208.2 151.4 208.8 151.1 209.3 150.8 209.8 150.6 210.3 150.3 210.9 150 211.6 149.7 212.2 149.4 212.7 149.1 213.2 148.9 213.8 148.6 214.4 148.3 214.9 148.1 215.4 147.9 215.8 147.3 216.2 146.8 217 146.6 217.8 146.4 218.1 146.2 218.4 146 219 145.7 219.5 145.5 220.1 145.2 220.6 144.9 221.1 144.6 221.7 144.3 222.4 144 223 143.7 223.5 143.4 224 143.2 224.6 142.9 225.2 142.6 225.8 142.3 226.4 142 226.9 141.8 227.4 141.5 227.9 141.3 228.5 141 228.5 140.7 228.6 140.3 229.4 139.8 230.2 139.3 230.1 139.1 230.1 138.8 230.8 139.3 231.5 139.8 230.9 139.8 230.3 139.8 229.4 139.4 228.6 139 228 138.7 227.4 138.4 226.9 138.1 226.4 137.8 226.1 137.9 225.9 138 225.3 138 224.7 138 224.2 138 223.6 138 223 138 222.4 138 221.8 138 221.3 138 220.8 138 220.2 138 219.6 138 219 138 218.4 138 217.9 138 217.3 138 216.8 138 216.2 138 215.6 138 215.1 138 214.6 138 212.8 138.3 211.1 138.6 210.9 138.6 210.6 138.5 210.4 138.4 210.2 138.3 210 138.1 209.9 137.9 209.8 137.7 209.7 137.5 209.6 137.3 209.6 137 209.7 136.8 209.7 136.5 209.8 136.3 210 136.1 210.1 136 210.3 135.8 210.6 135.7 210.8 135.6 211 135.6 211.3 135.6 211.5 135.7 211.7 135.7 211.9 135.9 212.1 136 212.3 136.2 212.4 136.4 212.5 136.6 212.6 136.9 212.6 137.1 212.6 137.3 212.5 137.6 212.4 137.8 212.3 138 212.1 138.2 211.9 138.3 211.7 138.5 211.5 138.5 211.3 138.6 211 138.6 210.8 138.6 210.6 138.5 210.3 138.4 210.1 138.2 210 138.1 209.8 137.9 209.7 137.7 209.7 137.4 209.6 137.2 209.6 136.9 209.7 136.7 209.8 136.5 209.9 136.3 210 136.1 210.2 135.9 210.4 135.8 210.6 135.7 210.9 135.6 211.1 135.6 211.1 135.6 211.1 135.6 212.8 135.3 214.4 135 215 135 215.6 135 216.2 135 216.8 135 217.3 135 217.9 135 218.4 135 219 135 219.6 135 220.2 135 220.8 135 221.3 135 221.8 135 222.4 135 223 135 223.6 135 224.2 135 224.7 135 225.3 135 225.9 135 226.8 135.1 227.6 135.2 228.2 135.5 228.8 135.8 229.4 136.1 230 136.4 230.3 136.6 230.5 136.8 231 136.8 231.5 136.8 232.2 138.4 232.9 140 232.4 140.8 231.8 141.7 231.4 141.8 231 141.9 230.6 142.6 230.1 143.4 229.5 143.7 228.8 144.1 228.2 144.4 227.6 144.8 227.1 145 226.6 145.2 226 145.5 225.4 145.8 224.8 146.2 224.2 146.5 223.6 146.7 223.1 146.9 222.6 147.2 222 147.5 221.4 147.8 220.9 148.1 220.2 148.5 219.6 148.8 218.8 149.1 218 149.4 217.7 149.2 217.4 149 217.2 149.7 217 150.3 216.4 150.6 215.8 150.9 215.2 151.2 214.6 151.5 214 151.9 213.4 152.2 212.8 152.4 212.3 152.6 211.8 152.9 211.2 153.2 210.6 153.6 210 153.9 209.4 154.1 208.9 154.3 208.3 154.6 207.8 154.9 207.1 155.3 206.5 155.6 206 155.8 205.5 156 204.7 156.4 203.8 156.8 203.1 156.8 202.5 156.8 201.9 156.8 201.4 156.8 200.8 156.8 200.3 156.8 199.7 156.8 199.1 156.8 198.6 156.8 198 156.8 197.4 156.8 196.8 156.8 196.3 156.8 195.7 156.8 195.2 156.8 194.6 156.8 194 156.8 193.4 156.8 192.8 156.8 192.3 156.8 191.8 156.8 191.2 156.8 190.6 156.8 190 156.8 189.1 156.7 188.3 156.7 187.7 156.4 187.1 156.1 186.3 155.5 185.6 155 185.4 154 185.1 153 185.2 152.1 185.3 151.3 185.8 150.4 186.4 149.6 187 149.2 187.6 148.9 188.3 148.5 188.9 148.2 189.4 148 189.9 147.8 190.5 147.5 191 147.2 191.7 146.8 192.3 146.5 192.8 146.3 193.3 146.1 193.9 145.8 194.4 145.5 195 145.2 195.6 144.9 196.2 144.5 196.8 144.2 197.5 144 198.1 143.7 198.8 143.4 199.6 143.2 200.2 142.9 200.8 142.5 201.3 142.3 201.8 142.1 202.4 141.8 203 141.5 203.6 141.2 204.2 140.8 204.5 140.7 204.9 140.6 205.7 139.9 206.6 139.1 207.3 138.9 208.1 138.7 209 138.3 209.8 137.9 210.1 138 210.4 138.1 211.8 137.3 213.1 136.4 213.3 136.3 213.5 136.3 213.6 136.2 213.8 136.2 214 136.2 214.2 136.2 214.3 136.3 214.5 136.3 214.7 136.4 214.8 136.5 215 136.6 215.1 136.8 215.2 136.9 215.3 137.1 215.3 137.3 215.4 137.4 215.4 137.6 215.4 137.8 215.4 138 215.3 138.1 215.3 138.3 215.2 138.5 215.1 138.6 215 138.8 214.8 138.9 214.7 139 214.7 139 Z" fill="rgb(255, 255, 255, 1)"/>
  <path d="M 328.5 98.4 Q 328.5 98.4 328 100.1 327.4 101.8 327.1 102.6 326.8 103.5 326.5 104.3 326.2 105.2 325.9 105.8 325.7 106.4 325.4 107 325.1 107.6 325.1 107.9 325.2 108.2 324.8 109 324.4 109.8 324.5 110.1 324.6 110.5 324.3 111.3 324 112.1 323.7 112.7 323.4 113.3 323.4 113.6 323.5 113.9 323.1 114.8 322.7 115.6 322.5 116.1 322.3 116.6 322.3 117 322.4 117.3 322 118.2 321.6 119 321.3 119.6 321.1 120.1 321.1 120.4 321.2 120.7 320.8 121.5 320.5 122.4 320.5 122.7 320.6 122.9 320.3 124 320 125 320.1 125.4 320.1 125.8 319.7 126.7 319.3 127.6 319 128.1 318.7 128.6 318.8 128.9 318.9 129.3 318.6 130.1 318.3 130.9 318 131.5 317.6 132 317.7 132.4 317.8 132.7 317.4 133.5 317 134.3 317.1 134.6 317.2 134.8 316.9 135.7 316.6 136.5 316.6 136.9 316.7 137.2 316.3 138 316 138.9 315.8 138.8 315.7 138.7 316 138.7 316.3 138.7 316.6 138.6 317 138.5 317.8 138.8 318.6 139.1 318.9 139.1 319.2 139 320.1 139.4 321 139.8 321.5 140.1 322 140.4 322.3 140.3 322.6 140.2 323.2 140.2 323.8 140.2 324.6 140.5 325.4 140.8 325.7 140.8 326 140.7 326.6 140.7 327.1 140.7 327.7 140.7 328.2 140.7 328.8 140.7 329.4 140.7 330.3 140.7 331.1 140.7 331.7 140.7 332.2 140.7 332.8 140.7 333.4 140.7 334 140.7 334.6 140.7 335.4 141.1 336.2 141.5 336.5 141.4 336.8 141.3 337.3 141.3 337.9 141.3 338.5 141.3 339.1 141.3 339.7 141.3 340.3 141.3 341.1 141.7 341.9 142.1 342.2 142 342.5 141.9 343.1 141.9 343.6 141.9 344.2 141.9 344.7 141.9 345.3 141.9 345.9 141.9 346.5 141.9 347 141.9 347.9 142.2 348.7 142.5 349 142.5 349.3 142.4 350.2 142.4 351 142.4 351.6 142.4 352.1 142.4 352.7 142.4 353.3 142.4 353.8 142.4 354.4 142.4 355 142.4 355.7 142.4 356.5 142.8 357.3 143.2 357.6 143.1 357.8 143 358.4 143 359 143 359.6 143 360.1 143 360.7 143 361.2 143 361.8 143 362.4 143 362.9 143 363.5 143 364.1 143 364.7 143 365.3 143 365.8 143 366.3 143 366.9 143 367.5 143 368.1 143 368.7 143 369.2 143 369.8 143 370.3 143 370.9 143 371.5 143 371.7 143.2 371.9 143.4 371.9 143 371.9 142.7 372.3 142 372.6 141.4 373.2 141.3 373.8 141.1 373.6 140.8 373.4 140.4 373.8 139.5 374.2 138.7 374.4 138.2 374.6 137.7 374.9 137.1 375.2 136.5 375.2 136.2 375.1 135.9 375.5 135.1 375.8 134.2 375.8 133.9 375.7 133.6 376 132.8 376.3 132 376.6 131.4 376.9 130.8 376.9 130.5 376.8 130.2 377.2 129.4 377.6 128.6 377.5 128.3 377.4 127.9 377.7 127.1 378 126.3 378 126 377.9 125.7 377.9 125.1 377.9 124.5 378.3 123.7 378.7 122.9 378.6 122.6 378.5 122.3 378.5 121.8 378.5 121.2 378.5 120.6 378.5 119.9 378.9 119.1 379.3 118.3 379.2 118 379.1 117.8 379.1 117.2 379.1 116.5 379.4 115.7 379.7 114.9 379.7 114.6 379.6 114.3 380 113.4 380.4 112.5 380.7 112 381 111.4 381.3 110.8 381.6 110.2 381.8 109.7 382 109.2 382.4 108.6 382.7 108 383 107.4 383.3 106.8 383.5 106.3 383.7 105.8 383.7 105.5 383.6 105.2 384 104.4 384.3 103.5 384.3 103.3 384.2 103 384.2 102.4 384.2 101.7 384.6 100.9 385 100.1 385.1 100.2 385.3 100.3 384.9 100.3 384.5 100.4 384.3 100.4 384 100.5 383.4 100.5 382.9 100.5 382.3 100.5 381.7 100.5 381.2 100.5 380.6 100.5 379.5 100.5 378.3 100.5 377.8 100.5 377.2 100.5 376.6 100.5 376 100.5 375.2 100.5 374.3 100.5 373.8 100.5 373.2 100.5 372.3 100.5 371.4 100.5 370.5 100.1 369.6 99.7 368.9 99.5 368.2 99.3 367.8 99.4 367.5 99.4 366.9 99.4 366.3 99.4 365.5 99 364.6 98.7 364.3 98.7 364 98.8 363.2 98.4 362.3 98.1 362 98.1 361.8 98.2 361.3 98.2 360.7 98.2 359.8 98.2 359 98.2 358.1 97.9 357.3 97.6 357 97.6 356.7 97.7 356.2 97.7 355.6 97.7 354.7 97.7 353.8 97.7 353.3 97.7 352.7 97.7 352.2 97.7 351.6 97.7 350.8 97.7 349.9 97.7 349.3 97.7 348.6 97.7 347.8 97.3 347 96.9 346.7 97 346.5 97.1 345.9 97.1 345.3 97.1 344.8 97.1 344.2 97.1 343.6 97.1 343 97.1 342.4 97.1 341.9 97.1 341.3 97.1 340.8 97.1 340.2 97.1 339.6 97.1 339.1 97.1 338.5 97.1 337.9 97.1 337.3 97.1 336.5 97.1 335.6 97.1 334.8 97.1 333.9 97.1 333 97.1 332.2 97.1 331.7 97.1 331.1 97.1 329.8 97.3 328.4 97.5 328.2 97.6 328 97.7 327.7 97.7 327.5 97.7 327.2 97.6 327 97.5 326.8 97.4 326.6 97.2 326.5 97 326.3 96.8 326.3 96.6 326.2 96.4 326.2 96.1 326.2 95.9 326.3 95.7 326.4 95.4 326.6 95.3 326.7 95.1 326.9 94.9 327.1 94.8 327.4 94.8 327.6 94.7 327.8 94.7 328.1 94.8 328.3 94.8 328.5 94.9 328.7 95.1 328.9 95.3 329 95.5 329.1 95.7 329.2 95.9 329.2 96.2 329.2 96.4 329.1 96.7 329 96.9 328.9 97.1 328.7 97.3 328.6 97.4 328.3 97.5 328.1 97.6 327.9 97.7 327.6 97.7 327.4 97.6 327.2 97.6 327 97.5 326.7 97.4 326.6 97.2 326.4 97 326.3 96.8 326.2 96.5 326.2 96.3 326.2 96.1 326.3 95.8 326.3 95.6 326.5 95.4 326.6 95.2 326.8 95 327 94.9 327 94.9 327 94.9 329 94.5 331.1 94.1 331.7 94.1 332.2 94.1 333 94.1 333.9 94.1 334.8 94.1 335.6 94.1 336.5 94.1 337.3 94.1 337.9 94.1 338.5 94.1 339.1 94.1 339.6 94.1 340.2 94.1 340.8 94.1 341.3 94.1 341.9 94.1 342.4 94.1 343 94.1 343.6 94.1 344.2 94.1 344.8 94.1 345.3 94.1 345.9 94.1 346.5 94.1 347.4 94.2 348.2 94.3 348.5 94.5 348.8 94.7 349.3 94.7 349.9 94.7 350.8 94.7 351.6 94.7 352.2 94.7 352.7 94.7 353.3 94.7 353.8 94.7 354.7 94.7 355.6 94.7 356.2 94.7 356.7 94.7 357.5 94.8 358.3 94.8 358.7 95 359 95.2 359.9 95.2 360.7 95.2 361.3 95.2 361.8 95.2 362.6 95.3 363.5 95.3 363.8 95.6 364.2 95.8 365 95.9 365.8 95.9 366.1 96.2 366.5 96.4 367 96.4 367.5 96.4 368.3 96.4 369 96.5 370 96.8 371 97.1 371.3 97.3 371.6 97.5 372.4 97.5 373.2 97.5 373.8 97.5 374.3 97.5 375.2 97.5 376 97.5 376.6 97.5 377.2 97.5 377.8 97.5 378.3 97.5 379.5 97.5 380.6 97.5 381.2 97.5 381.7 97.5 382.3 97.5 382.9 97.5 383.4 97.5 384 97.5 384.9 97.6 385.7 97.6 386.5 98.3 387.3 98.9 387.5 100.1 387.6 101.3 387.4 101.6 387.2 101.9 387.2 102.4 387.2 103 387.1 103.9 387.1 104.7 386.8 105 386.6 105.4 386.5 106.2 386.5 107 386.2 107.6 385.9 108.2 385.6 108.8 385.3 109.4 385 109.9 384.8 110.4 384.5 111 384.2 111.6 383.9 112.2 383.6 112.8 383.3 113.3 383 113.9 382.8 114.2 382.6 114.5 382.5 115.3 382.5 116.1 382.3 116.4 382.1 116.7 382.1 117.2 382.1 117.8 382 118.7 381.9 119.5 381.7 119.8 381.5 120.1 381.5 120.6 381.5 121.2 381.5 121.8 381.5 122.3 381.4 123.2 381.3 124.1 381.1 124.4 380.9 124.7 380.9 125.2 380.9 125.7 380.8 126.6 380.8 127.5 380.6 127.8 380.4 128.1 380.3 128.9 380.2 129.8 380 130.1 379.8 130.4 379.7 131.2 379.7 132 379.4 132.6 379.1 133.2 378.9 133.5 378.7 133.8 378.6 134.6 378.6 135.4 378.3 135.7 378.1 136.1 378 136.9 378 137.7 377.7 138.3 377.4 138.9 377.1 139.5 376.8 140.1 376.6 140.4 376.4 140.6 376.2 141.4 376 142.3 375.5 142.6 375 143 374.7 143.6 374.5 144.1 373.9 144.9 373.3 145.6 372.4 145.8 371.5 146 370.9 146 370.3 146 369.8 146 369.2 146 368.7 146 368.1 146 367.5 146 366.9 146 366.3 146 365.8 146 365.3 146 364.7 146 364.1 146 363.5 146 362.9 146 362.4 146 361.8 146 361.2 146 360.7 146 360.1 146 359.6 146 359 146 358.4 146 357.8 146 356.9 145.9 356.1 145.8 355.8 145.6 355.5 145.4 355 145.4 354.4 145.4 353.8 145.4 353.3 145.4 352.7 145.4 352.1 145.4 351.6 145.4 351 145.4 350.2 145.4 349.3 145.4 348.5 145.3 347.7 145.3 347.3 145.1 347 144.9 346.4 144.9 345.9 144.9 345.3 144.9 344.7 144.9 344.2 144.9 343.6 144.9 343.1 144.9 342.5 144.9 341.6 144.8 340.7 144.7 340.4 144.5 340.1 144.3 339.6 144.3 339.1 144.3 338.5 144.3 337.9 144.3 337.3 144.3 336.8 144.3 335.9 144.2 335 144.1 334.7 143.9 334.4 143.7 333.9 143.7 333.4 143.7 332.8 143.7 332.2 143.7 331.7 143.7 331.1 143.7 330.3 143.7 329.4 143.7 328.8 143.7 328.2 143.7 327.7 143.7 327.1 143.7 326.6 143.7 326 143.7 325.1 143.6 324.2 143.6 323.9 143.4 323.6 143.2 323.1 143.2 322.6 143.2 321.7 143.1 320.8 143 320.2 142.7 319.6 142.4 319.3 142.2 319 142 318.2 141.9 317.4 141.9 317.1 141.7 316.8 141.5 316 141.4 315.1 141.3 314.3 140.7 313.5 140.1 313.4 138.9 313.2 137.7 313.5 137.4 313.7 137 313.8 136.2 313.8 135.5 314 135.1 314.2 134.8 314.3 133.9 314.4 133.1 314.6 132.8 314.8 132.5 314.9 131.6 315 130.8 315.2 130.2 315.5 129.7 315.7 129.4 315.9 129.1 316 128.3 316.1 127.4 316.4 126.8 316.7 126.2 316.9 125.9 317.1 125.6 317.1 124.9 317.2 124.2 317.4 123.5 317.6 122.9 317.7 122 317.7 121.2 318 120.9 318.2 120.5 318.3 119.7 318.3 118.9 318.7 118.2 319 117.6 319.2 117.3 319.4 117.1 319.5 116.3 319.5 115.6 319.8 114.9 320.1 114.2 320.3 113.9 320.5 113.7 320.6 112.9 320.6 112.1 320.9 111.5 321.2 110.9 321.4 110.6 321.6 110.3 321.7 109.5 321.8 108.6 322 108.3 322.2 108 322.3 107.2 322.3 106.4 322.6 105.8 322.9 105.2 323.2 104.7 323.4 104.2 323.7 103.4 324 102.5 324.3 101.7 324.6 100.8 325.1 99.1 325.7 97.4 325.7 97.3 325.8 97.1 325.9 97 326.1 96.8 326.2 96.7 326.3 96.6 326.5 96.5 326.7 96.5 326.8 96.4 327 96.4 327.2 96.4 327.4 96.4 327.6 96.5 327.7 96.5 327.9 96.6 328 96.7 328.2 96.9 328.3 97 328.4 97.1 328.5 97.3 328.5 97.5 328.6 97.6 328.6 97.8 328.6 98 328.6 98.2 328.5 98.4 328.5 98.4 Z" fill="rgb(255, 255, 255, 1)"/>
  <path d="M 382.4 118.8 Q 382.4 118.8 383 120 383.6 121.1 383.9 121.7 384.2 122.3 384.3 123.1 384.4 124 384.6 124.3 384.8 124.6 385 125.1 385.2 125.5 385.6 125.6 385.9 125.7 386.5 126.5 387 127.3 387.2 127.8 387.5 128.4 387.8 128.4 388.2 128.5 388.8 129.4 389.3 130.2 389.6 130.8 389.9 131.4 390.1 131.8 390.3 132.3 390.9 132.7 391.4 133.1 391.4 133.6 391.4 134.1 392 134.4 392.5 134.8 392 136.4 391.4 138 390.9 138 390.4 138 390 138.2 389.7 138.5 388.9 138.5 388.1 138.6 387.8 138.8 387.5 139 386.9 139.3 386.4 139.6 385.8 139.9 385.2 140.2 384.3 140.2 383.4 140.3 382.9 140.3 382.4 140.3 382.1 140.5 381.8 140.7 381.2 141 380.6 141.3 378.6 141.4 376.6 141.5 376.4 141.5 376.1 141.4 375.9 141.3 375.7 141.2 375.5 141 375.4 140.8 375.3 140.6 375.2 140.4 375.1 140.2 375.1 139.9 375.2 139.7 375.2 139.4 375.3 139.2 375.5 139 375.6 138.9 375.8 138.7 376.1 138.6 376.3 138.5 376.5 138.5 376.8 138.5 377 138.6 377.2 138.6 377.4 138.8 377.6 138.9 377.8 139.1 377.9 139.3 378 139.5 378.1 139.8 378.1 140 378.1 140.2 378 140.5 377.9 140.7 377.8 140.9 377.6 141.1 377.4 141.2 377.2 141.4 377 141.4 376.8 141.5 376.5 141.5 376.3 141.5 376.1 141.4 375.8 141.3 375.6 141.1 375.5 141 375.3 140.8 375.2 140.6 375.2 140.3 375.1 140.1 375.1 139.8 375.2 139.6 375.3 139.4 375.4 139.2 375.5 139 375.7 138.8 375.9 138.7 376.1 138.6 376.4 138.5 376.6 138.5 376.6 138.5 376.6 138.5 378 138.6 379.4 138.7 379.9 138.4 380.4 138.1 381.3 137.7 382.2 137.3 382.8 137.3 383.4 137.3 383.7 137.4 384 137.4 384.5 137.2 385 137 385.6 136.7 386.1 136.4 387 136 387.9 135.6 388.2 135.7 388.5 135.7 389.4 135.4 390.2 135 390.8 135 391.4 135 390.8 135.5 390.3 136 389.7 135.8 389.2 135.5 389.2 134.9 389.2 134.3 388.5 134.1 387.9 133.9 387.5 133.3 387.1 132.6 386.9 132.1 386.7 131.6 386.6 131.2 386.6 130.9 385.9 130.5 385.1 130 384.8 129.4 384.4 128.7 384.3 128.4 384.3 128.1 383.5 127.6 382.8 127.1 382.4 126.4 382 125.8 381.7 124.9 381.4 124 381.5 123.8 381.6 123.5 381.3 123 381 122.5 380.4 121.3 379.8 120.2 379.7 120 379.6 119.9 379.6 119.7 379.6 119.5 379.6 119.3 379.6 119.1 379.7 119 379.8 118.8 379.9 118.7 380 118.5 380.1 118.4 380.3 118.3 380.4 118.2 380.6 118.1 380.7 118.1 380.9 118 381.1 118 381.3 118 381.5 118.1 381.6 118.1 381.8 118.2 382 118.3 382.1 118.4 382.2 118.5 382.3 118.7 382.4 118.8 382.4 118.8 Z" fill="rgb(255, 255, 255, 1)"/>
  <path d="M 385.4 111 Q 385.4 111 384.8 112.2 384.3 113.3 384.3 113.6 384.4 113.9 384 114.8 383.6 115.6 383.3 116.2 383.1 116.7 383.1 117 383.2 117.3 382.6 119.3 382 121.2 381.8 121.4 381.7 121.6 381.5 121.8 381.3 121.9 381.1 122 380.9 122.1 380.6 122.1 380.4 122.1 380.1 122 379.9 121.9 379.7 121.8 379.5 121.6 379.4 121.4 379.2 121.2 379.2 121 379.1 120.8 379.1 120.5 379.1 120.3 379.2 120.1 379.3 119.8 379.5 119.6 379.6 119.5 379.8 119.3 380 119.2 380.3 119.2 380.5 119.1 380.8 119.1 381 119.2 381.2 119.3 381.4 119.4 381.6 119.5 381.8 119.7 381.9 119.9 382 120.1 382.1 120.4 382.1 120.6 382.1 120.8 382 121.1 381.9 121.3 381.8 121.5 381.6 121.7 381.4 121.8 381.2 121.9 381 122 380.8 122.1 380.5 122.1 380.3 122 380.1 122 379.8 121.9 379.6 121.7 379.5 121.6 379.3 121.4 379.2 121.2 379.1 120.9 379.1 120.7 379.1 120.4 379.2 120.2 379.2 120 379.2 120 379.2 120 379.7 118.5 380.2 117.1 380.3 116.3 380.3 115.5 380.7 114.8 381 114.2 381.2 113.9 381.4 113.7 381.5 112.9 381.5 112.1 382.1 110.9 382.6 109.8 382.7 109.6 382.8 109.4 383 109.3 383.1 109.2 383.3 109.1 383.4 109 383.6 109 383.8 108.9 383.9 108.9 384.1 108.9 384.3 108.9 384.5 109 384.6 109.1 384.8 109.1 384.9 109.2 385.1 109.4 385.2 109.5 385.3 109.7 385.4 109.8 385.4 110 385.5 110.2 385.5 110.3 385.5 110.5 385.5 110.7 385.4 110.9 385.4 111 385.4 111 Z" fill="rgb(255, 255, 255, 1)"/>
</svg>