<?xml version="1.0" encoding="UTF-8"?>
<svg xmlns="http://www.w3.org/2000/svg" width="233.18421052631584" height="81.0947368421048" viewBox="0 0 233.18421052631584 81.0947368421048">
  <path d="M 186.8 9.1 Q 186.8 9.1 186 10.2 185.2 11.2 185 11.6 184.8 12 184.2 12.9 183.6 13.7 183.4 14.2 183.2 14.6 182.7 15.7 182.1 16.8 181.6 17.6 181.1 18.5 180.5 19.5 180 20.5 179.5 21.5 179 22.5 178.5 23.6 177.9 24.7 177.4 25.5 176.9 26.4 176.3 27.4 175.8 28.4 175.6 28.9 175.3 29.4 174.7 30.3 174.1 31.1 173.6 31.9 173.2 32.7 172.9 33.2 172.6 33.7 172.4 34.3 172.2 35 171.6 35.9 171.1 36.9 170.8 37.4 170.5 37.9 170 38.7 169.5 39.5 169.3 40 169 40.4 168.7 41 168.4 41.6 167.8 42.2 167.2 42.9 167.1 43.2 166.9 43.6 166.6 44.1 166.3 44.7 166.1 45.2 165.8 45.7 165.6 46.2 165.3 46.7 164.7 47.6 164.1 48.5 163.9 49 163.7 49.4 163.5 49.9 163.2 50.4 162.9 50.9 162.6 51.5 162.7 51.7 162.8 52 162.5 52.7 162.1 53.5 162.2 53.7 162.3 53.9 162.5 54.2 162.6 54.4 162.7 55.2 162.8 56 163 56.2 163.2 56.3 163.5 57 163.8 57.6 163.8 58.7 163.9 59.8 163.7 60.2 163.5 60.6 163.8 60.6 164.1 60.6 164.5 60.5 165 60.4 165.5 60.4 166.1 60.4 167.1 60.4 168.2 60.4 169 60.4 169.8 60.4 171.1 60.4 172.4 60.4 173.2 60.4 174 60.4 174.5 60.1 175.1 59.9 176.1 59.8 177.1 59.8 177.9 59.8 178.7 59.8 179.3 59.6 179.9 59.4 180.9 59.3 181.9 59.3 182.7 59.3 183.5 59.3 184 59.1 184.5 58.9 185.3 58.8 186.1 58.8 186.8 58.8 187.6 58.8 187.8 58.6 188.1 58.4 189.1 58.4 190.2 58.3 190.4 58.1 190.6 57.9 191.7 57.8 192.9 57.7 193.5 57.5 194.1 57.3 194.8 57.2 195.6 57.2 196.3 57.2 197.1 57.2 197.6 57.2 198.2 57.2 199.1 57 199.9 56.7 201.2 56.7 202.4 56.7 202.9 56.7 203.5 56.7 204.2 56.7 205 56.7 205.5 56.7 206.1 56.7 207.1 56.7 208.2 56.7 208.8 56.5 209.4 56.3 210.3 56.2 211.3 56.2 211.8 56.2 212.4 56.2 212.9 56.2 213.5 56.2 214.2 56.2 215 56.2 215.5 56.2 216.1 56.2 216.9 56.2 217.7 56.2 219 56.2 220.3 56.2 221.3 56.2 222.4 56.2 222.5 56.5 222.7 56.7 222.7 56.3 222.6 56 222.9 55.5 223.1 54.9 223.4 54.4 223.6 53.9 223.9 53.3 224.3 52.7 224.8 51.9 225.3 51.1 225.5 50.6 225.7 50.2 226.3 49.3 226.9 48.4 227.1 47.9 227.3 47.5 227.6 47 227.8 46.5 227.8 46.1 227.7 45.7 227.5 45.4 227.3 45.1 227.1 44.6 226.8 44 226.6 43.5 226.3 43.1 226.1 42.6 225.9 42.1 225.6 42.1 225.3 42 224.8 41.2 224.2 40.5 224 40 223.8 39.5 223.5 39.5 223.2 39.4 222.7 38.6 222.1 37.8 221.7 37.5 221.3 37.2 220.9 36.4 220.5 35.6 220.3 35.2 220 34.8 219.7 34.2 219.4 33.5 219.1 33.2 218.7 32.9 218.3 32.2 217.9 31.5 217.6 31 217.3 30.5 217.1 29.9 216.8 29.3 216.6 28.8 216.3 28.4 216 27.5 215.7 26.6 215.4 26.1 215.2 25.6 215 25.1 214.7 24.7 214.5 24.1 214.2 23.5 214 23.1 213.7 22.7 213.4 22 213.1 21.4 212.9 21 212.7 20.5 212.2 20.1 211.8 19.7 211.5 19.1 211.2 18.5 210.8 18.4 210.5 18.3 209.9 17.5 209.4 16.8 209.2 16.2 208.9 15.6 208.4 14.9 207.9 14.2 207.7 13.7 207.5 13.2 207.2 13.2 206.9 13.1 206.3 12.3 205.8 11.5 205.5 11 205.2 10.5 205 9.9 204.7 9.4 204.3 9.1 203.9 8.8 203.5 8 203.1 7.2 202.8 6.3 202.6 5.5 202.7 5.3 202.9 5.1 202.6 5.3 202.4 5.5 201.8 5.5 201.3 5.5 200.5 5.5 199.8 5.5 199.2 5.5 198.7 5.5 197.9 5.5 197.1 5.5 196.3 5.5 195.6 5.5 195.1 5.5 194.6 5.5 194.3 5.7 194.1 5.9 193.2 5.9 192.4 6 191.9 6 191.4 6 191.2 6.2 191 6.3 189.3 7.2 187.7 8 187.5 8 187.2 8.1 187 8.1 186.8 8.1 186.5 8 186.3 7.9 186.1 7.7 185.9 7.6 185.8 7.4 185.7 7.1 185.6 6.9 185.6 6.7 185.6 6.4 185.6 6.2 185.7 6 185.8 5.7 186 5.6 186.2 5.4 186.4 5.3 186.6 5.2 186.9 5.1 187.1 5.1 187.3 5.1 187.6 5.2 187.8 5.3 188 5.4 188.2 5.6 188.3 5.8 188.4 6 188.5 6.2 188.6 6.5 188.6 6.7 188.5 6.9 188.5 7.2 188.3 7.4 188.2 7.6 188 7.7 187.8 7.9 187.6 8 187.4 8.1 187.2 8.1 186.9 8.1 186.7 8 186.4 8 186.2 7.8 186 7.7 185.9 7.5 185.8 7.3 185.7 7.1 185.6 6.8 185.6 6.6 185.6 6.3 185.7 6.1 185.8 5.9 185.9 5.7 186.1 5.5 186.3 5.4 186.5 5.2 186.5 5.2 186.5 5.2 188 4.4 189.6 3.7 190.4 3.3 191.2 3 191.8 3 192.4 3 192.6 3.1 192.9 3.1 193.6 2.8 194.4 2.5 195 2.5 195.6 2.5 196.3 2.5 197.1 2.5 197.9 2.5 198.7 2.5 199.2 2.5 199.8 2.5 200.5 2.5 201.3 2.5 201.8 2.5 202.4 2.5 203.2 2.7 204.1 2.9 204.7 3.7 205.4 4.5 205.6 5.3 205.9 6 205.9 6.3 206 6.6 206.7 7.3 207.4 8 207.7 8.6 207.9 9.1 208.2 9.6 208.4 10.1 208.4 10.4 208.5 10.7 209.2 11.1 209.9 11.6 210.2 12.1 210.4 12.6 211 13.5 211.6 14.4 211.9 14.9 212.1 15.4 212.1 15.7 212.1 15.9 212.9 16.4 213.6 16.9 213.8 17.3 214 17.7 214.6 18.4 215.3 19.1 215.6 19.6 215.8 20.2 216.1 20.7 216.3 21.1 216.6 21.7 216.9 22.3 217.2 22.8 217.4 23.3 217.7 23.9 217.9 24.4 218.2 25 218.5 25.6 218.8 26.3 219 27 219.3 27.6 219.5 28.1 219.8 28.6 220 29.1 220.3 29.6 220.5 30.1 220.7 30.5 220.9 30.9 221.5 31.6 222.1 32.3 222.4 32.7 222.6 33.2 222.9 33.8 223.2 34.4 223.3 34.7 223.4 35 224.1 35.7 224.8 36.4 224.8 36.7 224.8 37 225.5 37.4 226.2 37.9 226.6 38.5 226.9 39.1 226.9 39.4 226.9 39.6 227.6 40 228.3 40.5 228.7 41.1 229 41.7 229.3 42.3 229.5 42.8 229.8 43.3 230 43.9 230.4 44.7 230.7 45.5 230.6 46.6 230.6 47.7 230.3 48.3 230 48.9 229.7 49.5 229.4 50 228.9 50.7 228.4 51.4 228.1 52.1 227.8 52.7 227.4 53.4 226.9 54.1 226.6 54.6 226.3 55.1 226.1 55.7 225.8 56.3 225.6 56.7 225.3 57.2 224.8 58 224.3 58.7 223.3 58.9 222.4 59.2 221.3 59.2 220.3 59.2 219 59.2 217.7 59.2 216.9 59.2 216.1 59.2 215.5 59.2 215 59.2 214.2 59.2 213.5 59.2 212.9 59.2 212.4 59.2 211.8 59.2 211.3 59.2 210.7 59.2 210.2 59.1 209.2 59.4 208.2 59.7 207.1 59.7 206.1 59.7 205.5 59.7 205 59.7 204.2 59.7 203.5 59.7 202.9 59.7 202.4 59.7 201.5 59.7 200.6 59.7 199.4 59.9 198.2 60.2 197.6 60.2 197.1 60.2 196.3 60.2 195.6 60.2 195.2 60.2 194.9 60.1 193.9 60.4 192.9 60.7 192.4 60.6 191.9 60.5 191.2 60.9 190.4 61.3 189.8 61.2 189.3 61.2 188.5 61.5 187.8 61.8 186.9 61.8 186.1 61.8 185.8 61.8 185.4 61.7 184.5 62 183.5 62.3 182.7 62.3 181.9 62.3 181.3 62.3 180.7 62.2 179.7 62.5 178.7 62.8 177.9 62.8 177.1 62.8 176.6 62.8 176.1 62.7 175 63.1 174 63.4 173.2 63.4 172.4 63.4 171.1 63.4 169.8 63.4 169 63.4 168.2 63.4 167.1 63.4 166.1 63.4 165.5 63.4 165 63.4 163.9 63.3 162.9 63.2 162.1 62.6 161.3 62 161.1 60.9 160.9 59.8 160.9 59.3 161 58.8 160.8 58.3 160.6 57.9 160.2 57 159.8 56.2 159.9 55.9 159.9 55.6 159.6 54.8 159.3 54.1 159.4 53.2 159.4 52.3 159.6 52.1 159.8 51.8 159.9 51 160 50.1 160.2 49.7 160.5 49.2 160.8 48.6 161 48 161.3 47.4 161.6 46.9 162.1 46.2 162.6 45.5 162.9 44.9 163.1 44.3 163.4 43.8 163.7 43.3 164 42.8 164.2 42.2 164.6 41.6 165 40.9 165.4 40.5 165.8 40 166.1 39.6 166.3 39.2 166.6 38.5 166.9 37.9 167.4 37.1 167.9 36.3 168.2 35.8 168.5 35.3 168.9 34.7 169.4 34 169.7 33.1 170 32.1 170.3 31.6 170.6 31.1 171.1 30.3 171.6 29.5 172.1 28.7 172.6 28 172.9 27.5 173.2 27 173.7 25.9 174.3 24.8 174.8 24.1 175.3 23.3 175.8 22.3 176.3 21.3 176.8 20.2 177.4 19.1 177.9 18 178.5 16.9 179 16.2 179.5 15.4 180 14.4 180.5 13.4 180.8 12.7 181.1 12.1 181.6 11.3 182.1 10.6 182.5 10 182.8 9.4 183.6 8.3 184.4 7.3 184.5 7.2 184.6 7 184.8 6.9 185 6.8 185.1 6.8 185.3 6.7 185.5 6.7 185.7 6.7 185.8 6.7 186 6.8 186.2 6.8 186.3 6.9 186.5 7 186.6 7.1 186.7 7.3 186.9 7.4 186.9 7.6 187 7.7 187 7.9 187.1 8.1 187.1 8.3 187.1 8.5 187 8.6 187 8.8 186.9 9 186.8 9.1 186.8 9.1 Z" fill="rgb(255, 255, 255, 1)"/>
  <path d="M 195.8 20.6 Q 195.8 20.6 195 21.9 194.2 23.2 193.7 24 193.1 24.8 192.5 25.4 191.8 26.1 191.7 26.4 191.6 26.7 191 27.6 190.4 28.5 190.2 29 190 29.4 189.8 29.9 189.5 30.4 189.3 30.9 189 31.5 188.7 32 188.4 32.6 188.2 33.1 187.9 33.6 187.3 34.3 186.7 35 186.5 35.3 186.3 35.7 186.4 35.9 186.4 36.2 185.9 37.4 185.3 38.5 185 38.9 184.8 39.4 184.1 40.1 183.5 40.8 183.4 41.1 183.2 41.4 183.1 41.3 182.9 41.2 183.2 41.1 183.5 41 183.7 41 184 40.9 185 40.9 186.1 40.9 187.9 40.9 189.8 40.9 190.3 40.7 190.8 40.5 191.8 40.4 192.8 40.4 193.1 40.2 193.4 40 195 39.9 196.6 39.8 197.1 39.8 197.7 39.8 198.4 39.8 199.2 39.8 199.7 39.8 200.3 39.8 201.1 39.8 201.9 39.8 203.1 40.1 204.4 40.5 205 40.4 205.7 40.4 206.1 40.7 206.6 40.9 206.8 40.9 206.9 40.9 207.1 41 207.3 41.1 207.4 41.2 207.6 41.3 207.7 41.4 207.8 41.5 207.9 41.7 208 41.9 208 42 208.1 42.2 208.1 42.4 208.1 42.6 208 42.8 208 42.9 207.9 43.1 207.8 43.3 207.7 43.4 207.6 43.5 207.4 43.6 207.3 43.7 207.1 43.8 206.9 43.9 206.8 43.9 206.6 43.9 205.5 43.1 204.5 42.3 204 41.9 203.5 41.4 202.8 40.4 202.2 39.5 201.7 38.7 201.1 37.9 200.9 37.4 200.6 36.8 200.1 36.4 199.7 36 199.3 35 198.9 33.9 198.5 33.7 198.1 33.5 197.7 32.7 197.3 31.9 197.1 31.4 196.8 31 196.6 30.4 196.3 29.8 196.1 29.4 195.8 29 195.5 28.3 195.2 27.7 195 27.2 194.7 26.7 194.2 25.2 193.7 23.6 193.6 23.4 193.5 23.2 193.5 22.9 193.5 22.7 193.6 22.4 193.7 22.2 193.8 22 193.9 21.8 194.1 21.7 194.3 21.5 194.6 21.5 194.8 21.4 195 21.4 195.3 21.4 195.5 21.5 195.7 21.6 195.9 21.8 196.1 21.9 196.2 22.1 196.4 22.3 196.4 22.6 196.5 22.8 196.5 23 196.4 23.3 196.3 23.5 196.2 23.7 196.1 23.9 195.9 24.1 195.7 24.2 195.5 24.3 195.2 24.4 195 24.4 194.8 24.4 194.5 24.3 194.3 24.2 194.1 24.1 193.9 23.9 193.8 23.8 193.6 23.5 193.5 23.3 193.5 23.1 193.5 22.8 193.5 22.6 193.6 22.4 193.7 22.2 193.8 21.9 194 21.8 194.2 21.6 194.4 21.5 194.6 21.4 194.9 21.4 195.1 21.4 195.4 21.5 195.6 21.5 195.8 21.7 196 21.8 196.2 22 196.3 22.2 196.3 22.2 196.3 22.2 196.9 23.8 197.4 25.5 197.7 26 197.9 26.5 198.2 27 198.4 27.4 198.7 28 199 28.6 199.3 29.1 199.5 29.6 199.8 30.2 200 30.7 200.1 31 200.2 31.3 200.9 32.1 201.7 32.9 201.8 33.4 201.9 34 202.5 34.7 203.2 35.4 203.4 35.8 203.6 36.3 204.2 37.1 204.8 37.9 205.1 38.6 205.5 39.2 206.1 39.7 206.7 40.3 206.6 40.6 206.6 40.9 206.8 40.9 206.9 40.9 207.1 41 207.3 41.1 207.4 41.2 207.6 41.3 207.7 41.4 207.8 41.5 207.9 41.7 208 41.9 208 42 208.1 42.2 208.1 42.4 208.1 42.6 208 42.8 208 42.9 207.9 43.1 207.8 43.3 207.7 43.4 207.6 43.5 207.4 43.6 207.3 43.7 207.1 43.8 206.9 43.9 206.8 43.9 206.6 43.9 206 43.6 205.5 43.4 204.6 43.4 203.6 43.3 202.7 43.1 201.9 42.8 201.1 42.8 200.3 42.8 199.7 42.8 199.2 42.8 198.4 42.8 197.7 42.8 197.1 42.8 196.6 42.8 195.6 42.7 194.6 42.6 193.8 43 193 43.4 192.4 43.4 191.7 43.3 190.8 43.6 189.8 43.9 187.9 43.9 186.1 43.9 185 43.9 184 43.9 183.1 43.8 182.3 43.8 181.6 43.2 180.8 42.6 180.7 41.4 180.5 40.2 180.9 39.5 181.3 38.8 181.7 38.4 182.2 38 182.4 37.5 182.7 36.9 183.1 36.4 183.5 36 183.6 35.2 183.7 34.3 184.1 33.7 184.5 33 184.9 32.6 185.3 32.2 185.5 31.7 185.8 31.2 186.1 30.7 186.3 30.1 186.6 29.7 186.8 29.2 187.1 28.6 187.3 28 187.6 27.4 187.9 26.9 188.4 26.2 188.9 25.5 189.3 24.7 189.7 23.9 190.2 23.6 190.6 23.2 191.1 22.4 191.6 21.6 192.4 20.3 193.2 19 193.3 18.9 193.4 18.7 193.6 18.6 193.7 18.5 193.9 18.4 194 18.4 194.2 18.3 194.4 18.3 194.6 18.3 194.8 18.3 194.9 18.4 195.1 18.4 195.3 18.5 195.4 18.6 195.5 18.8 195.7 18.9 195.8 19 195.9 19.2 195.9 19.4 196 19.5 196 19.7 196 19.9 195.9 20.1 195.9 20.3 195.8 20.4 195.8 20.6 195.8 20.6 Z" fill="rgb(255, 255, 255, 1)"/>
  <path d="M 190.2 7.4 Q 190.2 7.4 190.4 8.7 190.7 10 191.1 10.9 191.6 11.7 192.1 12.8 192.6 13.9 192.9 14.4 193.2 14.9 194.4 16.3 195.5 17.6 195.7 17.8 195.8 18 195.9 18.3 196 18.5 196 18.7 196 19 195.9 19.2 195.8 19.4 195.6 19.6 195.5 19.8 195.3 19.9 195.1 20.1 194.8 20.1 194.6 20.2 194.4 20.2 194.1 20.2 193.9 20.1 193.7 20 193.5 19.8 193.3 19.6 193.2 19.4 193.1 19.2 193 19 193 18.7 193 18.5 193.1 18.3 193.2 18 193.3 17.8 193.4 17.7 193.6 17.5 193.8 17.4 194 17.3 194.3 17.2 194.5 17.2 194.8 17.2 195 17.3 195.2 17.4 195.4 17.5 195.6 17.7 195.7 17.9 195.8 18.1 195.9 18.3 196 18.6 196 18.8 195.9 19.1 195.9 19.3 195.7 19.5 195.6 19.7 195.4 19.9 195.2 20 195 20.1 194.8 20.2 194.5 20.2 194.3 20.2 194 20.1 193.8 20 193.6 19.9 193.4 19.8 193.4 19.8 193.4 19.8 192 18 190.6 16.3 190.3 15.7 189.9 15.1 189.4 14.1 189 13.1 188.3 11.8 187.7 10.6 187.5 9.3 187.2 8 187.2 7.8 187.2 7.6 187.2 7.4 187.2 7.3 187.3 7.1 187.4 6.9 187.5 6.8 187.6 6.6 187.8 6.5 187.9 6.4 188.1 6.3 188.2 6.3 188.4 6.2 188.6 6.2 188.8 6.2 188.9 6.2 189.1 6.3 189.3 6.3 189.4 6.4 189.6 6.5 189.7 6.6 189.9 6.8 190 6.9 190 7.1 190.1 7.2 190.2 7.4 190.2 7.4 Z" fill="rgb(255, 255, 255, 1)"/>
  <path d="M 181.3 44 Q 181.3 44 180.6 44.7 179.8 45.5 179.6 45.9 179.5 46.3 178.8 47 178.1 47.7 177.7 48.2 177.2 48.6 177.1 49.5 177 50.3 176.2 51.1 175.5 51.9 175.4 52.2 175.3 52.5 175 53.1 174.7 53.7 173.9 54.2 173.2 54.6 173.2 54.9 173.2 55.1 172.9 55.7 172.6 56.3 172 57 171.4 57.6 170.7 59 170 60.4 169.9 60.6 169.8 60.8 169.6 61 169.4 61.1 169.2 61.2 168.9 61.3 168.7 61.3 168.5 61.3 168.2 61.2 168 61.1 167.8 61 167.6 60.8 167.5 60.6 167.3 60.4 167.3 60.2 167.2 60 167.2 59.7 167.2 59.5 167.3 59.3 167.4 59 167.5 58.8 167.7 58.7 167.9 58.5 168.1 58.4 168.4 58.4 168.6 58.3 168.8 58.3 169.1 58.4 169.3 58.5 169.5 58.6 169.7 58.7 169.9 58.9 170 59.1 170.1 59.3 170.1 59.6 170.2 59.8 170.1 60 170.1 60.3 170 60.5 169.9 60.7 169.7 60.9 169.5 61 169.3 61.1 169.1 61.2 168.9 61.3 168.6 61.3 168.4 61.2 168.1 61.2 167.9 61.1 167.7 60.9 167.6 60.8 167.4 60.6 167.3 60.4 167.2 60.1 167.2 59.9 167.2 59.6 167.3 59.4 167.3 59.2 167.3 59.2 167.3 59.2 168.3 57.4 169.2 55.6 169.6 55.2 170 54.9 170.2 54.4 170.5 53.9 171 53 171.6 52.2 171.9 52.1 172.3 52.1 172.5 51.7 172.6 51.3 173 50.5 173.4 49.7 173.8 49.5 174.2 49.3 174.6 48 174.9 46.8 175.5 46.1 176.1 45.5 176.5 45.2 176.8 44.9 177.2 44.2 177.6 43.5 178.4 42.7 179.2 41.8 179.4 41.7 179.5 41.6 179.7 41.5 179.8 41.5 180 41.4 180.2 41.4 180.4 41.4 180.6 41.4 180.7 41.5 180.9 41.5 181.1 41.6 181.2 41.7 181.3 41.8 181.5 42 181.6 42.1 181.7 42.3 181.7 42.5 181.8 42.6 181.8 42.8 181.8 43 181.7 43.2 181.7 43.3 181.6 43.5 181.6 43.7 181.5 43.8 181.3 44 181.3 44 Z" fill="rgb(255, 255, 255, 1)"/>
  <path d="M 207.7 42.6 Q 207.7 42.6 208.8 43.1 209.8 43.6 210.4 44 211 44.3 211.5 44.5 212 44.8 212.5 45 213 45.3 213.8 45.9 214.5 46.6 214.8 46.7 215.2 46.9 215.7 47.1 216.2 47.3 216.7 47.6 217.3 47.9 217.8 48.2 218.4 48.5 219.1 49.1 219.7 49.7 220.3 50.3 220.8 50.8 222 52.3 223.2 53.8 223.3 54 223.4 54.2 223.4 54.5 223.4 54.7 223.3 55 223.2 55.2 223.1 55.4 222.9 55.6 222.7 55.7 222.5 55.9 222.3 55.9 222.1 56 221.8 56 221.6 56 221.4 55.9 221.1 55.8 220.9 55.6 220.8 55.5 220.6 55.3 220.5 55.1 220.4 54.8 220.4 54.6 220.4 54.4 220.4 54.1 220.5 53.9 220.6 53.7 220.8 53.5 221 53.3 221.2 53.2 221.4 53.1 221.6 53 221.9 53 222.1 53 222.3 53.1 222.6 53.2 222.8 53.3 222.9 53.5 223.1 53.6 223.2 53.9 223.3 54.1 223.4 54.3 223.4 54.6 223.3 54.8 223.3 55 223.2 55.2 223 55.5 222.9 55.6 222.7 55.8 222.4 55.9 222.2 56 222 56 221.7 56 221.5 55.9 221.3 55.9 221.1 55.7 220.9 55.6 220.7 55.4 220.6 55.2 220.6 55.2 220.6 55.2 219.7 54.1 218.7 53 218.2 52.4 217.6 51.9 217.3 51.5 217 51.1 216.4 50.8 215.9 50.5 215.4 50.3 215 50.1 214.4 49.8 213.8 49.5 213.1 49.2 212.4 48.8 212.1 48.4 211.7 47.9 211.2 47.7 210.6 47.4 210.1 47.2 209.6 46.9 209.1 46.6 208.5 46.4 207.5 45.9 206.4 45.4 206.3 45.3 206.1 45.2 206 45 205.9 44.9 205.8 44.7 205.7 44.6 205.7 44.4 205.6 44.2 205.6 44.1 205.6 43.9 205.6 43.7 205.7 43.5 205.7 43.4 205.8 43.2 205.9 43.1 206 42.9 206.2 42.8 206.3 42.7 206.5 42.6 206.7 42.6 206.8 42.5 207 42.5 207.2 42.5 207.4 42.5 207.6 42.6 207.7 42.6 207.7 42.6 Z" fill="rgb(255, 255, 255, 1)"/>
  <path d="M 103.2 25.8 Q 103.2 25.8 104 24.5 104.8 23.2 105.4 22.4 105.9 21.5 106.7 21 107.6 20.5 108 20.3 108.4 20 109.2 19.5 110 19 110.6 18.7 111.3 18.4 111.7 18.2 112.1 17.9 112.7 17.6 113.4 17.3 114.2 17.1 115.1 16.8 115.7 16.3 116.4 15.8 117.2 15.7 118.1 15.6 118.3 15.4 118.6 15.2 119.4 15.2 120.3 15.1 121.3 15.1 122.4 15.1 122.9 15.1 123.4 15.1 123.6 14.9 123.9 14.7 124.7 14.7 125.6 14.6 126.9 14.6 128.2 14.6 129 14.6 129.8 14.6 131.1 14.6 132.4 14.6 133.2 14.6 134 14.6 134.8 14.6 135.6 14.6 136.9 14.6 138.2 14.6 139.2 14.6 140.3 14.6 141.4 14.6 142.4 14.6 143.3 14.9 144.1 15.3 144.8 16 145.6 16.7 145.9 16.8 146.2 16.9 146.9 17.5 147.6 18.1 148.8 19.4 150 20.6 150.1 20.8 150.3 20.9 150.5 21.1 150.6 21.3 150.6 21.6 150.7 21.8 150.7 22.1 150.6 22.3 150.5 22.5 150.4 22.7 150.3 22.9 150.1 23.1 149.9 23.2 149.7 23.3 149.4 23.4 149.2 23.4 148.9 23.4 148.7 23.3 148.5 23.2 148.3 23.1 148.1 22.9 147.9 22.7 147.8 22.5 147.7 22.3 147.7 22.1 147.7 21.8 147.7 21.6 147.8 21.3 147.9 21.1 148 20.9 148.2 20.8 148.4 20.6 148.6 20.5 148.9 20.4 149.1 20.4 149.3 20.4 149.6 20.5 149.8 20.5 150 20.7 150.2 20.8 150.4 21 150.5 21.2 150.6 21.4 150.7 21.7 150.7 21.9 150.7 22.1 150.6 22.4 150.5 22.6 150.4 22.8 150.2 23 150 23.1 149.8 23.3 149.6 23.3 149.3 23.4 149.1 23.4 148.9 23.4 148.6 23.3 148.4 23.2 148.4 23.2 148.4 23.2 147 21.7 145.5 20.3 145.2 19.9 144.9 19.5 144.2 19.1 143.4 18.7 143.1 18.3 142.8 17.9 142.6 17.8 142.3 17.6 141.3 17.6 140.3 17.6 139.2 17.6 138.2 17.6 136.9 17.6 135.6 17.6 134.8 17.6 134 17.6 133.2 17.6 132.4 17.6 131.1 17.6 129.8 17.6 129 17.6 128.2 17.6 126.9 17.6 125.6 17.6 125.3 17.5 125.1 17.5 124.3 17.8 123.6 18.1 123 18.1 122.4 18.1 121.3 18.1 120.3 18.1 120 18 119.8 18 119 18.3 118.3 18.6 118 18.5 117.8 18.4 116.9 19 116.1 19.6 115.3 19.8 114.6 20.1 114.1 20.3 113.7 20.5 113.1 20.8 112.5 21.2 112 21.4 111.6 21.6 110.8 22.1 110 22.6 109.4 22.9 108.8 23.3 108.5 23.3 108.2 23.3 107.8 24 107.4 24.8 106.6 26.1 105.8 27.4 105.6 27.5 105.5 27.7 105.4 27.8 105.3 27.9 105.1 28 104.9 28 104.7 28.1 104.6 28.1 104.4 28.1 104.2 28.1 104 28 103.9 28 103.7 27.9 103.5 27.8 103.4 27.6 103.3 27.5 103.2 27.4 103.1 27.2 103.1 27 103 26.9 103 26.7 103 26.5 103 26.3 103.1 26.1 103.1 26 103.2 25.8 103.2 25.8 Z" fill="rgb(255, 255, 255, 1)"/>
  <path d="M 143.7 22.5 Q 143.7 22.5 145.5 22.8 147.3 23 148.2 23.3 149.1 23.6 149.5 23.5 149.8 23.5 151 23.8 152.3 24.2 153.1 24.4 153.9 24.7 154.7 24.9 155.4 25.2 155.8 25.1 156.2 25.1 157 25.4 157.8 25.8 158.3 26.1 158.9 26.4 159 26.5 159.2 26.6 159.3 26.7 159.4 26.8 159.5 27 159.6 27.1 159.6 27.3 159.7 27.5 159.7 27.7 159.7 27.9 159.6 28 159.6 28.2 159.5 28.4 159.4 28.5 159.3 28.7 159.2 28.8 159.1 28.9 158.9 29 158.7 29.1 158.6 29.1 158.4 29.2 158.2 29.2 158 29.2 157.9 29.2 157.7 29.1 157.5 29 157.1 27.6 156.7 26.1 156.7 25.5 156.7 25 156.7 24.2 156.7 23.4 156.7 22.1 156.7 20.8 156.7 20 156.7 19.2 156.7 18.1 156.7 17.1 156.2 15.6 155.8 14.1 155.7 13.9 155.6 13.7 155.6 13.4 155.6 13.2 155.7 12.9 155.8 12.7 155.9 12.5 156 12.3 156.2 12.2 156.4 12 156.7 12 156.9 11.9 157.1 11.9 157.4 11.9 157.6 12 157.8 12.1 158 12.3 158.2 12.4 158.3 12.6 158.5 12.8 158.5 13.1 158.6 13.3 158.6 13.5 158.5 13.8 158.4 14 158.3 14.2 158.2 14.4 158 14.6 157.8 14.7 157.6 14.8 157.3 14.9 157.1 14.9 156.9 14.9 156.6 14.8 156.4 14.7 156.2 14.6 156 14.4 155.9 14.3 155.7 14 155.6 13.8 155.6 13.6 155.6 13.3 155.6 13.1 155.7 12.9 155.8 12.7 155.9 12.4 156.1 12.3 156.3 12.1 156.5 12 156.7 11.9 157 11.9 157.2 11.9 157.5 12 157.7 12 157.9 12.2 158.1 12.3 158.3 12.5 158.4 12.7 158.4 12.7 158.4 12.7 159 14.9 159.7 17.1 159.7 18.1 159.7 19.2 159.7 20 159.7 20.8 159.7 22.1 159.7 23.4 159.7 24.2 159.7 25 159.7 25.5 159.7 26.1 159.3 26.2 158.9 26.4 159 26.5 159.2 26.6 159.3 26.7 159.4 26.8 159.5 27 159.6 27.1 159.6 27.3 159.7 27.5 159.7 27.7 159.7 27.9 159.6 28 159.6 28.2 159.5 28.4 159.4 28.5 159.3 28.7 159.2 28.8 159.1 28.9 158.9 29 158.7 29.1 158.6 29.1 158.4 29.2 158.2 29.2 158 29.2 157.9 29.2 157.7 29.1 157.5 29 157 28.7 156.4 28.4 156.2 28.3 156 28.1 155.3 28.1 154.5 28 153.8 27.8 153 27.5 152.3 27.3 151.5 27 150.6 26.8 149.8 26.5 149 26.5 148.3 26.4 147.6 26.2 146.9 26 145.1 25.7 143.3 25.5 143.1 25.4 142.9 25.4 142.8 25.3 142.6 25.2 142.5 25.1 142.3 25 142.2 24.8 142.1 24.7 142.1 24.5 142 24.3 142 24.2 142 24 142 23.8 142 23.6 142.1 23.4 142.2 23.3 142.3 23.1 142.4 23 142.5 22.9 142.7 22.8 142.8 22.7 143 22.6 143.2 22.5 143.3 22.5 143.5 22.5 143.7 22.5 143.7 22.5 Z" fill="rgb(255, 255, 255, 1)"/>
  <path d="M 154.7 55.9 Q 154.7 55.9 153.9 57 153.1 58 152.5 58.8 151.9 59.6 151.2 60.1 150.5 60.5 149.7 61 149 61.5 148.6 62 148.1 62.4 146.7 63.3 145.3 64.2 144.3 64.5 143.4 64.8 143 65.2 142.6 65.7 141.5 65.8 140.3 66 140.1 66.2 139.8 66.4 139.4 66.6 138.9 66.9 138 67.2 137 67.5 136.2 67.8 135.4 68 135 68.2 134.6 68.5 133.5 68.5 132.4 68.6 131.5 68.9 130.7 69.1 129.6 69.4 128.5 69.7 127.8 69.9 127 70.1 126 70.2 125 70.2 124.5 70.4 123.9 70.6 122.9 70.7 121.9 70.7 120.8 70.7 119.8 70.7 119 70.7 118.2 70.7 117.1 70.7 116.1 70.7 115.1 70.4 114 70.1 113.2 69.9 112.4 69.6 111.4 69.4 110.4 69.2 109.5 68.8 108.7 68.5 107.9 68.3 107.2 68 105.5 67.2 103.8 66.3 103.6 66.2 103.4 66 103.2 65.8 103.1 65.6 103.1 65.4 103 65.1 103 64.9 103 64.7 103.1 64.4 103.2 64.2 103.4 64 103.5 63.8 103.7 63.7 103.9 63.6 104.2 63.6 104.4 63.5 104.7 63.5 104.9 63.6 105.1 63.7 105.3 63.8 105.5 63.9 105.7 64.1 105.8 64.3 105.9 64.5 105.9 64.8 106 65 105.9 65.3 105.9 65.5 105.8 65.7 105.7 65.9 105.5 66.1 105.3 66.3 105.1 66.4 104.9 66.5 104.6 66.5 104.4 66.5 104.1 66.4 103.9 66.4 103.7 66.3 103.5 66.1 103.3 65.9 103.2 65.8 103.1 65.5 103 65.3 103 65.1 103 64.8 103.1 64.6 103.1 64.4 103.3 64.2 103.4 64 103.6 63.8 103.8 63.7 104 63.6 104.3 63.5 104.5 63.5 104.7 63.5 105 63.6 105.2 63.7 105.2 63.7 105.2 63.7 106.7 64.4 108.2 65.2 108.9 65.4 109.7 65.7 110.4 66 111.1 66.2 112.2 66.5 113.3 66.8 114.1 67 114.9 67.3 115.5 67.5 116.1 67.7 117.1 67.7 118.2 67.7 119 67.7 119.8 67.7 120.8 67.7 121.9 67.7 122.5 67.7 123 67.8 124 67.5 125 67.2 125.6 67.2 126.2 67.3 127 67 127.8 66.7 128.9 66.5 129.9 66.3 131.1 65.9 132.4 65.6 132.9 65.7 133.4 65.7 134 65.5 134.5 65.2 135.3 64.9 136.1 64.7 136.8 64.5 137.4 64.3 138 64 138.6 63.6 139.4 63.3 140.2 63 140.7 63.2 141.1 63.3 141.7 62.7 142.3 62 143 61.8 143.7 61.6 144.9 60.9 146.1 60.2 146.7 59.6 147.3 59.1 148.2 58.5 149.1 57.9 149.4 57.8 149.6 57.8 150.2 57 150.7 56.2 151.5 55.1 152.3 54.1 152.4 54 152.5 53.8 152.7 53.7 152.9 53.6 153 53.6 153.2 53.5 153.4 53.5 153.6 53.5 153.7 53.5 153.9 53.6 154.1 53.6 154.2 53.7 154.4 53.8 154.5 53.9 154.6 54.1 154.8 54.2 154.8 54.4 154.9 54.5 154.9 54.7 155 54.9 155 55.1 155 55.3 154.9 55.4 154.9 55.6 154.8 55.8 154.7 55.9 154.7 55.9 Z" fill="rgb(255, 255, 255, 1)"/>
  <path d="M 102.5 77.6 Q 102.5 77.6 102 76.3 101.5 75 101.3 74.2 101 73.4 100.8 73 100.5 72.7 100 71.8 99.5 71 99.4 70.2 99.4 69.4 98.9 68.9 98.4 68.4 98.3 67.5 98.2 66.6 98 66 97.8 65.4 97.9 64 98 62.7 98.5 62.4 99 62.2 99.6 61.9 100.2 61.6 101.3 61.5 102.4 61.4 103.3 61.2 104.2 60.9 104.5 60.7 104.9 60.5 106.3 60.5 107.6 60.4 108.5 60.2 109.4 59.9 111.1 59.4 112.7 59 113 58.9 113.2 58.8 113.5 58.8 113.7 58.8 113.9 58.9 114.1 59 114.3 59.1 114.5 59.3 114.7 59.5 114.8 59.7 114.9 59.9 114.9 60.2 114.9 60.4 114.9 60.7 114.8 60.9 114.7 61.1 114.5 61.3 114.4 61.5 114.1 61.6 113.9 61.7 113.7 61.7 113.5 61.8 113.2 61.8 113 61.7 112.8 61.6 112.5 61.5 112.4 61.3 112.2 61.2 112.1 61 112 60.7 111.9 60.5 111.9 60.3 112 60 112 59.8 112.1 59.6 112.2 59.4 112.4 59.2 112.6 59 112.8 58.9 113 58.8 113.3 58.8 113.5 58.8 113.8 58.9 114 58.9 114.2 59 114.4 59.2 114.6 59.4 114.7 59.6 114.8 59.8 114.9 60 114.9 60.3 114.9 60.5 114.8 60.7 114.8 61 114.6 61.2 114.5 61.4 114.3 61.5 114.1 61.6 114.1 61.6 114.1 61.6 112.1 62.2 110.1 62.8 108.9 63.1 107.6 63.4 106.9 63.3 106.1 63.3 105.5 63.6 104.9 63.9 103.6 64.1 102.4 64.4 101.9 64.3 101.4 64.2 100.9 64.5 100.4 64.8 99.9 65.1 99.4 65.3 100 64.9 100.6 64.5 100.9 65.6 101.2 66.6 101.1 66.8 101 67 101.6 68 102.3 69 102.2 69.3 102.1 69.6 102.6 70.4 103.1 71.1 103.5 71.8 103.8 72.4 104.1 73.2 104.3 74 104.8 75.3 105.3 76.6 105.4 76.7 105.4 76.9 105.4 77.1 105.4 77.3 105.4 77.4 105.3 77.6 105.2 77.8 105.2 77.9 105 78.1 104.9 78.2 104.8 78.3 104.6 78.4 104.5 78.5 104.3 78.5 104.1 78.6 103.9 78.6 103.7 78.6 103.6 78.6 103.4 78.5 103.2 78.4 103.1 78.3 102.9 78.2 102.8 78.1 102.7 78 102.6 77.8 102.5 77.6 102.5 77.6 Z" fill="rgb(255, 255, 255, 1)"/>
  <path d="M 29.8 21 Q 29.8 21 31.1 20.5 32.4 20 33.4 19.9 34.5 19.9 35 19.6 35.6 19.4 36.9 19.3 38.2 19.3 39.1 19.1 40 18.8 41.7 18.8 43.4 18.8 44.3 18.6 45.2 18.3 46.5 18.1 47.9 17.8 49.4 17.8 50.8 17.8 51.6 17.5 52.5 17.2 54 17.2 55.5 17.2 56.4 17 57.3 16.7 58.5 16.7 59.8 16.7 60.8 16.7 61.9 16.7 62.6 16.7 63.4 16.7 63.9 16.7 64.4 16.7 64.7 16.5 64.9 16.3 65.7 16.3 66.5 16.2 66.7 16 66.8 15.8 67.8 15.5 68.8 15.2 69.2 14.9 69.7 14.7 70.8 14.6 71.9 14.6 72.4 14.4 72.9 14.2 74 14.1 75 14.1 75.5 13.8 76.1 13.6 76.9 13.3 77.8 13 78.8 13 79.8 13 80.5 13 81.3 13 81.9 12.8 82.5 12.5 83.2 12.5 83.9 12.5 84.2 12.3 84.4 12.1 85.2 12.1 86.1 12 86.8 12 87.6 12 88.1 12 88.7 12 88.9 12 89.1 12 89.2 12.1 89.4 12.2 89.5 12.3 89.7 12.4 89.8 12.5 89.9 12.6 90 12.8 90.1 13 90.1 13.1 90.2 13.3 90.2 13.5 90.2 13.7 90.1 13.8 90.1 14 90 14.2 89.9 14.3 89.8 14.5 89.7 14.6 89.5 14.7 89.4 14.8 89.2 14.9 89.1 14.9 88.9 15 88.7 15 88.5 15.1 88.4 15.2 88.4 15.4 88.4 15.7 87.8 16.4 87.2 17.1 86.6 17.6 86 18.2 85.6 18.7 85.1 19.2 85 19.7 84.8 20.3 84.2 21.2 83.7 22.2 83.5 22.8 83.3 23.3 83.4 23.9 83.4 24.5 83 25.6 82.7 26.6 82.5 27.4 82.2 28.1 82 28.9 81.7 29.7 81.8 30.3 81.8 30.8 81.5 31.8 81.2 32.8 80.9 33.7 80.6 34.5 80.7 35.3 80.7 36.1 80.7 36.9 80.7 37.8 80.4 38.5 80.1 39.3 80.1 39.5 80.2 39.8 80.2 40.6 80.2 41.4 80.2 42.2 80.2 42.9 79.9 43.7 79.6 44.5 79.6 45.1 79.7 45.6 79.7 46.3 79.7 47.1 79.7 47.7 79.7 48.3 79.3 49.1 78.9 49.9 79 50.4 79.1 50.8 78.4 51.9 77.7 53 76.6 53.2 75.5 53.4 74.6 53.6 73.7 53.8 72.4 54.1 71.1 54.4 70.1 54.4 69.2 54.4 68.4 54.7 67.5 54.9 66.5 55 65.5 55 64.3 55.2 63.2 55.5 61.5 55.5 59.8 55.5 58.7 55.5 57.6 55.5 56.9 55.5 56.1 55.5 55.2 55.7 54.3 55.9 53.1 56 51.9 56 51.1 56 50.3 56 49.5 56 48.7 56 47.8 56.2 46.9 56.4 46 56.5 45 56.5 44.2 56.5 43.4 56.5 42.6 56.8 41.7 57 40.7 57.1 39.8 57.1 39.3 57.1 38.8 57.1 38.5 57.3 38.2 57.5 36.8 57.5 35.5 57.6 35 57.8 34.5 58 33.4 58 32.4 58.1 31.6 58.1 30.9 58.1 30.7 58.2 30.5 58.4 29.9 58.7 29.4 59 27.8 58.9 26.2 58.8 26 58.2 25.7 57.6 25.7 56.6 25.6 55.6 25.6 55 25.6 54.5 25.6 53.7 25.6 52.9 25.6 51.8 25.6 50.8 25.6 50 25.6 49.3 25.6 48.7 25.6 48.2 25.6 47.4 25.6 46.6 25.9 45.6 26.2 44.6 26.1 44 26.1 43.5 26.1 42.7 26.1 41.9 26.4 40.8 26.8 39.8 26.7 39.2 26.7 38.7 26.7 37.6 26.7 36.6 26.7 35.8 26.7 35 27 34 27.3 33 27.2 32.7 27.2 32.4 27.2 31.5 27.2 30.7 27.5 29.9 27.8 29.2 27.8 28.9 27.7 28.6 28.1 27.8 28.5 27 28.4 26.8 28.3 26.5 28.6 25.7 29 24.9 29.8 23.3 30.6 21.7 30.7 21.5 30.9 21.3 31.1 21.1 31.3 21 31.5 21 31.8 20.9 32 20.9 32.2 20.9 32.5 21 32.7 21.1 32.9 21.3 33.1 21.4 33.2 21.6 33.3 21.8 33.3 22.1 33.4 22.3 33.4 22.6 33.3 22.8 33.2 23 33.1 23.2 33 23.4 32.8 23.6 32.6 23.7 32.4 23.8 32.1 23.8 31.9 23.9 31.6 23.8 31.4 23.8 31.2 23.7 31 23.6 30.8 23.4 30.6 23.2 30.5 23 30.4 22.8 30.4 22.5 30.4 22.3 30.5 22 30.5 21.8 30.6 21.6 30.8 21.4 31 21.2 31.1 21.1 31.4 21 31.6 20.9 31.8 20.9 32.1 20.9 32.3 21 32.5 21 32.7 21.2 32.9 21.3 33.1 21.5 33.2 21.7 33.3 21.9 33.4 22.2 33.4 22.4 33.4 22.6 33.3 22.9 33.2 23.1 33.2 23.1 33.2 23.1 32.4 24.7 31.6 26.3 31.5 26.5 31.3 26.7 31.2 27.5 31.1 28.3 30.9 28.6 30.7 28.8 30.6 29.6 30.6 30.4 30.4 30.6 30.2 30.9 30.2 31.6 30.2 32.4 30.2 33.2 30.1 33.9 29.9 34.5 29.7 35 29.7 35.8 29.7 36.6 29.7 37.6 29.7 38.7 29.7 39.7 29.6 40.8 29.4 41.3 29.1 41.9 29.1 42.7 29.1 43.5 29.1 44.4 29 45.4 28.8 46 28.6 46.6 28.6 47.4 28.6 48.2 28.6 48.7 28.6 49.3 28.6 50 28.6 50.8 28.6 51.8 28.6 52.9 28.6 53.7 28.6 54.5 28.6 55 28.6 55.6 28.5 56.1 28.5 56.5 28.7 57 29 57.6 28.5 57 28 56.4 28.6 56.1 29.1 55.7 29.9 55.4 30.7 55.1 31.6 55.1 32.4 55.1 33 55.1 33.6 55.2 34.5 54.9 35.5 54.6 36.3 54.6 37 54.7 37.8 54.4 38.6 54.1 39.2 54.1 39.8 54.1 40.4 54.1 40.9 54.1 42.1 53.8 43.4 53.5 44.2 53.5 45 53.5 45.6 53.5 46.3 53.5 47.5 53.3 48.7 53 49.5 53 50.3 53 51.1 53 51.9 53 52.8 53 53.7 53 54.9 52.8 56.1 52.5 56.8 52.5 57.6 52.5 58.7 52.5 59.8 52.5 61.2 52.5 62.6 52.5 64.1 52.2 65.5 52 66.1 52 66.7 52 67.9 51.7 69.2 51.4 69.9 51.4 70.5 51.4 71.8 51.2 73.1 50.9 74.3 50.7 75.5 50.4 76 50.6 76.5 50.7 76.3 50.7 76.1 50.7 76.2 49.7 76.3 48.7 76.5 48.4 76.7 48.1 76.7 47.6 76.7 47.1 76.7 46.3 76.7 45.6 76.8 44.5 76.8 43.4 77 43.1 77.2 42.8 77.2 42.1 77.2 41.4 77.2 40.6 77.2 39.8 77.3 38.9 77.3 38.1 77.5 37.8 77.7 37.6 77.7 36.8 77.7 36.1 77.7 34.8 77.8 33.5 78.1 32.7 78.4 31.9 78.6 31.4 78.8 30.8 78.8 29.8 78.9 28.9 79.1 28 79.4 27.2 79.6 26.4 79.9 25.6 80.2 25 80.4 24.5 80.4 23.4 80.5 22.4 80.8 21.5 81.1 20.6 81.6 19.9 82 19.3 82.4 18.2 82.9 17.2 83.4 16.6 84 16 84.5 15.5 85 15.1 85.4 14.7 85.8 14.3 86.3 13.5 86.8 12.8 87.8 12.4 88.7 12 88.9 12 89.1 12 89.2 12.1 89.4 12.2 89.5 12.3 89.7 12.4 89.8 12.5 89.9 12.6 90 12.8 90.1 13 90.1 13.1 90.2 13.3 90.2 13.5 90.2 13.7 90.1 13.8 90.1 14 90 14.2 89.9 14.3 89.8 14.5 89.7 14.6 89.5 14.7 89.4 14.8 89.2 14.9 89.1 14.9 88.9 15 88.7 15 88.1 15 87.6 15 86.8 15 86.1 15 85.8 14.9 85.6 14.8 84.8 15.2 84.1 15.5 83.7 15.4 83.3 15.4 82.3 15.7 81.3 16 80.6 16 79.8 16 79.2 16 78.6 15.9 77.9 16.2 77.1 16.4 76.1 16.7 75 17.1 74.4 17 73.8 17 72.9 17.3 71.9 17.6 71.4 17.5 70.9 17.5 70.3 17.7 69.6 18 69 18.2 68.4 18.4 67.5 18.8 66.7 19.2 66.4 19.1 66.1 19 65.3 19.4 64.6 19.7 64 19.7 63.4 19.7 62.6 19.7 61.9 19.7 60.8 19.7 59.8 19.7 58.9 19.7 57.9 19.6 56.7 19.9 55.5 20.2 54.4 20.2 53.3 20.1 52.1 20.5 50.8 20.8 49.6 20.8 48.5 20.8 47.2 21 45.8 21.2 44.6 21.5 43.4 21.8 42 21.8 40.6 21.7 39.4 22 38.2 22.3 37.4 22.2 36.6 22.2 35.6 22.5 34.5 22.9 34 22.8 33.4 22.8 32.1 23.3 30.8 23.8 30.7 23.8 30.5 23.9 30.3 23.9 30.1 23.9 30 23.8 29.8 23.8 29.6 23.7 29.5 23.6 29.3 23.5 29.2 23.4 29.1 23.2 29 23.1 28.9 22.9 28.8 22.7 28.8 22.6 28.8 22.4 28.8 22.2 28.8 22 28.9 21.9 29 21.7 29.1 21.5 29.2 21.4 29.3 21.3 29.4 21.2 29.6 21.1 29.8 21 29.8 21 Z" fill="rgb(255, 255, 255, 1)"/>
  <path d="M 26.7 58.5 Q 26.7 58.5 25.3 59 24 59.5 23.7 59.9 23.5 60.3 22.7 60.7 21.9 61.1 21.4 61.4 21 61.6 20.4 61.9 19.8 62.2 18.7 62.5 17.5 62.8 17.1 63 16.8 63.2 15.7 63.7 14.6 64.2 13.6 64.8 12.6 65.3 12 65.6 11.4 65.8 10.9 66.1 10.5 66.3 9.9 66.6 9.4 66.9 8.8 67.2 8.2 67.4 7.6 67.9 6.9 68.3 6.3 68.7 5.7 69 5.2 69.3 4.7 69.5 4.6 69.6 4.4 69.6 4.2 69.7 4 69.7 3.8 69.7 3.7 69.6 3.5 69.6 3.3 69.5 3.2 69.4 3 69.3 2.9 69.2 2.8 69.1 2.7 68.9 2.6 68.7 2.6 68.6 2.5 68.4 2.5 68.2 2.5 68 2.5 67.9 2.6 67.7 2.7 67.5 2.8 67.4 2.9 67.2 3 67.1 3.1 67 3.3 66.9 4.4 66.8 5.5 66.7 6 66.7 6.6 66.7 7.6 66.7 8.7 66.7 9.2 66.7 9.8 66.7 10.5 66.7 11.3 66.7 12.6 66.7 14 66.7 14.8 66.7 15.5 66.7 16.5 66.7 17.6 66.7 18.4 66.7 19.2 66.7 20 66.7 20.8 66.7 21.8 66.7 22.9 66.7 23.7 66.7 24.5 66.7 25.3 66.7 26.1 66.7 26.8 66.7 27.6 66.7 28.7 66.7 29.8 66.7 30.5 66.7 31.3 66.7 32.1 66.7 32.9 66.7 33.7 66.7 34.5 66.7 35.3 66.7 36.1 66.7 37.1 66.7 38.2 66.7 39 66.7 39.8 66.7 40.5 66.7 41.3 66.7 42.1 66.7 42.9 66.7 43.4 66.7 44 66.7 45 66.7 46.1 66.7 47.1 66.7 48.2 66.7 49 66.7 49.8 66.7 50.3 66.5 50.8 66.3 51.9 66.2 52.9 66.2 53.4 66.2 54 66.2 55.3 66.2 56.6 66.2 57.6 66.2 58.7 66.2 59.4 66.2 60.2 66.2 60.4 66 60.6 65.8 61.8 65.7 62.9 65.6 63.4 65.6 63.9 65.6 64.2 65.4 64.4 65.2 65.2 65.2 66.1 65.1 66.8 65.1 67.6 65.1 68.1 65.1 68.6 65.1 68.7 65.3 68.7 65.5 68.5 65.2 68.3 64.8 68.9 63.7 69.6 62.7 69.7 62.2 69.9 61.8 70.3 61.2 70.6 60.6 70.8 60 71 59.3 71.5 58.4 72.1 57.4 72.4 56.7 72.6 56 73.3 55.3 73.9 54.6 74 54.1 74.1 53.5 74.4 52.8 74.8 52.2 75.5 50.6 76.3 49.1 76.4 48.9 76.5 48.7 76.7 48.6 76.9 48.4 77.2 48.4 77.4 48.3 77.6 48.3 77.9 48.3 78.1 48.4 78.3 48.5 78.5 48.6 78.7 48.8 78.8 49 79 49.2 79 49.4 79.1 49.7 79.1 49.9 79.1 50.2 79 50.4 78.9 50.6 78.7 50.8 78.5 51 78.3 51.1 78.1 51.2 77.9 51.2 77.6 51.3 77.4 51.3 77.2 51.2 76.9 51.1 76.7 51 76.5 50.8 76.4 50.7 76.3 50.4 76.2 50.2 76.1 50 76.1 49.7 76.1 49.5 76.2 49.3 76.3 49.1 76.4 48.8 76.6 48.7 76.8 48.5 77 48.4 77.2 48.3 77.5 48.3 77.7 48.3 78 48.3 78.2 48.4 78.4 48.5 78.6 48.7 78.8 48.9 78.9 49.1 79 49.3 79.1 49.5 79.1 49.7 79.1 50 79 50.2 78.9 50.5 78.9 50.5 78.9 50.5 78.2 52 77.4 53.6 77.2 54 76.9 54.4 76.5 55.5 76.1 56.6 75.7 56.9 75.4 57.2 75 58.1 74.7 59 74.3 59.6 73.8 60.2 73.5 61.2 73.2 62.1 72.9 62.6 72.7 63 72.4 63.7 72 64.3 71.7 64.7 71.3 65.1 71.1 65.9 70.9 66.6 69.8 67.4 68.8 68.1 68.2 68.1 67.6 68.1 66.8 68.1 66.1 68.1 65.8 68 65.6 67.9 64.8 68.3 64.1 68.6 63.5 68.6 62.9 68.6 62.4 68.5 62 68.4 61.2 68.8 60.4 69.2 59.6 69.2 58.7 69.2 57.6 69.2 56.6 69.2 55.3 69.2 54 69.2 53.4 69.2 52.9 69.2 52.3 69.1 51.7 69.1 50.8 69.4 49.8 69.7 49 69.7 48.2 69.7 47.1 69.7 46.1 69.7 45 69.7 44 69.7 43.4 69.7 42.9 69.7 42.1 69.7 41.3 69.7 40.5 69.7 39.8 69.7 39 69.7 38.2 69.7 37.1 69.7 36.1 69.7 35.3 69.7 34.5 69.7 33.7 69.7 32.9 69.7 32.1 69.7 31.3 69.7 30.5 69.7 29.8 69.7 28.7 69.7 27.6 69.7 26.8 69.7 26.1 69.7 25.3 69.7 24.5 69.7 23.7 69.7 22.9 69.7 21.8 69.7 20.8 69.7 20 69.7 19.2 69.7 18.4 69.7 17.6 69.7 16.5 69.7 15.5 69.7 14.8 69.7 14 69.7 12.6 69.7 11.3 69.7 10.5 69.7 9.8 69.7 9.2 69.7 8.7 69.7 7.6 69.7 6.6 69.7 6 69.7 5.5 69.7 5.1 69.6 4.7 69.5 4.6 69.6 4.4 69.6 4.2 69.7 4 69.7 3.8 69.7 3.7 69.6 3.5 69.6 3.3 69.5 3.2 69.4 3 69.3 2.9 69.2 2.8 69.1 2.7 68.9 2.6 68.7 2.6 68.6 2.5 68.4 2.5 68.2 2.5 68 2.5 67.9 2.6 67.7 2.7 67.5 2.8 67.4 2.9 67.2 3 67.1 3.1 67 3.3 66.9 3.8 66.6 4.3 66.4 4.8 66.1 5.3 65.8 6.1 65.3 7 64.7 7.5 64.5 8 64.3 8.6 64 9.1 63.6 9.7 63.4 10.2 63.1 10.7 62.9 11.2 62.7 12.3 62.1 13.4 61.5 14.4 61 15.4 60.5 16.1 60.2 16.7 59.9 17.6 59.7 18.6 59.4 19.1 59.2 19.6 58.9 20.2 58.7 20.7 58.4 21 58.3 21.3 58.2 22.1 57.5 22.8 56.8 24.2 56.3 25.5 55.7 25.7 55.6 25.9 55.6 26.1 55.6 26.2 55.6 26.4 55.6 26.6 55.7 26.8 55.7 26.9 55.8 27.1 55.9 27.2 56.1 27.3 56.2 27.4 56.4 27.5 56.5 27.5 56.7 27.6 56.9 27.6 57 27.6 57.2 27.6 57.4 27.5 57.6 27.4 57.7 27.3 57.9 27.2 58.1 27.1 58.2 27 58.3 26.8 58.4 26.7 58.5 26.7 58.5 Z" fill="rgb(255, 255, 255, 1)"/>
</svg>