<?xml version="1.0" encoding="UTF-8"?>
<svg xmlns="http://www.w3.org/2000/svg" width="498" height="117" viewBox="0 0 498 117">
  <path d="M 14.5 13.4 Q 14.5 13.4 13 13.9 11.5 14.4 10.4 14.4 9.3 14.4 9.3 14.6 9.2 14.8 9.3 16 9.4 17.3 8.7 18.2 8.1 19 7.7 19.8 7.4 20.6 7.4 21.3 7.5 22 7.5 23 7.5 24 7.5 25 7.5 26 7.4 26.8 7.4 27.7 7.7 27.8 8.1 28 8.7 29.2 9.4 30.4 9.4 31.7 9.5 33 9.4 33.8 9.4 34.7 9.7 34.8 10.1 34.9 10.6 35.4 11.1 35.9 11.6 36.4 12.1 37 12.7 38.1 13.3 39.3 13.8 40.3 14.2 41.2 15 41.5 15.8 41.8 16.5 43 17.2 44.2 17.9 44.4 18.7 44.7 19.4 45.3 20.1 45.9 20.6 46.4 21 46.9 21.8 47.3 22.6 47.6 23.3 47.6 24.1 47.5 25.3 48.1 26.6 48.6 27.3 48.6 28.1 48.5 29.3 49.1 30.6 49.6 31.3 49.6 32 49.5 33 49.5 34 49.5 35 49.5 36 49.5 37 49.5 37.9 49.5 38.7 49.1 39.4 48.6 40.5 48.6 41.7 48.6 41.8 48.3 42 47.9 43.1 47.3 44.3 46.7 44.6 46.3 44.9 45.9 45.4 45.4 45.9 44.9 46.4 44.4 46.9 43.9 47.4 43.4 47.9 43 48.3 42.1 48.7 41.3 49.3 40.6 49.9 39.9 50.4 39.6 50.8 39.3 50.7 38.5 50.6 37.7 51.2 37 51.8 36.3 51.7 35.6 51.5 34.9 52.1 33.7 52.6 32.4 52.6 31.7 52.5 31 52.5 29.5 52.5 28 52.5 27 52.5 26 52.5 25 52.5 24 52.6 23.2 52.6 22.3 52.2 22 51.8 21.8 51.7 20.5 51.6 19.3 51.2 19 50.8 18.8 50.7 17.5 50.6 16.3 50.3 16.2 49.9 16 49.3 14.9 48.7 13.7 48.3 13.4 47.9 13.1 47.4 12.6 46.9 12.1 46.4 11.6 46 11.1 45.1 10.7 44.3 10.3 43.6 9.7 42.9 9.1 42.6 8.6 42.3 8.2 41.5 8.3 40.7 8.4 40 7.8 39.3 7.2 38.1 7.3 37 7.5 35.3 7.4 33.7 7.4 33 6.8 32.3 6.2 31.6 6.3 31 6.5 30 6.5 29 6.5 27.3 6.4 25.7 6.4 25 5.8 24.3 5.2 23.8 5.3 23.3 5.4 23 5.8 22.8 6.2 21.5 6.3 20.3 6.4 20.2 6.7 20.1 7.1 19.4 7.6 18.8 8.2 17.5 8.3 16.3 8.4 16.2 8.7 16.1 9.1 15.6 9.6 15.1 10.1 14.6 10.6 14.1 11.1 13.8 12 13.5 13 13.5 13.2 13.4 13.5 13.3 13.7 13.2 13.9 13 14.1 12.8 14.2 12.6 14.3 12.4 14.4 12.2 14.5 11.9 14.5 11.7 14.4 11.4 14.4 11.2 14.3 11 14.1 10.9 14 10.7 13.8 10.6 13.5 10.5 13.3 10.5 13.1 10.5 12.8 10.6 12.6 10.6 12.4 10.8 12.2 10.9 12 11.1 11.8 11.3 11.7 11.5 11.6 11.8 11.5 12 11.5 12.2 11.5 12.5 11.6 12.7 11.7 12.9 11.8 13.1 12 13.2 12.2 13.4 12.4 13.4 12.6 13.5 12.8 13.5 13.1 13.5 13.3 13.4 13.5 13.3 13.8 13.1 14 13 14.1 12.8 14.3 12.6 14.4 12.3 14.4 12.1 14.5 11.8 14.5 11.6 14.4 11.4 14.3 11.2 14.2 11 14.1 10.8 13.9 10.7 13.7 10.6 13.5 10.5 13.2 10.5 13 10.5 13 10.5 13 11.2 11 11.9 8.9 12.4 8.4 12.9 7.9 13.4 7.4 13.9 6.9 14.8 6.3 15.7 5.6 16.5 5.7 17.3 5.8 17.6 5.4 17.9 4.9 18.8 4.3 19.7 3.6 20.5 3.7 21.3 3.8 22 3.2 22.7 2.6 24.2 2.7 25.8 2.8 26 3.2 26.3 3.6 27.7 3.6 29 3.5 30 3.5 31 3.5 32.4 3.7 33.8 3.8 34 4.2 34.3 4.6 35.7 4.6 37 4.5 38.9 4.7 40.8 4.8 41 5.2 41.3 5.6 42.5 5.7 43.8 5.8 44.4 6.4 45.1 6.9 45.4 7.3 45.7 7.7 46.9 8.3 48 8.9 48.6 9.4 49.1 9.9 49.6 10.4 50.1 10.9 50.7 11.6 51.3 12.3 51.7 13.1 52.1 14 52.7 14.8 53.4 15.7 53.3 16.5 53.2 17.3 53.8 18 54.4 18.7 54.3 19.5 54.2 20.3 54.8 21 55.4 21.7 55.4 22.8 55.5 24 55.5 25 55.5 26 55.5 27 55.5 28 55.5 29.5 55.5 31 55.4 32.3 55.4 33.6 54.9 34.3 54.5 35.1 54.3 36.4 54.2 37.8 53.8 38 53.4 38.3 53.3 39.5 53.2 40.8 52.6 41.4 52.1 42.1 51.7 42.4 51.3 42.7 50.7 43.9 50.1 45 49.6 45.6 49.1 46.1 48.6 46.6 48.1 47.1 47.6 47.6 47.1 48.1 46.4 48.7 45.7 49.3 44.9 49.7 44 50.1 43.2 50.7 42.3 51.4 41.5 51.4 40.6 51.4 39.3 51.9 38.1 52.5 37 52.5 36 52.5 35 52.5 34 52.5 33 52.5 32 52.5 30.7 52.4 29.4 52.4 28.7 51.9 27.9 51.5 26.7 51.4 25.4 51.4 24.7 50.9 23.9 50.5 22.7 50.4 21.4 50.4 20.2 49.7 19 49.1 18.4 48.6 17.9 48.1 17.6 47.7 17.3 47.3 16.1 46.6 14.8 45.8 14.5 45 14.2 44.2 13 43.5 11.8 42.8 11.2 41.7 10.7 40.7 10.3 39.9 9.9 39 9.4 38.6 8.9 38.1 8.4 37.6 7.9 37.1 7.3 36.2 6.6 35.3 6.6 34.2 6.5 33 6.6 32.3 6.6 31.6 6.3 30.8 5.9 30 5.3 29.2 4.6 28.3 4.6 27.2 4.5 26 4.5 25 4.5 24 4.5 23 4.5 22 4.6 20.7 4.6 19.4 5.3 18.2 5.9 17 6.3 16.8 6.6 16.7 6.7 15 6.8 13.3 7.8 12.4 8.7 11.6 9.6 11.6 10.6 11.6 12 11.1 13.5 10.6 13.7 10.5 13.9 10.5 14.1 10.5 14.2 10.5 14.4 10.6 14.6 10.6 14.7 10.7 14.9 10.8 15 10.9 15.2 11.1 15.3 11.2 15.4 11.4 15.4 11.5 15.5 11.7 15.5 11.9 15.5 12.1 15.5 12.2 15.4 12.4 15.4 12.6 15.3 12.8 15.2 12.9 15.1 13 14.9 13.2 14.8 13.3 14.6 13.3 14.5 13.4 14.5 13.4 Z" fill="rgb(0, 0, 0, 1)"/>
  <path d="M 20.9 19.9 Q 20.9 19.9 21.4 19.4 21.9 18.9 22.1 18.8 22.3 18.7 22.6 18.6 22.8 18.5 23 18.5 23.3 18.5 23.5 18.6 23.7 18.7 23.9 18.8 24.1 19 24.2 19.2 24.4 19.4 24.4 19.6 24.5 19.9 24.5 20.1 24.5 20.4 24.4 20.6 24.3 20.8 24.1 21 23.9 21.2 23.7 21.3 23.5 21.4 23.3 21.5 23 21.5 22.8 21.5 22.6 21.4 22.3 21.3 22.1 21.2 22 21 21.8 20.9 21.7 20.7 21.6 20.4 21.5 20.2 21.5 20 21.5 19.7 21.6 19.5 21.7 19.3 21.8 19.1 22 18.9 22.2 18.7 22.4 18.6 22.6 18.5 22.9 18.5 23.1 18.5 23.4 18.6 23.6 18.6 23.8 18.8 24 18.9 24.2 19.1 24.3 19.3 24.4 19.5 24.5 19.7 24.5 20 24.5 20.2 24.4 20.4 24.3 20.7 24.2 20.9 24.1 21.1 24.1 21.1 24.1 21.1 23.6 21.6 23.1 22.1 22.9 22.2 22.8 22.3 22.6 22.4 22.4 22.4 22.3 22.5 22.1 22.5 21.9 22.5 21.7 22.5 21.6 22.4 21.4 22.4 21.2 22.3 21.1 22.2 20.9 22.1 20.8 21.9 20.7 21.8 20.6 21.6 20.6 21.4 20.5 21.3 20.5 21.1 20.5 20.9 20.5 20.7 20.6 20.6 20.6 20.4 20.7 20.2 20.8 20.1 20.9 19.9 20.9 19.9 Z" fill="rgb(0, 0, 0, 1)"/>
  <path d="M 39.1 19.9 Q 39.1 19.9 39.2 20.1 39.3 20.3 39.4 20.6 39.5 20.8 39.5 21 39.5 21.3 39.4 21.5 39.3 21.7 39.2 21.9 39 22.1 38.8 22.2 38.6 22.4 38.4 22.4 38.1 22.5 37.9 22.5 37.6 22.5 37.4 22.4 37.2 22.3 37 22.1 36.8 21.9 36.7 21.7 36.6 21.5 36.5 21.3 36.5 21 36.5 20.8 36.6 20.6 36.7 20.3 36.8 20.1 37 20 37.1 19.8 37.3 19.7 37.6 19.6 37.8 19.5 38 19.5 38.3 19.5 38.5 19.6 38.7 19.7 38.9 19.8 39.1 20 39.3 20.2 39.4 20.4 39.5 20.6 39.5 20.9 39.5 21.1 39.4 21.4 39.4 21.6 39.2 21.8 39.1 22 38.9 22.2 38.7 22.3 38.5 22.4 38.3 22.5 38 22.5 37.8 22.5 37.6 22.4 37.3 22.3 37.1 22.2 36.9 22.1 36.9 22.1 36.9 22.1 36.7 22 36.4 22 36.2 21.9 36 21.8 35.8 21.6 35.6 21.5 35.4 21.3 35.3 21.1 35.2 20.9 35.1 20.7 35 20.4 34.9 20.2 35 19.9 35 19.7 35 19.5 35.1 19.2 35.2 19 35.3 18.8 35.5 18.6 35.7 18.4 35.9 18.3 36.1 18.1 36.3 18.1 36.6 18 36.8 18 37.1 17.9 38.1 18.9 Z" fill="rgb(0, 0, 0, 1)"/>
  <path d="M 24.1 31.9 Q 24.1 31.9 25.1 32.9 26.1 33.9 26.6 34.4 27 34.9 27.9 35.3 28.7 35.7 29.4 36.3 30.1 36.9 30.4 37.4 30.8 37.8 31.4 37.7 32 37.5 33 37.5 34 37.5 34.8 37.6 35.7 37.6 35.8 37.3 35.9 36.9 36.8 35.6 37.7 34.3 37.8 34.1 37.9 33.9 38.1 33.8 38.3 33.7 38.6 33.6 38.8 33.5 39 33.5 39.3 33.5 39.5 33.6 39.7 33.7 39.9 33.8 40.1 34 40.2 34.2 40.4 34.4 40.4 34.6 40.5 34.9 40.5 35.1 40.5 35.4 40.4 35.6 40.3 35.8 40.1 36 39.9 36.2 39.7 36.3 39.5 36.4 39.3 36.5 39 36.5 38.8 36.5 38.6 36.4 38.3 36.3 38.1 36.2 37.9 36 37.8 35.9 37.7 35.7 37.6 35.4 37.5 35.2 37.5 35 37.5 34.7 37.6 34.5 37.7 34.3 37.8 34.1 38 33.9 38.2 33.7 38.4 33.6 38.6 33.5 38.9 33.5 39.1 33.5 39.4 33.6 39.6 33.6 39.8 33.8 40 33.9 40.2 34.1 40.3 34.3 40.4 34.5 40.5 34.7 40.5 35 40.5 35.2 40.4 35.4 40.3 35.7 40.3 35.7 40.3 35.7 39.2 37.4 38.1 39.1 37.2 39.7 36.3 40.4 35.2 40.4 34 40.5 33 40.5 32 40.5 30.6 40.3 29.3 40.2 28.6 39.6 27.9 39.1 27.6 38.7 27.3 38.3 26.1 37.7 25 37.1 24.4 36.6 23.9 36.1 22.9 35.1 21.9 34.1 21.8 33.9 21.7 33.8 21.6 33.6 21.6 33.4 21.5 33.3 21.5 33.1 21.5 32.9 21.5 32.7 21.6 32.6 21.6 32.4 21.7 32.2 21.8 32.1 21.9 31.9 22.1 31.8 22.2 31.7 22.4 31.6 22.6 31.6 22.7 31.5 22.9 31.5 23.1 31.5 23.3 31.5 23.4 31.6 23.6 31.6 23.8 31.7 23.9 31.8 24.1 31.9 24.1 31.9 Z" fill="rgb(0, 0, 0, 1)"/>
  <path d="M 35.5 51.4 Q 35.5 51.4 35 53.4 34.5 55.4 34.5 56.7 34.5 58 34.5 59 34.5 60 34.5 62 34.5 64 34.5 66 34.5 68 34 70.2 33.5 72.4 33 75.3 32.5 78.2 32 81.7 31.5 85.2 30.9 86.4 30.3 87.7 29.9 89.5 29.5 91.4 28.4 93.9 27.4 96.5 27.5 97.8 27.5 99 27.5 100 27.5 101 27.5 102.5 27.5 104.1 26.9 105.3 26.4 106.6 26.4 107.8 26.5 109.1 26 111 25.5 113 25.5 113.2 25.4 113.5 25.3 113.7 25.2 113.9 25 114.1 24.8 114.2 24.6 114.3 24.4 114.4 24.2 114.5 23.9 114.5 23.7 114.4 23.4 114.4 23.2 114.3 23 114.1 22.9 114 22.7 113.8 22.6 113.5 22.5 113.3 22.5 113.1 22.5 112.8 22.6 112.6 22.6 112.4 22.8 112.2 22.9 112 23.1 111.8 23.3 111.7 23.5 111.6 23.8 111.5 24 111.5 24.2 111.5 24.5 111.6 24.7 111.7 24.9 111.8 25.1 112 25.2 112.2 25.4 112.4 25.4 112.6 25.5 112.8 25.5 113.1 25.5 113.3 25.4 113.5 25.3 113.8 25.1 114 25 114.1 24.8 114.3 24.6 114.4 24.3 114.4 24.1 114.5 23.8 114.5 23.6 114.4 23.4 114.3 23.2 114.2 23 114.1 22.8 113.9 22.7 113.7 22.6 113.5 22.5 113.2 22.5 113 22.5 113 22.5 113 23 111 23.5 108.9 23.6 107.2 23.6 105.4 24.1 104.7 24.5 103.9 24.5 102.5 24.5 101 24.5 100 24.5 99 24.5 97.2 24.6 95.5 25.6 93.1 26.5 90.6 27.1 88.5 27.7 86.3 28.1 85.6 28.5 84.8 29 81.3 29.5 77.8 30 74.7 30.5 71.6 31 69.8 31.5 68 31.5 66 31.5 64 31.5 62 31.5 60 31.5 59 31.5 58 31.5 56.3 31.5 54.6 32 52.6 32.5 50.6 32.6 50.5 32.7 50.3 32.8 50.2 32.9 50 33 49.9 33.2 49.8 33.3 49.7 33.5 49.6 33.6 49.6 33.8 49.5 34 49.5 34.2 49.5 34.4 49.6 34.5 49.6 34.7 49.7 34.9 49.8 35 49.9 35.1 50 35.2 50.2 35.3 50.3 35.4 50.5 35.5 50.6 35.5 50.8 35.5 51 35.5 51.2 35.5 51.4 35.5 51.4 Z" fill="rgb(0, 0, 0, 1)"/>
  <path d="M 35.4 63.5 Q 35.4 63.5 35.4 64.7 35.5 65.8 36.4 65.7 37.3 65.6 38.2 66.3 39.1 66.9 39.6 67.4 40 67.9 40.9 68.3 41.7 68.7 42.6 69.2 43.6 69.6 44.3 69.6 45 69.5 46 69.5 47 69.5 48.5 69.5 50 69.5 51 69.5 52 69.5 53 69.5 54 69.5 55.3 69 56.6 68.6 57.6 68.6 58.7 68.6 58.8 68.3 59 67.9 60.2 67.3 61.4 66.6 62.7 66.6 64 66.5 64.8 66.6 65.7 66.6 65.8 66.3 66 65.9 67.1 65.3 68.3 64.7 68.6 64.3 69 63.9 70.1 63.3 71.3 62.7 72.3 62.2 73.3 61.7 73.6 61.3 73.9 60.9 74.4 60.4 74.9 59.9 75.4 59.4 75.9 58.9 76.4 58.4 76.9 57.9 77.6 57.4 78.3 56.8 79.5 56.7 80.7 56.6 81 56.2 81.3 55.8 82.5 55.7 83.7 55.6 84 55.2 84.3 54.8 85.5 54.7 86.7 54.6 87 54.2 87.3 53.8 88.6 53.7 89.9 53.5 91 53 92 52.5 92.2 52.5 92.4 52.5 92.5 52.6 92.7 52.7 92.8 52.8 93 52.9 93.1 53 93.2 53.1 93.3 53.3 93.4 53.5 93.4 53.6 93.5 53.8 93.5 54 93.5 54.2 93.4 54.4 93.4 54.5 93.3 54.7 93.2 54.9 93.1 55 93 55.1 92.8 55.2 92.7 55.3 92.5 55.4 92.4 55.5 92.2 55.5 92 55.5 91.9 55.8 91.8 56.2 90.5 56.3 89.3 56.4 89.2 55.7 89.1 54.9 89.4 55.4 89.8 55.8 90.2 55.7 90.7 55.6 91.9 55.3 93.1 54.9 93.4 55.4 93.8 55.8 94.2 55.7 94.7 55.6 96.3 55.1 98 54.5 98.2 54.5 98.5 54.6 98.7 54.7 98.9 54.8 99.1 55 99.2 55.2 99.3 55.4 99.4 55.6 99.5 55.8 99.5 56.1 99.4 56.3 99.4 56.6 99.3 56.8 99.1 57 99 57.1 98.8 57.3 98.5 57.4 98.3 57.5 98.1 57.5 97.8 57.5 97.6 57.4 97.4 57.4 97.2 57.2 97 57.1 96.8 56.9 96.7 56.7 96.6 56.5 96.5 56.2 96.5 56 96.5 55.8 96.6 55.5 96.7 55.3 96.8 55.1 97 54.9 97.2 54.8 97.4 54.6 97.6 54.6 97.8 54.5 98.1 54.5 98.3 54.5 98.5 54.6 98.8 54.7 99 54.9 99.1 55 99.3 55.2 99.4 55.4 99.4 55.7 99.5 55.9 99.5 56.2 99.4 56.4 99.3 56.6 99.2 56.8 99.1 57 98.9 57.2 98.7 57.3 98.5 57.4 98.2 57.5 98 57.5 98 57.5 98 57.5 96.7 57.9 95.3 58.4 93.8 58.3 92.3 58.2 91.6 57.6 90.9 57.1 91.1 57.7 91.3 58.4 89.8 58.3 88.3 58.2 87.6 57.6 86.9 57.1 87.8 55.3 88.7 53.6 89.5 53.7 90.3 53.8 91.1 53.2 92 52.5 92.2 52.5 92.4 52.5 92.5 52.6 92.7 52.7 92.8 52.8 93 52.9 93.1 53 93.2 53.1 93.3 53.3 93.4 53.5 93.4 53.6 93.5 53.8 93.5 54 93.5 54.2 93.4 54.4 93.4 54.5 93.3 54.7 93.2 54.9 93.1 55 93 55.1 92.8 55.2 92.7 55.3 92.5 55.4 92.4 55.5 92.2 55.5 92 55.5 91 56 90.1 56.5 89.4 56.3 88.8 56.2 88 56.8 87.3 57.4 86.5 57.3 85.8 57.2 85 57.8 84.3 58.4 83.5 58.3 82.8 58.2 82 58.8 81.3 59.4 80.5 59.3 79.8 59.2 79.4 59.6 79.1 60.1 78.6 60.6 78.1 61.1 77.6 61.6 77.1 62.1 76.6 62.6 76.1 63.1 75.4 63.7 74.7 64.3 73.7 64.8 72.7 65.3 71.9 65.7 71 66.1 70.4 66.7 69.7 67.3 68.9 67.7 68 68.1 67.2 68.7 66.3 69.4 65.2 69.4 64 69.5 63.3 69.4 62.6 69.4 61.8 69.7 61 70.1 60.2 70.7 59.3 71.4 58.4 71.4 57.5 71.4 55.7 72 54 72.5 53 72.5 52 72.5 51 72.5 50 72.5 48.5 72.5 47 72.5 46 72.5 45 72.5 43.7 72.4 42.4 72.4 41.4 71.9 40.3 71.3 39.1 70.7 38 70.1 37.4 69.6 36.9 69.1 36.8 68.7 36.7 68.4 35.6 68.3 34.6 68.2 33.6 66.3 32.6 64.5 32.5 64.3 32.5 64.1 32.5 63.9 32.5 63.8 32.6 63.6 32.6 63.4 32.7 63.3 32.8 63.1 32.9 63 33.1 62.8 33.2 62.7 33.4 62.6 33.5 62.6 33.7 62.5 33.9 62.5 34.1 62.5 34.2 62.5 34.4 62.6 34.6 62.6 34.8 62.7 34.9 62.8 35 62.9 35.2 63.1 35.3 63.2 35.3 63.4 35.4 63.5 35.4 63.5 Z" fill="rgb(0, 0, 0, 1)"/>
  <path d="M 100 58.5 Q 100 58.5 98 58.5 96 58.5 93.5 58.5 91 58.5 89.5 58.5 88 58.5 86.7 58.4 85.3 58.4 85.2 58.7 85.1 59.1 84.4 59.6 83.8 60.2 82.5 60.3 81.3 60.4 81 60.8 80.8 61.2 80.1 60.6 79.5 60 79.5 61 79.5 61.9 79.9 62.6 80.3 63.3 80.9 64.9 81.4 66.5 81.8 66.9 82.2 67.3 82.3 69.1 82.5 71 82.5 72 82.5 72.9 82.9 73.7 83.4 74.4 83.4 76.2 83.5 78 83.4 79.8 83.4 81.7 83.8 82 84.2 82.3 84.3 83.6 84.5 85 84.5 86.5 84.5 88 84.5 89 84.5 90 84.4 91.3 84.4 92.7 84.8 93 85.2 93.3 85.3 94.6 85.5 96 84.8 96.3 84 96.5 85 96.5 86 96.5 87 96.5 88 96.5 89.3 96 90.6 95.6 92.1 95.6 93.7 95.6 94 95.2 94.3 94.8 95.6 94.7 97 94.5 98 94.5 99 94.5 100 94.5 101 94.5 102 94.5 103 94.5 104 94.5 105 94.5 106 94.5 107 94.5 107.8 94.6 108.7 94.6 109 94.2 109.3 93.8 110.6 93.7 112 93.5 112.8 93.6 113.7 93.6 114 93.2 114.3 92.8 115.6 92.7 117 92.5 117.8 92.6 118.7 92.6 118.8 93.3 118.9 94.1 118.4 93.6 117.9 93.1 117.4 92.6 116.9 92.1 116.4 91.4 115.8 90.8 115.7 89.4 115.5 88 115.5 87 115.5 86.1 115.1 85.3 114.6 84.6 114.6 83.3 114.5 82 114.6 81.2 114.6 80.3 114.2 80 113.8 79.8 113.7 78.4 113.5 77 113.5 76 113.5 75 113.5 74 113.5 73 113.6 72.2 113.6 71.3 113.2 71 112.8 70.8 112.7 69.4 112.5 68 112.5 67 112.5 66 112.5 65 112.5 64 112.5 63 112.5 62 112.5 61 112.5 60 112.5 59 112.5 58 112.5 57 112.5 56 112.6 55.2 112.6 54.3 112.3 54.2 111.9 54.1 111.6 53.6 111.3 53.2 110.8 53.3 110.3 53.4 110 53.8 109.8 54.2 107.9 54.3 106 54.5 104.5 54.5 103.1 54.5 102.3 54.9 101.6 55.4 100.3 55.4 99 55.5 97.5 55.5 96.1 55.5 95.3 55.9 94.6 56.4 93.5 56.4 92.3 56.4 90.7 56.9 89 57.5 88.8 57.5 88.5 57.4 88.3 57.3 88.1 57.2 87.9 57 87.8 56.8 87.7 56.6 87.6 56.4 87.5 56.2 87.5 55.9 87.6 55.7 87.6 55.4 87.7 55.2 87.9 55 88 54.9 88.2 54.7 88.5 54.6 88.7 54.5 88.9 54.5 89.2 54.5 89.4 54.6 89.6 54.6 89.8 54.8 90 54.9 90.2 55.1 90.3 55.3 90.4 55.5 90.5 55.8 90.5 56 90.5 56.2 90.4 56.5 90.3 56.7 90.2 56.9 90 57.1 89.8 57.2 89.6 57.4 89.4 57.4 89.2 57.5 88.9 57.5 88.7 57.5 88.5 57.4 88.2 57.3 88 57.1 87.9 57 87.7 56.8 87.6 56.6 87.6 56.3 87.5 56.1 87.5 55.8 87.6 55.6 87.7 55.4 87.8 55.2 87.9 55 88.1 54.8 88.3 54.7 88.5 54.6 88.8 54.5 89 54.5 89 54.5 89 54.5 90.3 54.1 91.7 53.6 92.5 53.6 93.4 53.6 94.7 53.1 95.9 52.5 97.5 52.5 99 52.5 99.7 52.6 100.4 52.6 101.7 52.1 102.9 51.5 104.5 51.5 106 51.5 107.1 51.7 108.3 51.8 109 51.2 109.7 50.6 111.2 50.7 112.8 50.8 113.4 51.4 114.1 51.9 114.7 52.8 115.4 53.7 115.4 54.8 115.5 56 115.5 57 115.5 58 115.5 59 115.5 60 115.5 61 115.5 62 115.5 63 115.5 64 115.5 65 115.5 66 115.5 67 115.5 68 115.3 68.6 115.2 69.3 115.8 70 116.4 70.7 116.4 71.8 116.5 73 116.5 74 116.5 75 116.5 76 116.5 77 116.3 77.6 116.2 78.3 116.8 79 117.4 79.7 117.4 80.8 117.5 82 117.4 82.7 117.4 83.4 117.9 84.7 118.5 85.9 118.5 87 118.5 88 118.3 88.6 118.2 89.3 118.6 89.6 119.1 89.9 119.6 90.4 120.1 90.9 120.6 91.4 121.1 91.9 120.2 93.7 119.3 95.4 118.2 95.4 117 95.5 116.4 95.3 115.8 95.2 115 95.8 114.3 96.4 113.2 96.4 112 96.5 111.4 96.3 110.8 96.2 110 96.8 109.3 97.4 108.2 97.4 107 97.5 106 97.5 105 97.5 104 97.5 103 97.5 102 97.5 101 97.5 100 97.5 99 97.5 98 97.5 97 97.5 96.4 97.3 95.8 97.2 95 97.8 94.3 98.4 92.9 98.4 91.5 98.4 89.7 99 88 99.5 87 99.5 86 99.5 85 99.5 84 99.5 83.3 97.8 82.5 96 82.7 95.4 82.8 94.8 82.2 94 81.6 93.3 81.6 91.7 81.5 90 81.5 89 81.5 88 81.5 86.5 81.5 85 81.7 84.4 81.8 83.8 81.2 83 80.6 82.3 80.6 80.2 80.5 78 80.6 76.8 80.6 75.6 80.1 74.3 79.5 73.1 79.5 72 79.5 71 79.7 69.9 79.8 68.8 79.2 68.1 78.6 67.5 78.1 66.1 77.7 64.7 77.1 63.4 76.5 62.1 76.5 61 76.5 60 77.9 59.4 79.3 58.8 80 58.2 80.7 57.6 81.5 57.7 82.3 57.8 82.6 57.4 82.9 56.9 83.8 56.3 84.7 55.6 86.3 55.6 88 55.5 89.5 55.5 91 55.5 93.5 55.5 96 55.5 98 55.5 100 55.5 100.2 55.5 100.4 55.5 100.5 55.6 100.7 55.7 100.8 55.8 101 55.9 101.1 56 101.2 56.1 101.3 56.3 101.4 56.5 101.4 56.6 101.5 56.8 101.5 57 101.5 57.2 101.4 57.4 101.4 57.5 101.3 57.7 101.2 57.9 101.1 58 101 58.1 100.8 58.2 100.7 58.3 100.5 58.4 100.4 58.5 100.2 58.5 100 58.5 100 58.5 Z" fill="rgb(0, 0, 0, 1)"/>
  <path d="M 88.9 53.9 Q 88.9 53.9 90.1 52.9 91.3 51.8 92.6 51.7 94 51.5 95 51.5 96 51.5 97.2 51.6 98.3 51.6 99.3 52.4 100.2 53.3 100.3 54.8 100.4 56.3 99.7 57.2 99.1 58.1 98.4 58.6 97.8 59.2 96.4 59.3 95 59.5 93.5 59.5 92.1 59.5 91.3 59.9 90.6 60.4 89.6 60.4 88.7 60.3 88.5 60.4 88.3 60.5 88.2 60.5 88 60.5 87.8 60.5 87.6 60.4 87.4 60.4 87.3 60.3 87.1 60.2 87 60.1 86.9 60 86.7 59.8 86.7 59.7 86.6 59.5 86.5 59.3 86.5 59.2 86.5 59 86.5 58.8 86.6 58.6 86.6 58.4 86.7 58.3 86.8 58.1 86.9 58 87 57.9 87.2 57.8 87.3 57.7 87.8 57.2 88.3 56.8 89.6 56.7 91 56.5 92 56.5 93 56.5 94 56.5 95 56.5 95.8 56.6 96.7 56.6 96.8 56.4 96.8 56.3 96.7 55.8 96.6 55.3 96.4 55.3 96.3 55.2 95.6 55.3 95 55.5 94 55.5 93 55.5 92 55.5 91 55.5 90.8 54.8 90.5 54 90.4 54.8 90.4 55.7 90.7 55.8 91.1 55.9 91.6 56.4 92.1 56.9 92.6 57.4 93.1 57.9 93.6 58.4 94.1 58.9 94.2 59.1 94.3 59.2 94.4 59.4 94.4 59.6 94.5 59.7 94.5 59.9 94.5 60.1 94.5 60.3 94.4 60.4 94.4 60.6 94.3 60.8 94.2 60.9 94.1 61.1 93.9 61.2 93.8 61.3 93.6 61.4 93.4 61.4 93.3 61.5 93.1 61.5 92.9 61.5 92.7 61.5 92.6 61.4 92.4 61.4 92.2 61.3 92.1 61.2 91.9 61.1 92.5 59.5 93.1 57.9 93.2 58.1 93.3 58.2 93.4 58.4 93.4 58.6 93.5 58.7 93.5 58.9 93.5 59.1 93.5 59.3 93.4 59.4 93.4 59.6 93.3 59.8 93.2 59.9 93.1 60.1 92.9 60.2 92.8 60.3 92.6 60.4 92.4 60.4 92.3 60.5 92.1 60.5 91.9 60.5 91.7 60.5 91.6 60.4 91.4 60.4 91.2 60.3 91.1 60.2 90.9 60.1 91.4 59.5 91.9 58.9 92.4 58.4 92.9 57.9 94.5 57.4 96.1 56.9 95.5 57.4 94.9 57.9 95.6 57.4 96.3 56.8 97.1 56.9 97.9 56.9 98.1 56.8 98.2 56.7 98.4 56.6 98.6 56.6 98.7 56.5 98.9 56.5 99.1 56.5 99.3 56.5 99.4 56.6 99.6 56.6 99.8 56.7 99.9 56.8 100.1 56.9 100.2 57.1 100.3 57.2 100.4 57.4 100.4 57.6 100.5 57.7 100.5 57.9 100.5 58.1 100.5 58.3 100.4 58.4 100.4 58.6 100.3 58.8 100.2 58.9 100.1 59.1 98.4 59.2 96.7 59.4 95.8 58.7 94.9 58.1 94.4 57.6 93.9 57.1 93.6 56.6 93.3 56.2 92.7 56.3 92.1 56.5 91.4 56.9 90.7 57.3 90.4 57.7 90.1 58.1 89.8 59 89.5 60 89.5 60.2 89.4 60.5 89.3 60.7 89.2 60.9 89 61.1 88.8 61.2 88.6 61.3 88.4 61.4 88.2 61.5 87.9 61.5 87.7 61.4 87.4 61.4 87.2 61.3 87 61.1 86.9 61 86.7 60.8 86.6 60.5 86.5 60.3 86.5 60.1 86.5 59.8 86.6 59.6 86.6 59.4 86.8 59.2 86.9 59 87.1 58.8 87.3 58.7 87.5 58.6 87.8 58.5 88 58.5 88.2 58.5 88.5 58.6 88.7 58.7 88.9 58.8 89.1 59 89.2 59.2 89.4 59.4 89.4 59.6 89.5 59.8 89.5 60.1 89.5 60.3 89.4 60.5 89.3 60.8 89.1 61 89 61.1 88.8 61.3 88.6 61.4 88.3 61.4 88.1 61.5 87.8 61.5 87.6 61.4 87.4 61.3 87.2 61.2 87 61.1 86.8 60.9 86.7 60.7 86.6 60.5 86.5 60.2 86.5 60 86.5 60 86.5 60 87.2 58 87.9 55.9 88.6 55.3 89.3 54.7 90.6 54.1 91.9 53.5 93.3 53.7 94.8 53.8 95.4 54.4 96.1 54.9 96.6 55.4 97.1 55.9 97.2 56.3 97.3 56.6 97.6 56.8 97.9 56.9 98.1 56.8 98.2 56.7 98.4 56.6 98.6 56.6 98.7 56.5 98.9 56.5 99.1 56.5 99.3 56.5 99.4 56.6 99.6 56.6 99.8 56.7 99.9 56.8 100.1 56.9 100.2 57.1 100.3 57.2 100.4 57.4 100.4 57.6 100.5 57.7 100.5 57.9 100.5 58.1 100.5 58.3 100.4 58.4 100.4 58.6 100.3 58.8 100.2 58.9 100.1 59.1 98.9 59.1 97.8 59.2 97.4 59.6 97.1 60.1 95.5 59.6 93.9 59.1 94.5 59.6 95.1 60.1 94.6 60.6 94.1 61.1 93.6 59.5 93.1 57.9 93.2 58.1 93.3 58.2 93.4 58.4 93.4 58.6 93.5 58.7 93.5 58.9 93.5 59.1 93.5 59.3 93.4 59.4 93.4 59.6 93.3 59.8 93.2 59.9 93.1 60.1 92.9 60.2 92.8 60.3 92.6 60.4 92.4 60.4 92.3 60.5 92.1 60.5 91.9 60.5 91.7 60.5 91.6 60.4 91.4 60.4 91.2 60.3 91.1 60.2 90.9 60.1 92.5 59.5 94.1 58.9 94.2 59.1 94.3 59.2 94.4 59.4 94.4 59.6 94.5 59.7 94.5 59.9 94.5 60.1 94.5 60.3 94.4 60.4 94.4 60.6 94.3 60.8 94.2 60.9 94.1 61.1 93.9 61.2 93.8 61.3 93.6 61.4 93.4 61.4 93.3 61.5 93.1 61.5 92.9 61.5 92.7 61.5 92.6 61.4 92.4 61.4 92.2 61.3 92.1 61.2 91.9 61.1 91.4 60.6 90.9 60.1 90.4 59.6 89.9 59.1 89.4 58.6 88.9 58.1 88.3 57.2 87.6 56.3 87.6 55.2 87.5 54 89.3 53.3 91 52.5 92 52.5 93 52.5 94 52.5 95 52.5 96.4 52.7 97.8 52.8 98.6 53.8 99.4 54.7 99.3 56.2 99.2 57.8 98.3 58.6 97.3 59.4 96.2 59.4 95 59.5 94 59.5 93 59.5 92 59.5 91 59.5 90.4 59.3 89.8 59.2 89.2 59.8 88.7 60.3 88.5 60.4 88.3 60.5 88.2 60.5 88 60.5 87.8 60.5 87.6 60.4 87.4 60.4 87.3 60.3 87.1 60.2 87 60.1 86.9 60 86.7 59.8 86.7 59.7 86.6 59.5 86.5 59.3 86.5 59.2 86.5 59 86.5 58.8 86.6 58.6 86.6 58.4 86.7 58.3 86.8 58.1 86.9 58 87 57.9 87.2 57.8 87.3 57.7 88.4 57.7 89.4 57.6 90.7 57.1 91.9 56.5 93.5 56.5 95 56.5 95.6 56.7 96.3 56.8 96.6 56.4 96.9 55.9 97.3 55.8 97.6 55.7 97.7 55.2 97.8 54.8 97.8 54.6 97.7 54.4 96.8 54.4 96 54.5 95 54.5 94 54.5 93.4 54.3 92.8 54.2 91.9 55.1 91.1 56.1 90.9 56.2 90.8 56.3 90.6 56.4 90.4 56.4 90.3 56.5 90.1 56.5 89.9 56.5 89.7 56.5 89.6 56.4 89.4 56.4 89.2 56.3 89.1 56.2 88.9 56.1 88.8 55.9 88.7 55.8 88.6 55.6 88.6 55.4 88.5 55.3 88.5 55.1 88.5 54.9 88.5 54.7 88.6 54.6 88.6 54.4 88.7 54.2 88.8 54.1 88.9 53.9 88.9 53.9 Z" fill="rgb(0, 0, 0, 1)"/>
  <path d="M 99 79.5 Q 99 79.5 97 79.5 95.1 79.5 94.6 79.5 94.1 79.6 94.3 80.3 94.5 81 94.5 82 94.5 83 94.5 84 94.5 85 94.4 85.8 94.4 86.7 94.8 87 95.2 87.3 94.6 87.9 94 88.5 95 88.5 96 88.5 97 88.5 98 88.5 98.8 88.6 99.7 88.6 100 88.2 100.3 87.8 101.6 87.7 103 87.5 104 87.5 104.9 87.5 105.6 87.1 106.3 86.7 106.6 87.4 106.9 88.1 106.4 87.4 105.8 86.8 105.7 85.4 105.5 84 105.5 83 105.5 82 105.6 81.2 105.6 80.3 105.2 80 104.8 79.8 104.7 78.5 104.6 77.3 104.4 77.3 104.3 77.2 103.6 77.3 103 77.5 102 77.5 101 77.5 100 77.8 99.1 78.1 98.9 78.2 98.7 78.3 98.4 78.4 98.2 78.5 98 78.5 97.7 78.5 97.5 78.4 97.3 78.3 97.1 78.2 96.9 78 96.8 77.8 96.6 77.6 96.6 77.4 96.5 77.1 96.5 76.9 96.5 76.6 96.6 76.4 96.7 76.2 96.9 76 97.1 75.8 97.3 75.7 97.5 75.6 97.7 75.5 98 75.5 98.2 75.5 98.4 75.6 98.7 75.7 98.9 75.8 99 76 99.2 76.1 99.3 76.3 99.4 76.6 99.5 76.8 99.5 77 99.5 77.3 99.4 77.5 99.3 77.7 99.2 77.9 99 78.1 98.8 78.3 98.6 78.4 98.4 78.5 98.1 78.5 97.9 78.5 97.6 78.4 97.4 78.4 97.2 78.2 97 78.1 96.8 77.9 96.7 77.7 96.6 77.5 96.5 77.3 96.5 77 96.5 76.8 96.6 76.6 96.7 76.3 96.8 76.1 96.9 75.9 96.9 75.9 96.9 75.9 99 75.2 101 74.5 102 74.5 103 74.5 104.4 74.7 105.8 74.8 106.6 75.8 107.4 76.7 107.3 77.5 107.2 78.3 107.8 79 108.4 79.7 108.4 80.8 108.5 82 108.5 83 108.5 84 108.3 84.6 108.2 85.3 108.6 85.6 109.1 85.9 108.4 87.6 107.7 89.3 106.4 89.9 105.1 90.5 104 90.5 103 90.5 102.4 90.3 101.8 90.2 101 90.8 100.3 91.4 99.2 91.4 98 91.5 97 91.5 96 91.5 95 91.5 94 91.5 93.4 90.1 92.8 88.8 92.2 88 91.6 87.3 91.6 86.2 91.5 85 91.5 84 91.5 83 91.5 82 91.5 81 91.7 79.7 91.9 78.4 93.4 77.5 94.9 76.5 97 76.5 99 76.5 99.2 76.5 99.4 76.5 99.5 76.6 99.7 76.7 99.8 76.8 100 76.9 100.1 77 100.2 77.1 100.3 77.3 100.4 77.5 100.4 77.6 100.5 77.8 100.5 78 100.5 78.2 100.4 78.4 100.4 78.5 100.3 78.7 100.2 78.9 100.1 79 100 79.1 99.8 79.2 99.7 79.3 99.5 79.4 99.4 79.5 99.2 79.5 99 79.5 99 79.5 Z" fill="rgb(0, 0, 0, 1)"/>
  <path d="M 94.9 79.1 Q 94.9 79.1 93.9 78.1 92.9 77.1 92.4 76.4 91.8 75.8 91.7 74.4 91.5 73 91.5 72 91.5 71 91.5 70 91.5 69 91.6 67.8 91.6 66.7 92.3 65.8 92.9 64.9 93.4 64.4 93.9 63.9 94.4 63.4 94.9 62.9 96.5 62.4 98.1 61.9 98.6 62.4 99 62.9 99.9 63.3 100.7 63.7 101.4 64.3 102.1 64.9 102.6 65.4 103.1 66 103.7 67.2 104.4 68.4 104.4 69.7 104.5 71 104.5 72 104.5 73 104.8 74 105.1 74.9 105.2 75.1 105.3 75.3 105.4 75.6 105.5 75.8 105.5 76 105.5 76.3 105.4 76.5 105.3 76.7 105.2 76.9 105 77.1 104.8 77.2 104.6 77.4 104.4 77.4 104.1 77.5 103.9 77.5 103.6 77.5 103.4 77.4 103.2 77.3 103 77.1 102.8 76.9 102.7 76.7 102.6 76.5 102.5 76.3 102.5 76 102.5 75.8 102.6 75.6 102.7 75.3 102.8 75.1 103 75 103.1 74.8 103.3 74.7 103.6 74.6 103.8 74.5 104 74.5 104.3 74.5 104.5 74.6 104.7 74.7 104.9 74.8 105.1 75 105.3 75.2 105.4 75.4 105.5 75.6 105.5 75.9 105.5 76.1 105.4 76.4 105.4 76.6 105.2 76.8 105.1 77 104.9 77.2 104.7 77.3 104.5 77.4 104.3 77.5 104 77.5 103.8 77.5 103.6 77.4 103.3 77.3 103.1 77.2 102.9 77.1 102.9 77.1 102.9 77.1 102.2 75 101.5 73 101.5 72 101.5 71 101.6 70.3 101.6 69.6 101.3 68.8 100.9 68 100.4 67.6 99.9 67.1 99.6 66.7 99.3 66.3 98.1 65.7 97 65.1 96.4 64.6 95.9 64.1 96.5 64.6 97.1 65.1 96.6 65.6 96.1 66.1 95.6 66.6 95.1 67.1 94.7 67.2 94.4 67.3 94.4 68.2 94.5 69 94.5 70 94.5 71 94.5 72 94.5 73 94.3 73.6 94.2 74.3 94.6 74.6 95.1 74.9 96.1 75.9 97.1 76.9 97.2 77.1 97.3 77.2 97.4 77.4 97.4 77.6 97.5 77.7 97.5 77.9 97.5 78.1 97.5 78.3 97.4 78.4 97.4 78.6 97.3 78.8 97.2 78.9 97.1 79.1 96.9 79.2 96.8 79.3 96.6 79.4 96.4 79.4 96.3 79.5 96.1 79.5 95.9 79.5 95.7 79.5 95.6 79.4 95.4 79.4 95.2 79.3 95.1 79.2 94.9 79.1 94.9 79.1 Z" fill="rgb(0, 0, 0, 1)"/>
  <path d="M 35.1 63.1 Q 35.1 63.1 33.9 64.1 32.8 65.2 31.5 65.3 30.3 65.4 30 65.8 29.8 66.2 28.5 66.3 27.3 66.4 27.2 66.7 27.1 67.1 26.6 67.6 26 68.1 24.9 68.7 23.7 69.3 23.4 69.7 23.1 70.1 22.1 71.1 21 72.1 19.9 72.7 18.7 73.3 17.7 73.8 16.7 74.3 15.7 74.8 14.7 75.3 13.9 76.2 13 77.1 11.9 77.7 10.7 78.3 10.4 78.7 10.1 79 9.6 79.9 9.2 80.8 8 81.5 6.8 82.2 5.9 83.6 5.1 85.1 4.9 85.2 4.7 85.3 4.4 85.4 4.2 85.5 4 85.5 3.7 85.5 3.5 85.4 3.3 85.3 3.1 85.2 2.9 85 2.8 84.8 2.6 84.6 2.6 84.4 2.5 84.1 2.5 83.9 2.5 83.6 2.6 83.4 2.7 83.2 2.9 83 3.1 82.8 3.3 82.7 3.5 82.6 3.7 82.5 4 82.5 4.2 82.5 4.4 82.6 4.7 82.7 4.9 82.8 5 83 5.2 83.1 5.3 83.3 5.4 83.6 5.5 83.8 5.5 84 5.5 84.3 5.4 84.5 5.3 84.7 5.2 84.9 5 85.1 4.8 85.3 4.6 85.4 4.4 85.5 4.1 85.5 3.9 85.5 3.6 85.4 3.4 85.4 3.2 85.2 3 85.1 2.8 84.9 2.7 84.7 2.6 84.5 2.5 84.3 2.5 84 2.5 83.8 2.6 83.6 2.7 83.3 2.8 83.1 2.9 82.9 2.9 82.9 2.9 82.9 4.1 81.4 5.2 79.8 6 79.5 6.8 79.2 7.4 78.1 7.9 77 8.6 76.3 9.3 75.7 10.1 75.3 11 74.9 12.1 73.8 13.3 72.7 14.3 72.2 15.3 71.7 16.3 71.2 17.3 70.7 18.1 70.3 19 69.9 19.9 68.9 20.9 67.9 21.6 67.3 22.3 66.7 23.1 66.3 24 65.9 24.4 65.4 24.9 64.9 25.8 64.3 26.7 63.6 27.5 63.7 28.3 63.8 29 63.2 29.7 62.6 30.5 62.7 31.3 62.8 32.1 61.9 32.9 60.9 33.1 60.8 33.2 60.7 33.4 60.6 33.6 60.6 33.7 60.5 33.9 60.5 34.1 60.5 34.3 60.5 34.4 60.6 34.6 60.6 34.8 60.7 34.9 60.8 35.1 60.9 35.2 61.1 35.3 61.2 35.4 61.4 35.4 61.6 35.5 61.7 35.5 61.9 35.5 62.1 35.5 62.3 35.4 62.4 35.4 62.6 35.3 62.8 35.2 62.9 35.1 63.1 35.1 63.1 Z" fill="rgb(0, 0, 0, 1)"/>
  <path d="M 167 40.5 Q 167 40.5 166.2 40.4 165.3 40.4 165.3 40.6 165.2 40.8 165.3 41.5 165.4 42.3 164.7 43.1 164.1 44 163.8 45.7 163.5 47.4 163.5 48.2 163.5 49 163.5 50 163.5 51 163.5 52 163.5 53 163.4 53.8 163.4 54.7 163.7 54.8 164.1 54.9 164.6 55.4 165.1 56 165.7 57.1 166.3 58.3 166.7 58.6 167.1 58.9 167.4 59.4 167.8 59.8 168.4 59.7 169 59.5 170 59.5 171 59.5 172 59.5 172.9 59.5 173.6 59.1 174.3 58.7 175.3 58.2 176.3 57.7 176.6 57.3 177 56.9 178.1 56.3 179.3 55.7 179.6 55.3 179.9 54.9 180.4 54.6 180.8 54.3 180.7 53.6 180.5 53 180.6 51.8 180.6 50.7 181.2 50 181.8 49.3 181.7 48.6 181.5 48 181.5 47 181.5 46.1 181.1 45.3 180.6 44.6 180.6 43.5 180.6 42.3 180.3 42.2 179.9 42.1 179.4 41.6 178.9 41 178.7 40.1 178.4 39.1 177.5 39.3 176.7 39.4 175.8 38.7 174.9 38.1 174.6 37.6 174.3 37.2 173.6 37.3 173 37.5 171 37.5 169 37.5 168.8 37.5 168.5 37.4 168.3 37.3 168.1 37.2 167.9 37 167.8 36.8 167.7 36.6 167.6 36.4 167.5 36.2 167.5 35.9 167.6 35.7 167.6 35.4 167.7 35.2 167.9 35 168 34.9 168.2 34.7 168.5 34.6 168.7 34.5 168.9 34.5 169.2 34.5 169.4 34.6 169.6 34.6 169.8 34.8 170 34.9 170.2 35.1 170.3 35.3 170.4 35.5 170.5 35.8 170.5 36 170.5 36.2 170.4 36.5 170.3 36.7 170.2 36.9 170 37.1 169.8 37.2 169.6 37.4 169.4 37.4 169.2 37.5 168.9 37.5 168.7 37.5 168.5 37.4 168.2 37.3 168 37.1 167.9 37 167.7 36.8 167.6 36.6 167.6 36.3 167.5 36.1 167.5 35.8 167.6 35.6 167.7 35.4 167.8 35.2 167.9 35 168.1 34.8 168.3 34.7 168.5 34.6 168.8 34.5 169 34.5 169 34.5 169 34.5 171 34.5 173 34.5 174.4 34.7 175.8 34.8 176.4 35.4 177.1 35.9 177.2 36.3 177.3 36.6 178.5 36.7 179.6 36.9 180.3 37.9 181.1 39 181.6 39.4 182.1 39.9 182.7 40.8 183.4 41.7 183.4 42.5 183.4 43.4 183.9 44.7 184.5 45.9 184.5 47 184.5 48 184.3 49.4 184.2 50.8 183.8 51 183.4 51.3 183.4 52.2 183.5 53 183.3 54.4 183.2 55.8 182.6 56.4 182.1 57.1 181.4 57.7 180.7 58.3 179.9 58.7 179 59.1 178.4 59.7 177.7 60.3 176.7 60.8 175.7 61.3 174.4 61.9 173.1 62.5 172 62.5 171 62.5 170 62.5 169 62.5 167.6 62.3 166.3 62.2 165.6 61.6 164.9 61.1 164.3 60.4 163.7 59.7 163.3 58.9 162.9 58 162.4 57.6 161.9 57.1 161.3 56.2 160.6 55.3 160.6 54.2 160.5 53 160.5 52 160.5 51 160.5 50 160.5 49 160.5 47.8 160.5 46.6 161.2 44.3 161.9 42 162.3 41.9 162.6 41.7 162.7 40.5 162.8 39.3 163.8 38.4 164.7 37.6 165.8 37.6 167 37.5 167.2 37.5 167.4 37.5 167.5 37.6 167.7 37.7 167.8 37.8 168 37.9 168.1 38 168.2 38.1 168.3 38.3 168.4 38.5 168.4 38.6 168.5 38.8 168.5 39 168.5 39.2 168.4 39.4 168.4 39.5 168.3 39.7 168.2 39.9 168.1 40 168 40.1 167.8 40.2 167.7 40.3 167.5 40.4 167.4 40.5 167.2 40.5 167 40.5 167 40.5 Z" fill="rgb(0, 0, 0, 1)"/>
  <path d="M 180.2 43.8 Q 180.2 43.8 181.7 42.8 183.2 41.8 184.2 41.2 185.3 40.7 186.1 39.8 186.9 38.9 188.6 37.8 190.2 36.8 191.2 36.2 192.3 35.7 193.3 35.2 194.3 34.7 195.3 34.2 196.3 33.7 196.6 33.3 196.9 32.9 197.4 32.4 197.9 31.9 198.4 31.4 198.9 30.9 199.4 30.4 199.9 29.9 200.6 29.4 201.3 28.8 202.5 28.7 203.7 28.6 203.8 28.3 203.9 27.9 204.6 27.4 205.3 26.8 206.5 26.7 207.7 26.6 207.8 27.3 207.9 28.1 207.4 27.6 206.9 27.1 206.4 26.6 205.9 26.1 205.4 25.4 204.8 24.8 205.4 22.6 206 20.5 207.8 21.3 209.5 22 209.4 22.8 209.4 23.7 210.7 24.8 212.1 25.9 212.2 26.1 212.3 26.3 212.4 26.6 212.5 26.8 212.5 27 212.5 27.3 212.4 27.5 212.3 27.7 212.2 27.9 212 28.1 211.8 28.2 211.6 28.4 211.4 28.4 211.1 28.5 210.9 28.5 210.6 28.5 210.4 28.4 210.2 28.3 210 28.1 209.8 27.9 209.7 27.7 209.6 27.5 209.5 27.3 209.5 27 209.5 26.8 209.6 26.6 209.7 26.3 209.8 26.1 210 26 210.1 25.8 210.3 25.7 210.6 25.6 210.8 25.5 211 25.5 211.3 25.5 211.5 25.6 211.7 25.7 211.9 25.8 212.1 26 212.3 26.2 212.4 26.4 212.5 26.6 212.5 26.9 212.5 27.1 212.4 27.4 212.4 27.6 212.2 27.8 212.1 28 211.9 28.2 211.7 28.3 211.5 28.4 211.3 28.5 211 28.5 210.8 28.5 210.6 28.4 210.3 28.3 210.1 28.2 209.9 28.1 209.9 28.1 209.9 28.1 208.3 26.2 206.6 24.3 206.6 23.2 206.5 22 206.3 22.8 206 23.5 206.6 23.4 207.2 23.3 207.6 23.6 208.1 23.9 208.6 24.4 209.1 24.9 209.6 25.4 210.1 25.9 209.2 27.7 208.3 29.4 207.5 29.3 206.8 29.2 206.4 29.6 206.1 30.1 205.2 30.7 204.3 31.4 203.5 31.3 202.8 31.2 202.4 31.6 202.1 32.1 201.6 32.6 201.1 33.1 200.6 33.6 200.1 34.1 199.6 34.6 199.1 35.1 198.4 35.7 197.7 36.3 196.7 36.8 195.7 37.3 194.7 37.8 193.7 38.3 192.8 38.8 191.8 39.2 190.4 40.2 189.1 41.1 187.9 42.2 186.7 43.3 185.8 43.8 184.8 44.2 183.3 45.2 181.8 46.2 181.7 46.3 181.5 46.4 181.3 46.5 181.2 46.5 181 46.5 180.8 46.5 180.6 46.4 180.4 46.4 180.3 46.3 180.1 46.2 180 46.1 179.9 46 179.8 45.8 179.7 45.7 179.6 45.5 179.5 45.3 179.5 45.2 179.5 45 179.5 44.8 179.5 44.6 179.6 44.4 179.7 44.3 179.8 44.1 179.9 44 180 43.9 180.2 43.8 180.2 43.8 Z" fill="rgb(0, 0, 0, 1)"/>
  <path d="M 211.5 26.4 Q 211.5 26.4 211.1 24.4 210.6 22.5 210.2 22.1 209.8 21.8 209.9 20.9 209.9 20.1 209.8 19.9 209.7 19.8 209.6 19.6 209.6 19.4 209.5 19.3 209.5 19.1 209.5 18.9 209.5 18.7 209.6 18.6 209.6 18.4 209.7 18.2 209.8 18.1 209.9 17.9 210.1 17.8 210.2 17.7 210.4 17.6 210.6 17.6 210.7 17.5 210.9 17.5 211.1 17.5 211.3 17.5 211.4 17.6 211.6 17.6 211.8 17.7 211.9 17.8 212.1 17.9 213.1 19.4 214.1 20.9 214.2 21.1 214.3 21.3 214.4 21.6 214.5 21.8 214.5 22 214.5 22.3 214.4 22.5 214.3 22.7 214.2 22.9 214 23.1 213.8 23.2 213.6 23.4 213.4 23.4 213.1 23.5 212.9 23.5 212.6 23.5 212.4 23.4 212.2 23.3 212 23.1 211.8 22.9 211.7 22.7 211.6 22.5 211.5 22.3 211.5 22 211.5 21.8 211.6 21.6 211.7 21.3 211.8 21.1 212 21 212.1 20.8 212.3 20.7 212.6 20.6 212.8 20.5 213 20.5 213.3 20.5 213.5 20.6 213.7 20.7 213.9 20.8 214.1 21 214.3 21.2 214.4 21.4 214.5 21.6 214.5 21.9 214.5 22.1 214.4 22.4 214.4 22.6 214.2 22.8 214.1 23 213.9 23.2 213.7 23.3 213.5 23.4 213.3 23.5 213 23.5 212.8 23.5 212.6 23.4 212.3 23.3 212.1 23.2 211.9 23.1 211.9 23.1 211.9 23.1 210.9 21.6 209.9 20.1 209.8 19.9 209.7 19.8 209.6 19.6 209.6 19.4 209.5 19.3 209.5 19.1 209.5 18.9 209.5 18.7 209.6 18.6 209.6 18.4 209.7 18.2 209.8 18.1 209.9 17.9 210.1 17.8 210.2 17.7 210.4 17.6 210.6 17.6 210.7 17.5 210.9 17.5 211.1 17.5 211.3 17.5 211.4 17.6 211.6 17.6 211.8 17.7 211.9 17.8 212.1 17.9 212.1 19.1 212.2 20.3 212.8 20.9 213.4 21.5 213.9 23.6 214.5 25.6 214.5 25.8 214.5 26 214.5 26.2 214.5 26.4 214.4 26.5 214.3 26.7 214.2 26.8 214.1 27 214 27.1 213.9 27.2 213.7 27.3 213.5 27.4 213.4 27.4 213.2 27.5 213 27.5 212.8 27.5 212.6 27.4 212.5 27.4 212.3 27.3 212.2 27.2 212 27.1 211.9 27 211.8 26.8 211.7 26.7 211.6 26.5 211.5 26.4 211.5 26.4 Z" fill="rgb(0, 0, 0, 1)"/>
  <path d="M 213.5 25 Q 213.5 25 213.5 23 213.5 21 213.5 20 213.5 19 213.6 18.2 213.6 17.3 213.1 16.7 212.5 16 212.5 15.8 212.5 15.6 212.6 15.5 212.7 15.3 212.8 15.2 212.9 15 213 14.9 213.1 14.8 213.3 14.7 213.5 14.6 213.6 14.6 213.8 14.5 214 14.5 214.2 14.5 214.4 14.6 214.5 14.6 214.7 14.7 214.9 14.8 215 14.9 215.1 15 215.2 15.2 215.3 15.3 215.4 15.5 215.5 15.6 215.5 15.8 215.5 16 215.8 16 216.1 15.9 216.6 16.4 217.1 16.9 217.6 17.4 218.1 17.9 218.6 18.4 219.1 18.9 219.6 19.4 220.1 19.9 220.6 21.5 221.1 23.1 220.4 23.6 219.8 24.2 218.5 24.3 217.3 24.4 216.7 24.9 216 25.5 215.8 25.5 215.6 25.5 215.5 25.4 215.3 25.3 215.2 25.2 215 25.1 214.9 25 214.8 24.9 214.7 24.7 214.6 24.5 214.6 24.4 214.5 24.2 214.5 24 214.5 23.8 214.6 23.6 214.6 23.5 214.7 23.3 214.8 23.1 214.9 23 215 22.9 215.2 22.8 215.3 22.7 215.5 22.6 215.6 22.5 215.8 22.5 216 22.5 217 22.5 218 22.5 219 22.5 220 22.5 220.2 22.5 220.4 22.5 220.5 22.6 220.7 22.7 220.8 22.8 221 22.9 221.1 23 221.2 23.1 221.3 23.3 221.4 23.5 221.4 23.6 221.5 23.8 221.5 24 221.5 24.2 221.4 24.4 221.4 24.5 221.3 24.7 221.2 24.9 221.1 25 221 25.1 220.8 25.2 220.7 25.3 220.5 25.4 220.4 25.5 220.2 25.5 220 25.5 219 25.5 218 25.5 217 25.5 216 25.5 214.8 26 213.5 26.4 212.5 26.9 211.6 27.4 210.5 27.4 209.3 27.4 209 27.8 208.8 28.2 207.5 28.3 206.3 28.4 206.2 28.7 206.1 29.1 205.4 29.6 204.8 30.2 203.5 30.3 202.3 30.4 202 30.8 201.8 31.2 200.5 31.3 199.3 31.4 199.2 31.7 199.1 32.1 198.4 32.6 197.8 33.2 196.5 33.3 195.3 33.4 195.2 33.7 195.1 34.1 194.6 34.6 194.1 35.1 193.4 35.6 192.8 36.2 191.5 36.3 190.3 36.4 190.2 36.7 190.1 37.1 189.6 37.6 189.1 38.1 188.6 38.6 188.1 39.1 187.4 39.6 186.8 40.2 185.5 40.3 184.3 40.4 184.2 40.7 184.1 41.1 183.6 41.6 183.1 42.1 182.6 42.6 182.1 43.1 181.9 43.2 181.8 43.3 181.6 43.4 181.4 43.4 181.3 43.5 181.1 43.5 180.9 43.5 180.7 43.5 180.6 43.4 180.4 43.4 180.2 43.3 180.1 43.2 179.9 43.1 179.8 42.9 179.7 42.8 179.6 42.6 179.6 42.4 179.5 42.3 179.5 42.1 179.5 41.9 179.5 41.7 179.6 41.6 179.6 41.4 179.7 41.2 179.8 41.1 179.9 40.9 181.3 40.8 182.7 40.6 182.8 40.3 182.9 39.9 183.6 39.4 184.3 38.8 185.5 38.7 186.7 38.6 186.8 38.3 186.9 37.9 187.6 37.4 188.3 36.8 189.3 36.9 190.3 37 190.8 35.9 191.4 34.9 192.5 34.7 193.7 34.6 194 34.2 194.3 33.8 195.5 33.7 196.7 33.6 196.8 33.3 196.9 32.9 197.4 32.4 197.9 31.9 198.4 31.4 198.9 30.9 199.6 30.4 200.3 29.8 201.5 29.7 202.7 29.6 202.8 29.3 202.9 28.9 205 28.2 207 27.5 207.2 27.5 207.5 27.6 207.7 27.7 207.9 27.8 208.1 28 208.2 28.2 208.3 28.4 208.4 28.6 208.5 28.8 208.5 29.1 208.4 29.3 208.4 29.6 208.3 29.8 208.1 30 208 30.1 207.8 30.3 207.5 30.4 207.3 30.5 207.1 30.5 206.8 30.5 206.6 30.4 206.4 30.4 206.2 30.2 206 30.1 205.8 29.9 205.7 29.7 205.6 29.5 205.5 29.2 205.5 29 205.5 28.8 205.6 28.5 205.7 28.3 205.8 28.1 206 27.9 206.2 27.8 206.4 27.6 206.6 27.6 206.8 27.5 207.1 27.5 207.3 27.5 207.5 27.6 207.8 27.7 208 27.9 208.1 28 208.3 28.2 208.4 28.4 208.4 28.7 208.5 28.9 208.5 29.2 208.4 29.4 208.3 29.6 208.2 29.8 208.1 30 207.9 30.2 207.7 30.3 207.5 30.4 207.2 30.5 207 30.5 207 30.5 207 30.5 206 30.8 205.1 31.1 204.2 31.7 203.3 32.4 202.5 32.3 201.8 32.2 201.4 32.6 201.1 33.1 200.6 33.6 200.1 34.1 199.6 34.6 199.1 35.1 198.2 35.7 197.3 36.4 196.5 36.3 195.8 36.2 195 36.8 194.3 37.4 193.5 37.3 192.6 37.1 192.2 38.1 191.7 39 190.7 39.1 189.8 39.2 189.4 39.6 189.1 40.1 188.2 40.7 187.3 41.4 186.5 41.3 185.8 41.2 185.4 41.6 185.1 42.1 184.2 42.7 183.3 43.4 182.7 43.2 182.1 43.1 181.9 43.2 181.8 43.3 181.6 43.4 181.4 43.4 181.3 43.5 181.1 43.5 180.9 43.5 180.7 43.5 180.6 43.4 180.4 43.4 180.2 43.3 180.1 43.2 179.9 43.1 179.8 42.9 179.7 42.8 179.6 42.6 179.6 42.4 179.5 42.3 179.5 42.1 179.5 41.9 179.5 41.7 179.6 41.6 179.6 41.4 179.7 41.2 179.8 41.1 179.9 40.9 180.4 40.4 180.9 39.9 181.4 39.4 181.9 38.9 182.8 38.3 183.7 37.6 184.5 37.7 185.3 37.8 185.6 37.4 185.9 36.9 186.4 36.4 186.9 35.9 187.4 35.4 187.9 34.9 188.8 34.3 189.7 33.6 190.5 33.7 191.3 33.8 191.6 33.4 191.9 32.9 192.4 32.4 192.9 31.9 193.8 31.3 194.7 30.6 195.5 30.7 196.3 30.8 196.6 30.4 196.9 29.9 197.8 29.3 198.7 28.6 199.5 28.7 200.3 28.8 201 28.2 201.7 27.6 202.5 27.7 203.3 27.8 203.6 27.4 203.9 26.9 204.8 26.3 205.7 25.6 206.5 25.7 207.3 25.8 208 25.2 208.7 24.6 209.5 24.6 210.4 24.6 211.5 24.1 212.5 23.6 214.2 23 216 22.5 217 22.5 218 22.5 219 22.5 220 22.5 220.2 22.5 220.4 22.5 220.5 22.6 220.7 22.7 220.8 22.8 221 22.9 221.1 23 221.2 23.1 221.3 23.3 221.4 23.5 221.4 23.6 221.5 23.8 221.5 24 221.5 24.2 221.4 24.4 221.4 24.5 221.3 24.7 221.2 24.9 221.1 25 221 25.1 220.8 25.2 220.7 25.3 220.5 25.4 220.4 25.5 220.2 25.5 220 25.5 219 25.5 218 25.5 217 25.5 216 25.5 215.8 25.5 215.6 25.5 215.5 25.4 215.3 25.3 215.2 25.2 215 25.1 214.9 25 214.8 24.9 214.7 24.7 214.6 24.5 214.6 24.4 214.5 24.2 214.5 24 214.5 23.8 214.6 23.6 214.6 23.5 214.7 23.3 214.8 23.1 214.9 23 215 22.9 215.2 22.8 215.3 22.7 215.5 22.6 215.6 22.5 215.8 22.5 216 22.5 216.3 22.1 216.7 21.6 217.5 21.7 218.3 21.8 218.6 21.4 218.9 20.9 218.4 21.5 217.9 22.1 217.4 21.6 216.9 21.1 216.4 20.6 215.9 20.1 215.4 19.6 214.9 19.1 214.4 18.6 213.9 18.1 213.2 17 212.5 16 212.5 15.8 212.5 15.6 212.6 15.5 212.7 15.3 212.8 15.2 212.9 15 213 14.9 213.1 14.8 213.3 14.7 213.5 14.6 213.6 14.6 213.8 14.5 214 14.5 214.2 14.5 214.4 14.6 214.5 14.6 214.7 14.7 214.9 14.8 215 14.9 215.1 15 215.2 15.2 215.3 15.3 215.4 15.5 215.5 15.6 215.5 15.8 215.5 16 215.9 16.3 216.4 16.7 216.4 17.8 216.5 19 216.5 20 216.5 21 216.5 23 216.5 25 216.5 25.2 216.5 25.4 216.4 25.5 216.3 25.7 216.2 25.8 216.1 26 216 26.1 215.9 26.2 215.7 26.3 215.5 26.4 215.4 26.4 215.2 26.5 215 26.5 214.8 26.5 214.6 26.4 214.5 26.4 214.3 26.3 214.1 26.2 214 26.1 213.9 26 213.8 25.8 213.7 25.7 213.6 25.5 213.5 25.4 213.5 25.2 213.5 25 213.5 25 Z" fill="rgb(0, 0, 0, 1)"/>
  <path d="M 170.1 37.1 Q 170.1 37.1 168.6 38.6 167.1 40.1 166.9 40.2 166.7 40.3 166.4 40.4 166.2 40.5 166 40.5 165.7 40.5 165.5 40.4 165.3 40.3 165.1 40.2 164.9 40 164.8 39.8 164.6 39.6 164.6 39.4 164.5 39.1 164.5 38.9 164.5 38.6 164.6 38.4 164.7 38.2 164.9 38 165.1 37.8 165.3 37.7 165.5 37.6 165.7 37.5 166 37.5 166.2 37.5 166.4 37.6 166.7 37.7 166.9 37.8 167 38 167.2 38.1 167.3 38.3 167.4 38.6 167.5 38.8 167.5 39 167.5 39.3 167.4 39.5 167.3 39.7 167.2 39.9 167 40.1 166.8 40.3 166.6 40.4 166.4 40.5 166.1 40.5 165.9 40.5 165.6 40.4 165.4 40.4 165.2 40.2 165 40.1 164.8 39.9 164.7 39.7 164.6 39.5 164.5 39.3 164.5 39 164.5 38.8 164.6 38.6 164.7 38.3 164.8 38.1 164.9 37.9 164.9 37.9 164.9 37.9 166.4 36.4 167.9 34.9 168.1 34.8 168.2 34.7 168.4 34.6 168.6 34.6 168.7 34.5 168.9 34.5 169.1 34.5 169.3 34.5 169.4 34.6 169.6 34.6 169.8 34.7 169.9 34.8 170.1 34.9 170.2 35.1 170.3 35.2 170.4 35.4 170.4 35.6 170.5 35.7 170.5 35.9 170.5 36.1 170.5 36.3 170.4 36.4 170.4 36.6 170.3 36.8 170.2 36.9 170.1 37.1 170.1 37.1 Z" fill="rgb(0, 0, 0, 1)"/>
  <path d="M 205.2 65.2 Q 205.2 65.2 206.2 66.7 207.2 68.2 207.8 69.2 208.3 70.3 208.8 71.3 209.3 72.3 209.8 72.8 210.2 73.3 210.3 74.6 210.5 75.9 210.9 76.6 211.3 77.3 211.9 78.4 212.4 79.4 212.4 80.7 212.5 82 211.8 82.3 211 82.5 212 82.5 213 82.5 214 82.5 215 82.5 216.3 82.6 217.7 82.6 217.8 82.3 218 81.9 219.7 81.3 221.5 80.6 221.7 80.3 221.9 79.9 222.6 79.4 223.3 78.8 223.9 78.4 224.5 78 224.5 77.8 224.6 77.5 224.7 77.3 224.8 77.1 225 76.9 225.2 76.8 225.4 76.7 225.6 76.6 225.8 76.5 226.1 76.5 226.3 76.6 226.6 76.6 226.8 76.7 227 76.9 227.1 77 227.3 77.2 227.4 77.5 227.5 77.7 227.5 77.9 227.5 78.2 227.4 78.4 227.4 78.6 227.2 78.8 227.1 79 226.9 79.2 226.7 79.3 226.5 79.4 226.2 79.5 226 79.5 225.8 79.5 225.5 79.4 225.3 79.3 225.1 79.2 224.9 79 224.8 78.8 224.6 78.6 224.6 78.4 224.5 78.2 224.5 77.9 224.5 77.7 224.6 77.5 224.7 77.2 224.9 77 225 76.9 225.2 76.7 225.4 76.6 225.7 76.6 225.9 76.5 226.2 76.5 226.4 76.6 226.6 76.7 226.8 76.8 227 76.9 227.2 77.1 227.3 77.3 227.4 77.5 227.5 77.8 227.5 78 227.5 78 227.5 78 226.1 79.6 224.8 81.2 224.4 81.6 224.1 82.1 223.3 82.7 222.5 83.4 221.3 83.7 220 84.1 219.2 84.7 218.3 85.4 216.7 85.4 215 85.5 214 85.5 213 85.5 212 85.5 211 85.5 210.3 83.8 209.5 82 209.6 81.3 209.6 80.6 209.2 79.6 208.7 78.7 208.1 77.4 207.5 76.1 207.7 75.4 207.8 74.8 207.2 74.2 206.7 73.7 206.2 72.7 205.7 71.7 205.2 70.8 204.8 69.8 203.8 68.3 202.8 66.8 202.7 66.7 202.6 66.5 202.5 66.3 202.5 66.2 202.5 66 202.5 65.8 202.6 65.6 202.6 65.4 202.7 65.3 202.8 65.1 202.9 65 203 64.9 203.2 64.8 203.3 64.7 203.5 64.6 203.7 64.5 203.8 64.5 204 64.5 204.2 64.5 204.4 64.5 204.6 64.6 204.7 64.7 204.9 64.8 205 64.9 205.1 65 205.2 65.2 205.2 65.2 Z" fill="rgb(0, 0, 0, 1)"/>
  <path d="M 216.5 68 Q 216.5 68 216.5 71 216.5 73.9 216.9 74.6 217.3 75.3 217.9 77.5 218.5 79.6 218.9 80.5 219.3 81.3 219.8 82.3 220.3 83.3 220.8 84.3 221.3 85.3 221.9 86.9 222.4 88.5 222.7 88.7 223.1 89 224.1 91 225.1 92.9 225.2 93.1 225.3 93.3 225.4 93.6 225.5 93.8 225.5 94 225.5 94.3 225.4 94.5 225.3 94.7 225.2 94.9 225 95.1 224.8 95.2 224.6 95.4 224.4 95.4 224.1 95.5 223.9 95.5 223.6 95.5 223.4 95.4 223.2 95.3 223 95.1 222.8 94.9 222.7 94.7 222.6 94.5 222.5 94.3 222.5 94 222.5 93.8 222.6 93.6 222.7 93.3 222.8 93.1 223 93 223.1 92.8 223.3 92.7 223.6 92.6 223.8 92.5 224 92.5 224.3 92.5 224.5 92.6 224.7 92.7 224.9 92.8 225.1 93 225.3 93.2 225.4 93.4 225.5 93.6 225.5 93.9 225.5 94.1 225.4 94.4 225.4 94.6 225.2 94.8 225.1 95 224.9 95.2 224.7 95.3 224.5 95.4 224.3 95.5 224 95.5 223.8 95.5 223.6 95.4 223.3 95.3 223.1 95.2 222.9 95.1 222.9 95.1 222.9 95.1 221.9 93 220.9 91 220.3 90.3 219.6 89.5 219.1 88.1 218.7 86.7 218.2 85.7 217.7 84.7 217.2 83.7 216.7 82.7 216.1 81.5 215.5 80.4 215.1 78.5 214.7 76.7 214.1 75.4 213.5 74.1 213.5 71 213.5 68 213.5 67.8 213.5 67.6 213.6 67.5 213.7 67.3 213.8 67.2 213.9 67 214 66.9 214.1 66.8 214.3 66.7 214.5 66.6 214.6 66.6 214.8 66.5 215 66.5 215.2 66.5 215.4 66.6 215.5 66.6 215.7 66.7 215.9 66.8 216 66.9 216.1 67 216.2 67.2 216.3 67.3 216.4 67.5 216.5 67.6 216.5 67.8 216.5 68 216.5 68 Z" fill="rgb(0, 0, 0, 1)"/>
  <path d="M 248.5 15.6 Q 248.5 15.6 250.1 16.2 251.7 16.8 252.5 18.1 253.3 19.3 253.7 19.6 254 19.9 254.9 20.3 255.7 20.7 256.9 21.8 258.1 22.9 259.4 23.8 260.7 24.7 262.3 24.6 264 24.5 264.2 24.5 264.5 24.6 264.7 24.7 264.9 24.8 265.1 25 265.2 25.2 265.3 25.4 265.4 25.6 265.5 25.8 265.5 26.1 265.4 26.3 265.4 26.6 265.3 26.8 265.1 27 265 27.1 264.8 27.3 264.5 27.4 264.3 27.5 264.1 27.5 263.8 27.5 263.6 27.4 263.4 27.4 263.2 27.2 263 27.1 262.8 26.9 262.7 26.7 262.6 26.5 262.5 26.2 262.5 26 262.5 25.8 262.6 25.5 262.7 25.3 262.8 25.1 263 24.9 263.2 24.8 263.4 24.6 263.6 24.6 263.8 24.5 264.1 24.5 264.3 24.5 264.5 24.6 264.8 24.7 265 24.9 265.1 25 265.3 25.2 265.4 25.4 265.4 25.7 265.5 25.9 265.5 26.2 265.4 26.4 265.3 26.6 265.2 26.8 265.1 27 264.9 27.2 264.7 27.3 264.5 27.4 264.2 27.5 264 27.5 264 27.5 264 27.5 261.7 27.4 259.3 27.3 257.6 26.2 255.9 25.1 255.1 24.2 254.3 23.3 253.1 22.7 252 22.1 251.3 21.4 250.7 20.7 250.5 19.9 250.3 19.2 248.9 18.8 247.5 18.4 247.4 18.3 247.2 18.3 247.1 18.2 246.9 18 246.8 17.9 246.7 17.8 246.6 17.6 246.6 17.4 246.5 17.2 246.5 17.1 246.5 16.9 246.5 16.7 246.6 16.5 246.6 16.4 246.7 16.2 246.8 16.1 247 15.9 247.1 15.8 247.3 15.7 247.4 15.6 247.6 15.6 247.8 15.5 247.9 15.5 248.1 15.5 248.3 15.5 248.5 15.6 248.5 15.6 Z" fill="rgb(0, 0, 0, 1)"/>
  <path d="M 257.4 13.6 Q 257.4 13.6 256.4 16.1 255.4 18.6 254.9 19.6 254.4 20.6 254.4 21.3 254.5 22.1 253.9 23.4 253.3 24.7 252.9 25.6 252.4 26.6 252.4 27.3 252.5 28 252.5 30 252.5 32 252.5 32.2 252.4 32.5 252.3 32.7 252.2 32.9 252 33.1 251.8 33.2 251.6 33.3 251.4 33.4 251.2 33.5 250.9 33.5 250.7 33.4 250.4 33.4 250.2 33.3 250 33.1 249.9 33 249.7 32.8 249.6 32.5 249.5 32.3 249.5 32.1 249.5 31.8 249.6 31.6 249.6 31.4 249.8 31.2 249.9 31 250.1 30.8 250.3 30.7 250.5 30.6 250.8 30.5 251 30.5 251.2 30.5 251.5 30.6 251.7 30.7 251.9 30.8 252.1 31 252.2 31.2 252.4 31.4 252.4 31.6 252.5 31.8 252.5 32.1 252.5 32.3 252.4 32.5 252.3 32.8 252.1 33 252 33.1 251.8 33.3 251.6 33.4 251.3 33.4 251.1 33.5 250.8 33.5 250.6 33.4 250.4 33.3 250.2 33.2 250 33.1 249.8 32.9 249.7 32.7 249.6 32.5 249.5 32.2 249.5 32 249.5 32 249.5 32 249.5 30 249.5 28 249.6 26.7 249.6 25.4 250.2 24.4 250.7 23.3 251.1 22.6 251.5 21.9 251.6 20.7 251.6 19.4 252.1 18.4 252.6 17.4 253.6 14.9 254.6 12.4 254.7 12.3 254.8 12.1 254.9 12 255 11.9 255.2 11.8 255.3 11.7 255.5 11.6 255.7 11.5 255.8 11.5 256 11.5 256.2 11.5 256.4 11.6 256.6 11.6 256.7 11.7 256.9 11.8 257 11.9 257.1 12 257.2 12.2 257.3 12.3 257.4 12.5 257.5 12.7 257.5 12.8 257.5 13 257.5 13.2 257.4 13.4 257.4 13.6 257.4 13.6 Z" fill="rgb(0, 0, 0, 1)"/>
  <path d="M 285 45.5 Q 285 45.5 282.5 45.5 280.1 45.5 279.3 45.9 278.6 46.4 277.5 46.4 276.3 46.4 276.2 46.7 276.1 47.1 275.6 47.4 275.2 47.8 275.3 48.4 275.5 49 275.4 49.8 275.4 50.7 275.7 50.8 276.1 51 276.6 52.1 277.2 53.2 277.9 53.4 278.7 53.7 279.7 54.2 280.7 54.7 281.7 55.2 282.7 55.7 283.7 56.2 284.7 56.7 285.4 57.3 286 57.9 286.9 58.3 287.7 58.7 288.7 59.2 289.7 59.7 290.4 60.3 291.1 60.9 291.6 61.6 292.2 62.3 292.3 63.6 292.5 65 291.8 66.8 291 68.5 290 68.5 289 68.5 288 68.5 287 68.5 286 68.5 285 68.5 284 68.5 283 68.5 281.5 68.5 280 68.5 278.3 68 276.5 67.4 274.6 66.9 272.6 66.5 271.8 66.5 271 66.5 269 66.5 267 66.5 266.8 66.5 266.5 66.4 266.3 66.3 266.1 66.2 265.9 66 265.8 65.8 265.7 65.6 265.6 65.4 265.5 65.2 265.5 64.9 265.6 64.7 265.6 64.4 265.7 64.2 265.9 64 266 63.9 266.2 63.7 266.5 63.6 266.7 63.5 266.9 63.5 267.2 63.5 267.4 63.6 267.6 63.6 267.8 63.8 268 63.9 268.2 64.1 268.3 64.3 268.4 64.5 268.5 64.8 268.5 65 268.5 65.2 268.4 65.5 268.3 65.7 268.2 65.9 268 66.1 267.8 66.2 267.6 66.4 267.4 66.4 267.2 66.5 266.9 66.5 266.7 66.5 266.5 66.4 266.2 66.3 266 66.1 265.9 66 265.7 65.8 265.6 65.6 265.6 65.3 265.5 65.1 265.5 64.8 265.6 64.6 265.7 64.4 265.8 64.2 265.9 64 266.1 63.8 266.3 63.7 266.5 63.6 266.8 63.5 267 63.5 267 63.5 267 63.5 269 63.5 271 63.5 272.2 63.5 273.4 63.5 275.4 64.1 277.5 64.6 278.7 65 280 65.5 281.5 65.5 283 65.5 284 65.5 285 65.5 286 65.5 287 65.5 288 65.5 289 65.5 290 65.5 291 65.5 290.3 65.3 289.5 65 289.7 64.4 289.8 63.8 289.4 63.4 288.9 63.1 288.6 62.7 288.3 62.3 287.3 61.8 286.3 61.3 285.1 60.7 284 60.1 283.6 59.7 283.3 59.3 282.3 58.8 281.3 58.3 280.3 57.8 279.3 57.3 278.3 56.8 277.3 56.3 276.1 55.6 274.8 54.8 274.4 53.9 273.9 53 273.3 52.2 272.6 51.3 272.6 50.2 272.5 49 272.7 47.6 272.8 46.3 273.4 45.6 273.9 44.9 274.8 44.3 275.7 43.6 276.5 43.6 277.4 43.6 278.7 43.1 279.9 42.5 282.5 42.5 285 42.5 285.2 42.5 285.4 42.5 285.5 42.6 285.7 42.7 285.8 42.8 286 42.9 286.1 43 286.2 43.1 286.3 43.3 286.4 43.5 286.4 43.6 286.5 43.8 286.5 44 286.5 44.2 286.4 44.4 286.4 44.5 286.3 44.7 286.2 44.9 286.1 45 286 45.1 285.8 45.2 285.7 45.3 285.5 45.4 285.4 45.5 285.2 45.5 285 45.5 285 45.5 Z" fill="rgb(0, 0, 0, 1)"/>
  <path d="M 283.5 37 Q 283.5 37 283.5 39 283.5 41 283 42.7 282.4 44.5 281.9 46 281.4 47.5 281.5 48.2 281.5 49 281.5 50.5 281.5 52 281 53.7 280.4 55.5 280.5 56.7 280.5 58 280.5 60 280.5 62 280 63.7 279.4 65.5 279.5 66.7 279.5 68 279.5 69 279.5 70 279.4 71.3 279.4 72.7 279.9 74.3 280.5 76 280.5 76.2 280.4 76.5 280.3 76.7 280.2 76.9 280 77.1 279.8 77.2 279.6 77.3 279.4 77.4 279.2 77.5 278.9 77.5 278.7 77.4 278.4 77.4 278.2 77.3 278 77.1 277.9 77 277.7 76.8 277.6 76.5 277.5 76.3 277.5 76.1 277.5 75.8 277.6 75.6 277.6 75.4 277.8 75.2 277.9 75 278.1 74.8 278.3 74.7 278.5 74.6 278.8 74.5 279 74.5 279.2 74.5 279.5 74.6 279.7 74.7 279.9 74.8 280.1 75 280.2 75.2 280.4 75.4 280.4 75.6 280.5 75.8 280.5 76.1 280.5 76.3 280.4 76.5 280.3 76.8 280.1 77 280 77.1 279.8 77.3 279.6 77.4 279.3 77.4 279.1 77.5 278.8 77.5 278.6 77.4 278.4 77.3 278.2 77.2 278 77.1 277.8 76.9 277.7 76.7 277.6 76.5 277.5 76.2 277.5 76 277.5 76 277.5 76 277.1 74.7 276.6 73.3 276.6 71.7 276.5 70 276.5 69 276.5 68 276.5 66.3 276.6 64.6 277 63.3 277.5 62 277.5 60 277.5 58 277.5 56.3 277.6 54.6 278 53.3 278.5 52 278.5 50.5 278.5 49 278.5 47.8 278.6 46.6 279.1 45 279.6 43.5 280 42.3 280.5 41 280.5 39 280.5 37 280.5 36.8 280.5 36.6 280.6 36.5 280.7 36.3 280.8 36.2 280.9 36 281 35.9 281.1 35.8 281.3 35.7 281.5 35.6 281.6 35.6 281.8 35.5 282 35.5 282.2 35.5 282.4 35.6 282.5 35.6 282.7 35.7 282.9 35.8 283 35.9 283.1 36 283.2 36.2 283.3 36.3 283.4 36.5 283.5 36.6 283.5 36.8 283.5 37 283.5 37 Z" fill="rgb(0, 0, 0, 1)"/>
  <path d="M 334.9 27.1 Q 334.9 27.1 334.1 26.1 333.3 25.2 332.6 25.3 332 25.5 331.4 25.3 330.7 25 330.6 25.8 330.4 26.6 330.4 27.8 330.5 29 330.5 31 330.5 33 330.4 33.8 330.4 34.7 330.7 34.8 331.1 35 331.7 36.1 332.3 37.3 332.1 37.5 331.9 37.7 332.6 37.2 333.3 36.7 333.6 36.3 333.9 35.9 334.4 35.4 334.9 34.9 335.4 34.4 335.9 34 336.3 33.2 336.6 32.4 336.6 31.7 336.5 31 336.5 30 336.5 29 336.5 28 336.5 27 336.5 26.8 336.5 26.6 336.6 26.5 336.7 26.3 336.8 26.2 336.9 26 337 25.9 337.1 25.8 337.3 25.7 337.5 25.6 337.6 25.6 337.8 25.5 338 25.5 338.2 25.5 338.4 25.6 338.5 25.6 338.7 25.7 338.9 25.8 339 25.9 339.1 26 339.2 26.2 339.3 26.3 339.4 26.5 339.5 26.6 339.5 26.8 339.5 27 339.5 28 339.5 29 339.5 30 339.5 31 339.5 32 339.5 33 339.4 33.8 339.4 34.7 339.7 34.8 340.1 34.9 340.6 35.6 341.2 36.3 340.6 36.9 340 37.5 340.8 37.6 341.7 37.6 341.8 37.4 341.8 37.3 341.7 36.5 341.6 35.7 342.2 35 342.8 34.3 342.7 33.6 342.5 33 342.5 32 342.5 31 342.5 30 342.5 29 342.5 28 342.5 27 342.6 26.2 342.6 25.3 342.2 25 341.8 24.8 341.7 23.5 341.6 22.3 341.3 22.2 340.9 22.1 340.4 21.6 339.9 21.1 339.4 20.6 338.9 20.1 338.4 19.6 337.9 19.1 337.6 18.6 337.3 18.2 336.6 18.3 336 18.5 335 18.5 334 18.5 333.2 18.4 332.3 18.4 332.2 18.7 332 19.1 330.9 19.7 329.7 20.3 329.4 20.7 329.1 21.1 328.6 21.6 328.1 22.1 327.6 22.6 327.1 23.1 326.6 23.4 326.2 23.8 326.3 24.5 326.4 25.3 325.7 26.2 325.1 27.1 324.6 27.4 324.2 27.8 324.3 28.4 324.5 29 324.5 30 324.5 31 324.5 32 324.5 33 324.5 34 324.5 35 324.4 35.8 324.4 36.7 324.7 36.8 325.1 36.9 325.6 37.4 326.1 38 326.7 39.1 327.3 40.3 327.7 40.6 328.1 40.9 328.6 41.4 329.1 41.9 329.6 42.4 330.1 42.9 330.6 43.4 331.1 43.9 331.4 44.4 331.8 44.8 332.5 44.7 333.3 44.6 334 45.2 334.8 45.8 335.4 45.7 336 45.5 337 45.5 338 45.5 339 45.5 340 45.5 340.8 45.6 341.7 45.6 342 45.2 342.3 44.8 343.5 44.7 344.7 44.6 346 43.6 347.3 42.7 347.6 42.6 347.8 42.5 348 42.5 348.3 42.5 348.5 42.6 348.7 42.7 348.9 42.8 349.1 43 349.2 43.2 349.4 43.4 349.4 43.6 349.5 43.9 349.5 44.1 349.5 44.4 349.4 44.6 349.3 44.8 349.1 45 348.9 45.2 348.7 45.3 348.5 45.4 348.3 45.5 348 45.5 347.8 45.5 347.6 45.4 347.3 45.3 347.1 45.2 347 45 346.8 44.9 346.7 44.7 346.6 44.4 346.5 44.2 346.5 44 346.5 43.7 346.6 43.5 346.7 43.3 346.8 43.1 347 42.9 347.2 42.7 347.4 42.6 347.6 42.5 347.9 42.5 348.1 42.5 348.4 42.6 348.6 42.6 348.8 42.8 349 42.9 349.2 43.1 349.3 43.3 349.4 43.5 349.5 43.7 349.5 44 349.5 44.2 349.4 44.4 349.3 44.7 349.2 44.9 349.1 45.1 348.9 45.2 348.7 45.3 348.7 45.3 348.7 45.3 347 46.4 345.3 47.4 344.5 47.3 343.8 47.2 343 47.8 342.3 48.4 341.2 48.4 340 48.5 339 48.5 338 48.5 337 48.5 336 48.5 334.6 48.3 333.3 48.2 333 47.8 332.7 47.4 331.5 47.3 330.3 47.2 329.6 46.6 328.9 46.1 328.4 45.6 327.9 45.1 327.4 44.6 326.9 44.1 326.4 43.6 325.9 43.1 325.3 42.4 324.7 41.7 324.3 40.9 323.9 40 323.4 39.6 322.9 39.1 322.3 38.2 321.6 37.3 321.6 36.2 321.5 35 321.5 34 321.5 33 321.5 32 321.5 31 321.5 30 321.5 29 321.7 27.6 321.8 26.3 322.4 25.6 322.9 24.9 323.3 24.8 323.6 24.7 323.7 23.5 323.8 22.3 324.4 21.6 324.9 20.9 325.4 20.4 325.9 19.9 326.4 19.4 326.9 18.9 327.6 18.3 328.3 17.7 329.1 17.3 330 16.9 330.8 16.3 331.7 15.6 332.8 15.6 334 15.5 335 15.5 336 15.5 337.4 15.7 338.8 15.8 339.4 16.4 340.1 16.9 340.6 17.4 341.1 17.9 341.6 18.4 342.1 18.9 342.6 19.4 343.1 19.9 343.7 20.8 344.4 21.7 344.3 22.5 344.2 23.3 344.8 24 345.4 24.7 345.4 25.8 345.5 27 345.5 28 345.5 29 345.5 30 345.5 31 345.5 32 345.5 33 345.3 34.4 345.2 35.8 344.8 36 344.4 36.3 344.3 37.5 344.2 38.8 343.3 39.6 342.3 40.4 341.2 40.4 340 40.5 339.4 39.1 338.8 37.8 338.4 37.4 337.9 37.1 337.3 36.2 336.6 35.3 336.6 34.2 336.5 33 336.5 32 336.5 31 336.5 30 336.5 29 336.5 28 336.5 27 336.5 26.8 336.5 26.6 336.6 26.5 336.7 26.3 336.8 26.2 336.9 26 337 25.9 337.1 25.8 337.3 25.7 337.5 25.6 337.6 25.6 337.8 25.5 338 25.5 338.2 25.5 338.4 25.6 338.5 25.6 338.7 25.7 338.9 25.8 339 25.9 339.1 26 339.2 26.2 339.3 26.3 339.4 26.5 339.5 26.6 339.5 26.8 339.5 27 339.5 28 339.5 29 339.5 30 339.5 31 339.4 32.3 339.4 33.6 338.7 34.8 338.1 36 337.6 36.6 337.1 37.1 336.6 37.6 336.1 38.1 335.4 38.7 334.7 39.3 333.4 39.8 332.1 40.3 330.9 39.5 329.7 38.7 329.3 37.9 328.9 37 328.3 36.2 327.6 35.3 327.6 34.2 327.5 33 327.5 31 327.5 29 327.6 27.2 327.6 25.4 328.5 24.2 329.3 23 330.6 22.7 332 22.5 333.4 22.7 334.8 22.8 335.9 23.9 337.1 24.9 337.2 25.1 337.3 25.2 337.4 25.4 337.4 25.6 337.5 25.7 337.5 25.9 337.5 26.1 337.5 26.3 337.4 26.4 337.4 26.6 337.3 26.8 337.2 26.9 337.1 27.1 336.9 27.2 336.8 27.3 336.6 27.4 336.4 27.4 336.3 27.5 336.1 27.5 335.9 27.5 335.7 27.5 335.6 27.4 335.4 27.4 335.2 27.3 335.1 27.2 334.9 27.1 334.9 27.1 Z" fill="rgb(0, 0, 0, 1)"/>
  <path d="M 378.5 24.6 Q 378.5 24.6 380 25.1 381.5 25.6 382.2 25.5 383 25.5 384 25.5 385 25.5 386 25.5 387 25.5 388.8 26.3 390.5 27 390.5 28 390.5 29.1 389.9 30.4 389.3 31.7 388.8 32.7 388.3 33.7 387.8 34.7 387.3 35.7 386.8 36.2 386.2 36.8 386.3 37.4 386.5 38.1 385.9 39.3 385.4 40.6 385.4 41.5 385.4 42.3 384.8 43 384.2 43.8 384.3 44.4 384.5 45 383.3 47.5 382.1 50.1 381.9 50.2 381.7 50.3 381.4 50.4 381.2 50.5 381 50.5 380.7 50.5 380.5 50.4 380.3 50.3 380.1 50.2 379.9 50 379.8 49.8 379.6 49.6 379.6 49.4 379.5 49.1 379.5 48.9 379.5 48.6 379.6 48.4 379.7 48.2 379.9 48 380.1 47.8 380.3 47.7 380.5 47.6 380.7 47.5 381 47.5 381.2 47.5 381.4 47.6 381.7 47.7 381.9 47.8 382 48 382.2 48.1 382.3 48.3 382.4 48.6 382.5 48.8 382.5 49 382.5 49.3 382.4 49.5 382.3 49.7 382.2 49.9 382 50.1 381.8 50.3 381.6 50.4 381.4 50.5 381.1 50.5 380.9 50.5 380.6 50.4 380.4 50.4 380.2 50.2 380 50.1 379.8 49.9 379.7 49.7 379.6 49.5 379.5 49.3 379.5 49 379.5 48.8 379.6 48.6 379.7 48.3 379.8 48.1 379.9 47.9 379.9 47.9 379.9 47.9 380.7 46.5 381.5 45 381.7 43.6 381.8 42.3 382.2 42 382.6 41.7 382.6 40.5 382.6 39.4 383.1 38.7 383.5 37.9 383.7 36.6 383.8 35.3 384.2 34.8 384.7 34.3 385.2 33.3 385.7 32.3 386.2 31.3 386.7 30.3 387.1 29.6 387.5 28.9 387.5 28 387.5 27 387.3 27.8 387 28.5 386 28.5 385 28.5 384 28.5 383 28.5 381.8 28.5 380.6 28.4 379 27.9 377.5 27.4 377.4 27.3 377.2 27.3 377.1 27.2 376.9 27 376.8 26.9 376.7 26.8 376.6 26.6 376.6 26.4 376.5 26.2 376.5 26.1 376.5 25.9 376.5 25.7 376.6 25.5 376.6 25.4 376.7 25.2 376.8 25.1 377 24.9 377.1 24.8 377.3 24.7 377.4 24.6 377.6 24.6 377.8 24.5 377.9 24.5 378.1 24.5 378.3 24.5 378.5 24.6 378.5 24.6 Z" fill="rgb(0, 0, 0, 1)"/>
  <path d="M 377.6 38.5 Q 377.6 38.5 379.6 38 381.6 37.5 382.8 37.5 384 37.5 385.5 37.5 386.9 37.5 387.7 37.1 388.4 36.6 389.7 36.3 390.9 35.9 391.1 35.8 391.3 35.7 391.6 35.6 391.8 35.5 392 35.5 392.3 35.5 392.5 35.6 392.7 35.7 392.9 35.8 393.1 36 393.2 36.2 393.4 36.4 393.4 36.6 393.5 36.9 393.5 37.1 393.5 37.4 393.4 37.6 393.3 37.8 393.1 38 392.9 38.2 392.7 38.3 392.5 38.4 392.3 38.5 392 38.5 391.8 38.5 391.6 38.4 391.3 38.3 391.1 38.2 391 38 390.8 37.9 390.7 37.7 390.6 37.4 390.5 37.2 390.5 37 390.5 36.7 390.6 36.5 390.7 36.3 390.8 36.1 391 35.9 391.2 35.7 391.4 35.6 391.6 35.5 391.9 35.5 392.1 35.5 392.4 35.6 392.6 35.6 392.8 35.8 393 35.9 393.2 36.1 393.3 36.3 393.4 36.5 393.5 36.7 393.5 37 393.5 37.2 393.4 37.4 393.3 37.7 393.2 37.9 393.1 38.1 393.1 38.1 393.1 38.1 391.3 38.7 389.6 39.4 388.3 39.9 387.1 40.5 385.5 40.5 384 40.5 383.2 40.5 382.4 40.5 380.4 41 378.4 41.5 378.2 41.5 378 41.5 377.8 41.5 377.6 41.5 377.5 41.4 377.3 41.3 377.2 41.2 377 41.1 376.9 41 376.8 40.9 376.7 40.7 376.6 40.5 376.6 40.4 376.5 40.2 376.5 40 376.5 39.8 376.6 39.6 376.6 39.5 376.7 39.3 376.8 39.2 376.9 39 377 38.9 377.2 38.8 377.3 38.7 377.5 38.6 377.6 38.5 377.6 38.5 Z" fill="rgb(0, 0, 0, 1)"/>
  <path d="M 146.5 16.6 Q 146.5 16.6 147 18.6 147.5 20.6 147.4 21.7 147.4 22.7 147.9 24.3 148.5 26 148.5 26.2 148.4 26.5 148.3 26.7 148.2 26.9 148 27.1 147.8 27.2 147.6 27.3 147.4 27.4 147.2 27.5 146.9 27.5 146.7 27.4 146.4 27.4 146.2 27.3 146 27.1 145.9 27 145.7 26.8 145.6 26.5 145.5 26.3 145.5 26.1 145.5 25.8 145.6 25.6 145.6 25.4 145.8 25.2 145.9 25 146.1 24.8 146.3 24.7 146.5 24.6 146.8 24.5 147 24.5 147.2 24.5 147.5 24.6 147.7 24.7 147.9 24.8 148.1 25 148.2 25.2 148.4 25.4 148.4 25.6 148.5 25.8 148.5 26.1 148.5 26.3 148.4 26.5 148.3 26.8 148.1 27 148 27.1 147.8 27.3 147.6 27.4 147.3 27.4 147.1 27.5 146.8 27.5 146.6 27.4 146.4 27.3 146.2 27.2 146 27.1 145.8 26.9 145.7 26.7 145.6 26.5 145.5 26.2 145.5 26 145.5 26 145.5 26 145.1 24.7 144.6 23.3 144.6 22.3 144.5 21.4 144 19.4 143.5 17.4 143.5 17.2 143.5 17 143.5 16.8 143.5 16.6 143.6 16.5 143.7 16.3 143.8 16.2 143.9 16 144 15.9 144.1 15.8 144.3 15.7 144.5 15.6 144.6 15.6 144.8 15.5 145 15.5 145.2 15.5 145.4 15.6 145.5 15.6 145.7 15.7 145.8 15.8 146 15.9 146.1 16 146.2 16.2 146.3 16.3 146.4 16.5 146.5 16.6 146.5 16.6 Z" fill="rgb(0, 0, 0, 1)"/>
  <path d="M 141.1 22.8 Q 141.1 22.8 143.1 21.3 145.1 19.8 145.5 19.4 146 18.9 147.8 18.2 149.5 17.6 151.4 16.6 153.3 15.7 153.6 15.6 153.8 15.5 154 15.5 154.3 15.5 154.5 15.6 154.7 15.7 154.9 15.8 155.1 16 155.2 16.2 155.4 16.4 155.4 16.6 155.5 16.9 155.5 17.1 155.5 17.4 155.4 17.6 155.3 17.8 155.1 18 154.9 18.2 154.7 18.3 154.5 18.4 154.3 18.5 154 18.5 153.8 18.5 153.6 18.4 153.3 18.3 153.1 18.2 153 18 152.8 17.9 152.7 17.7 152.6 17.4 152.5 17.2 152.5 17 152.5 16.7 152.6 16.5 152.7 16.3 152.8 16.1 153 15.9 153.2 15.7 153.4 15.6 153.6 15.5 153.9 15.5 154.1 15.5 154.4 15.6 154.6 15.6 154.8 15.8 155 15.9 155.2 16.1 155.3 16.3 155.4 16.5 155.5 16.7 155.5 17 155.5 17.2 155.4 17.4 155.3 17.7 155.2 17.9 155.1 18.1 154.9 18.2 154.7 18.3 154.7 18.3 154.7 18.3 152.6 19.4 150.5 20.4 149.2 20.8 148 21.1 147.5 21.6 146.9 22.2 144.9 23.7 142.9 25.2 142.7 25.3 142.6 25.4 142.4 25.4 142.2 25.5 142.1 25.5 141.9 25.5 141.7 25.5 141.5 25.4 141.4 25.3 141.2 25.3 141.1 25.2 140.9 25 140.8 24.9 140.7 24.7 140.6 24.6 140.6 24.4 140.5 24.2 140.5 24.1 140.5 23.9 140.5 23.7 140.6 23.5 140.6 23.4 140.7 23.2 140.8 23.1 141 22.9 141.1 22.8 141.1 22.8 Z" fill="rgb(0, 0, 0, 1)"/>
  <path d="M 142.7 15.7 Q 142.7 15.7 144.7 16.7 146.7 17.7 147.6 18.2 148.6 18.6 149.5 18.6 150.3 18.6 151.2 19.3 152.1 19.9 152.6 20.4 153.1 20.9 154.6 22.4 156.1 23.9 156.2 24.1 156.3 24.3 156.4 24.6 156.5 24.8 156.5 25 156.5 25.3 156.4 25.5 156.3 25.7 156.2 25.9 156 26.1 155.8 26.2 155.6 26.4 155.4 26.4 155.1 26.5 154.9 26.5 154.6 26.5 154.4 26.4 154.2 26.3 154 26.1 153.8 25.9 153.7 25.7 153.6 25.5 153.5 25.3 153.5 25 153.5 24.8 153.6 24.6 153.7 24.3 153.8 24.1 154 24 154.1 23.8 154.3 23.7 154.6 23.6 154.8 23.5 155 23.5 155.3 23.5 155.5 23.6 155.7 23.7 155.9 23.8 156.1 24 156.3 24.2 156.4 24.4 156.5 24.6 156.5 24.9 156.5 25.1 156.4 25.4 156.4 25.6 156.2 25.8 156.1 26 155.9 26.2 155.7 26.3 155.5 26.4 155.3 26.5 155 26.5 154.8 26.5 154.6 26.4 154.3 26.3 154.1 26.2 153.9 26.1 153.9 26.1 153.9 26.1 152.4 24.6 150.9 23.1 150.4 22.6 149.9 22.1 149.8 21.7 149.7 21.4 148.5 21.4 147.4 21.4 146.4 20.9 145.3 20.3 143.3 19.3 141.3 18.3 141.2 18.2 141 18.1 140.9 18 140.8 17.9 140.7 17.7 140.6 17.6 140.6 17.4 140.5 17.2 140.5 17 140.5 16.8 140.5 16.7 140.6 16.5 140.7 16.3 140.7 16.2 140.9 16 141 15.9 141.1 15.8 141.3 15.7 141.4 15.6 141.6 15.6 141.8 15.5 142 15.5 142.2 15.5 142.3 15.5 142.5 15.6 142.7 15.7 142.7 15.7 Z" fill="rgb(0, 0, 0, 1)"/>
  <path d="M 149.4 13.6 Q 149.4 13.6 148.4 16.1 147.4 18.6 146.2 19.8 145.1 21 144.1 22.6 143.1 24.1 142.9 24.2 142.7 24.3 142.4 24.4 142.2 24.5 142 24.5 141.7 24.5 141.5 24.4 141.3 24.3 141.1 24.2 140.9 24 140.8 23.8 140.6 23.6 140.6 23.4 140.5 23.1 140.5 22.9 140.5 22.6 140.6 22.4 140.7 22.2 140.9 22 141.1 21.8 141.3 21.7 141.5 21.6 141.7 21.5 142 21.5 142.2 21.5 142.4 21.6 142.7 21.7 142.9 21.8 143 22 143.2 22.1 143.3 22.3 143.4 22.6 143.5 22.8 143.5 23 143.5 23.3 143.4 23.5 143.3 23.7 143.2 23.9 143 24.1 142.8 24.3 142.6 24.4 142.4 24.5 142.1 24.5 141.9 24.5 141.6 24.4 141.4 24.4 141.2 24.2 141 24.1 140.8 23.9 140.7 23.7 140.6 23.5 140.5 23.3 140.5 23 140.5 22.8 140.6 22.6 140.7 22.3 140.8 22.1 140.9 21.9 140.9 21.9 140.9 21.9 141.9 20.4 142.9 19 143.8 18.2 144.6 17.4 145.6 14.9 146.6 12.4 146.7 12.3 146.8 12.1 146.9 12 147 11.9 147.2 11.8 147.3 11.7 147.5 11.6 147.7 11.5 147.8 11.5 148 11.5 148.2 11.5 148.4 11.6 148.6 11.6 148.7 11.7 148.9 11.8 149 11.9 149.1 12 149.2 12.2 149.3 12.3 149.4 12.5 149.5 12.7 149.5 12.8 149.5 13 149.5 13.2 149.4 13.4 149.4 13.6 149.4 13.6 Z" fill="rgb(0, 0, 0, 1)"/>
  <path d="M 369.4 68.5 Q 369.4 68.5 368.9 70 368.4 71.5 368.5 72.8 368.5 74.1 367.9 75.4 367.3 76.7 366.9 77.6 366.4 78.6 366.4 79.3 366.5 80.1 365.9 81.4 365.3 82.7 364.9 83.6 364.4 84.6 363.7 86.3 363.1 88.1 362.9 88.2 362.7 88.3 362.4 88.4 362.2 88.5 362 88.5 361.7 88.5 361.5 88.4 361.3 88.3 361.1 88.2 360.9 88 360.8 87.8 360.6 87.6 360.6 87.4 360.5 87.1 360.5 86.9 360.5 86.6 360.6 86.4 360.7 86.2 360.9 86 361.1 85.8 361.3 85.7 361.5 85.6 361.7 85.5 362 85.5 362.2 85.5 362.4 85.6 362.7 85.7 362.9 85.8 363 86 363.2 86.1 363.3 86.3 363.4 86.6 363.5 86.8 363.5 87 363.5 87.3 363.4 87.5 363.3 87.7 363.2 87.9 363 88.1 362.8 88.3 362.6 88.4 362.4 88.5 362.1 88.5 361.9 88.5 361.6 88.4 361.4 88.4 361.2 88.2 361 88.1 360.8 87.9 360.7 87.7 360.6 87.5 360.5 87.3 360.5 87 360.5 86.8 360.6 86.6 360.7 86.3 360.8 86.1 360.9 85.9 360.9 85.9 360.9 85.9 361.3 84.7 361.6 83.4 362.2 82.4 362.7 81.3 363.1 80.6 363.5 79.9 363.6 78.7 363.6 77.4 364.2 76.4 364.7 75.3 365.1 74.6 365.5 73.9 365.5 72.2 365.6 70.6 366.1 69 366.6 67.5 366.7 67.4 366.7 67.2 366.8 67.1 367 66.9 367.1 66.8 367.2 66.7 367.4 66.6 367.6 66.6 367.8 66.5 367.9 66.5 368.1 66.5 368.3 66.5 368.5 66.6 368.6 66.6 368.8 66.7 368.9 66.8 369.1 67 369.2 67.1 369.3 67.3 369.4 67.4 369.4 67.6 369.5 67.8 369.5 67.9 369.5 68.1 369.5 68.3 369.4 68.5 369.4 68.5 Z" fill="rgb(0, 0, 0, 1)"/>
  <path d="M 376.2 68.8 Q 376.2 68.8 375.2 70.3 374.2 71.8 373.7 72.4 373.1 73 372.7 73.8 372.4 74.6 372.4 75.3 372.5 76.1 371.9 77.3 371.4 78.6 371.4 79.3 371.5 80.1 370.9 81.4 370.3 82.7 369.9 85 369.5 87.3 368.4 89.5 367.3 91.7 367.2 91.9 367.1 92.1 366.9 92.2 366.7 92.3 366.4 92.4 366.2 92.5 366 92.5 365.7 92.5 365.5 92.4 365.3 92.3 365.1 92.2 364.9 92 364.8 91.8 364.6 91.6 364.6 91.4 364.5 91.1 364.5 90.9 364.5 90.6 364.6 90.4 364.7 90.2 364.9 90 365.1 89.8 365.3 89.7 365.5 89.6 365.7 89.5 366 89.5 366.2 89.5 366.4 89.6 366.7 89.7 366.9 89.8 367.1 90 367.2 90.1 367.3 90.3 367.4 90.6 367.5 90.8 367.5 91 367.5 91.3 367.4 91.5 367.3 91.7 367.2 91.9 367 92.1 366.8 92.3 366.6 92.4 366.4 92.5 366.1 92.5 365.9 92.5 365.6 92.4 365.4 92.4 365.2 92.2 365 92.1 364.8 91.9 364.7 91.7 364.6 91.5 364.5 91.3 364.5 91 364.5 90.8 364.6 90.6 364.7 90.3 364.7 90.3 364.7 90.3 365.6 88.5 366.5 86.7 367.1 84 367.7 81.3 368.1 80.6 368.5 79.9 368.6 78.7 368.6 77.4 369.1 76.7 369.5 75.9 369.6 74.7 369.6 73.4 370.3 72.2 370.9 71 371.3 70.6 371.8 70.2 372.8 68.7 373.8 67.2 373.9 67 374 66.9 374.1 66.8 374.3 66.7 374.4 66.6 374.6 66.5 374.8 66.5 375 66.5 375.2 66.5 375.3 66.5 375.5 66.6 375.7 66.7 375.8 66.8 376 66.9 376.1 67 376.2 67.1 376.3 67.3 376.4 67.4 376.4 67.6 376.5 67.8 376.5 68 376.5 68.2 376.5 68.3 376.4 68.5 376.3 68.7 376.2 68.8 376.2 68.8 Z" fill="rgb(0, 0, 0, 1)"/>
  <path d="M 362.5 69.6 Q 362.5 69.6 364 70.1 365.5 70.6 366.3 70.5 367.1 70.5 368.3 71.1 369.6 71.6 370.3 71.6 371 71.5 372.5 71.5 374 71.5 375.2 71.6 376.3 71.6 377 72.2 377.8 72.8 379.4 72.7 381 72.5 381.2 72.5 381.5 72.6 381.7 72.7 381.9 72.8 382.1 73 382.2 73.2 382.3 73.4 382.4 73.6 382.5 73.8 382.5 74.1 382.4 74.3 382.4 74.6 382.3 74.8 382.1 75 382 75.1 381.8 75.3 381.5 75.4 381.3 75.5 381.1 75.5 380.8 75.5 380.6 75.4 380.4 75.4 380.2 75.2 380 75.1 379.8 74.9 379.7 74.7 379.6 74.5 379.5 74.2 379.5 74 379.5 73.8 379.6 73.5 379.7 73.3 379.8 73.1 380 72.9 380.2 72.8 380.4 72.6 380.6 72.6 380.8 72.5 381.1 72.5 381.3 72.5 381.5 72.6 381.8 72.7 382 72.9 382.1 73 382.3 73.2 382.4 73.4 382.4 73.7 382.5 73.9 382.5 74.2 382.4 74.4 382.3 74.6 382.2 74.8 382.1 75 381.9 75.2 381.7 75.3 381.5 75.4 381.2 75.5 381 75.5 381 75.5 381 75.5 378.6 75.3 376.3 75.2 376 74.8 375.7 74.4 374.8 74.4 374 74.5 372.5 74.5 371 74.5 369.7 74.4 368.4 74.4 367.7 73.9 366.9 73.5 365.7 73.5 364.6 73.4 363 72.9 361.5 72.4 361.4 72.3 361.2 72.3 361.1 72.2 360.9 72 360.8 71.9 360.7 71.8 360.6 71.6 360.6 71.4 360.5 71.2 360.5 71.1 360.5 70.9 360.5 70.7 360.6 70.5 360.6 70.4 360.7 70.2 360.8 70.1 361 69.9 361.1 69.8 361.3 69.7 361.4 69.6 361.6 69.6 361.8 69.5 361.9 69.5 362.1 69.5 362.3 69.5 362.5 69.6 362.5 69.6 Z" fill="rgb(0, 0, 0, 1)"/>
  <path d="M 361 78.5 Q 361 78.5 363 78.5 365 78.5 366 78.5 367 78.5 368 78.5 369 78.5 370 78.5 371 78.5 372 78.5 373 78.5 375 78.5 377 78.5 377.2 78.5 377.5 78.6 377.7 78.7 377.9 78.8 378.1 79 378.2 79.2 378.3 79.4 378.4 79.6 378.5 79.8 378.5 80.1 378.4 80.3 378.4 80.6 378.3 80.8 378.1 81 378 81.1 377.8 81.3 377.5 81.4 377.3 81.5 377.1 81.5 376.8 81.5 376.6 81.4 376.4 81.4 376.2 81.2 376 81.1 375.8 80.9 375.7 80.7 375.6 80.5 375.5 80.2 375.5 80 375.5 79.8 375.6 79.5 375.7 79.3 375.8 79.1 376 78.9 376.2 78.8 376.4 78.6 376.6 78.6 376.8 78.5 377.1 78.5 377.3 78.5 377.5 78.6 377.8 78.7 378 78.9 378.1 79 378.3 79.2 378.4 79.4 378.4 79.7 378.5 79.9 378.5 80.2 378.4 80.4 378.3 80.6 378.2 80.8 378.1 81 377.9 81.2 377.7 81.3 377.5 81.4 377.2 81.5 377 81.5 377 81.5 377 81.5 375 81.5 373 81.5 372 81.5 371 81.5 370 81.5 369 81.5 368 81.5 367 81.5 366 81.5 365 81.5 363 81.5 361 81.5 360.8 81.5 360.6 81.5 360.5 81.4 360.3 81.3 360.2 81.2 360 81.1 359.9 81 359.8 80.9 359.7 80.7 359.6 80.5 359.6 80.4 359.5 80.2 359.5 80 359.5 79.8 359.6 79.6 359.6 79.5 359.7 79.3 359.8 79.1 359.9 79 360 78.9 360.2 78.8 360.3 78.7 360.5 78.6 360.6 78.5 360.8 78.5 361 78.5 361 78.5 Z" fill="rgb(0, 0, 0, 1)"/>
  <path d="M 425.2 33.8 Q 425.2 33.8 426.7 32.7 428.2 31.7 429.9 31.2 431.5 30.6 433.8 30 436 29.5 436.2 29.5 436.5 29.6 436.7 29.7 436.9 29.8 437.1 30 437.2 30.2 437.3 30.4 437.4 30.6 437.5 30.8 437.5 31.1 437.4 31.3 437.4 31.6 437.3 31.8 437.1 32 437 32.1 436.8 32.3 436.5 32.4 436.3 32.5 436.1 32.5 435.8 32.5 435.6 32.4 435.4 32.4 435.2 32.2 435 32.1 434.8 31.9 434.7 31.7 434.6 31.5 434.5 31.2 434.5 31 434.5 30.8 434.6 30.5 434.7 30.3 434.8 30.1 435 29.9 435.2 29.8 435.4 29.6 435.6 29.6 435.8 29.5 436.1 29.5 436.3 29.5 436.5 29.6 436.8 29.7 437 29.9 437.1 30 437.3 30.2 437.4 30.4 437.4 30.7 437.5 30.9 437.5 31.2 437.4 31.4 437.3 31.6 437.2 31.8 437.1 32 436.9 32.2 436.7 32.3 436.5 32.4 436.2 32.5 436 32.5 436 32.5 436 32.5 434.2 33 432.5 33.4 431.1 33.8 429.8 34.3 428.3 35.3 426.8 36.2 426.7 36.3 426.5 36.4 426.3 36.5 426.2 36.5 426 36.5 425.8 36.5 425.6 36.4 425.4 36.4 425.3 36.3 425.1 36.2 425 36.1 424.9 36 424.8 35.8 424.7 35.7 424.6 35.5 424.5 35.3 424.5 35.2 424.5 35 424.5 34.8 424.5 34.6 424.6 34.4 424.7 34.3 424.8 34.1 424.9 34 425 33.9 425.2 33.8 425.2 33.8 Z" fill="rgb(0, 0, 0, 1)"/>
  <path d="M 431.1 32.9 Q 431.1 32.9 432.1 34.1 433.2 35.3 433.3 36.6 433.5 38 433.5 39 433.5 40 433.5 41.5 433.5 43 433.4 43.8 433.4 44.7 433.8 45 434.2 45.3 434.3 46.8 434.4 48.3 433.7 49.2 433.1 50.1 432.6 50.6 432.1 51.1 431.4 51.6 430.8 52.2 429.4 52.3 428 52.5 426.8 52.4 425.7 52.4 423.7 50 421.7 47.7 421.6 47.4 421.5 47.2 421.5 47 421.5 46.7 421.6 46.5 421.7 46.3 421.8 46.1 422 45.9 422.2 45.8 422.4 45.6 422.6 45.6 422.9 45.5 423.1 45.5 423.4 45.5 423.6 45.6 423.8 45.7 424 45.9 424.2 46.1 424.3 46.3 424.4 46.5 424.5 46.7 424.5 47 424.5 47.2 424.4 47.4 424.3 47.7 424.2 47.9 424 48 423.9 48.2 423.7 48.3 423.4 48.4 423.2 48.5 423 48.5 422.7 48.5 422.5 48.4 422.3 48.3 422.1 48.2 421.9 48 421.7 47.8 421.6 47.6 421.5 47.4 421.5 47.1 421.5 46.9 421.6 46.6 421.6 46.4 421.8 46.2 421.9 46 422.1 45.8 422.3 45.7 422.5 45.6 422.7 45.5 423 45.5 423.2 45.5 423.4 45.6 423.7 45.7 423.9 45.8 424.1 45.9 424.2 46.1 424.3 46.3 424.3 46.3 424.3 46.3 425.3 48 426.3 49.6 427.2 49.6 428 49.5 428.6 49.7 429.3 49.8 429.6 49.4 429.9 48.9 430.4 48.4 430.9 47.9 431.3 47.8 431.6 47.7 431.7 47.2 431.8 46.8 431.2 46 430.6 45.3 430.6 44.2 430.5 43 430.5 41.5 430.5 40 430.5 39 430.5 38 430.7 37.4 430.8 36.8 429.9 35.9 428.9 35.1 428.8 34.9 428.7 34.8 428.6 34.6 428.6 34.4 428.5 34.3 428.5 34.1 428.5 33.9 428.5 33.7 428.6 33.6 428.6 33.4 428.7 33.2 428.8 33.1 428.9 32.9 429.1 32.8 429.2 32.7 429.4 32.6 429.6 32.6 429.7 32.5 429.9 32.5 430.1 32.5 430.3 32.5 430.4 32.6 430.6 32.6 430.8 32.7 430.9 32.8 431.1 32.9 431.1 32.9 Z" fill="rgb(0, 0, 0, 1)"/>
  <path d="M 453.5 65 Q 453.5 65 453.5 66.5 453.5 68 453.5 69.5 453.5 71 453.5 72 453.5 73 453.5 74 453.5 75 453.5 76 453.5 77 453.5 78 453.5 79 453.5 80 453.5 81 453.5 82.5 453.5 84 453.4 84.8 453.4 85.7 453.9 86.3 454.5 87 454.5 87.2 454.5 87.4 454.4 87.5 454.3 87.7 454.2 87.8 454.1 88 454 88.1 453.9 88.2 453.7 88.3 453.5 88.4 453.4 88.4 453.2 88.5 453 88.5 452.8 88.5 452.6 88.4 452.5 88.4 452.3 88.3 452.1 88.2 452 88.1 451.9 88 451.8 87.8 451.7 87.7 451.6 87.5 451.5 87.4 451.5 87.2 451.5 87 451.1 86.3 450.6 85.6 450.6 84.3 450.5 83 450.5 82 450.5 81 450.5 80 450.5 79 450.5 78 450.5 77 450.6 75.8 450.6 74.7 451.4 73.8 452.3 72.8 453.8 72.7 455.3 72.6 456.3 73.4 457.2 74.3 457.3 75.6 457.5 77 457.5 78 457.5 79 457.5 80 457.5 81 456.3 83.5 455.1 86.1 454.9 86.2 454.7 86.3 454.4 86.4 454.2 86.5 454 86.5 453.7 86.5 453.5 86.4 453.3 86.3 453.1 86.2 452.9 86 452.8 85.8 452.6 85.6 452.6 85.4 452.5 85.1 452.5 84.9 452.5 84.6 452.6 84.4 452.7 84.2 452.9 84 453.1 83.8 453.3 83.7 453.5 83.6 453.7 83.5 454 83.5 454.2 83.5 454.4 83.6 454.7 83.7 454.9 83.8 455 84 455.2 84.1 455.3 84.3 455.4 84.6 455.5 84.8 455.5 85 455.5 85.3 455.4 85.5 455.3 85.7 455.2 85.9 455 86.1 454.8 86.3 454.6 86.4 454.4 86.5 454.1 86.5 453.9 86.5 453.6 86.4 453.4 86.4 453.2 86.2 453 86.1 452.8 85.9 452.7 85.7 452.6 85.5 452.5 85.3 452.5 85 452.5 84.8 452.6 84.6 452.7 84.3 452.8 84.1 452.9 83.9 452.9 83.9 452.9 83.9 453.7 82.5 454.5 81 454.5 80 454.5 79 454.5 78 454.5 77 454.7 76.4 454.8 75.8 454.8 75.6 454.7 75.4 454.2 75.3 453.8 75.2 453.6 75.3 453.4 75.3 453.4 76.2 453.5 77 453.5 78 453.5 79 453.5 80 453.5 81 453.5 82 453.5 83 453.4 83.7 453.4 84.4 453.9 85.7 454.5 87 454.5 87.2 454.5 87.4 454.4 87.5 454.3 87.7 454.2 87.8 454.1 88 454 88.1 453.9 88.2 453.7 88.3 453.5 88.4 453.4 88.4 453.2 88.5 453 88.5 452.8 88.5 452.6 88.4 452.5 88.4 452.3 88.3 452.1 88.2 452 88.1 451.9 88 451.8 87.8 451.7 87.7 451.6 87.5 451.5 87.4 451.5 87.2 451.5 87 451.1 86.7 450.6 86.3 450.6 85.2 450.5 84 450.5 82.5 450.5 81 450.5 80 450.5 79 450.5 78 450.5 77 450.5 76 450.5 75 450.5 74 450.5 73 450.5 72 450.5 71 450.5 69.5 450.5 68 450.5 66.5 450.5 65 450.5 64.8 450.5 64.6 450.6 64.5 450.7 64.3 450.8 64.2 450.9 64 451 63.9 451.1 63.8 451.3 63.7 451.5 63.6 451.6 63.6 451.8 63.5 452 63.5 452.2 63.5 452.4 63.6 452.5 63.6 452.7 63.7 452.9 63.8 453 63.9 453.1 64 453.2 64.2 453.3 64.3 453.4 64.5 453.5 64.6 453.5 64.8 453.5 65 453.5 65 Z" fill="rgb(0, 0, 0, 1)"/>
  <path d="M 471.5 23.6 Q 471.5 23.6 472 25.6 472.5 27.6 472.9 28.5 473.4 29.4 473.4 30.5 473.4 31.7 473.7 31.8 474.1 32 474.7 33.1 475.3 34.3 475.7 34.6 476.1 35 476.7 36.2 477.4 37.4 477.4 38.5 477.4 39.7 476.7 39.8 475.9 39.9 476.4 39.4 476.9 39 477.3 38.1 477.7 37.3 478.2 36.3 478.7 35.3 479.2 34.4 479.6 33.4 479.6 32.7 479.5 32 480.3 30.3 481 28.5 482.2 28.6 483.3 28.6 484.7 29.8 486.1 30.9 486.6 31.4 487.1 31.9 487.6 32.4 488.1 32.9 488.6 33.4 489.1 33.9 489.6 34.4 490.1 34.9 489.5 35.4 488.9 35.9 489.4 35.4 489.9 34.9 490.4 34.6 490.8 34.3 490.7 33.6 490.5 33 490.5 32 490.5 31 490.5 30 490.5 29 490.6 27.8 490.6 26.7 491.3 25.8 491.9 25 492.3 24.2 492.6 23.4 492.6 22.7 492.5 22 492.5 20 492.5 18 492.5 17.8 492.6 17.5 492.7 17.3 492.8 17.1 493 16.9 493.2 16.8 493.4 16.7 493.6 16.6 493.8 16.5 494.1 16.5 494.3 16.6 494.6 16.6 494.8 16.7 495 16.9 495.1 17 495.3 17.2 495.4 17.5 495.5 17.7 495.5 17.9 495.5 18.2 495.4 18.4 495.4 18.6 495.2 18.8 495.1 19 494.9 19.2 494.7 19.3 494.5 19.4 494.2 19.5 494 19.5 493.8 19.5 493.5 19.4 493.3 19.3 493.1 19.2 492.9 19 492.8 18.8 492.6 18.6 492.6 18.4 492.5 18.2 492.5 17.9 492.5 17.7 492.6 17.5 492.7 17.2 492.9 17 493 16.9 493.2 16.7 493.4 16.6 493.7 16.6 493.9 16.5 494.2 16.5 494.4 16.6 494.6 16.7 494.8 16.8 495 16.9 495.2 17.1 495.3 17.3 495.4 17.5 495.5 17.8 495.5 18 495.5 18 495.5 18 495.5 20 495.5 22 495.4 23.3 495.4 24.6 494.7 25.8 494.1 27 493.7 27.2 493.4 27.3 493.4 28.2 493.5 29 493.5 30 493.5 31 493.5 32 493.5 33 493.3 34.4 493.2 35.8 492.6 36.4 492.1 37.1 491.6 37.6 491.1 38.1 489.5 37.6 487.9 37.1 487.4 36.6 486.9 36.1 486.4 35.6 485.9 35.1 485.4 34.6 484.9 34.1 484.4 33.6 483.9 33.1 483.3 32.2 482.7 31.4 481.8 31.4 481 31.5 481.8 31.8 482.5 32 482.4 33.3 482.4 34.6 481.9 35.6 481.3 36.7 480.8 37.7 480.3 38.7 479.7 39.9 479.1 41 478.6 41.6 478.1 42.1 476.3 41.2 474.6 40.3 474.6 39.5 474.6 38.6 474.3 37.8 473.9 37 473.3 36.4 472.7 35.7 472.3 34.9 471.9 34 471.3 33.2 470.6 32.3 470.6 31.5 470.6 30.6 470.1 29.5 469.5 28.4 469 26.4 468.5 24.4 468.5 24.2 468.5 24 468.5 23.8 468.5 23.6 468.6 23.5 468.7 23.3 468.8 23.2 468.9 23 469 22.9 469.1 22.8 469.3 22.7 469.5 22.6 469.6 22.6 469.8 22.5 470 22.5 470.2 22.5 470.4 22.6 470.5 22.6 470.7 22.7 470.8 22.8 471 22.9 471.1 23 471.2 23.2 471.3 23.3 471.4 23.5 471.5 23.6 471.5 23.6 Z" fill="rgb(0, 0, 0, 1)"/>
</svg>