<?xml version="1.0" encoding="UTF-8"?>
<svg xmlns="http://www.w3.org/2000/svg" width="117.89999999999964" height="83.30000000000018" viewBox="0 0 117.89999999999964 83.30000000000018">
  <path d="M 15.3 11.6 Q 15.3 11.6 15.3 13.6 15.3 15.7 15.3 16.5 15.3 17.3 15.3 18.6 15.3 19.8 15.3 21.1 15.3 22.3 15.3 23.9 15.3 25.5 15.3 26.8 15.3 28 15.3 29.2 15.3 30.4 15.7 31.9 16.1 33.4 16.1 34.3 16.1 35.3 16.1 36.6 16.1 37.8 16.1 38.6 16.1 39.4 16.1 40.6 16.1 41.9 16.1 42.7 16.1 43.5 16.1 43.7 16.1 43.9 16 44 15.9 44.2 15.8 44.3 15.7 44.5 15.6 44.6 15.5 44.7 15.3 44.8 15.1 44.9 15 44.9 14.8 45 14.6 45 14.4 45 14.2 44.9 14.1 44.9 13.9 44.8 13.7 44.7 13.6 44.6 13.5 44.5 13.4 44.3 13.3 44.2 13.2 44 13.1 43.9 13.1 43.7 13.1 43.5 13.1 42.7 13.1 41.9 13.1 40.6 13.1 39.4 13.1 38.6 13.1 37.9 12.8 37.3 12.4 36.7 12.4 35.6 12.3 34.5 11.9 33.5 11.6 32.6 11.2 31.8 10.8 31 10.4 30.3 10 29.5 9.5 28.1 9.1 26.8 8.7 25.6 8.3 24.4 7.9 23.7 7.6 23 7.1 21.6 6.7 20.3 6.2 19.1 5.8 17.9 5.5 17.6 5.2 17.3 5.1 16.2 5 15.2 4.8 15.2 4.5 15.1 4 14.1 3.4 13 3.4 12 3.4 11.1 3.1 10.9 2.8 10.8 2.7 9.6 2.5 8.4 2.6 7.4 2.6 6.4 3.8 5.5 4.9 4.6 6 5 7 5.3 7.5 5.3 8.1 5.2 8.9 5.2 9.7 5.2 10.5 5.2 11.3 5.2 12.5 5.2 13.8 5.2 14.6 5.2 15.5 5.2 16.6 5.7 17.7 6.1 18.2 6.1 18.8 6 19.9 6.5 20.9 7.1 21.5 7 22 6.9 22.8 6.9 23.6 6.9 24.4 6.9 25.2 6.9 25.9 7 26.5 7.1 27.1 6.5 27.7 6 27.9 6 28.1 6 28.2 6.1 28.4 6.2 28.5 6.3 28.7 6.4 28.8 6.5 28.9 6.6 29 6.8 29.1 7 29.1 7.1 29.2 7.3 29.2 7.5 29.2 7.7 29.1 7.9 29.1 8 29 8.2 28.9 8.4 28.8 8.5 28.7 8.6 28.5 8.7 28.4 8.8 28.2 8.9 28.1 9 27.9 9 27.7 9 28.4 9.1 29.2 9.2 28.8 10.7 28.3 12.1 27.8 13 27.3 13.9 27.4 14.4 27.5 14.9 27.5 15.7 27.5 16.6 27 17.7 26.6 18.8 26.6 19.3 26.7 19.8 26.7 21.1 26.7 22.4 26.2 23.4 25.8 24.5 25.8 25 25.9 25.6 25.4 26.7 25 27.8 25 28.3 25.1 28.8 25.1 29.6 25.1 30.4 25.1 31.2 25.1 32.1 25.1 32.9 25.1 33.7 25.1 34.5 25.1 35.4 24.6 36.5 24.2 37.6 24.2 38.1 24.3 38.6 24.3 39.4 24.3 40.3 23.8 41.4 23.4 42.5 23.4 43.2 23.3 43.9 23 44.1 22.6 44.3 22.6 44.5 22.6 44.7 22.5 44.8 22.4 45 22.3 45.1 22.2 45.3 22.1 45.4 22 45.5 21.8 45.6 21.6 45.7 21.5 45.7 21.3 45.8 21.1 45.8 20.9 45.8 20.7 45.7 20.6 45.7 20.4 45.6 20.2 45.5 20.1 45.4 20 45.3 19.9 45.1 19.8 45 19.7 44.8 19.6 44.7 19.6 44.5 19.6 44.3 21.4 43.6 23.1 42.9 23.9 43.5 24.7 44 25.1 44.4 25.5 44.8 25.9 45.3 26.3 45.8 26.8 46.3 27.2 46.8 27.3 48 27.5 49.2 27.5 50 27.5 50.8 27.5 52.1 27.5 53.3 27.5 54.1 27.5 54.9 27.5 55.7 27.5 56.6 27.4 57.6 27.4 58.5 26.7 59.3 25.9 60.2 24.9 60.3 23.9 60.4 23.7 60.7 23.5 61 22.3 61.1 21.1 61.3 20.5 61.2 19.8 61.2 19.6 61.5 19.4 61.8 18.3 61.9 17.1 62.1 16.2 62.1 15.4 62.1 14.8 62 14.2 61.9 14 62.3 13.7 62.7 12.3 62.7 10.9 62.8 10.2 62.2 9.4 61.6 9 61.2 8.6 60.9 8.2 60.3 7.7 59.8 7.6 58.7 7.5 57.7 7.2 57.5 6.9 57.3 6.8 56.1 6.6 54.9 6.6 54.1 6.6 53.3 6.6 52.5 6.6 51.7 6.7 50.7 6.7 49.7 7.3 48.9 7.8 48.1 8.2 47.7 8.6 47.3 9 47 9.4 46.6 10.7 44.9 11.9 43.2 12.1 43.1 12.3 43 12.6 42.9 12.8 42.8 13 42.8 13.3 42.8 13.5 42.9 13.7 43 13.9 43.1 14.1 43.3 14.2 43.5 14.4 43.7 14.4 43.9 14.5 44.2 14.5 44.4 14.5 44.7 14.4 44.9 14.3 45.1 14.1 45.3 13.9 45.5 13.7 45.6 13.5 45.7 13.3 45.8 13 45.8 12.8 45.8 12.6 45.7 12.3 45.6 12.1 45.5 12 45.3 11.8 45.2 11.7 45 11.6 44.7 11.5 44.5 11.5 44.3 11.5 44 11.6 43.8 11.7 43.6 11.8 43.4 12 43.2 12.2 43 12.4 42.9 12.6 42.8 12.9 42.8 13.1 42.8 13.4 42.9 13.6 42.9 13.8 43.1 14 43.2 14.2 43.4 14.3 43.6 14.4 43.8 14.5 44 14.5 44.3 14.5 44.5 14.4 44.7 14.3 45 14.2 45.2 14.1 45.4 14.1 45.4 14.1 45.4 12.8 47 11.6 48.6 11.2 49 10.8 49.5 10.4 49.9 10 50.3 9.7 50.3 9.5 50.3 9.5 51 9.6 51.7 9.6 52.5 9.6 53.3 9.6 54.1 9.6 54.9 9.4 55.4 9.3 55.8 9.8 56.5 10.3 57.1 10.2 57.7 10.1 58.3 10.4 58.5 10.8 58.7 11.2 59.2 11.6 59.6 11.6 59.9 11.7 60.2 12 60.3 12.3 60.3 12.8 59.8 13.4 59.3 14.4 59.2 15.4 59.1 16.2 59.1 17.1 59.1 17.5 59.3 17.9 59.4 18.6 58.9 19.2 58.4 20.1 58.4 21.1 58.3 21.6 58.5 22 58.6 22.7 58.1 23.3 57.6 23.9 57.7 24.4 57.8 24.5 57.8 24.6 57.9 24.6 57.2 24.5 56.6 24.5 55.7 24.5 54.9 24.5 54.1 24.5 53.3 24.5 52.1 24.5 50.8 24.5 50 24.5 49.2 24.7 48.8 24.8 48.3 24.4 48.1 24.1 47.8 23.7 47.4 23.3 47 22.9 46.6 22.5 46.2 22.5 45.9 22.5 45.7 22.5 45 22.6 44.3 22.6 44.5 22.6 44.7 22.5 44.8 22.4 45 22.3 45.1 22.2 45.3 22.1 45.4 22 45.5 21.8 45.6 21.6 45.7 21.5 45.7 21.3 45.8 21.1 45.8 20.9 45.8 20.7 45.7 20.6 45.7 20.4 45.6 20.2 45.5 20.1 45.4 20 45.3 19.9 45.1 19.8 45 19.7 44.8 19.6 44.7 19.6 44.5 19.6 44.3 20.1 43.7 20.7 43.1 20.6 42.2 20.6 41.3 21 40.7 21.3 40.1 21.3 39.4 21.3 38.6 21.4 37.5 21.4 36.4 21.8 35.8 22.1 35.2 22.1 34.5 22.1 33.7 22.1 32.9 22.1 32.1 22.1 31.2 22.1 30.4 22.1 29.6 22.1 28.8 22.2 27.7 22.2 26.6 22.6 26 22.9 25.4 23 24.4 23 23.3 23.4 22.8 23.7 22.2 23.7 21 23.7 19.8 23.8 18.7 23.8 17.6 24.2 17 24.5 16.4 24.5 15.7 24.5 14.9 24.6 13.8 24.7 12.7 25.1 11.9 25.5 11.1 25.8 10.1 26.2 9.2 27 7.6 27.7 6 27.9 6 28.1 6 28.2 6.1 28.4 6.2 28.5 6.3 28.7 6.4 28.8 6.5 28.9 6.6 29 6.8 29.1 7 29.1 7.1 29.2 7.3 29.2 7.5 29.2 7.7 29.1 7.9 29.1 8 29 8.2 28.9 8.4 28.8 8.5 28.7 8.6 28.5 8.7 28.4 8.8 28.2 8.9 28.1 9 27.9 9 27.7 9 27.5 9.4 27.3 9.7 26.2 9.8 25.2 9.9 24.4 9.9 23.6 9.9 22.8 9.9 22 9.9 20.8 9.8 19.7 9.7 19.1 9.4 18.6 9 17.6 8.9 16.5 8.9 15.9 8.5 15.3 8.2 14.6 8.2 13.8 8.2 12.5 8.2 11.3 8.2 10.5 8.2 9.7 8.2 8.9 8.2 8.1 8.2 6.9 8.1 5.8 8.1 5.2 7.6 4.7 7.2 5 7.1 5.4 7 5.4 7.7 5.5 8.4 5.3 8.8 5.2 9.3 5.7 9.9 6.2 10.5 6.2 11.2 6.2 11.8 6.4 12.4 6.7 13.1 7.2 13.8 7.8 14.6 7.7 15.2 7.6 15.8 8.1 16.2 8.6 16.7 9.1 18 9.5 19.3 9.9 20.5 10.2 21.6 10.7 22.5 11.1 23.4 11.5 24.6 11.9 25.8 12.3 27 12.6 28.1 13.1 28.9 13.6 29.8 14 30.7 14.4 31.6 14.9 33.1 15.3 34.5 15.2 35 15.2 35.5 15.6 36.6 16.1 37.7 16.1 38.6 16.1 39.4 16.1 40.6 16.1 41.9 16.1 42.7 16.1 43.5 16.1 43.7 16.1 43.9 16 44 15.9 44.2 15.8 44.3 15.7 44.5 15.6 44.6 15.5 44.7 15.3 44.8 15.1 44.9 15 44.9 14.8 45 14.6 45 14.4 45 14.2 44.9 14.1 44.9 13.9 44.8 13.7 44.7 13.6 44.6 13.5 44.5 13.4 44.3 13.3 44.2 13.2 44 13.1 43.9 13.1 43.7 13.1 43.5 13.1 42.7 13.1 41.9 13.1 40.6 13.1 39.4 13.1 38.6 13.1 37.8 13.1 36.6 13.1 35.3 13.1 34.7 13.1 34 12.7 32.2 12.3 30.4 12.3 29.2 12.3 28 12.3 26.8 12.3 25.5 12.3 23.9 12.3 22.3 12.3 21.1 12.3 19.8 12.3 18.6 12.3 17.3 12.3 16.5 12.3 15.7 12.3 13.6 12.3 11.6 12.3 11.4 12.3 11.2 12.4 11.1 12.5 10.9 12.6 10.8 12.7 10.6 12.8 10.5 12.9 10.4 13.1 10.3 13.3 10.2 13.4 10.2 13.6 10.1 13.8 10.1 14 10.1 14.2 10.2 14.3 10.2 14.5 10.3 14.7 10.4 14.8 10.5 14.9 10.6 15 10.8 15.1 10.9 15.2 11.1 15.3 11.2 15.3 11.4 15.3 11.6 15.3 11.6 Z" fill="rgb(0, 0, 0, 1)"/>
  <path d="M 10.9 11.3 Q 10.9 11.3 10.9 12.4 10.9 13.5 11.2 15.2 11.6 16.9 11.8 17.8 12 18.7 12.2 20 12.4 21.3 12.7 22.1 13 22.9 13.2 23.4 13.4 23.8 13.5 24.4 13.7 24.9 13.7 25.1 13.8 25.3 13.8 25.5 13.8 25.7 13.8 25.8 13.7 26 13.6 26.2 13.5 26.3 13.4 26.5 13.3 26.6 13.2 26.7 13 26.8 12.9 26.9 12.7 26.9 12.5 27 12.3 27 12.1 27 12 27 11.8 26.9 11.6 26.8 11.5 26.7 11.3 26.6 11.2 26.5 11.1 26.4 11 26.2 10.9 26.1 10.7 25.2 10.5 24.4 10.5 23.7 10.5 23.1 10 22.3 9.6 21.5 9.3 20.6 9.1 19.7 8.8 19.3 8.5 19 8.2 18.1 8 17.2 7.8 16.7 7.6 16.2 7.3 15.8 7 15.4 6.8 14.6 6.6 13.9 6.4 13.4 6.2 12.9 5.9 12.5 5.6 12.1 5.4 11.4 5.1 10.7 4.8 10.2 4.5 9.8 4.8 8.4 5.1 6.9 6 6.6 6.9 6.3 7.8 6.7 8.8 7.1 9.7 7.4 10.6 7.7 11.1 7.9 11.7 8.1 12.6 8.3 13.4 8.4 14.1 8.6 14.8 8.7 15.7 8.9 16.6 9.1 17.2 9.1 17.8 9.1 18.9 9.3 19.9 9.5 20.3 9.5 20.7 9.5 21.3 9.5 21.8 9.5 22.8 9.9 23.7 10.2 24.2 11.1 24.7 12 24.5 13.2 24.3 14.3 23.9 15.1 23.5 16 23.4 16.8 23.2 17.6 22.8 18.3 22.3 19 22.2 19.4 22.1 19.8 22 20.5 21.9 21.1 21.7 21.9 21.4 22.7 21.2 23.4 21 24.1 20.9 24.8 20.8 25.5 20.6 26.2 20.3 27 20.4 27.5 20.4 28.1 20.4 29 20.4 29.9 20.4 30.6 20.4 31.4 20.4 31.9 20.4 32.5 20.4 32.7 20.4 32.9 20.3 33 20.2 33.2 20.1 33.3 20 33.5 19.9 33.6 19.8 33.7 19.6 33.8 19.4 33.9 19.3 33.9 19.1 34 18.9 34 18.7 34 18.5 33.9 18.4 33.9 18.2 33.8 18 33.7 17.9 33.6 17.8 33.5 17.7 33.3 17.6 33.2 17.5 33 17.4 32.9 17.4 32.7 17.4 32.5 18.3 31.5 19.1 30.5 19.5 30 19.9 29.4 19.9 29.1 20 28.8 20.5 28 21 27.2 21.3 26.7 21.6 26.2 21.9 25.5 22.2 24.9 22.6 24 23 23.1 23 22.9 22.9 22.6 23.1 21.9 23.3 21.1 23.2 20.8 23.2 20.4 23.4 19.5 23.7 18.6 23.9 18 24.1 17.4 24 17.1 24 16.8 24.2 16 24.4 15.3 24.6 14.7 24.8 14.1 24.7 13.8 24.7 13.5 24.9 12.7 25.2 11.9 25.2 11.4 25.2 10.8 25.3 10.6 25.4 10.5 25.5 10.3 25.6 10.2 25.7 10.1 25.9 10 26.1 9.9 26.2 9.8 26.4 9.8 26.6 9.8 26.8 9.8 26.9 9.8 27.1 9.9 27.3 10 27.4 10.1 27.6 10.2 27.7 10.3 27.8 10.4 27.9 10.6 28 10.7 28 10.9 28.1 11.1 28.1 11.3 28.1 11.5 28.1 11.6 28 11.8 27.1 12.4 26.2 13 25.9 13.6 25.7 14.3 25.3 14.9 24.8 15.5 24.8 15.8 24.7 16.1 24.2 16.9 23.7 17.7 23.4 18.3 23.1 18.9 23 19.5 22.8 20.1 22.5 21 22.1 21.8 22 22.4 21.9 22.9 21.5 24.3 21 25.6 20.9 26.4 20.8 27.2 20.2 29.3 19.6 31.4 19.7 31.9 19.7 32.5 19.7 33.6 19.7 34.7 19.5 35.8 19.3 36.8 19.3 37.6 19.3 38.3 19.3 39.1 19.3 39.8 19.3 40.5 19.3 41.2 19.3 41.8 19.3 42.3 19.3 42.8 19.3 43.4 19.3 44 19.3 44.5 19.1 45.6 18.9 46.6 18.9 47 18.9 47.4 18.9 47.9 18.9 48.5 18.9 48.7 18.9 48.9 18.8 49 18.7 49.2 18.6 49.3 18.5 49.5 18.4 49.6 18.3 49.7 18.1 49.8 17.9 49.9 17.8 49.9 17.6 50 17.4 50 17.2 50 17 49.9 16.9 49.9 16.7 49.8 16.5 49.7 16.4 49.6 16.3 49.5 16.2 49.3 16.1 49.2 16 49 15.9 48.9 15.9 48.7 15.9 48.5 15.9 47.9 15.9 47.4 15.9 46.8 15.9 46.3 16.1 45.5 16.4 44.7 16.3 43.9 16.3 43 16.3 42.1 16.3 41.2 16.3 40.1 16.3 39 16.3 37.9 16.3 36.8 16.3 35.6 16.3 34.3 16.1 33.3 15.9 32.4 15.9 31.1 15.9 29.9 15.8 28.7 15.6 27.6 15.4 26.3 15.2 25 15 23.8 14.8 22.5 14.7 21.4 14.5 20.3 14.3 19.4 14.1 18.5 13.8 17.7 13.5 16.9 13.3 16.2 13.1 15.4 13 14.7 13 13.9 12.9 13.6 12.8 13.2 12.5 12.3 12.3 11.3 12.1 10.6 11.9 9.8 11.9 9.6 11.9 9.5 11.9 9.3 12 9.1 12 8.9 12.1 8.8 12.2 8.6 12.3 8.5 12.4 8.4 12.6 8.2 12.7 8.2 12.9 8.1 13.1 8 13.3 8 13.4 8 13.6 8 13.8 8.1 14 8.1 14.1 8.2 14.3 8.3 14.4 8.4 14.5 8.5 14.6 8.7 14.7 8.8 14.8 9 14.9 9.2 14.7 10 14.5 10.9 14.7 11.3 14.9 11.7 15.1 12.4 15.2 13.1 15.5 14.5 15.7 15.9 15.8 16.5 16 17.2 16.3 19.2 16.7 21.2 17 22.2 17.4 23.2 17.6 24.2 17.8 25.2 17.9 25.7 18.1 26.1 18.3 26.6 18.5 27.2 18.7 27.8 18.8 28.4 18.8 29 18.8 29.5 18.9 29.7 18.9 29.9 18.9 30 18.9 30.2 18.8 30.4 18.7 30.6 18.6 30.7 18.5 30.9 18.4 31 18.3 31.1 18.1 31.2 18 31.3 17.8 31.3 17.6 31.4 17.4 31.4 17.3 31.4 17.1 31.4 16.9 31.3 16.7 31.2 16.6 31.2 16.4 31 16.3 30.9 16.2 30.8 16.1 30.6 16 30.5 16 30.3 15.9 29.5 15.9 28.8 15.8 28 15.6 27.3 15.5 26.8 15.3 26.4 15.2 25.6 15.2 24.8 15 24.3 14.9 23.8 14.7 23 14.5 22.2 14.3 21.5 14.2 20.8 13.9 19.9 13.7 18.9 13.7 18.1 13.7 17.2 13.6 16.8 13.5 16.5 13.4 15.5 13.4 14.6 13.4 14 13.4 13.5 13.4 12.9 13.4 12.4 13.4 11.8 13.4 11.3 13.6 10.7 13.7 10.2 13.7 10 13.7 9.8 13.8 9.7 13.9 9.5 14 9.4 14.1 9.2 14.2 9.1 14.3 9 14.5 8.9 14.7 8.8 14.8 8.8 15 8.7 15.2 8.7 15.4 8.7 15.6 8.8 15.7 8.8 15.9 8.9 16.1 9 16.2 9.1 16.3 9.2 16.4 9.4 16.5 9.5 16.6 9.7 16.7 9.8 16.7 10 16.7 10.2 16.9 10.1 17.1 10.1 17.4 11.1 17.8 12.1 18 12.8 18.2 13.5 18.2 14.2 18.2 15 18.4 15.3 18.5 15.6 18.7 16.4 18.9 17.2 19.1 17.7 19.3 18.3 19.3 18.5 19.3 18.6 19.3 18.8 19.2 19 19.2 19.2 19.1 19.3 19 19.5 18.9 19.6 18.8 19.7 18.6 19.9 18.5 19.9 18.3 20 18.1 20.1 17.9 20.1 17.8 20.1 17.6 20.1 17.4 20 17.2 20 17.1 19.9 16.9 19.8 16.8 19.7 16.6 19.6 16.5 19.4 16.5 19.3 16.4 19.1 16.3 18.9 16.5 17.9 16.8 16.8 16.9 16.1 17 15.4 17.3 14.7 17.5 14.1 17.7 13.5 17.9 13 18 12.4 18.2 11.9 18.3 11.7 18.4 11.6 18.5 11.4 18.6 11.3 18.7 11.2 18.9 11.1 19.1 11 19.2 10.9 19.4 10.9 19.6 10.9 19.8 10.9 19.9 10.9 20.1 11 20.3 11.1 20.4 11.2 20.6 11.3 20.7 11.4 20.8 11.5 20.9 11.7 21 11.8 21 12 21.1 12.2 21.1 12.4 21.1 12.6 21.1 12.7 21 12.9 21.1 13.6 21.1 14.2 20.9 15.3 20.8 16.3 20.8 16.9 20.8 17.4 20.7 17.6 20.7 17.8 20.6 17.9 20.5 18.1 20.4 18.2 20.3 18.4 20.1 18.5 19.9 18.6 19.8 18.6 19.6 18.7 19.4 18.7 19.2 18.7 19.1 18.7 18.9 18.6 18.7 18.6 18.6 18.5 18.4 18.4 18.3 18.3 18.2 18.1 18 18 18 17.8 17.9 17.7 17.8 17.5 17.8 17.3 17.8 17.1 17.8 17 18.3 16.1 18.7 15.3 19 14.6 19.3 14 19.5 13.4 19.7 12.9 19.8 12.7 19.9 12.6 20.1 12.4 20.2 12.3 20.3 12.2 20.5 12.1 20.7 12.1 20.8 12 21 12 21.2 12 21.4 12 21.6 12.1 21.7 12.2 21.9 12.2 22 12.3 22.2 12.5 22.3 12.6 22.4 12.7 22.5 12.9 22.5 13.1 22.6 13.3 22.6 13.4 22.6 13.6 22.6 13.8 22.5 14 22.5 14.1 22.7 14.2 22.8 14.3 22.7 15.2 22.5 16.1 22.6 16.4 22.6 16.8 22.4 17.7 22.1 18.6 22.2 19.3 22.2 20.1 22 21.1 21.9 22.1 21.9 22.8 21.9 23.4 21.9 24.5 21.9 25.5 21.7 26.6 21.5 27.7 21.5 28.8 21.5 29.9 21.5 31 21.5 32.1 21.7 32.8 21.9 33.6 22 34.6 22.2 35.6 22.3 35.9 22.5 36.2 22.6 36.8 22.8 37.3 22.8 37.5 22.9 37.7 22.9 37.9 22.9 38.1 22.9 38.2 22.8 38.4 22.7 38.6 22.6 38.7 22.5 38.9 22.4 39 22.3 39.1 22.1 39.2 22 39.3 21.8 39.3 21.6 39.4 21.4 39.4 21.2 39.4 21.1 39.4 20.9 39.3 20.7 39.2 20.6 39.1 20.4 39 20.3 38.9 20.2 38.8 20.1 38.6 20 38.5 20.4 37.2 20.9 35.9 20.8 35.6 20.7 35.4 20.7 34.8 20.7 34.3 20.7 33.4 20.7 32.5 20.7 31.5 20.7 30.6 20.7 29.9 20.7 29.2 20.7 29 20.7 28.8 20.8 28.7 20.9 28.5 21 28.4 21.1 28.2 21.2 28.1 21.3 28 21.5 27.9 21.7 27.8 21.8 27.8 22 27.7 22.2 27.7 22.4 27.7 22.6 27.8 22.7 27.8 22.9 27.9 23.1 28 23.2 28.1 23.3 28.2 23.4 28.4 23.5 28.5 23.6 28.7 23.7 28.8 23.7 29 23.7 29.2 23.7 29.8 23.7 30.3 23.5 31.2 23.2 32.1 23 32.7 22.8 33.3 22.7 34.1 22.6 34.9 22.6 35.5 22.6 36.1 22.6 36.6 22.6 37.2 22.6 37.9 22.6 38.7 22.6 39.4 22.6 40.1 22.6 40.8 22.6 41.6 22.6 42.3 22.6 43 22.6 43.5 22.6 44.1 22.6 44.6 22.6 45.2 22.6 45.8 22.6 46.3 22.6 46.5 22.6 46.7 22.5 46.8 22.4 47 22.3 47.1 22.2 47.3 22.1 47.4 22 47.5 21.8 47.6 21.6 47.7 21.5 47.7 21.3 47.8 21.1 47.8 20.9 47.8 20.7 47.7 20.6 47.7 20.4 47.6 20.2 47.5 20.1 47.4 20 47.3 19.9 47.1 19.8 47 19.7 46.8 19.6 46.7 19.6 46.5 19.6 46.3 21.6 46 23.6 45.6 23.8 46.1 23.9 46.7 24.3 47.2 24.6 47.8 24.8 48.7 25.1 49.7 25.1 50.5 25.1 51.4 25.3 51.7 25.4 52 25.5 52.8 25.5 53.6 25.5 54.1 25.5 54.7 25.7 55.4 25.9 56.2 26 56.9 26.2 57.7 26.2 57.9 26.2 58 26.2 58.2 26.1 58.4 26.1 58.6 26 58.7 25.9 58.9 25.8 59 25.7 59.1 25.5 59.3 25.4 59.3 25.2 59.4 25 59.5 24.8 59.5 24.7 59.5 24.5 59.5 24.3 59.4 24.1 59.4 24 59.3 23.8 59.2 23.7 59.1 23.6 59 23.5 58.8 23.4 58.7 23.3 58.5 23.2 58.3 23.2 58.7 23.1 59 22.8 59.1 22.5 59.1 22.2 59.3 21.9 59.4 21.4 59.6 21 59.8 20.3 60 19.7 60.1 19.3 60.4 18.9 60.8 18 60.9 17.1 61 16.5 61 16 61 15.4 61 14.9 61 14.3 61 13.8 61 13 60.8 12.2 60.5 11.5 60.1 10.8 59.8 10.3 58.9 9.8 58.1 9.7 57.3 9.7 56.5 9.7 55.9 9.7 55.4 9.7 54.8 9.7 54.3 9.9 53.4 10.2 52.5 10.4 51.8 10.7 51.1 11.5 50.5 12.3 49.8 12.5 49.5 12.8 49.2 13.6 48.9 14.4 48.6 14.4 48.4 14.5 48.2 15.1 47.8 15.8 47.4 15.7 47.2 15.7 47.1 15.5 46.7 15.3 46.4 15 46.1 14.7 45.7 14.3 45.3 13.9 44.9 13.9 44.7 13.8 44.6 13.7 44.4 13.7 44.2 13.7 44 13.7 43.9 13.8 43.7 13.8 43.5 13.9 43.4 14 43.2 14.1 43.1 14.2 42.9 14.4 42.8 14.6 42.7 14.7 42.7 14.9 42.6 15.1 42.6 15.3 42.6 15.4 42.6 15.6 42.7 15.8 42.7 15.9 42.8 16.1 42.9 16.2 43 16.4 43.2 16.5 43.3 16.1 44.6 15.8 46 15.7 46.5 15.7 47 15.7 47.4 15.7 47.8 15.5 48.7 15.2 49.6 15 50.2 14.8 50.8 14.9 51.1 14.9 51.4 14.9 52.1 14.9 52.9 14.9 53.4 14.9 54 14.8 54.4 14.7 54.7 14.5 54.6 14.3 54.5 14.5 54.3 14.6 54 15.4 53.7 16.1 53.3 16.8 53 17.6 52.6 18.5 52.3 19.4 51.9 19.5 51.7 19.6 51.5 20.2 51.1 20.9 50.7 20.8 50.4 20.8 50.2 20.9 49.7 21.1 49.2 21.2 49.2 21.3 49.1 21 49.1 20.7 49.1 20.3 49.2 19.8 49.2 19.5 49.7 19.1 50.1 18.5 50.5 17.9 50.8 17.7 51.2 17.5 51.6 17 52.3 16.4 53.1 16.4 53.4 16.3 53.7 16.2 54.6 16 55.4 16 55.8 16 56.2 16.2 56.9 16.4 57.6 16.6 58 16.9 58.3 17.3 58.7 17.7 59.1 17.9 59.1 18.2 59.1 18.5 59 18.8 59 19 58.8 19.2 58.5 19.7 58.2 20.3 57.9 20.6 57.3 21 56.7 21.6 56.1 22.2 55.5 22.4 55 22.6 54.5 22.6 54.1 22.5 53.7 22.3 53.5 22 53.3 21.8 53.1 21.5 52.9 21.1 52.6 20.6 52.4 20.2 52.2 19.9 52.1 19.6 52.1 19.3 52.2 18.5 52 17.7 51.7 17.5 51.7 17.3 51.7 17.1 52 16.9 52.3 16.3 52.7 15.7 53.1 15.3 53.5 14.9 54 14.6 54.4 14.4 54.8 14.2 55.2 14.1 55.6 13.9 56.1 13.7 56.7 13.8 57 13.8 57.3 13.8 57.8 13.8 58.4 13.7 58.8 13.6 59.1 13.9 59.1 14.1 59.1 14.6 59.8 15 60.5 15.4 60.6 15.7 60.7 16.1 60.9 16.5 61 17 61.1 17.5 61.3 17.8 61.2 18.2 61.2 18.7 61.2 19.3 61.2 19.8 61.2 20.4 61.2 21.1 61.2 21.8 61.2 22.3 61.2 22.9 61.2 23.2 61.1 23.5 61 23.5 60.8 23.6 60.6 24 60.3 24.4 59.9 24.4 59.6 24.4 59.3 25 58.7 25.5 58.1 25.5 57.8 25.5 57.6 25.7 57 25.9 56.4 26 55.9 26.2 55.4 26.4 54.8 26.6 54.2 26.5 53.9 26.5 53.6 26.5 53 26.5 52.5 26.5 51.9 26.5 51.4 26.5 50.8 26.5 50.3 26.5 49.8 26.5 49.2 26.4 49 26.3 48.7 26 48.7 25.8 48.6 25.4 48.6 25.1 48.5 24.5 48.3 23.9 48.1 23.6 48.2 23.3 48.2 22.8 48.2 22.2 48.2 21.9 48.3 21.6 48.5 21.3 48.8 21 49.2 20.4 49.6 19.9 50 19.9 50.3 19.9 50.5 19.5 51.3 19.1 52.1 19 52.5 18.8 53 18.9 53.3 18.9 53.6 19.1 54.1 19.2 54.7 19.4 55 19.5 55.2 19.8 55.1 20 55.1 20.3 55 20.7 55 20.5 55.8 20.3 56.5 20.3 55.9 20.3 55.4 20.3 54.9 20.3 54.3 20.3 54.2 20.3 54.1 20.1 54.2 19.9 54.3 19.6 54.3 19.3 54.4 18.5 54.2 17.7 53.9 17.4 54 17.1 54 16.5 54 16 54 15.2 53.8 14.4 53.6 13.7 53 13.1 52.4 12.7 52.1 12.4 51.8 11.9 51.1 11.4 50.4 11.2 49.9 10.9 49.4 11.3 49.3 11.6 49.1 11.5 49.6 11.3 50.1 11 50.6 10.7 51.1 10.5 51.5 10.4 51.9 10.5 52.4 10.5 52.9 10.4 53.4 10.4 54 10.6 54 10.9 54 11.3 54.3 11.7 54.5 12.1 54.7 12.5 54.8 12.8 54.7 13.1 54.7 15.1 54.7 17.1 54.7 17.3 54.7 17.6 54.8 17.8 54.9 18 55 18.2 55.2 18.3 55.4 18.4 55.6 18.5 55.8 18.6 56 18.6 56.3 18.5 56.5 18.5 56.8 18.4 57 18.2 57.2 18.1 57.3 17.9 57.5 17.6 57.6 17.4 57.7 17.2 57.7 16.9 57.7 16.7 57.6 16.5 57.6 16.3 57.4 16.1 57.3 15.9 57.1 15.8 56.9 15.7 56.7 15.6 56.4 15.6 56.2 15.6 56 15.7 55.7 15.8 55.5 15.9 55.3 16.1 55.1 16.3 55 16.5 54.8 16.7 54.8 16.9 54.7 17.2 54.7 17.4 54.7 17.6 54.8 17.9 54.9 18.1 55.1 18.2 55.2 18.4 55.4 18.5 55.6 18.5 55.9 18.6 56.1 18.6 56.4 18.5 56.6 18.4 56.8 18.3 57 18.2 57.2 18 57.4 17.8 57.5 17.6 57.6 17.3 57.7 17.1 57.7 17.1 57.7 17.1 57.7 15.1 57.7 13.1 57.7 12.3 57.7 11.5 57.6 10.8 57.3 10.1 57.1 9.4 56.6 8.7 56.2 8.2 55.4 7.6 54.6 7.6 53.8 7.5 52.9 7.5 51.9 7.6 50.9 7.9 50.2 8.1 49.5 8.5 48.9 8.9 48.3 9.5 47.7 10.2 47.1 11.6 47.3 13.1 47.6 13.5 48.2 14 48.8 14.2 49.2 14.4 49.6 14.9 50 15.3 50.4 15.4 50.6 15.4 50.8 15.7 50.9 16 51 16.6 51 17.1 51 17.9 51 18.7 51.1 19 51.2 19.3 51.4 20.1 51.5 20.9 51.5 21.7 52 22.5 52.5 22.9 53.4 23.3 54.3 23.3 54.8 23.3 55.4 23.3 55.9 23.3 56.5 22 57.3 20.7 58 20 58 19.2 57.9 18.3 57.6 17.5 57.2 16.9 56.3 16.4 55.5 16.1 54.6 15.9 53.6 15.9 52.8 16 52 16.2 51.4 16.5 50.7 16.8 50.1 17.1 49.5 17.5 48.6 17.9 47.8 18.5 47.4 19 47 19.8 46.4 20.6 45.7 21.4 45.5 22.2 45.2 22.7 45.2 23.3 45.2 24.1 45.2 24.9 45.3 25.4 45.5 25.9 45.7 26.7 45.9 27.4 46.2 28.2 46.8 28.9 47.5 29.2 48.3 29.5 49.2 29.5 49.7 29.5 50.3 29.5 50.8 29.5 51.4 29.5 51.9 29.5 52.5 29.5 53 29.5 53.6 29.5 54.4 29.4 55.2 29.2 55.7 29 56.2 28.9 56.8 28.7 57.4 28.5 57.9 28.3 58.4 28 59.3 27.7 60.1 27.4 60.2 27.2 60.3 26.9 61.1 26.6 61.9 26.2 62.2 25.8 62.6 25.2 63.2 24.5 63.8 23.7 64 22.9 64.2 22.4 64.2 21.8 64.2 21.1 64.2 20.4 64.2 19.8 64.2 19.3 64.2 18.7 64.2 18.2 64.2 17.5 64.2 16.7 64.1 16.1 64 15.5 63.8 14.8 63.5 14.1 63.3 13.3 62.7 12.6 62.1 12.3 61.7 12.1 61.3 11.5 60.6 11 59.9 10.9 59.1 10.8 58.4 10.8 57.8 10.8 57.3 10.8 56.5 10.9 55.7 11.1 55.2 11.3 54.6 11.6 53.9 11.8 53.2 12.3 52.5 12.7 51.8 13.4 51.2 14.1 50.5 14.6 50.2 15.1 49.9 16 49.4 16.9 48.9 17.8 48.9 18.7 48.9 19 49 19.3 49.2 20.1 49.3 20.9 49.3 21.6 49.6 22.2 49.8 22.8 50.3 23.5 50.7 24 51.2 24.6 51.7 25 52.6 25.5 53.5 25.4 54.6 25.4 55.7 24.9 56.6 24.4 57.5 23.9 58 23.4 58.5 22.7 59.4 21.9 60.3 21.4 60.7 20.8 61.1 19.9 61.5 19 62 18.2 62 17.4 61.9 16.6 61.6 15.7 61.3 15 60.6 14.3 59.9 13.9 59.1 13.4 58.4 13.2 57.3 13 56.2 13 55.5 13 54.8 13.2 53.8 13.5 52.9 13.7 52.1 14 51.3 14.5 50.6 15.1 49.8 15.7 49.1 16.3 48.4 16.8 48 17.3 47.7 18.3 47 19.4 46.4 20.7 46.4 22.1 46.5 22.9 47.2 23.7 47.9 23.8 48.9 23.9 50 23.8 50.6 23.6 51.2 23.2 52.1 22.7 52.9 22.3 53.2 21.8 53.5 21.2 54.1 20.6 54.7 19.7 55 18.8 55.4 18.1 55.7 17.3 56.1 16.5 56.4 15.8 56.8 14.9 56.9 14.1 57.1 13.1 56.3 12.1 55.5 12 54.7 11.9 54 11.9 53.4 11.9 52.9 11.9 52.1 11.9 51.4 11.9 50.6 12 49.8 12.2 49.3 12.4 48.8 12.5 48.3 12.7 47.8 12.7 47.1 12.7 46.4 13 45.4 13.2 44.4 13.6 44.7 13.9 44.9 13.9 44.7 13.8 44.6 13.7 44.4 13.7 44.2 13.7 44 13.7 43.9 13.8 43.7 13.8 43.5 13.9 43.4 14 43.2 14.1 43.1 14.2 42.9 14.4 42.8 14.6 42.7 14.7 42.7 14.9 42.6 15.1 42.6 15.3 42.6 15.4 42.6 15.6 42.7 15.8 42.7 15.9 42.8 16.1 42.9 16.2 43 16.4 43.2 16.5 43.3 16.9 43.7 17.3 44.1 17.7 44.8 18.1 45.6 18.3 46.7 18.5 47.7 18.1 48.7 17.6 49.6 17.2 49.9 16.7 50.2 16.1 50.8 15.4 51.4 15.1 51.4 14.8 51.4 14.4 51.9 13.9 52.4 13.6 52.4 13.3 52.5 13.2 52.9 13 53.3 12.9 53.8 12.7 54.3 12.7 54.9 12.7 55.4 12.7 55.9 12.7 56.5 12.7 56.8 12.6 57.1 12.5 57.4 12.4 57.6 12.8 57.7 13.2 57.7 13.5 57.8 13.8 58 14.4 58 14.9 58 15.4 58 16 58 16.5 58 17.1 58 17.3 58.1 17.5 58.2 18.2 57.8 18.9 57.3 19.4 57.1 19.8 57 20.4 56.8 20.9 56.6 21.7 56.3 22.5 56.1 23.3 56.1 24.1 56.2 25.1 56.9 26.2 57.7 26.2 57.9 26.2 58 26.2 58.2 26.1 58.4 26.1 58.6 26 58.7 25.9 58.9 25.8 59 25.7 59.1 25.5 59.3 25.4 59.3 25.2 59.4 25 59.5 24.8 59.5 24.7 59.5 24.5 59.5 24.3 59.4 24.1 59.4 24 59.3 23.8 59.2 23.7 59.1 23.6 59 23.5 58.8 23.4 58.7 23.3 58.5 23.2 58.3 23.1 57.6 22.9 56.8 22.7 55.8 22.5 54.7 22.5 54.2 22.5 53.6 22.5 53.3 22.6 53 22.3 52.2 22.1 51.4 22.1 50.9 22.1 50.3 22.1 49.8 22 49.2 21.5 48.4 21.1 47.5 20.9 47 20.8 46.4 21.7 46.3 22.6 46.3 22.6 46.5 22.6 46.7 22.5 46.8 22.4 47 22.3 47.1 22.2 47.3 22.1 47.4 22 47.5 21.8 47.6 21.6 47.7 21.5 47.7 21.3 47.8 21.1 47.8 20.9 47.8 20.7 47.7 20.6 47.7 20.4 47.6 20.2 47.5 20.1 47.4 20 47.3 19.9 47.1 19.8 47 19.7 46.8 19.6 46.7 19.6 46.5 19.6 46.3 19.6 45.8 19.6 45.2 19.6 44.6 19.6 44.1 19.6 43.5 19.6 43 19.6 42.3 19.6 41.6 19.6 40.8 19.6 40.1 19.6 39.4 19.6 38.7 19.6 37.9 19.6 37.2 19.6 36.6 19.6 36.1 19.6 35.3 19.6 34.5 19.8 33.4 20 32.3 20.2 31.8 20.4 31.3 20.5 30.8 20.7 30.3 20.7 29.7 20.7 29.2 20.7 29 20.7 28.8 20.8 28.7 20.9 28.5 21 28.4 21.1 28.2 21.2 28.1 21.3 28 21.5 27.9 21.7 27.8 21.8 27.8 22 27.7 22.2 27.7 22.4 27.7 22.6 27.8 22.7 27.8 22.9 27.9 23.1 28 23.2 28.1 23.3 28.2 23.4 28.4 23.5 28.5 23.6 28.7 23.7 28.8 23.7 29 23.7 29.2 23.7 29.9 23.7 30.6 23.7 31.5 23.7 32.5 23.7 33.4 23.7 34.3 23.7 34.8 23.7 35.4 23.6 36.3 23.5 37.1 23.2 37.2 22.8 37.3 22.8 37.5 22.9 37.7 22.9 37.9 22.9 38.1 22.9 38.2 22.8 38.4 22.7 38.6 22.6 38.7 22.5 38.9 22.4 39 22.3 39.1 22.1 39.2 22 39.3 21.8 39.3 21.6 39.4 21.4 39.4 21.2 39.4 21.1 39.4 20.9 39.3 20.7 39.2 20.6 39.1 20.4 39 20.3 38.9 20.2 38.8 20.1 38.6 20 38.5 19.9 37.9 19.7 37.4 19.5 36.7 19.2 36 19.1 35.1 18.9 34.2 18.7 33.2 18.5 32.1 18.5 31 18.5 29.9 18.5 28.5 18.5 27.1 18.7 26.3 18.9 25.5 18.9 24.4 18.9 23.4 18.9 22.5 18.9 21.7 19.1 20.9 19.2 20.1 19.2 19 19.3 17.8 19.4 17.3 19.6 16.8 19.6 16.1 19.7 15.3 19.8 15.1 20 14.9 19.8 13.9 19.7 12.9 19.8 12.7 19.9 12.6 20.1 12.4 20.2 12.3 20.3 12.2 20.5 12.1 20.7 12.1 20.8 12 21 12 21.2 12 21.4 12 21.6 12.1 21.7 12.2 21.9 12.2 22 12.3 22.2 12.5 22.3 12.6 22.4 12.7 22.5 12.9 22.5 13.1 22.6 13.3 22.6 13.4 22.6 13.6 22.6 13.8 22.5 14 22.5 14.1 22.3 14.7 22.1 15.2 21.7 16.1 21.3 16.9 21 17.2 20.8 17.4 20.7 17.6 20.7 17.8 20.6 17.9 20.5 18.1 20.4 18.2 20.3 18.4 20.1 18.5 19.9 18.6 19.8 18.6 19.6 18.7 19.4 18.7 19.2 18.7 19.1 18.7 18.9 18.6 18.7 18.6 18.6 18.5 18.4 18.4 18.3 18.3 18.2 18.1 18 18 18 17.8 17.9 17.7 17.8 17.5 17.8 17.3 17.8 17.1 17.8 17 17.8 16.4 17.8 15.9 18 15 18.1 14.2 18.1 13 18.2 11.9 18.3 11.7 18.4 11.6 18.5 11.4 18.6 11.3 18.7 11.2 18.9 11.1 19.1 11 19.2 10.9 19.4 10.9 19.6 10.9 19.8 10.9 19.9 10.9 20.1 11 20.3 11.1 20.4 11.2 20.6 11.3 20.7 11.4 20.8 11.5 20.9 11.7 21 11.8 21 12 21.1 12.2 21.1 12.4 21.1 12.6 21.1 12.7 21 12.9 20.9 13.5 20.7 14 20.5 14.6 20.3 15.1 20.1 15.6 20 16 19.8 16.8 19.6 17.6 19.5 17.9 19.3 18.3 19.3 18.5 19.3 18.6 19.3 18.8 19.2 19 19.2 19.2 19.1 19.3 19 19.5 18.9 19.6 18.8 19.7 18.6 19.9 18.5 19.9 18.3 20 18.1 20.1 17.9 20.1 17.8 20.1 17.6 20.1 17.4 20 17.2 20 17.1 19.9 16.9 19.8 16.8 19.7 16.6 19.6 16.5 19.4 16.5 19.3 16.4 19.1 16.3 18.9 16.1 18.4 15.9 17.8 15.8 17.2 15.7 16.6 15.4 15.8 15.2 15 15.2 14.7 15.2 14.3 15 13.5 14.8 12.7 14.9 12.3 14.9 11.9 14.3 11.1 13.7 10.2 13.7 10 13.7 9.8 13.8 9.7 13.9 9.5 14 9.4 14.1 9.2 14.2 9.1 14.3 9 14.5 8.9 14.7 8.8 14.8 8.8 15 8.7 15.2 8.7 15.4 8.7 15.6 8.8 15.7 8.8 15.9 8.9 16.1 9 16.2 9.1 16.3 9.2 16.4 9.4 16.5 9.5 16.6 9.7 16.7 9.8 16.7 10 16.7 10.2 16.5 10.8 16.4 11.3 16.4 11.9 16.4 12.4 16.4 12.9 16.4 13.5 16.4 14 16.4 14.6 16.4 15.2 16.3 15.7 16.5 16.5 16.7 17.2 16.7 17.7 16.7 18.3 16.9 19.1 17 20 17.3 20.8 17.5 21.6 17.6 22.3 17.7 23 18 23.9 18.2 24.8 18.2 25.1 18.1 25.4 18.3 26.1 18.6 26.7 18.7 27.8 18.9 28.8 18.9 29.2 18.8 29.5 18.9 29.7 18.9 29.9 18.9 30 18.9 30.2 18.8 30.4 18.7 30.6 18.6 30.7 18.5 30.9 18.4 31 18.3 31.1 18.1 31.2 18 31.3 17.8 31.3 17.6 31.4 17.4 31.4 17.3 31.4 17.1 31.4 16.9 31.3 16.7 31.2 16.6 31.2 16.4 31 16.3 30.9 16.2 30.8 16.1 30.6 16 30.5 16 30.3 16 29.7 16 29.2 15.8 28.7 15.7 28.2 15.5 27.7 15.3 27.1 15.1 26.4 14.8 25.8 14.7 25 14.6 24.2 14.2 23 13.7 21.8 13.4 19.8 13 17.8 12.9 17.1 12.7 16.3 12.5 15.1 12.4 13.9 12.1 13.1 11.9 12.3 11.8 11.3 11.7 10.3 11.8 10.1 11.9 9.8 11.9 9.6 11.9 9.5 11.9 9.3 12 9.1 12 8.9 12.1 8.8 12.2 8.6 12.3 8.5 12.4 8.4 12.6 8.2 12.7 8.2 12.9 8.1 13.1 8 13.3 8 13.4 8 13.6 8 13.8 8.1 14 8.1 14.1 8.2 14.3 8.3 14.4 8.4 14.5 8.5 14.6 8.7 14.7 8.8 14.8 9 14.9 9.2 15.1 9.9 15.3 10.7 15.5 11.5 15.6 12.4 15.8 13.1 16 13.9 16 14.2 15.9 14.6 16.1 15.2 16.3 15.9 16.7 16.9 17.1 17.9 17.3 18.9 17.5 19.9 17.6 21 17.8 22.1 18 23.3 18.2 24.6 18.4 25.9 18.6 27.2 18.7 28.6 18.9 29.9 18.9 30.9 18.9 31.8 19.1 33.1 19.3 34.3 19.3 35.5 19.3 36.8 19.3 37.9 19.3 39 19.3 40.1 19.3 41.2 19.3 42.1 19.3 43 19.3 44.3 19.2 45.7 19.1 46 18.9 46.3 18.9 46.9 18.9 47.4 18.9 47.9 18.9 48.5 18.9 48.7 18.9 48.9 18.8 49 18.7 49.2 18.6 49.3 18.5 49.5 18.4 49.6 18.3 49.7 18.1 49.8 17.9 49.9 17.8 49.9 17.6 50 17.4 50 17.2 50 17 49.9 16.9 49.9 16.7 49.8 16.5 49.7 16.4 49.6 16.3 49.5 16.2 49.3 16.1 49.2 16 49 15.9 48.9 15.9 48.7 15.9 48.5 15.9 47.9 15.9 47.4 15.9 46.7 15.9 46 16.1 45.2 16.3 44.5 16.3 43.9 16.3 43.4 16.3 42.8 16.3 42.3 16.3 41.8 16.3 41.2 16.3 40.5 16.3 39.8 16.3 39.1 16.3 38.3 16.3 37.2 16.3 36.2 16.5 35.4 16.7 34.7 16.7 33.6 16.7 32.5 16.7 31.6 16.8 30.6 17.3 28.7 17.8 26.8 18 25.8 18.2 24.8 18.5 23.5 18.9 22.3 19.1 21.4 19.3 20.6 19.6 19.9 20 19.3 20.2 18.4 20.5 17.5 20.9 16.7 21.3 15.9 21.6 15.6 21.9 15.3 22.1 14.5 22.4 13.7 22.7 13.2 23.1 12.7 24 11.6 24.8 10.4 25 10.6 25.2 10.8 25.3 10.6 25.4 10.5 25.5 10.3 25.6 10.2 25.7 10.1 25.9 10 26.1 9.9 26.2 9.8 26.4 9.8 26.6 9.8 26.8 9.8 26.9 9.8 27.1 9.9 27.3 10 27.4 10.1 27.6 10.2 27.7 10.3 27.8 10.4 27.9 10.6 28 10.7 28 10.9 28.1 11.1 28.1 11.3 28.1 11.5 28.1 11.6 28 11.8 28 12.3 28 12.9 27.9 13.2 27.7 13.5 27.7 14.3 27.6 15.1 27.4 15.6 27.2 16.1 27.1 16.5 27 16.8 27 17.6 26.9 18.4 26.7 18.9 26.5 19.4 26.4 19.9 26.2 20.4 26.2 21.1 26.1 21.9 26 22.2 25.9 22.6 25.8 23.4 25.8 24.3 25.4 25.2 25 26.1 24.6 27 24.2 27.8 23.8 28.4 23.4 29 23.1 29.3 22.8 29.6 22.6 30.4 22.3 31.2 21.6 32 20.9 32.9 20.6 32.7 20.4 32.5 20.4 32.7 20.4 32.9 20.3 33 20.2 33.2 20.1 33.3 20 33.5 19.9 33.6 19.8 33.7 19.6 33.8 19.4 33.9 19.3 33.9 19.1 34 18.9 34 18.7 34 18.5 33.9 18.4 33.9 18.2 33.8 18 33.7 17.9 33.6 17.8 33.5 17.7 33.3 17.6 33.2 17.5 33 17.4 32.9 17.4 32.7 17.4 32.5 17.4 31.9 17.4 31.4 17.4 30.6 17.4 29.9 17.4 29 17.4 28.1 17.4 27.2 17.5 26.2 17.6 25.6 17.8 24.9 18 24.1 18.2 23.3 18.4 22.6 18.6 21.9 18.7 21.2 18.9 20.5 19.1 19.6 19.3 18.8 19.6 18.1 19.9 17.4 20.1 17.1 20.4 16.8 20.6 15.7 20.9 14.6 21.2 14.1 21.5 13.5 21.7 13.1 21.9 12.8 22 12.6 22.1 12.4 21.9 12.4 21.8 12.5 21.2 12.5 20.7 12.5 20 12.5 19.3 12.5 18.5 12.3 17.8 12.1 16.9 12.1 16 12.1 15.1 11.9 14.2 11.7 13.5 11.5 12.8 11.4 11.7 11.1 10.7 10.9 10.2 10.7 9.6 10.5 8.4 10.1 7.2 9.7 7.1 9.4 6.9 9.1 6.7 9.1 6.5 9.1 6.8 8.7 7.1 8.4 7.5 9.1 7.9 9.7 8 10.1 8.2 10.5 8.6 11.2 9 11.9 9.2 12.5 9.4 13.1 9.5 13.5 9.6 13.8 10 14.5 10.4 15.2 10.6 15.8 10.8 16.4 11 16.9 11.1 17.4 11.5 18.2 11.9 18.9 12.1 19.5 12.2 20.1 12.9 21.5 13.5 22.9 13.5 23.4 13.5 23.8 13.6 24.4 13.7 24.9 13.7 25.1 13.8 25.3 13.8 25.5 13.8 25.7 13.8 25.8 13.7 26 13.6 26.2 13.5 26.3 13.4 26.5 13.3 26.6 13.2 26.7 13 26.8 12.9 26.9 12.7 26.9 12.5 27 12.3 27 12.1 27 12 27 11.8 26.9 11.6 26.8 11.5 26.7 11.3 26.6 11.2 26.5 11.1 26.4 11 26.2 10.9 26.1 10.8 25.5 10.6 25 10.4 24.4 10.2 23.9 9.8 22.8 9.4 21.7 9.2 20.5 9 19.3 8.8 18.4 8.6 17.5 8.3 15.5 7.9 13.5 7.9 12.4 7.9 11.3 7.9 11.1 7.9 10.9 8 10.8 8.1 10.6 8.2 10.5 8.3 10.3 8.4 10.2 8.5 10.1 8.7 10 8.9 9.9 9 9.9 9.2 9.8 9.4 9.8 9.6 9.8 9.8 9.9 9.9 9.9 10.1 10 10.3 10.1 10.4 10.2 10.5 10.3 10.6 10.5 10.7 10.6 10.8 10.8 10.9 10.9 10.9 11.1 10.9 11.3 10.9 11.3 Z" fill="rgb(0, 0, 0, 1)"/>
  <path d="M 16 21.2 Q 16 21.2 16 22.5 16 23.7 15.8 24.4 15.6 25.2 15.7 25.7 15.7 26.3 15.7 27 15.7 27.7 15.7 28.4 15.7 29.2 15.7 29.9 15.7 30.6 15.8 31.2 16 31.8 16 32.5 16 33.2 15.7 33.2 15.4 33.1 15.8 33 16.1 32.8 16.1 33.4 16.1 34 16.6 33.4 17 32.7 17.3 32.2 17.6 31.7 17.7 31 17.8 30.3 17.8 29.5 17.8 28.8 18 28.1 18.2 27.3 18.1 27 18.1 26.6 18.1 26 18.1 25.5 18.3 24.7 18.6 23.9 18.8 23.1 18.9 22.3 18.9 21.9 18.9 21.5 19.1 20.8 19.3 20 19.3 19.5 19.3 18.9 19.3 18.7 19.4 18.6 19.5 18.4 19.6 18.3 19.7 18.2 19.9 18 20 18 20.2 17.9 20.4 17.8 20.6 17.8 20.7 17.8 20.9 17.8 21.1 17.9 21.3 17.9 21.4 18 21.6 18.1 21.7 18.2 21.8 18.3 21.9 18.5 22 18.6 22.1 18.8 22.2 19 22.2 19.2 22.2 19.3 22.2 19.5 22.1 19.7 22.2 20 22.2 20.4 22.2 21 22.2 21.5 22 22.4 21.9 23.3 21.9 24 21.9 24.8 21.9 25.6 21.9 26.3 21.9 26.5 21.9 26.7 21.8 26.8 21.7 27 21.6 27.1 21.5 27.3 21.4 27.4 21.3 27.5 21.1 27.6 20.9 27.7 20.8 27.7 20.6 27.8 20.4 27.8 20.2 27.8 20 27.7 19.9 27.7 19.7 27.6 19.5 27.5 19.4 27.4 19.3 27.3 19.2 27.1 19.1 27 19 26.8 18.9 26.7 18.9 26.5 18.9 26.3 20 25.3 21 24.2 21.5 23.4 22.1 22.5 22.4 22 22.7 21.5 22.9 21.1 23 20.7 23.1 19.7 23.3 18.8 23.4 18.6 23.5 18.5 23.6 18.3 23.7 18.2 23.8 18.1 24 18 24.2 17.9 24.3 17.8 24.5 17.8 24.7 17.8 24.9 17.8 25 17.8 25.2 17.9 25.4 18 25.5 18.1 25.7 18.2 25.8 18.3 25.9 18.4 26 18.6 26.1 18.7 26.1 18.9 26.2 19.1 26.2 19.3 26.2 19.5 26.2 19.6 26.1 19.8 26 20.3 25.8 20.8 25.3 21.6 24.8 22.4 24.3 23.4 23.8 24.4 23.5 24.9 23.1 25.5 23 25.6 22.9 25.8 22.8 25.9 22.7 26 22.5 26.1 22.4 26.2 22.2 26.2 22 26.3 21.8 26.3 21.6 26.3 21.5 26.3 21.3 26.2 21.1 26.1 21 26.1 20.8 25.9 20.7 25.8 20.6 25.7 20.5 25.5 20.4 25.4 20.4 25.2 20.3 25 20.3 24.8 20.3 24.6 20.3 24.5 20.4 24.3 20.5 24.1 20.4 23.9 20.3 23.7 20.3 23 20.3 22.3 20.3 21.2 20.3 20.1 20.5 18.9 20.7 17.6 20.9 16.9 21 16.1 21 15.7 21 15.3 21 14.8 21 14.2 21.1 13.5 21.2 12.7 21.7 12 22.3 11.3 22.5 10.9 22.8 10.5 23.5 10 24.2 9.5 24.1 9.2 24.1 9 24.2 8.5 24.4 8 24.7 8.1 24.9 8.2 24.6 8.3 24.2 8.3 23.9 8.4 23.6 8.4 22.9 8.4 22.2 8.4 21.6 8.4 21.1 8.4 20.3 8.4 19.6 8.4 18.7 8.4 17.8 8.4 17.2 8.4 16.7 8.4 15.8 8.4 14.9 8.4 14.1 8.4 13.4 8.4 12.8 8.4 12.3 8.4 11.6 8.4 10.9 8.4 10.3 8.4 9.8 8.4 9.2 8.4 8.7 8.4 8.5 8.4 8.3 8.4 8.2 8.3 8 8.2 7.9 8.1 7.7 8 7.6 7.9 7.5 7.8 7.4 7.6 7.3 7.4 7.3 7.3 7.2 7.1 7.2 6.9 7.2 6.7 7.3 6.5 7.3 6.4 7.4 6.2 7.5 6 7.6 5.9 7.7 5.8 7.9 5.7 8 5.6 8.2 5.5 8.3 5.4 8.5 5.4 8.7 5.4 9.2 5.4 9.8 5.4 10.3 5.3 10.9 5.1 11.3 5 11.8 4.8 12.8 4.6 13.9 4.3 15.1 4.3 16.3 4.3 16.8 4.3 17.4 4.3 18.3 4.3 19.3 4.3 20 4.3 20.7 4.3 21.1 4.2 21.4 4.1 22.2 4 22.9 4 23.6 4 24.4 4 24.9 4 25.5 4 26 4 26.6 4 27.3 4 28 4 28.5 4 29.1 4 29.3 4 29.5 4 29.6 4.1 29.8 4.2 29.9 4.3 30.1 4.4 30.2 4.5 30.3 4.6 30.4 4.8 30.5 5 30.5 5.1 30.6 5.3 30.6 5.5 30.6 5.7 30.5 5.9 30.5 6 30.4 6.2 30.3 6.4 30.2 6.5 30.1 6.6 29.9 6.7 29.8 6.8 29.6 6.9 29.5 7 29.3 7 29.1 7 29.4 7.2 29.7 7.4 29.5 7.8 29.4 8.2 29.2 8.8 29 9.3 28.9 9.8 28.7 10.3 28.3 11.1 27.9 11.8 27.7 12.2 27.6 12.6 27.4 13.1 27.2 13.6 27.3 14.1 27.3 14.6 27.1 15.5 27 16.4 26.8 17.2 26.5 17.9 26.4 18.8 26.2 19.6 26 20.2 25.8 20.8 25.9 21.2 25.9 21.5 25.7 22.3 25.4 23.1 25.2 23.6 25 24.2 25.1 24.5 25.1 24.8 24.9 25.5 24.7 26.3 24.8 26.9 24.8 27.4 24.6 28.2 24.3 29 24.4 29.3 24.4 29.6 24.1 30.4 23.9 31.1 23.9 31.4 24 31.7 23.8 32.4 23.6 33.2 23.7 33.5 23.7 33.9 23.7 34.6 23.7 35.4 23.7 36 23.7 36.5 23.5 37.4 23.2 38.3 23.3 38.8 23.3 39.4 23.3 40 23.3 40.5 23.1 41.3 22.8 42.1 22.9 42.4 22.9 42.7 22.9 43.3 22.9 43.8 22.9 44.3 22.9 44.9 22.9 45.5 22.9 46 22.7 46.7 22.5 47.5 22.5 48.2 22.5 48.9 22.5 49.1 22.4 49.2 22.3 49.4 22.2 49.5 22.1 49.6 21.9 49.8 21.8 49.8 21.6 49.9 21.4 50 21.2 50 21.1 50 20.9 50 20.7 49.9 20.5 49.9 20.4 49.8 20.2 49.7 20.1 49.6 20 49.5 19.9 49.3 19.8 49.2 19.7 49 19.6 48.8 19.6 48.6 19.6 48.5 19.6 48.3 19.7 48.1 19.6 47.7 19.6 47.4 19.8 46.6 20 45.9 20.2 45.3 20.4 44.7 20.8 44.1 21.2 43.4 21.1 43.2 21 43 21.3 42.2 21.5 41.4 21.7 40.9 21.9 40.4 22 39.9 22.2 39.4 22.4 38.8 22.6 38.2 22.5 37.9 22.5 37.6 22.7 36.8 23 36 23.1 35.5 23.3 35 23.2 34.6 23.2 34.3 23.4 33.5 23.7 32.7 23.6 32.4 23.6 32.1 23.8 31.3 24.1 30.5 24 30.2 24 29.9 24.2 29.2 24.4 28.4 24.3 28.1 24.3 27.7 24.3 27.1 24.3 26.6 24.3 26 24.3 25.5 24.5 24.7 24.8 23.9 24.7 23.5 24.7 23 24.7 22.4 24.7 21.9 24.9 21.1 25.2 20.3 25.1 19.8 25.1 19.3 25.1 18.7 25.1 18.2 25.3 17.5 25.5 16.8 25.7 16.2 25.9 15.6 25.8 15.3 25.8 15 26 14.3 26.2 13.5 26.1 13.1 26.1 12.8 26.3 12 26.6 11.2 26.5 10.9 26.5 10.6 26.7 9.8 27 9 27.8 7.2 28.5 5.4 28.7 5.2 28.9 5 29.1 4.9 29.3 4.8 29.5 4.7 29.8 4.7 30 4.7 30.2 4.8 30.5 4.9 30.7 5 30.8 5.2 31 5.3 31.1 5.5 31.2 5.8 31.3 6 31.3 6.2 31.3 6.5 31.2 6.7 31.1 6.9 31 7.1 30.8 7.3 30.6 7.5 30.4 7.6 30.2 7.7 29.9 7.7 29.7 7.7 29.4 7.6 29.2 7.6 29 7.4 28.8 7.3 28.6 7.1 28.5 6.9 28.4 6.7 28.3 6.5 28.3 6.2 28.3 6 28.4 5.8 28.5 5.5 28.6 5.3 28.7 5.1 28.9 5 29.1 4.9 29.4 4.8 29.6 4.7 29.8 4.7 30.1 4.7 30.3 4.8 30.5 4.9 30.7 5 30.9 5.2 31 5.4 31.2 5.6 31.2 5.8 31.3 6.1 31.3 6.3 31.3 6.6 31.2 6.8 31.1 7 31.1 7 31.1 7 30.4 8.5 29.8 10 29.7 10.3 29.5 10.6 29.5 11.4 29.4 12.2 29.3 12.5 29.1 12.8 29.1 13.6 29 14.3 28.9 14.6 28.8 15 28.8 15.8 28.7 16.6 28.5 17.1 28.3 17.6 28.2 17.9 28.1 18.2 28.1 18.8 28.1 19.3 28.1 20.3 28 21.3 27.9 21.6 27.7 21.9 27.7 22.5 27.7 23 27.7 23.9 27.6 24.9 27.5 25.2 27.3 25.5 27.3 26.1 27.3 26.6 27.3 27.1 27.3 27.7 27.3 28.4 27.2 29.2 27.1 29.5 27 29.9 27 30.7 26.9 31.5 26.8 31.8 26.6 32.1 26.6 32.9 26.5 33.7 26.4 34 26.2 34.3 26.2 35.1 26.1 35.8 26 36.4 25.8 37 25.7 37.3 25.5 37.6 25.5 38.4 25.4 39.2 25.2 39.7 25 40.2 24.9 40.8 24.7 41.4 24.5 42 24.3 42.6 24.1 42.8 24 43 23.9 43.9 23.8 44.8 23.5 45.2 23.2 45.7 23 46.2 22.8 46.7 22.7 47.1 22.6 47.4 22.6 48.2 22.5 48.9 22.5 49.1 22.4 49.2 22.3 49.4 22.2 49.5 22.1 49.6 21.9 49.8 21.8 49.8 21.6 49.9 21.4 50 21.2 50 21.1 50 20.9 50 20.7 49.9 20.5 49.9 20.4 49.8 20.2 49.7 20.1 49.6 20 49.5 19.9 49.3 19.8 49.2 19.7 49 19.6 48.8 19.6 48.6 19.6 48.5 19.6 48.3 19.7 48.1 19.7 47.4 19.7 46.7 19.8 46.4 19.9 46 19.9 45.4 19.9 44.9 19.9 44.3 19.9 43.8 19.9 43.3 19.9 42.7 19.9 41.9 20 41.1 20.1 40.8 20.3 40.5 20.3 39.9 20.3 39.4 20.3 38.5 20.4 37.5 20.5 37 20.7 36.5 20.7 35.9 20.7 35.4 20.7 34.6 20.7 33.9 20.7 33.2 20.8 32.4 20.9 32.1 21 31.7 21.1 30.9 21.1 30.1 21.3 29.8 21.4 29.6 21.4 28.8 21.5 28 21.6 27.7 21.8 27.4 21.8 26.4 21.9 25.5 22 25.2 22.1 24.8 22.1 24 22.2 23.2 22.4 22.7 22.6 22.1 22.7 21.8 22.9 21.5 22.9 20.7 23 20 23.1 19.5 23.2 19 23.4 18 23.7 17.1 23.8 16.4 24 15.8 24.2 15.2 24.3 14.6 24.3 13.6 24.4 12.6 24.6 12 24.8 11.4 25.1 10.8 25.3 10.2 25.6 9.8 25.9 9.5 26 8.9 26.2 8.3 26.4 7.7 26.6 7.2 26.9 6.5 27.1 5.8 28.1 4.9 29.1 4 29.3 4 29.5 4 29.6 4.1 29.8 4.2 29.9 4.3 30.1 4.4 30.2 4.5 30.3 4.6 30.4 4.8 30.5 5 30.5 5.1 30.6 5.3 30.6 5.5 30.6 5.7 30.5 5.9 30.5 6 30.4 6.2 30.3 6.4 30.2 6.5 30.1 6.6 29.9 6.7 29.8 6.8 29.6 6.9 29.5 7 29.3 7 29.1 7 28.5 7 28 7 27.3 7 26.6 7 26 7 25.5 7 24.9 7 24.4 7 23.6 7 22.9 7 22.5 7 22.2 6.9 21.4 7.1 20.7 7.3 20 7.3 19.3 7.3 18.3 7.3 17.4 7.3 16.8 7.3 16.3 7.3 15.4 7.3 14.5 7.3 13.7 7.4 12.8 7.6 12.2 7.8 11.5 8.1 10.7 8.2 9.8 8.4 9.3 8.4 8.7 8.4 8.5 8.4 8.3 8.4 8.2 8.3 8 8.2 7.9 8.1 7.7 8 7.6 7.9 7.5 7.8 7.4 7.6 7.3 7.4 7.3 7.3 7.2 7.1 7.2 6.9 7.2 6.7 7.3 6.5 7.3 6.4 7.4 6.2 7.5 6 7.6 5.9 7.7 5.8 7.9 5.7 8 5.6 8.2 5.5 8.3 5.4 8.5 5.4 8.7 5.4 9.2 5.4 9.8 5.4 10.3 5.4 10.9 5.4 11.6 5.4 12.3 5.4 12.8 5.4 13.4 5.4 14.1 5.4 14.9 5.4 15.8 5.4 16.7 5.4 17.2 5.4 17.8 5.4 18.7 5.4 19.6 5.4 20.3 5.4 21.1 5.4 21.6 5.4 22.2 5.4 22.9 5.4 23.6 5.4 24.4 5.4 25.2 5.5 25.9 5.9 26.7 6.4 26.9 7.6 27.2 8.8 27.1 9.4 26.9 10 26.5 10.9 26 11.7 25.6 11.9 25.2 12.1 24.8 12.8 24.3 13.5 24.1 13.5 23.8 13.5 23.9 13.8 24 14.2 24 14.8 24 15.3 24 16 24 16.7 23.8 17.4 23.7 18.2 23.5 19.1 23.3 20.1 23.3 21.2 23.3 22.3 23.3 23 23.3 23.7 23.2 24.6 23.1 25.5 23 25.6 22.9 25.8 22.8 25.9 22.7 26 22.5 26.1 22.4 26.2 22.2 26.2 22 26.3 21.8 26.3 21.6 26.3 21.5 26.3 21.3 26.2 21.1 26.1 21 26.1 20.8 25.9 20.7 25.8 20.6 25.7 20.5 25.5 20.4 25.4 20.4 25.2 20.3 25 20.3 24.8 20.3 24.6 20.3 24.5 20.4 24.3 20.5 24.1 20.8 23.6 21.2 23 21.8 21.8 22.4 20.6 22.7 20.3 23 20 23.1 19.4 23.3 18.8 23.4 18.6 23.5 18.5 23.6 18.3 23.7 18.2 23.8 18.1 24 18 24.2 17.9 24.3 17.8 24.5 17.8 24.7 17.8 24.9 17.8 25 17.8 25.2 17.9 25.4 18 25.5 18.1 25.7 18.2 25.8 18.3 25.9 18.4 26 18.6 26.1 18.7 26.1 18.9 26.2 19.1 26.2 19.3 26.2 19.5 26.2 19.6 26.1 19.8 26 20.8 25.8 21.7 25.5 22.4 25.3 23.1 24.9 23.7 24.5 24.3 23.6 25.5 22.6 26.8 22.2 26.5 21.9 26.3 21.9 26.5 21.9 26.7 21.8 26.8 21.7 27 21.6 27.1 21.5 27.3 21.4 27.4 21.3 27.5 21.1 27.6 20.9 27.7 20.8 27.7 20.6 27.8 20.4 27.8 20.2 27.8 20 27.7 19.9 27.7 19.7 27.6 19.5 27.5 19.4 27.4 19.3 27.3 19.2 27.1 19.1 27 19 26.8 18.9 26.7 18.9 26.5 18.9 26.3 18.9 25.6 18.9 24.8 18.9 23.8 18.9 22.7 19.1 22.1 19.2 21.5 19.2 20.9 19.2 20.4 19.2 19.7 19.3 18.9 19.3 18.7 19.4 18.6 19.5 18.4 19.6 18.3 19.7 18.2 19.9 18 20 18 20.2 17.9 20.4 17.8 20.6 17.8 20.7 17.8 20.9 17.8 21.1 17.9 21.3 17.9 21.4 18 21.6 18.1 21.7 18.2 21.8 18.3 21.9 18.5 22 18.6 22.1 18.8 22.2 19 22.2 19.2 22.2 19.3 22.2 19.5 22.1 19.7 22.1 20.2 22.1 20.8 22 21.1 21.9 21.5 21.9 22.2 21.9 22.9 21.6 23.9 21.4 24.9 21.3 25.2 21.1 25.5 21.1 26.1 21.1 26.6 21.1 27.3 21 28.1 20.9 28.4 20.8 28.8 20.8 29.9 20.8 30.9 20.5 32.1 20.2 33.3 19.8 33.9 19.4 34.5 18.7 35.2 18.1 36 17 35.9 15.9 35.8 15.1 35.6 14.4 35.5 13.7 34.3 13 33.2 13 32.8 13 32.4 12.9 31.5 12.7 30.6 12.7 29.9 12.7 29.2 12.7 28.4 12.7 27.7 12.7 27 12.7 26.3 12.7 25.4 12.8 24.4 12.9 24.1 13 23.7 13 22.4 13 21.2 13 21 13 20.8 13.1 20.7 13.2 20.5 13.3 20.4 13.4 20.2 13.5 20.1 13.6 20 13.8 19.9 14 19.8 14.1 19.8 14.3 19.7 14.5 19.7 14.7 19.7 14.9 19.8 15 19.8 15.2 19.9 15.4 20 15.5 20.1 15.6 20.2 15.7 20.4 15.8 20.5 15.9 20.7 16 20.8 16 21 16 21.2 16 21.2 Z" fill="rgb(0, 0, 0, 1)"/>
  <path d="M 17.5 24.3 Q 17.5 24.3 17.3 23.1 17.1 22 17.1 21.2 17.1 20.5 17 20.1 16.9 19.8 16.9 19.2 16.9 18.6 16.8 18.4 16.8 18.2 16.8 18.1 16.8 17.9 16.9 17.7 17 17.5 17.1 17.4 17.2 17.2 17.3 17.1 17.4 17 17.6 16.9 17.7 16.8 17.9 16.8 18.1 16.7 18.3 16.7 18.4 16.7 18.6 16.7 18.8 16.8 19 16.9 19.1 16.9 19.3 17.1 19.4 17.2 19.5 17.3 19.6 17.5 19.7 17.6 19.7 17.8 19.5 18.8 19.3 19.9 19.1 20.4 18.9 21 18.9 21.9 18.9 22.9 18.8 23.1 18.7 23.2 18.6 23.4 18.5 23.5 18.4 23.6 18.2 23.7 18 23.8 17.9 23.9 17.7 23.9 17.5 23.9 17.3 23.9 17.2 23.9 17 23.8 16.8 23.7 16.7 23.6 16.5 23.5 16.4 23.4 16.3 23.3 16.2 23.1 16.1 23 16.1 22.8 16 22.6 16 22.4 16 22.2 16 22.1 16.1 21.9 15.8 22.4 15.5 23 15 22.4 14.5 21.9 14 21 13.5 20.1 12.9 19.9 12.4 19.7 12.3 19.5 12.2 19.4 12.2 19.2 12.2 19 12.2 18.8 12.2 18.7 12.3 18.5 12.4 18.3 12.5 18.2 12.6 18 12.7 17.9 12.8 17.8 13 17.7 13.2 17.6 13.3 17.6 13.5 17.5 13.7 17.5 13.9 17.5 14 17.6 14.2 17.6 14.4 17.7 14.5 17.8 14.7 17.9 14.8 18 14.9 18.1 15 18.3 15 19.1 15 19.8 14.8 20 14.6 20.2 14.4 20.3 14.2 20.4 14 20.5 13.7 20.5 13.5 20.5 13.3 20.4 13 20.3 12.8 20.2 12.7 20 12.5 19.9 12.4 19.7 12.3 19.4 12.2 19.2 12.2 19 12.2 18.7 12.3 18.5 12.4 18.3 12.5 18.1 12.7 17.9 12.9 17.7 13.1 17.6 13.3 17.5 13.6 17.5 13.8 17.5 14.1 17.6 14.3 17.6 14.5 17.8 14.7 17.9 14.9 18.1 15 18.3 15.1 18.5 15.2 18.7 15.2 19 15.2 19.2 15.1 19.4 15 19.7 14.9 19.9 14.8 20.1 14.6 20.2 14.4 20.3 14.1 20.4 13.9 20.5 13.7 20.5 13.4 20.5 13.2 20.4 13 20.3 12.8 20.2 12.6 20 12.5 19.8 12.3 19.6 12.3 19.4 12.2 19.1 12.2 18.9 12.2 18.6 12.3 19.2 12.4 19.7 12.3 19.5 12.2 19.4 12.2 19.2 12.2 19 12.2 18.8 12.2 18.7 12.3 18.5 12.4 18.3 12.5 18.2 12.6 18 12.7 17.9 12.8 17.8 13 17.7 13.2 17.6 13.3 17.6 13.5 17.5 13.7 17.5 13.9 17.5 14 17.6 14.2 17.6 14.4 17.7 14.5 17.8 14.7 17.9 14.8 18 14.9 18.1 15 18.3 15.6 18.5 16.1 18.7 16.4 19.3 16.7 19.9 16.9 20.2 17.1 20.4 18 21.7 18.9 22.9 18.8 23.1 18.7 23.2 18.6 23.4 18.5 23.5 18.4 23.6 18.2 23.7 18 23.8 17.9 23.9 17.7 23.9 17.5 23.9 17.3 23.9 17.2 23.9 17 23.8 16.8 23.7 16.7 23.6 16.5 23.5 16.4 23.4 16.3 23.3 16.2 23.1 16.1 23 16.1 22.8 16 22.6 16 22.4 16 22.2 16 22.1 16.1 21.9 16.1 21 16.1 20 16.3 19.5 16.5 18.9 16.7 18.8 16.9 18.6 16.8 18.4 16.8 18.2 16.8 18.1 16.8 17.9 16.9 17.7 17 17.5 17.1 17.4 17.2 17.2 17.3 17.1 17.4 17 17.6 16.9 17.7 16.8 17.9 16.8 18.1 16.7 18.3 16.7 18.4 16.7 18.6 16.7 18.8 16.8 19 16.9 19.1 16.9 19.3 17.1 19.4 17.2 19.5 17.3 19.6 17.5 19.7 17.6 19.7 17.8 19.7 18.4 19.7 19 19.9 19.8 20.1 20.5 20.1 21 20.1 21.4 20.3 22.6 20.5 23.7 20.5 23.9 20.5 24.1 20.5 24.3 20.4 24.5 20.4 24.6 20.3 24.8 20.2 24.9 20.1 25.1 19.9 25.2 19.8 25.3 19.6 25.4 19.4 25.4 19.3 25.5 19.1 25.5 18.9 25.5 18.7 25.5 18.5 25.4 18.4 25.4 18.2 25.3 18.1 25.2 17.9 25 17.8 24.9 17.7 24.8 17.6 24.6 17.6 24.4 17.5 24.3 17.5 24.3 Z" fill="rgb(0, 0, 0, 1)"/>
  <path d="M 59.8 32.7 Q 59.8 32.7 59.6 31.5 59.4 30.4 59.4 29.7 59.4 29 59.2 28.6 59.1 28.2 59 27.5 59 26.7 58.8 26.3 58.7 26 58.6 25.2 58.6 24.4 58.6 23.8 58.6 23.2 58.6 22.6 58.6 22.1 58.6 21.5 58.6 20.9 58.6 20.3 58.6 19.8 58.6 19.2 58.6 18.6 58.6 18 58.6 17.5 58.6 16.9 58.6 16.3 58.8 15.5 59.1 14.6 59.3 14.1 59.5 13.5 60 12.7 60.4 12 60.5 11.6 60.6 11.2 61.2 10.6 61.7 9.9 61.8 9.6 61.8 9.3 62.3 8.5 62.8 7.8 63.4 7.1 64 6.4 64.5 6 64.9 5.6 65.7 5.3 66.5 4.9 66.9 4.6 67.4 4.2 68.1 4 68.9 3.8 69.3 3.5 69.7 3.1 70.4 2.9 71.1 2.6 72 2.5 72.8 2.5 73.5 2.5 74.3 2.5 74.9 2.5 75.5 2.5 76 2.5 76.6 2.5 77.2 2.5 77.8 2.5 78.4 2.5 78.9 2.5 79.7 2.7 80.6 3 81.2 3.2 81.7 3.4 82.4 3.9 83 4.4 83.4 4.8 83.9 5.2 84.2 5.7 84.6 6.1 85.1 6.7 85.5 7.3 86 8.2 86.4 9.1 86.7 9.8 86.9 10.4 87.2 11.1 87.6 11.9 87.8 12.5 88 13.1 88.4 13.7 88.7 14.4 89 15.1 89.2 15.9 89.3 16.7 89.3 17.5 89.5 18.1 89.6 18.6 89.8 19.2 89.9 19.7 90.2 20.5 90.4 21.3 90.5 21.8 90.7 22.3 90.8 23.2 90.8 24 91 24.8 91.2 25.6 91.4 26.3 91.5 27 91.8 27.8 92 28.6 92.1 30.7 92.3 32.8 92.3 33 92.2 33.3 92.1 33.5 92 33.7 91.8 33.9 91.6 34 91.4 34.1 91.2 34.2 91 34.3 90.7 34.3 90.5 34.2 90.2 34.2 90 34.1 89.8 33.9 89.7 33.8 89.5 33.6 89.4 33.3 89.3 33.1 89.3 32.9 89.3 32.6 89.4 32.4 89.4 32.2 89.6 32 89.7 31.8 89.9 31.6 90.1 31.5 90.3 31.4 90.6 31.3 90.8 31.3 91 31.3 91.3 31.4 91.5 31.5 91.7 31.6 91.9 31.8 92 32 92.2 32.2 92.2 32.4 92.3 32.6 92.3 32.9 92.3 33.1 92.2 33.3 92.1 33.6 91.9 33.8 91.8 33.9 91.6 34.1 91.4 34.2 91.1 34.2 90.9 34.3 90.6 34.3 90.4 34.2 90.2 34.1 90 34 89.8 33.9 89.6 33.7 89.5 33.5 89.4 33.3 89.3 33 89.3 32.8 89.3 32.8 89.3 32.8 89.2 31.1 89 29.4 88.8 28.6 88.7 27.8 88.4 27 88.2 26.2 88 25.1 87.8 24 87.8 23.6 87.9 23.3 87.7 22.7 87.4 22.1 87.2 21.3 87.1 20.5 86.9 19.9 86.8 19.4 86.5 18.4 86.3 17.5 86.3 17.1 86.4 16.7 86.2 16.3 86.1 15.8 85.6 15 85.2 14.1 85 13.6 84.8 13.1 84.5 12.3 84.1 11.4 83.9 10.9 83.8 10.5 83.4 9.8 83.1 9.1 82.7 8.6 82.4 8.1 82.1 7.7 81.7 7.4 81.4 7 81 6.6 80.8 6.4 80.7 6.2 80.1 6 79.6 5.8 79.3 5.7 78.9 5.5 78.3 5.5 77.8 5.5 77.2 5.5 76.6 5.5 76 5.5 75.5 5.5 74.9 5.5 74.3 5.5 73.5 5.5 72.8 5.5 72.4 5.5 72.1 5.4 71.7 5.5 71.3 5.7 70.5 6.1 69.7 6.6 69.4 6.7 69 6.8 68.3 7.2 67.5 7.7 67.2 7.7 66.9 7.8 66.5 8.2 66.2 8.6 65.7 9 65.2 9.4 64.9 9.9 64.6 10.3 64.2 11.1 63.9 11.9 63.6 12 63.4 12.2 63.2 12.9 63 13.6 62.6 14.1 62.3 14.5 62.1 15 61.9 15.6 61.8 15.9 61.6 16.3 61.6 16.9 61.6 17.5 61.6 18 61.6 18.6 61.6 19.2 61.6 19.8 61.6 20.3 61.6 20.9 61.6 21.5 61.6 22.1 61.6 22.6 61.6 23.2 61.6 23.8 61.6 24.4 61.6 24.7 61.5 25 61.8 25.9 62 26.7 62 27 61.9 27.4 62.2 28.2 62.4 29 62.4 29.4 62.4 29.8 62.6 31 62.8 32.1 62.8 32.3 62.8 32.5 62.8 32.7 62.7 32.9 62.7 33 62.6 33.2 62.5 33.3 62.4 33.5 62.2 33.6 62.1 33.7 61.9 33.8 61.7 33.8 61.6 33.9 61.4 33.9 61.2 33.9 61 33.9 60.8 33.8 60.7 33.8 60.5 33.7 60.4 33.6 60.2 33.4 60.1 33.3 60 33.2 59.9 33 59.9 32.8 59.8 32.7 59.8 32.7 Z" fill="rgb(0, 0, 0, 1)"/>
  <path d="M 61.1 35.8 Q 61.1 35.8 59.8 35.6 58.4 35.5 57.9 35.5 57.4 35.5 56.9 35.5 56.4 35.5 56.1 35.7 55.9 36 55.7 36.2 55.5 36.5 55.1 36.9 54.7 37.3 54.7 37.6 54.6 37.9 54.4 38.5 54.2 39.1 54 39.6 53.8 40.2 53.7 40.7 53.6 41.3 53.6 41.6 53.6 42 53.4 42.8 53.1 43.6 53.2 44 53.2 44.3 53.2 44.9 53.2 45.5 53.2 46 53.2 46.6 53.2 47.2 53.2 47.8 53.2 48.3 53.2 48.9 53.2 49.5 53.2 50.1 53.2 50.8 53.2 51.6 53.4 52.2 53.6 52.8 53.6 53.8 53.6 54.7 53.6 55.4 53.6 56.2 53.7 56.9 53.9 57.5 54 58 54.2 58.4 54.3 59.3 54.3 60.1 54.3 60.6 54.3 61.2 54.5 61.6 54.6 61.9 54.7 62.7 54.7 63.5 54.7 64.1 54.7 64.7 54.7 65.2 54.7 65.8 54.9 66.2 55 66.6 55.1 67.3 55.1 68.1 55.1 68.9 55.1 69.7 55.1 70.2 55.1 70.8 55.3 71.2 55.4 71.5 55.5 72.3 55.5 73.1 55.5 73.7 55.5 74.3 55.5 74.7 55.4 75.2 55.6 75.2 55.8 75.2 56.2 75.6 56.6 75.9 57 76.2 57.5 76.4 58.2 76.8 58.9 77.2 59.6 77.3 60.4 77.4 61.5 77.6 62.7 77.8 63.3 77.8 64 77.8 64.8 77.8 65.5 77.8 66.4 77.8 67.4 77.8 68.2 77.8 69 77.8 69.6 77.6 70.1 77.4 71.1 77.4 72 77.4 72.6 77.2 73.2 77 74.2 76.8 75.2 76.6 75.9 76.6 76.6 76.6 77.2 76.4 77.8 76.2 78.4 76.1 78.9 76 79.5 75.8 80 75.6 80.6 75.4 81.1 75.2 82.1 75.1 83.2 75.1 83.5 74.9 83.8 74.8 85.1 74.6 86.3 74.3 87.1 74.1 87.8 73.9 88.4 73.8 88.9 73.7 89.7 73.6 90.5 73.6 91.3 73.4 92.1 73.2 93 73 94 72.8 94.7 72.6 95.4 72.5 96.5 72.2 97.5 72 98.2 71.8 98.9 71.7 99.9 71.5 101 71.3 101.6 71.1 102.3 71 102.9 70.8 103.4 70.6 104.2 70.5 105 70.5 105.4 70.3 105.7 70.2 106.3 70 106.9 69.8 107.4 69.6 108 69.4 108.1 69.2 108.3 69 108.6 68.6 108.9 68.3 109.3 67.9 109.7 67.4 110.1 67 110.4 66.5 110.5 66.1 110.6 65.7 111 64.9 111.3 64.1 111.5 63.6 111.7 63.1 111.6 62.5 111.6 62 111.8 61.1 112 60.1 112 59.3 112 58.5 112.2 57.7 112.5 56.9 112.4 56.4 112.4 55.9 112.4 55.1 112.4 54.3 112.2 53.7 112 53.2 112 52 112 50.9 111.8 50.5 111.7 50.2 111.5 49.4 111.2 48.6 111.2 47.6 111.2 46.7 111 46.5 110.7 46.2 110.6 45.3 110.5 44.3 110.3 44 110.2 43.7 110 43.1 109.8 42.5 109.6 41.9 109.4 41.4 109.2 40.8 109 40.2 108.8 39.6 108.6 39.1 108.5 38.5 108.3 37.9 108 37.7 107.7 37.4 107.6 36.6 107.5 35.8 107.3 35.8 107 35.7 106.8 35.1 106.6 34.4 106.3 34.5 106.1 34.6 105.4 34.4 104.6 34.3 104.3 34.3 103.9 34.3 103.1 34.1 102.2 33.8 101.7 33.6 101.1 33.4 100.8 33.5 100.4 33.5 99.8 33.5 99.3 33.5 98.5 33.5 97.8 33.5 97.2 33.5 96.6 33.5 96 33.5 95.4 33.5 95.1 33.7 94.8 33.8 93.9 33.9 93.1 33.9 92.1 34.1 91.1 34.3 90.4 34.5 89.7 34.7 88.9 34.7 88.2 34.7 87.6 34.7 87 34.7 86.4 34.7 85.8 34.7 85.2 34.9 84.7 35.1 83.7 35.1 82.8 35.1 82.2 35.1 81.6 35.1 80.9 35.1 80.1 35.1 79.7 35.3 79.4 35.4 78.4 35.5 77.4 35.5 76.6 35.5 75.9 35.5 75.3 35.5 74.7 35.5 74.2 35.5 73.6 35.5 73.2 35.6 72.8 35.8 72 35.8 71.3 35.8 70.7 35.8 70.1 35.8 69.8 36 69.5 36.1 68.4 36.2 67.4 36.2 66.6 36.2 65.9 36.2 65.3 36.2 64.7 36.2 64.1 36.4 63.6 36.6 62.8 36.6 62 36.6 61.4 36.6 60.9 36.6 59.1 36.8 57.4 37 57.2 37 56.9 36.9 56.7 36.8 56.5 36.7 56.3 36.5 56.2 36.3 56.1 36.1 56 35.9 55.9 35.7 55.9 35.4 56 35.2 56 34.9 56.1 34.7 56.3 34.5 56.4 34.4 56.6 34.2 56.9 34.1 57.1 34 57.3 34 57.6 34 57.8 34.1 58 34.1 58.2 34.3 58.4 34.4 58.6 34.6 58.7 34.8 58.8 35 58.9 35.3 58.9 35.5 58.9 35.7 58.8 36 58.7 36.2 58.6 36.4 58.4 36.6 58.2 36.7 58 36.9 57.8 36.9 57.6 37 57.3 37 57.1 37 56.9 36.9 56.6 36.8 56.4 36.6 56.3 36.5 56.1 36.3 56 36.1 56 35.8 55.9 35.6 55.9 35.3 56 35.1 56.1 34.9 56.2 34.7 56.3 34.5 56.5 34.3 56.7 34.2 56.9 34.1 57.2 34 57.4 34 57.4 34 57.4 34 59.1 33.8 60.9 33.6 61.4 33.6 62 33.6 62.4 33.6 62.8 33.6 63.8 33.4 64.7 33.2 65.3 33.2 65.9 33.2 66.6 33.2 67.4 33.2 68 33.2 68.5 33.3 69.3 33 70.1 32.8 70.7 32.8 71.3 32.8 71.7 32.8 72 32.8 72.8 32.7 73.6 32.5 74.1 32.5 74.7 32.5 75.3 32.5 75.9 32.5 76.6 32.5 77.4 32.5 77.9 32.5 78.4 32.6 79.3 32.3 80.1 32.1 80.8 32.1 81.6 32.1 82.2 32.1 82.8 32.1 83.4 32.1 83.9 32.1 84.9 31.9 85.8 31.7 86.4 31.7 87 31.7 87.6 31.7 88.2 31.7 88.6 31.7 88.9 31.7 89.7 31.5 90.5 31.3 91.8 31.1 93.1 30.9 93.5 30.9 93.8 31 94.6 30.7 95.4 30.5 96 30.5 96.6 30.5 97.2 30.5 97.8 30.5 98.5 30.5 99.3 30.5 99.8 30.5 100.4 30.5 101.2 30.5 102.1 30.6 102.6 30.8 103.2 31 103.5 31.1 103.9 31.3 104.6 31.3 105.4 31.3 106.2 31.6 107.1 31.8 108 32.3 108.8 32.8 109 33.2 109.2 33.7 109.7 34.4 110.3 35.2 110.2 35.6 110.1 36 110.6 36.4 111.1 36.9 111.2 37.5 111.4 38.1 111.6 38.7 111.8 39.2 112 39.8 112.2 40.4 112.4 41 112.6 41.5 112.8 42.1 113 42.7 113.3 43.5 113.5 44.3 113.4 44.5 113.3 44.8 113.7 45.6 114.2 46.5 114.2 47.2 114.2 47.8 114.3 48.5 114.5 49.2 114.8 50.1 115 50.9 115 51.7 115 52.4 115.2 53.4 115.4 54.3 115.4 55.1 115.4 55.9 115.4 56.9 115.3 57.9 115.2 58.2 115 58.5 115 59.7 115 60.9 114.8 61.4 114.6 62 114.6 63 114.5 63.9 114.3 64.6 114.1 65.3 113.7 66 113.4 66.7 113.1 67.5 112.8 68.3 112.3 68.9 111.9 69.6 111.5 69.9 111.1 70.3 110.7 70.8 110.3 71.2 109.7 71.7 109 72.2 108.5 72.4 107.9 72.6 107.3 72.8 106.7 73 105.8 73.3 105 73.5 104.7 73.5 104.3 73.4 103.7 73.6 103.1 73.8 102.3 74.1 101.4 74.3 100.6 74.4 99.7 74.5 98.9 74.8 98.1 75 97.1 75.2 96.2 75.3 95.4 75.6 94.6 75.8 93.7 76 92.7 76.2 91.6 76.4 90.5 76.6 90.1 76.6 89.7 76.5 89.1 76.7 88.6 76.9 87.7 77.1 86.9 77.3 85.8 77.4 84.8 77.6 84 77.9 83.2 78.1 82.7 78.1 82.1 78 81.5 78.2 81 78.4 80.3 78.6 79.7 78.8 79.1 79 78.6 79.2 77.6 79.4 76.6 79.6 76.2 79.6 75.8 79.6 74.9 79.8 74 80 73 80.2 72 80.4 71.4 80.4 70.9 80.4 69.9 80.6 69 80.8 68.2 80.8 67.4 80.8 66.4 80.8 65.5 80.8 64.8 80.8 64 80.8 63.1 80.8 62.1 80.8 61 80.6 59.8 80.4 58.7 80.1 57.5 79.8 56.7 79.4 55.9 79 55.2 78.5 54.4 78.1 54 77.6 53.6 77.2 53.1 76.4 52.6 75.6 52.5 75 52.5 74.3 52.5 73.7 52.5 73.1 52.5 72.8 52.6 72.5 52.3 71.6 52.1 70.8 52.1 70.3 52.1 69.7 52.1 68.9 52.1 68.1 52.1 67.8 52.2 67.4 51.9 66.6 51.7 65.8 51.7 65.3 51.7 64.7 51.7 64.1 51.7 63.5 51.7 63.2 51.8 62.9 51.5 62 51.3 61.2 51.3 60.7 51.3 60.1 51.3 59.7 51.4 59.4 51.2 58.7 50.9 58.1 50.8 57.1 50.6 56.2 50.6 55.5 50.6 54.7 50.6 54.1 50.6 53.6 50.4 52.6 50.2 51.6 50.2 50.9 50.2 50.1 50.2 49.5 50.2 48.9 50.2 48.3 50.2 47.8 50.2 47.2 50.2 46.6 50.2 46 50.2 45.5 50.2 44.9 50.2 44.3 50.2 43.5 50.3 42.8 50.4 42.4 50.6 42 50.6 41.3 50.6 40.5 50.8 39.9 51 39.2 51.2 38.7 51.4 38.1 51.6 37.5 51.8 36.9 52.1 36.1 52.5 35.3 52.9 34.9 53.3 34.5 53.8 34 54.3 33.4 55.3 33 56.2 32.5 56.8 32.5 57.4 32.5 58.1 32.5 58.8 32.5 60.1 32.7 61.5 32.8 61.6 32.9 61.8 32.9 62 33 62.1 33.1 62.3 33.2 62.4 33.3 62.5 33.4 62.6 33.6 62.7 33.8 62.8 33.9 62.8 34.1 62.8 34.3 62.8 34.5 62.8 34.6 62.7 34.8 62.6 35 62.5 35.1 62.4 35.3 62.3 35.4 62.2 35.5 62 35.6 61.8 35.7 61.7 35.7 61.5 35.8 61.3 35.8 61.1 35.8 61.1 35.8 Z" fill="rgb(0, 0, 0, 1)"/>
  <path d="M 80.9 49.7 Q 80.9 49.7 79.9 49.7 78.8 49.6 78.9 49.6 79 49.6 79.1 49.7 79.2 49.8 79.4 49.9 79.7 49.9 80 50.7 80.3 51.5 80.5 51.7 80.8 51.8 81 52.3 81.2 52.8 81.3 53 81.4 53.1 81.5 53.3 81.5 53.5 81.6 53.6 81.6 53.8 81.6 54 81.6 54.2 81.5 54.3 81.5 54.5 81.4 54.7 81.3 54.8 81.2 55 81 55.1 80.9 55.2 80.7 55.3 80.5 55.3 80.4 55.4 80.2 55.4 80 55.4 79.8 55.4 79.7 55.3 79.5 55.3 79.3 55.2 79.2 55.1 79 55 79.7 53.4 80.4 51.9 80.6 51.8 80.8 51.6 80.7 51.4 80.5 51.2 80.6 50.8 80.6 50.4 80.2 49.9 79.7 49.3 79.7 49.1 79.7 48.9 79.8 48.8 79.9 48.6 80 48.5 80.1 48.3 80.2 48.2 80.3 48.1 80.5 48 80.7 47.9 80.8 47.9 81 47.8 81.2 47.8 81.4 47.8 81.6 47.9 81.7 47.9 81.9 48 82.1 48.1 82.2 48.2 82.3 48.3 82.4 48.5 82.5 48.6 82.6 48.8 82.7 48.9 82.7 49.1 82.7 49.3 82.2 50.1 81.7 50.8 81.5 50.6 81.4 50.3 81.7 50.2 82.1 50.2 82.6 50.4 83.1 50.6 83.2 50.4 83.3 50.3 83.4 50 83.5 49.6 84.1 50.2 84.6 50.7 84 50.5 83.4 50.3 82.8 49.9 82.1 49.5 81.9 49.6 81.6 49.7 81.2 49.7 80.7 49.6 80.7 49.8 80.7 50 80.4 50.3 80 50.7 80 51 80.1 51.3 80.1 51.6 80.1 52 79.7 52 79.3 52 79.7 51.8 80.1 51.7 80.4 51.6 80.6 51.4 81.1 51 81.5 50.6 81.7 50.5 81.8 50.5 82 50.5 82.2 50.5 82.4 50.6 82.6 50.6 82.7 50.7 82.9 50.8 83 50.9 83.1 51 83.2 51.2 83.3 51.3 83.4 51.5 83.5 51.7 83.5 51.8 83.5 52 83.5 52.2 83.5 52.4 83.4 52.5 83.3 52.7 83.2 52.9 83.1 53 83 53.1 82.8 53.2 82.7 53.3 82.5 53.4 83 53.3 83.5 53.2 83.5 53.8 83.5 54.3 83.5 54.9 83.5 55.5 83.3 56.3 83 57.1 83.1 57.4 83.1 57.8 83.1 58.3 83.1 58.9 83.1 59.5 83.1 60.1 83.1 60.6 83.1 61.2 82.7 61.3 82.4 61.4 82.6 61.4 82.7 61.5 82.9 61.1 83.2 60.7 83.7 61 84.1 61.2 84.2 61.3 84.3 61.3 84 61.3 83.7 61.2 83.2 60.5 82.6 59.7 82.4 59 82.1 58.3 81.9 58.2 81.7 58 81.3 57.2 81 56.4 80.4 55.8 79.8 55.2 79.7 55 79.7 54.9 79.7 54.7 79.7 54.5 79.8 54.3 79.8 54.1 79.9 54 80 53.8 80.1 53.7 80.2 53.6 80.4 53.5 80.5 53.4 80.7 53.3 80.9 53.2 81 53.2 81.2 53.2 81.4 53.2 81.6 53.2 81.7 53.3 81.9 53.4 82.1 53.5 82.2 53.6 82.3 53.7 82.4 53.9 82.5 54 82.6 54.2 82.6 54.7 82.6 55.2 82.5 55.4 82.4 55.6 82.2 55.8 82 55.9 81.8 56 81.6 56.1 81.4 56.2 81.1 56.2 80.9 56.1 80.6 56.1 80.4 56 80.2 55.8 80.1 55.7 79.9 55.5 79.8 55.2 79.7 55 79.7 54.8 79.7 54.5 79.8 54.3 79.8 54.1 80 53.9 80.1 53.7 80.3 53.5 80.5 53.4 80.7 53.3 81 53.2 81.2 53.2 81.4 53.2 81.7 53.3 81.9 53.4 82.1 53.5 82.3 53.7 82.4 53.9 82.6 54.1 82.6 54.3 82.7 54.5 82.7 54.8 82.7 55 82.6 55.2 82.5 55.5 82.3 55.7 82.2 55.8 82 56 81.8 56.1 81.5 56.1 81.3 56.2 81 56.2 80.8 56.1 80.6 56 80.4 55.9 80.2 55.8 80 55.6 79.9 55.4 79.8 55.2 79.7 54.9 79.7 54.7 79.7 55 79.8 55.2 79.7 55 79.7 54.9 79.7 54.7 79.7 54.5 79.8 54.3 79.8 54.1 79.9 54 80 53.8 80.1 53.7 80.2 53.6 80.4 53.5 80.5 53.4 80.7 53.3 80.9 53.2 81 53.2 81.2 53.2 81.4 53.2 81.6 53.2 81.7 53.3 81.9 53.4 82.1 53.5 82.2 53.6 82.3 53.7 82.4 53.9 82.5 54 82.6 54.2 83.2 54.8 83.8 55.4 83.9 55.7 83.9 56 84.4 56.6 84.9 57.3 85 57.7 85.2 58.1 85.4 58.5 85.7 59 86.2 59.6 86.7 60.3 86.4 61.5 86.1 62.8 85.3 63 84.6 63.3 83.8 63.7 82.9 64.1 81.8 63.8 80.8 63.4 80.5 62.3 80.1 61.2 80.1 60.6 80.1 60.1 80.1 59.5 80.1 58.9 80.1 58.3 80.1 57.8 80.1 57 80.2 56.1 80.3 55.8 80.5 55.5 80.5 54.9 80.5 54.3 80.5 53.8 80.5 53.2 81 51.9 81.5 50.6 81.7 50.5 81.8 50.5 82 50.5 82.2 50.5 82.4 50.6 82.6 50.6 82.7 50.7 82.9 50.8 83 50.9 83.1 51 83.2 51.2 83.3 51.3 83.4 51.5 83.5 51.7 83.5 51.8 83.5 52 83.5 52.2 83.5 52.4 83.4 52.5 83.3 52.7 83.2 52.9 83.1 53 83 53.1 82.8 53.2 82.7 53.3 82.5 53.4 82.1 53.8 81.8 54.2 80.9 54.4 80.1 54.7 79.3 54.6 78.5 54.4 77.8 53.2 77.1 52 77.1 51.3 77.1 50.5 77.5 49.6 77.8 48.7 78.2 48.3 78.7 47.8 79.5 47.3 80.3 46.8 80.9 46.7 81.6 46.7 82.5 46.8 83.5 46.9 83.9 47.2 84.4 47.5 85 47.7 85.6 47.9 85.7 49.6 85.9 51.4 85.2 52.1 84.5 52.9 83.5 53.2 82.5 53.4 81.8 53.2 81.1 53 80.4 52.6 79.6 52.1 79.5 50.7 79.3 49.4 79.5 49.3 79.7 49.3 79.7 49.1 79.7 48.9 79.8 48.8 79.9 48.6 80 48.5 80.1 48.3 80.2 48.2 80.3 48.1 80.5 48 80.7 47.9 80.8 47.9 81 47.8 81.2 47.8 81.4 47.8 81.6 47.9 81.7 47.9 81.9 48 82.1 48.1 82.2 48.2 82.3 48.3 82.4 48.5 82.5 48.6 82.6 48.8 82.7 48.9 82.7 49.1 82.7 49.3 83 49.5 83.4 49.8 83.4 50.5 83.5 51.2 83.3 52.2 83.2 53.1 82.6 53.8 82 54.5 81.6 53.6 81.2 52.8 81.3 53 81.4 53.1 81.5 53.3 81.5 53.5 81.6 53.6 81.6 53.8 81.6 54 81.6 54.2 81.5 54.3 81.5 54.5 81.4 54.7 81.3 54.8 81.2 55 81 55.1 80.9 55.2 80.7 55.3 80.5 55.3 80.4 55.4 80.2 55.4 80 55.4 79.8 55.4 79.7 55.3 79.5 55.3 79.3 55.2 79.2 55.1 79 55 78.8 54.4 78.6 53.8 78.1 53.1 77.5 52.5 77.5 52.2 77.5 51.9 77 51.1 76.4 50.4 76.5 49.3 76.6 48.2 77.5 47.5 78.4 46.8 79.6 46.7 80.9 46.7 81.1 46.7 81.3 46.7 81.4 46.8 81.6 46.9 81.7 47 81.9 47.1 82 47.2 82.1 47.3 82.2 47.5 82.3 47.7 82.3 47.8 82.4 48 82.4 48.2 82.4 48.4 82.3 48.6 82.3 48.7 82.2 48.9 82.1 49.1 82 49.2 81.9 49.3 81.7 49.4 81.6 49.5 81.4 49.6 81.3 49.7 81.1 49.7 80.9 49.7 80.9 49.7 Z" fill="rgb(0, 0, 0, 1)"/>
</svg>