<?xml version="1.0" encoding="UTF-8"?>
<svg xmlns="http://www.w3.org/2000/svg" width="246" height="99" viewBox="0 0 246 99">
  <path d="M 57.5 8 Q 57.5 8 57.5 10.5 57.5 13 57.5 14 57.5 15 57.5 16 57.5 17 57.5 18 57.5 19 57.5 20 57.5 21 57.5 22 57.5 23 57.5 24 57.5 25.1 56.9 26.3 56.4 27.6 56.4 28.3 56.5 29 56.5 30 56.5 31.1 55.9 32.3 55.4 33.6 55.4 34.3 55.5 35 55.5 36 55.5 37 55.5 38 55.5 39 55.5 40 55.5 41 55.4 41.8 55.4 42.7 55.9 44.3 56.5 46 56.5 46.2 56.4 46.5 56.3 46.7 56.2 46.9 56 47.1 55.8 47.2 55.6 47.3 55.4 47.4 55.2 47.5 54.9 47.5 54.7 47.4 54.4 47.4 54.2 47.3 54 47.1 53.9 47 53.7 46.8 53.6 46.5 53.5 46.3 53.5 46.1 53.5 45.8 53.6 45.6 53.6 45.4 53.8 45.2 53.9 45 54.1 44.8 54.3 44.7 54.5 44.6 54.8 44.5 55 44.5 55.2 44.5 55.5 44.6 55.7 44.7 55.9 44.8 56.1 45 56.2 45.2 56.4 45.4 56.4 45.6 56.5 45.8 56.5 46.1 56.5 46.3 56.4 46.5 56.3 46.8 56.1 47 56 47.1 55.8 47.3 55.6 47.4 55.3 47.4 55.1 47.5 54.8 47.5 54.6 47.4 54.4 47.3 54.2 47.2 54 47.1 53.8 46.9 53.7 46.7 53.6 46.5 53.5 46.2 53.5 46 53.5 46 53.5 46 53.1 44.7 52.6 43.3 52.6 42.2 52.5 41 52.5 40 52.5 39 52.5 38 52.5 37 52.5 36 52.5 35 52.6 33.7 52.6 32.4 53.1 31.7 53.5 30.9 53.5 30 53.5 29 53.6 27.7 53.6 26.4 54.1 25.7 54.5 24.9 54.5 24 54.5 23 54.5 22 54.5 21 54.5 20 54.5 19 54.5 18 54.5 17 54.5 16 54.5 15 54.5 14 54.5 13 54.5 10.5 54.5 8 54.5 7.8 54.5 7.6 54.6 7.5 54.7 7.3 54.8 7.2 54.9 7 55 6.9 55.1 6.8 55.3 6.7 55.5 6.6 55.6 6.6 55.8 6.5 56 6.5 56.2 6.5 56.4 6.6 56.5 6.6 56.7 6.7 56.9 6.8 57 6.9 57.1 7 57.2 7.2 57.3 7.3 57.4 7.5 57.5 7.6 57.5 7.8 57.5 8 57.5 8 Z" fill="rgb(255, 255, 255, 1)"/>
  <path d="M 55 6.5 Q 55 6.5 58 6.5 61 6.5 62 6.5 63 6.5 64.5 6.5 66 6.5 68 6.5 70 6.5 71.5 6.5 73 6.5 74.3 6 75.6 5.6 76.8 5.5 78 5.5 79.5 5.5 81 5.5 81.8 5.6 82.7 5.6 83 5.2 83.3 4.8 84.6 4.7 86 4.5 87 4.5 88 4.5 89 4.5 89.9 4.5 90.7 4.1 91.4 3.6 92.7 3.6 94 3.5 95 3.5 96 3.5 97 3.5 98 3.5 99 3.5 100 3.5 100.8 3.6 101.7 3.6 102 3.2 102.3 2.8 103.8 2.7 105.3 2.6 106.2 3.3 107.1 4 107.7 5.2 108.4 6.4 108.4 7.7 108.5 9 108.5 10 108.5 11 108.4 11.8 108.4 12.7 108.8 13 109.2 13.3 109.3 15.1 109.5 17 109.5 18 109.5 19 109.5 20 109.5 21 109.5 22 109.5 22.9 109.9 23.7 110.4 24.4 110.4 25.7 110.5 27 110.4 27.8 110.4 28.7 110.8 29 111.2 29.3 111.3 30.6 111.5 32 111.5 33 111.5 34 111.5 35 111.5 36 111.5 37 111.5 38 111.5 39 111.5 40 111.5 41 111.5 42 111.5 43 111.5 44 111.5 45 111.5 46 111.5 47 111.5 48 111.4 49.2 111.4 50.3 110.6 51.3 109.8 52.2 108.4 52.3 107 52.5 106 52.5 105 52.5 103.5 52.5 102 52.5 101 52.5 100 52.5 99 52.5 98 52.5 97 52.5 96 52.5 95 52.5 94 52.5 93 52.5 92 52.5 91 52.5 90 52.5 88.5 52.5 86.9 52.5 85.7 51.9 84.4 51.4 83.7 51.4 83 51.5 82 51.5 81 51.5 80 51.5 79 51.5 77.5 51.5 76 51.5 75 51.5 74 51.5 73 51.5 72 51.5 71 51.5 70.1 51.5 69.3 51.9 68.6 52.4 66.8 52.4 65 52.5 63.5 52.5 62 52.5 60.5 52.5 59 52.5 57 52.5 55 52.5 54.8 52.5 54.5 52.4 54.3 52.3 54.1 52.2 53.9 52 53.8 51.8 53.7 51.6 53.6 51.4 53.5 51.2 53.5 50.9 53.6 50.7 53.6 50.4 53.7 50.2 53.9 50 54 49.9 54.2 49.7 54.5 49.6 54.7 49.5 54.9 49.5 55.2 49.5 55.4 49.6 55.6 49.6 55.8 49.8 56 49.9 56.2 50.1 56.3 50.3 56.4 50.5 56.5 50.8 56.5 51 56.5 51.2 56.4 51.5 56.3 51.7 56.2 51.9 56 52.1 55.8 52.2 55.6 52.4 55.4 52.4 55.2 52.5 54.9 52.5 54.7 52.5 54.5 52.4 54.2 52.3 54 52.1 53.9 52 53.7 51.8 53.6 51.6 53.6 51.3 53.5 51.1 53.5 50.8 53.6 50.6 53.7 50.4 53.8 50.2 53.9 50 54.1 49.8 54.3 49.7 54.5 49.6 54.8 49.5 55 49.5 55 49.5 55 49.5 57 49.5 59 49.5 60.5 49.5 62 49.5 63.5 49.5 65 49.5 66.2 49.6 67.4 49.6 68.7 49.1 69.9 48.5 71 48.5 72 48.5 73 48.5 74 48.5 75 48.5 76 48.5 77.5 48.5 79 48.5 80 48.5 81 48.5 82 48.5 83 48.5 84.3 48.6 85.6 48.6 86.3 49.1 87.1 49.5 88.5 49.5 90 49.5 91 49.5 92 49.5 93 49.5 94 49.5 95 49.5 96 49.5 97 49.5 98 49.5 99 49.5 100 49.5 101 49.5 102 49.5 103.5 49.5 105 49.5 106 49.5 107 49.5 107.6 49.7 108.3 49.8 108.4 49.8 108.6 49.7 108.6 48.8 108.5 48 108.5 47 108.5 46 108.5 45 108.5 44 108.5 43 108.5 42 108.5 41 108.5 40 108.5 39 108.5 38 108.5 37 108.5 36 108.5 35 108.5 34 108.5 33 108.5 32 108.7 31.4 108.8 30.8 108.2 30 107.6 29.3 107.6 28.2 107.5 27 107.6 26.3 107.6 25.6 107.1 24.3 106.5 23.1 106.5 22 106.5 21 106.5 20 106.5 19 106.5 18 106.5 17 106.7 15.9 106.8 14.8 106.2 14 105.6 13.3 105.6 12.2 105.5 11 105.5 10 105.5 9 105.6 8.3 105.6 7.6 105.3 6.8 104.9 6 104.8 5.7 104.7 5.4 104.2 5.3 103.8 5.2 103 5.8 102.3 6.4 101.2 6.4 100 6.5 99 6.5 98 6.5 97 6.5 96 6.5 95 6.5 94 6.5 93.3 6.4 92.6 6.4 91.3 6.9 90.1 7.5 89 7.5 88 7.5 87 7.5 86 7.5 85.4 7.3 84.8 7.2 84 7.8 83.3 8.4 82.2 8.4 81 8.5 79.5 8.5 78 8.5 77.2 8.5 76.5 8.4 74.7 9 73 9.5 71.5 9.5 70 9.5 68 9.5 66 9.5 64.5 9.5 63 9.5 62 9.5 61 9.5 58 9.5 55 9.5 54.8 9.5 54.6 9.5 54.5 9.4 54.3 9.3 54.2 9.2 54 9.1 53.9 9 53.8 8.9 53.7 8.7 53.6 8.5 53.6 8.4 53.5 8.2 53.5 8 53.5 7.8 53.6 7.6 53.6 7.5 53.7 7.3 53.8 7.1 53.9 7 54 6.9 54.2 6.8 54.3 6.7 54.5 6.6 54.6 6.5 54.8 6.5 55 6.5 55 6.5 Z" fill="rgb(255, 255, 255, 1)"/>
  <path d="M 82.1 37.9 Q 82.1 37.9 82.2 38.1 82.3 38.3 82.4 38.6 82.5 38.8 82.5 39 82.5 39.3 82.4 39.5 82.3 39.7 82.2 39.9 82 40.1 81.8 40.2 81.6 40.4 81.4 40.4 81.1 40.5 80.9 40.5 80.6 40.5 80.4 40.4 80.2 40.3 80 40.1 79.8 39.9 79.7 39.7 79.6 39.5 79.5 39.3 79.5 39 79.5 38.8 79.6 38.6 79.7 38.3 79.8 38.1 80 38 80.1 37.8 80.3 37.7 80.6 37.6 80.8 37.5 81 37.5 81.3 37.5 81.5 37.6 81.7 37.7 81.9 37.8 82.1 38 82.3 38.2 82.4 38.4 82.5 38.6 82.5 38.9 82.5 39.1 82.4 39.4 82.4 39.6 82.2 39.8 82.1 40 81.9 40.2 81.7 40.3 81.5 40.4 81.3 40.5 81 40.5 80.8 40.5 80.6 40.4 80.3 40.3 80.1 40.2 79.9 40.1 79.9 40.1 79.9 40.1 79.7 40 79.4 40 79.2 39.9 79 39.8 78.8 39.6 78.6 39.5 78.4 39.3 78.3 39.1 78.2 38.9 78.1 38.7 78 38.4 77.9 38.2 78 37.9 78 37.7 78 37.5 78.1 37.2 78.2 37 78.3 36.8 78.5 36.6 78.7 36.4 78.9 36.3 79.1 36.1 79.3 36.1 79.6 36 79.8 36 80.1 35.9 81.1 36.9 Z" fill="rgb(255, 255, 255, 1)"/>
  <path d="M 74.8 33.2 Q 74.8 33.2 76 31.5 77.3 29.9 78.7 29.7 80 29.5 82 30.2 84.1 30.9 84.2 31.1 84.3 31.3 84.4 31.6 84.5 31.8 84.5 32 84.5 32.3 84.4 32.5 84.3 32.7 84.2 32.9 84 33.1 83.8 33.2 83.6 33.4 83.4 33.4 83.1 33.5 82.9 33.5 82.6 33.5 82.4 33.4 82.2 33.3 82 33.1 81.8 32.9 81.7 32.7 81.6 32.5 81.5 32.3 81.5 32 81.5 31.8 81.6 31.6 81.7 31.3 81.8 31.1 82 31 82.1 30.8 82.3 30.7 82.6 30.6 82.8 30.5 83 30.5 83.3 30.5 83.5 30.6 83.7 30.7 83.9 30.8 84.1 31 84.3 31.2 84.4 31.4 84.5 31.6 84.5 31.9 84.5 32.1 84.4 32.4 84.4 32.6 84.2 32.8 84.1 33 83.9 33.2 83.7 33.3 83.5 33.4 83.3 33.5 83 33.5 82.8 33.5 82.6 33.4 82.3 33.3 82.1 33.2 81.9 33.1 81.9 33.1 81.9 33.1 81 32.8 80 32.5 79.3 32.3 78.7 32.1 78 33.5 77.2 34.8 77.1 35 77 35.1 76.9 35.2 76.7 35.3 76.6 35.4 76.4 35.5 76.2 35.5 76 35.5 75.8 35.5 75.7 35.5 75.5 35.4 75.3 35.3 75.2 35.2 75 35.1 74.9 35 74.8 34.9 74.7 34.7 74.6 34.6 74.6 34.4 74.5 34.2 74.5 34 74.5 33.8 74.5 33.7 74.6 33.5 74.7 33.3 74.8 33.2 74.8 33.2 Z" fill="rgb(255, 255, 255, 1)"/>
  <path d="M 69.9 29.9 Q 69.9 29.9 70.9 28.9 71.9 27.9 72.4 27.4 72.9 26.9 73.4 26.4 73.9 25.9 74.6 25.4 75.3 24.8 76.6 24.7 78 24.5 79 24.5 80 24.5 81 24.5 82 24.5 83.2 24.6 84.3 24.6 86.2 26.3 88.1 27.9 88.2 28.1 88.3 28.3 88.4 28.6 88.5 28.8 88.5 29 88.5 29.3 88.4 29.5 88.3 29.7 88.2 29.9 88 30.1 87.8 30.2 87.6 30.4 87.4 30.4 87.1 30.5 86.9 30.5 86.6 30.5 86.4 30.4 86.2 30.3 86 30.1 85.8 29.9 85.7 29.7 85.6 29.5 85.5 29.3 85.5 29 85.5 28.8 85.6 28.6 85.7 28.3 85.8 28.1 86 28 86.1 27.8 86.3 27.7 86.6 27.6 86.8 27.5 87 27.5 87.3 27.5 87.5 27.6 87.7 27.7 87.9 27.8 88.1 28 88.3 28.2 88.4 28.4 88.5 28.6 88.5 28.9 88.5 29.1 88.4 29.4 88.4 29.6 88.2 29.8 88.1 30 87.9 30.2 87.7 30.3 87.5 30.4 87.3 30.5 87 30.5 86.8 30.5 86.6 30.4 86.3 30.3 86.1 30.2 85.9 30.1 85.9 30.1 85.9 30.1 84.8 28.7 83.7 27.4 82.8 27.4 82 27.5 81 27.5 80 27.5 79 27.5 78 27.5 77.4 27.3 76.8 27.2 76.4 27.6 76.1 28.1 75.6 28.6 75.1 29.1 74.6 29.6 74.1 30.1 73.1 31.1 72.1 32.1 71.9 32.2 71.8 32.3 71.6 32.4 71.4 32.4 71.3 32.5 71.1 32.5 70.9 32.5 70.7 32.5 70.6 32.4 70.4 32.4 70.2 32.3 70.1 32.2 69.9 32.1 69.8 31.9 69.7 31.8 69.6 31.6 69.6 31.4 69.5 31.3 69.5 31.1 69.5 30.9 69.5 30.7 69.6 30.6 69.6 30.4 69.7 30.2 69.8 30.1 69.9 29.9 69.9 29.9 Z" fill="rgb(255, 255, 255, 1)"/>
  <path d="M 67.8 25.2 Q 67.8 25.2 68.8 23.7 69.8 22.2 70.3 21.6 70.9 20.9 71.6 20.4 72.3 19.8 73.5 19.7 74.7 19.6 74.8 19.3 75 18.9 76.2 18.3 77.4 17.6 78.7 17.6 80 17.5 81 17.5 82 17.5 83.2 17.6 84.3 17.6 85 18.2 85.8 18.8 86.5 18.7 87.3 18.6 88 19.2 88.8 19.8 89.5 19.7 90.3 19.6 92.2 21.3 94.1 22.9 94.2 23.1 94.3 23.3 94.4 23.6 94.5 23.8 94.5 24 94.5 24.3 94.4 24.5 94.3 24.7 94.2 24.9 94 25.1 93.8 25.2 93.6 25.4 93.4 25.4 93.1 25.5 92.9 25.5 92.6 25.5 92.4 25.4 92.2 25.3 92 25.1 91.8 24.9 91.7 24.7 91.6 24.5 91.5 24.3 91.5 24 91.5 23.8 91.6 23.6 91.7 23.3 91.8 23.1 92 23 92.1 22.8 92.3 22.7 92.6 22.6 92.8 22.5 93 22.5 93.3 22.5 93.5 22.6 93.7 22.7 93.9 22.8 94.1 23 94.3 23.2 94.4 23.4 94.5 23.6 94.5 23.9 94.5 24.1 94.4 24.4 94.4 24.6 94.2 24.8 94.1 25 93.9 25.2 93.7 25.3 93.5 25.4 93.3 25.5 93 25.5 92.8 25.5 92.6 25.4 92.3 25.3 92.1 25.2 91.9 25.1 91.9 25.1 91.9 25.1 90.8 23.7 89.7 22.4 88.5 22.3 87.3 22.2 87 21.8 86.7 21.4 85.5 21.3 84.3 21.2 84 20.8 83.7 20.4 82.8 20.4 82 20.5 81 20.5 80 20.5 79.3 20.4 78.6 20.4 77.8 20.7 77 21.1 76.2 21.7 75.3 22.4 74.5 22.3 73.8 22.2 73.4 22.6 73.1 23.1 72.7 23.4 72.2 23.8 71.2 25.3 70.2 26.8 70.1 27 70 27.1 69.9 27.2 69.7 27.3 69.6 27.4 69.4 27.5 69.2 27.5 69 27.5 68.8 27.5 68.7 27.5 68.5 27.4 68.3 27.3 68.2 27.2 68 27.1 67.9 27 67.8 26.9 67.7 26.7 67.6 26.6 67.6 26.4 67.5 26.2 67.5 26 67.5 25.8 67.5 25.7 67.6 25.5 67.7 25.3 67.8 25.2 67.8 25.2 Z" fill="rgb(255, 255, 255, 1)"/>
  <path d="M 72.5 40.6 Q 72.5 40.6 73 38.6 73.5 36.6 74.1 35.5 74.7 34.3 75.3 33.7 75.9 33 76.2 31.8 76.6 30.5 77.1 29 77.6 27.5 78.1 26.4 78.7 25.3 79.3 24.6 79.9 23.9 80.4 23.4 80.9 23 81.3 22.1 81.7 21.3 82.3 20.6 82.9 19.9 84.4 18.4 85.9 16.9 86.1 16.8 86.3 16.7 86.6 16.6 86.8 16.5 87 16.5 87.3 16.5 87.5 16.6 87.7 16.7 87.9 16.8 88.1 17 88.2 17.2 88.4 17.4 88.4 17.6 88.5 17.9 88.5 18.1 88.5 18.4 88.4 18.6 88.3 18.8 88.1 19 87.9 19.2 87.7 19.3 87.5 19.4 87.3 19.5 87 19.5 86.8 19.5 86.6 19.4 86.3 19.3 86.1 19.2 86 19 85.8 18.9 85.7 18.7 85.6 18.4 85.5 18.2 85.5 18 85.5 17.7 85.6 17.5 85.7 17.3 85.8 17.1 86 16.9 86.2 16.7 86.4 16.6 86.6 16.5 86.9 16.5 87.1 16.5 87.4 16.6 87.6 16.6 87.8 16.8 88 16.9 88.2 17.1 88.3 17.3 88.4 17.5 88.5 17.7 88.5 18 88.5 18.2 88.4 18.4 88.3 18.7 88.2 18.9 88.1 19.1 88.1 19.1 88.1 19.1 86.6 20.6 85.1 22.1 84.7 22.4 84.3 22.7 83.7 23.9 83.1 25 82.6 25.6 82.1 26.1 81.7 26.4 81.3 26.7 80.9 27.6 80.4 28.5 79.9 30 79.4 31.5 78.8 33.2 78.1 35 77.7 35.3 77.3 35.7 76.9 36.5 76.5 37.4 76 39.4 75.5 41.4 75.4 41.5 75.3 41.7 75.2 41.8 75.1 42 75 42.1 74.8 42.2 74.7 42.3 74.5 42.4 74.4 42.4 74.2 42.5 74 42.5 73.8 42.5 73.6 42.4 73.5 42.4 73.3 42.3 73.1 42.2 73 42.1 72.9 42 72.8 41.8 72.7 41.7 72.6 41.5 72.5 41.4 72.5 41.2 72.5 41 72.5 40.8 72.5 40.6 72.5 40.6 Z" fill="rgb(255, 255, 255, 1)"/>
  <path d="M 89.5 14.4 Q 89.5 14.4 89 16.4 88.5 18.4 88.4 18.6 88.3 18.8 88.1 19 87.9 19.2 87.7 19.3 87.5 19.4 87.3 19.5 87 19.5 86.8 19.5 86.6 19.4 86.3 19.3 86.1 19.2 86 19 85.8 18.9 85.7 18.7 85.6 18.4 85.5 18.2 85.5 18 85.5 17.7 85.6 17.5 85.7 17.3 85.8 17.1 86 16.9 86.2 16.7 86.4 16.6 86.6 16.5 86.9 16.5 87.1 16.5 87.4 16.6 87.6 16.6 87.8 16.8 88 16.9 88.2 17.1 88.3 17.3 88.4 17.5 88.5 17.7 88.5 18 88.5 18.2 88.4 18.4 88.3 18.7 88.2 18.9 88.1 19.1 87.9 19.2 87.7 19.3 87.4 19.4 87.2 19.5 87 19.5 86.7 19.5 86.5 19.4 86.3 19.3 86.1 19.2 85.9 19 85.8 18.8 85.6 18.6 85.6 18.4 85.5 18.1 85.5 17.9 85.5 17.6 85.5 17.6 85.5 17.6 86 15.6 86.5 13.6 86.6 13.5 86.7 13.3 86.8 13.2 86.9 13 87 12.9 87.2 12.8 87.3 12.7 87.5 12.6 87.6 12.6 87.8 12.5 88 12.5 88.2 12.5 88.4 12.6 88.5 12.6 88.7 12.7 88.9 12.8 89 12.9 89.1 13 89.2 13.2 89.3 13.3 89.4 13.5 89.5 13.6 89.5 13.8 89.5 14 89.5 14.2 89.5 14.4 89.5 14.4 Z" fill="rgb(255, 255, 255, 1)"/>
  <path d="M 53.1 52.1 Q 53.1 52.1 52.1 53.1 51.1 54.1 49.4 55.2 47.8 56.2 47.3 56.7 46.8 57.2 45.4 57.3 44 57.5 42.7 58 41.5 58.4 40 58.9 38.5 59.4 37.6 59.9 36.7 60.3 35.6 60.9 34.6 61.4 33.3 61.4 32.1 61.5 31 62 30 62.5 29.8 62.5 29.6 62.5 29.5 62.4 29.3 62.3 29.2 62.2 29 62.1 28.9 62 28.8 61.9 28.7 61.7 28.6 61.5 28.6 61.4 28.5 61.2 28.5 61 28.5 60.8 28.6 60.6 28.6 60.5 28.7 60.3 28.8 60.1 28.9 60 29 59.9 29.2 59.8 29.3 59.7 29.5 59.6 29.6 59.5 29.8 59.5 30 59.5 31 59.5 32 59.5 33 59.5 34 59.5 35 59.5 36 59.5 37 59.5 38.1 59.5 39.3 60.1 40.6 60.6 41.8 60.6 43 60.5 44 60.5 45 60.5 46 60.5 47 60.5 48.5 60.5 50 60.5 51 60.5 52 60.5 53.5 60.5 55 60.5 56.7 61 58.5 61.6 59.2 61.5 60 61.5 61.5 61.5 63 61.5 64.5 61.5 66 61.5 67 61.5 68 61.5 69 61.5 70 61.5 71.5 61.5 73 61.5 74 61.5 75 61.5 76.5 61.5 78 61.5 79 61.5 80 61.5 81.5 61.5 83 61.5 84 61.5 85 61.5 86 61.5 87 61.5 88 61.5 89 61.5 90.5 61.5 92 61.5 93.5 61.5 95 61.5 95.8 61.6 96.7 61.6 96.8 61.3 96.9 60.9 97.4 60.4 97.9 60 98.3 59.1 98.7 58.3 99.3 57.6 99.9 56.9 100.4 56.4 100.9 55.9 101.4 55.4 101.9 54.9 102.4 54.4 103 53.9 104.1 53.3 105.3 52.7 105.6 52.3 106 51.9 107.9 50.4 109.9 48.9 110.1 48.8 110.3 48.7 110.6 48.6 110.8 48.5 111 48.5 111.3 48.5 111.5 48.6 111.7 48.7 111.9 48.8 112.1 49 112.2 49.2 112.4 49.4 112.4 49.6 112.5 49.9 112.5 50.1 112.5 50.4 112.4 50.6 112.3 50.8 112.1 51 111.9 51.2 111.7 51.3 111.5 51.4 111.3 51.5 111 51.5 110.8 51.5 110.6 51.4 110.3 51.3 110.1 51.2 110 51 109.8 50.9 109.7 50.7 109.6 50.4 109.5 50.2 109.5 50 109.5 49.7 109.6 49.5 109.7 49.3 109.8 49.1 110 48.9 110.2 48.7 110.4 48.6 110.6 48.5 110.9 48.5 111.1 48.5 111.4 48.6 111.6 48.6 111.8 48.8 112 48.9 112.2 49.1 112.3 49.3 112.4 49.5 112.5 49.7 112.5 50 112.5 50.2 112.4 50.4 112.3 50.7 112.2 50.9 112.1 51.1 112.1 51.1 112.1 51.1 110.1 52.6 108 54.1 107.4 54.7 106.7 55.3 105.9 55.7 105 56.1 104.6 56.6 104.1 57.1 103.6 57.6 103.1 58.1 102.6 58.6 102.1 59.1 101.7 59.4 101.3 59.7 100.7 60.9 100.1 62 99.6 62.6 99.1 63.1 98.2 63.7 97.3 64.4 96.2 64.4 95 64.5 93.5 64.5 92 64.5 90.5 64.5 89 64.5 88 64.5 87 64.5 86 64.5 85 64.5 84 64.5 83 64.5 81.5 64.5 80 64.5 79 64.5 78 64.5 76.5 64.5 75 64.5 74 64.5 73 64.5 71.5 64.5 70 64.5 69 64.5 68 64.5 67 64.5 66 64.5 64.5 64.5 63 64.5 61.5 64.5 60 64.5 58.8 64.5 57.6 64.4 56.3 64 55 63.5 53.5 63.5 52 63.5 51 63.5 50 63.5 48.5 63.5 47 63.5 46 63.5 45 63.5 44 63.5 43 63.5 41.2 63.4 39.4 63.4 38.7 62.9 37.9 62.5 37 62.5 36 62.5 35 62.5 34 62.5 33 62.5 32 62.5 31 62.5 30 62.5 29.8 62.5 29.6 62.5 29.5 62.4 29.3 62.3 29.2 62.2 29 62.1 28.9 62 28.8 61.9 28.7 61.7 28.6 61.5 28.6 61.4 28.5 61.2 28.5 61 28.5 60.8 28.6 60.6 28.6 60.5 28.7 60.3 28.8 60.1 28.9 60 29 59.9 29.2 59.8 29.3 59.7 29.5 59.6 29.6 59.5 29.8 59.5 30 59.5 31 59 31.9 58.5 32.7 58.6 33.4 58.6 34.4 58.2 35.3 57.7 36.4 57.1 37.5 56.6 39 56.1 40.5 55.6 42.3 55 44 54.5 44.6 54.7 45.3 54.8 45.7 54.3 46.2 53.8 47.6 52.8 48.9 51.9 49.9 50.9 50.9 49.9 51.1 49.8 51.2 49.7 51.4 49.6 51.6 49.6 51.7 49.5 51.9 49.5 52.1 49.5 52.3 49.5 52.4 49.6 52.6 49.6 52.8 49.7 52.9 49.8 53.1 49.9 53.2 50.1 53.3 50.2 53.4 50.4 53.4 50.6 53.5 50.7 53.5 50.9 53.5 51.1 53.5 51.3 53.4 51.4 53.4 51.6 53.3 51.8 53.2 51.9 53.1 52.1 53.1 52.1 Z" fill="rgb(255, 255, 255, 1)"/>
  <path d="M 143 47.5 Q 143 47.5 144.5 47.5 145.9 47.5 146.7 47.1 147.4 46.6 149.2 46.6 151 46.5 152.8 46 154.6 45.5 156.3 45.5 158 45.5 159.3 45 160.5 44.6 163.1 44.1 165.7 43.5 167.7 43 169.6 42.5 171.3 42.5 172.9 42.5 173.7 42.1 174.4 41.6 175.7 41.6 177 41.5 178 41.5 179 41.5 180 41.5 181 41.5 181.8 41.6 182.7 41.6 183 41.2 183.3 40.8 184.6 40.7 186 40.5 187 40.5 188 40.5 189 40.5 189.9 40.5 192 40 194 39.5 194.2 39.5 194.5 39.6 194.7 39.7 194.9 39.8 195.1 40 195.2 40.2 195.3 40.4 195.4 40.6 195.5 40.8 195.5 41.1 195.4 41.3 195.4 41.6 195.3 41.8 195.1 42 195 42.1 194.8 42.3 194.5 42.4 194.3 42.5 194.1 42.5 193.8 42.5 193.6 42.4 193.4 42.4 193.2 42.2 193 42.1 192.8 41.9 192.7 41.7 192.6 41.5 192.5 41.2 192.5 41 192.5 40.8 192.6 40.5 192.7 40.3 192.8 40.1 193 39.9 193.2 39.8 193.4 39.6 193.6 39.6 193.8 39.5 194.1 39.5 194.3 39.5 194.5 39.6 194.8 39.7 195 39.9 195.1 40 195.3 40.2 195.4 40.4 195.4 40.7 195.5 40.9 195.5 41.2 195.4 41.4 195.3 41.6 195.2 41.8 195.1 42 194.9 42.2 194.7 42.3 194.5 42.4 194.2 42.5 194 42.5 194 42.5 194 42.5 192 43 190.1 43.5 189 43.5 188 43.5 187 43.5 186 43.5 185.4 43.3 184.8 43.2 184 43.8 183.3 44.4 182.2 44.4 181 44.5 180 44.5 179 44.5 178 44.5 177 44.5 176.3 44.4 175.6 44.4 174.3 44.9 173.1 45.5 171.7 45.5 170.4 45.5 168.3 46 166.3 46.5 163.9 46.9 161.5 47.4 159.7 48 158 48.5 156.7 48.5 155.4 48.5 153.2 49 151 49.5 149.8 49.4 148.6 49.4 147.3 49.9 146.1 50.5 144.5 50.5 143 50.5 142.8 50.5 142.6 50.5 142.5 50.4 142.3 50.3 142.2 50.2 142 50.1 141.9 50 141.8 49.9 141.7 49.7 141.6 49.5 141.6 49.4 141.5 49.2 141.5 49 141.5 48.8 141.6 48.6 141.6 48.5 141.7 48.3 141.8 48.1 141.9 48 142 47.9 142.2 47.8 142.3 47.7 142.5 47.6 142.6 47.5 142.8 47.5 143 47.5 143 47.5 Z" fill="rgb(255, 255, 255, 1)"/>
  <path d="M 181.2 3.2 Q 181.2 3.2 182.2 4.7 183.2 6.2 183.7 6.6 184.1 7 184.8 9.3 185.5 11.6 185.9 12.5 186.3 13.3 186.9 14.9 187.4 16.5 187.9 17.5 188.4 18.4 188.4 19.7 188.5 20.9 188.9 21.6 189.3 22.3 189.9 23.4 190.4 24.4 190.4 25.5 190.4 26.7 190.8 27 191.2 27.3 191.3 28.5 191.4 29.7 191.7 29.8 192.1 29.9 192.6 30.6 193.2 31.3 193.3 32.6 193.5 33.9 193.9 34.7 194.4 35.4 194.4 36.5 194.4 37.7 194.8 38 195.2 38.3 195.3 39.5 195.4 40.7 195.9 42.3 196.5 44 196.5 44.2 196.4 44.5 196.3 44.7 196.2 44.9 196 45.1 195.8 45.2 195.6 45.3 195.4 45.4 195.2 45.5 194.9 45.5 194.7 45.4 194.4 45.4 194.2 45.3 194 45.1 193.9 45 193.7 44.8 193.6 44.5 193.5 44.3 193.5 44.1 193.5 43.8 193.6 43.6 193.6 43.4 193.8 43.2 193.9 43 194.1 42.8 194.3 42.7 194.5 42.6 194.8 42.5 195 42.5 195.2 42.5 195.5 42.6 195.7 42.7 195.9 42.8 196.1 43 196.2 43.2 196.4 43.4 196.4 43.6 196.5 43.8 196.5 44.1 196.5 44.3 196.4 44.5 196.3 44.8 196.1 45 196 45.1 195.8 45.3 195.6 45.4 195.3 45.4 195.1 45.5 194.8 45.5 194.6 45.4 194.4 45.3 194.2 45.2 194 45.1 193.8 44.9 193.7 44.7 193.6 44.5 193.5 44.2 193.5 44 193.5 44 193.5 44 193.1 42.7 192.6 41.3 192.7 40.5 192.8 39.8 192.2 39 191.6 38.3 191.6 37.5 191.6 36.6 191.1 35.3 190.5 34.1 190.7 33.4 190.8 32.8 190.4 32.4 189.9 32.1 189.3 31.2 188.6 30.3 188.7 29.5 188.8 28.8 188.2 28 187.6 27.3 187.6 26.5 187.6 25.6 187.1 24.6 186.7 23.7 186.1 22.4 185.5 21.1 185.6 20.3 185.6 19.6 185.1 18.5 184.6 17.5 184.1 16.1 183.7 14.7 183.1 13.5 182.5 12.4 182.2 10.7 181.9 9 181.3 8.4 180.8 7.8 179.8 6.3 178.8 4.8 178.7 4.7 178.6 4.5 178.5 4.3 178.5 4.2 178.5 4 178.5 3.8 178.6 3.6 178.6 3.4 178.7 3.3 178.8 3.1 178.9 3 179 2.9 179.2 2.8 179.3 2.7 179.5 2.6 179.7 2.5 179.8 2.5 180 2.5 180.2 2.5 180.4 2.5 180.6 2.6 180.7 2.7 180.9 2.8 181 2.9 181.1 3 181.2 3.2 181.2 3.2 Z" fill="rgb(255, 255, 255, 1)"/>
  <path d="M 192.8 41.8 Q 192.8 41.8 194.3 42.8 195.8 43.8 197.3 44.7 198.8 45.7 200.1 46.2 201.5 46.6 202.2 46.5 203 46.5 204 46.5 205.1 46.5 206.3 47.1 207.6 47.6 208.3 47.6 209 47.5 210 47.5 211 47.5 212 47.5 213 47.5 214.2 47.6 215.3 47.6 216.7 48.1 218 48.5 218.2 48.5 218.5 48.6 218.7 48.7 218.9 48.8 219.1 49 219.2 49.2 219.3 49.4 219.4 49.6 219.5 49.8 219.5 50.1 219.4 50.3 219.4 50.6 219.3 50.8 219.1 51 219 51.1 218.8 51.3 218.5 51.4 218.3 51.5 218.1 51.5 217.8 51.5 217.6 51.4 217.4 51.4 217.2 51.2 217 51.1 216.8 50.9 216.7 50.7 216.6 50.5 216.5 50.2 216.5 50 216.5 49.8 216.6 49.5 216.7 49.3 216.8 49.1 217 48.9 217.2 48.8 217.4 48.6 217.6 48.6 217.8 48.5 218.1 48.5 218.3 48.5 218.5 48.6 218.8 48.7 219 48.9 219.1 49 219.3 49.2 219.4 49.4 219.4 49.7 219.5 49.9 219.5 50.2 219.4 50.4 219.3 50.6 219.2 50.8 219.1 51 218.9 51.2 218.7 51.3 218.5 51.4 218.2 51.5 218 51.5 218 51.5 218 51.5 216.3 50.9 214.7 50.4 213.8 50.4 213 50.5 212 50.5 211 50.5 210 50.5 209 50.5 207.7 50.4 206.4 50.4 205.7 49.9 204.9 49.5 204 49.5 203 49.5 201.8 49.5 200.6 49.4 198.9 48.8 197.2 48.3 195.7 47.3 194.2 46.2 192.7 45.2 191.2 44.2 191 44.1 190.9 44 190.8 43.9 190.7 43.7 190.6 43.6 190.5 43.4 190.5 43.2 190.5 43 190.5 42.8 190.5 42.7 190.6 42.5 190.7 42.3 190.8 42.2 190.9 42 191 41.9 191.1 41.8 191.3 41.7 191.4 41.6 191.6 41.6 191.8 41.5 192 41.5 192.2 41.5 192.3 41.5 192.5 41.6 192.7 41.7 192.8 41.8 192.8 41.8 Z" fill="rgb(255, 255, 255, 1)"/>
  <path d="M 151 16.5 Q 151 16.5 152.5 16.5 154 16.5 156 16.5 158 16.5 159 16.5 160 16.5 162 16.5 163.9 16.5 164.7 16.1 165.4 15.6 167.7 15.6 170 15.5 171.5 15.5 173 15.5 175 15.5 177 15.5 177.2 15.5 177.5 15.6 177.7 15.7 177.9 15.8 178.1 16 178.2 16.2 178.3 16.4 178.4 16.6 178.5 16.8 178.5 17.1 178.4 17.3 178.4 17.6 178.3 17.8 178.1 18 178 18.1 177.8 18.3 177.5 18.4 177.3 18.5 177.1 18.5 176.8 18.5 176.6 18.4 176.4 18.4 176.2 18.2 176 18.1 175.8 17.9 175.7 17.7 175.6 17.5 175.5 17.2 175.5 17 175.5 16.8 175.6 16.5 175.7 16.3 175.8 16.1 176 15.9 176.2 15.8 176.4 15.6 176.6 15.6 176.8 15.5 177.1 15.5 177.3 15.5 177.5 15.6 177.8 15.7 178 15.9 178.1 16 178.3 16.2 178.4 16.4 178.4 16.7 178.5 16.9 178.5 17.2 178.4 17.4 178.3 17.6 178.2 17.8 178.1 18 177.9 18.2 177.7 18.3 177.5 18.4 177.2 18.5 177 18.5 177 18.5 177 18.5 175 18.5 173 18.5 171.5 18.5 170 18.5 168.3 18.4 166.6 18.4 165.3 18.9 164.1 19.5 162 19.5 160 19.5 159 19.5 158 19.5 156 19.5 154 19.5 152.5 19.5 151 19.5 150.8 19.5 150.6 19.5 150.5 19.4 150.3 19.3 150.2 19.2 150 19.1 149.9 19 149.8 18.9 149.7 18.7 149.6 18.5 149.6 18.4 149.5 18.2 149.5 18 149.5 17.8 149.6 17.6 149.6 17.5 149.7 17.3 149.8 17.1 149.9 17 150 16.9 150.2 16.8 150.3 16.7 150.5 16.6 150.6 16.5 150.8 16.5 151 16.5 151 16.5 Z" fill="rgb(255, 255, 255, 1)"/>
  <path d="M 154 21.5 Q 154 21.5 155.5 21.5 157 21.5 158 21.5 159 21.5 160.5 21.5 162 21.5 163.5 21.5 165 21.5 166.3 21 167.6 20.6 169.8 20.5 172 20.5 174.5 20.5 177 20.5 177.2 20.5 177.5 20.6 177.7 20.7 177.9 20.8 178.1 21 178.2 21.2 178.3 21.4 178.4 21.6 178.5 21.8 178.5 22.1 178.4 22.3 178.4 22.6 178.3 22.8 178.1 23 178 23.1 177.8 23.3 177.5 23.4 177.3 23.5 177.1 23.5 176.8 23.5 176.6 23.4 176.4 23.4 176.2 23.2 176 23.1 175.8 22.9 175.7 22.7 175.6 22.5 175.5 22.2 175.5 22 175.5 21.8 175.6 21.5 175.7 21.3 175.8 21.1 176 20.9 176.2 20.8 176.4 20.6 176.6 20.6 176.8 20.5 177.1 20.5 177.3 20.5 177.5 20.6 177.8 20.7 178 20.9 178.1 21 178.3 21.2 178.4 21.4 178.4 21.7 178.5 21.9 178.5 22.2 178.4 22.4 178.3 22.6 178.2 22.8 178.1 23 177.9 23.2 177.7 23.3 177.5 23.4 177.2 23.5 177 23.5 177 23.5 177 23.5 174.5 23.5 172 23.5 170.2 23.5 168.5 23.4 166.7 24 165 24.5 163.5 24.5 162 24.5 160.5 24.5 159 24.5 158 24.5 157 24.5 155.5 24.5 154 24.5 153.8 24.5 153.6 24.5 153.5 24.4 153.3 24.3 153.2 24.2 153 24.1 152.9 24 152.8 23.9 152.7 23.7 152.6 23.5 152.6 23.4 152.5 23.2 152.5 23 152.5 22.8 152.6 22.6 152.6 22.5 152.7 22.3 152.8 22.1 152.9 22 153 21.9 153.2 21.8 153.3 21.7 153.5 21.6 153.6 21.5 153.8 21.5 154 21.5 154 21.5 Z" fill="rgb(255, 255, 255, 1)"/>
  <path d="M 158 26.5 Q 158 26.5 160 26.5 162 26.5 163 26.5 164 26.5 165 26.5 165.9 26.5 166.7 26.1 167.4 25.6 169.7 25.6 172 25.5 172.2 25.5 172.5 25.6 172.7 25.7 172.9 25.8 173.1 26 173.2 26.2 173.3 26.4 173.4 26.6 173.5 26.8 173.5 27.1 173.4 27.3 173.4 27.6 173.3 27.8 173.1 28 173 28.1 172.8 28.3 172.5 28.4 172.3 28.5 172.1 28.5 171.8 28.5 171.6 28.4 171.4 28.4 171.2 28.2 171 28.1 170.8 27.9 170.7 27.7 170.6 27.5 170.5 27.2 170.5 27 170.5 26.8 170.6 26.5 170.7 26.3 170.8 26.1 171 25.9 171.2 25.8 171.4 25.6 171.6 25.6 171.8 25.5 172.1 25.5 172.3 25.5 172.5 25.6 172.8 25.7 173 25.9 173.1 26 173.3 26.2 173.4 26.4 173.4 26.7 173.5 26.9 173.5 27.2 173.4 27.4 173.3 27.6 173.2 27.8 173.1 28 172.9 28.2 172.7 28.3 172.5 28.4 172.2 28.5 172 28.5 172 28.5 172 28.5 170.3 28.4 168.6 28.4 167.3 28.9 166.1 29.5 165 29.5 164 29.5 163 29.5 162 29.5 160 29.5 158 29.5 157.8 29.5 157.6 29.5 157.5 29.4 157.3 29.3 157.2 29.2 157 29.1 156.9 29 156.8 28.9 156.7 28.7 156.6 28.5 156.6 28.4 156.5 28.2 156.5 28 156.5 27.8 156.6 27.6 156.6 27.5 156.7 27.3 156.8 27.1 156.9 27 157 26.9 157.2 26.8 157.3 26.7 157.5 26.6 157.6 26.5 157.8 26.5 158 26.5 158 26.5 Z" fill="rgb(255, 255, 255, 1)"/>
  <path d="M 152 35.5 Q 152 35.5 154 35.5 155.9 35.5 156.7 35.1 157.4 34.6 158.7 34.6 159.9 34.5 160.7 34.1 161.4 33.6 163.2 33.6 165 33.5 167 33.5 169 33.5 170.5 33.5 172 33.5 173.3 33 174.6 32.6 177.3 32.5 180 32.5 181 32.5 182 32.5 185 32.5 188 32.5 188.2 32.5 188.5 32.6 188.7 32.7 188.9 32.8 189.1 33 189.2 33.2 189.3 33.4 189.4 33.6 189.5 33.8 189.5 34.1 189.4 34.3 189.4 34.6 189.3 34.8 189.1 35 189 35.1 188.8 35.3 188.5 35.4 188.3 35.5 188.1 35.5 187.8 35.5 187.6 35.4 187.4 35.4 187.2 35.2 187 35.1 186.8 34.9 186.7 34.7 186.6 34.5 186.5 34.2 186.5 34 186.5 33.8 186.6 33.5 186.7 33.3 186.8 33.1 187 32.9 187.2 32.8 187.4 32.6 187.6 32.6 187.8 32.5 188.1 32.5 188.3 32.5 188.5 32.6 188.8 32.7 189 32.9 189.1 33 189.3 33.2 189.4 33.4 189.4 33.7 189.5 33.9 189.5 34.2 189.4 34.4 189.3 34.6 189.2 34.8 189.1 35 188.9 35.2 188.7 35.3 188.5 35.4 188.2 35.5 188 35.5 188 35.5 188 35.5 185 35.5 182 35.5 181 35.5 180 35.5 177.7 35.5 175.5 35.4 173.7 36 172 36.5 170.5 36.5 169 36.5 167 36.5 165 36.5 163.8 36.4 162.6 36.4 161.3 36.9 160.1 37.5 159.3 37.4 158.6 37.4 157.3 37.9 156.1 38.5 154 38.5 152 38.5 151.8 38.5 151.6 38.5 151.5 38.4 151.3 38.3 151.2 38.2 151 38.1 150.9 38 150.8 37.9 150.7 37.7 150.6 37.5 150.6 37.4 150.5 37.2 150.5 37 150.5 36.8 150.6 36.6 150.6 36.5 150.7 36.3 150.8 36.1 150.9 36 151 35.9 151.2 35.8 151.3 35.7 151.5 35.6 151.6 35.5 151.8 35.5 152 35.5 152 35.5 Z" fill="rgb(255, 255, 255, 1)"/>
  <path d="M 219.5 50 Q 219.5 50 219.4 52.2 219.4 54.3 218.9 54.7 218.5 55 218.5 55.2 218.5 55.4 218.4 55.5 218.3 55.7 218.2 55.8 218.1 56 218 56.1 217.9 56.2 217.7 56.3 217.5 56.4 217.4 56.4 217.2 56.5 217 56.5 216.8 56.5 216.6 56.4 216.5 56.4 216.3 56.3 216.1 56.2 216 56.1 215.9 56 215.8 55.8 215.7 55.7 215.6 55.5 215.5 55.4 215.5 55.2 215.5 55 216.2 54.1 216.8 53.3 216.7 52.6 216.5 52 216.6 51.2 216.6 50.3 216.4 50.3 216.3 50.2 215.5 50.3 214.7 50.4 214 49.8 213.3 49.2 212.6 49.3 212 49.5 211.2 49.4 210.3 49.4 208.7 49.9 207 50.5 206.8 50.5 206.5 50.4 206.3 50.3 206.1 50.2 205.9 50 205.8 49.8 205.7 49.6 205.6 49.4 205.5 49.2 205.5 48.9 205.6 48.7 205.6 48.4 205.7 48.2 205.9 48 206 47.9 206.2 47.7 206.5 47.6 206.7 47.5 206.9 47.5 207.2 47.5 207.4 47.6 207.6 47.6 207.8 47.8 208 47.9 208.2 48.1 208.3 48.3 208.4 48.5 208.5 48.8 208.5 49 208.5 49.2 208.4 49.5 208.3 49.7 208.2 49.9 208 50.1 207.8 50.2 207.6 50.4 207.4 50.4 207.2 50.5 206.9 50.5 206.7 50.5 206.5 50.4 206.2 50.3 206 50.1 205.9 50 205.7 49.8 205.6 49.6 205.6 49.3 205.5 49.1 205.5 48.8 205.6 48.6 205.7 48.4 205.8 48.2 205.9 48 206.1 47.8 206.3 47.7 206.5 47.6 206.8 47.5 207 47.5 207 47.5 207 47.5 208.3 47.1 209.7 46.6 210.8 46.6 212 46.5 213.4 46.7 214.8 46.8 215 47.2 215.3 47.6 216.5 47.7 217.8 47.8 218.6 48.8 219.4 49.7 219.4 50.8 219.5 52 219.3 53.4 219.2 54.8 218.8 54.9 218.5 55 218.5 55.2 218.5 55.4 218.4 55.5 218.3 55.7 218.2 55.8 218.1 56 218 56.1 217.9 56.2 217.7 56.3 217.5 56.4 217.4 56.4 217.2 56.5 217 56.5 216.8 56.5 216.6 56.4 216.5 56.4 216.3 56.3 216.1 56.2 216 56.1 215.9 56 215.8 55.8 215.7 55.7 215.6 55.5 215.5 55.4 215.5 55.2 215.5 55 216.1 54.3 216.6 53.7 216.6 51.8 216.5 50 216.5 49.8 216.5 49.6 216.6 49.5 216.7 49.3 216.8 49.2 216.9 49 217 48.9 217.1 48.8 217.3 48.7 217.5 48.6 217.6 48.6 217.8 48.5 218 48.5 218.2 48.5 218.4 48.6 218.5 48.6 218.7 48.7 218.9 48.8 219 48.9 219.1 49 219.2 49.2 219.3 49.3 219.4 49.5 219.5 49.6 219.5 49.8 219.5 50 219.5 50 Z" fill="rgb(255, 255, 255, 1)"/>
  <path d="M 212 48.5 Q 212 48.5 214.2 48.6 216.3 48.6 217.2 49.3 218.1 49.9 218.6 50.6 219.2 51.3 219.3 52.8 219.4 54.3 218.7 55.2 218.1 56.1 217.6 56.6 217 57.1 215.9 57.7 214.7 58.3 214.4 58.7 214 59.1 212.9 59.7 211.7 60.3 210.1 60.9 208.5 61.4 207.3 61.5 206.1 61.5 205.3 61.9 204.6 62.4 202.8 62.4 201.1 62.5 200.3 62.9 199.6 63.4 197.3 63.4 195 63.5 194 63.5 193 63.5 191 63.5 189 63.5 188 63.5 187 63.5 185.5 63.5 183.9 63.5 182.7 62.9 181.4 62.4 180.5 62.4 179.7 62.4 180.3 61.9 181 61.5 180.8 61.5 180.6 61.5 180.5 61.4 180.3 61.3 180.2 61.2 180 61.1 179.9 61 179.8 60.9 179.7 60.7 179.6 60.5 179.6 60.4 179.5 60.2 179.5 60 179.5 59.8 179.6 59.6 179.6 59.5 179.7 59.3 179.8 59.1 179.9 59 180 58.9 180.2 58.8 180.3 58.7 180.5 58.6 180.6 58.5 180.8 58.5 181 58.5 181.2 58.5 181.5 58.6 181.7 58.7 181.9 58.8 182.1 59 182.2 59.2 182.3 59.4 182.4 59.6 182.5 59.8 182.5 60.1 182.4 60.3 182.4 60.6 182.3 60.8 182.1 61 182 61.1 181.8 61.3 181.5 61.4 181.3 61.5 181.1 61.5 180.8 61.5 180.6 61.4 180.4 61.4 180.2 61.2 180 61.1 179.8 60.9 179.7 60.7 179.6 60.5 179.5 60.2 179.5 60 179.5 59.8 179.6 59.5 179.7 59.3 179.8 59.1 180 58.9 180.2 58.8 180.4 58.6 180.6 58.6 180.8 58.5 181.1 58.5 181.3 58.5 181.5 58.6 181.8 58.7 182 58.9 182.1 59 182.3 59.2 182.4 59.4 182.4 59.7 182.5 59.9 182.5 60.2 182.4 60.4 182.3 60.6 182.2 60.8 182.1 61 181.9 61.2 181.7 61.3 181.5 61.4 181.2 61.5 181 61.5 181 61.5 181 61.5 180.8 61.5 180.6 61.5 180.5 61.4 180.3 61.3 180.2 61.2 180 61.1 179.9 61 179.8 60.9 179.7 60.7 179.6 60.5 179.6 60.4 179.5 60.2 179.5 60 179.5 59.8 179.6 59.6 179.6 59.5 179.7 59.3 179.8 59.1 179.9 59 180 58.9 180.2 58.8 180.3 58.7 180.5 58.6 180.6 58.5 180.8 58.5 181 58.5 180.7 59.1 180.3 59.6 181.5 59.6 182.6 59.6 183.3 60.1 184.1 60.5 185.5 60.5 187 60.5 188 60.5 189 60.5 191 60.5 193 60.5 194 60.5 195 60.5 196.7 60.6 198.4 60.6 199.7 60.1 200.9 59.5 202.2 59.6 203.4 59.6 204.7 59.1 205.9 58.5 206.7 58.5 207.6 58.6 208.9 58.1 210.3 57.7 211.1 57.3 212 56.9 212.6 56.3 213.3 55.7 214.1 55.3 215 54.9 215.4 54.4 215.9 53.9 216.3 53.8 216.6 53.7 216.7 53.2 216.8 52.8 216.4 52.4 215.9 52.1 215.8 51.7 215.7 51.4 213.8 51.4 212 51.5 211.8 51.5 211.6 51.5 211.5 51.4 211.3 51.3 211.2 51.2 211 51.1 210.9 51 210.8 50.9 210.7 50.7 210.6 50.5 210.6 50.4 210.5 50.2 210.5 50 210.5 49.8 210.6 49.6 210.6 49.5 210.7 49.3 210.8 49.1 210.9 49 211 48.9 211.2 48.8 211.3 48.7 211.5 48.6 211.6 48.5 211.8 48.5 212 48.5 212 48.5 Z" fill="rgb(255, 255, 255, 1)"/>
  <path d="M 216.9 51.9 Q 216.9 51.9 217.3 52 217.7 52.1 217.2 51.4 216.7 50.7 216.2 50.2 215.8 49.8 215.7 48.5 215.6 47.3 215.2 47 214.8 46.8 214.7 45.5 214.6 44.3 214.3 44.2 213.9 44 213.3 42.8 212.6 41.6 212.6 40.5 212.6 39.3 212.2 39 211.8 38.8 211.7 37.5 211.6 36.3 211.2 36 210.8 35.8 210.7 34.4 210.5 33 210.5 32 210.5 31 210.5 30 210.5 28.9 211.1 27.6 211.7 26.3 212.3 25.6 212.9 25 213.3 24.1 213.7 23.3 214.3 22.6 214.9 21.9 215.4 21.4 215.9 20.9 216.6 20.4 217.3 19.8 218.5 19.7 219.7 19.6 220 19.2 220.3 18.8 221.6 18.7 223 18.5 224 18.5 225 18.5 226 18.5 227 18.5 228.2 18.6 229.3 18.6 230 19.2 230.8 19.8 231.5 19.7 232.3 19.6 233.2 20.3 234.1 20.9 234.6 21.4 235 21.9 235.9 22.3 236.7 22.7 237.4 23.3 238.1 23.9 238.6 24.4 239 24.9 239.9 25.4 240.8 25.8 241.6 27.1 242.3 28.3 242.9 29.4 243.4 30.4 243.4 31.7 243.5 33 243.5 34 243.5 35 243.4 36.2 243.4 37.3 242.7 38.2 242.1 39 241.7 39.9 241.3 40.7 240.7 41.4 240.1 42 239.7 42.9 239.3 43.7 238.7 44.4 238.1 45.1 237.6 45.6 237.1 46.1 236.6 46.6 236.1 47.1 235.4 47.6 234.8 48.2 233.5 48.3 232.3 48.4 232.2 48.7 232.1 49.1 231.4 49.6 230.8 50.2 229.4 50.3 228 50.5 227.2 50.4 226.3 50.4 226 50.8 225.8 51.2 224.5 51.3 223.3 51.4 223 51.8 222.8 52.2 221.4 52.3 220 52.5 218 51.8 215.9 51.1 215.8 50.9 215.7 50.7 215.6 50.4 215.5 50.2 215.5 50 215.5 49.7 215.6 49.5 215.7 49.3 215.8 49.1 216 48.9 216.2 48.8 216.4 48.6 216.6 48.6 216.9 48.5 217.1 48.5 217.4 48.5 217.6 48.6 217.8 48.7 218 48.9 218.2 49.1 218.3 49.3 218.4 49.5 218.5 49.7 218.5 50 218.5 50.2 218.4 50.4 218.3 50.7 218.2 50.9 218 51 217.9 51.2 217.7 51.3 217.4 51.4 217.2 51.5 217 51.5 216.7 51.5 216.5 51.4 216.3 51.3 216.1 51.2 215.9 51 215.7 50.8 215.6 50.6 215.5 50.4 215.5 50.1 215.5 49.9 215.6 49.6 215.6 49.4 215.8 49.2 215.9 49 216.1 48.8 216.3 48.7 216.5 48.6 216.7 48.5 217 48.5 217.2 48.5 217.4 48.6 217.7 48.7 217.9 48.8 218.1 48.9 218.1 48.9 218.1 48.9 219 49.2 220 49.5 220.6 49.7 221.3 49.8 222 49.2 222.7 48.6 223.5 48.7 224.3 48.8 225 48.2 225.7 47.6 226.8 47.6 228 47.5 228.6 47.7 229.3 47.8 229.6 47.4 229.9 46.9 230.8 46.3 231.7 45.6 232.5 45.7 233.3 45.8 233.6 45.4 233.9 44.9 234.4 44.4 234.9 43.9 235.4 43.4 235.9 42.9 236.3 42.6 236.7 42.3 237.3 41.1 237.9 40 238.3 39.6 238.7 39.3 239.3 38.1 239.9 37 240.3 36.8 240.6 36.7 240.6 35.8 240.5 35 240.5 34 240.5 33 240.6 32.3 240.6 31.6 240.2 30.6 239.7 29.7 239.4 28.9 239.2 28.2 238.1 27.6 237 27.1 236.4 26.6 235.9 26.1 235.6 25.7 235.3 25.3 234.1 24.7 233 24.1 232.4 23.6 231.9 23.1 231.8 22.7 231.7 22.4 230.5 22.3 229.3 22.2 229 21.8 228.7 21.4 227.8 21.4 227 21.5 226 21.5 225 21.5 224 21.5 223 21.5 222.4 21.3 221.8 21.2 221 21.8 220.3 22.4 219.5 22.3 218.8 22.2 218.4 22.6 218.1 23.1 217.6 23.6 217.1 24.1 216.7 24.4 216.3 24.7 215.7 25.9 215.1 27 214.7 27.4 214.3 27.7 213.9 28.4 213.5 29.1 213.5 30 213.5 31 213.5 32 213.5 33 213.3 33.6 213.2 34.3 213.8 35 214.4 35.7 214.3 36.5 214.2 37.3 214.8 38 215.4 38.7 215.4 39.5 215.4 40.4 215.7 41.2 216.1 42 216.7 42.8 217.4 43.7 217.3 44.5 217.2 45.3 217.8 46 218.4 46.7 218.3 47.5 218.2 48.3 218.8 48.8 219.3 49.3 219.8 50.6 220.3 51.9 219.7 53 219.1 54.1 218.9 54.2 218.8 54.3 218.6 54.4 218.4 54.4 218.3 54.5 218.1 54.5 217.9 54.5 217.7 54.5 217.6 54.4 217.4 54.4 217.2 54.3 217.1 54.2 216.9 54.1 216.8 53.9 216.7 53.8 216.6 53.6 216.6 53.4 216.5 53.3 216.5 53.1 216.5 52.9 216.5 52.7 216.6 52.6 216.6 52.4 216.7 52.2 216.8 52.1 216.9 51.9 216.9 51.9 Z" fill="rgb(255, 255, 255, 1)"/>
  <path d="M 226.1 26.9 Q 226.1 26.9 226.2 27.1 226.3 27.3 226.4 27.6 226.5 27.8 226.5 28 226.5 28.3 226.4 28.5 226.3 28.7 226.2 28.9 226 29.1 225.8 29.2 225.6 29.4 225.4 29.4 225.1 29.5 224.9 29.5 224.6 29.5 224.4 29.4 224.2 29.3 224 29.1 223.8 28.9 223.7 28.7 223.6 28.5 223.5 28.3 223.5 28 223.5 27.8 223.6 27.6 223.7 27.3 223.8 27.1 224 27 224.1 26.8 224.3 26.7 224.6 26.6 224.8 26.5 225 26.5 225.3 26.5 225.5 26.6 225.7 26.7 225.9 26.8 226.1 27 226.3 27.2 226.4 27.4 226.5 27.6 226.5 27.9 226.5 28.1 226.4 28.4 226.4 28.6 226.2 28.8 226.1 29 225.9 29.2 225.7 29.3 225.5 29.4 225.3 29.5 225 29.5 224.8 29.5 224.6 29.4 224.3 29.3 224.1 29.2 223.9 29.1 223.9 29.1 223.9 29.1 223.7 29 223.4 29 223.2 28.9 223 28.8 222.8 28.6 222.6 28.5 222.4 28.3 222.3 28.1 222.2 27.9 222.1 27.7 222 27.4 221.9 27.2 222 26.9 222 26.7 222 26.5 222.1 26.2 222.2 26 222.3 25.8 222.5 25.6 222.7 25.4 222.9 25.3 223.1 25.1 223.3 25.1 223.6 25 223.8 25 224.1 24.9 225.1 25.9 Z" fill="rgb(255, 255, 255, 1)"/>
  <path d="M 235.1 31.9 Q 235.1 31.9 235.2 32.1 235.3 32.3 235.4 32.6 235.5 32.8 235.5 33 235.5 33.3 235.4 33.5 235.3 33.7 235.2 33.9 235 34.1 234.8 34.2 234.6 34.4 234.4 34.4 234.1 34.5 233.9 34.5 233.6 34.5 233.4 34.4 233.2 34.3 233 34.1 232.8 33.9 232.7 33.7 232.6 33.5 232.5 33.3 232.5 33 232.5 32.8 232.6 32.6 232.7 32.3 232.8 32.1 233 32 233.1 31.8 233.3 31.7 233.6 31.6 233.8 31.5 234 31.5 234.3 31.5 234.5 31.6 234.7 31.7 234.9 31.8 235.1 32 235.3 32.2 235.4 32.4 235.5 32.6 235.5 32.9 235.5 33.1 235.4 33.4 235.4 33.6 235.2 33.8 235.1 34 234.9 34.2 234.7 34.3 234.5 34.4 234.3 34.5 234 34.5 233.8 34.5 233.6 34.4 233.3 34.3 233.1 34.2 232.9 34.1 232.9 34.1 232.9 34.1 232.7 34 232.4 34 232.2 33.9 232 33.8 231.8 33.6 231.6 33.5 231.4 33.3 231.3 33.1 231.2 32.9 231.1 32.7 231 32.4 230.9 32.2 231 31.9 231 31.7 231 31.5 231.1 31.2 231.2 31 231.3 30.8 231.5 30.6 231.7 30.4 231.9 30.3 232.1 30.1 232.3 30.1 232.6 30 232.8 30 233.1 29.9 234.1 30.9 Z" fill="rgb(255, 255, 255, 1)"/>
  <path d="M 218.1 31.9 Q 218.1 31.9 219.1 32.9 220.1 34 220.7 35.1 221.3 36.3 221.7 36.6 222.1 36.9 222.6 37.4 223.1 37.9 223.6 38.4 224.1 38.9 224.6 39.4 225.1 39.9 225.4 40.4 225.8 40.8 226.2 40.7 226.7 40.6 227.2 39.5 227.7 38.3 227.8 38.1 227.9 37.9 228.1 37.8 228.3 37.7 228.6 37.6 228.8 37.5 229 37.5 229.3 37.5 229.5 37.6 229.7 37.7 229.9 37.8 230.1 38 230.2 38.2 230.4 38.4 230.4 38.6 230.5 38.9 230.5 39.1 230.5 39.4 230.4 39.6 230.3 39.8 230.1 40 229.9 40.2 229.7 40.3 229.5 40.4 229.3 40.5 229 40.5 228.8 40.5 228.6 40.4 228.3 40.3 228.1 40.2 227.9 40 227.8 39.9 227.7 39.7 227.6 39.4 227.5 39.2 227.5 39 227.5 38.7 227.6 38.5 227.7 38.3 227.8 38.1 228 37.9 228.2 37.7 228.4 37.6 228.6 37.5 228.9 37.5 229.1 37.5 229.4 37.6 229.6 37.6 229.8 37.8 230 37.9 230.2 38.1 230.3 38.3 230.4 38.5 230.5 38.7 230.5 39 230.5 39.2 230.4 39.4 230.3 39.7 230.3 39.7 230.3 39.7 228.8 41.5 227.3 43.4 225.8 43.3 224.3 43.2 223.6 42.6 222.9 42.1 222.4 41.6 221.9 41.1 221.4 40.6 220.9 40.1 220.4 39.6 219.9 39.1 219.3 38.4 218.7 37.7 218.3 36.9 217.9 36 216.9 35.1 215.9 34.1 215.8 33.9 215.7 33.8 215.6 33.6 215.6 33.4 215.5 33.3 215.5 33.1 215.5 32.9 215.5 32.7 215.6 32.6 215.6 32.4 215.7 32.2 215.8 32.1 215.9 31.9 216.1 31.8 216.2 31.7 216.4 31.6 216.6 31.6 216.7 31.5 216.9 31.5 217.1 31.5 217.3 31.5 217.4 31.6 217.6 31.6 217.8 31.7 217.9 31.8 218.1 31.9 218.1 31.9 Z" fill="rgb(255, 255, 255, 1)"/>
  <path d="M 220.7 39.3 Q 220.7 39.3 218.7 40.3 216.7 41.3 215.7 41.8 214.7 42.3 214.4 42.7 214.1 43.1 213.6 42.5 213.1 41.9 213.4 42.4 213.8 42.8 214.4 42.7 215 42.5 215.8 42.6 216.7 42.6 218.3 42.1 220 41.5 220.2 41.5 220.5 41.6 220.7 41.7 220.9 41.8 221.1 42 221.2 42.2 221.3 42.4 221.4 42.6 221.5 42.8 221.5 43.1 221.4 43.3 221.4 43.6 221.3 43.8 221.1 44 221 44.1 220.8 44.3 220.5 44.4 220.3 44.5 220.1 44.5 219.8 44.5 219.6 44.4 219.4 44.4 219.2 44.2 219 44.1 218.8 43.9 218.7 43.7 218.6 43.5 218.5 43.2 218.5 43 218.5 42.8 218.6 42.5 218.7 42.3 218.8 42.1 219 41.9 219.2 41.8 219.4 41.6 219.6 41.6 219.8 41.5 220.1 41.5 220.3 41.5 220.5 41.6 220.8 41.7 221 41.9 221.1 42 221.3 42.2 221.4 42.4 221.4 42.7 221.5 42.9 221.5 43.2 221.4 43.4 221.3 43.6 221.2 43.8 221.1 44 220.9 44.2 220.7 44.3 220.5 44.4 220.2 44.5 220 44.5 220 44.5 220 44.5 218.7 44.9 217.3 45.4 216.2 45.4 215 45.5 213.6 45.3 212.3 45.2 211.6 44.6 210.9 44.1 211.4 42.5 211.9 40.9 212.6 40.3 213.3 39.7 214.3 39.2 215.3 38.7 217.3 37.7 219.3 36.7 219.5 36.6 219.7 36.5 219.8 36.5 220 36.5 220.2 36.5 220.4 36.6 220.6 36.6 220.7 36.7 220.9 36.8 221 36.9 221.1 37 221.3 37.2 221.3 37.3 221.4 37.5 221.5 37.7 221.5 37.8 221.5 38 221.5 38.2 221.4 38.4 221.4 38.6 221.3 38.7 221.2 38.9 221.1 39 221 39.1 220.8 39.2 220.7 39.3 220.7 39.3 Z" fill="rgb(255, 255, 255, 1)"/>
  <path d="M 224.6 42.4 Q 224.6 42.4 222 43.4 219.5 44.4 217.8 44.4 216.1 44.5 214 45 212 45.5 211.8 45.5 211.5 45.4 211.3 45.3 211.1 45.2 210.9 45 210.8 44.8 210.7 44.6 210.6 44.4 210.5 44.2 210.5 43.9 210.6 43.7 210.6 43.4 210.7 43.2 210.9 43 211 42.9 211.2 42.7 211.5 42.6 211.7 42.5 211.9 42.5 212.2 42.5 212.4 42.6 212.6 42.6 212.8 42.8 213 42.9 213.2 43.1 213.3 43.3 213.4 43.5 213.5 43.8 213.5 44 213.5 44.2 213.4 44.5 213.3 44.7 213.2 44.9 213 45.1 212.8 45.2 212.6 45.4 212.4 45.4 212.2 45.5 211.9 45.5 211.7 45.5 211.5 45.4 211.2 45.3 211 45.1 210.9 45 210.7 44.8 210.6 44.6 210.6 44.3 210.5 44.1 210.5 43.8 210.6 43.6 210.7 43.4 210.8 43.2 210.9 43 211.1 42.8 211.3 42.7 211.5 42.6 211.8 42.5 212 42.5 212 42.5 212 42.5 214 42 215.9 41.5 217.2 41.6 218.5 41.6 221 40.6 223.4 39.6 223.6 39.6 223.8 39.5 224 39.5 224.2 39.5 224.3 39.5 224.5 39.6 224.7 39.7 224.8 39.8 225 39.9 225.1 40 225.2 40.1 225.3 40.3 225.4 40.4 225.4 40.6 225.5 40.8 225.5 41 225.5 41.2 225.5 41.3 225.4 41.5 225.3 41.7 225.2 41.8 225.1 42 225 42.1 224.9 42.2 224.7 42.3 224.6 42.4 224.6 42.4 Z" fill="rgb(255, 255, 255, 1)"/>
  <path d="M 226.1 47.9 Q 226.1 47.9 227.1 48.9 228.1 49.9 228.6 50.6 229.2 51.3 229.3 52.6 229.5 53.9 229.9 54.6 230.3 55.3 230.9 56.9 231.4 58.5 231.9 59.4 232.3 60.3 232.9 62.5 233.5 64.6 234.4 67 235.4 69.4 236.3 70.9 237.3 72.3 237.4 74.6 237.5 77 238 78.2 238.4 79.5 239 81.8 239.5 84 239.5 84.2 239.4 84.5 239.3 84.7 239.2 84.9 239 85.1 238.8 85.2 238.6 85.3 238.4 85.4 238.2 85.5 237.9 85.5 237.7 85.4 237.4 85.4 237.2 85.3 237 85.1 236.9 85 236.7 84.8 236.6 84.5 236.5 84.3 236.5 84.1 236.5 83.8 236.6 83.6 236.6 83.4 236.8 83.2 236.9 83 237.1 82.8 237.3 82.7 237.5 82.6 237.8 82.5 238 82.5 238.2 82.5 238.5 82.6 238.7 82.7 238.9 82.8 239.1 83 239.2 83.2 239.4 83.4 239.4 83.6 239.5 83.8 239.5 84.1 239.5 84.3 239.4 84.5 239.3 84.8 239.1 85 239 85.1 238.8 85.3 238.6 85.4 238.3 85.4 238.1 85.5 237.8 85.5 237.6 85.4 237.4 85.3 237.2 85.2 237 85.1 236.8 84.9 236.7 84.7 236.6 84.5 236.5 84.2 236.5 84 236.5 84 236.5 84 236 82.2 235.6 80.5 235 78.8 234.5 77 234.6 75.4 234.7 73.7 233.7 72.1 232.6 70.6 231.6 68 230.5 65.4 230.1 63.5 229.7 61.7 229.1 60.6 228.6 59.5 228.1 58.1 227.7 56.7 227.1 55.4 226.5 54.1 226.7 53.4 226.8 52.8 226.4 52.4 225.9 52.1 224.9 51.1 223.9 50.1 223.8 49.9 223.7 49.8 223.6 49.6 223.6 49.4 223.5 49.3 223.5 49.1 223.5 48.9 223.5 48.7 223.6 48.6 223.6 48.4 223.7 48.2 223.8 48.1 223.9 47.9 224.1 47.8 224.2 47.7 224.4 47.6 224.6 47.6 224.7 47.5 224.9 47.5 225.1 47.5 225.3 47.5 225.4 47.6 225.6 47.6 225.8 47.7 225.9 47.8 226.1 47.9 226.1 47.9 Z" fill="rgb(255, 255, 255, 1)"/>
  <path d="M 8.8 22.2 Q 8.8 22.2 7.5 23 6.1 23.7 6.3 24.5 6.4 25.3 5.8 26 5.2 26.8 5.3 27.9 5.5 29 5.5 30 5.5 31 5.5 32.5 5.5 34 6 35.2 6.4 36.5 6.9 37.4 7.3 38.3 7.9 39.9 8.4 41.5 8.7 41.7 9.1 42 9.7 43.1 10.3 44.3 10.8 45.3 11.3 46.3 11.7 46.6 12.1 46.9 12.4 47.4 12.8 47.8 13.4 47.7 14 47.5 15 47.5 16 47.5 17.5 47.5 19 47.5 20 47.5 21 47.5 22 47.5 23 47.5 24 47.5 25 47.5 26.2 47 27.5 46.6 28.4 46.1 29.3 45.7 30.3 45.2 31.2 44.8 31.4 44.1 31.6 43.4 31.6 42.7 31.5 41.9 32.1 40.7 32.6 39.4 32.6 38.9 32.6 38.3 32.3 38.2 31.9 38 31.2 36.2 30.6 34.5 30.1 33.6 29.7 32.7 29.2 31.7 28.7 30.7 28.3 30.4 27.9 30 27.3 28.9 26.7 27.7 26.3 27.4 25.9 27.1 25.4 26.6 24.9 26.1 24.4 25.6 23.9 25.1 23.6 24.6 23.3 24.2 22.6 24.3 21.9 24.5 20.7 23.9 19.4 23.4 18.7 23.4 18 23.5 17 23.5 15.9 23.5 14 23 12 22.5 11.8 22.5 11.5 22.4 11.3 22.3 11.1 22.2 10.9 22 10.8 21.8 10.7 21.6 10.6 21.4 10.5 21.2 10.5 20.9 10.6 20.7 10.6 20.4 10.7 20.2 10.9 20 11 19.9 11.2 19.7 11.5 19.6 11.7 19.5 11.9 19.5 12.2 19.5 12.4 19.6 12.6 19.6 12.8 19.8 13 19.9 13.2 20.1 13.3 20.3 13.4 20.5 13.5 20.8 13.5 21 13.5 21.2 13.4 21.5 13.3 21.7 13.2 21.9 13 22.1 12.8 22.2 12.6 22.4 12.4 22.4 12.2 22.5 11.9 22.5 11.7 22.5 11.5 22.4 11.2 22.3 11 22.1 10.9 22 10.7 21.8 10.6 21.6 10.6 21.3 10.5 21.1 10.5 20.8 10.6 20.6 10.7 20.4 10.8 20.2 10.9 20 11.1 19.8 11.3 19.7 11.5 19.6 11.8 19.5 12 19.5 12 19.5 12 19.5 14 20 16.1 20.5 17 20.5 18 20.5 19.3 20.6 20.6 20.6 21.3 21.1 22.1 21.5 23.4 21.7 24.8 21.8 25.4 22.4 26.1 22.9 26.6 23.4 27.1 23.9 27.6 24.4 28.1 24.9 28.7 25.6 29.3 26.3 29.7 27.1 30.1 28 30.7 28.6 31.3 29.3 31.8 30.3 32.3 31.3 32.9 32.4 33.4 33.5 33.8 34.8 34.1 36 34.7 36.8 35.4 37.7 35.4 39.1 35.4 40.6 34.9 41.3 34.5 42.1 34.4 43.3 34.4 44.6 33.6 45.9 32.8 47.2 31.7 47.8 30.7 48.3 29.6 48.9 28.5 49.4 26.8 50 25 50.5 24 50.5 23 50.5 22 50.5 21 50.5 20 50.5 19 50.5 17.5 50.5 16 50.5 15 50.5 14 50.5 12.6 50.3 11.3 50.2 10.6 49.6 9.9 49.1 9.3 48.4 8.7 47.7 8.2 46.7 7.7 45.7 7.3 44.9 6.9 44 6.3 43.3 5.6 42.5 5.1 41.1 4.7 39.7 4.1 38.6 3.6 37.5 3 35.8 2.5 34 2.5 32.5 2.5 31 2.5 30 2.5 29 2.7 27.1 2.8 25.3 3.2 25 3.6 24.7 3.7 23.5 3.9 22.3 5.5 21 7.2 19.8 7.3 19.7 7.5 19.6 7.7 19.5 7.8 19.5 8 19.5 8.2 19.5 8.4 19.6 8.6 19.6 8.7 19.7 8.9 19.8 9 19.9 9.1 20 9.2 20.2 9.3 20.3 9.4 20.5 9.5 20.7 9.5 20.8 9.5 21 9.5 21.2 9.5 21.4 9.4 21.6 9.3 21.7 9.2 21.9 9.1 22 9 22.1 8.8 22.2 8.8 22.2 Z" fill="rgb(255, 255, 255, 1)"/>
  <path d="M 13.1 29.9 Q 13.1 29.9 13.2 30.1 13.3 30.3 13.4 30.6 13.5 30.8 13.5 31 13.5 31.3 13.4 31.5 13.3 31.7 13.2 31.9 13 32.1 12.8 32.2 12.6 32.4 12.4 32.4 12.1 32.5 11.9 32.5 11.6 32.5 11.4 32.4 11.2 32.3 11 32.1 10.8 31.9 10.7 31.7 10.6 31.5 10.5 31.3 10.5 31 10.5 30.8 10.6 30.6 10.7 30.3 10.8 30.1 11 30 11.1 29.8 11.3 29.7 11.6 29.6 11.8 29.5 12 29.5 12.3 29.5 12.5 29.6 12.7 29.7 12.9 29.8 13.1 30 13.3 30.2 13.4 30.4 13.5 30.6 13.5 30.9 13.5 31.1 13.4 31.4 13.4 31.6 13.2 31.8 13.1 32 12.9 32.2 12.7 32.3 12.5 32.4 12.3 32.5 12 32.5 11.8 32.5 11.6 32.4 11.3 32.3 11.1 32.2 10.9 32.1 10.9 32.1 10.9 32.1 10.7 32 10.4 32 10.2 31.9 10 31.8 9.8 31.6 9.6 31.5 9.4 31.3 9.3 31.1 9.2 30.9 9.1 30.7 9 30.4 8.9 30.2 9 29.9 9 29.7 9 29.5 9.1 29.2 9.2 29 9.3 28.8 9.5 28.6 9.7 28.4 9.9 28.3 10.1 28.1 10.3 28.1 10.6 28 10.8 28 11.1 27.9 12.1 28.9 Z" fill="rgb(255, 255, 255, 1)"/>
  <path d="M 21.1 27.9 Q 21.1 27.9 21.2 28.1 21.3 28.3 21.4 28.6 21.5 28.8 21.5 29 21.5 29.3 21.4 29.5 21.3 29.7 21.2 29.9 21 30.1 20.8 30.2 20.6 30.4 20.4 30.4 20.1 30.5 19.9 30.5 19.6 30.5 19.4 30.4 19.2 30.3 19 30.1 18.8 29.9 18.7 29.7 18.6 29.5 18.5 29.3 18.5 29 18.5 28.8 18.6 28.6 18.7 28.3 18.8 28.1 19 28 19.1 27.8 19.3 27.7 19.6 27.6 19.8 27.5 20 27.5 20.3 27.5 20.5 27.6 20.7 27.7 20.9 27.8 21.1 28 21.3 28.2 21.4 28.4 21.5 28.6 21.5 28.9 21.5 29.1 21.4 29.4 21.4 29.6 21.2 29.8 21.1 30 20.9 30.2 20.7 30.3 20.5 30.4 20.3 30.5 20 30.5 19.8 30.5 19.6 30.4 19.3 30.3 19.1 30.2 18.9 30.1 18.9 30.1 18.9 30.1 18.7 30 18.4 30 18.2 29.9 18 29.8 17.8 29.6 17.6 29.5 17.4 29.3 17.3 29.1 17.2 28.9 17.1 28.7 17 28.4 16.9 28.2 17 27.9 17 27.7 17 27.5 17.1 27.2 17.2 27 17.3 26.8 17.5 26.6 17.7 26.4 17.9 26.3 18.1 26.1 18.3 26.1 18.6 26 18.8 26 19.1 25.9 20.1 26.9 Z" fill="rgb(255, 255, 255, 1)"/>
  <path d="M 15.6 40.5 Q 15.6 40.5 16.6 38.7 17.6 36.8 18.6 36.7 19.7 36.6 20 36.2 20.3 35.8 21.6 35.7 23 35.5 24 35.5 25 35.5 26 35.5 27 35.5 29.3 36.1 31.7 36.7 31.9 36.8 32.1 36.9 32.2 37.1 32.3 37.3 32.4 37.6 32.5 37.8 32.5 38 32.5 38.3 32.4 38.5 32.3 38.7 32.2 38.9 32 39.1 31.8 39.2 31.6 39.4 31.4 39.4 31.1 39.5 30.9 39.5 30.6 39.5 30.4 39.4 30.2 39.3 30 39.1 29.8 38.9 29.7 38.7 29.6 38.5 29.5 38.3 29.5 38 29.5 37.8 29.6 37.6 29.7 37.3 29.8 37.1 30 36.9 30.1 36.8 30.3 36.7 30.6 36.6 30.8 36.5 31 36.5 31.3 36.5 31.5 36.6 31.7 36.7 31.9 36.8 32.1 37 32.3 37.2 32.4 37.4 32.5 37.6 32.5 37.9 32.5 38.1 32.4 38.4 32.4 38.6 32.2 38.8 32.1 39 31.9 39.2 31.7 39.3 31.5 39.4 31.3 39.5 31 39.5 30.8 39.5 30.6 39.4 30.3 39.3 30.3 39.3 30.3 39.3 28.7 38.9 27 38.5 26 38.5 25 38.5 24 38.5 23 38.5 22.4 38.3 21.8 38.2 21 38.8 20.3 39.4 19.4 39.3 18.5 39.2 18.4 40.3 18.4 41.5 18.3 41.6 18.3 41.8 18.2 41.9 18 42.1 17.9 42.2 17.8 42.3 17.6 42.4 17.4 42.4 17.2 42.5 17.1 42.5 16.9 42.5 16.7 42.5 16.5 42.4 16.4 42.4 16.2 42.3 16.1 42.2 15.9 42 15.8 41.9 15.7 41.7 15.6 41.6 15.6 41.4 15.5 41.2 15.5 41.1 15.5 40.9 15.5 40.7 15.6 40.5 15.6 40.5 Z" fill="rgb(255, 255, 255, 1)"/>
  <path d="M 25.4 48.5 Q 25.4 48.5 24.9 50 24.4 51.5 24.5 52.2 24.5 53 24.5 54 24.5 54.9 24.9 55.7 25.4 56.4 25.4 58.2 25.5 60 25.5 61.5 25.5 63 25.5 64 25.5 65 25.5 66.5 25.5 68 25.5 69 25.5 70 25.5 71.5 25.5 73 25.5 74 25.5 75.1 24.9 76.3 24.4 77.6 24.4 79.3 24.5 81 24.5 81.2 24.4 81.5 24.3 81.7 24.2 81.9 24 82.1 23.8 82.2 23.6 82.3 23.4 82.4 23.2 82.5 22.9 82.5 22.7 82.4 22.4 82.4 22.2 82.3 22 82.1 21.9 82 21.7 81.8 21.6 81.5 21.5 81.3 21.5 81.1 21.5 80.8 21.6 80.6 21.6 80.4 21.8 80.2 21.9 80 22.1 79.8 22.3 79.7 22.5 79.6 22.8 79.5 23 79.5 23.2 79.5 23.5 79.6 23.7 79.7 23.9 79.8 24.1 80 24.2 80.2 24.4 80.4 24.4 80.6 24.5 80.8 24.5 81.1 24.5 81.3 24.4 81.5 24.3 81.8 24.1 82 24 82.1 23.8 82.3 23.6 82.4 23.3 82.4 23.1 82.5 22.8 82.5 22.6 82.4 22.4 82.3 22.2 82.2 22 82.1 21.8 81.9 21.7 81.7 21.6 81.5 21.5 81.2 21.5 81 21.5 81 21.5 81 21.6 78.7 21.6 76.4 22.1 75.7 22.5 74.9 22.5 74 22.5 73 22.5 71.5 22.5 70 22.5 69 22.5 68 22.5 66.5 22.5 65 22.5 64 22.5 63 22.5 61.5 22.5 60 22.6 58.8 22.6 57.6 22.1 56.3 21.5 55.1 21.5 54 21.5 53 21.5 51.8 21.6 50.6 22.1 49 22.6 47.5 22.7 47.4 22.7 47.2 22.8 47.1 23 46.9 23.1 46.8 23.2 46.7 23.4 46.6 23.6 46.6 23.8 46.5 23.9 46.5 24.1 46.5 24.3 46.5 24.5 46.6 24.6 46.6 24.8 46.7 24.9 46.8 25.1 47 25.2 47.1 25.3 47.3 25.4 47.4 25.4 47.6 25.5 47.8 25.5 47.9 25.5 48.1 25.5 48.3 25.4 48.5 25.4 48.5 Z" fill="rgb(255, 255, 255, 1)"/>
  <path d="M 23.7 65.7 Q 23.7 65.7 25.7 66.7 27.7 67.7 28.7 68.2 29.7 68.7 30.7 69.2 31.7 69.7 32.2 70.2 32.8 70.8 33.4 70.7 34.1 70.5 35.4 71.1 36.7 71.7 37.7 72.2 38.7 72.7 40.4 74.3 42.1 75.9 42.2 76.1 42.3 76.3 42.4 76.6 42.5 76.8 42.5 77 42.5 77.3 42.4 77.5 42.3 77.7 42.2 77.9 42 78.1 41.8 78.2 41.6 78.4 41.4 78.4 41.1 78.5 40.9 78.5 40.6 78.5 40.4 78.4 40.2 78.3 40 78.1 39.8 77.9 39.7 77.7 39.6 77.5 39.5 77.3 39.5 77 39.5 76.8 39.6 76.6 39.7 76.3 39.8 76.1 40 76 40.1 75.8 40.3 75.7 40.6 75.6 40.8 75.5 41 75.5 41.3 75.5 41.5 75.6 41.7 75.7 41.9 75.8 42.1 76 42.3 76.2 42.4 76.4 42.5 76.6 42.5 76.9 42.5 77.1 42.4 77.4 42.4 77.6 42.2 77.8 42.1 78 41.9 78.2 41.7 78.3 41.5 78.4 41.3 78.5 41 78.5 40.8 78.5 40.6 78.4 40.3 78.3 40.1 78.2 39.9 78.1 39.9 78.1 39.9 78.1 38.6 76.7 37.3 75.3 36.3 74.8 35.3 74.3 34.6 73.9 33.9 73.5 32.6 73.3 31.3 73.2 30.8 72.8 30.3 72.3 29.3 71.8 28.3 71.3 27.3 70.8 26.3 70.3 24.3 69.3 22.3 68.3 22.2 68.2 22 68.1 21.9 68 21.8 67.9 21.7 67.7 21.6 67.6 21.6 67.4 21.5 67.2 21.5 67 21.5 66.8 21.5 66.7 21.6 66.5 21.7 66.3 21.7 66.2 21.9 66 22 65.9 22.1 65.8 22.3 65.7 22.4 65.6 22.6 65.6 22.8 65.5 23 65.5 23.2 65.5 23.3 65.5 23.5 65.6 23.7 65.7 23.7 65.7 Z" fill="rgb(255, 255, 255, 1)"/>
  <path d="M 40.1 74.9 Q 40.1 74.9 40.9 75.9 41.8 76.8 42.4 76.7 43 76.5 44 76.5 45 76.5 47.5 76.5 50 76.5 51 76.5 52 76.5 53.5 76.5 54.9 76.5 55.7 76.1 56.4 75.6 57.5 75.6 58.7 75.6 58.8 75.3 58.9 74.9 59.4 74.4 59.9 73.9 60.4 73.4 60.9 72.9 61.4 72.6 61.8 72.3 61.7 71.5 61.6 70.7 62.2 70 62.8 69.3 63.4 67.6 63.9 65.9 64.1 65.8 64.3 65.7 64.6 65.6 64.8 65.5 65 65.5 65.3 65.5 65.5 65.6 65.7 65.7 65.9 65.8 66.1 66 66.2 66.2 66.4 66.4 66.4 66.6 66.5 66.9 66.5 67.1 66.5 67.4 66.4 67.6 66.3 67.8 66.1 68 65.9 68.2 65.7 68.3 65.5 68.4 65.3 68.5 65 68.5 64.8 68.5 64.6 68.4 64.3 68.3 64.1 68.2 64 68 63.8 67.9 63.7 67.7 63.6 67.4 63.5 67.2 63.5 67 63.5 66.7 63.6 66.5 63.7 66.3 63.8 66.1 64 65.9 64.2 65.7 64.4 65.6 64.6 65.5 64.9 65.5 65.1 65.5 65.4 65.6 65.6 65.6 65.8 65.8 66 65.9 66.2 66.1 66.3 66.3 66.4 66.5 66.5 66.7 66.5 67 66.5 67.2 66.4 67.4 66.3 67.7 66.2 67.9 66.1 68.1 66.1 68.1 66.1 68.1 65.6 69.4 65.2 70.8 64.8 71 64.4 71.3 64.3 72.5 64.2 73.8 63.6 74.4 63.1 75.1 62.6 75.6 62.1 76.1 61.6 76.6 61.1 77.1 60.2 77.7 59.3 78.4 58.5 78.4 57.6 78.4 56.3 78.9 55.1 79.5 53.5 79.5 52 79.5 51 79.5 50 79.5 47.5 79.5 45 79.5 44 79.5 43 79.5 41.6 79.3 40.3 79.2 39.1 78.1 37.9 77.1 37.8 76.9 37.7 76.8 37.6 76.6 37.6 76.4 37.5 76.3 37.5 76.1 37.5 75.9 37.5 75.7 37.6 75.6 37.6 75.4 37.7 75.2 37.8 75.1 37.9 74.9 38.1 74.8 38.2 74.7 38.4 74.6 38.6 74.6 38.7 74.5 38.9 74.5 39.1 74.5 39.3 74.5 39.4 74.6 39.6 74.6 39.8 74.7 39.9 74.8 40.1 74.9 40.1 74.9 Z" fill="rgb(255, 255, 255, 1)"/>
  <path d="M 21.8 66.2 Q 21.8 66.2 22.9 64.6 24 63 26.3 62.3 28.6 61.5 33.2 61 37.8 60.5 38.6 60.1 39.4 59.6 41.7 59.6 43.9 59.5 46 59 48 58.5 48.2 58.5 48.5 58.6 48.7 58.7 48.9 58.8 49.1 59 49.2 59.2 49.3 59.4 49.4 59.6 49.5 59.8 49.5 60.1 49.4 60.3 49.4 60.6 49.3 60.8 49.1 61 49 61.1 48.8 61.3 48.5 61.4 48.3 61.5 48.1 61.5 47.8 61.5 47.6 61.4 47.4 61.4 47.2 61.2 47 61.1 46.8 60.9 46.7 60.7 46.6 60.5 46.5 60.2 46.5 60 46.5 59.8 46.6 59.5 46.7 59.3 46.8 59.1 47 58.9 47.2 58.8 47.4 58.6 47.6 58.6 47.8 58.5 48.1 58.5 48.3 58.5 48.5 58.6 48.8 58.7 49 58.9 49.1 59 49.3 59.2 49.4 59.4 49.4 59.7 49.5 59.9 49.5 60.2 49.4 60.4 49.3 60.6 49.2 60.8 49.1 61 48.9 61.2 48.7 61.3 48.5 61.4 48.2 61.5 48 61.5 48 61.5 48 61.5 46 62 44.1 62.5 42.3 62.4 40.6 62.4 39.4 62.9 38.2 63.5 33.8 64 29.4 64.5 27.7 64.7 26 65 25.1 66.4 24.2 67.8 24.1 68 24 68.1 23.9 68.2 23.7 68.3 23.6 68.4 23.4 68.5 23.2 68.5 23 68.5 22.8 68.5 22.7 68.5 22.5 68.4 22.3 68.3 22.2 68.2 22 68.1 21.9 68 21.8 67.9 21.7 67.7 21.6 67.6 21.6 67.4 21.5 67.2 21.5 67 21.5 66.8 21.5 66.7 21.6 66.5 21.7 66.3 21.8 66.2 21.8 66.2 Z" fill="rgb(255, 255, 255, 1)"/>
  <path d="M 23.4 79.5 Q 23.4 79.5 23.9 81 24.4 82.6 24.5 83.8 24.5 85 24.5 86 24.5 87 24.5 88 24.5 89 24.5 90 24.5 91 24.5 93 24.5 95 24.5 95.2 24.4 95.5 24.3 95.7 24.2 95.9 24 96.1 23.8 96.2 23.6 96.3 23.4 96.4 23.2 96.5 22.9 96.5 22.7 96.4 22.4 96.4 22.2 96.3 22 96.1 21.9 96 21.7 95.8 21.6 95.5 21.5 95.3 21.5 95.1 21.5 94.8 21.6 94.6 21.6 94.4 21.8 94.2 21.9 94 22.1 93.8 22.3 93.7 22.5 93.6 22.8 93.5 23 93.5 23.2 93.5 23.5 93.6 23.7 93.7 23.9 93.8 24.1 94 24.2 94.2 24.4 94.4 24.4 94.6 24.5 94.8 24.5 95.1 24.5 95.3 24.4 95.5 24.3 95.8 24.1 96 24 96.1 23.8 96.3 23.6 96.4 23.3 96.4 23.1 96.5 22.8 96.5 22.6 96.4 22.4 96.3 22.2 96.2 22 96.1 21.8 95.9 21.7 95.7 21.6 95.5 21.5 95.2 21.5 95 21.5 95 21.5 95 21.5 93 21.5 91 21.5 90 21.5 89 21.5 88 21.5 87 21.5 86 21.5 85 21.5 84.2 21.6 83.5 21.1 82 20.6 80.5 20.5 80.3 20.5 80.1 20.5 79.9 20.5 79.8 20.6 79.6 20.6 79.4 20.7 79.3 20.8 79.1 20.9 79 21.1 78.8 21.2 78.7 21.4 78.6 21.5 78.6 21.7 78.5 21.9 78.5 22.1 78.5 22.2 78.5 22.4 78.6 22.6 78.6 22.8 78.7 22.9 78.8 23 78.9 23.2 79.1 23.3 79.2 23.3 79.4 23.4 79.5 23.4 79.5 Z" fill="rgb(255, 255, 255, 1)"/>
  <path d="M 213.5 53.4 Q 213.5 53.4 212 53.9 210.5 54.4 209.5 54.9 208.6 55.4 207.5 55.4 206.3 55.4 206 55.8 205.8 56.2 204.5 56.3 203.3 56.4 203 56.8 202.8 57.2 201.4 57.3 200.1 57.5 199.3 57.9 198.6 58.4 197 58.4 195.3 58.4 195 58.8 194.8 59.2 193.5 59.3 192.3 59.4 192 59.8 191.8 60.2 190.4 60.3 189 60.5 188 60.5 187.1 60.5 186.4 60.9 185.7 61.3 185.2 61.8 184.8 62.2 183.4 62.3 182 62.5 180.5 62.5 179.1 62.5 178.3 62.9 177.6 63.4 176.3 63.4 175.1 63.5 174.3 63.9 173.6 64.4 172 64.4 170.3 64.4 170 64.8 169.8 65.2 168.5 65.3 167.3 65.4 167 65.8 166.8 66.2 165.4 66.3 164 66.5 162 66.5 160 66.5 159.8 66.5 159.5 66.4 159.3 66.3 159.1 66.2 158.9 66 158.8 65.8 158.7 65.6 158.6 65.4 158.5 65.2 158.5 64.9 158.6 64.7 158.6 64.4 158.7 64.2 158.9 64 159 63.9 159.2 63.7 159.5 63.6 159.7 63.5 159.9 63.5 160.2 63.5 160.4 63.6 160.6 63.6 160.8 63.8 161 63.9 161.2 64.1 161.3 64.3 161.4 64.5 161.5 64.8 161.5 65 161.5 65.2 161.4 65.5 161.3 65.7 161.2 65.9 161 66.1 160.8 66.2 160.6 66.4 160.4 66.4 160.2 66.5 159.9 66.5 159.7 66.5 159.5 66.4 159.2 66.3 159 66.1 158.9 66 158.7 65.8 158.6 65.6 158.6 65.3 158.5 65.1 158.5 64.8 158.6 64.6 158.7 64.4 158.8 64.2 158.9 64 159.1 63.8 159.3 63.7 159.5 63.6 159.8 63.5 160 63.5 160 63.5 160 63.5 162 63.5 164 63.5 164.6 63.7 165.3 63.8 166 63.2 166.7 62.6 167.5 62.7 168.3 62.8 169 62.2 169.7 61.6 171 61.6 172.4 61.6 173.7 61.1 174.9 60.5 175.7 60.6 176.4 60.6 177.7 60.1 178.9 59.5 180.5 59.5 182 59.5 182.6 59.7 183.3 59.8 183.8 59.2 184.3 58.7 185.6 58.1 186.9 57.5 188 57.5 189 57.5 189.6 57.7 190.3 57.8 191 57.2 191.7 56.6 192.5 56.7 193.3 56.8 194 56.2 194.7 55.6 196 55.6 197.4 55.6 198.7 55.1 199.9 54.5 200.6 54.7 201.3 54.8 202 54.2 202.7 53.6 203.5 53.7 204.3 53.8 205 53.2 205.7 52.6 206.5 52.6 207.4 52.6 208.5 52.1 209.5 51.6 211 51.1 212.5 50.6 212.7 50.5 212.9 50.5 213.1 50.5 213.2 50.5 213.4 50.6 213.6 50.6 213.7 50.7 213.9 50.8 214 50.9 214.2 51.1 214.3 51.2 214.4 51.4 214.4 51.5 214.5 51.7 214.5 51.9 214.5 52.1 214.5 52.2 214.4 52.4 214.4 52.6 214.3 52.8 214.2 52.9 214.1 53 213.9 53.2 213.8 53.3 213.6 53.3 213.5 53.4 213.5 53.4 Z" fill="rgb(255, 255, 255, 1)"/>
  <path d="M 140.8 48.8 Q 140.8 48.8 142.3 49.8 143.8 50.8 144.4 51.3 145.1 51.9 145.6 52.4 146 52.9 146.9 53.3 147.7 53.7 148.4 54.3 149.1 54.9 149.6 55.4 150 55.9 150.9 56.3 151.7 56.7 152.7 57.2 153.7 57.7 154.7 58.2 155.7 58.7 156.4 59.3 157 59.9 157.9 60.3 158.7 60.7 159.4 61.3 160 61.9 161.6 62.9 163.1 63.9 163.2 64.1 163.3 64.3 163.4 64.6 163.5 64.8 163.5 65 163.5 65.3 163.4 65.5 163.3 65.7 163.2 65.9 163 66.1 162.8 66.2 162.6 66.4 162.4 66.4 162.1 66.5 161.9 66.5 161.6 66.5 161.4 66.4 161.2 66.3 161 66.1 160.8 65.9 160.7 65.7 160.6 65.5 160.5 65.3 160.5 65 160.5 64.8 160.6 64.6 160.7 64.3 160.8 64.1 161 64 161.1 63.8 161.3 63.7 161.6 63.6 161.8 63.5 162 63.5 162.3 63.5 162.5 63.6 162.7 63.7 162.9 63.8 163.1 64 163.3 64.2 163.4 64.4 163.5 64.6 163.5 64.9 163.5 65.1 163.4 65.4 163.4 65.6 163.2 65.8 163.1 66 162.9 66.2 162.7 66.3 162.5 66.4 162.3 66.5 162 66.5 161.8 66.5 161.6 66.4 161.3 66.3 161.1 66.2 160.9 66.1 160.9 66.1 160.9 66.1 159.4 65.1 158 64.1 157.6 63.7 157.3 63.3 156.1 62.7 155 62.1 154.6 61.7 154.3 61.3 153.3 60.8 152.3 60.3 151.3 59.8 150.3 59.3 149.1 58.7 148 58.1 147.4 57.6 146.9 57.1 146.6 56.7 146.3 56.3 145.1 55.7 144 55.1 143.4 54.6 142.9 54.1 142.6 53.7 142.2 53.2 140.7 52.2 139.2 51.2 139 51.1 138.9 51 138.8 50.9 138.7 50.7 138.6 50.6 138.5 50.4 138.5 50.2 138.5 50 138.5 49.8 138.5 49.7 138.6 49.5 138.7 49.3 138.8 49.2 138.9 49 139 48.9 139.1 48.8 139.3 48.7 139.4 48.6 139.6 48.6 139.8 48.5 140 48.5 140.2 48.5 140.3 48.5 140.5 48.6 140.7 48.7 140.8 48.8 140.8 48.8 Z" fill="rgb(255, 255, 255, 1)"/>
  <path d="M 179 5.5 Q 179 5.5 177.2 5.4 175.3 5.4 175 5.8 174.8 6.2 173.4 6.3 172 6.5 171.2 6.4 170.3 6.4 170 6.8 169.8 7.2 168.4 7.3 167.1 7.5 166.3 7.9 165.6 8.4 163.8 8.4 162 8.5 160.7 9 159.5 9.4 157.2 9.5 155 9.5 154 9.5 153.1 9.5 152.3 9.9 151.6 10.4 150.3 10.4 149 10.5 148 10.5 147 10.5 145.7 11 144.5 11.4 142.3 11.5 140.1 11.5 139.3 11.9 138.6 12.4 137.3 12.4 136 12.5 135 12.5 134.1 12.5 133.3 12.9 132.6 13.4 131.3 13.4 130 13.5 129.8 12.8 129.5 12 129.4 12.8 129.4 13.7 129.8 14 130.2 14.3 130.3 15.5 130.4 16.7 130.8 17 131.2 17.3 131.3 18.5 131.4 19.7 131.7 19.8 132.1 20 132.7 21.2 133.4 22.4 133.4 23.5 133.4 24.7 133.8 25 134.2 25.3 134.3 26.6 134.5 28 134.5 29 134.5 30 134.4 30.8 134.4 31.7 134.8 32 135.2 32.3 135.3 34 135.4 35.7 135.8 36 136.2 36.3 136.3 37.6 136.5 39 137 40.2 137.4 41.5 137.9 42.5 138.4 43.4 138.4 45 138.4 46.7 138.8 47 139.2 47.3 139.6 48.6 140.1 49.9 140.2 50.1 140.3 50.3 140.4 50.6 140.5 50.8 140.5 51 140.5 51.3 140.4 51.5 140.3 51.7 140.2 51.9 140 52.1 139.8 52.2 139.6 52.4 139.4 52.4 139.1 52.5 138.9 52.5 138.6 52.5 138.4 52.4 138.2 52.3 138 52.1 137.8 51.9 137.7 51.7 137.6 51.5 137.5 51.3 137.5 51 137.5 50.8 137.6 50.6 137.7 50.3 137.8 50.1 138 50 138.1 49.8 138.3 49.7 138.6 49.6 138.8 49.5 139 49.5 139.3 49.5 139.5 49.6 139.7 49.7 139.9 49.8 140.1 50 140.3 50.2 140.4 50.4 140.5 50.6 140.5 50.9 140.5 51.1 140.4 51.4 140.4 51.6 140.2 51.8 140.1 52 139.9 52.2 139.7 52.3 139.5 52.4 139.3 52.5 139 52.5 138.8 52.5 138.6 52.4 138.3 52.3 138.1 52.2 137.9 52.1 137.9 52.1 137.9 52.1 137.4 50.4 136.8 48.8 136.2 48 135.6 47.3 135.6 46 135.6 44.6 135.1 43.5 134.6 42.5 134 40.8 133.5 39 133.7 38.4 133.8 37.8 133.2 37 132.6 36.3 132.7 35 132.8 33.8 132.2 33 131.6 32.3 131.6 31.2 131.5 30 131.5 29 131.5 28 131.7 27.4 131.8 26.8 131.2 26 130.6 25.3 130.6 24.5 130.6 23.6 130.3 22.8 129.9 22 129.3 21.2 128.6 20.3 128.7 19.5 128.8 18.8 128.2 18 127.6 17.3 127.7 16.5 127.8 15.8 127.2 15 126.6 14.3 126.6 13.2 126.5 12 128.3 11.3 130 10.5 130.7 10.6 131.4 10.6 132.7 10.1 133.9 9.5 135 9.5 136 9.5 136.7 9.6 137.4 9.6 138.7 9.1 139.9 8.5 141.7 8.5 143.6 8.6 145.3 8 147 7.5 148 7.5 149 7.5 149.7 7.6 150.4 7.6 151.7 7.1 152.9 6.5 154 6.5 155 6.5 156.8 6.5 158.6 6.6 160.3 6 162 5.5 163.2 5.6 164.4 5.6 165.7 5.1 166.9 4.5 167.6 4.7 168.3 4.8 169 4.2 169.7 3.6 170.8 3.6 172 3.5 172.6 3.7 173.3 3.8 174 3.2 174.7 2.6 176.8 2.6 179 2.5 179.2 2.5 179.4 2.5 179.5 2.6 179.7 2.7 179.8 2.8 180 2.9 180.1 3 180.2 3.1 180.3 3.3 180.4 3.5 180.4 3.6 180.5 3.8 180.5 4 180.5 4.2 180.4 4.4 180.4 4.5 180.3 4.7 180.2 4.9 180.1 5 180 5.1 179.8 5.2 179.7 5.3 179.5 5.4 179.4 5.5 179.2 5.5 179 5.5 179 5.5 Z" fill="rgb(255, 255, 255, 1)"/>
  <path d="M 143.5 17.6 Q 143.5 17.6 145 17.1 146.6 16.6 147.6 16.6 148.7 16.6 149 16.2 149.3 15.8 151.6 15.7 154 15.5 154.2 15.5 154.5 15.6 154.7 15.7 154.9 15.8 155.1 16 155.2 16.2 155.3 16.4 155.4 16.6 155.5 16.8 155.5 17.1 155.4 17.3 155.4 17.6 155.3 17.8 155.1 18 155 18.1 154.8 18.3 154.5 18.4 154.3 18.5 154.1 18.5 153.8 18.5 153.6 18.4 153.4 18.4 153.2 18.2 153 18.1 152.8 17.9 152.7 17.7 152.6 17.5 152.5 17.2 152.5 17 152.5 16.8 152.6 16.5 152.7 16.3 152.8 16.1 153 15.9 153.2 15.8 153.4 15.6 153.6 15.6 153.8 15.5 154.1 15.5 154.3 15.5 154.5 15.6 154.8 15.7 155 15.9 155.1 16 155.3 16.2 155.4 16.4 155.4 16.7 155.5 16.9 155.5 17.2 155.4 17.4 155.3 17.6 155.2 17.8 155.1 18 154.9 18.2 154.7 18.3 154.5 18.4 154.2 18.5 154 18.5 154 18.5 154 18.5 152.4 18.3 150.8 18.2 150 18.8 149.3 19.4 148.4 19.4 147.5 19.4 146 19.9 144.5 20.4 144.3 20.5 144.1 20.5 143.9 20.5 143.8 20.5 143.6 20.4 143.4 20.4 143.3 20.3 143.1 20.2 143 20.1 142.8 19.9 142.7 19.8 142.6 19.6 142.6 19.5 142.5 19.3 142.5 19.1 142.5 18.9 142.5 18.8 142.6 18.6 142.6 18.4 142.7 18.2 142.8 18.1 142.9 18 143.1 17.8 143.2 17.7 143.4 17.7 143.5 17.6 143.5 17.6 Z" fill="rgb(255, 255, 255, 1)"/>
  <path d="M 144.5 22.6 Q 144.5 22.6 146 22.1 147.6 21.6 149.3 21.5 151 21.5 153.5 21 156 20.5 156.2 20.5 156.5 20.6 156.7 20.7 156.9 20.8 157.1 21 157.2 21.2 157.3 21.4 157.4 21.6 157.5 21.8 157.5 22.1 157.4 22.3 157.4 22.6 157.3 22.8 157.1 23 157 23.1 156.8 23.3 156.5 23.4 156.3 23.5 156.1 23.5 155.8 23.5 155.6 23.4 155.4 23.4 155.2 23.2 155 23.1 154.8 22.9 154.7 22.7 154.6 22.5 154.5 22.2 154.5 22 154.5 21.8 154.6 21.5 154.7 21.3 154.8 21.1 155 20.9 155.2 20.8 155.4 20.6 155.6 20.6 155.8 20.5 156.1 20.5 156.3 20.5 156.5 20.6 156.8 20.7 157 20.9 157.1 21 157.3 21.2 157.4 21.4 157.4 21.7 157.5 21.9 157.5 22.2 157.4 22.4 157.3 22.6 157.2 22.8 157.1 23 156.9 23.2 156.7 23.3 156.5 23.4 156.2 23.5 156 23.5 156 23.5 156 23.5 153.5 24 151 24.5 149.7 24.5 148.5 24.4 147 24.9 145.5 25.4 145.3 25.5 145.1 25.5 144.9 25.5 144.8 25.5 144.6 25.4 144.4 25.4 144.3 25.3 144.1 25.2 144 25.1 143.8 24.9 143.7 24.8 143.6 24.6 143.6 24.5 143.5 24.3 143.5 24.1 143.5 23.9 143.5 23.8 143.6 23.6 143.6 23.4 143.7 23.2 143.8 23.1 143.9 23 144.1 22.8 144.2 22.7 144.4 22.7 144.5 22.6 144.5 22.6 Z" fill="rgb(255, 255, 255, 1)"/>
  <path d="M 149 26.5 Q 149 26.5 151.5 26.5 154 26.5 155 26.5 156 26.5 157 26.5 158 26.5 159.5 26.5 161 26.5 161.2 26.5 161.5 26.6 161.7 26.7 161.9 26.8 162.1 27 162.2 27.2 162.3 27.4 162.4 27.6 162.5 27.8 162.5 28.1 162.4 28.3 162.4 28.6 162.3 28.8 162.1 29 162 29.1 161.8 29.3 161.5 29.4 161.3 29.5 161.1 29.5 160.8 29.5 160.6 29.4 160.4 29.4 160.2 29.2 160 29.1 159.8 28.9 159.7 28.7 159.6 28.5 159.5 28.2 159.5 28 159.5 27.8 159.6 27.5 159.7 27.3 159.8 27.1 160 26.9 160.2 26.8 160.4 26.6 160.6 26.6 160.8 26.5 161.1 26.5 161.3 26.5 161.5 26.6 161.8 26.7 162 26.9 162.1 27 162.3 27.2 162.4 27.4 162.4 27.7 162.5 27.9 162.5 28.2 162.4 28.4 162.3 28.6 162.2 28.8 162.1 29 161.9 29.2 161.7 29.3 161.5 29.4 161.2 29.5 161 29.5 161 29.5 161 29.5 159.5 29.5 158 29.5 157 29.5 156 29.5 155 29.5 154 29.5 151.5 29.5 149 29.5 148.8 29.5 148.6 29.5 148.5 29.4 148.3 29.3 148.2 29.2 148 29.1 147.9 29 147.8 28.9 147.7 28.7 147.6 28.5 147.6 28.4 147.5 28.2 147.5 28 147.5 27.8 147.6 27.6 147.6 27.5 147.7 27.3 147.8 27.1 147.9 27 148 26.9 148.2 26.8 148.3 26.7 148.5 26.6 148.6 26.5 148.8 26.5 149 26.5 149 26.5 Z" fill="rgb(255, 255, 255, 1)"/>
</svg>