<?xml version="1.0" encoding="UTF-8"?>
<svg xmlns="http://www.w3.org/2000/svg" width="186" height="102" viewBox="0 0 186 102">
  <path d="M 30.4 68.5 Q 30.4 68.5 30.9 70 31.4 71.5 31.7 71.7 32.1 71.9 32.6 72.5 33.1 73 33.8 74.8 34.4 76.5 34.9 77.5 35.4 78.4 35.4 79.7 35.5 81 35.4 81.8 35.4 82.7 35.7 82.8 36.1 82.9 36.6 83.4 37.1 84 37.7 85.2 38.4 86.4 38.4 87.5 38.4 88.7 38.8 89 39.2 89.3 38.1 89.6 37.1 89.9 37.2 90.1 37.3 90.2 37.4 90.4 37.4 90.6 37.5 90.7 37.5 90.9 37.5 91.1 37.5 91.3 37.4 91.4 37.4 91.6 37.3 91.8 37.2 91.9 37.1 92.1 36.9 92.2 36.8 92.3 36.6 92.4 36.4 92.4 36.3 92.5 36.1 92.5 35.9 92.5 35.7 92.5 35.6 92.4 35.4 92.4 35.2 92.3 35.1 92.2 34.9 92.1 34.9 92.1 34.9 92.1 34.8 91.9 34.7 91.7 34.6 91.4 34.5 91.2 34.5 91 34.5 90.7 34.6 90.5 34.7 90.3 34.8 90.1 35 89.9 35.2 89.8 35.4 89.6 35.6 89.6 35.9 89.5 36.1 89.5 36.4 89.5 36.6 89.6 36.8 89.7 37 89.9 37.2 90.1 37.3 90.3 37.4 90.5 37.5 90.7 37.5 91 37.5 91.2 37.4 91.4 37.3 91.7 37.2 91.9 37 92.1 36.9 92.2 36.7 92.3 36.4 92.4 36.2 92.5 36 92.5 35.7 92.5 35.5 92.4 35.3 92.3 35.1 92.2 34.9 92 34.7 91.8 34.6 91.6 34.5 91.4 34.5 91.1 34.5 90.9 34.6 90.6 34.6 90.4 34.8 90.2 34.9 90 35.1 89.8 35.3 89.7 35.5 89.6 35.7 89.5 36 89.5 36.2 89.5 36.4 89.6 36.7 89.7 36.9 89.8 37.1 89.9 37.2 90.1 37.3 90.2 37.4 90.4 37.4 90.6 37.5 90.7 37.5 90.9 37.5 91.1 37.5 91.3 37.4 91.4 37.4 91.6 37.3 91.8 37.2 91.9 37.1 92.1 36.9 92.2 36.8 92.3 36.6 92.4 36.4 92.4 36.3 92.5 36.1 92.5 35.9 92.5 35.7 92.5 35.6 92.4 35.4 92.4 35.2 92.3 35.1 92.2 34.9 92.1 35.9 91.4 36.8 90.8 36.2 90 35.6 89.3 35.6 88.5 35.6 87.6 35.3 86.8 34.9 86 34.4 85.6 33.9 85.1 33.3 84.2 32.6 83.3 32.6 82.2 32.5 81 32.6 80.3 32.6 79.6 32.1 78.5 31.6 77.5 31.2 76.2 30.9 75 30.4 74.5 29.9 74.1 29.3 73.3 28.6 72.5 28.1 71 27.6 69.5 27.5 69.3 27.5 69.1 27.5 68.9 27.5 68.8 27.6 68.6 27.6 68.4 27.7 68.3 27.8 68.1 27.9 68 28.1 67.8 28.2 67.7 28.4 67.6 28.5 67.6 28.7 67.5 28.9 67.5 29.1 67.5 29.2 67.5 29.4 67.6 29.6 67.6 29.8 67.7 29.9 67.8 30 67.9 30.2 68.1 30.3 68.2 30.3 68.4 30.4 68.5 30.4 68.5 Z" fill="rgb(0, 0, 0, 1)"/>
  <path d="M 111.5 51.7 Q 111.5 51.7 112 49.2 112.5 46.7 113.1 45.5 113.7 44.3 114.7 42.8 115.7 41.3 115.6 40.1 115.5 38.9 116.1 37.6 116.7 36.3 117.2 35.3 117.7 34.3 118.6 31.9 119.6 29.4 120.1 28 120.6 26.6 120.5 25.8 120.5 25 121 23.2 121.6 21.5 122.1 20.5 122.6 19.4 122.6 18.5 122.6 17.7 123.3 16.8 123.9 15.9 124.4 15.6 124.8 15.3 124.7 14.6 124.5 14 124.6 12.8 124.6 11.7 125.4 10.8 126.3 9.8 128.1 9.7 130 9.5 131 9.5 132.1 9.5 133.3 10.1 134.6 10.6 135.3 10.6 136 10.5 138.6 11 141.3 11.5 142.6 11.5 144 11.5 145 11.5 146 11.5 147.5 11.5 149 11.5 150.5 11.5 152 11.5 154.2 12 156.4 12.5 157.2 12.5 158 12.5 159.5 12.5 161 12.5 162.5 12.5 164 12.5 165.5 12.5 167 12.5 168 12.5 169 12.5 170 12.5 171 12.5 172 12.5 173 12.5 174 12.5 175 12.5 176 12.5 177 12.5 178.3 12 179.6 11.6 181.5 12.3 183.5 13 183.4 14.2 183.4 15.3 182.7 16.2 182.1 17 181.8 18.2 181.4 19.5 181.5 20.2 181.5 21 181 22.7 180.4 24.5 179.9 26 179.4 27.5 178.9 28.5 178.4 29.6 178.4 30.5 178.4 31.3 177.8 32 177.2 32.8 177.3 33.9 177.5 35 177.5 36.5 177.5 38.1 176.9 39.3 176.4 40.6 176.4 41.3 176.5 42 176.5 43 176.5 44 176.4 45.2 176.4 46.3 175.8 47 175.2 47.8 175.3 48.5 175.4 49.3 174.8 50 174.2 50.8 174.3 51.5 174.4 52.3 173.8 53 173.2 53.8 173.3 54.5 173.4 55.3 172.8 56 172.2 56.8 172.3 57.5 172.4 58.3 171.6 59.3 170.8 60.2 169.4 60.3 168 60.5 166.5 60.5 165 60.5 163 60.5 161 60.5 159 60.5 157 60.5 155 60.5 153 60.5 151.5 60.5 150 60.5 149 60.5 148 60.5 147 60.5 146 60.5 144.5 60.5 143 60.5 142 60.5 141 60.5 139.5 60.5 138 60.5 137 60.5 136 60.5 135 60.5 134 60.5 133 60.5 132 60.5 131 60.5 130 60.5 129 60.5 128 60.5 127 60.5 126 60.5 125 60.5 124 60.5 123 60.5 122 60.5 121 60.5 120 60.5 118.8 60.4 117.7 60.4 117 59.8 116.3 59.2 115.5 59.3 114.7 59.4 113.3 58.9 112 58.5 111.8 58.5 111.5 58.4 111.3 58.3 111.1 58.2 110.9 58 110.8 57.8 110.7 57.6 110.6 57.4 110.5 57.2 110.5 56.9 110.6 56.7 110.6 56.4 110.7 56.2 110.9 56 111 55.9 111.2 55.7 111.5 55.6 111.7 55.5 111.9 55.5 112.2 55.5 112.4 55.6 112.6 55.6 112.8 55.8 113 55.9 113.2 56.1 113.3 56.3 113.4 56.5 113.5 56.8 113.5 57 113.5 57.2 113.4 57.5 113.3 57.7 113.2 57.9 113 58.1 112.8 58.2 112.6 58.4 112.4 58.4 112.2 58.5 111.9 58.5 111.7 58.5 111.5 58.4 111.2 58.3 111 58.1 110.9 58 110.7 57.8 110.6 57.6 110.6 57.3 110.5 57.1 110.5 56.8 110.6 56.6 110.7 56.4 110.8 56.2 110.9 56 111.1 55.8 111.3 55.7 111.5 55.6 111.8 55.5 112 55.5 112 55.5 112 55.5 113.7 56.1 115.3 56.6 116.5 56.7 117.8 56.8 118 57.2 118.3 57.6 119.2 57.6 120 57.5 121 57.5 122 57.5 123 57.5 124 57.5 125 57.5 126 57.5 127 57.5 128 57.5 129 57.5 130 57.5 131 57.5 132 57.5 133 57.5 134 57.5 135 57.5 136 57.5 137 57.5 138 57.5 139.5 57.5 141 57.5 142 57.5 143 57.5 144.5 57.5 146 57.5 147 57.5 148 57.5 149 57.5 150 57.5 151.5 57.5 153 57.5 155 57.5 157 57.5 159 57.5 161 57.5 163 57.5 165 57.5 166.5 57.5 168 57.5 168.6 57.7 169.3 57.8 169.4 57.8 169.6 57.7 169.7 56.5 169.8 55.3 170.2 55 170.6 54.7 170.7 53.5 170.8 52.3 171.2 52 171.6 51.7 171.7 50.5 171.8 49.3 172.2 49 172.6 48.7 172.7 47.5 172.8 46.3 173.2 46 173.6 45.7 173.6 44.8 173.5 44 173.5 43 173.5 42 173.6 40.7 173.6 39.4 174.1 38.7 174.5 37.9 174.5 36.5 174.5 35 174.7 33.1 174.8 31.3 175.2 31 175.6 30.7 175.6 29.5 175.6 28.4 176.1 27.5 176.6 26.5 177.1 25 177.6 23.5 178 22.3 178.5 21 178.5 19.8 178.6 18.6 179.2 16.8 179.9 15 180.3 14.8 180.6 14.7 180.6 13.8 180.5 13 180.5 13.7 180.5 14.4 178.7 15 177 15.5 176 15.5 175 15.5 174 15.5 173 15.5 172 15.5 171 15.5 170 15.5 169 15.5 168 15.5 167 15.5 165.5 15.5 164 15.5 162.5 15.5 161 15.5 159.5 15.5 158 15.5 156.8 15.5 155.6 15.5 153.8 15 152 14.5 150.5 14.5 149 14.5 147.5 14.5 146 14.5 145 14.5 144 14.5 142.4 14.5 140.7 14.5 138.4 14 136 13.5 134.7 13.4 133.4 13.4 132.7 12.9 131.9 12.5 131 12.5 130 12.5 128.9 12.3 127.8 12.2 127.6 12.3 127.4 12.3 127.4 13.2 127.5 14 127.3 15.4 127.2 16.8 126.6 17.4 126.1 18.1 125.7 18.2 125.4 18.3 125.4 19.5 125.4 20.6 124.9 21.5 124.4 22.5 124 23.8 123.5 25 123.5 26.2 123.4 27.5 122.9 29 122.4 30.6 121.4 33.1 120.3 35.7 119.8 36.7 119.3 37.7 118.9 38.4 118.5 39.1 118.4 40.9 118.3 42.7 117.3 44.2 116.3 45.7 115.9 46.5 115.5 47.3 115 49.8 114.5 52.3 114.4 52.5 114.4 52.6 114.3 52.8 114.2 52.9 114 53.1 113.9 53.2 113.7 53.3 113.6 53.4 113.4 53.4 113.2 53.5 113.1 53.5 112.9 53.5 112.7 53.5 112.5 53.4 112.4 53.3 112.2 53.3 112.1 53.2 111.9 53 111.8 52.9 111.7 52.8 111.6 52.6 111.6 52.4 111.5 52.2 111.5 52.1 111.5 51.9 111.5 51.7 111.5 51.7 Z" fill="rgb(0, 0, 0, 1)"/>
  <path d="M 112 57.5 Q 112 57.5 110 57.5 108 57.5 107 57.5 106 57.5 104.7 57.4 103.3 57.4 103.2 57.7 103 58.1 101.8 58.7 100.6 59.4 99.5 59.4 98.3 59.4 98 59.8 97.8 60.2 96.4 60.3 95 60.5 94 60.5 93 60.5 92 60.5 91.1 60.5 90.4 60.9 89.7 61.3 88.1 61.9 86.5 62.4 85 62.9 83.5 63.4 82.4 63.4 81.3 63.4 80.7 63.9 80 64.5 79.8 64.5 79.6 64.5 79.5 64.4 79.3 64.3 79.2 64.2 79 64.1 78.9 64 78.8 63.9 78.7 63.7 78.6 63.5 78.6 63.4 78.5 63.2 78.5 63 78.5 62.8 78.6 62.6 78.6 62.5 78.7 62.3 78.8 62.1 78.9 62 79 61.9 79.2 61.8 79.3 61.7 79.5 61.6 79.6 61.5 79.8 61.5 80 61.5 81.2 61.6 82.3 61.6 83 62.2 83.8 62.8 84.4 62.7 85 62.5 86.7 63 88.5 63.6 89.8 63.5 91.1 63.5 92.3 64.1 93.6 64.6 94.8 64.6 96 64.5 97 64.5 98.1 64.5 99.3 65.1 100.6 65.6 101.3 65.6 102 65.5 103.5 65.5 105 65.5 106 65.5 107 65.5 108 65.5 109.1 65.5 110.3 66.1 111.6 66.6 112.8 66.6 114 66.5 115.5 66.5 117 66.5 118.5 66.5 120 66.5 121 66.5 122 66.5 123 66.5 124 66.5 125 66.5 126 66.5 127 66.5 128 66.5 129 66.5 130 66.5 131 66.5 132 66.5 133 66.5 134 66.5 134.8 66.6 135.7 66.6 136 66.2 136.3 65.8 137.5 65.7 138.7 65.6 138.8 65.3 139 64.9 140.2 64.3 141.4 63.6 142.5 63.6 143.7 63.6 144 63.2 144.3 62.8 145.6 62.7 146.9 62.5 147.7 62.1 148.4 61.6 149.5 61.6 150.7 61.6 150.8 61.3 150.9 60.9 151.6 60.4 152.3 59.8 153.5 59.7 154.7 59.6 154.8 59.3 155 58.9 156.2 58.3 157.4 57.6 158.5 57.6 159.7 57.6 160 57.2 160.3 56.8 161.5 56.7 162.7 56.6 163 56.2 163.3 55.8 164.5 55.7 165.7 55.6 167.3 55.1 169 54.5 169.2 54.5 169.5 54.6 169.7 54.7 169.9 54.8 170.1 55 170.2 55.2 170.3 55.4 170.4 55.6 170.5 55.8 170.5 56.1 170.4 56.3 170.4 56.6 170.3 56.8 170.1 57 170 57.1 169.8 57.3 169.5 57.4 169.3 57.5 169.1 57.5 168.8 57.5 168.6 57.4 168.4 57.4 168.2 57.2 168 57.1 167.8 56.9 167.7 56.7 167.6 56.5 167.5 56.2 167.5 56 167.5 55.8 167.6 55.5 167.7 55.3 167.8 55.1 168 54.9 168.2 54.8 168.4 54.6 168.6 54.6 168.8 54.5 169.1 54.5 169.3 54.5 169.5 54.6 169.8 54.7 170 54.9 170.1 55 170.3 55.2 170.4 55.4 170.4 55.7 170.5 55.9 170.5 56.2 170.4 56.4 170.3 56.6 170.2 56.8 170.1 57 169.9 57.2 169.7 57.3 169.5 57.4 169.2 57.5 169 57.5 169 57.5 169 57.5 167.7 57.9 166.3 58.4 165.5 58.3 164.8 58.2 164 58.8 163.3 59.4 162.5 59.3 161.8 59.2 161 59.8 160.3 60.4 159.5 60.4 158.6 60.4 157.8 60.7 157 61.1 156.2 61.7 155.3 62.4 154.5 62.3 153.8 62.2 153.4 62.6 153.1 63.1 152.2 63.7 151.3 64.4 150.5 64.4 149.6 64.4 148.3 64.9 147.1 65.5 146.4 65.3 145.8 65.2 145 65.8 144.3 66.4 143.5 66.4 142.6 66.4 141.8 66.7 141 67.1 140.2 67.7 139.3 68.4 138.5 68.3 137.8 68.2 137 68.8 136.3 69.4 135.2 69.4 134 69.5 133 69.5 132 69.5 131 69.5 130 69.5 129 69.5 128 69.5 127 69.5 126 69.5 125 69.5 124 69.5 123 69.5 122 69.5 121 69.5 120 69.5 118.5 69.5 117 69.5 115.5 69.5 114 69.5 112.2 69.4 110.4 69.4 109.7 68.9 108.9 68.5 108 68.5 107 68.5 106 68.5 105 68.5 103.5 68.5 102 68.5 100.7 68.4 99.4 68.4 98.7 67.9 97.9 67.5 97 67.5 96 67.5 94.2 67.4 92.4 67.4 91.7 66.9 90.9 66.5 89.2 66.5 87.6 66.4 86.3 66 85 65.5 83.6 65.3 82.3 65.2 82 64.8 81.7 64.4 80.8 64.4 80 64.5 79.8 64.5 79.6 64.5 79.5 64.4 79.3 64.3 79.2 64.2 79 64.1 78.9 64 78.8 63.9 78.7 63.7 78.6 63.5 78.6 63.4 78.5 63.2 78.5 63 78.5 62.8 78.6 62.6 78.6 62.5 78.7 62.3 78.8 62.1 78.9 62 79 61.9 79.2 61.8 79.3 61.7 79.5 61.6 79.6 61.5 79.8 61.5 80 61.5 80.3 61.1 80.7 60.6 81.6 60.6 82.6 60.6 84 60.1 85.5 59.6 86.9 59.1 88.3 58.7 89.6 58.1 90.9 57.5 92 57.5 93 57.5 94 57.5 95 57.5 95.6 57.7 96.3 57.8 97 57.2 97.7 56.6 98.5 56.6 99.4 56.6 100.2 56.3 101 55.9 101.8 55.3 102.7 54.6 104.3 54.6 106 54.5 107 54.5 108 54.5 110 54.5 112 54.5 112.2 54.5 112.4 54.5 112.5 54.6 112.7 54.7 112.8 54.8 113 54.9 113.1 55 113.2 55.1 113.3 55.3 113.4 55.5 113.4 55.6 113.5 55.8 113.5 56 113.5 56.2 113.4 56.4 113.4 56.5 113.3 56.7 113.2 56.9 113.1 57 113 57.1 112.8 57.2 112.7 57.3 112.5 57.4 112.4 57.5 112.2 57.5 112 57.5 112 57.5 Z" fill="rgb(0, 0, 0, 1)"/>
  <path d="M 135.4 21.5 Q 135.4 21.5 137.4 22 139.4 22.5 140.2 22.5 141 22.5 142.7 23 144.5 23.6 145.7 23.5 147 23.5 149 23.5 151 23.5 153.5 23.5 156 23.5 158 23.5 160 23.5 162 23.5 164 23.5 166 23.5 168 23.5 168.2 23.5 168.5 23.6 168.7 23.7 168.9 23.8 169.1 24 169.2 24.2 169.3 24.4 169.4 24.6 169.5 24.8 169.5 25.1 169.4 25.3 169.4 25.6 169.3 25.8 169.1 26 169 26.1 168.8 26.3 168.5 26.4 168.3 26.5 168.1 26.5 167.8 26.5 167.6 26.4 167.4 26.4 167.2 26.2 167 26.1 166.8 25.9 166.7 25.7 166.6 25.5 166.5 25.2 166.5 25 166.5 24.8 166.6 24.5 166.7 24.3 166.8 24.1 167 23.9 167.2 23.8 167.4 23.6 167.6 23.6 167.8 23.5 168.1 23.5 168.3 23.5 168.5 23.6 168.8 23.7 169 23.9 169.1 24 169.3 24.2 169.4 24.4 169.4 24.7 169.5 24.9 169.5 25.2 169.4 25.4 169.3 25.6 169.2 25.8 169.1 26 168.9 26.2 168.7 26.3 168.5 26.4 168.2 26.5 168 26.5 168 26.5 168 26.5 166 26.5 164 26.5 162 26.5 160 26.5 158 26.5 156 26.5 153.5 26.5 151 26.5 149 26.5 147 26.5 145.3 26.5 143.6 26.4 142.3 26 141 25.5 139.8 25.5 138.6 25.5 136.6 25 134.6 24.5 134.5 24.4 134.3 24.3 134.2 24.2 134 24.1 133.9 24 133.8 23.8 133.7 23.7 133.6 23.5 133.6 23.4 133.5 23.2 133.5 23 133.5 22.8 133.6 22.6 133.6 22.5 133.7 22.3 133.8 22.1 133.9 22 134 21.9 134.2 21.8 134.3 21.7 134.5 21.6 134.6 21.5 134.8 21.5 135 21.5 135.2 21.5 135.4 21.5 135.4 21.5 Z" fill="rgb(0, 0, 0, 1)"/>
  <path d="M 134 28.5 Q 134 28.5 136 28.5 138 28.5 139 28.5 140 28.5 141 28.5 142 28.5 143 28.5 144 28.5 145 28.5 146.1 28.5 147.3 29.1 148.6 29.6 149.3 29.6 150 29.5 151 29.5 152.1 29.5 153.3 30.1 154.6 30.6 156.3 31.3 158.1 31.9 158.2 32.1 158.3 32.3 158.4 32.6 158.5 32.8 158.5 33 158.5 33.3 158.4 33.5 158.3 33.7 158.2 33.9 158 34.1 157.8 34.2 157.6 34.4 157.4 34.4 157.1 34.5 156.9 34.5 156.6 34.5 156.4 34.4 156.2 34.3 156 34.1 155.8 33.9 155.7 33.7 155.6 33.5 155.5 33.3 155.5 33 155.5 32.8 155.6 32.6 155.7 32.3 155.8 32.1 156 32 156.1 31.8 156.3 31.7 156.6 31.6 156.8 31.5 157 31.5 157.3 31.5 157.5 31.6 157.7 31.7 157.9 31.8 158.1 32 158.3 32.2 158.4 32.4 158.5 32.6 158.5 32.9 158.5 33.1 158.4 33.4 158.4 33.6 158.2 33.8 158.1 34 157.9 34.2 157.7 34.3 157.5 34.4 157.3 34.5 157 34.5 156.8 34.5 156.6 34.4 156.3 34.3 156.1 34.2 155.9 34.1 155.9 34.1 155.9 34.1 154.7 33.7 153.4 33.4 152.7 32.9 151.9 32.5 151 32.5 150 32.5 148.7 32.4 147.4 32.4 146.7 31.9 145.9 31.5 145 31.5 144 31.5 143 31.5 142 31.5 141 31.5 140 31.5 139 31.5 138 31.5 136 31.5 134 31.5 133.8 31.5 133.6 31.5 133.5 31.4 133.3 31.3 133.2 31.2 133 31.1 132.9 31 132.8 30.9 132.7 30.7 132.6 30.5 132.6 30.4 132.5 30.2 132.5 30 132.5 29.8 132.6 29.6 132.6 29.5 132.7 29.3 132.8 29.1 132.9 29 133 28.9 133.2 28.8 133.3 28.7 133.5 28.6 133.6 28.5 133.8 28.5 134 28.5 134 28.5 Z" fill="rgb(0, 0, 0, 1)"/>
  <path d="M 128.8 33.8 Q 128.8 33.8 130.3 34.8 131.8 35.8 132.7 36.2 133.6 36.6 134.3 36.6 135.1 36.5 136.3 37.1 137.6 37.6 139.3 37.6 141 37.5 142 37.5 143 37.5 144.7 38 146.5 38.6 147.7 38.5 149 38.5 150.5 38.5 152 38.5 154 38.5 156 38.5 157.5 38.5 159 38.5 159.2 38.5 159.5 38.6 159.7 38.7 159.9 38.8 160.1 39 160.2 39.2 160.3 39.4 160.4 39.6 160.5 39.8 160.5 40.1 160.4 40.3 160.4 40.6 160.3 40.8 160.1 41 160 41.1 159.8 41.3 159.5 41.4 159.3 41.5 159.1 41.5 158.8 41.5 158.6 41.4 158.4 41.4 158.2 41.2 158 41.1 157.8 40.9 157.7 40.7 157.6 40.5 157.5 40.2 157.5 40 157.5 39.8 157.6 39.5 157.7 39.3 157.8 39.1 158 38.9 158.2 38.8 158.4 38.6 158.6 38.6 158.8 38.5 159.1 38.5 159.3 38.5 159.5 38.6 159.8 38.7 160 38.9 160.1 39 160.3 39.2 160.4 39.4 160.4 39.7 160.5 39.9 160.5 40.2 160.4 40.4 160.3 40.6 160.2 40.8 160.1 41 159.9 41.2 159.7 41.3 159.5 41.4 159.2 41.5 159 41.5 159 41.5 159 41.5 157.5 41.5 156 41.5 154 41.5 152 41.5 150.5 41.5 149 41.5 147.3 41.5 145.6 41.4 144.3 41 143 40.5 142 40.5 141 40.5 138.7 40.4 136.4 40.4 135.7 39.9 134.9 39.5 133.7 39.4 132.4 39.4 131.3 38.8 130.2 38.2 128.7 37.2 127.2 36.2 127 36.1 126.9 36 126.8 35.9 126.7 35.7 126.6 35.6 126.5 35.4 126.5 35.2 126.5 35 126.5 34.8 126.5 34.7 126.6 34.5 126.7 34.3 126.8 34.2 126.9 34 127 33.9 127.1 33.8 127.3 33.7 127.4 33.6 127.6 33.6 127.8 33.5 128 33.5 128.2 33.5 128.3 33.5 128.5 33.6 128.7 33.7 128.8 33.8 128.8 33.8 Z" fill="rgb(0, 0, 0, 1)"/>
  <path d="M 131.5 42.6 Q 131.5 42.6 133 43.1 134.5 43.6 135.2 43.5 136 43.5 137.5 43.5 139 43.5 140 43.5 141 43.5 142 43.5 143 43.5 144.5 43.5 146 43.5 146.2 43.5 146.5 43.6 146.7 43.7 146.9 43.8 147.1 44 147.2 44.2 147.3 44.4 147.4 44.6 147.5 44.8 147.5 45.1 147.4 45.3 147.4 45.6 147.3 45.8 147.1 46 147 46.1 146.8 46.3 146.5 46.4 146.3 46.5 146.1 46.5 145.8 46.5 145.6 46.4 145.4 46.4 145.2 46.2 145 46.1 144.8 45.9 144.7 45.7 144.6 45.5 144.5 45.2 144.5 45 144.5 44.8 144.6 44.5 144.7 44.3 144.8 44.1 145 43.9 145.2 43.8 145.4 43.6 145.6 43.6 145.8 43.5 146.1 43.5 146.3 43.5 146.5 43.6 146.8 43.7 147 43.9 147.1 44 147.3 44.2 147.4 44.4 147.4 44.7 147.5 44.9 147.5 45.2 147.4 45.4 147.3 45.6 147.2 45.8 147.1 46 146.9 46.2 146.7 46.3 146.5 46.4 146.2 46.5 146 46.5 146 46.5 146 46.5 144.5 46.5 143 46.5 142 46.5 141 46.5 140 46.5 139 46.5 137.5 46.5 136 46.5 134.8 46.5 133.6 46.4 132 45.9 130.5 45.4 130.4 45.3 130.2 45.3 130.1 45.2 129.9 45 129.8 44.9 129.7 44.8 129.6 44.6 129.6 44.4 129.5 44.2 129.5 44.1 129.5 43.9 129.5 43.7 129.6 43.5 129.6 43.4 129.7 43.2 129.8 43.1 130 42.9 130.1 42.8 130.3 42.7 130.4 42.6 130.6 42.6 130.8 42.5 130.9 42.5 131.1 42.5 131.3 42.5 131.5 42.6 131.5 42.6 Z" fill="rgb(0, 0, 0, 1)"/>
  <path d="M 31.5 63.6 Q 31.5 63.6 32 65.6 32.5 67.6 32.4 70.2 32.4 72.7 32.8 73 33.2 73.3 33.3 74.6 33.5 76 33.5 77 33.5 78 33.5 79 33.5 80 33.5 81 33.5 82 33.5 83 33.5 84 33.5 85 33.5 86 33.4 86.8 33.4 87.7 33.8 88 34.2 88.3 34.3 89.6 34.5 90.9 34.9 91.6 35.3 92.3 35.8 93.3 36.3 94.3 36.7 94.6 37.1 95 37.1 95.4 37.1 95.9 37.2 96.1 37.3 96.2 37.4 96.4 37.4 96.6 37.5 96.7 37.5 96.9 37.5 97.1 37.5 97.3 37.4 97.4 37.4 97.6 37.3 97.8 37.2 97.9 37.1 98.1 36.9 98.2 36.8 98.3 36.6 98.4 36.4 98.4 36.3 98.5 36.1 98.5 35.9 98.5 35.7 98.5 35.6 98.4 35.4 98.4 35.2 98.3 35.1 98.2 34.9 98.1 34.8 97.9 34.7 97.7 34.6 97.4 34.5 97.2 34.5 97 34.5 96.7 34.6 96.5 34.7 96.3 34.8 96.1 35 95.9 35.2 95.8 35.4 95.6 35.6 95.6 35.9 95.5 36.1 95.5 36.4 95.5 36.6 95.6 36.8 95.7 37 95.9 37.2 96.1 37.3 96.3 37.4 96.5 37.5 96.7 37.5 97 37.5 97.2 37.4 97.4 37.3 97.7 37.2 97.9 37 98 36.9 98.2 36.7 98.3 36.4 98.4 36.2 98.5 36 98.5 35.7 98.5 35.5 98.4 35.3 98.3 35.1 98.2 34.9 98 34.7 97.8 34.6 97.6 34.5 97.4 34.5 97.1 34.5 96.9 34.6 96.6 34.6 96.4 34.8 96.2 34.9 96 35.1 95.8 35.3 95.7 35.5 95.6 35.7 95.5 36 95.5 36.2 95.5 36.4 95.6 36.7 95.7 36.9 95.8 37.1 95.9 37.1 95.9 37.1 95.9 37.2 96.1 37.3 96.2 37.4 96.4 37.4 96.6 37.5 96.7 37.5 96.9 37.5 97.1 37.5 97.3 37.4 97.4 37.4 97.6 37.3 97.8 37.2 97.9 37.1 98.1 36.9 98.2 36.8 98.3 36.6 98.4 36.4 98.4 36.3 98.5 36.1 98.5 35.9 98.5 35.7 98.5 35.6 98.4 35.4 98.4 35.2 98.3 35.1 98.2 34.9 98.1 34.9 97.6 34.9 97 34.3 96.4 33.7 95.7 33.2 94.7 32.7 93.7 32.1 92.4 31.5 91.1 31.7 90.4 31.8 89.8 31.2 89 30.6 88.3 30.6 87.2 30.5 86 30.5 85 30.5 84 30.5 83 30.5 82 30.5 81 30.5 80 30.5 79 30.5 78 30.5 77 30.5 76 30.7 75.4 30.8 74.8 30.2 74 29.6 73.3 29.6 70.8 29.5 68.4 29 66.4 28.5 64.4 28.5 64.2 28.5 64 28.5 63.8 28.5 63.6 28.6 63.5 28.7 63.3 28.8 63.2 28.9 63 29 62.9 29.1 62.8 29.3 62.7 29.5 62.6 29.6 62.6 29.8 62.5 30 62.5 30.2 62.5 30.4 62.6 30.5 62.6 30.7 62.7 30.8 62.8 31 62.9 31.1 63 31.2 63.2 31.3 63.3 31.4 63.5 31.5 63.6 31.5 63.6 Z" fill="rgb(0, 0, 0, 1)"/>
  <path d="M 30.4 62.5 Q 30.4 62.5 32.4 63 34.4 63.5 35.5 64.1 36.7 64.7 38.1 65.1 39.5 65.6 40.2 65.5 41 65.5 42 65.5 43 65.5 44 65.5 45 65.5 46 65.5 47 65.5 48.5 65.5 50 65.5 51 65.5 52 65.5 54.2 65.6 56.3 65.6 57 66.2 57.8 66.8 58.4 66.7 59 66.5 60.5 66.5 62 66.5 63 66.5 64 66.5 65 66.5 66 66.5 67 66.5 68 66.5 69 66.5 70 66.5 71 66.5 72 66.5 73 66.5 74 66.5 74.8 66.6 75.7 66.6 77.3 66.1 79 65.5 79.2 65.5 79.5 65.6 79.7 65.7 79.9 65.8 80.1 66 80.2 66.2 80.3 66.4 80.4 66.6 80.5 66.8 80.5 67.1 80.4 67.3 80.4 67.6 80.3 67.8 80.1 68 80 68.1 79.8 68.3 79.5 68.4 79.3 68.5 79.1 68.5 78.8 68.5 78.6 68.4 78.4 68.4 78.2 68.2 78 68.1 77.8 67.9 77.7 67.7 77.6 67.5 77.5 67.2 77.5 67 77.5 66.8 77.6 66.5 77.7 66.3 77.8 66.1 78 65.9 78.2 65.8 78.4 65.6 78.6 65.6 78.8 65.5 79.1 65.5 79.3 65.5 79.5 65.6 79.8 65.7 80 65.9 80.1 66 80.3 66.2 80.4 66.4 80.4 66.7 80.5 66.9 80.5 67.2 80.4 67.4 80.3 67.6 80.2 67.8 80.1 68 79.9 68.2 79.7 68.3 79.5 68.4 79.2 68.5 79 68.5 79 68.5 79 68.5 77.7 68.9 76.3 69.4 75.2 69.4 74 69.5 73 69.5 72 69.5 71 69.5 70 69.5 69 69.5 68 69.5 67 69.5 66 69.5 65 69.5 64 69.5 63 69.5 62 69.5 60.5 69.5 59 69.5 57.6 69.3 56.3 69.2 56 68.8 55.7 68.4 53.8 68.4 52 68.5 51 68.5 50 68.5 48.5 68.5 47 68.5 46 68.5 45 68.5 44 68.5 43 68.5 42 68.5 41 68.5 39.8 68.5 38.6 68.4 36.9 67.9 35.3 67.3 34.5 66.9 33.6 66.5 31.6 66 29.6 65.5 29.5 65.4 29.3 65.3 29.2 65.2 29 65.1 28.9 65 28.8 64.8 28.7 64.7 28.6 64.5 28.6 64.4 28.5 64.2 28.5 64 28.5 63.8 28.6 63.6 28.6 63.5 28.7 63.3 28.8 63.1 28.9 63 29 62.9 29.2 62.8 29.3 62.7 29.5 62.6 29.6 62.5 29.8 62.5 30 62.5 30.2 62.5 30.4 62.5 30.4 62.5 Z" fill="rgb(0, 0, 0, 1)"/>
  <path d="M 28.6 60.5 Q 28.6 60.5 30.6 60.1 32.5 59.6 32.8 59.3 33 58.9 34.8 58.2 36.6 57.6 38.3 57.5 40 57.5 41.8 57 43.6 56.5 45.5 55.6 47.3 54.7 49.5 54.1 51.6 53.5 53.3 53.5 55 53.5 56.3 53 57.5 52.6 59.6 52.1 61.6 51.5 63.8 51.5 66 51.5 66.2 51.5 66.5 51.6 66.7 51.7 66.9 51.8 67.1 52 67.2 52.2 67.3 52.4 67.4 52.6 67.5 52.8 67.5 53.1 67.4 53.3 67.4 53.6 67.3 53.8 67.1 54 67 54.1 66.8 54.3 66.5 54.4 66.3 54.5 66.1 54.5 65.8 54.5 65.6 54.4 65.4 54.4 65.2 54.2 65 54.1 64.8 53.9 64.7 53.7 64.6 53.5 64.5 53.2 64.5 53 64.5 52.8 64.6 52.5 64.7 52.3 64.8 52.1 65 51.9 65.2 51.8 65.4 51.6 65.6 51.6 65.8 51.5 66.1 51.5 66.3 51.5 66.5 51.6 66.8 51.7 67 51.9 67.1 52 67.3 52.2 67.4 52.4 67.4 52.7 67.5 52.9 67.5 53.2 67.4 53.4 67.3 53.6 67.2 53.8 67.1 54 66.9 54.2 66.7 54.3 66.5 54.4 66.2 54.5 66 54.5 66 54.5 66 54.5 64.2 54.5 62.4 54.5 60.4 54.9 58.5 55.4 56.7 56 55 56.5 53.7 56.5 52.4 56.5 50.5 56.9 48.7 57.3 46.5 58.4 44.4 59.5 42.2 60 40 60.5 38.7 60.5 37.5 60.4 36.2 60.8 35 61.1 34.2 61.7 33.5 62.4 31.4 62.9 29.4 63.5 29.2 63.5 29 63.5 28.8 63.5 28.6 63.5 28.5 63.4 28.3 63.3 28.2 63.2 28 63.1 27.9 63 27.8 62.9 27.7 62.7 27.6 62.5 27.6 62.4 27.5 62.2 27.5 62 27.5 61.8 27.6 61.6 27.6 61.5 27.7 61.3 27.8 61.2 27.9 61 28 60.9 28.2 60.8 28.3 60.7 28.5 60.6 28.6 60.5 28.6 60.5 Z" fill="rgb(0, 0, 0, 1)"/>
  <path d="M 21.1 39.9 Q 21.1 39.9 21.2 40.1 21.3 40.3 21.4 40.6 21.5 40.8 21.5 41 21.5 41.3 21.4 41.5 21.3 41.7 21.2 41.9 21 42.1 20.8 42.2 20.6 42.4 20.4 42.4 20.1 42.5 19.9 42.5 19.6 42.5 19.4 42.4 19.2 42.3 19 42.1 18.8 41.9 18.7 41.7 18.6 41.5 18.5 41.3 18.5 41 18.5 40.8 18.6 40.6 18.7 40.3 18.8 40.1 19 40 19.1 39.8 19.3 39.7 19.6 39.6 19.8 39.5 20 39.5 20.3 39.5 20.5 39.6 20.7 39.7 20.9 39.8 21.1 40 21.3 40.2 21.4 40.4 21.5 40.6 21.5 40.9 21.5 41.1 21.4 41.4 21.4 41.6 21.2 41.8 21.1 42 20.9 42.2 20.7 42.3 20.5 42.4 20.3 42.5 20 42.5 19.8 42.5 19.6 42.4 19.3 42.3 19.1 42.2 18.9 42.1 18.9 42.1 18.9 42.1 18.7 42 18.4 42 18.2 41.9 18 41.8 17.8 41.6 17.6 41.5 17.4 41.3 17.3 41.1 17.2 40.9 17.1 40.7 17 40.4 16.9 40.2 17 39.9 17 39.7 17 39.5 17.1 39.2 17.2 39 17.3 38.8 17.5 38.6 17.7 38.4 17.9 38.3 18.1 38.1 18.3 38.1 18.6 38 18.8 38 19.1 37.9 20.1 38.9 Z" fill="rgb(0, 0, 0, 1)"/>
  <path d="M 33.1 35.9 Q 33.1 35.9 33.2 36.1 33.3 36.3 33.4 36.6 33.5 36.8 33.5 37 33.5 37.3 33.4 37.5 33.3 37.7 33.2 37.9 33 38.1 32.8 38.2 32.6 38.4 32.4 38.4 32.1 38.5 31.9 38.5 31.6 38.5 31.4 38.4 31.2 38.3 31 38.1 30.8 37.9 30.7 37.7 30.6 37.5 30.5 37.3 30.5 37 30.5 36.8 30.6 36.6 30.7 36.3 30.8 36.1 31 36 31.1 35.8 31.3 35.7 31.6 35.6 31.8 35.5 32 35.5 32.3 35.5 32.5 35.6 32.7 35.7 32.9 35.8 33.1 36 33.3 36.2 33.4 36.4 33.5 36.6 33.5 36.9 33.5 37.1 33.4 37.4 33.4 37.6 33.2 37.8 33.1 38 32.9 38.2 32.7 38.3 32.5 38.4 32.3 38.5 32 38.5 31.8 38.5 31.6 38.4 31.3 38.3 31.1 38.2 30.9 38.1 30.9 38.1 30.9 38.1 30.7 38 30.4 38 30.2 37.9 30 37.8 29.8 37.6 29.6 37.5 29.4 37.3 29.3 37.1 29.2 36.9 29.1 36.7 29 36.4 28.9 36.2 29 35.9 29 35.7 29 35.5 29.1 35.2 29.2 35 29.3 34.8 29.5 34.6 29.7 34.4 29.9 34.3 30.1 34.1 30.3 34.1 30.6 34 30.8 34 31.1 33.9 32.1 34.9 Z" fill="rgb(0, 0, 0, 1)"/>
  <path d="M 19.1 48.9 Q 19.1 48.9 20.1 49.9 21.1 50.9 21.6 51.4 22.1 51.9 22.6 52.4 23.1 52.9 23.4 53.4 23.8 53.8 24.4 53.7 25.1 53.5 26.4 54.1 27.7 54.7 28.2 55.2 28.8 55.8 29.4 55.7 30 55.5 30.8 55.6 31.7 55.6 31.8 55.3 31.9 55 32.3 54.2 32.6 53.4 32.6 52.5 32.6 51.7 33.3 50.8 33.9 49.9 34.8 48.6 35.7 47.3 35.8 47.1 35.9 46.9 36.1 46.8 36.3 46.7 36.6 46.6 36.8 46.5 37 46.5 37.3 46.5 37.5 46.6 37.7 46.7 37.9 46.8 38.1 47 38.2 47.2 38.4 47.4 38.4 47.6 38.5 47.9 38.5 48.1 38.5 48.4 38.4 48.6 38.3 48.8 38.1 49 37.9 49.2 37.7 49.3 37.5 49.4 37.3 49.5 37 49.5 36.8 49.5 36.6 49.4 36.3 49.3 36.1 49.2 35.9 49 35.8 48.9 35.7 48.7 35.6 48.4 35.5 48.2 35.5 48 35.5 47.7 35.6 47.5 35.7 47.3 35.8 47.1 36 46.9 36.2 46.7 36.4 46.6 36.6 46.5 36.9 46.5 37.1 46.5 37.4 46.6 37.6 46.6 37.8 46.8 38 46.9 38.2 47.1 38.3 47.3 38.4 47.5 38.5 47.7 38.5 48 38.5 48.2 38.4 48.4 38.3 48.7 38.3 48.7 38.3 48.7 37.2 50.4 36.1 52.1 35.7 52.2 35.4 52.3 35.4 53.5 35.4 54.6 34.7 55.8 34.1 57 33.2 57.7 32.3 58.4 31.2 58.4 30 58.5 28.6 58.3 27.3 58.2 26.8 57.8 26.3 57.3 25.6 56.9 24.9 56.5 23.6 56.3 22.3 56.2 21.6 55.6 20.9 55.1 20.4 54.6 19.9 54.1 19.4 53.6 18.9 53.1 17.9 52.1 16.9 51.1 16.8 50.9 16.7 50.8 16.6 50.6 16.6 50.4 16.5 50.3 16.5 50.1 16.5 49.9 16.5 49.7 16.6 49.6 16.6 49.4 16.7 49.2 16.8 49.1 16.9 48.9 17.1 48.8 17.2 48.7 17.4 48.6 17.6 48.6 17.7 48.5 17.9 48.5 18.1 48.5 18.3 48.5 18.4 48.6 18.6 48.6 18.8 48.7 18.9 48.8 19.1 48.9 19.1 48.9 Z" fill="rgb(0, 0, 0, 1)"/>
  <path d="M 28.2 25.8 Q 28.2 25.8 29.6 24.8 31.1 23.8 31.4 23.1 31.7 22.3 32.2 21.3 32.7 20.3 33.2 19.8 33.8 19.3 33.7 18.5 33.6 17.7 34.2 17 34.8 16.3 34.7 15.6 34.5 15 34.5 14 34.5 13 34.5 12 34.5 11 34.5 10 34.5 9 34.5 8 34.5 7 34.6 6.2 34.6 5.3 34.1 4.7 33.5 4 33.5 3.8 33.5 3.6 33.6 3.5 33.7 3.3 33.8 3.2 33.9 3 34 2.9 34.1 2.8 34.3 2.7 34.5 2.6 34.6 2.6 34.8 2.5 35 2.5 35.2 2.5 35.4 2.6 35.5 2.6 35.7 2.7 35.9 2.8 36 2.9 36.1 3 36.2 3.2 36.3 3.3 36.4 3.5 36.5 3.6 36.5 3.8 36.5 4 35.9 5.3 35.3 6.7 34.8 7.7 34.3 8.7 33.2 9.9 32.1 11.1 31.6 11.6 31.1 12.1 30.6 12.6 30.1 13.1 29.6 13.6 29.1 14.1 28.6 14.6 28.1 15.1 27.6 15.6 27.1 16.1 26.6 16.6 26.1 17.1 25.9 17.2 25.8 17.3 25.6 17.4 25.4 17.4 25.3 17.5 25.1 17.5 24.9 17.5 24.7 17.5 24.6 17.4 24.4 17.4 24.2 17.3 24.1 17.2 23.9 17.1 23.8 16.9 23.7 16.8 23.6 16.6 23.6 16.4 23.5 16.3 23.5 16.1 23.5 15.9 23.5 15.7 23.6 15.6 23.6 15.4 23.7 15.2 23.8 15.1 23.9 14.9 24.3 14.1 24.7 13.3 25.8 12.1 26.9 11 27.3 10.1 27.7 9.3 28.2 8.8 28.8 8.3 28.9 7.1 28.9 5.9 29.1 5.8 29.2 5.7 29.4 5.6 29.6 5.6 29.7 5.5 29.9 5.5 30.1 5.5 30.3 5.5 30.4 5.6 30.6 5.6 30.8 5.7 30.9 5.8 31.1 5.9 31.2 6.1 31.3 6.2 31.4 6.4 31.4 6.6 31.5 6.7 31.5 6.9 31.5 7.1 31.5 7.3 31.4 7.4 31.4 7.6 31.3 7.8 31.2 7.9 31.1 8.1 30.6 8.6 30.1 9 29.6 9.9 29.2 10.8 27.9 11.6 26.7 12.3 26.4 12.7 26 13.1 25.1 13.3 24.1 13.6 24.3 14.5 24.4 15.3 23.6 16.3 22.8 17.2 21.5 17.3 20.3 17.4 20.2 17.7 20.1 18 19.6 18.9 19.2 19.8 17.9 20.6 16.7 21.3 16.2 21.8 15.7 22.3 15.5 22.4 15.3 22.5 15.2 22.5 15 22.5 14.8 22.5 14.6 22.4 14.4 22.4 14.3 22.3 14.1 22.2 14 22.1 13.9 22 13.7 21.8 13.7 21.7 13.6 21.5 13.5 21.3 13.5 21.2 13.5 21 13.5 20.8 13.6 20.6 13.6 20.4 13.7 20.3 13.8 20.1 13.9 20 14 19.9 14.2 19.8 14.3 19.7 14 19.2 13.6 18.7 14.3 17.8 14.9 16.9 15.4 16.4 15.9 15.9 16.4 15.4 16.9 15 17.3 14.1 17.7 13.3 18.3 12.6 18.9 11.9 19.4 11.4 19.9 10.9 20.1 10.8 20.2 10.7 20.4 10.6 20.6 10.6 20.7 10.5 20.9 10.5 21.1 10.5 21.3 10.5 21.4 10.6 21.6 10.6 21.8 10.7 21.9 10.8 22.1 10.9 22.2 11.1 22.3 11.2 22.4 11.4 22.4 11.6 22.5 11.7 22.5 11.9 22.5 12.1 22.5 12.3 22.4 12.4 22.4 12.6 22.3 12.8 22.2 12.9 22.1 13.1 21.6 13.6 21.1 14.1 20.6 14.6 20.1 15.1 19.6 15.6 19 16.1 17.9 16.6 16.8 17.2 16.6 17.9 16.3 18.7 15.7 19.4 15.1 20 14.3 21.1 13.6 22.1 12.5 22.3 11.3 22.4 11 22.8 10.8 23.2 9.9 23.1 9.1 23.1 8.9 23.2 8.8 23.3 8.6 23.4 8.4 23.4 8.3 23.5 8.1 23.5 7.9 23.5 7.7 23.5 7.6 23.4 7.4 23.4 7.2 23.3 7.1 23.2 6.9 23.1 6.8 22.9 6.7 22.8 6.6 22.6 6.6 22.4 6.5 22.3 6.5 22.1 6.5 21.9 6.5 21.7 6.6 21.6 6.6 21.4 6.7 21.2 6.8 21.1 6.9 20.9 8.2 20.3 9.4 19.6 11 19.6 12.7 19.6 13 19.2 13.3 18.8 14.1 18.9 14.9 18.9 15.1 18.8 15.2 18.7 15.4 18.6 15.6 18.6 15.7 18.5 15.9 18.5 16.1 18.5 16.3 18.5 16.4 18.6 16.6 18.6 16.8 18.7 16.9 18.8 17.1 18.9 17.2 19.1 17.3 19.2 17.4 19.4 17.4 19.6 17.5 19.7 17.5 19.9 17.5 20.1 17.5 20.3 17.4 20.4 17.4 20.6 17.3 20.8 17.2 20.9 17.1 21.1 16.6 20.6 16.1 20.1 15.6 20.6 15 21.1 13.8 21.7 12.6 22.4 11.5 22.4 10.3 22.4 10.2 22.7 10.1 23.1 9.6 23.6 9.1 24.1 8.6 23.5 8.1 22.9 8.6 23.4 9.1 23.9 9.6 24.6 10.2 25.3 10.3 26.6 10.5 28 10.4 28.8 10.4 29.7 10.8 30 11.2 30.3 11.3 31.6 11.5 33 11.4 33.8 11.4 34.7 11.8 35 12.2 35.3 11.6 37.4 11 39.5 9.8 39.4 8.7 39.4 7.8 38.6 6.8 37.8 6.7 36.4 6.5 35 6.5 34 6.5 33 6.5 32 6.5 31 6.5 30 6.5 29 6.5 28 6.5 27 6.5 26 6.5 25 6.5 24.8 6.5 24.6 6.6 24.5 6.7 24.3 6.8 24.2 6.9 24 7 23.9 7.1 23.8 7.3 23.7 7.5 23.6 7.6 23.6 7.8 23.5 8 23.5 8.2 23.5 8.4 23.6 8.5 23.6 8.7 23.7 8.9 23.8 9 23.9 9.1 24 9.2 24.2 9.3 24.3 9.4 24.5 9.5 24.6 9.5 24.8 9.5 25 8.8 25.9 8.2 26.8 8.3 27.5 8.4 28.3 7.8 29 7.2 29.8 7.3 30.5 7.4 31.3 6.7 32.2 6.1 33 5.7 33.8 5.4 34.6 5.4 35.1 5.4 35.7 5.6 35.8 5.8 35.8 6.5 35.7 7.3 35.6 8.4 37.8 9.5 40 9.5 40.2 9.4 40.5 9.3 40.7 9.2 40.9 9 41.1 8.8 41.2 8.6 41.3 8.4 41.4 8.2 41.5 7.9 41.5 7.7 41.4 7.4 41.4 7.2 41.3 7 41.1 6.9 41 6.7 40.8 6.6 40.5 6.5 40.3 6.5 40.1 6.5 39.8 6.6 39.6 6.6 39.4 6.8 39.2 6.9 39 7.1 38.8 7.3 38.7 7.5 38.6 7.8 38.5 8 38.5 8.2 38.5 8.5 38.6 8.7 38.7 8.9 38.8 9.1 39 9.2 39.2 9.4 39.4 9.4 39.6 9.5 39.8 9.5 40.1 9.5 40.3 9.4 40.5 9.3 40.8 9.1 41 9 41.1 8.8 41.3 8.6 41.4 8.3 41.4 8.1 41.5 7.8 41.5 7.6 41.4 7.4 41.3 7.2 41.2 7 41.1 6.8 40.9 6.7 40.7 6.6 40.5 6.5 40.2 6.5 40 6.5 40 6.5 40 6.6 39.2 6.7 38.4 5.5 38.3 4.3 38.2 3.4 37.3 2.6 36.3 2.6 34.9 2.6 33.4 3.3 32.2 3.9 31 4.3 30.8 4.6 30.7 4.7 29.5 4.8 28.3 5.2 28 5.6 27.7 5.7 26.5 5.8 25.3 6.2 25.1 6.5 25 6.5 24.8 6.5 24.6 6.6 24.5 6.7 24.3 6.8 24.2 6.9 24 7 23.9 7.1 23.8 7.3 23.7 7.5 23.6 7.6 23.6 7.8 23.5 8 23.5 8.2 23.5 8.4 23.6 8.5 23.6 8.7 23.7 8.9 23.8 9 23.9 9.1 24 9.2 24.2 9.3 24.3 9.4 24.5 9.5 24.6 9.5 24.8 9.5 25 9.5 26 9.5 27 9.5 28 9.5 29 9.5 30 9.5 31 9.5 32 9.5 33 9.5 34 9.5 35 9.3 35.6 9.2 36.3 9.3 36.4 9.3 36.6 10.2 36.6 11 36.5 10.4 36.6 9.8 36.8 9.2 36 8.6 35.3 8.6 34.2 8.5 33 8.7 32.4 8.8 31.8 8.2 31 7.6 30.3 7.6 29.2 7.5 28 7.7 27.4 7.8 26.8 7.4 26.4 6.9 26.1 6.4 25.6 5.9 25.1 6.4 23.5 6.9 21.9 7.4 21.4 7.9 20.9 8.8 20.3 9.7 19.6 10.5 19.6 11.4 19.6 12.2 19.3 13 18.9 13.4 18.4 13.9 17.9 14.4 18.4 14.9 18.9 15.1 18.8 15.2 18.7 15.4 18.6 15.6 18.6 15.7 18.5 15.9 18.5 16.1 18.5 16.3 18.5 16.4 18.6 16.6 18.6 16.8 18.7 16.9 18.8 17.1 18.9 17.2 19.1 17.3 19.2 17.4 19.4 17.4 19.6 17.5 19.7 17.5 19.9 17.5 20.1 17.5 20.3 17.4 20.4 17.4 20.6 17.3 20.8 17.2 20.9 17.1 21.1 15.9 21.1 14.8 21.2 14 21.8 13.3 22.4 12 22.4 10.6 22.4 9.8 22.7 9.1 23.1 8.9 23.2 8.8 23.3 8.6 23.4 8.4 23.4 8.3 23.5 8.1 23.5 7.9 23.5 7.7 23.5 7.6 23.4 7.4 23.4 7.2 23.3 7.1 23.2 6.9 23.1 6.8 22.9 6.7 22.8 6.6 22.6 6.6 22.4 6.5 22.3 6.5 22.1 6.5 21.9 6.5 21.7 6.6 21.6 6.6 21.4 6.7 21.2 6.8 21.1 6.9 20.9 8.1 20.9 9.3 20.8 10 20.2 10.7 19.6 11.5 19.7 12.4 19.9 12.7 18.9 12.9 18 13.3 17.6 13.7 17.3 14.4 16.1 15.2 14.8 16.1 14.4 17 13.9 17.4 13.4 17.9 12.9 18.4 12.4 18.9 11.9 19.4 11.4 19.9 10.9 20.1 10.8 20.2 10.7 20.4 10.6 20.6 10.6 20.7 10.5 20.9 10.5 21.1 10.5 21.3 10.5 21.4 10.6 21.6 10.6 21.8 10.7 21.9 10.8 22.1 10.9 22.2 11.1 22.3 11.2 22.4 11.4 22.4 11.6 22.5 11.7 22.5 11.9 22.5 12.1 22.5 12.3 22.4 12.4 22.4 12.6 22.3 12.8 22.2 12.9 22.1 13.1 21.6 13.6 21.1 14.1 20.7 14.4 20.3 14.7 19.7 15.9 19.1 17 18.6 17.6 18.1 18.1 17.6 18.6 17.1 19.1 16.7 19.2 16.4 19.3 16 20.8 15.7 22.3 15.5 22.4 15.3 22.5 15.2 22.5 15 22.5 14.8 22.5 14.6 22.4 14.4 22.4 14.3 22.3 14.1 22.2 14 22.1 13.9 22 13.7 21.8 13.7 21.7 13.6 21.5 13.5 21.3 13.5 21.2 13.5 21 13.5 20.8 13.6 20.6 13.6 20.4 13.7 20.3 13.8 20.1 13.9 20 14 19.9 14.2 19.8 14.3 19.7 14.8 19.2 15.3 18.7 16.1 18.4 16.8 18.2 17.4 17.1 17.9 16 18.8 15.3 19.7 14.6 20.5 14.7 21.3 14.8 21.4 14.8 21.6 14.7 21.7 13.5 21.9 12.4 22.9 11.7 24 10.9 24.6 10.3 25.3 9.7 26.1 9.4 26.8 9.2 27.4 8.1 27.9 7 28.4 6.4 28.9 5.9 29.1 5.8 29.2 5.7 29.4 5.6 29.6 5.6 29.7 5.5 29.9 5.5 30.1 5.5 30.3 5.5 30.4 5.6 30.6 5.6 30.8 5.7 30.9 5.8 31.1 5.9 31.2 6.1 31.3 6.2 31.4 6.4 31.4 6.6 31.5 6.7 31.5 6.9 31.5 7.1 31.5 7.3 31.4 7.4 31.4 7.6 31.3 7.8 31.2 7.9 31.1 8.1 31.1 8.9 31.2 9.8 30.8 10.2 30.3 10.7 29.7 11.9 29.1 13 28.2 13.9 27.3 14.7 26.7 15.9 26.1 17.1 25.9 17.2 25.8 17.3 25.6 17.4 25.4 17.4 25.3 17.5 25.1 17.5 24.9 17.5 24.7 17.5 24.6 17.4 24.4 17.4 24.2 17.3 24.1 17.2 23.9 17.1 23.8 16.9 23.7 16.8 23.6 16.6 23.6 16.4 23.5 16.3 23.5 16.1 23.5 15.9 23.5 15.7 23.6 15.6 23.6 15.4 23.7 15.2 23.8 15.1 23.9 14.9 24.4 14.4 24.9 13.9 25.4 13.4 25.9 12.9 26.4 12.4 26.9 11.9 27.4 11.4 27.9 10.9 28.4 10.4 28.9 9.9 29.4 9.4 29.9 8.9 30.8 8.1 31.7 7.3 32.2 6.3 32.7 5.3 33.1 4.7 33.5 4 33.5 3.8 33.5 3.6 33.6 3.5 33.7 3.3 33.8 3.2 33.9 3 34 2.9 34.1 2.8 34.3 2.7 34.5 2.6 34.6 2.6 34.8 2.5 35 2.5 35.2 2.5 35.4 2.6 35.5 2.6 35.7 2.7 35.9 2.8 36 2.9 36.1 3 36.2 3.2 36.3 3.3 36.4 3.5 36.5 3.6 36.5 3.8 36.5 4 36.9 4.3 37.4 4.7 37.4 5.8 37.5 7 37.5 8 37.5 9 37.5 10 37.5 11 37.5 12 37.5 13 37.5 14 37.5 15 37.3 16.4 37.2 17.8 36.8 18 36.4 18.3 36.3 19.5 36.2 20.8 35.8 21.2 35.3 21.7 34.8 22.7 34.3 23.7 33.6 24.9 32.9 26.2 31.4 27.2 29.8 28.2 29.7 28.3 29.5 28.4 29.3 28.5 29.2 28.5 29 28.5 28.8 28.5 28.6 28.4 28.4 28.4 28.3 28.3 28.1 28.2 28 28.1 27.9 28 27.8 27.8 27.7 27.7 27.6 27.5 27.5 27.3 27.5 27.2 27.5 27 27.5 26.8 27.5 26.6 27.6 26.4 27.7 26.3 27.8 26.1 27.9 26 28 25.9 28.2 25.8 28.2 25.8 Z" fill="rgb(0, 0, 0, 1)"/>
  <path d="M 39.5 89 Q 39.5 89 39.4 91.2 39.4 93.3 38.7 94.2 38.1 95.1 37.4 95.6 36.8 96.2 35.2 96.3 33.7 96.4 32.8 95.6 31.8 94.8 31.7 93.4 31.5 92 31.5 90.5 31.5 89 31.5 88 31.5 87 31.5 86 31.5 85 31.5 84 31.5 83 31.5 82 31.5 81 31.5 80 31.5 79 31.5 78 31.5 77 31.5 76.8 31.5 76.6 31.6 76.5 31.7 76.3 31.8 76.2 31.9 76 32 75.9 32.1 75.8 32.3 75.7 32.5 75.6 32.6 75.6 32.8 75.5 33 75.5 33.2 75.5 33.4 75.6 33.5 75.6 33.7 75.7 33.9 75.8 34 75.9 34.1 76 34.2 76.2 34.3 76.3 34.4 76.5 34.5 76.6 34.5 76.8 34.5 77 34.5 78 34.5 79 34.5 80 34.5 81 34.5 82.5 34.5 84 34.5 85 34.5 86 34.4 87.3 34.4 88.7 34.8 89 35.2 89.3 35.3 91.1 35.5 93 35.5 94 35.5 95 35.5 95.2 35.5 95.4 35.4 95.5 35.3 95.7 35.2 95.8 35.1 96 35 96.1 34.9 96.2 34.7 96.3 34.5 96.4 34.4 96.4 34.2 96.5 34 96.5 33.8 96.5 33.6 96.4 33.5 96.4 33.3 96.3 33.1 96.2 33 96.1 32.9 96 32.8 95.8 32.7 95.7 32.6 95.5 32.5 95.4 32.5 95.2 32.5 95 33.2 94.1 33.8 93.3 33.7 92.6 33.5 92 33.6 91.2 33.6 90.3 33.2 90 32.8 89.8 32.7 88.4 32.5 87 32.6 85.7 32.6 84.3 32.2 84 31.8 83.8 31.9 82.9 31.9 82.1 31.8 81.9 31.7 81.8 31.6 81.6 31.6 81.4 31.5 81.3 31.5 81.1 31.5 80.9 31.5 80.7 31.6 80.6 31.6 80.4 31.7 80.2 31.8 80.1 31.9 79.9 32.1 79.8 32.2 79.7 32.4 79.6 32.6 79.6 32.7 79.5 32.9 79.5 33.1 79.5 33.3 79.5 33.4 79.6 33.6 79.6 33.8 79.7 33.9 79.8 34.1 79.9 34.2 81.3 34.4 82.7 34.8 83 35.2 83.3 35.3 85 35.4 86.7 35.8 87 36.2 87.3 36.3 89.1 36.5 90.9 36.9 91.7 37.4 92.4 37.3 93.4 37.3 94.3 37.4 94.5 37.5 94.7 37.5 94.8 37.5 95 37.5 95.2 37.4 95.4 37.4 95.6 37.3 95.7 37.2 95.9 37.1 96 37 96.1 36.8 96.3 36.7 96.3 36.5 96.4 36.3 96.5 36.2 96.5 36 96.5 35.8 96.5 35.6 96.4 35.4 96.4 35.3 96.3 35.1 96.2 35 96.1 34.9 96 34.8 95.8 34.7 95.7 34.3 95.4 33.9 95.1 33.4 94.4 32.8 93.8 32.7 92.5 32.6 91.3 32.2 91 31.8 90.8 31.7 89.4 31.5 88 31.5 86 31.5 84 31.5 83.8 31.6 83.5 31.7 83.3 31.8 83.1 32 82.9 32.2 82.8 32.4 82.7 32.6 82.6 32.8 82.5 33.1 82.5 33.3 82.6 33.6 82.6 33.8 82.7 34 82.9 34.1 83 34.3 83.2 34.4 83.5 34.5 83.7 34.5 83.9 34.5 84.2 34.4 84.4 34.4 84.6 34.2 84.8 34.1 85 33.9 85.2 33.7 85.3 33.5 85.4 33.2 85.5 33 85.5 32.8 85.5 32.5 85.4 32.3 85.3 32.1 85.2 31.9 85 31.8 84.8 31.6 84.6 31.6 84.4 31.5 84.2 31.5 83.9 31.5 83.7 31.6 83.5 31.7 83.2 31.9 83 32 82.9 32.2 82.7 32.4 82.6 32.7 82.6 32.9 82.5 33.2 82.5 33.4 82.6 33.6 82.7 33.8 82.8 34 82.9 34.2 83.1 34.3 83.3 34.4 83.5 34.5 83.8 34.5 84 34.5 84 34.5 84 34.5 86 34.5 88 34.3 88.6 34.2 89.3 34.8 90 35.4 90.7 35.3 91.5 35.2 92.3 35.6 92.6 36.1 92.9 36.7 93.6 37.3 94.3 37.4 94.5 37.5 94.7 37.5 94.8 37.5 95 37.5 95.2 37.4 95.4 37.4 95.6 37.3 95.7 37.2 95.9 37.1 96 37 96.1 36.8 96.3 36.7 96.3 36.5 96.4 36.3 96.5 36.2 96.5 36 96.5 35.8 96.5 35.6 96.4 35.4 96.4 35.3 96.3 35.1 96.2 35 96.1 34.9 96 34.8 95.8 34.7 95.7 34.7 94.6 34.6 93.6 34.1 92.3 33.5 91.1 33.7 89.9 33.8 88.8 33.2 88 32.6 87.3 32.7 86 32.8 84.8 32.2 84 31.6 83.3 31.8 82.7 31.9 82.1 31.8 81.9 31.7 81.8 31.6 81.6 31.6 81.4 31.5 81.3 31.5 81.1 31.5 80.9 31.5 80.7 31.6 80.6 31.6 80.4 31.7 80.2 31.8 80.1 31.9 79.9 32.1 79.8 32.2 79.7 32.4 79.6 32.6 79.6 32.7 79.5 32.9 79.5 33.1 79.5 33.3 79.5 33.4 79.6 33.6 79.6 33.8 79.7 33.9 79.8 34.1 79.9 34.1 81.1 34.2 82.3 34.8 83 35.4 83.7 35.4 85.3 35.5 87 35.3 87.6 35.2 88.3 35.8 89 36.4 89.7 36.4 90.8 36.5 92 36.3 93.4 36.2 94.8 35.8 94.9 35.5 95 35.5 95.2 35.5 95.4 35.4 95.5 35.3 95.7 35.2 95.8 35.1 96 35 96.1 34.9 96.2 34.7 96.3 34.5 96.4 34.4 96.4 34.2 96.5 34 96.5 33.8 96.5 33.6 96.4 33.5 96.4 33.3 96.3 33.1 96.2 33 96.1 32.9 96 32.8 95.8 32.7 95.7 32.6 95.5 32.5 95.4 32.5 95.2 32.5 95 32.5 94 32.5 93 32.7 91.9 32.8 90.8 32.2 90 31.6 89.3 31.6 87.7 31.5 86 31.5 85 31.5 84 31.5 82.5 31.5 81 31.5 80 31.5 79 31.5 78 31.5 77 31.5 76.8 31.5 76.6 31.6 76.5 31.7 76.3 31.8 76.2 31.9 76 32 75.9 32.1 75.8 32.3 75.7 32.5 75.6 32.6 75.6 32.8 75.5 33 75.5 33.2 75.5 33.4 75.6 33.5 75.6 33.7 75.7 33.9 75.8 34 75.9 34.1 76 34.2 76.2 34.3 76.3 34.4 76.5 34.5 76.6 34.5 76.8 34.5 77 34.5 78 34.5 79 34.5 80 34.5 81 34.5 82 34.5 83 34.5 84 34.5 85 34.5 86 34.5 87 34.5 88 34.5 89 34.5 90.5 34.5 92 34.3 92.6 34.2 93.3 34.3 93.4 34.3 93.6 34.8 93.7 35.3 93.8 35.6 93.4 35.9 92.9 36.3 92.8 36.6 92.7 36.6 90.8 36.5 89 36.5 88.8 36.5 88.6 36.6 88.5 36.7 88.3 36.8 88.2 36.9 88 37 87.9 37.1 87.8 37.3 87.7 37.5 87.6 37.6 87.6 37.8 87.5 38 87.5 38.2 87.5 38.4 87.6 38.5 87.6 38.7 87.7 38.9 87.8 39 87.9 39.1 88 39.2 88.2 39.3 88.3 39.4 88.5 39.5 88.6 39.5 88.8 39.5 89 39.5 89 Z" fill="rgb(0, 0, 0, 1)"/>
  <path d="M 35.1 67.1 Q 35.1 67.1 34.1 67.9 33.2 68.8 33.3 69.4 33.5 70 33.5 71.5 33.5 73 34 75.9 34.5 78.8 34.5 79.9 34.5 81 34.5 82 34.5 83 34.5 84.5 34.5 86 34.5 87 34.5 88 34.5 89 34.5 90 34.5 90.2 34.5 90.4 34.4 90.5 34.3 90.7 34.2 90.8 34.1 91 34 91.1 33.9 91.2 33.7 91.3 33.5 91.4 33.4 91.4 33.2 91.5 33 91.5 32.8 91.5 32.6 91.4 32.5 91.4 32.3 91.3 32.1 91.2 32 91.1 31.9 91 31.8 90.8 31.7 90.7 31.6 90.5 31.5 90.4 31.5 90.2 31.5 90 31.5 89 31.5 88 31.5 87 31.5 86 31.5 85 31.5 84 31 82.7 30.6 81.5 30.5 80.2 30.5 79 30.5 78 30.5 77 30.5 76 30.5 75 30.5 74 30.5 73 30.5 72 30.5 71 31.3 70.8 32 70.5 30.8 70.4 29.7 70.4 29.9 69.7 30.1 69.1 29.6 68.5 29.1 67.9 29.6 68.4 30.1 68.9 30.6 69.6 31.2 70.3 31.3 71.6 31.5 72.9 31.9 73.7 32.4 74.4 32.4 75.7 32.5 76.9 32.9 77.7 33.4 78.4 33.4 79.5 33.4 80.7 33.8 81 34.2 81.3 34.3 82.6 34.5 84 34.5 85 34.5 86 34.5 87 34.5 88 34.5 88.2 34.5 88.4 34.4 88.5 34.3 88.7 34.2 88.8 34.1 89 34 89.1 33.9 89.2 33.7 89.3 33.5 89.4 33.4 89.4 33.2 89.5 33 89.5 32.8 89.5 32.6 89.4 32.5 89.4 32.3 89.3 32.1 89.2 32 89.1 31.9 89 31.8 88.8 31.7 88.7 31.6 88.5 31.5 88.4 31.5 88.2 31.5 88 31.6 87.2 31.6 86.3 31.2 86 30.8 85.8 30.7 84.4 30.5 83.1 30.1 82.3 29.6 81.6 29.6 80.3 29.5 79 29.5 77.5 29.5 76.1 29.1 75.3 28.6 74.6 28.6 73.3 28.5 72 28.6 71.2 28.6 70.3 28.2 70 27.8 69.8 27.7 68.4 27.5 67 27.6 66.2 27.6 65.3 27.4 65.3 27.3 65.2 27.4 64.6 27.5 64 27.3 66.3 27 68.5 26.8 68.5 26.6 68.5 26.5 68.4 26.3 68.3 26.2 68.2 26 68.1 25.9 68 25.8 67.9 25.7 67.7 25.6 67.5 25.6 67.4 25.5 67.2 25.5 67 25.5 66.8 25.6 66.6 25.6 66.5 25.7 66.3 25.8 66.1 25.9 66 26 65.9 26.2 65.8 26.3 65.7 26.5 65.6 26.6 65.5 26.8 65.5 27 65.5 27.7 65.9 28.3 66.3 28.4 66.6 28.5 66.8 28.5 67 28.5 67.3 28.4 67.5 28.3 67.7 28.2 67.9 28 68.1 27.8 68.2 27.6 68.4 27.4 68.4 27.1 68.5 26.9 68.5 26.6 68.5 26.4 68.4 26.2 68.3 26 68.1 25.8 67.9 25.7 67.7 25.6 67.5 25.5 67.3 25.5 67 25.5 66.8 25.6 66.6 25.7 66.3 25.8 66.1 26 66 26.1 65.8 26.3 65.7 26.6 65.6 26.8 65.5 27 65.5 27.3 65.5 27.5 65.6 27.7 65.7 27.9 65.8 28.1 66 28.3 66.2 28.4 66.4 28.5 66.6 28.5 66.9 28.5 67.1 28.4 67.4 28.4 67.6 28.2 67.8 28.1 68 27.9 68.2 27.7 68.3 27.5 68.4 27.3 68.5 27 68.5 26.8 68.5 26.6 68.4 26.3 68.3 26.1 68.2 25.9 68.1 26.5 68.3 27 68.5 26.8 68.5 26.6 68.5 26.5 68.4 26.3 68.3 26.2 68.2 26 68.1 25.9 68 25.8 67.9 25.7 67.7 25.6 67.5 25.6 67.4 25.5 67.2 25.5 67 25.5 66.8 25.6 66.6 25.6 66.5 25.7 66.3 25.8 66.1 25.9 66 26 65.9 26.2 65.8 26.3 65.7 26.5 65.6 26.6 65.5 26.8 65.5 27 65.5 25.8 64.8 24.5 64 26.6 63.4 28.8 62.8 29.6 63.8 30.4 64.7 30.4 65.8 30.5 67 30.3 67.6 30.2 68.3 30.8 69 31.4 69.7 31.4 70.8 31.5 72 31.4 72.7 31.4 73.4 31.9 74.7 32.5 75.9 32.5 77.5 32.5 79 32.4 79.7 32.4 80.4 32.9 81.7 33.5 82.9 33.3 83.6 33.2 84.3 33.8 85 34.4 85.7 34.4 86.8 34.5 88 34.5 88.2 34.5 88.4 34.4 88.5 34.3 88.7 34.2 88.8 34.1 89 34 89.1 33.9 89.2 33.7 89.3 33.5 89.4 33.4 89.4 33.2 89.5 33 89.5 32.8 89.5 32.6 89.4 32.5 89.4 32.3 89.3 32.1 89.2 32 89.1 31.9 89 31.8 88.8 31.7 88.7 31.6 88.5 31.5 88.4 31.5 88.2 31.5 88 31.5 87 31.5 86 31.5 85 31.5 84 31.7 83.4 31.8 82.8 31.2 82 30.6 81.3 30.6 80.5 30.6 79.6 30.1 78.3 29.5 77.1 29.6 76.3 29.6 75.6 29.1 74.3 28.5 73.1 28.7 72.4 28.8 71.8 28.4 71.4 27.9 71.1 27.4 70.6 26.9 70.1 27.4 68.5 27.9 66.9 29.1 67.3 30.3 67.6 31.2 67.6 32 67.5 32.8 69.3 33.5 71 33.5 72 33.5 73 33.5 74 33.5 75 33.5 76 33.5 77 33.5 78 33.5 79 33.5 79.8 33.4 80.6 34 82.3 34.5 84 34.5 85 34.5 86 34.5 87 34.5 88 34.5 89 34.5 90 34.5 90.2 34.5 90.4 34.4 90.5 34.3 90.7 34.2 90.8 34.1 91 34 91.1 33.9 91.2 33.7 91.3 33.5 91.4 33.4 91.4 33.2 91.5 33 91.5 32.8 91.5 32.6 91.4 32.5 91.4 32.3 91.3 32.1 91.2 32 91.1 31.9 91 31.8 90.8 31.7 90.7 31.6 90.5 31.5 90.4 31.5 90.2 31.5 90 31.5 89 31.5 88 31.5 87 31.5 86 31.5 84.5 31.5 83 31.5 82 31.5 81 31.5 80.1 31.5 79.2 31 76.1 30.5 73 30.5 71.5 30.5 70 30.7 68.6 30.8 67.3 31.9 66.1 32.9 64.9 33.1 64.8 33.2 64.7 33.4 64.6 33.6 64.6 33.7 64.5 33.9 64.5 34.1 64.5 34.3 64.5 34.4 64.6 34.6 64.6 34.8 64.7 34.9 64.8 35.1 64.9 35.2 65.1 35.3 65.2 35.4 65.4 35.4 65.6 35.5 65.7 35.5 65.9 35.5 66.1 35.5 66.3 35.4 66.4 35.4 66.6 35.3 66.8 35.2 66.9 35.1 67.1 35.1 67.1 Z" fill="rgb(0, 0, 0, 1)"/>
  <path d="M 25 67.5 Q 25 67.5 27 67.5 28.9 67.5 29.6 67.1 30.3 66.7 31.3 66.2 32.3 65.7 32.6 65.3 33 64.9 34.1 64.3 35.3 63.7 36.4 63.2 37.4 62.6 38.5 62.6 39.7 62.6 40.3 62.1 41 61.5 41.2 61.5 41.4 61.5 41.5 61.6 41.7 61.7 41.8 61.8 42 61.9 42.1 62 42.2 62.1 42.3 62.3 42.4 62.5 42.4 62.6 42.5 62.8 42.5 63 42.5 63.2 42.4 63.4 42.4 63.5 42.3 63.7 42.2 63.9 42.1 64 42 64.1 41.8 64.2 41.7 64.3 41.5 64.4 41.4 64.5 41.2 64.5 41 64.5 40 64.5 39 64.5 38 64.5 37 64.5 36 64.5 35.1 64.5 34.3 64.9 33.6 65.4 32.3 65.4 31 65.5 30.2 65.4 29.3 65.4 29 65.8 28.8 66.2 27.5 66.3 26.3 66.4 26.2 66.7 26.1 67.1 25.6 67.6 25.1 68.1 24.6 68.4 24.2 68.8 24.3 69.4 24.5 70 24.4 71.2 24.4 72.3 23.7 73.2 23.1 74.1 22.6 74.6 22.1 75.1 21.6 75.4 21.2 75.8 21.3 76.4 21.5 77.1 20.9 78.3 20.4 79.6 20.4 81.3 20.5 83 20.4 84.2 20.4 85.3 19.8 86 19.2 86.8 19.3 87.2 19.4 87.7 19.8 88 20.2 88.3 20.3 89.6 20.5 91 20.5 92 20.5 93 20.5 95 20.5 97 20.5 97.2 20.4 97.5 20.3 97.7 20.2 97.9 20 98.1 19.8 98.2 19.6 98.3 19.4 98.4 19.2 98.5 18.9 98.5 18.7 98.4 18.4 98.4 18.2 98.3 18 98.1 17.9 98 17.7 97.8 17.6 97.5 17.5 97.3 17.5 97.1 17.5 96.8 17.6 96.6 17.6 96.4 17.8 96.2 17.9 96 18.1 95.8 18.3 95.7 18.5 95.6 18.8 95.5 19 95.5 19.2 95.5 19.5 95.6 19.7 95.7 19.9 95.8 20.1 96 20.2 96.2 20.4 96.4 20.4 96.6 20.5 96.8 20.5 97.1 20.5 97.3 20.4 97.5 20.3 97.8 20.1 98 20 98.1 19.8 98.3 19.6 98.4 19.3 98.4 19.1 98.5 18.8 98.5 18.6 98.4 18.4 98.3 18.2 98.2 18 98.1 17.8 97.9 17.7 97.7 17.6 97.5 17.5 97.2 17.5 97 17.5 97 17.5 97 17.5 95 17.5 93 17.5 92 17.5 91 17.7 90.4 17.8 89.8 17.2 89 16.6 88.3 16.7 86.8 16.8 85.3 17.2 85 17.6 84.7 17.6 83.8 17.5 83 17.6 80.7 17.6 78.4 18.1 77.7 18.5 76.9 18.7 75.6 18.8 74.3 19.4 73.6 19.9 72.9 20.4 72.4 20.9 71.9 21.3 71.8 21.6 71.7 21.6 70.8 21.5 70 21.7 68.6 21.8 67.3 22.4 66.6 22.9 65.9 23.4 65.4 23.9 64.9 24.8 64.3 25.7 63.6 26.5 63.7 27.3 63.8 28 63.2 28.7 62.6 29.8 62.6 31 62.5 31.7 62.6 32.4 62.6 33.7 62.1 34.9 61.5 36 61.5 37 61.5 38 61.5 39 61.5 40 61.5 41 61.5 41.2 61.5 41.4 61.5 41.5 61.6 41.7 61.7 41.8 61.8 42 61.9 42.1 62 42.2 62.1 42.3 62.3 42.4 62.5 42.4 62.6 42.5 62.8 42.5 63 42.5 63.2 42.4 63.4 42.4 63.5 42.3 63.7 42.2 63.9 42.1 64 42 64.1 41.8 64.2 41.7 64.3 41.5 64.4 41.4 64.5 41.2 64.5 41 64.5 40.7 64.9 40.3 65.4 39.5 65.4 38.6 65.4 37.6 65.9 36.7 66.3 35.9 66.7 35 67.1 34.4 67.7 33.7 68.3 32.7 68.8 31.7 69.3 30.4 69.9 29.1 70.5 27 70.5 25 70.5 24.8 70.5 24.6 70.5 24.5 70.4 24.3 70.3 24.2 70.2 24 70.1 23.9 70 23.8 69.9 23.7 69.7 23.6 69.5 23.6 69.4 23.5 69.2 23.5 69 23.5 68.8 23.6 68.6 23.6 68.5 23.7 68.3 23.8 68.1 23.9 68 24 67.9 24.2 67.8 24.3 67.7 24.5 67.6 24.6 67.5 24.8 67.5 25 67.5 25 67.5 Z" fill="rgb(0, 0, 0, 1)"/>
  <path d="M 19.6 94.5 Q 19.6 94.5 21.6 94.1 23.5 93.6 23.9 93.2 24.3 92.8 25.1 92.9 25.9 92.9 26.1 92.8 26.2 92.7 26.4 92.6 26.6 92.6 26.7 92.5 26.9 92.5 27.1 92.5 27.3 92.5 27.4 92.6 27.6 92.6 27.8 92.7 27.9 92.8 28.1 92.9 28.2 93.1 28.3 93.2 28.4 93.4 28.4 93.6 28.5 93.7 28.5 93.9 28.5 94.1 28.5 94.3 28.4 94.4 28.4 94.6 28.3 94.8 28.2 94.9 28.1 95.1 26.5 94.6 24.9 94.1 24.4 93.6 23.9 93.1 23.4 92.4 22.8 91.8 22.7 90.4 22.5 89 22.5 88 22.5 87 22.5 86 22.5 85 22.5 83.5 22.5 82 22.5 81 22.5 80 22.5 79 22.5 78 22.6 76.8 22.6 75.7 23.3 74.8 23.9 73.9 24.4 73.6 24.8 73.3 24.7 72.6 24.5 72 25.2 70 25.9 67.9 26.1 67.8 26.3 67.7 26.6 67.6 26.8 67.5 27 67.5 27.3 67.5 27.5 67.6 27.7 67.7 27.9 67.8 28.1 68 28.2 68.2 28.4 68.4 28.4 68.6 28.5 68.9 28.5 69.1 28.5 69.4 28.4 69.6 28.3 69.8 28.1 70 27.9 70.2 27.7 70.3 27.5 70.4 27.3 70.5 27 70.5 26.8 70.5 26.6 70.4 26.3 70.3 26.1 70.2 26 70 25.8 69.9 25.7 69.7 25.6 69.4 25.5 69.2 25.5 69 25.5 68.7 25.6 68.5 25.7 68.3 25.8 68.1 26 67.9 26.2 67.7 26.4 67.6 26.6 67.5 26.9 67.5 27.1 67.5 27.4 67.6 27.6 67.6 27.8 67.8 28 67.9 28.2 68.1 28.3 68.3 28.4 68.5 28.5 68.7 28.5 69 28.5 69.2 28.4 69.4 28.3 69.7 28.2 69.9 28.1 70.1 28.1 70.1 28.1 70.1 27.8 71 27.5 72 27.3 73.4 27.2 74.8 26.6 75.4 26.1 76.1 25.7 76.2 25.4 76.3 25.4 77.2 25.5 78 25.5 79 25.5 80 25.5 81 25.5 82 25.5 83.5 25.5 85 25.5 86 25.5 87 25.5 88 25.5 89 25.3 89.6 25.2 90.3 25.6 90.6 26.1 90.9 26.6 91.4 27.1 91.9 26.5 92.4 25.9 92.9 26.1 92.8 26.2 92.7 26.4 92.6 26.6 92.6 26.7 92.5 26.9 92.5 27.1 92.5 27.3 92.5 27.4 92.6 27.6 92.6 27.8 92.7 27.9 92.8 28.1 92.9 28.2 93.1 28.3 93.2 28.4 93.4 28.4 93.6 28.5 93.7 28.5 93.9 28.5 94.1 28.5 94.3 28.4 94.4 28.4 94.6 28.3 94.8 28.2 94.9 28.1 95.1 26.9 95.1 25.8 95.2 25.1 95.8 24.5 96.4 22.4 96.9 20.4 97.5 20.2 97.5 20 97.5 19.8 97.5 19.6 97.5 19.5 97.4 19.3 97.3 19.2 97.2 19 97.1 18.9 97 18.8 96.9 18.7 96.7 18.6 96.5 18.6 96.4 18.5 96.2 18.5 96 18.5 95.8 18.6 95.6 18.6 95.5 18.7 95.3 18.8 95.2 18.9 95 19 94.9 19.2 94.8 19.3 94.7 19.5 94.6 19.6 94.5 19.6 94.5 Z" fill="rgb(0, 0, 0, 1)"/>
  <path d="M 29 26.5 Q 29 26.5 31.2 26.6 33.3 26.6 34.2 27.3 35.1 27.9 35.6 28.4 36.1 28.9 36.6 29.4 37.1 29.9 37.6 30.4 38.1 30.9 38.6 31.4 39.1 32 39.7 33.1 40.3 34.3 40.8 35.4 41.4 36.4 41.4 37.5 41.4 38.7 41.8 39 42.2 39.3 42.3 40.5 42.4 41.7 42.8 42 43.2 42.3 43.3 43.5 43.4 44.7 43.8 45 44.2 45.3 44.3 46.6 44.5 48 44.5 49 44.5 50 44.4 51.2 44.4 52.3 43.7 53.2 43.1 54.1 42.6 54.6 42.1 55 41.7 55.9 41.3 56.7 40.7 57.4 40.1 58.1 39.6 58.6 39.1 59.1 38.6 59.6 38.1 60.1 37.6 60.6 37.1 61.1 35.6 62.6 34.1 64.1 33.9 64.2 33.7 64.3 33.4 64.4 33.2 64.5 33 64.5 32.7 64.5 32.5 64.4 32.3 64.3 32.1 64.2 31.9 64 31.8 63.8 31.6 63.6 31.6 63.4 31.5 63.1 31.5 62.9 31.5 62.6 31.6 62.4 31.7 62.2 31.9 62 32.1 61.8 32.3 61.7 32.5 61.6 32.7 61.5 33 61.5 33.2 61.5 33.4 61.6 33.7 61.7 33.9 61.8 34 62 34.2 62.1 34.3 62.3 34.4 62.6 34.5 62.8 34.5 63 34.5 63.3 34.4 63.5 34.3 63.7 34.2 63.9 34 64.1 33.8 64.3 33.6 64.4 33.4 64.5 33.1 64.5 32.9 64.5 32.6 64.4 32.4 64.4 32.2 64.2 32 64.1 31.8 63.9 31.7 63.7 31.6 63.5 31.5 63.3 31.5 63 31.5 62.8 31.6 62.6 31.7 62.3 31.8 62.1 31.9 61.9 31.9 61.9 31.9 61.9 33.4 60.4 34.9 58.9 35.4 58.4 35.9 57.9 36.4 57.4 36.9 56.9 37.4 56.4 37.9 55.9 38.3 55.6 38.7 55.3 39.3 54.1 39.9 53 40.4 52.4 40.9 51.9 41.3 51.8 41.6 51.7 41.6 50.8 41.5 50 41.5 49 41.5 48 41.7 47.4 41.8 46.8 41.2 46 40.6 45.3 40.7 44.5 40.8 43.8 40.2 43 39.6 42.3 39.7 41.5 39.8 40.8 39.2 40 38.6 39.3 38.6 38.5 38.6 37.6 38.2 36.6 37.7 35.7 37.3 34.9 36.9 34 36.4 33.6 35.9 33.1 35.4 32.6 34.9 32.1 34.4 31.6 33.9 31.1 33.4 30.6 32.9 30.1 32.8 29.7 32.7 29.4 30.8 29.4 29 29.5 28.8 29.5 28.6 29.5 28.5 29.4 28.3 29.3 28.2 29.2 28 29.1 27.9 29 27.8 28.9 27.7 28.7 27.6 28.5 27.6 28.4 27.5 28.2 27.5 28 27.5 27.8 27.6 27.6 27.6 27.5 27.7 27.3 27.8 27.1 27.9 27 28 26.9 28.2 26.8 28.3 26.7 28.5 26.6 28.6 26.5 28.8 26.5 29 26.5 29 26.5 Z" fill="rgb(0, 0, 0, 1)"/>
  <path d="M 11.4 38.5 Q 11.4 38.5 10.9 40 10.4 41.5 9.8 42.1 9.2 42.8 9.3 43.4 9.5 44 9.4 44.8 9.4 45.7 9.8 46 10.2 46.3 10.3 47.5 10.4 48.7 10.7 48.8 11.1 49 11.7 50.1 12.3 51.3 12.8 51.8 13.2 52.3 13.3 53.5 13.4 54.7 13.7 54.8 14.1 54.9 14.6 55.6 15.2 56.3 15.3 57.5 15.4 58.7 15.8 59 16.2 59.3 16.3 60.5 16.4 61.7 16.7 61.8 17.1 61.9 17.6 62.4 18.1 62.9 18.6 63.4 19.1 63.9 19.6 64.4 20.1 64.9 20.6 65.4 21.1 65.9 21.4 66.4 21.8 66.8 22.4 66.7 23 66.5 24 66.5 24.9 66.5 25.6 66.1 26.3 65.7 27.6 64.3 28.9 62.9 29.1 62.8 29.3 62.7 29.6 62.6 29.8 62.5 30 62.5 30.3 62.5 30.5 62.6 30.7 62.7 30.9 62.8 31.1 63 31.2 63.2 31.4 63.4 31.4 63.6 31.5 63.9 31.5 64.1 31.5 64.4 31.4 64.6 31.3 64.8 31.1 65 30.9 65.2 30.7 65.3 30.5 65.4 30.3 65.5 30 65.5 29.8 65.5 29.6 65.4 29.3 65.3 29.1 65.2 29 65 28.8 64.9 28.7 64.7 28.6 64.4 28.5 64.2 28.5 64 28.5 63.7 28.6 63.5 28.7 63.3 28.8 63.1 29 62.9 29.2 62.7 29.4 62.6 29.6 62.5 29.9 62.5 30.1 62.5 30.4 62.6 30.6 62.6 30.8 62.8 31 62.9 31.2 63.1 31.3 63.3 31.4 63.5 31.5 63.7 31.5 64 31.5 64.2 31.4 64.4 31.3 64.7 31.2 64.9 31.1 65.1 31.1 65.1 31.1 65.1 29.4 66.7 27.7 68.3 26.4 68.9 25.1 69.5 24 69.5 23 69.5 21.6 69.3 20.3 69.2 19.6 68.6 18.9 68.1 18.4 67.6 17.9 67.1 17.4 66.6 16.9 66.1 16.4 65.6 15.9 65.1 15.4 64.6 14.9 64.1 14.3 63.2 13.6 62.3 13.7 61.5 13.8 60.8 13.2 60 12.6 59.3 12.7 58.5 12.8 57.8 12.4 57.4 11.9 57.1 11.3 56.2 10.6 55.3 10.7 54.5 10.8 53.8 10.2 53.2 9.7 52.7 9.3 51.9 8.9 51 8.3 50.2 7.6 49.3 7.7 48.5 7.8 47.8 7.2 47 6.6 46.3 6.6 45.2 6.5 44 6.7 42.6 6.8 41.3 7.2 40.9 7.6 40.5 8.1 39 8.6 37.5 8.7 37.4 8.7 37.2 8.8 37.1 9 36.9 9.1 36.8 9.2 36.7 9.4 36.6 9.6 36.6 9.8 36.5 9.9 36.5 10.1 36.5 10.3 36.5 10.5 36.6 10.6 36.6 10.8 36.7 10.9 36.8 11.1 37 11.2 37.1 11.3 37.3 11.4 37.4 11.4 37.6 11.5 37.8 11.5 37.9 11.5 38.1 11.5 38.3 11.4 38.5 11.4 38.5 Z" fill="rgb(0, 0, 0, 1)"/>
</svg>