<?xml version="1.0" encoding="UTF-8"?>
<svg xmlns="http://www.w3.org/2000/svg" width="251" height="163" viewBox="0 0 251 163">
  <path d="M 53.4 27.5 Q 53.4 27.5 53.9 29 54.4 30.5 54.9 32 55.4 33.5 55.9 35 56.4 36.5 56.9 38.6 57.5 40.6 57.9 42.1 58.4 43.6 58.5 45.8 58.5 48 59 49.8 59.5 51.6 60 53.6 60.5 55.6 61 57.6 61.5 59.6 61.5 61.3 61.5 63 62 65.4 62.5 67.7 63 70.2 63.5 72.7 63.5 74.9 63.5 77 64 79.4 64.5 81.7 64.5 84.4 64.5 87 64.5 89 64.5 91 65 92.8 65.5 94.6 66 97.2 66.5 99.7 66.5 101.4 66.5 103 66.5 104.5 66.5 106 66.5 108 66.5 109.9 66.9 110.7 67.4 111.4 67.4 112.7 67.5 114 67.5 115 67.5 116 67.5 117 67.5 118 67.5 119 67.5 120 67.5 121.5 67.5 123 67.5 124 67.5 125 67.5 126.5 67.5 128 68 129.3 68.4 130.6 68.4 131.6 68.4 132.7 68.6 132.8 68.8 132.8 69.2 132.7 69.7 132.6 70 132.2 70.3 131.8 71.6 131.7 73 131.5 74 131.5 75 131.5 76.5 131.5 78 131.5 79.3 131 80.6 130.6 82.3 130.5 84 130.5 86.5 130.5 89 130.5 91 130.5 93 130.5 95 130.5 97 130.5 99.9 130 102.8 129.5 105.9 129.5 109 129.5 111.5 129.5 114 129.5 117 129.5 120 129.5 122.4 129 124.7 128.5 127.7 128 130.8 127.5 133.4 127.5 136 127.5 138.5 127.5 141 127.5 143.5 127.5 146 127.5 148.9 127 151.8 126.5 154.4 126.5 157 126.5 159.5 126.5 162 126.5 163.8 126 165.6 125.5 167.8 125.5 170 125.5 172 125.5 174 125.5 175.8 125 177.6 124.5 179.8 124.5 182 124.5 184 124.5 186 124.5 188.5 124.5 191 124.5 192.5 124.5 193.9 124.5 194.6 124.1 195.3 123.7 196.9 123.1 198.6 122.6 200.3 122.5 202 122.5 203 122.5 204 122.5 205 122.5 206 122.5 207 122.5 208 122.5 209 122.5 210 122.5 211 122.5 212 122.5 213 122.5 214 122.5 215 122.5 216 122.5 217 122.5 218 122.5 218.8 122.6 219.7 122.6 220 122.2 220.3 121.8 223.1 121.7 226 121.5 227 121.5 228 121.5 230.5 121.5 233 121.5 234 121.5 235 121.5 236.3 121 237.6 120.6 238.8 120.5 240 120.5 241 120.5 241.9 120.5 242.7 120.1 243.4 119.6 244.5 119.6 245.7 119.6 245.8 119.4 245.8 119.3 245.7 118.8 245.6 118.3 245.2 118 244.8 117.8 244.7 116.4 244.5 115 244.5 114 244.5 113.1 244.1 112.4 243.7 111.7 243.2 110.6 242.6 109.6 242.6 108.3 242.5 107 242 105.2 241.5 103.4 241.1 102.5 240.6 101.6 240.6 100.3 240.5 99 240 97.8 239.6 96.5 239.1 95.6 238.7 94.7 238.1 93.1 237.6 91.5 237.6 89.4 237.6 87.3 237.3 87.2 236.9 87 236.2 85.2 235.6 83.5 235.5 82.2 235.5 81 235 79.7 234.6 78.5 234.5 77.3 234.5 76.1 234.1 75.4 233.7 74.7 233.1 73.1 232.6 71.5 232.5 70.2 232.5 69 232 67.7 231.6 66.5 231.5 65.2 231.5 64 231.5 63 231.5 62.1 231.1 61.4 230.7 60.7 230.2 59.6 229.6 58.6 229.6 57.5 229.6 56.3 229.3 56.2 228.9 56 228.3 54.8 227.6 53.6 227.6 51.8 227.5 50 227 48.7 226.6 47.5 226.5 46.3 226.5 45.1 226.1 44.3 225.6 43.6 225.6 42.5 225.6 41.3 225.2 41 224.8 40.8 224.7 39.4 224.5 38 224.6 37.2 224.6 36.3 224.2 36 223.8 35.8 223.7 33.9 223.5 32 223.6 30.7 223.6 29.3 223.2 29 222.8 28.8 222.7 27.4 222.5 26.1 222.1 25.3 221.6 24.6 221.6 23.3 221.5 22 221.5 21 221.5 20.1 221.1 19.3 220.6 18.6 220.6 17.5 220.6 16.3 220.2 16 219.8 15.8 219.7 14.4 219.5 13 219.5 12 219.5 11 219.5 10 219.5 9 219.6 8.2 219.6 7.3 219.3 7.2 219 7.1 218.2 6.7 217.4 6.4 216.7 6.4 216 6.5 214.8 6.4 213.7 6.4 213 5.8 212.3 5.2 211.6 5.3 211 5.5 210 5.5 209 5.5 208 5.5 207 5.5 205 5.5 203 5.5 201 5.5 199 5.5 197.5 5.5 196 5.5 194 5.5 192 5.5 189.5 5.5 187 5.5 185 5.5 183 5.5 180.5 5.5 178 5.5 175.1 6 172.2 6.5 170.1 6.5 168 6.5 165.5 6.5 163 6.5 160.5 6.5 158 6.5 156.5 6.5 155 6.5 152.6 7 150.3 7.5 147.8 8 145.3 8.5 143.6 8.5 142 8.5 140.5 8.5 139 8.5 137.5 8.5 136 8.5 134.5 8.5 133 8.5 131.5 8.5 130 8.5 128 8.5 126 8.5 125 8.5 124 8.5 122 8.5 120 8.5 118.2 9 116.4 9.5 114.2 9.5 112 9.5 110.2 10 108.4 10.5 107.2 10.5 106 10.5 104.7 11 103.5 11.4 101.2 11.5 99 11.5 96.5 11.5 94 11.5 92.5 11.5 91 11.5 89.2 12 87.4 12.5 85.7 12.5 84 12.5 82 12.5 80 12.5 78.5 12.5 77 12.5 76 12.5 75 12.5 73.2 13 71.4 13.5 70.2 13.5 69.1 13.5 68.3 13.9 67.6 14.4 66.3 14.4 65 14.5 64.2 14.4 63.3 14.4 63 14.8 62.8 15.2 61.5 15.3 60.3 15.4 60 15.8 59.8 16.2 58.5 16.3 57.3 16.4 57.2 16.7 57 17.1 55.9 17.7 54.7 18.3 54.4 18.7 54.1 19.1 53.6 19.6 53.1 20.1 51.5 20.6 49.9 21.1 50.5 20.6 51.1 20.1 50.6 20.4 50.2 20.8 50.3 21.9 50.5 23 50.5 24.5 50.5 26 50.5 27 50.5 28 50.5 29 50.5 29.9 50.9 30.7 51.4 31.4 51.4 32.7 51.5 34 51.5 35 51.5 36 52 37.2 52.4 38.5 53.2 39.7 54.1 40.9 54.2 41.1 54.3 41.3 54.4 41.6 54.5 41.8 54.5 42 54.5 42.3 54.4 42.5 54.3 42.7 54.2 42.9 54 43.1 53.8 43.2 53.6 43.4 53.4 43.4 53.1 43.5 52.9 43.5 52.6 43.5 52.4 43.4 52.2 43.3 52 43.1 51.8 42.9 51.7 42.7 51.6 42.5 51.5 42.3 51.5 42 51.5 41.8 51.6 41.6 51.7 41.3 51.8 41.1 52 41 52.1 40.8 52.3 40.7 52.6 40.6 52.8 40.5 53 40.5 53.3 40.5 53.5 40.6 53.7 40.7 53.9 40.8 54.1 41 54.3 41.2 54.4 41.4 54.5 41.6 54.5 41.9 54.5 42.1 54.4 42.4 54.4 42.6 54.2 42.8 54.1 43 53.9 43.2 53.7 43.3 53.5 43.4 53.3 43.5 53 43.5 52.8 43.5 52.6 43.4 52.3 43.3 52.1 43.2 51.9 43.1 51.9 43.1 51.9 43.1 50.8 41.3 49.6 39.5 49 37.8 48.5 36 48.5 35 48.5 34 48.6 33.3 48.6 32.6 48.1 31.3 47.5 30.1 47.5 29 47.5 28 47.5 27 47.5 26 47.5 24.5 47.5 23 47.7 21.1 47.8 19.3 48.4 18.6 48.9 17.9 50.5 18.4 52.1 18.9 51.5 18.4 50.9 17.9 51.4 17.4 51.9 16.9 52.6 16.3 53.3 15.7 54.1 15.3 55 14.9 55.8 14.3 56.7 13.6 57.5 13.7 58.3 13.8 59 13.2 59.7 12.6 60.5 12.7 61.3 12.8 62 12.2 62.7 11.6 63.8 11.6 65 11.5 65.7 11.6 66.4 11.6 67.7 11.1 68.9 10.5 69.8 10.5 70.6 10.5 72.8 10 75 9.5 76 9.5 77 9.5 78.5 9.5 80 9.5 82 9.5 84 9.5 85.3 9.5 86.6 9.5 88.8 9 91 8.5 92.5 8.5 94 8.5 96.5 8.5 99 8.5 100.8 8.5 102.6 8.6 104.3 8 106 7.5 106.8 7.5 107.6 7.5 109.8 7 112 6.5 113.8 6.5 115.6 6.5 117.8 6 120 5.5 122 5.5 124 5.5 125 5.5 126 5.5 128 5.5 130 5.5 131.5 5.5 133 5.5 134.5 5.5 136 5.5 137.5 5.5 139 5.5 140.5 5.5 142 5.5 143.4 5.5 144.7 5.5 147.2 5 149.7 4.5 152.4 4 155 3.5 156.5 3.5 158 3.5 160.5 3.5 163 3.5 165.5 3.5 168 3.5 169.9 3.5 171.8 3.5 174.9 3 178 2.5 180.5 2.5 183 2.5 185 2.5 187 2.5 189.5 2.5 192 2.5 194 2.5 196 2.5 197.5 2.5 199 2.5 201 2.5 203 2.5 205 2.5 207 2.5 208 2.5 209 2.5 210 2.5 211 2.5 212.4 2.7 213.8 2.8 214 3.2 214.3 3.6 215.2 3.6 216 3.5 217.3 3.6 218.6 3.6 219.8 4.3 221 4.9 221.7 5.8 222.4 6.7 222.4 7.8 222.5 9 222.5 10 222.5 11 222.5 12 222.5 13 222.3 13.6 222.2 14.3 222.8 15 223.4 15.7 223.4 16.5 223.4 17.4 223.9 18.7 224.5 19.9 224.5 21 224.5 22 224.4 22.7 224.4 23.4 224.9 24.7 225.5 25.9 225.3 26.6 225.2 27.3 225.8 28 226.4 28.7 226.4 30.3 226.5 32 226.3 33.1 226.2 34.3 226.8 35 227.4 35.7 227.4 36.8 227.5 38 227.3 38.6 227.2 39.3 227.8 40 228.4 40.7 228.4 41.5 228.4 42.4 228.9 43.7 229.5 44.9 229.5 45.7 229.4 46.6 230 48.3 230.5 50 230.4 51.2 230.4 52.4 230.7 53.2 231.1 54 231.7 54.8 232.4 55.7 232.4 56.5 232.4 57.4 232.9 58.4 233.3 59.3 233.9 60.6 234.5 61.9 234.5 63 234.5 64 234.5 64.8 234.4 65.6 235 67.3 235.5 69 235.5 69.8 235.4 70.6 235.9 71.9 236.3 73.3 236.9 74.6 237.5 75.9 237.5 76.7 237.4 77.6 238 79.3 238.5 81 238.5 81.8 238.4 82.6 238.8 83.8 239.1 85 239.7 85.8 240.4 86.7 240.4 88.6 240.4 90.6 240.9 91.9 241.3 93.3 241.9 94.4 242.4 95.5 243 97.2 243.5 99 243.4 99.7 243.4 100.4 243.9 101.5 244.5 102.6 245 104.8 245.5 107 245.4 107.7 245.4 108.4 245.9 109.4 246.3 110.3 246.9 111.6 247.5 112.9 247.5 114 247.5 115 247.3 115.6 247.2 116.3 247.8 117 248.4 117.7 248.3 119.2 248.2 120.8 247.3 121.6 246.3 122.4 245.5 122.4 244.6 122.4 243.3 122.9 242.1 123.5 241 123.5 240 123.5 239.2 123.5 238.5 123.4 236.7 124 235 124.5 234 124.5 233 124.5 230.5 124.5 228 124.5 227 124.5 226 124.5 223.9 124.3 221.8 124.2 221 124.8 220.3 125.4 219.2 125.4 218 125.5 217 125.5 216 125.5 215 125.5 214 125.5 213 125.5 212 125.5 211 125.5 210 125.5 209 125.5 208 125.5 207 125.5 206 125.5 205 125.5 204 125.5 203 125.5 202 125.5 200.7 125.5 199.5 125.4 198.1 125.9 196.7 126.3 195.4 126.9 194.1 127.5 192.5 127.5 191 127.5 188.5 127.5 186 127.5 184 127.5 182 127.5 180.2 127.5 178.4 127.5 176.2 128 174 128.5 172 128.5 170 128.5 168.2 128.5 166.4 128.5 164.2 129 162 129.5 159.5 129.5 157 129.5 154.6 129.5 152.2 129.5 149.1 130 146 130.5 143.5 130.5 141 130.5 138.5 130.5 136 130.5 133.6 130.5 131.2 130.5 128.3 131 125.3 131.5 122.6 132 120 132.5 117 132.5 114 132.5 111.5 132.5 109 132.5 106.1 132.5 103.2 132.5 100.1 133 97 133.5 95 133.5 93 133.5 91 133.5 89 133.5 86.5 133.5 84 133.5 82.7 133.5 81.5 133.4 79.7 134 78 134.5 76.5 134.5 75 134.5 74 134.5 73 134.5 72.4 134.3 71.8 134.2 71 134.8 70.3 135.4 68.8 135.3 67.3 135.2 66.4 134.3 65.6 133.3 65.6 132.4 65.6 131.5 65 129.7 64.5 128 64.5 126.5 64.5 125 64.5 124 64.5 123 64.5 121.5 64.5 120 64.5 119 64.5 118 64.5 117 64.5 116 64.5 115 64.5 114 64.6 113.3 64.6 112.6 64.1 111.3 63.5 110.1 63.5 108 63.5 106 63.5 104.5 63.5 103 63.5 101.6 63.5 100.3 63 97.8 62.5 95.4 62 93.2 61.5 91 61.5 89 61.5 87 61.5 84.6 61.5 82.3 61 79.6 60.5 77 60.5 75.1 60.5 73.3 60 70.8 59.5 68.3 59 65.6 58.5 63 58.5 61.7 58.5 60.4 58 58.4 57.5 56.4 57 54.4 56.5 52.4 56 50.2 55.5 48 55.5 46.2 55.6 44.5 55.1 42.9 54.5 41.4 54.1 39.4 53.6 37.5 53.1 36 52.6 34.5 52.1 33 51.6 31.5 51.1 30 50.6 28.5 50.5 28.3 50.5 28.1 50.5 27.9 50.5 27.8 50.6 27.6 50.6 27.4 50.7 27.3 50.8 27.1 50.9 27 51.1 26.8 51.2 26.7 51.4 26.6 51.5 26.6 51.7 26.5 51.9 26.5 52.1 26.5 52.2 26.5 52.4 26.6 52.6 26.6 52.8 26.7 52.9 26.8 53 26.9 53.2 27.1 53.3 27.2 53.3 27.4 53.4 27.5 53.4 27.5 Z" fill="rgb(0, 0, 0, 1)"/>
  <path d="M 95.5 86 Q 95.5 86 95.5 84 95.5 81.9 96.1 80.6 96.7 79.3 97.2 78.4 97.6 77.4 97.6 76.5 97.6 75.7 98.3 74.8 98.9 73.9 99.4 73.4 99.9 72.9 100.6 72.4 101.3 71.8 102.6 71.7 104 71.5 105 71.5 106 71.5 107 71.5 108 71.5 109 71.5 110.1 71.5 111.3 72.1 112.6 72.6 113.8 72.6 115.1 72.5 116.4 73.1 117.7 73.7 118.2 74.2 118.8 74.8 119.4 74.7 120 74.5 121.5 74.5 123 74.5 124 74.5 125 74.5 126 74.5 126.9 74.5 127.6 74.1 128.3 73.7 128.6 73.3 128.9 72.9 129.4 72.4 129.9 72 130.3 71.1 130.7 70.3 131.2 69.8 131.8 69.3 131.7 68.5 131.6 67.7 132.3 66.8 132.9 66 133.3 65.1 133.7 64.3 134.3 63.6 134.9 62.9 135.4 62.6 135.8 62.3 136.4 60.9 137 59.5 138 59.5 139 59.5 141 59.5 143 59.5 143.2 59.5 143.5 59.6 143.7 59.7 143.9 59.8 144.1 60 144.2 60.2 144.3 60.4 144.4 60.6 144.5 60.8 144.5 61.1 144.4 61.3 144.4 61.6 144.3 61.8 144.1 62 144 62.1 143.8 62.3 143.5 62.4 143.3 62.5 143.1 62.5 142.8 62.5 142.6 62.4 142.4 62.4 142.2 62.2 142 62.1 141.8 61.9 141.7 61.7 141.6 61.5 141.5 61.2 141.5 61 141.5 60.8 141.6 60.5 141.7 60.3 141.8 60.1 142 59.9 142.2 59.8 142.4 59.6 142.6 59.6 142.8 59.5 143.1 59.5 143.3 59.5 143.5 59.6 143.8 59.7 144 59.9 144.1 60 144.3 60.2 144.4 60.4 144.4 60.7 144.5 60.9 144.5 61.2 144.4 61.4 144.3 61.6 144.2 61.8 144.1 62 143.9 62.2 143.7 62.3 143.5 62.4 143.2 62.5 143 62.5 143 62.5 143 62.5 141 62.5 139 62.5 138 62.5 137 62.5 137.6 63.1 138.2 63.8 137.6 64.4 137.1 65.1 136.7 65.4 136.3 65.7 135.7 66.9 135.1 68 134.7 68.2 134.4 68.3 134.3 69.5 134.2 70.8 133.8 71.2 133.3 71.7 132.7 72.9 132.1 74 131.6 74.6 131.1 75.1 130.4 75.7 129.7 76.3 128.4 76.9 127.1 77.5 126 77.5 125 77.5 124 77.5 123 77.5 121.5 77.5 120 77.5 118.6 77.3 117.3 77.2 116.8 76.8 116.3 76.3 115.6 75.9 114.9 75.5 113.2 75.4 111.4 75.4 110.7 74.9 109.9 74.5 109 74.5 108 74.5 107 74.5 106 74.5 105 74.5 104 74.5 103.4 74.3 102.8 74.2 102.4 74.6 102.1 75.1 101.6 75.6 101.1 76.1 100.7 76.2 100.4 76.3 100.4 77.5 100.4 78.6 99.9 79.6 99.3 80.7 98.9 81.4 98.5 82.1 98.5 84 98.5 86 98.5 86.2 98.5 86.4 98.4 86.5 98.3 86.7 98.2 86.8 98.1 87 98 87.1 97.9 87.2 97.7 87.3 97.5 87.4 97.4 87.4 97.2 87.5 97 87.5 96.8 87.5 96.6 87.4 96.5 87.4 96.3 87.3 96.1 87.2 96 87.1 95.9 87 95.8 86.8 95.7 86.7 95.6 86.5 95.5 86.4 95.5 86.2 95.5 86 95.5 86 Z" fill="rgb(0, 0, 0, 1)"/>
  <path d="M 44.5 118.6 Q 44.5 118.6 46 119.1 47.5 119.6 49 120.1 50.5 120.6 51.1 121.2 51.8 121.8 52.9 121.7 54 121.5 56 121.5 58 121.5 59 121.5 60 121.5 62 121.5 64 121.5 66 121.5 68 121.5 69 121.5 69.9 121.5 70.7 121.1 71.4 120.6 72.7 120.6 74 120.5 75.2 120 76.5 119.6 77.5 119.1 78.4 118.6 79.5 118.6 80.7 118.6 81.3 117.8 81.9 116.9 82.4 116.4 82.9 115.9 83.4 115.4 83.9 114.9 84.4 114.4 84.9 113.9 85.4 113.4 85.9 112.9 86.9 111.9 87.9 110.9 88.4 110.4 88.9 109.9 89.4 109.4 89.9 108.9 90.4 108.4 90.9 107.9 91.9 106.9 92.9 106 93.3 105.1 93.7 104.3 94.3 103.6 94.9 102.9 95.4 102.6 95.8 102.3 95.7 101.5 95.6 100.7 96.2 100 96.8 99.3 96.7 97.6 96.5 96 96.5 95.8 96.6 95.5 96.7 95.3 96.8 95.1 97 94.9 97.2 94.8 97.4 94.7 97.6 94.6 97.8 94.5 98.1 94.5 98.3 94.6 98.6 94.6 98.8 94.7 99 94.9 99.1 95 99.3 95.2 99.4 95.5 99.5 95.7 99.5 95.9 99.5 96.2 99.4 96.4 99.4 96.6 99.2 96.8 99.1 97 98.9 97.2 98.7 97.3 98.5 97.4 98.2 97.5 98 97.5 97.8 97.5 97.5 97.4 97.3 97.3 97.1 97.2 96.9 97 96.8 96.8 96.6 96.6 96.6 96.4 96.5 96.2 96.5 95.9 96.5 95.7 96.6 95.5 96.7 95.2 96.9 95 97 94.9 97.2 94.7 97.4 94.6 97.7 94.6 97.9 94.5 98.2 94.5 98.4 94.6 98.6 94.7 98.8 94.8 99 94.9 99.2 95.1 99.3 95.3 99.4 95.5 99.5 95.8 99.5 96 99.5 96 99.5 96 99.3 98.4 99.2 100.8 98.8 101 98.4 101.3 98.3 102.5 98.2 103.8 97.6 104.4 97.1 105.1 96.7 105.4 96.3 105.7 95.7 106.9 95.1 108 94.1 109.1 93.1 110.1 92.6 110.6 92.1 111.1 91.6 111.6 91.1 112.1 90.6 112.6 90.1 113.1 89.1 114.1 88.1 115.1 87.6 115.6 87.1 116.1 86.6 116.6 86.1 117.1 85.6 117.6 85.1 118.1 84.6 118.6 84.1 119.1 82.7 120.2 81.3 121.4 80.5 121.4 79.6 121.4 78.5 121.9 77.5 122.4 75.8 123 74 123.5 73.3 123.4 72.6 123.4 71.3 123.9 70.1 124.5 69 124.5 68 124.5 66 124.5 64 124.5 62 124.5 60 124.5 59 124.5 58 124.5 56 124.5 54 124.5 52.1 124.3 50.3 124.2 49.9 123.8 49.5 123.4 48 122.9 46.5 122.4 45 121.9 43.5 121.4 43.4 121.3 43.2 121.3 43.1 121.2 42.9 121 42.8 120.9 42.7 120.8 42.6 120.6 42.6 120.4 42.5 120.2 42.5 120.1 42.5 119.9 42.5 119.7 42.6 119.5 42.6 119.4 42.7 119.2 42.8 119.1 43 118.9 43.1 118.8 43.3 118.7 43.4 118.6 43.6 118.6 43.8 118.5 43.9 118.5 44.1 118.5 44.3 118.5 44.5 118.6 44.5 118.6 Z" fill="rgb(0, 0, 0, 1)"/>
  <path d="M 96.4 88.5 Q 96.4 88.5 95.9 90 95.4 91.5 95.3 91.6 95.3 91.8 95.2 91.9 95 92.1 94.9 92.2 94.8 92.3 94.6 92.4 94.4 92.4 94.2 92.5 94.1 92.5 93.9 92.5 93.7 92.5 93.5 92.4 93.4 92.4 93.2 92.3 93.1 92.2 92.9 92 92.8 91.9 92.7 91.7 92.6 91.6 92.6 91.4 92.5 91.2 92.5 91.1 92.5 90.9 92.5 90.7 92.6 90.5 93.5 90.8 94.5 91 95.3 89.3 96 87.5 96.2 87.5 96.4 87.5 96.5 87.6 96.7 87.7 96.8 87.8 97 87.9 97.1 88 97.2 88.1 97.3 88.3 97.4 88.5 97.4 88.6 97.5 88.8 97.5 89 97.5 89.2 97.4 89.4 97.4 89.5 97.3 89.7 97.2 89.9 97.1 90 97 90.1 96.8 90.2 96.7 90.3 96.5 90.4 96.4 90.5 96.2 90.5 96 90.5 96.7 90.7 97.5 91 97.4 91.8 97.4 92.7 97.9 93.3 98.5 94 98.5 94.2 98.5 94.4 98.4 94.5 98.3 94.7 98.2 94.8 98.1 95 98 95.1 97.9 95.2 97.7 95.3 97.5 95.4 97.4 95.4 97.2 95.5 97 95.5 96.8 95.5 96.6 95.4 96.5 95.4 96.3 95.3 96.1 95.2 96 95.1 95.9 95 95.8 94.8 95.7 94.7 95.6 94.5 95.5 94.4 95.5 94.2 95.5 94 95.7 92.6 96 91.3 97.7 90.6 99.5 89.9 100.4 90.6 101.2 91.3 101.1 92.1 101.1 92.9 101.2 93.1 101.3 93.2 101.4 93.4 101.4 93.6 101.5 93.7 101.5 93.9 101.5 94.1 101.5 94.3 101.4 94.4 101.4 94.6 101.3 94.8 101.2 94.9 101.1 95.1 100.9 95.2 100.8 95.3 100.6 95.4 100.4 95.4 100.3 95.5 100.1 95.5 99.9 95.5 99.7 95.5 99.6 95.4 99.4 95.4 99.2 95.3 99.1 95.2 98.9 95.1 99.4 93.7 99.8 92.3 99.7 91.8 99.6 91.3 99.4 91.3 99.3 91.2 98.8 91.3 98.3 91.4 97.7 91.9 97 92.5 96.8 92.5 96.6 92.5 96.5 92.4 96.3 92.3 96.2 92.2 96 92.1 95.9 92 95.8 91.9 95.7 91.7 95.6 91.5 95.6 91.4 95.5 91.2 95.5 91 95.5 90.8 95.6 90.6 95.6 90.5 95.7 90.3 95.8 90.1 95.9 90 96 89.9 96.2 89.8 96.3 89.7 96.5 89.6 96.6 89.5 96.8 89.5 97 89.5 96.3 89.2 95.5 88.9 96 88 96.5 87 96.5 86.8 96.5 86.6 96.6 86.5 96.7 86.3 96.8 86.2 96.9 86 97 85.9 97.1 85.8 97.3 85.7 97.5 85.6 97.6 85.6 97.8 85.5 98 85.5 98.2 85.5 98.4 85.6 98.5 85.6 98.7 85.7 98.9 85.8 99 85.9 99.1 86 99.2 86.2 99.3 86.3 99.4 86.5 99.5 86.6 99.5 86.8 99.5 87 98.1 87.5 96.7 88 96.6 88.8 96.4 89.6 96.4 90.1 96.4 90.7 96.9 91.3 97.5 92 97.5 92.2 97.5 92.4 97.4 92.5 97.3 92.7 97.2 92.8 97.1 93 97 93.1 96.9 93.2 96.7 93.3 96.5 93.4 96.4 93.4 96.2 93.5 96 93.5 95.8 93.5 95.6 93.4 95.5 93.4 95.3 93.3 95.1 93.2 95 93.1 94.9 93 94.8 92.8 94.7 92.7 94.6 92.5 94.5 92.4 94.5 92.2 94.5 92 94.6 90.8 94.6 89.7 95.3 88.8 95.9 87.9 96.6 87.4 97.3 86.8 100.2 87.9 103.1 88.9 103.2 89.1 103.3 89.3 103.4 89.6 103.5 89.8 103.5 90 103.5 90.3 103.4 90.5 103.3 90.7 103.2 90.9 103 91.1 102.8 91.2 102.6 91.4 102.4 91.4 102.1 91.5 101.9 91.5 101.6 91.5 101.4 91.4 101.2 91.3 101 91.1 100.8 90.9 100.7 90.7 100.6 90.5 100.5 90.3 100.5 90 100.5 89.8 100.6 89.6 100.7 89.3 100.8 89.1 101 89 101.1 88.8 101.3 88.7 101.6 88.6 101.8 88.5 102 88.5 102.3 88.5 102.5 88.6 102.7 88.7 102.9 88.8 103.1 89 103.3 89.2 103.4 89.4 103.5 89.6 103.5 89.9 103.5 90.1 103.4 90.4 103.4 90.6 103.2 90.8 103.1 91 102.9 91.2 102.7 91.3 102.5 91.4 102.3 91.5 102 91.5 101.8 91.5 101.6 91.4 101.3 91.3 101.1 91.2 100.9 91.1 100.9 91.1 100.9 91.1 99.8 90.1 98.8 89.2 98.4 89.6 98.1 90.1 97.7 90.2 97.4 90.3 97.4 91.2 97.5 92 97.5 92.2 97.5 92.4 97.4 92.5 97.3 92.7 97.2 92.8 97.1 93 97 93.1 96.9 93.2 96.7 93.3 96.5 93.4 96.4 93.4 96.2 93.5 96 93.5 95.8 93.5 95.6 93.4 95.5 93.4 95.3 93.3 95.1 93.2 95 93.1 94.9 93 94.8 92.8 94.7 92.7 94.6 92.5 94.5 92.4 94.5 92.2 94.5 92 94.1 91.7 93.6 91.3 93.6 89.9 93.6 88.4 94.5 87.2 95.3 86 95.9 86.5 96.5 87 96.5 86.8 96.5 86.6 96.6 86.5 96.7 86.3 96.8 86.2 96.9 86 97 85.9 97.1 85.8 97.3 85.7 97.5 85.6 97.6 85.6 97.8 85.5 98 85.5 98.2 85.5 98.4 85.6 98.5 85.6 98.7 85.7 98.9 85.8 99 85.9 99.1 86 99.2 86.2 99.3 86.3 99.4 86.5 99.5 86.6 99.5 86.8 99.5 87 99 88 98.5 89.1 97.7 90.8 97 92.5 96.8 92.5 96.6 92.5 96.5 92.4 96.3 92.3 96.2 92.2 96 92.1 95.9 92 95.8 91.9 95.7 91.7 95.6 91.5 95.6 91.4 95.5 91.2 95.5 91 95.5 90.8 95.6 90.6 95.6 90.5 95.7 90.3 95.8 90.1 95.9 90 96 89.9 96.2 89.8 96.3 89.7 96.5 89.6 96.6 89.5 96.8 89.5 97 89.5 97.3 89.1 97.7 88.6 99.2 88.7 100.8 88.8 101.6 89.8 102.4 90.7 102.3 92.2 102.2 93.8 101.6 93.3 101.1 92.9 101.2 93.1 101.3 93.2 101.4 93.4 101.4 93.6 101.5 93.7 101.5 93.9 101.5 94.1 101.5 94.3 101.4 94.4 101.4 94.6 101.3 94.8 101.2 94.9 101.1 95.1 100.9 95.2 100.8 95.3 100.6 95.4 100.4 95.4 100.3 95.5 100.1 95.5 99.9 95.5 99.7 95.5 99.6 95.4 99.4 95.4 99.2 95.3 99.1 95.2 98.9 95.1 98.9 93.9 98.8 92.8 98.6 92.4 98.5 92.1 98.3 92.4 98 92.7 98.3 93.4 98.5 94 98.5 94.2 98.5 94.4 98.4 94.5 98.3 94.7 98.2 94.8 98.1 95 98 95.1 97.9 95.2 97.7 95.3 97.5 95.4 97.4 95.4 97.2 95.5 97 95.5 96.8 95.5 96.6 95.4 96.5 95.4 96.3 95.3 96.1 95.2 96 95.1 95.9 95 95.8 94.8 95.7 94.7 95.6 94.5 95.5 94.4 95.5 94.2 95.5 94 95.1 93.7 94.6 93.3 94.6 92.2 94.5 91 95.2 89.3 96 87.5 96.2 87.5 96.4 87.5 96.5 87.6 96.7 87.7 96.8 87.8 97 87.9 97.1 88 97.2 88.1 97.3 88.3 97.4 88.5 97.4 88.6 97.5 88.8 97.5 89 97.5 89.2 97.4 89.4 97.4 89.5 97.3 89.7 97.2 89.9 97.1 90 97 90.1 96.8 90.2 96.7 90.3 96.5 90.4 96.4 90.5 96.2 90.5 96 90.5 96.8 90.8 97.5 91 96.5 91.2 95.4 91.5 95.3 91.6 95.3 91.8 95.2 91.9 95 92.1 94.9 92.2 94.8 92.3 94.6 92.4 94.4 92.4 94.2 92.5 94.1 92.5 93.9 92.5 93.7 92.5 93.5 92.4 93.4 92.4 93.2 92.3 93.1 92.2 92.9 92 92.8 91.9 92.7 91.7 92.6 91.6 92.6 91.4 92.5 91.2 92.5 91.1 92.5 90.9 92.5 90.7 92.6 90.5 93.1 89 93.6 87.5 93.7 87.4 93.7 87.2 93.8 87.1 94 86.9 94.1 86.8 94.2 86.7 94.4 86.6 94.6 86.6 94.8 86.5 94.9 86.5 95.1 86.5 95.3 86.5 95.5 86.6 95.6 86.6 95.8 86.7 95.9 86.8 96.1 87 96.2 87.1 96.3 87.3 96.4 87.4 96.4 87.6 96.5 87.8 96.5 87.9 96.5 88.1 96.5 88.3 96.4 88.5 96.4 88.5 Z" fill="rgb(0, 0, 0, 1)"/>
  <path d="M 40.5 120.4 Q 40.5 120.4 40 118.3 39.5 116.2 40.1 114.4 40.6 112.5 41.1 111.4 41.7 110.3 42.3 109.6 43 108.9 44.1 108.4 45.2 107.8 45.4 107.1 45.7 106.3 46.8 105.1 47.9 104 48.4 103.1 48.8 102.2 50.1 101.4 51.3 100.7 53.3 99.7 55.3 98.7 55.6 98.6 55.8 98.5 56 98.5 56.3 98.5 56.5 98.6 56.7 98.7 56.9 98.8 57.1 99 57.2 99.2 57.4 99.4 57.4 99.6 57.5 99.9 57.5 100.1 57.5 100.4 57.4 100.6 57.3 100.8 57.1 101 56.9 101.2 56.7 101.3 56.5 101.4 56.3 101.5 56 101.5 55.8 101.5 55.6 101.4 55.3 101.3 55.1 101.2 55 101 54.8 100.9 54.7 100.7 54.6 100.4 54.5 100.2 54.5 100 54.5 99.7 54.6 99.5 54.7 99.3 54.8 99.1 55 98.9 55.2 98.7 55.4 98.6 55.6 98.5 55.9 98.5 56.1 98.5 56.4 98.6 56.6 98.6 56.8 98.8 57 98.9 57.2 99.1 57.3 99.3 57.4 99.5 57.5 99.7 57.5 100 57.5 100.2 57.4 100.4 57.3 100.7 57.2 100.9 57.1 101.1 56.9 101.2 56.7 101.3 56.7 101.3 56.7 101.3 54.7 102.3 52.7 103.3 51.9 103.6 51.2 103.8 50.6 104.9 50.1 106 49.2 106.9 48.3 107.7 47.6 108.9 46.8 110.2 45.9 110.6 45 111.1 44.7 111.4 44.3 111.7 43.9 112.6 43.4 113.5 42.9 114.6 42.5 115.8 43 117.7 43.5 119.6 43.5 119.8 43.5 120 43.5 120.2 43.5 120.4 43.4 120.5 43.3 120.7 43.2 120.8 43.1 121 43 121.1 42.9 121.2 42.7 121.3 42.5 121.4 42.4 121.4 42.2 121.5 42 121.5 41.8 121.5 41.6 121.4 41.5 121.4 41.3 121.3 41.2 121.2 41 121.1 40.9 121 40.8 120.8 40.7 120.7 40.6 120.5 40.5 120.4 40.5 120.4 Z" fill="rgb(0, 0, 0, 1)"/>
  <path d="M 40.5 121.4 Q 40.5 121.4 39 120.9 37.6 120.4 36.9 120.4 36.3 120.4 36 120.8 35.8 121.2 34.5 121.3 33.3 121.4 33 121.8 32.8 122.2 31.5 122.3 30.3 122.4 30.2 122.7 30.1 123.1 29.4 123.6 28.8 124.2 27.4 124.3 26 124.5 24.8 124.4 23.7 124.4 22.8 123.7 21.9 123.1 21.4 122.6 20.9 122.1 20.4 121.6 19.9 121.1 19.4 120.6 18.9 120.1 18.4 119.6 17.9 119.1 17.4 118.6 16.9 118 16.3 116.9 15.7 115.7 15.3 115.4 14.9 115 14.3 113.8 13.6 112.6 13.6 111.5 13.6 110.3 12.8 109.7 11.9 109 11.3 107.8 10.6 106.6 10.6 105.3 10.5 104 10.5 103 10.5 102 10.6 101.2 10.6 100.3 10.2 100 9.8 99.8 9.7 98.4 9.5 97 9.6 95.8 9.6 94.7 10.2 94 10.8 93.3 10.7 92.5 10.6 91.7 11.3 90.8 12 89.9 13.1 89.3 14.3 88.7 14.6 88.3 15 87.9 16.1 87.3 17.3 86.7 17.6 86.3 18 85.9 19.2 85.3 20.4 84.6 21.7 84.6 22.9 84.5 23.7 84.1 24.4 83.6 25.7 83.6 27 83.5 28 83.5 29 83.5 30.2 83.6 31.3 83.6 32 84.2 32.8 84.8 33.5 84.7 34.3 84.6 35.2 85.3 36.1 85.9 36.6 86.4 37.1 86.9 37.6 87.4 38.1 87.9 38.6 88.4 39.1 88.9 39.6 89.4 40.1 89.9 40.6 90.4 41.1 90.9 41.6 91.6 42.2 92.3 42.3 93.6 42.5 95 42.5 96 42.5 97 42.5 98 42.5 99 42.5 100 42.5 101 42.5 102 42.5 103 42.5 104 42.5 105 42.5 106 42.5 107 42.4 108.2 42.4 109.3 41.7 110.2 41.1 111.1 40.6 111.4 40.2 111.8 40.3 112.5 40.4 113.3 39.7 114.2 39.1 115.1 38.6 115.6 38.1 116.1 36.6 117.6 35.1 119.1 34.9 119.2 34.7 119.3 34.4 119.4 34.2 119.5 34 119.5 33.7 119.5 33.5 119.4 33.3 119.3 33.1 119.2 32.9 119 32.8 118.8 32.6 118.6 32.6 118.4 32.5 118.1 32.5 117.9 32.5 117.6 32.6 117.4 32.7 117.2 32.9 117 33.1 116.8 33.3 116.7 33.5 116.6 33.7 116.5 34 116.5 34.2 116.5 34.4 116.6 34.7 116.7 34.9 116.8 35 117 35.2 117.1 35.3 117.3 35.4 117.6 35.5 117.8 35.5 118 35.5 118.3 35.4 118.5 35.3 118.7 35.2 118.9 35 119.1 34.8 119.3 34.6 119.4 34.4 119.5 34.1 119.5 33.9 119.5 33.6 119.4 33.4 119.4 33.2 119.2 33 119.1 32.8 118.9 32.7 118.7 32.6 118.5 32.5 118.3 32.5 118 32.5 117.8 32.6 117.6 32.7 117.3 32.8 117.1 32.9 116.9 32.9 116.9 32.9 116.9 34.4 115.4 35.9 113.9 36.4 113.4 36.9 112.9 37.3 112.8 37.6 112.7 37.7 111.5 37.8 110.3 38.4 109.6 38.9 108.9 39.3 108.8 39.6 108.7 39.6 107.8 39.5 107 39.5 106 39.5 105 39.5 104 39.5 103 39.5 102 39.5 101 39.5 100 39.5 99 39.5 98 39.5 97 39.5 96 39.5 95 39.7 94.4 39.8 93.8 39.4 93.4 38.9 93.1 38.4 92.6 37.9 92.1 37.4 91.6 36.9 91.1 36.4 90.6 35.9 90.1 35.4 89.6 34.9 89.1 34.4 88.6 33.9 88.1 33.8 87.7 33.7 87.4 32.5 87.3 31.3 87.2 31 86.8 30.7 86.4 29.8 86.4 29 86.5 28 86.5 27 86.5 26.3 86.4 25.6 86.4 24.3 86.9 23.1 87.5 22.3 87.4 21.6 87.4 20.8 87.7 20 88.1 19.4 88.7 18.7 89.3 17.9 89.7 17 90.1 16.4 90.7 15.7 91.3 14.9 91.7 14 92.1 13.7 92.2 13.4 92.3 13.3 93.5 13.2 94.8 12.8 95 12.4 95.3 12.4 96.2 12.5 97 12.3 97.6 12.2 98.3 12.8 99 13.4 99.7 13.4 100.8 13.5 102 13.5 103 13.5 104 13.4 104.7 13.4 105.4 13.7 106.2 14.1 107 15.2 108.3 16.4 109.7 16.4 110.5 16.4 111.4 16.7 112.2 17.1 113 17.7 113.6 18.3 114.3 18.7 115.1 19.1 116 19.6 116.4 20.1 116.9 20.6 117.4 21.1 117.9 21.6 118.4 22.1 118.9 22.6 119.4 23.1 119.9 23.6 120.4 24.1 120.9 24.2 121.3 24.3 121.6 25.2 121.6 26 121.5 26.6 121.7 27.3 121.8 27.6 121.4 27.9 120.9 28.8 120.3 29.7 119.6 30.5 119.7 31.3 119.8 32 119.2 32.7 118.6 33.5 118.7 34.3 118.8 35 118.2 35.7 117.6 37.1 117.6 38.5 117.6 40 118.1 41.5 118.6 41.6 118.7 41.8 118.7 41.9 118.8 42.1 119 42.2 119.1 42.3 119.2 42.4 119.4 42.4 119.6 42.5 119.8 42.5 119.9 42.5 120.1 42.5 120.3 42.4 120.5 42.4 120.6 42.3 120.8 42.2 120.9 42 121.1 41.9 121.2 41.7 121.3 41.6 121.4 41.4 121.4 41.2 121.5 41.1 121.5 40.9 121.5 40.7 121.5 40.5 121.4 40.5 121.4 Z" fill="rgb(0, 0, 0, 1)"/>
  <path d="M 36.1 115.9 Q 36.1 115.9 37.1 116.9 38.1 118 39.2 120.1 40.3 122.3 40.9 124.5 41.5 126.6 41.9 127.5 42.3 128.3 42.9 130.5 43.5 132.6 44 135.7 44.5 138.8 44.4 140.2 44.4 141.7 44.8 142 45.2 142.3 45.3 144.1 45.5 146 45.5 147.5 45.5 149 45.4 150.2 45.4 151.3 44.8 151.6 44.3 151.9 44.8 152.6 45.4 153.4 45.8 155.9 46.3 158.3 46.4 158.6 46.5 158.8 46.5 159 46.5 159.3 46.4 159.5 46.3 159.7 46.2 159.9 46 160.1 45.8 160.2 45.6 160.4 45.4 160.4 45.1 160.5 44.9 160.5 44.6 160.5 44.4 160.4 44.2 160.3 44 160.1 43.8 159.9 43.7 159.7 43.6 159.5 43.5 159.3 43.5 159 43.5 158.8 43.6 158.6 43.7 158.3 43.8 158.1 44 158 44.1 157.8 44.3 157.7 44.6 157.6 44.8 157.5 45 157.5 45.3 157.5 45.5 157.6 45.7 157.7 45.9 157.8 46.1 158 46.3 158.2 46.4 158.4 46.5 158.6 46.5 158.9 46.5 159.1 46.4 159.4 46.4 159.6 46.2 159.8 46.1 160 45.9 160.2 45.7 160.3 45.5 160.4 45.3 160.5 45 160.5 44.8 160.5 44.6 160.4 44.3 160.3 44.1 160.2 43.9 160.1 43.8 159.9 43.7 159.7 43.7 159.7 43.7 159.7 43.2 157.1 42.6 154.6 42.2 153.4 41.7 152.1 42.2 151.4 42.6 150.7 42.6 149.8 42.5 149 42.5 147.5 42.5 146 42.7 144.9 42.8 143.8 42.2 143 41.6 142.3 41.6 140.8 41.5 139.2 41 136.3 40.5 133.4 40.1 131.5 39.7 129.7 39.1 128.5 38.5 127.4 38.1 125.5 37.7 123.7 36.8 121.9 35.9 120 34.9 119.1 33.9 118.1 33.8 117.9 33.7 117.8 33.6 117.6 33.6 117.4 33.5 117.3 33.5 117.1 33.5 116.9 33.5 116.7 33.6 116.6 33.6 116.4 33.7 116.2 33.8 116.1 33.9 115.9 34.1 115.8 34.2 115.7 34.4 115.6 34.6 115.6 34.7 115.5 34.9 115.5 35.1 115.5 35.3 115.5 35.4 115.6 35.6 115.6 35.8 115.7 35.9 115.8 36.1 115.9 36.1 115.9 Z" fill="rgb(0, 0, 0, 1)"/>
  <path d="M 27.1 100.9 Q 27.1 100.9 27.2 101.1 27.3 101.3 27.4 101.6 27.5 101.8 27.5 102 27.5 102.3 27.4 102.5 27.3 102.7 27.2 102.9 27 103.1 26.8 103.2 26.6 103.4 26.4 103.4 26.1 103.5 25.9 103.5 25.6 103.5 25.4 103.4 25.2 103.3 25 103.1 24.8 102.9 24.7 102.7 24.6 102.5 24.5 102.3 24.5 102 24.5 101.8 24.6 101.6 24.7 101.3 24.8 101.1 25 101 25.1 100.8 25.3 100.7 25.6 100.6 25.8 100.5 26 100.5 26.3 100.5 26.5 100.6 26.7 100.7 26.9 100.8 27.1 101 27.3 101.2 27.4 101.4 27.5 101.6 27.5 101.9 27.5 102.1 27.4 102.4 27.4 102.6 27.2 102.8 27.1 103 26.9 103.2 26.7 103.3 26.5 103.4 26.3 103.5 26 103.5 25.8 103.5 25.6 103.4 25.3 103.3 25.1 103.2 24.9 103.1 24.9 103.1 24.9 103.1 24.7 103 24.4 103 24.2 102.9 24 102.8 23.8 102.6 23.6 102.5 23.4 102.3 23.3 102.1 23.2 101.9 23.1 101.7 23 101.4 22.9 101.2 23 100.9 23 100.7 23 100.5 23.1 100.2 23.2 100 23.3 99.8 23.5 99.6 23.7 99.4 23.9 99.3 24.1 99.1 24.3 99.1 24.6 99 24.8 99 25.1 98.9 26.1 99.9 Z" fill="rgb(0, 0, 0, 1)"/>
  <path d="M 16.6 100.5 Q 16.6 100.5 18.3 97.7 19.9 94.9 20.1 94.8 20.3 94.7 20.6 94.6 20.8 94.5 21 94.5 21.3 94.5 21.5 94.6 21.7 94.7 21.9 94.8 22.1 95 22.2 95.2 22.4 95.4 22.4 95.6 22.5 95.9 22.5 96.1 22.5 96.4 22.4 96.6 22.3 96.8 22.1 97 21.9 97.2 21.7 97.3 21.5 97.4 21.3 97.5 21 97.5 20.8 97.5 20.6 97.4 20.3 97.3 20.1 97.2 20 97 19.8 96.9 19.7 96.7 19.6 96.4 19.5 96.2 19.5 96 19.5 95.7 19.6 95.5 19.7 95.3 19.8 95.1 20 94.9 20.2 94.7 20.4 94.6 20.6 94.5 20.9 94.5 21.1 94.5 21.4 94.6 21.6 94.6 21.8 94.8 22 94.9 22.2 95.1 22.3 95.3 22.4 95.5 22.5 95.7 22.5 96 22.5 96.2 22.4 96.4 22.3 96.7 22.2 96.9 22.1 97.1 22.1 97.1 22.1 97.1 20.7 99.3 19.4 101.5 19.3 101.6 19.3 101.8 19.2 101.9 19 102.1 18.9 102.2 18.8 102.3 18.6 102.4 18.4 102.4 18.2 102.5 18.1 102.5 17.9 102.5 17.7 102.5 17.5 102.4 17.4 102.4 17.2 102.3 17.1 102.2 16.9 102 16.8 101.9 16.7 101.7 16.6 101.6 16.6 101.4 16.5 101.2 16.5 101.1 16.5 100.9 16.5 100.7 16.6 100.5 16.6 100.5 Z" fill="rgb(0, 0, 0, 1)"/>
  <path d="M 34.1 95.9 Q 34.1 95.9 34.2 96.1 34.3 96.3 34.4 96.6 34.5 96.8 34.5 97 34.5 97.3 34.4 97.5 34.3 97.7 34.2 97.9 34 98.1 33.8 98.2 33.6 98.4 33.4 98.4 33.1 98.5 32.9 98.5 32.6 98.5 32.4 98.4 32.2 98.3 32 98.1 31.8 97.9 31.7 97.7 31.6 97.5 31.5 97.3 31.5 97 31.5 96.8 31.6 96.6 31.7 96.3 31.8 96.1 32 96 32.1 95.8 32.3 95.7 32.6 95.6 32.8 95.5 33 95.5 33.3 95.5 33.5 95.6 33.7 95.7 33.9 95.8 34.1 96 34.3 96.2 34.4 96.4 34.5 96.6 34.5 96.9 34.5 97.1 34.4 97.4 34.4 97.6 34.2 97.8 34.1 98 33.9 98.2 33.7 98.3 33.5 98.4 33.3 98.5 33 98.5 32.8 98.5 32.6 98.4 32.3 98.3 32.1 98.2 31.9 98.1 31.9 98.1 31.9 98.1 31.7 98 31.4 98 31.2 97.9 31 97.8 30.8 97.6 30.6 97.5 30.4 97.3 30.3 97.1 30.2 96.9 30.1 96.7 30 96.4 29.9 96.2 30 95.9 30 95.7 30 95.5 30.1 95.2 30.2 95 30.3 94.8 30.5 94.6 30.7 94.4 30.9 94.3 31.1 94.1 31.3 94.1 31.6 94 31.8 94 32.1 93.9 33.1 94.9 Z" fill="rgb(0, 0, 0, 1)"/>
  <path d="M 23.9 92.9 Q 23.9 92.9 25.1 91.9 26.3 90.8 28.6 90.7 31 90.5 31.2 90.5 31.5 90.6 31.7 90.7 31.9 90.8 32.1 91 32.2 91.2 32.3 91.4 32.4 91.6 32.5 91.8 32.5 92.1 32.4 92.3 32.4 92.6 32.3 92.8 32.1 93 32 93.1 31.8 93.3 31.5 93.4 31.3 93.5 31.1 93.5 30.8 93.5 30.6 93.4 30.4 93.4 30.2 93.2 30 93.1 29.8 92.9 29.7 92.7 29.6 92.5 29.5 92.2 29.5 92 29.5 91.8 29.6 91.5 29.7 91.3 29.8 91.1 30 90.9 30.2 90.8 30.4 90.6 30.6 90.6 30.8 90.5 31.1 90.5 31.3 90.5 31.5 90.6 31.8 90.7 32 90.9 32.1 91 32.3 91.2 32.4 91.4 32.4 91.7 32.5 91.9 32.5 92.2 32.4 92.4 32.3 92.6 32.2 92.8 32.1 93 31.9 93.2 31.7 93.3 31.5 93.4 31.2 93.5 31 93.5 31 93.5 31 93.5 29.4 93.3 27.8 93.2 26.9 94.1 26.1 95.1 25.9 95.2 25.8 95.3 25.6 95.4 25.4 95.4 25.3 95.5 25.1 95.5 24.9 95.5 24.7 95.5 24.6 95.4 24.4 95.4 24.2 95.3 24.1 95.2 23.9 95.1 23.8 94.9 23.7 94.8 23.6 94.6 23.6 94.4 23.5 94.3 23.5 94.1 23.5 93.9 23.5 93.7 23.6 93.6 23.6 93.4 23.7 93.2 23.8 93.1 23.9 92.9 23.9 92.9 Z" fill="rgb(0, 0, 0, 1)"/>
  <path d="M 30.9 108.9 Q 30.9 108.9 31.9 107.9 33 106.9 34.1 106.4 35.2 105.8 35.4 105.1 35.6 104.4 36.3 102.7 36.9 100.9 37.1 100.8 37.3 100.7 37.6 100.6 37.8 100.5 38 100.5 38.3 100.5 38.5 100.6 38.7 100.7 38.9 100.8 39.1 101 39.2 101.2 39.4 101.4 39.4 101.6 39.5 101.9 39.5 102.1 39.5 102.4 39.4 102.6 39.3 102.8 39.1 103 38.9 103.2 38.7 103.3 38.5 103.4 38.3 103.5 38 103.5 37.8 103.5 37.6 103.4 37.3 103.3 37.1 103.2 37 103 36.8 102.9 36.7 102.7 36.6 102.4 36.5 102.2 36.5 102 36.5 101.7 36.6 101.5 36.7 101.3 36.8 101.1 37 100.9 37.2 100.7 37.4 100.6 37.6 100.5 37.9 100.5 38.1 100.5 38.4 100.6 38.6 100.6 38.8 100.8 39 100.9 39.2 101.1 39.3 101.3 39.4 101.5 39.5 101.7 39.5 102 39.5 102.2 39.4 102.4 39.3 102.7 39.2 102.9 39.1 103.1 39.1 103.1 39.1 103.1 38.7 104.3 38.4 105.6 37.6 106.9 36.8 108.2 35.9 108.6 35 109.1 34.1 110.1 33.1 111.1 32.9 111.2 32.8 111.3 32.6 111.4 32.4 111.4 32.3 111.5 32.1 111.5 31.9 111.5 31.7 111.5 31.6 111.4 31.4 111.4 31.2 111.3 31.1 111.2 30.9 111.1 30.8 110.9 30.7 110.8 30.6 110.6 30.6 110.4 30.5 110.3 30.5 110.1 30.5 109.9 30.5 109.7 30.6 109.6 30.6 109.4 30.7 109.2 30.8 109.1 30.9 108.9 30.9 108.9 Z" fill="rgb(0, 0, 0, 1)"/>
  <path d="M 9.1 94.1 Q 9.1 94.1 8.1 95.1 7.1 96 6.7 96.9 6.3 97.7 5.7 97.3 5.1 96.9 5.4 97.4 5.8 97.8 6.4 97.7 7 97.5 8 97.5 9 97.5 10 97.5 11 97.5 11.8 97.6 12.7 97.6 12.8 97.3 13 96.9 14.1 96.3 15.3 95.7 16.3 95.2 17.3 94.7 18.3 94.2 19.3 93.7 20.4 93.2 21.4 92.6 22.5 92.6 23.7 92.6 23.8 92.3 23.9 91.9 24.6 91.4 25.3 90.8 26.5 90.7 27.7 90.6 27.8 90.3 27.9 89.9 28.4 89.4 28.9 88.9 29.4 88.4 29.9 87.9 30.4 87.4 30.9 86.9 31.4 86.4 32 85.9 33.1 85.3 34.3 84.7 35.3 84.2 36.3 83.7 36.6 83.3 36.9 82.9 37.4 82.4 37.9 81.9 38.4 81.4 38.9 80.9 39.4 80.6 39.8 80.3 39.7 79.5 39.6 78.7 40.3 78.9 40.9 79.1 40.6 78.6 40.3 78.2 39.6 78.3 39 78.5 37.5 78.5 36.1 78.5 35.3 78.9 34.6 79.4 33.3 79.4 32 79.5 31 79.5 30.1 79.5 29.3 79.9 28.6 80.4 27.3 80.4 26 80.5 25.2 80.4 24.3 80.4 24.2 80.7 24 81.1 22.8 81.7 21.6 82.4 20.3 82.4 19 82.5 18.2 82.4 17.3 82.4 17 82.8 16.8 83.2 15.5 83.3 14.3 83.4 14.2 83.7 14.1 84.1 13.4 84.6 12.8 85.2 11.5 85.9 10.3 86.7 10.2 86.9 10.1 87.1 9.9 87.2 9.7 87.3 9.4 87.4 9.2 87.5 9 87.5 8.7 87.5 8.5 87.4 8.3 87.3 8.1 87.2 7.9 87 7.8 86.8 7.6 86.6 7.6 86.4 7.5 86.1 7.5 85.9 7.5 85.6 7.6 85.4 7.7 85.2 7.9 85 8.1 84.8 8.3 84.7 8.5 84.6 8.7 84.5 9 84.5 9.2 84.5 9.4 84.6 9.7 84.7 9.9 84.8 10.1 85 10.2 85.1 10.3 85.3 10.4 85.6 10.5 85.8 10.5 86 10.5 86.3 10.4 86.5 10.3 86.7 10.2 86.9 10 87.1 9.8 87.3 9.6 87.4 9.4 87.5 9.1 87.5 8.9 87.5 8.6 87.4 8.4 87.4 8.2 87.2 8 87.1 7.8 86.9 7.7 86.7 7.6 86.5 7.5 86.3 7.5 86 7.5 85.8 7.6 85.6 7.7 85.3 7.7 85.3 7.7 85.3 9.5 84.1 11.3 82.8 11.6 82.4 11.9 81.9 12.8 81.3 13.7 80.6 14.5 80.7 15.3 80.8 16 80.2 16.7 79.6 17.8 79.6 19 79.5 19.7 79.6 20.4 79.6 21.2 79.3 22 78.9 22.8 78.3 23.7 77.6 24.8 77.6 26 77.5 26.7 77.6 27.4 77.6 28.7 77.1 29.9 76.5 31 76.5 32 76.5 32.7 76.6 33.4 76.6 34.7 76.1 35.9 75.5 37.5 75.5 39 75.5 40.4 75.7 41.8 75.8 42.4 76.4 43.1 76.9 42.7 78.1 42.4 79.3 42.3 80.5 42.2 81.8 41.6 82.4 41.1 83.1 40.6 83.6 40.1 84.1 39.6 84.6 39.1 85.1 38.4 85.7 37.7 86.3 36.7 86.8 35.7 87.3 34.9 87.7 34 88.1 33.6 88.6 33.1 89.1 32.6 89.6 32.1 90.1 31.6 90.6 31.1 91.1 30.6 91.6 30.1 92.1 29.2 92.7 28.3 93.4 27.5 93.3 26.8 93.2 26.4 93.6 26.1 94.1 25.2 94.7 24.3 95.4 23.5 95.4 22.6 95.4 21.6 95.9 20.7 96.3 19.7 96.8 18.7 97.3 17.7 97.8 16.7 98.3 15.9 98.7 15 99.1 14.2 99.7 13.3 100.4 12.2 100.4 11 100.5 10 100.5 9 100.5 8 100.5 7 100.5 5.6 100.3 4.3 100.2 3.6 99.6 2.9 99.1 3.3 97.7 3.7 96.3 4.3 95.1 4.9 94 5.9 92.9 6.9 91.9 7.1 91.8 7.2 91.7 7.4 91.6 7.6 91.6 7.7 91.5 7.9 91.5 8.1 91.5 8.3 91.5 8.4 91.6 8.6 91.6 8.8 91.7 8.9 91.8 9.1 91.9 9.2 92.1 9.3 92.2 9.4 92.4 9.4 92.6 9.5 92.7 9.5 92.9 9.5 93.1 9.5 93.3 9.4 93.4 9.4 93.6 9.3 93.8 9.2 93.9 9.1 94.1 9.1 94.1 Z" fill="rgb(0, 0, 0, 1)"/>
  <path d="M 12.5 92.4 Q 12.5 92.4 11 91.9 9.5 91.4 8.7 90.7 7.9 90.1 7.4 89.6 6.9 89.1 6.4 88.4 5.8 87.8 5.7 86.4 5.5 85 5.6 84.2 5.6 83.3 5.2 83 4.8 82.8 4.7 81.2 4.6 79.7 5.3 78.8 5.9 77.9 6.4 77.6 6.8 77.3 7.4 75.9 8 74.5 9 74.5 9.9 74.5 10.7 74.1 11.4 73.6 13.2 73.6 15 73.5 16 73.5 17 73.5 18 73.5 18.9 73.5 19.7 73.1 20.4 72.6 21.7 72.6 23 72.5 24.2 72.6 25.3 72.6 26.2 73.3 27.1 73.9 27.6 74.6 28.2 75.3 28.3 76.5 28.4 77.7 28.8 78 29.2 78.3 29.3 79.8 29.4 81.3 28.7 82.2 28 83.1 26.9 83.7 25.7 84.3 25.2 84.8 24.8 85.2 23 85.3 21.3 85.4 21.2 85.7 21 86.1 19.9 86.7 18.7 87.3 17.6 87.9 16.6 88.4 15.5 88.4 14.3 88.4 14.2 88.7 14.1 89.1 13.4 89.6 12.8 90.2 11.9 90.1 11.1 90.1 10.9 90.2 10.8 90.3 10.6 90.4 10.4 90.4 10.3 90.5 10.1 90.5 9.9 90.5 9.7 90.5 9.6 90.4 9.4 90.4 9.2 90.3 9.1 90.2 8.9 90.1 8.8 89.9 8.7 89.8 8.6 89.6 8.6 89.4 8.5 89.3 8.5 89.1 8.5 88.9 8.5 88.7 8.6 88.6 8.6 88.4 8.7 88.2 8.8 88.1 8.9 87.9 10.1 87.9 11.3 88 11.5 87.1 11.8 86.2 13.1 85.4 14.3 84.7 14.6 84.3 15 83.9 16.2 83.3 17.4 82.6 18.5 82.6 19.7 82.6 19.8 82.3 19.9 81.9 20.4 81.4 20.9 80.9 21.1 80.8 21.2 80.7 21.4 80.6 21.6 80.6 21.7 80.5 21.9 80.5 22.1 80.5 22.3 80.5 22.4 80.6 22.6 80.6 22.8 80.7 22.9 80.8 23.1 80.9 23.2 81.1 23.3 81.2 23.4 81.4 23.4 81.6 23.5 81.7 23.5 81.9 23.5 82.1 23.5 82.3 23.4 82.4 23.4 82.6 23.3 82.8 23.2 82.9 23.1 83.1 21.7 83.2 20.3 83.4 20.2 83.7 20 84.1 18.2 84.8 16.5 85.4 14.9 85.4 13.3 85.4 13 85.8 12.8 86.2 11.9 86.1 11.1 86.1 10.9 86.2 10.8 86.3 10.6 86.4 10.4 86.4 10.3 86.5 10.1 86.5 9.9 86.5 9.7 86.5 9.6 86.4 9.4 86.4 9.2 86.3 9.1 86.2 8.9 86.1 8.8 85.9 8.7 85.8 8.6 85.6 8.6 85.4 8.5 85.3 8.5 85.1 8.5 84.9 8.5 84.7 8.6 84.6 8.6 84.4 8.7 84.2 8.8 84.1 8.9 83.9 9.4 83.4 10 82.9 11.1 82.3 12.3 81.7 13.9 81.1 15.6 80.6 16.6 80.6 17.7 80.6 18 80.2 18.3 79.8 19.6 79.7 20.9 79.5 22.6 78.6 24.3 77.7 24.6 77.6 24.8 77.5 25 77.5 25.3 77.5 25.5 77.6 25.7 77.7 25.9 77.8 26.1 78 26.2 78.2 26.4 78.4 26.4 78.6 26.5 78.9 26.5 79.1 26.5 79.4 26.4 79.6 26.3 79.8 26.1 80 25.9 80.2 25.7 80.3 25.5 80.4 25.3 80.5 25 80.5 24.8 80.5 24.6 80.4 24.3 80.3 24.1 80.2 24 80 23.8 79.9 23.7 79.7 23.6 79.4 23.5 79.2 23.5 79 23.5 78.7 23.6 78.5 23.7 78.3 23.8 78.1 24 77.9 24.2 77.7 24.4 77.6 24.6 77.5 24.9 77.5 25.1 77.5 25.4 77.6 25.6 77.6 25.8 77.8 26 77.9 26.2 78.1 26.3 78.3 26.4 78.5 26.5 78.7 26.5 79 26.5 79.2 26.4 79.4 26.3 79.7 26.2 79.9 26.1 80.1 25.9 80.2 25.7 80.3 25.7 80.3 25.7 80.3 23.4 81.4 21.1 82.5 20.4 82.3 19.8 82.2 19 82.8 18.3 83.4 17.4 83.4 16.5 83.4 15.1 83.9 13.7 84.3 12.9 84.7 12 85.1 11.6 85.6 11.1 86.1 10.9 86.2 10.8 86.3 10.6 86.4 10.4 86.4 10.3 86.5 10.1 86.5 9.9 86.5 9.7 86.5 9.6 86.4 9.4 86.4 9.2 86.3 9.1 86.2 8.9 86.1 8.8 85.9 8.7 85.8 8.6 85.6 8.6 85.4 8.5 85.3 8.5 85.1 8.5 84.9 8.5 84.7 8.6 84.6 8.6 84.4 8.7 84.2 8.8 84.1 8.9 83.9 10.1 83.9 11.3 83.8 12 83.2 12.7 82.6 14.1 82.6 15.6 82.6 16.8 82.2 18 81.9 18.8 81.3 19.7 80.6 20.3 80.8 20.9 80.9 21.1 80.8 21.2 80.7 21.4 80.6 21.6 80.6 21.7 80.5 21.9 80.5 22.1 80.5 22.3 80.5 22.4 80.6 22.6 80.6 22.8 80.7 22.9 80.8 23.1 80.9 23.2 81.1 23.3 81.2 23.4 81.4 23.4 81.6 23.5 81.7 23.5 81.9 23.5 82.1 23.5 82.3 23.4 82.4 23.4 82.6 23.3 82.8 23.2 82.9 23.1 83.1 22.6 83.6 22.1 84.1 21.2 84.7 20.3 85.4 19.5 85.4 18.6 85.4 17.8 85.7 17 86.1 16.4 86.7 15.7 87.3 14.9 87.6 14.2 87.8 13.5 88.9 12.7 90 11.9 90.1 11.1 90.1 10.9 90.2 10.8 90.3 10.6 90.4 10.4 90.4 10.3 90.5 10.1 90.5 9.9 90.5 9.7 90.5 9.6 90.4 9.4 90.4 9.2 90.3 9.1 90.2 8.9 90.1 8.8 89.9 8.7 89.8 8.6 89.6 8.6 89.4 8.5 89.3 8.5 89.1 8.5 88.9 8.5 88.7 8.6 88.6 8.6 88.4 8.7 88.2 8.8 88.1 8.9 87.9 10.1 87.9 11.3 87.8 11.6 87.4 11.9 86.9 12.8 86.3 13.7 85.6 14.5 85.6 15.4 85.6 16.4 85.2 17.3 84.7 18.1 84.3 19 83.9 19.8 83.3 20.7 82.6 22 82.7 23.3 82.8 23.8 82.2 24.3 81.7 25.1 81.3 26 80.9 26.3 80.8 26.6 80.7 26.7 80.2 26.8 79.8 26.2 79 25.6 78.3 25.7 77.5 25.8 76.8 25.4 76.4 24.9 76.1 24.8 75.7 24.7 75.4 23.8 75.4 23 75.5 22.3 75.4 21.6 75.4 20.3 75.9 19.1 76.5 18 76.5 17 76.5 16 76.5 15 76.5 13.8 76.4 12.6 76.4 11.3 76.9 10.1 77.5 9 77.5 8 77.5 8.6 78.1 9.2 78.8 8.6 79.4 8.1 80.1 7.7 80.2 7.4 80.3 7.3 80.8 7.2 81.3 7.8 82 8.4 82.7 8.4 83.8 8.5 85 8.3 85.6 8.2 86.3 8.6 86.6 9.1 86.9 9.6 87.4 10.1 87.9 10.3 88.3 10.5 88.6 12 89.1 13.5 89.6 13.6 89.7 13.8 89.7 13.9 89.8 14.1 90 14.2 90.1 14.3 90.2 14.4 90.4 14.4 90.6 14.5 90.8 14.5 90.9 14.5 91.1 14.5 91.3 14.4 91.5 14.4 91.6 14.3 91.8 14.2 91.9 14 92.1 13.9 92.2 13.7 92.3 13.6 92.4 13.4 92.4 13.2 92.5 13.1 92.5 12.9 92.5 12.7 92.5 12.5 92.4 12.5 92.4 Z" fill="rgb(0, 0, 0, 1)"/>
  <path d="M 35.9 82.2 Q 35.9 82.2 33.9 83.7 31.9 85.2 31.5 85.6 31.1 86.1 30.6 86.6 30.1 87.1 29.4 87.6 28.8 88.2 27.7 88.1 26.7 88 26.5 88.9 26.3 89.7 25.7 90.4 25.1 91.1 24.4 91.6 23.8 92.2 22.5 92.3 21.3 92.4 21.2 92.7 21.1 93.1 20.6 93.6 20.1 94.1 19.9 94.2 19.8 94.3 19.6 94.4 19.4 94.4 19.3 94.5 19.1 94.5 18.9 94.5 18.7 94.5 18.6 94.4 18.4 94.4 18.2 94.3 18.1 94.2 17.9 94.1 17.8 93.9 17.7 93.8 17.6 93.6 17.6 93.4 17.5 93.3 17.5 93.1 17.5 92.9 17.5 92.7 17.6 92.6 17.6 92.4 17.7 92.2 17.8 92.1 17.9 91.9 18.4 91.4 18.9 90.9 19.4 90.4 20 89.9 21.1 89.3 22.3 88.7 23.1 87.8 23.9 86.9 24.6 86.4 25.3 85.8 26.5 85.7 27.7 85.6 28 85.2 28.3 84.8 29.5 84.7 30.7 84.6 30.8 84.3 30.9 83.9 31.4 83.4 31.9 82.9 32.4 82.4 32.9 81.9 33.1 81.8 33.2 81.7 33.4 81.6 33.6 81.6 33.7 81.5 33.9 81.5 34.1 81.5 34.3 81.5 34.4 81.6 34.6 81.6 34.8 81.7 34.9 81.8 35.1 81.9 35.2 82.1 35.3 82.2 35.4 82.4 35.4 82.6 35.5 82.7 35.5 82.9 35.5 83.1 35.5 83.3 35.4 83.4 35.4 83.6 35.3 83.8 35.2 83.9 35.1 84.1 34.4 84.6 33.8 85.2 32.4 85.3 31.1 85.5 30.4 85.9 29.7 86.3 29.4 86.7 29 87.1 27.9 87.7 26.7 88.3 25.1 88.9 23.5 89.4 22.6 89.9 21.7 90.3 20.7 90.8 19.7 91.3 19.2 91.8 18.8 92.2 17.5 92.3 16.3 92.4 16.2 92.7 16 93.1 14.9 93.7 13.7 94.3 13.2 94.8 12.8 95.2 11.5 95.3 10.3 95.4 10 95.8 9.8 96.2 8.4 96.3 7 96.5 6.2 96.4 5.3 96.4 4.7 96.9 4 97.5 3.8 97.5 3.6 97.5 3.5 97.4 3.3 97.3 3.2 97.2 3 97.1 2.9 97 2.8 96.9 2.7 96.7 2.6 96.5 2.6 96.4 2.5 96.2 2.5 96 2.5 95.8 2.6 95.6 2.6 95.5 2.7 95.3 2.8 95.1 2.9 95 3 94.9 3.2 94.8 3.3 94.7 3.5 94.6 3.6 94.5 3.8 94.5 4 94.5 5 94.5 5.9 94.5 6.7 94.1 7.4 93.6 8.7 93.6 10 93.5 10.8 93.6 11.7 93.6 12 93.2 12.3 92.8 13.6 92.7 15 92.5 16.2 92 17.5 91.6 18.5 91.1 19.4 90.6 20.5 90.6 21.7 90.6 22 90.2 22.3 89.8 23.6 89.7 25 89.5 25.8 89.6 26.7 89.6 26.8 89.3 26.9 88.9 27.6 88.4 28.3 87.8 29.1 87.9 29.9 87.9 30.1 87.8 30.2 87.7 30.4 87.6 30.6 87.6 30.7 87.5 30.9 87.5 31.1 87.5 31.3 87.5 31.4 87.6 31.6 87.6 31.8 87.7 31.9 87.8 32.1 87.9 32.2 88.1 32.3 88.2 32.4 88.4 32.4 88.6 32.5 88.7 32.5 88.9 32.5 89.1 32.5 89.3 32.4 89.4 32.4 89.6 32.3 89.8 32.2 89.9 32.1 90.1 30.6 90.3 29.1 90.5 27.3 91.4 25.6 92.4 24.3 92.4 23.1 92.5 22.3 92.9 21.6 93.4 20.3 93.4 19 93.5 17.8 93.9 16.5 94.4 16.3 94.7 16 95.1 14.9 95.7 13.7 96.3 12.1 96.9 10.5 97.4 9.6 97.9 8.7 98.3 8.4 98.7 8 99.1 7.1 99.6 6.1 100.1 5.9 100.2 5.8 100.3 5.6 100.4 5.4 100.4 5.3 100.5 5.1 100.5 4.9 100.5 4.7 100.5 4.6 100.4 4.4 100.4 4.2 100.3 4.1 100.2 3.9 100.1 3.8 99.9 3.7 99.8 3.6 99.6 3.6 99.4 3.5 99.3 3.5 99.1 3.5 98.9 3.5 98.7 3.6 98.6 3.6 98.4 3.7 98.2 3.8 98.1 3.9 97.9 4.4 97.4 4.9 96.9 5.6 96.4 6.3 95.8 7.6 95.7 8.9 95.5 10.1 94.6 11.3 93.7 12.5 93.7 13.7 93.6 14 93.2 14.3 92.8 16 92.7 17.7 92.6 17.8 92.3 17.9 91.9 18.6 91.4 19.3 90.8 21 90.7 22.7 90.6 22.8 90.3 23 89.9 24.1 89.3 25.3 88.7 25.6 88.3 26 87.9 27.1 87.3 28.3 86.7 28.6 86.3 28.9 85.9 29.4 85.4 30 84.9 31.1 84.3 32.3 83.7 32.6 83.3 32.9 83 33.3 82.1 33.7 81.3 34.3 80.6 34.9 79.9 35.4 79.4 35.9 78.9 36.1 78.8 36.2 78.7 36.4 78.6 36.6 78.6 36.7 78.5 36.9 78.5 37.1 78.5 37.3 78.5 37.4 78.6 37.6 78.6 37.8 78.7 37.9 78.8 38.1 78.9 38.2 79.1 38.3 79.2 38.4 79.4 38.4 79.6 38.5 79.7 38.5 79.9 38.5 80.1 38.5 80.3 38.4 80.4 38.4 80.6 38.3 80.8 38.2 80.9 38.1 81.1 36.6 81.3 35.1 81.5 34.3 81.9 33.6 82.4 32.3 82.4 31 82.5 30.2 82.4 29.3 82.4 28.7 82.9 28 83.5 27.8 83.5 27.6 83.5 27.5 83.4 27.3 83.3 27.2 83.2 27 83.1 26.9 83 26.8 82.9 26.7 82.7 26.6 82.5 26.6 82.4 26.5 82.2 26.5 82 26.5 81.8 26.6 81.6 26.6 81.5 26.7 81.3 26.8 81.1 26.9 81 27 80.9 27.2 80.8 27.3 80.7 27.5 80.6 27.6 80.5 27.8 80.5 28 80.5 28.1 80.2 28.3 79.8 29.6 79.7 30.9 79.5 31.6 79.1 32.3 78.7 32.8 78.2 33.3 77.7 33.5 77.6 33.7 77.5 33.8 77.5 34 77.5 34.2 77.5 34.4 77.6 34.6 77.6 34.7 77.7 34.9 77.8 35 77.9 35.1 78 35.3 78.2 35.3 78.3 35.4 78.5 35.5 78.7 35.5 78.8 35.5 79 35.5 79.2 35.4 79.4 35.4 79.6 35.3 79.7 35.2 79.9 35.1 80 35 80.1 34.8 80.2 34.7 80.3 34.1 81.2 33.6 82.1 33 81.9 32.3 81.7 32.2 81.8 32.1 82 32 82.1 31.9 82.2 31.7 82.3 31.6 82.4 31.4 82.4 31.2 82.5 31 82.5 30.8 82.5 30.7 82.5 30.5 82.4 30.3 82.3 30.2 82.3 30 82.1 29.9 82 29.8 81.9 29.7 81.7 29.6 81.6 29.6 81.4 29.5 81.2 29.5 81 29.5 80.8 29.5 80.7 29.6 80.5 29.7 80.3 31.6 80.5 33.6 80.6 34.6 80.7 35.7 80.7 35.8 80.8 36 80.9 36.1 81 36.2 81.1 36.3 81.3 36.4 81.4 36.4 81.6 36.5 81.8 36.5 82 36.5 82.2 36.5 82.3 36.4 82.5 36.3 82.7 36.3 82.8 36.1 83 36 83.1 35.9 83.2 35.7 83.3 35.6 83.4 35.4 83.4 35.2 83.5 35 83.5 34.8 83.5 34.7 83.5 34.5 83.4 34.3 83.3 34.7 83.7 35.1 84.1 34.4 84.6 33.8 85.2 31.9 86.1 30.1 87.1 29.9 87.2 29.7 87.3 29.4 87.4 29.2 87.5 29 87.5 28.7 87.5 28.5 87.4 28.3 87.3 28.1 87.2 27.9 87 27.8 86.8 27.6 86.6 27.6 86.4 27.5 86.1 27.5 85.9 27.5 85.6 27.6 85.4 27.7 85.2 27.9 85 28.1 84.8 28.3 84.7 28.5 84.6 28.7 84.5 29 84.5 29.2 84.5 29.4 84.6 29.7 84.7 29.9 84.8 30 85 30.2 85.1 30.3 85.3 30.4 85.6 30.5 85.8 30.5 86 30.5 86.3 30.4 86.5 30.3 86.7 30.2 86.9 30 87.1 29.8 87.3 29.6 87.4 29.4 87.5 29.1 87.5 28.9 87.5 28.6 87.4 28.4 87.4 28.2 87.2 28 87.1 27.8 86.9 27.7 86.7 27.6 86.5 27.5 86.3 27.5 86 27.5 85.8 27.6 85.6 27.7 85.3 27.8 85.1 27.9 84.9 27.9 84.9 27.9 84.9 30.1 83.9 32.3 82.8 32.6 82.4 32.9 81.9 34.3 81.3 35.7 80.7 35.8 80.8 36 80.9 36.1 81 36.2 81.1 36.3 81.3 36.4 81.4 36.4 81.6 36.5 81.8 36.5 82 36.5 82.2 36.5 82.3 36.4 82.5 36.3 82.7 36.3 82.8 36.1 83 36 83.1 35.9 83.2 35.7 83.3 35.6 83.4 35.4 83.4 35.2 83.5 35 83.5 34.8 83.5 34.7 83.5 34.5 83.4 34.3 83.3 33.4 83.4 32.4 83.4 32.4 82.5 32.3 81.7 32.2 81.8 32.1 82 32 82.1 31.9 82.2 31.7 82.3 31.6 82.4 31.4 82.4 31.2 82.5 31 82.5 30.8 82.5 30.7 82.5 30.5 82.4 30.3 82.3 30.2 82.3 30 82.1 29.9 82 29.8 81.9 29.7 81.7 29.6 81.6 29.6 81.4 29.5 81.2 29.5 81 29.5 80.8 29.5 80.7 29.6 80.5 29.7 80.3 31 80.1 32.4 79.9 32.9 78.8 33.3 77.7 33.5 77.6 33.7 77.5 33.8 77.5 34 77.5 34.2 77.5 34.4 77.6 34.6 77.6 34.7 77.7 34.9 77.8 35 77.9 35.1 78 35.3 78.2 35.3 78.3 35.4 78.5 35.5 78.7 35.5 78.8 35.5 79 35.5 79.2 35.4 79.4 35.4 79.6 35.3 79.7 35.2 79.9 35.1 80 35 80.1 34.8 80.2 34.7 80.3 34.2 80.8 33.7 81.3 32.4 81.9 31.1 82.5 30.4 82.3 29.8 82.2 28.9 82.8 28 83.5 27.8 83.5 27.6 83.5 27.5 83.4 27.3 83.3 27.2 83.2 27 83.1 26.9 83 26.8 82.9 26.7 82.7 26.6 82.5 26.6 82.4 26.5 82.2 26.5 82 26.5 81.8 26.6 81.6 26.6 81.5 26.7 81.3 26.8 81.1 26.9 81 27 80.9 27.2 80.8 27.3 80.7 27.5 80.6 27.6 80.5 27.8 80.5 28 80.5 28.3 80.1 28.7 79.6 29.8 79.6 31 79.5 31.7 79.6 32.4 79.6 33.7 79.1 34.9 78.5 35.4 78.7 35.9 78.9 36.1 78.8 36.2 78.7 36.4 78.6 36.6 78.6 36.7 78.5 36.9 78.5 37.1 78.5 37.3 78.5 37.4 78.6 37.6 78.6 37.8 78.7 37.9 78.8 38.1 78.9 38.2 79.1 38.3 79.2 38.4 79.4 38.4 79.6 38.5 79.7 38.5 79.9 38.5 80.1 38.5 80.3 38.4 80.4 38.4 80.6 38.3 80.8 38.2 80.9 38.1 81.1 37.6 81.6 37.1 82.1 36.7 82.4 36.3 82.7 35.7 83.9 35.1 85 34.4 85.7 33.7 86.3 32.9 86.7 32 87.1 31.6 87.6 31.1 88.1 30.4 88.7 29.7 89.3 28.9 89.7 28 90.1 27.4 90.7 26.7 91.3 25.9 91.7 25 92.1 24.2 92.7 23.3 93.4 22 93.3 20.8 93.2 20.4 93.6 20.1 94.1 19.2 94.7 18.3 95.4 17 95.3 15.8 95.2 15 95.8 14.3 96.4 13.5 96.3 12.7 96.3 10.9 97.4 9.1 98.5 8.4 98.3 7.8 98.2 7.4 98.6 7.1 99.1 6.6 99.6 6.1 100.1 5.9 100.2 5.8 100.3 5.6 100.4 5.4 100.4 5.3 100.5 5.1 100.5 4.9 100.5 4.7 100.5 4.6 100.4 4.4 100.4 4.2 100.3 4.1 100.2 3.9 100.1 3.8 99.9 3.7 99.8 3.6 99.6 3.6 99.4 3.5 99.3 3.5 99.1 3.5 98.9 3.5 98.7 3.6 98.6 3.6 98.4 3.7 98.2 3.8 98.1 3.9 97.9 4.9 97.4 6 96.9 6.6 96.3 7.3 95.7 8.4 95.1 9.5 94.6 10.9 94.1 12.3 93.7 13.1 93.3 14 92.9 14.7 92.3 15.5 91.6 17.2 91.1 19 90.5 19.7 90.6 20.4 90.6 21.7 90.1 22.9 89.5 23.7 89.6 24.4 89.6 26.7 88.6 28.9 87.5 29.4 87.7 29.9 87.9 30.1 87.8 30.2 87.7 30.4 87.6 30.6 87.6 30.7 87.5 30.9 87.5 31.1 87.5 31.3 87.5 31.4 87.6 31.6 87.6 31.8 87.7 31.9 87.8 32.1 87.9 32.2 88.1 32.3 88.2 32.4 88.4 32.4 88.6 32.5 88.7 32.5 88.9 32.5 89.1 32.5 89.3 32.4 89.4 32.4 89.6 32.3 89.8 32.2 89.9 32.1 90.1 30.9 90.1 29.8 90.2 29.4 90.6 29.1 91.1 28.2 91.7 27.3 92.4 26.2 92.4 25 92.5 24.4 92.3 23.8 92.2 23 92.8 22.3 93.4 21.5 93.4 20.6 93.4 19.5 93.9 18.5 94.4 16.8 95 15 95.5 14.4 95.3 13.8 95.2 13 95.8 12.3 96.4 11.2 96.4 10 96.5 9.3 96.4 8.6 96.4 7.3 96.9 6.1 97.5 5 97.5 4 97.5 3.8 97.5 3.6 97.5 3.5 97.4 3.3 97.3 3.2 97.2 3 97.1 2.9 97 2.8 96.9 2.7 96.7 2.6 96.5 2.6 96.4 2.5 96.2 2.5 96 2.5 95.8 2.6 95.6 2.6 95.5 2.7 95.3 2.8 95.1 2.9 95 3 94.9 3.2 94.8 3.3 94.7 3.5 94.6 3.6 94.5 3.8 94.5 4 94.5 4.3 94.1 4.7 93.6 5.8 93.6 7 93.5 7.6 93.7 8.3 93.8 9 93.2 9.7 92.6 10.5 92.7 11.3 92.8 11.8 92.2 12.3 91.7 13.1 91.3 14 90.9 14.8 90.3 15.7 89.6 16.5 89.7 17.3 89.8 17.8 89.2 18.3 88.7 19.3 88.2 20.3 87.7 21.4 87.1 22.5 86.6 23.9 86.1 25.3 85.7 26.1 85.3 27 84.9 27.6 84.3 28.3 83.7 29.6 83.1 30.9 82.5 31.6 82.7 32.3 82.8 32.6 82.4 32.9 81.9 33.1 81.8 33.2 81.7 33.4 81.6 33.6 81.6 33.7 81.5 33.9 81.5 34.1 81.5 34.3 81.5 34.4 81.6 34.6 81.6 34.8 81.7 34.9 81.8 35.1 81.9 35.2 82.1 35.3 82.2 35.4 82.4 35.4 82.6 35.5 82.7 35.5 82.9 35.5 83.1 35.5 83.3 35.4 83.4 35.4 83.6 35.3 83.8 35.2 83.9 35.1 84.1 34.6 84.6 34.1 85.1 33.6 85.6 33.1 86.1 32.2 86.7 31.3 87.4 30.5 87.3 29.8 87.2 29 87.8 28.3 88.4 27.5 88.3 26.8 88.2 26.4 88.6 26.1 89.1 24.9 90.2 23.7 91.3 22.9 91.7 22 92.1 21.6 92.6 21.1 93.1 20.6 93.6 20.1 94.1 19.9 94.2 19.8 94.3 19.6 94.4 19.4 94.4 19.3 94.5 19.1 94.5 18.9 94.5 18.7 94.5 18.6 94.4 18.4 94.4 18.2 94.3 18.1 94.2 17.9 94.1 17.8 93.9 17.7 93.8 17.6 93.6 17.6 93.4 17.5 93.3 17.5 93.1 17.5 92.9 17.5 92.7 17.6 92.6 17.6 92.4 17.7 92.2 17.8 92.1 17.9 91.9 18.4 91.4 18.9 90.9 19.8 90.3 20.7 89.6 21.5 89.7 22.3 89.8 22.6 89.4 22.9 88.9 23.3 88.6 23.7 88.3 24.5 87.1 25.3 86 26.3 85.9 27.3 85.8 27.6 85.4 27.9 84.9 28.4 84.4 28.9 83.9 29.5 83.4 30.1 82.8 32.1 81.3 34.1 79.8 34.3 79.7 34.4 79.6 34.6 79.6 34.8 79.5 34.9 79.5 35.1 79.5 35.3 79.5 35.5 79.6 35.6 79.7 35.8 79.7 35.9 79.8 36.1 80 36.2 80.1 36.3 80.3 36.4 80.4 36.4 80.6 36.5 80.8 36.5 80.9 36.5 81.1 36.5 81.3 36.4 81.5 36.4 81.6 36.3 81.8 36.2 81.9 36 82.1 35.9 82.2 35.9 82.2 Z" fill="rgb(0, 0, 0, 1)"/>
  <path d="M 13.6 79.5 Q 13.6 79.5 15.6 79 17.6 78.5 18.6 78 19.6 77.5 19.8 77.5 20 77.5 20.2 77.5 20.4 77.5 20.5 77.6 20.7 77.7 20.8 77.8 21 77.9 21.1 78 21.2 78.1 21.3 78.3 21.4 78.5 21.4 78.6 21.5 78.8 21.5 79 21.5 79.2 21.4 79.4 21.4 79.5 21.3 79.7 21.2 79.8 21.1 80 21 80.1 20.8 80.2 20.7 80.3 20.5 80.4 20.4 80.5 19.5 80.9 18.7 81.3 17.6 81.9 16.6 82.4 14.8 82.4 13 82.5 12 82.5 11 82.5 10.8 82.5 10.6 82.5 10.5 82.4 10.3 82.3 10.2 82.2 10 82.1 9.9 82 9.8 81.9 9.7 81.7 9.6 81.5 9.6 81.4 9.5 81.2 9.5 81 9.5 80.8 9.6 80.6 9.6 80.5 9.7 80.3 9.8 80.1 9.9 80 10 79.9 10.2 79.8 10.3 79.7 10.5 79.6 10.6 79.5 10.8 79.5 11 79.5 11 79.2 10.9 78.9 11.4 78.4 12 77.9 13.2 77.3 14.4 76.6 15.5 76.6 16.7 76.6 17 76.2 17.3 75.8 18.1 75.9 18.9 75.9 19.1 75.8 19.2 75.7 19.4 75.6 19.6 75.6 19.7 75.5 19.9 75.5 20.1 75.5 20.3 75.5 20.4 75.6 20.6 75.6 20.8 75.7 20.9 75.8 21.1 75.9 21.2 76.1 21.3 76.2 21.4 76.4 21.4 76.6 21.5 76.7 21.5 76.9 21.5 77.1 21.5 77.3 21.4 77.4 21.4 77.6 21.3 77.8 21.2 77.9 21.1 78.1 19.7 78.2 18.3 78.4 18 78.8 17.8 79.2 16.4 79.3 15.1 79.5 14.3 79.9 13.6 80.4 12.5 80.4 11.3 80.4 10.7 80.9 10 81.5 9.8 81.5 9.6 81.5 9.5 81.4 9.3 81.3 9.2 81.2 9 81.1 8.9 81 8.8 80.9 8.7 80.7 8.6 80.5 8.6 80.4 8.5 80.2 8.5 80 8.5 79.8 8.6 79.6 8.6 79.5 8.7 79.3 8.8 79.1 8.9 79 9 78.9 9.2 78.8 9.3 78.7 9.5 78.6 9.6 78.5 9.8 78.5 10 78.5 10 78.2 10 77.9 11.2 77.3 12.4 76.6 13.7 76.6 15 76.5 16 76.5 17 76.5 17.8 76.6 18.7 76.6 18.8 76.3 18.9 75.9 19.6 75.4 20.3 74.8 21.8 74.7 23.3 74.6 23.7 75.1 24 75.5 24.2 75.5 24.4 75.5 24.5 75.6 24.7 75.7 24.8 75.8 25 75.9 25.1 76 25.2 76.1 25.3 76.3 25.4 76.5 25.4 76.6 25.5 76.8 25.5 77 25.5 77.2 25.4 77.4 25.4 77.5 25.3 77.7 25.2 77.9 25.1 78 25 78.1 24.8 78.2 24.7 78.3 24.5 78.4 24.4 78.5 24.2 78.5 24 78.5 22.5 78.5 21 78.5 20 78.5 19 78.5 18 78.5 17 78.5 16 78.5 15.1 78.5 14.3 78.9 13.6 79.4 12.5 79.4 11.3 79.4 11.2 79.7 11.1 80.1 10.6 80.6 10.1 81.1 9.6 81.4 9.2 81.8 9.1 82.9 9.1 84.1 8.9 84.2 8.8 84.3 8.6 84.4 8.4 84.4 8.3 84.5 8.1 84.5 7.9 84.5 7.7 84.5 7.6 84.4 7.4 84.4 7.2 84.3 7.1 84.2 6.9 84.1 6.8 83.9 6.7 83.8 6.6 83.6 6.6 83.4 6.5 83.3 6.5 83.1 6.5 82.9 6.5 82.7 6.6 82.6 6.6 82.4 6.7 82.2 6.8 82.1 6.9 81.9 7.6 81.4 8.3 80.8 9.6 80.7 11 80.5 12 80.5 12.9 80.5 13.7 80.1 14.4 79.6 15.7 79.6 17 79.5 18 79.5 19 79.5 20 79.5 21 79.5 21.8 79.6 22.7 79.6 23 79.2 23.3 78.8 25.4 79.4 27.5 80 27.5 81 27.5 82 27.5 83 27.5 84 27.5 84.2 27.5 84.4 27.4 84.5 27.3 84.7 27.2 84.8 27.1 85 27 85.1 26.9 85.2 26.7 85.3 26.5 85.4 26.4 85.4 26.2 85.5 26 85.5 25.8 85.5 25.6 85.4 25.5 85.4 25.3 85.3 25.1 85.2 25 85.1 24.9 85 24.8 84.8 24.7 84.7 24.6 84.5 24.5 84.4 24.5 84.2 24.5 84 25.2 83 25.9 81.9 26.6 81.4 27.3 80.8 28.5 80.7 29.7 80.6 30 80.2 30.3 79.8 31.5 79.7 32.7 79.6 33 79.2 33.3 78.8 34.6 78.4 35.9 77.9 36.1 77.8 36.3 77.7 36.6 77.6 36.8 77.5 37 77.5 37.3 77.5 37.5 77.6 37.7 77.7 37.9 77.8 38.1 78 38.2 78.2 38.4 78.4 38.4 78.6 38.5 78.9 38.5 79.1 38.5 79.4 38.4 79.6 38.3 79.8 38.1 80 37.9 80.2 37.7 80.3 37.5 80.4 37.3 80.5 37 80.5 36.8 80.5 36.6 80.4 36.3 80.3 36.1 80.2 36 80 35.8 79.9 35.7 79.7 35.6 79.4 35.5 79.2 35.5 79 35.5 78.7 35.6 78.5 35.7 78.3 35.8 78.1 36 77.9 36.2 77.7 36.4 77.6 36.6 77.5 36.9 77.5 37.1 77.5 37.4 77.6 37.6 77.6 37.8 77.8 38 77.9 38.2 78.1 38.3 78.3 38.4 78.5 38.5 78.7 38.5 79 38.5 79.2 38.4 79.4 38.3 79.7 38.2 79.9 38.1 80.1 38.1 80.1 38.1 80.1 36.4 80.6 34.8 81.2 34 81.8 33.3 82.4 32.5 82.3 31.8 82.2 31 82.8 30.3 83.4 29.5 83.3 28.8 83.2 28.4 83.6 28.1 84.1 27.8 84 27.5 84 27.5 84.2 27.5 84.4 27.4 84.5 27.3 84.7 27.2 84.8 27.1 85 27 85.1 26.9 85.2 26.7 85.3 26.5 85.4 26.4 85.4 26.2 85.5 26 85.5 25.8 85.5 25.6 85.4 25.5 85.4 25.3 85.3 25.1 85.2 25 85.1 24.9 85 24.8 84.8 24.7 84.7 24.6 84.5 24.5 84.4 24.5 84.2 24.5 84 24.5 83 24.5 82 24.5 81 24.5 80 24.6 80.6 24.8 81.2 24 81.8 23.3 82.4 22.2 82.4 21 82.5 20 82.5 19 82.5 18 82.5 17 82.5 16.3 82.4 15.6 82.4 14.3 82.9 13.1 83.5 12 83.5 11 83.5 10.4 83.3 9.8 83.2 9.4 83.6 9.1 84.1 8.9 84.2 8.8 84.3 8.6 84.4 8.4 84.4 8.3 84.5 8.1 84.5 7.9 84.5 7.7 84.5 7.6 84.4 7.4 84.4 7.2 84.3 7.1 84.2 6.9 84.1 6.8 83.9 6.7 83.8 6.6 83.6 6.6 83.4 6.5 83.3 6.5 83.1 6.5 82.9 6.5 82.7 6.6 82.6 6.6 82.4 6.7 82.2 6.8 82.1 6.9 81.9 6.9 81.1 6.8 80.3 7.4 79.6 7.9 78.9 8.4 78.4 8.9 77.9 9.8 77.3 10.7 76.6 11.5 76.6 12.4 76.6 13.7 76.1 14.9 75.5 16 75.5 17 75.5 18 75.5 19 75.5 20 75.5 21 75.5 22.5 75.5 24 75.5 24.2 75.5 24.4 75.5 24.5 75.6 24.7 75.7 24.8 75.8 25 75.9 25.1 76 25.2 76.1 25.3 76.3 25.4 76.5 25.4 76.6 25.5 76.8 25.5 77 25.5 77.2 25.4 77.4 25.4 77.5 25.3 77.7 25.2 77.9 25.1 78 25 78.1 24.8 78.2 24.7 78.3 24.5 78.4 24.4 78.5 24.2 78.5 24 78.5 23.3 77.9 22.7 77.4 22.2 77.3 21.8 77.2 21.4 77.6 21.1 78.1 20.2 78.7 19.3 79.4 18.2 79.4 17 79.5 16 79.5 15 79.5 14.3 79.4 13.6 79.4 12.8 79.7 12 80.1 11 80.8 10 81.5 9.8 81.5 9.6 81.5 9.5 81.4 9.3 81.3 9.2 81.2 9 81.1 8.9 81 8.8 80.9 8.7 80.7 8.6 80.5 8.6 80.4 8.5 80.2 8.5 80 8.5 79.8 8.6 79.6 8.6 79.5 8.7 79.3 8.8 79.1 8.9 79 9 78.9 9.2 78.8 9.3 78.7 9.5 78.6 9.6 78.5 9.8 78.5 10 78.5 10.3 78.1 10.7 77.6 11.5 77.6 12.4 77.6 13.7 77.1 14.9 76.5 15.6 76.7 16.3 76.8 17 76.2 17.7 75.6 18.3 75.8 18.9 75.9 19.1 75.8 19.2 75.7 19.4 75.6 19.6 75.6 19.7 75.5 19.9 75.5 20.1 75.5 20.3 75.5 20.4 75.6 20.6 75.6 20.8 75.7 20.9 75.8 21.1 75.9 21.2 76.1 21.3 76.2 21.4 76.4 21.4 76.6 21.5 76.7 21.5 76.9 21.5 77.1 21.5 77.3 21.4 77.4 21.4 77.6 21.3 77.8 21.2 77.9 21.1 78.1 19.9 78.1 18.8 78.2 18 78.8 17.3 79.4 16.5 79.4 15.6 79.4 14.8 79.7 14 80.1 13.6 80.6 13.1 81.1 12 81.8 11 82.5 10.8 82.5 10.6 82.5 10.5 82.4 10.3 82.3 10.2 82.2 10 82.1 9.9 82 9.8 81.9 9.7 81.7 9.6 81.5 9.6 81.4 9.5 81.2 9.5 81 9.5 80.8 9.6 80.6 9.6 80.5 9.7 80.3 9.8 80.1 9.9 80 10 79.9 10.2 79.8 10.3 79.7 10.5 79.6 10.6 79.5 10.8 79.5 11 79.5 12 79.5 13 79.5 14.2 79.6 15.4 79.6 16.4 79.2 17.3 78.7 18.5 78.1 19.6 77.5 19.8 77.5 20 77.5 20.2 77.5 20.4 77.5 20.5 77.6 20.7 77.7 20.8 77.8 21 77.9 21.1 78 21.2 78.1 21.3 78.3 21.4 78.5 21.4 78.6 21.5 78.8 21.5 79 21.5 79.2 21.4 79.4 21.4 79.5 21.3 79.7 21.2 79.8 21.1 80 21 80.1 20.8 80.2 20.7 80.3 20.5 80.4 20.4 80.5 19.4 81 18.4 81.5 16.4 82 14.4 82.5 14.2 82.5 14 82.5 13.8 82.5 13.6 82.5 13.5 82.4 13.3 82.3 13.2 82.2 13 82.1 12.9 82 12.8 81.9 12.7 81.7 12.6 81.5 12.6 81.4 12.5 81.2 12.5 81 12.5 80.8 12.6 80.6 12.6 80.5 12.7 80.3 12.8 80.2 12.9 80 13 79.9 13.2 79.8 13.3 79.7 13.5 79.6 13.6 79.5 13.6 79.5 Z" fill="rgb(0, 0, 0, 1)"/>
  <path d="M 180.5 23 Q 180.5 23 180.5 25.5 180.5 28 180.5 29 180.5 29.9 180.9 30.7 181.4 31.4 181.4 32.7 181.5 34 181.4 35.3 181.4 36.7 181.8 37 182.2 37.3 182.3 38.6 182.5 40 182.5 41 182.5 42 182.5 43 182.5 44 182.4 44.8 182.4 45.7 182.1 45.7 181.9 45.7 182.6 45.2 183.4 44.6 184.7 44.6 186 44.5 186.8 44.6 187.7 44.6 188 44.2 188.3 43.8 189.6 43.7 190.9 43.5 191.6 43.1 192.3 42.7 192.6 42.5 192.8 42.3 192.7 41.6 192.5 41 192.5 40 192.5 39 192.5 38 192.5 37 192.5 36 192.5 35 192.5 33.5 192.5 32 192.5 31 192.5 30 192.5 29 192.5 28 192.5 27 192.5 26 192.5 25 192.5 24 192.6 23.2 192.6 22.3 192.4 22.3 192.3 22.2 191.6 22.3 191 22.5 190.2 22.4 189.3 22.4 189.2 22.7 189 23.1 187.8 23.7 186.6 24.4 185.3 24.4 184 24.5 181.5 24.5 179 24.5 178.8 24.5 178.5 24.4 178.3 24.3 178.1 24.2 177.9 24 177.8 23.8 177.7 23.6 177.6 23.4 177.5 23.2 177.5 22.9 177.6 22.7 177.6 22.4 177.7 22.2 177.9 22 178 21.9 178.2 21.7 178.5 21.6 178.7 21.5 178.9 21.5 179.2 21.5 179.4 21.6 179.6 21.6 179.8 21.8 180 21.9 180.2 22.1 180.3 22.3 180.4 22.5 180.5 22.8 180.5 23 180.5 23.2 180.4 23.5 180.3 23.7 180.2 23.9 180 24.1 179.8 24.2 179.6 24.4 179.4 24.4 179.2 24.5 178.9 24.5 178.7 24.5 178.5 24.4 178.2 24.3 178 24.1 177.9 24 177.7 23.8 177.6 23.6 177.6 23.3 177.5 23.1 177.5 22.8 177.6 22.6 177.7 22.4 177.8 22.2 177.9 22 178.1 21.8 178.3 21.7 178.5 21.6 178.8 21.5 179 21.5 179 21.5 179 21.5 181.5 21.5 184 21.5 184.7 21.6 185.4 21.6 186.2 21.3 187 20.9 187.8 20.3 188.7 19.6 189.8 19.6 191 19.5 192.4 19.7 193.8 19.8 194.6 20.8 195.4 21.7 195.4 22.8 195.5 24 195.5 25 195.5 26 195.5 27 195.5 28 195.5 29 195.5 30 195.5 31 195.5 32 195.5 33.5 195.5 35 195.5 36 195.5 37 195.5 38 195.5 39 195.5 40 195.5 41 195.3 42.4 195.2 43.8 194.4 44.5 193.7 45.3 192.4 45.9 191.1 46.5 190.4 46.3 189.8 46.2 189 46.8 188.3 47.4 187.2 47.4 186 47.5 185.3 47.4 184.6 47.4 183.4 47.8 182.1 48.3 180.9 47.3 179.6 46.3 179.6 45.2 179.5 44 179.5 43 179.5 42 179.5 41 179.5 40 179.7 39.4 179.8 38.8 179.2 38 178.6 37.3 178.6 35.7 178.5 34 178.6 33.3 178.6 32.6 178.1 31.3 177.5 30.1 177.5 29 177.5 28 177.5 25.5 177.5 23 177.5 22.8 177.5 22.6 177.6 22.5 177.7 22.3 177.8 22.2 177.9 22 178 21.9 178.1 21.8 178.3 21.7 178.5 21.6 178.6 21.6 178.8 21.5 179 21.5 179.2 21.5 179.4 21.6 179.5 21.6 179.7 21.7 179.9 21.8 180 21.9 180.1 22 180.2 22.2 180.3 22.3 180.4 22.5 180.5 22.6 180.5 22.8 180.5 23 180.5 23 Z" fill="rgb(0, 0, 0, 1)"/>
  <path d="M 72.4 31.5 Q 72.4 31.5 72.9 33 73.4 34.5 73.9 35.5 74.4 36.4 74.4 38 74.4 39.7 74.7 39.8 75.1 40 75.8 41.8 76.4 43.6 76.4 44.6 76.4 45.7 76.6 45.8 76.8 45.8 77.4 45.7 78 45.5 81.4 45 84.8 44.5 85.6 44.1 86.4 43.6 89.2 43.6 92 43.5 93.8 43 95.6 42.5 97.8 42.5 100 42.5 102.4 42 104.7 41.5 106.4 41.5 108 41.5 109.8 41 111.6 40.5 113.3 40.5 115 40.5 116 40.5 116.9 40.5 117.6 40.1 118.3 39.7 118.6 40.4 118.9 41.1 118.4 40.5 117.9 40 117.2 38.2 116.6 36.5 116.6 34.9 116.6 33.3 116.3 33.2 115.9 33.1 115.4 32.4 114.8 31.8 114.7 29.9 114.5 28 114.6 27.2 114.6 26.3 114.2 26 113.8 25.8 114.4 25.1 115 24.5 114 24.5 113 24.5 111.5 24.5 110 24.5 108.7 25 107.5 25.4 106.3 25.5 105.1 25.5 104.4 25.9 103.7 26.3 102.1 26.9 100.5 27.4 98.7 27.5 97 27.5 95.2 28 93.4 28.5 91.4 29 89.4 29.5 88.2 29.5 87 29.5 85.2 30 83.4 30.5 80.7 30.5 78 30.5 75.8 31.4 73.5 32.4 71.8 32.5 70 32.5 69 32.5 68 32.5 67 32.5 66.1 32.5 64 33 62 33.5 61.8 33.5 61.5 33.4 61.3 33.3 61.1 33.2 60.9 33 60.8 32.8 60.7 32.6 60.6 32.4 60.5 32.2 60.5 31.9 60.6 31.7 60.6 31.4 60.7 31.2 60.9 31 61 30.9 61.2 30.7 61.5 30.6 61.7 30.5 61.9 30.5 62.2 30.5 62.4 30.6 62.6 30.6 62.8 30.8 63 30.9 63.2 31.1 63.3 31.3 63.4 31.5 63.5 31.8 63.5 32 63.5 32.2 63.4 32.5 63.3 32.7 63.2 32.9 63 33.1 62.8 33.2 62.6 33.4 62.4 33.4 62.2 33.5 61.9 33.5 61.7 33.5 61.5 33.4 61.2 33.3 61 33.1 60.9 33 60.7 32.8 60.6 32.6 60.6 32.3 60.5 32.1 60.5 31.8 60.6 31.6 60.7 31.4 60.8 31.2 60.9 31 61.1 30.8 61.3 30.7 61.5 30.6 61.8 30.5 62 30.5 62 30.5 62 30.5 64 30 65.9 29.5 67 29.5 68 29.5 69 29.5 70 29.5 71.2 29.5 72.5 29.6 75.2 28.6 78 27.5 80.3 27.5 82.6 27.5 84.8 27 87 26.5 87.8 26.5 88.6 26.5 90.6 26 92.6 25.5 94.8 25 97 24.5 98.3 24.5 99.6 24.6 100.9 24.1 102.3 23.7 103.6 23.1 104.9 22.5 105.7 22.5 106.6 22.6 108.3 22 110 21.5 111.5 21.5 113 21.5 114 21.5 115 21.5 115.6 22.9 116.2 24.3 116.8 25 117.4 25.7 117.4 26.8 117.5 28 117.3 29.1 117.2 30.3 117.6 30.6 118.1 30.9 118.7 31.8 119.4 32.7 119.4 34.1 119.4 35.6 119.8 36.8 120.1 38 120.6 38.5 121.1 38.9 120.4 40.6 119.7 42.3 118.4 42.9 117.1 43.5 116 43.5 115 43.5 113.7 43.5 112.4 43.5 110.2 44 108 44.5 106.6 44.5 105.3 44.5 102.6 45 100 45.5 98.2 45.5 96.4 45.5 94.2 46 92 46.5 89.8 46.4 87.6 46.4 86.4 46.9 85.2 47.5 81.6 48 78 48.5 76.6 48.3 75.3 48.2 74.4 47.3 73.6 46.3 73.6 45.4 73.6 44.5 73.2 43.2 72.9 42 72.3 41.2 71.6 40.3 71.6 39 71.6 37.6 71.1 36.5 70.6 35.5 70.1 34 69.6 32.5 69.5 32.3 69.5 32.1 69.5 31.9 69.5 31.8 69.6 31.6 69.6 31.4 69.7 31.3 69.8 31.1 69.9 31 70.1 30.8 70.2 30.7 70.4 30.6 70.5 30.6 70.7 30.5 70.9 30.5 71.1 30.5 71.2 30.5 71.4 30.6 71.6 30.6 71.8 30.7 71.9 30.8 72 30.9 72.2 31.1 72.3 31.2 72.3 31.4 72.4 31.5 72.4 31.5 Z" fill="rgb(0, 0, 0, 1)"/>
  <path d="M 177.4 86.5 Q 177.4 86.5 176.9 88 176.4 89.5 176.4 90.1 176.4 90.7 175.7 90.8 174.9 90.9 175.4 90.4 175.9 89.9 176.4 89.4 176.9 88.9 177.4 88.6 177.8 88.3 177.7 87.5 177.6 86.7 177.8 87.1 178 87.5 177.8 87.5 177.5 87.4 177.3 87.3 177.1 87.2 176.9 87 176.8 86.8 176.7 86.6 176.6 86.4 176.5 86.2 176.5 85.9 176.6 85.7 176.6 85.4 176.7 85.2 176.9 85 177 84.9 177.2 84.7 177.5 84.6 177.7 84.5 177.9 84.5 178.2 84.5 178.4 84.6 178.6 84.6 178.8 84.8 179 84.9 179.2 85.1 179.3 85.3 179.4 85.5 179.5 85.8 179.5 86 179.5 86.2 179.4 86.5 179.3 86.7 179.2 86.9 179 87.1 178.8 87.2 178.6 87.4 178.4 87.4 178.2 87.5 177.9 87.5 177.7 87.5 177.5 87.4 177.2 87.3 177 87.1 176.9 87 176.7 86.8 176.6 86.6 176.6 86.3 176.5 86.1 176.5 85.8 176.6 85.6 176.7 85.4 176.8 85.2 176.9 85 177.1 84.8 177.3 84.7 177.5 84.6 177.8 84.5 178 84.5 178 84.5 178 84.5 179.2 85.9 180.4 87.3 180.3 88.5 180.2 89.8 179.6 90.4 179.1 91.1 178.6 91.6 178.1 92.1 177.6 92.6 177.1 93.1 175.3 92.2 173.6 91.3 173.6 89.9 173.6 88.6 174.1 87 174.6 85.5 174.7 85.4 174.7 85.2 174.8 85.1 175 84.9 175.1 84.8 175.2 84.7 175.4 84.6 175.6 84.6 175.8 84.5 175.9 84.5 176.1 84.5 176.3 84.5 176.5 84.6 176.6 84.6 176.8 84.7 176.9 84.8 177.1 85 177.2 85.1 177.3 85.3 177.4 85.4 177.4 85.6 177.5 85.8 177.5 85.9 177.5 86.1 177.5 86.3 177.4 86.5 177.4 86.5 Z" fill="rgb(0, 0, 0, 1)"/>
  <path d="M 208.5 68 Q 208.5 68 208.5 70 208.5 72 208.4 72.8 208.4 73.7 208.8 74 209.2 74.3 209.3 75.6 209.5 77 208.8 77.3 208 77.5 209 77.5 210 77.5 210.8 77.6 211.7 77.6 212 77.2 212.3 76.8 213.6 76.4 214.9 75.9 215.1 75.8 215.3 75.7 215.6 75.6 215.8 75.5 216 75.5 216.3 75.5 216.5 75.6 216.7 75.7 216.9 75.8 217.1 76 217.2 76.2 217.4 76.4 217.4 76.6 217.5 76.9 217.5 77.1 217.5 77.4 217.4 77.6 217.3 77.8 217.1 78 216.9 78.2 216.7 78.3 216.5 78.4 216.3 78.5 216 78.5 215.8 78.5 215.6 78.4 215.3 78.3 215.1 78.2 215 78 214.8 77.9 214.7 77.7 214.6 77.4 214.5 77.2 214.5 77 214.5 76.7 214.6 76.5 214.7 76.3 214.8 76.1 215 75.9 215.2 75.7 215.4 75.6 215.6 75.5 215.9 75.5 216.1 75.5 216.4 75.6 216.6 75.6 216.8 75.8 217 75.9 217.2 76.1 217.3 76.3 217.4 76.5 217.5 76.7 217.5 77 217.5 77.2 217.4 77.4 217.3 77.7 217.2 77.9 217.1 78.1 217.1 78.1 217.1 78.1 215.4 78.6 213.8 79.2 213 79.8 212.3 80.4 211.2 80.4 210 80.5 209 80.5 208 80.5 207.3 78.8 206.5 77 206.7 76.4 206.8 75.8 206.2 75 205.6 74.3 205.6 73.2 205.5 72 205.5 70 205.5 68 205.5 67.8 205.5 67.6 205.6 67.5 205.7 67.3 205.8 67.2 205.9 67 206 66.9 206.1 66.8 206.3 66.7 206.5 66.6 206.6 66.6 206.8 66.5 207 66.5 207.2 66.5 207.4 66.6 207.5 66.6 207.7 66.7 207.9 66.8 208 66.9 208.1 67 208.2 67.2 208.3 67.3 208.4 67.5 208.5 67.6 208.5 67.8 208.5 68 208.5 68 Z" fill="rgb(0, 0, 0, 1)"/>
  <path d="M 208.5 65.6 Q 208.5 65.6 210 66.1 211.5 66.6 212.2 66.5 213 66.5 213.8 66.6 214.7 66.6 215.9 66.3 217.1 65.9 217.6 66.6 218.2 67.3 218.3 68.5 218.4 69.7 218.8 70 219.2 70.3 219.3 71.6 219.5 73 219.3 75.5 219.1 78.1 218.9 78.2 218.7 78.3 218.4 78.4 218.2 78.5 218 78.5 217.7 78.5 217.5 78.4 217.3 78.3 217.1 78.2 216.9 78 216.8 77.8 216.6 77.6 216.6 77.4 216.5 77.1 216.5 76.9 216.5 76.6 216.6 76.4 216.7 76.2 216.9 76 217.1 75.8 217.3 75.7 217.5 75.6 217.7 75.5 218 75.5 218.2 75.5 218.4 75.6 218.7 75.7 218.9 75.8 219 76 219.2 76.1 219.3 76.3 219.4 76.6 219.5 76.8 219.5 77 219.5 77.3 219.4 77.5 219.3 77.7 219.2 77.9 219 78.1 218.8 78.3 218.6 78.4 218.4 78.5 218.1 78.5 217.9 78.5 217.6 78.4 217.4 78.4 217.2 78.2 217 78.1 216.8 77.9 216.7 77.7 216.6 77.5 216.5 77.3 216.5 77 216.5 76.8 216.6 76.6 216.7 76.3 216.8 76.1 216.9 75.9 216.9 75.9 216.9 75.9 216.7 74.5 216.5 73 216.7 72.4 216.8 71.8 216.2 71 215.6 70.3 215.7 69.5 215.8 68.8 215.4 68.4 214.9 68.1 215.1 68.7 215.3 69.4 214.2 69.4 213 69.5 211.8 69.5 210.6 69.4 209 68.9 207.5 68.4 207.4 68.3 207.2 68.3 207.1 68.2 206.9 68 206.8 67.9 206.7 67.8 206.6 67.6 206.6 67.4 206.5 67.2 206.5 67.1 206.5 66.9 206.5 66.7 206.6 66.5 206.6 66.4 206.7 66.2 206.8 66.1 207 65.9 207.1 65.8 207.3 65.7 207.4 65.6 207.6 65.6 207.8 65.5 207.9 65.5 208.1 65.5 208.3 65.5 208.5 65.6 208.5 65.6 Z" fill="rgb(0, 0, 0, 1)"/>
  <path d="M 135.5 85.8 Q 135.5 85.8 136 88.8 136.5 91.8 136.5 92.9 136.5 94 136.5 95 136.5 96 136.5 97.5 136.5 99 136.5 100.5 136.5 102 136.5 103.5 136.5 105 136.5 106 136.5 107 136.5 108 136.5 109 136.5 110 136.5 111 136.5 112 136.5 113 136.5 114.5 136.5 116 136.4 116.8 136.4 117.7 136.9 119.3 137.5 121 137.5 121.2 137.4 121.5 137.3 121.7 137.2 121.9 137 122.1 136.8 122.2 136.6 122.3 136.4 122.4 136.2 122.5 135.9 122.5 135.7 122.4 135.4 122.4 135.2 122.3 135 122.1 134.9 122 134.7 121.8 134.6 121.5 134.5 121.3 134.5 121.1 134.5 120.8 134.6 120.6 134.6 120.4 134.8 120.2 134.9 120 135.1 119.8 135.3 119.7 135.5 119.6 135.8 119.5 136 119.5 136.2 119.5 136.5 119.6 136.7 119.7 136.9 119.8 137.1 120 137.2 120.2 137.4 120.4 137.4 120.6 137.5 120.8 137.5 121.1 137.5 121.3 137.4 121.5 137.3 121.8 137.1 122 137 122.1 136.8 122.3 136.6 122.4 136.3 122.4 136.1 122.5 135.8 122.5 135.6 122.4 135.4 122.3 135.2 122.2 135 122.1 134.8 121.9 134.7 121.7 134.6 121.5 134.5 121.2 134.5 121 134.5 121 134.5 121 134.1 119.7 133.6 118.3 133.6 117.2 133.5 116 133.5 114.5 133.5 113 133.5 112 133.5 111 133.5 110 133.5 109 133.5 108 133.5 107 133.5 106 133.5 105 133.5 103.5 133.5 102 133.5 100.5 133.5 99 133.5 97.5 133.5 96 133.5 95 133.5 94 133.5 93.1 133.5 92.2 133 89.2 132.5 86.2 132.5 86.1 132.5 85.9 132.5 85.7 132.6 85.5 132.7 85.4 132.7 85.2 132.8 85.1 133 84.9 133.1 84.8 133.2 84.7 133.4 84.6 133.6 84.6 133.8 84.5 133.9 84.5 134.1 84.5 134.3 84.5 134.5 84.6 134.6 84.6 134.8 84.7 134.9 84.8 135.1 85 135.2 85.1 135.3 85.3 135.4 85.4 135.4 85.6 135.5 85.8 135.5 85.8 Z" fill="rgb(0, 0, 0, 1)"/>
  <path d="M 125.5 104.6 Q 125.5 104.6 127 104.1 128.6 103.6 130.3 103.5 132 103.5 133.5 103.5 135 103.5 136 103.5 137 103.5 138.8 103 140.6 102.5 141.5 102.1 142.4 101.6 144.2 101.6 146 101.5 147.5 101.5 149 101.5 150.3 101 151.6 100.6 152.8 100.5 154 100.5 155.5 100.5 157 100.5 157.8 100.6 158.7 100.6 158.8 100.3 159 99.9 161.5 99.2 164 98.5 164.2 98.5 164.5 98.6 164.7 98.7 164.9 98.8 165.1 99 165.2 99.2 165.3 99.4 165.4 99.6 165.5 99.8 165.5 100.1 165.4 100.3 165.4 100.6 165.3 100.8 165.1 101 165 101.1 164.8 101.3 164.5 101.4 164.3 101.5 164.1 101.5 163.8 101.5 163.6 101.4 163.4 101.4 163.2 101.2 163 101.1 162.8 100.9 162.7 100.7 162.6 100.5 162.5 100.2 162.5 100 162.5 99.8 162.6 99.5 162.7 99.3 162.8 99.1 163 98.9 163.2 98.8 163.4 98.6 163.6 98.6 163.8 98.5 164.1 98.5 164.3 98.5 164.5 98.6 164.8 98.7 165 98.9 165.1 99 165.3 99.2 165.4 99.4 165.4 99.7 165.5 99.9 165.5 100.2 165.4 100.4 165.3 100.6 165.2 100.8 165.1 101 164.9 101.2 164.7 101.3 164.5 101.4 164.2 101.5 164 101.5 164 101.5 164 101.5 162.5 101.8 161 102.1 160.2 102.7 159.3 103.4 158.2 103.4 157 103.5 155.5 103.5 154 103.5 153.2 103.5 152.5 103.4 150.7 104 149 104.5 147.5 104.5 146 104.5 144.8 104.4 143.6 104.4 142.5 104.9 141.4 105.5 139.2 106 137 106.5 136 106.5 135 106.5 133.5 106.5 132 106.5 130.7 106.5 129.5 106.4 128 106.9 126.5 107.4 126.3 107.5 126.1 107.5 125.9 107.5 125.8 107.5 125.6 107.4 125.4 107.4 125.3 107.3 125.1 107.2 125 107.1 124.8 106.9 124.7 106.8 124.6 106.6 124.6 106.5 124.5 106.3 124.5 106.1 124.5 105.9 124.5 105.8 124.6 105.6 124.6 105.4 124.7 105.2 124.8 105.1 124.9 105 125.1 104.8 125.2 104.7 125.4 104.7 125.5 104.6 125.5 104.6 Z" fill="rgb(0, 0, 0, 1)"/>
  <path d="M 129.4 90.5 Q 129.4 90.5 129.9 92 130.4 93.5 130.9 94.4 131.3 95.3 131.7 95.6 132.1 95.9 133.2 97.6 134.3 99.3 133.6 99.9 133 100.5 134.2 100.6 135.3 100.6 136.2 101.3 137.1 101.9 137.4 102.4 137.8 102.8 138.4 102.7 139 102.5 139.8 102.6 140.7 102.6 140.8 102.3 140.9 101.9 141.4 101.4 141.9 101 142.3 100.1 142.7 99.3 143.3 98.6 143.9 97.9 144.4 97.4 144.9 96.9 145.4 96.4 145.9 96 146.3 95.1 146.7 94.3 147.3 93.6 147.9 92.9 148.6 92.4 149.3 91.8 150.8 91.7 152.3 91.6 153.2 92.3 154.1 92.9 154.6 93.4 155.1 93.9 155.6 94.4 156.1 94.9 156.6 95.4 157.1 95.9 157.6 96.4 158.1 96.9 158.6 97.4 159.1 97.9 159.6 98.4 160.1 98.9 160.6 99.6 161.2 100.3 160.6 100.9 160 101.5 161.8 102.3 163.5 103 163.8 104 164.1 104.9 164.2 105.1 164.3 105.3 164.4 105.6 164.5 105.8 164.5 106 164.5 106.3 164.4 106.5 164.3 106.7 164.2 106.9 164 107.1 163.8 107.2 163.6 107.4 163.4 107.4 163.1 107.5 162.9 107.5 162.6 107.5 162.4 107.4 162.2 107.3 162 107.1 161.8 106.9 161.7 106.7 161.6 106.5 161.5 106.3 161.5 106 161.5 105.8 161.6 105.6 161.7 105.3 161.8 105.1 162 105 162.1 104.8 162.3 104.7 162.6 104.6 162.8 104.5 163 104.5 163.3 104.5 163.5 104.6 163.7 104.7 163.9 104.8 164.1 105 164.3 105.2 164.4 105.4 164.5 105.6 164.5 105.9 164.5 106.1 164.4 106.4 164.4 106.6 164.2 106.8 164.1 107 163.9 107.2 163.7 107.3 163.5 107.4 163.3 107.5 163 107.5 162.8 107.5 162.6 107.4 162.3 107.3 162.1 107.2 161.9 107.1 161.9 107.1 161.9 107.1 161.2 105 160.5 103 160.3 103.8 160 104.5 159.4 103.1 158.8 101.8 158.4 101.4 157.9 101.1 157.4 100.6 156.9 100.1 156.4 99.6 155.9 99.1 155.4 98.6 154.9 98.1 154.4 97.6 153.9 97.1 153.4 96.6 152.9 96.1 152.4 95.6 151.9 95.1 151.8 94.7 151.7 94.4 151.2 94.3 150.8 94.2 150.4 94.6 150.1 95.1 149.7 95.4 149.3 95.7 148.7 96.9 148.1 98 147.6 98.6 147.1 99.1 146.6 99.6 146.1 100.1 145.7 100.4 145.3 100.7 144.7 101.9 144.1 103 143.6 103.6 143.1 104.1 142.2 104.7 141.3 105.4 140.2 105.4 139 105.5 137.6 105.3 136.3 105.2 135.6 104.6 134.9 104.1 134.8 103.7 134.7 103.4 133.8 103.4 133 103.5 132.4 102.1 131.7 100.7 130.8 99.4 129.9 98.1 129.3 97.4 128.7 96.7 128.1 95.6 127.6 94.5 127.1 93 126.6 91.5 126.5 91.3 126.5 91.1 126.5 90.9 126.5 90.8 126.6 90.6 126.6 90.4 126.7 90.3 126.8 90.1 126.9 90 127.1 89.8 127.2 89.7 127.4 89.6 127.5 89.6 127.7 89.5 127.9 89.5 128.1 89.5 128.2 89.5 128.4 89.6 128.6 89.6 128.8 89.7 128.9 89.8 129 89.9 129.2 90.1 129.3 90.2 129.3 90.4 129.4 90.5 129.4 90.5 Z" fill="rgb(0, 0, 0, 1)"/>
  <path d="M 102.5 87 Q 102.5 87 102.4 89.2 102.4 91.3 101.9 92.7 101.5 94 101.5 94.2 101.4 94.5 101.3 94.7 101.2 94.9 101 95.1 100.8 95.2 100.6 95.3 100.4 95.4 100.2 95.5 99.9 95.5 99.7 95.4 99.4 95.4 99.2 95.3 99 95.1 98.9 95 98.7 94.8 98.6 94.5 98.5 94.3 98.5 94.1 98.5 93.8 98.6 93.6 98.6 93.4 98.8 93.2 98.9 93 99.1 92.8 99.3 92.7 99.5 92.6 99.8 92.5 100 92.5 100.2 92.5 100.5 92.6 100.7 92.7 100.9 92.8 101.1 93 101.2 93.2 101.4 93.4 101.4 93.6 101.5 93.8 101.5 94.1 101.5 94.3 101.4 94.5 101.3 94.8 101.1 95 101 95.1 100.8 95.3 100.6 95.4 100.3 95.4 100.1 95.5 99.8 95.5 99.6 95.4 99.4 95.3 99.2 95.2 99 95.1 98.8 94.9 98.7 94.7 98.6 94.5 98.5 94.2 98.5 94 98.5 94 98.5 94 99.1 92.3 99.6 90.7 99.6 88.8 99.5 87 99.5 86.8 99.5 86.6 99.6 86.5 99.7 86.3 99.8 86.2 99.9 86 100 85.9 100.1 85.8 100.3 85.7 100.5 85.6 100.6 85.6 100.8 85.5 101 85.5 101.2 85.5 101.4 85.6 101.5 85.6 101.7 85.7 101.9 85.8 102 85.9 102.1 86 102.2 86.2 102.3 86.3 102.4 86.5 102.5 86.6 102.5 86.8 102.5 87 102.5 87 Z" fill="rgb(0, 0, 0, 1)"/>
  <path d="M 94.4 85.5 Q 94.4 85.5 94.9 87 95.4 88.5 95.7 88.7 96.1 88.9 96.6 89.4 97.1 89.9 97.2 90.1 97.3 90.2 97.4 90.4 97.4 90.6 97.5 90.7 97.5 90.9 97.5 91.1 97.5 91.3 97.4 91.4 97.4 91.6 97.3 91.8 97.2 91.9 97.1 92.1 96.9 92.2 96.8 92.3 96.6 92.4 96.4 92.4 96.3 92.5 96.1 92.5 95.9 92.5 95.7 92.5 95.6 92.4 95.4 92.4 95.2 92.3 95.1 92.2 94.9 92.1 94.7 90.5 94.5 89 94.6 87.8 94.6 86.7 95.1 86.3 95.5 86 95.5 85.8 95.5 85.6 95.6 85.5 95.7 85.3 95.8 85.2 95.9 85 96 84.9 96.1 84.8 96.3 84.7 96.5 84.6 96.6 84.6 96.8 84.5 97 84.5 97.2 84.5 97.4 84.6 97.5 84.6 97.7 84.7 97.9 84.8 98 84.9 98.1 85 98.2 85.2 98.3 85.3 98.4 85.5 98.5 85.6 98.5 85.8 98.5 86 98.5 87 98.5 88 98.5 89 98.5 90 98.5 91 98.5 92 98.5 92.2 98.5 92.4 98.4 92.5 98.3 92.7 98.2 92.8 98.1 93 98 93.1 97.9 93.2 97.7 93.3 97.5 93.4 97.4 93.4 97.2 93.5 97 93.5 96.8 93.5 96.6 93.4 96.5 93.4 96.3 93.3 96.1 93.2 96 93.1 95.9 93 95.8 92.8 95.7 92.7 95.6 92.5 95.5 92.4 95.5 92.2 95.5 92 95.5 91 95.5 90 95.5 89 95.5 88 95.6 86.8 95.6 85.7 96.1 85.3 96.5 85 96.5 84.8 96.5 84.6 96.6 84.5 96.7 84.3 96.8 84.2 96.9 84 97 83.9 97.1 83.8 97.3 83.7 97.5 83.6 97.6 83.6 97.8 83.5 98 83.5 98.2 83.5 98.4 83.6 98.5 83.6 98.7 83.7 98.9 83.8 99 83.9 99.1 84 99.2 84.2 99.3 84.3 99.4 84.5 99.5 84.6 99.5 84.8 99.5 85 99.9 85.7 100.4 86.4 100.4 87.7 100.5 89 100.5 90 100.5 91 100.5 91.2 100.5 91.4 100.4 91.5 100.3 91.7 100.2 91.8 100.1 92 100 92.1 99.9 92.2 99.7 92.3 99.5 92.4 99.4 92.4 99.2 92.5 99 92.5 98.8 92.5 98.6 92.4 98.5 92.4 98.3 92.3 98.1 92.2 98 92.1 97.9 92 97.8 91.8 97.7 91.7 97.6 91.5 97.5 91.4 97.5 91.2 97.5 91 98.2 90 98.9 88.9 99.4 88.6 99.8 88.3 101.4 87.6 103.1 86.9 103.2 87.1 103.3 87.3 103.4 87.6 103.5 87.8 103.5 88 103.5 88.3 103.4 88.5 103.3 88.7 103.2 88.9 103 89.1 102.8 89.2 102.6 89.4 102.4 89.4 102.1 89.5 101.9 89.5 101.6 89.5 101.4 89.4 101.2 89.3 101 89.1 100.8 88.9 100.7 88.7 100.6 88.5 100.5 88.3 100.5 88 100.5 87.8 100.6 87.6 100.7 87.3 100.8 87.1 101 87 101.1 86.8 101.3 86.7 101.6 86.6 101.8 86.5 102 86.5 102.3 86.5 102.5 86.6 102.7 86.7 102.9 86.8 103.1 87 103.3 87.2 103.4 87.4 103.5 87.6 103.5 87.9 103.5 88.1 103.4 88.4 103.4 88.6 103.2 88.8 103.1 89 102.9 89.2 102.7 89.3 102.5 89.4 102.3 89.5 102 89.5 101.8 89.5 101.6 89.4 101.3 89.3 101.1 89.2 100.9 89.1 100.9 89.1 100.9 89.1 101.6 89.4 102.2 89.8 101.6 90.4 101.1 91.1 100.8 91 100.5 91 100.5 91.2 100.5 91.4 100.4 91.5 100.3 91.7 100.2 91.8 100.1 92 100 92.1 99.9 92.2 99.7 92.3 99.5 92.4 99.4 92.4 99.2 92.5 99 92.5 98.8 92.5 98.6 92.4 98.5 92.4 98.3 92.3 98.1 92.2 98 92.1 97.9 92 97.8 91.8 97.7 91.7 97.6 91.5 97.5 91.4 97.5 91.2 97.5 91 97.5 90 97.5 89 97.6 88.3 97.6 87.6 97.1 86.3 96.5 85 96.5 84.8 96.5 84.6 96.6 84.5 96.7 84.3 96.8 84.2 96.9 84 97 83.9 97.1 83.8 97.3 83.7 97.5 83.6 97.6 83.6 97.8 83.5 98 83.5 98.2 83.5 98.4 83.6 98.5 83.6 98.7 83.7 98.9 83.8 99 83.9 99.1 84 99.2 84.2 99.3 84.3 99.4 84.5 99.5 84.6 99.5 84.8 99.5 85 98.9 85.7 98.4 86.3 98.4 87.2 98.5 88 98.5 89 98.5 90 98.5 91 98.5 92 98.5 92.2 98.5 92.4 98.4 92.5 98.3 92.7 98.2 92.8 98.1 93 98 93.1 97.9 93.2 97.7 93.3 97.5 93.4 97.4 93.4 97.2 93.5 97 93.5 96.8 93.5 96.6 93.4 96.5 93.4 96.3 93.3 96.1 93.2 96 93.1 95.9 93 95.8 92.8 95.7 92.7 95.6 92.5 95.5 92.4 95.5 92.2 95.5 92 95.5 91 95.5 90 95.5 89 95.5 88 95.5 87 95.5 86 95.5 85.8 95.5 85.6 95.6 85.5 95.7 85.3 95.8 85.2 95.9 85 96 84.9 96.1 84.8 96.3 84.7 96.5 84.6 96.6 84.6 96.8 84.5 97 84.5 97.2 84.5 97.4 84.6 97.5 84.6 97.7 84.7 97.9 84.8 98 84.9 98.1 85 98.2 85.2 98.3 85.3 98.4 85.5 98.5 85.6 98.5 85.8 98.5 86 97.9 86.7 97.4 87.3 97.4 88.2 97.5 89 97.3 89.5 97.1 89.9 97.2 90.1 97.3 90.2 97.4 90.4 97.4 90.6 97.5 90.7 97.5 90.9 97.5 91.1 97.5 91.3 97.4 91.4 97.4 91.6 97.3 91.8 97.2 91.9 97.1 92.1 96.9 92.2 96.8 92.3 96.6 92.4 96.4 92.4 96.3 92.5 96.1 92.5 95.9 92.5 95.7 92.5 95.6 92.4 95.4 92.4 95.2 92.3 95.1 92.2 94.9 92.1 94.4 91.6 93.9 91.1 93.3 90.3 92.6 89.5 92.1 88 91.6 86.5 91.5 86.3 91.5 86.1 91.5 85.9 91.5 85.8 91.6 85.6 91.6 85.4 91.7 85.3 91.8 85.1 91.9 85 92.1 84.8 92.2 84.7 92.4 84.6 92.5 84.6 92.7 84.5 92.9 84.5 93.1 84.5 93.2 84.5 93.4 84.6 93.6 84.6 93.8 84.7 93.9 84.8 94 84.9 94.2 85.1 94.3 85.2 94.3 85.4 94.4 85.5 94.4 85.5 Z" fill="rgb(0, 0, 0, 1)"/>
</svg>