<?xml version="1.0" encoding="UTF-8"?>
<svg xmlns="http://www.w3.org/2000/svg" width="140" height="137" viewBox="0 0 140 137">
  <path d="M 6.5 55 Q 6.5 55 6.5 57 6.5 59 7 60.8 7.5 62.6 7.9 63.5 8.4 64.4 8.4 66.5 8.4 68.7 8.8 69 9.2 69.3 9.3 71.6 9.5 74 10 76.9 10.5 79.8 10.5 80.9 10.5 82 11 84.9 11.5 87.8 11.5 89.4 11.5 91 11.5 92.5 11.5 94 11.5 95.5 11.5 97 11.5 99 11.5 101 12 102.3 12.4 103.6 12.5 105.3 12.5 107 12.5 108 12.5 109 12.5 110 12.5 111 12.5 112 12.5 113 12.5 114 12.5 115 13 116.3 13.4 117.6 13.5 118.8 13.5 120 13.4 120.8 13.4 121.7 13.6 121.8 13.8 121.8 14.9 121.7 16 121.5 17 121.5 18 121.5 19.3 121 20.6 120.6 22.3 120.5 24 120.5 25.3 120 26.6 119.6 28.1 119.6 29.7 119.6 30 119.2 30.3 118.8 32.1 118.7 34 118.5 35.5 118.5 37 118.5 38.3 118 39.6 117.6 41.3 117.5 43 117.5 44.3 117.6 45.7 117.6 46 117.2 46.3 116.8 47.6 116.7 49 116.5 50 116.5 51 116.5 52.5 116.5 54 116.5 55.5 116.5 57 116.5 58.5 116.5 60 116.5 61.5 116.5 63 116.5 64 116.5 65 116.5 66 116.5 67 116.5 68.5 116.5 70 116.5 71.5 116.5 73 116.5 74 116.5 75 116.5 76 116.5 76.9 116.5 77 115 77 113.5 77.2 113.5 77.4 113.5 77.5 113.6 77.7 113.7 77.8 113.8 78 113.9 78.1 114 78.2 114.1 78.3 114.3 78.4 114.5 78.4 114.6 78.5 114.8 78.5 115 78.5 115.2 78.4 115.4 78.4 115.5 78.3 115.7 78.2 115.9 78.1 116 78 116.1 77.8 116.2 77.7 116.3 77.5 116.4 77.4 116.5 77.2 116.5 77 116.5 76.3 116.1 75.7 115.7 75.6 115.4 75.5 115.2 75.5 115 75.5 114.7 75.6 114.5 75.7 114.3 75.8 114.1 76 113.9 76.2 113.8 76.4 113.6 76.6 113.6 76.9 113.5 77.1 113.5 77.4 113.5 77.6 113.6 77.8 113.7 78 113.9 78.2 114.1 78.3 114.3 78.4 114.5 78.5 114.7 78.5 115 78.5 115.2 78.4 115.4 78.3 115.7 78.2 115.9 78 116 77.9 116.2 77.7 116.3 77.4 116.4 77.2 116.5 77 116.5 76.7 116.5 76.5 116.4 76.3 116.3 76.1 116.2 75.9 116 75.7 115.8 75.6 115.6 75.5 115.4 75.5 115.1 75.5 114.9 75.6 114.6 75.6 114.4 75.8 114.2 75.9 114 76.1 113.8 76.3 113.7 76.5 113.6 76.7 113.5 77 113.5 77.2 113.5 77.4 113.6 77.7 113.7 77.9 113.8 78.1 113.9 77.5 113.7 77 113.5 77.2 113.5 77.4 113.5 77.5 113.6 77.7 113.7 77.8 113.8 78 113.9 78.1 114 78.2 114.1 78.3 114.3 78.4 114.5 78.4 114.6 78.5 114.8 78.5 115 78.5 115.2 78.4 115.4 78.4 115.5 78.3 115.7 78.2 115.9 78.1 116 78 116.1 77.8 116.2 77.7 116.3 77.5 116.4 77.4 116.5 77.2 116.5 77 116.5 77 118 77.1 119.5 76 119.5 75 119.5 74 119.5 73 119.5 71.5 119.5 70 119.5 68.5 119.5 67 119.5 66 119.5 65 119.5 64 119.5 63 119.5 61.5 119.5 60 119.5 58.5 119.5 57 119.5 55.5 119.5 54 119.5 52.5 119.5 51 119.5 50 119.5 49 119.5 48.4 119.3 47.8 119.2 47 119.8 46.3 120.4 44.7 120.4 43 120.5 41.7 120.5 40.5 120.4 38.7 121 37 121.5 35.5 121.5 34 121.5 32.9 121.3 31.8 121.2 31 121.8 30.3 122.4 28.9 122.4 27.5 122.4 25.7 123 24 123.5 22.7 123.5 21.5 123.4 19.7 124 18 124.5 17 124.5 16 124.5 14.1 124.3 12.3 124.2 11.4 123.3 10.6 122.3 10.6 121.2 10.5 120 10.5 119.2 10.6 118.5 10 116.7 9.5 115 9.5 114 9.5 113 9.5 112 9.5 111 9.5 110 9.5 109 9.5 108 9.5 107 9.5 105.7 9.6 104.5 9 102.7 8.5 101 8.5 99 8.5 97 8.5 95.5 8.5 94 8.5 92.5 8.5 91 8.5 89.6 8.5 88.2 8 85.1 7.5 82 7.5 81.1 7.5 80.2 7 77.1 6.5 74 6.7 72.4 6.8 70.8 6.2 70 5.6 69.3 5.6 67.5 5.6 65.6 5.1 64.5 4.5 63.4 4 61.2 3.5 59 3.5 57 3.5 55 3.5 54.8 3.5 54.6 3.6 54.5 3.7 54.3 3.8 54.2 3.9 54 4 53.9 4.1 53.8 4.3 53.7 4.5 53.6 4.6 53.6 4.8 53.5 5 53.5 5.2 53.5 5.4 53.6 5.5 53.6 5.7 53.7 5.9 53.8 6 53.9 6.1 54 6.2 54.2 6.3 54.3 6.4 54.5 6.5 54.6 6.5 54.8 6.5 55 6.5 55 Z" fill="rgb(0, 0, 0, 1)"/>
  <path d="M 7.5 51.6 Q 7.5 51.6 9 52.1 10.5 52.6 11.2 52.5 12 52.5 14 52.5 16 52.5 18 52.5 20 52.5 21.5 52.5 23 52.5 24.5 52.5 26 52.5 27.3 52 28.6 51.6 30.3 51.5 32 51.5 33.3 51 34.6 50.6 35.7 50.5 36.9 50.5 37.7 50.1 38.4 49.6 39.7 49.6 41 49.5 42 49.5 42.9 49.5 43.7 49.1 44.4 48.6 45.7 48.6 47 48.5 48.2 48.6 49.3 48.6 50 49.2 50.8 49.8 51.4 49.7 52 49.5 53 49.5 54 49.5 55 49.5 56 49.5 57 49.5 58 49.5 59 49.5 60 49.5 61 49.5 62 49.5 63 49.5 64 49.5 65.8 50.3 67.5 51 67.4 52.2 67.4 53.3 66.8 54 66.2 54.8 66.3 55.4 66.5 56 66.5 57.5 66.5 59 66.5 60 66.5 61 66.5 62.5 66.5 64 66.4 65.3 66.4 66.7 66.8 67 67.2 67.3 67.3 68.6 67.5 70 67.5 71 67.5 71.9 67.9 72.7 68.4 73.4 68.4 74.7 68.5 76 68.4 76.8 68.4 77.7 68.8 78 69.2 78.3 69.3 79.6 69.5 80.9 69.9 81.7 70.4 82.4 70.4 83.7 70.5 85 71 86.3 71.4 87.6 71.5 89.3 71.5 91 71.5 92 71.5 93 71.4 93.8 71.4 94.7 71.8 95 72.2 95.3 72.3 96.6 72.5 98 72.5 99 72.5 100 72.5 101 72.5 101.9 72.9 102.7 73.4 103.4 73.4 104.7 73.5 106 73.4 106.8 73.4 107.7 73.8 108 74.2 108.3 74.3 109.6 74.5 111 74.5 112 74.5 113 74.5 115 74.5 117 74.5 117.2 74.4 117.5 74.3 117.7 74.2 117.9 74 118.1 73.8 118.2 73.6 118.3 73.4 118.4 73.2 118.5 72.9 118.5 72.7 118.4 72.4 118.4 72.2 118.3 72 118.1 71.9 118 71.7 117.8 71.6 117.5 71.5 117.3 71.5 117.1 71.5 116.8 71.6 116.6 71.6 116.4 71.8 116.2 71.9 116 72.1 115.8 72.3 115.7 72.5 115.6 72.8 115.5 73 115.5 73.2 115.5 73.5 115.6 73.7 115.7 73.9 115.8 74.1 116 74.2 116.2 74.4 116.4 74.4 116.6 74.5 116.8 74.5 117.1 74.5 117.3 74.4 117.5 74.3 117.8 74.1 118 74 118.1 73.8 118.3 73.6 118.4 73.3 118.4 73.1 118.5 72.8 118.5 72.6 118.4 72.4 118.3 72.2 118.2 72 118.1 71.8 117.9 71.7 117.7 71.6 117.5 71.5 117.2 71.5 117 71.5 117 71.5 117 71.5 115 71.5 113 71.5 112 71.5 111 71.7 110.4 71.8 109.8 71.2 109 70.6 108.3 70.6 107.2 70.5 106 70.6 105.3 70.6 104.6 70.1 103.3 69.5 102.1 69.5 101 69.5 100 69.5 99 69.5 98 69.7 97.4 69.8 96.8 69.2 96 68.6 95.3 68.6 94.2 68.5 93 68.5 92 68.5 91 68.5 89.7 68.6 88.5 68 86.7 67.5 85 67.6 84.3 67.6 83.6 67.1 82.3 66.5 81.1 66.7 80.4 66.8 79.8 66.2 79 65.6 78.3 65.6 77.2 65.5 76 65.6 75.3 65.6 74.6 65.1 73.3 64.5 72.1 64.5 71 64.5 70 64.7 69.4 64.8 68.8 64.2 68 63.6 67.3 63.6 65.7 63.5 64 63.5 62.5 63.5 61 63.5 60 63.5 59 63.5 57.5 63.5 56 63.7 54.6 63.8 53.3 64.2 53 64.6 52.7 64.6 51.8 64.5 51 64.3 51.8 64 52.5 63 52.5 62 52.5 61 52.5 60 52.5 59 52.5 58 52.5 57 52.5 56 52.5 55 52.5 54 52.5 53 52.5 52 52.5 50.6 52.3 49.3 52.2 49 51.8 48.7 51.4 47.8 51.4 47 51.5 46.3 51.4 45.6 51.4 44.3 51.9 43.1 52.5 42 52.5 41 52.5 40.3 52.4 39.6 52.4 38.3 52.9 37.1 53.5 36.3 53.5 35.5 53.4 33.7 54 32 54.5 30.7 54.5 29.5 54.4 27.7 55 26 55.5 24.5 55.5 23 55.5 21.5 55.5 20 55.5 18 55.5 16 55.5 14 55.5 12 55.5 10.8 55.5 9.6 55.4 8 54.9 6.5 54.4 6.4 54.3 6.2 54.3 6.1 54.2 5.9 54 5.8 53.9 5.7 53.8 5.6 53.6 5.6 53.4 5.5 53.2 5.5 53.1 5.5 52.9 5.5 52.7 5.6 52.5 5.6 52.4 5.7 52.2 5.8 52.1 6 51.9 6.1 51.8 6.3 51.7 6.4 51.6 6.6 51.6 6.8 51.5 6.9 51.5 7.1 51.5 7.3 51.5 7.5 51.6 7.5 51.6 Z" fill="rgb(0, 0, 0, 1)"/>
  <path d="M 33.1 77.1 Q 33.1 77.1 32.1 77.9 31.2 78.8 31.3 79.5 31.4 80.3 30.8 81 30.2 81.8 30.3 82.4 30.5 83 30.5 84 30.5 85 30.4 85.8 30.4 86.7 30.7 86.8 31.1 87 31.7 88.1 32.3 89.3 32.7 89.6 33.1 89.9 33.6 90.4 34.1 90.9 34.6 91.4 35.1 91.9 35.6 92.4 36.1 92.9 36.6 93.4 37.1 93.9 37.4 94.4 37.8 94.8 38.2 94.7 38.7 94.6 38.8 94.3 38.9 93.9 39.4 93.6 39.8 93.3 39.7 92.5 39.6 91.7 40.3 90.8 40.9 89.9 41.4 89.4 41.9 88.9 42.4 88.6 42.8 88.3 42.7 87.5 42.6 86.7 43.2 86 43.8 85.3 43.7 84.5 43.6 83.7 44.2 83 44.8 82.3 44.7 81.8 44.6 81.3 44.3 81.2 43.9 81.1 43.4 80.6 42.9 80.1 42.4 79.6 41.9 79.1 41.4 78.6 40.9 78.1 40.4 77.6 39.9 77.1 39.6 76.6 39.3 76.2 38.5 76.3 37.7 76.4 37 75.8 36.3 75.2 35.6 75.3 35 75.5 34.2 75.4 33.3 75.4 32 76.4 30.7 77.3 30.4 77.4 30.2 77.5 30 77.5 29.7 77.5 29.5 77.4 29.3 77.3 29.1 77.2 28.9 77 28.8 76.8 28.6 76.6 28.6 76.4 28.5 76.1 28.5 75.9 28.5 75.6 28.6 75.4 28.7 75.2 28.9 75 29.1 74.8 29.3 74.7 29.5 74.6 29.7 74.5 30 74.5 30.2 74.5 30.4 74.6 30.7 74.7 30.9 74.8 31 75 31.2 75.1 31.3 75.3 31.4 75.6 31.5 75.8 31.5 76 31.5 76.3 31.4 76.5 31.3 76.7 31.2 76.9 31 77.1 30.8 77.3 30.6 77.4 30.4 77.5 30.1 77.5 29.9 77.5 29.6 77.4 29.4 77.4 29.2 77.2 29 77.1 28.8 76.9 28.7 76.7 28.6 76.5 28.5 76.3 28.5 76 28.5 75.8 28.6 75.6 28.7 75.3 28.8 75.1 28.9 74.9 29.1 74.8 29.3 74.7 29.3 74.7 29.3 74.7 31 73.6 32.7 72.6 33.8 72.6 35 72.5 36.4 72.7 37.8 72.8 38 73.2 38.3 73.6 39.5 73.7 40.8 73.8 41.4 74.4 42.1 74.9 42.6 75.4 43.1 75.9 43.6 76.4 44.1 76.9 44.6 77.4 45.1 77.9 45.6 78.4 46.1 78.9 46.7 79.8 47.4 80.7 47.3 82.2 47.2 83.8 46.8 84 46.4 84.3 46.3 85.5 46.2 86.8 45.8 87 45.4 87.3 45.3 88.5 45.2 89.8 44.6 90.4 44.1 91.1 43.6 91.6 43.1 92.1 42.7 92.2 42.4 92.3 42.3 93.5 42.2 94.8 41.6 95.4 41.1 96.1 40.2 96.7 39.3 97.4 37.8 97.3 36.3 97.2 35.6 96.6 34.9 96.1 34.4 95.6 33.9 95.1 33.4 94.6 32.9 94.1 32.4 93.6 31.9 93.1 31.4 92.6 30.9 92.1 30.3 91.4 29.7 90.7 29.3 89.9 28.9 89 28.3 88.2 27.6 87.3 27.6 86.2 27.5 85 27.5 84 27.5 83 27.7 81.6 27.8 80.3 28.2 80 28.6 79.7 28.7 78.5 28.8 77.3 29.9 76.1 30.9 74.9 31.1 74.8 31.2 74.7 31.4 74.6 31.6 74.6 31.7 74.5 31.9 74.5 32.1 74.5 32.3 74.5 32.4 74.6 32.6 74.6 32.8 74.7 32.9 74.8 33.1 74.9 33.2 75.1 33.3 75.2 33.4 75.4 33.4 75.6 33.5 75.7 33.5 75.9 33.5 76.1 33.5 76.3 33.4 76.4 33.4 76.6 33.3 76.8 33.2 76.9 33.1 77.1 33.1 77.1 Z" fill="rgb(0, 0, 0, 1)"/>
  <path d="M 40.5 85 Q 40.5 85 40.5 87 40.5 88.9 40.9 89.6 41.3 90.3 41.9 91.9 42.4 93.6 42.5 95.3 42.5 97 42.5 98 42.5 99 42.5 100 42.5 101 42.5 101.2 42.5 101.4 42.4 101.5 42.3 101.7 42.2 101.8 42.1 102 42 102.1 41.9 102.2 41.7 102.3 41.5 102.4 41.4 102.4 41.2 102.5 41 102.5 40.8 102.5 40.6 102.4 40.5 102.4 40.3 102.3 40.1 102.2 40 102.1 39.9 102 39.8 101.8 39.7 101.7 39.6 101.5 39.5 101.4 39.5 101.2 39.5 101 39.5 100 39.5 99 39.6 98.2 39.6 97.3 39.2 97 38.8 96.8 38.7 95.4 38.5 94 38.5 93 38.5 92.1 38.1 91.3 37.6 90.6 37.6 89.5 37.6 88.3 37.2 88 36.8 87.8 36.9 86.9 36.9 86.1 36.8 85.9 36.7 85.8 36.6 85.6 36.6 85.4 36.5 85.3 36.5 85.1 36.5 84.9 36.5 84.7 36.6 84.6 36.6 84.4 36.7 84.2 36.8 84.1 36.9 83.9 37.1 83.8 37.2 83.7 37.4 83.6 37.6 83.6 37.7 83.5 37.9 83.5 38.1 83.5 38.3 83.5 38.4 83.6 38.6 83.6 38.8 83.7 38.9 83.8 39.1 83.9 39.3 85.5 39.5 87 39.5 88 39.5 89 39.5 90 39.5 91 39.4 92.3 39.4 93.7 39.8 94 40.2 94.3 40.3 95.5 40.4 96.7 40.8 97 41.2 97.3 41.6 98.6 42.1 99.9 42.2 100.1 42.3 100.3 42.4 100.6 42.5 100.8 42.5 101 42.5 101.3 42.4 101.5 42.3 101.7 42.2 101.9 42 102.1 41.8 102.2 41.6 102.4 41.4 102.4 41.1 102.5 40.9 102.5 40.6 102.5 40.4 102.4 40.2 102.3 40 102.1 39.8 101.9 39.7 101.7 39.6 101.5 39.5 101.3 39.5 101 39.5 100.8 39.6 100.6 39.7 100.3 39.8 100.1 40 100 40.1 99.8 40.3 99.7 40.6 99.6 40.8 99.5 41 99.5 41.3 99.5 41.5 99.6 41.7 99.7 41.9 99.8 42.1 100 42.3 100.2 42.4 100.4 42.5 100.6 42.5 100.9 42.5 101.1 42.4 101.4 42.4 101.6 42.2 101.8 42.1 102 41.9 102.2 41.7 102.3 41.5 102.4 41.3 102.5 41 102.5 40.8 102.5 40.6 102.4 40.3 102.3 40.1 102.2 39.9 102.1 39.9 102.1 39.9 102.1 39.4 100.4 38.8 98.8 38.2 98 37.6 97.3 37.7 96.5 37.8 95.8 37.2 95 36.6 94.3 36.6 92.7 36.5 91 36.5 90 36.5 89 36.5 88 36.5 87 36.7 86.5 36.9 86.1 36.8 85.9 36.7 85.8 36.6 85.6 36.6 85.4 36.5 85.3 36.5 85.1 36.5 84.9 36.5 84.7 36.6 84.6 36.6 84.4 36.7 84.2 36.8 84.1 36.9 83.9 37.1 83.8 37.2 83.7 37.4 83.6 37.6 83.6 37.7 83.5 37.9 83.5 38.1 83.5 38.3 83.5 38.4 83.6 38.6 83.6 38.8 83.7 38.9 83.8 39.1 83.9 39.1 85.1 39.2 86.3 39.8 87 40.4 87.7 40.4 88.5 40.4 89.4 40.9 90.7 41.5 91.9 41.5 93 41.5 94 41.3 94.6 41.2 95.3 41.8 96 42.4 96.7 42.4 97.8 42.5 99 42.5 100 42.5 101 42.5 101.2 42.5 101.4 42.4 101.5 42.3 101.7 42.2 101.8 42.1 102 42 102.1 41.9 102.2 41.7 102.3 41.5 102.4 41.4 102.4 41.2 102.5 41 102.5 40.8 102.5 40.6 102.4 40.5 102.4 40.3 102.3 40.1 102.2 40 102.1 39.9 102 39.8 101.8 39.7 101.7 39.6 101.5 39.5 101.4 39.5 101.2 39.5 101 39.5 100 39.5 99 39.5 98 39.5 97 39.5 95.7 39.6 94.5 39.1 93.1 38.7 91.7 38.1 90.4 37.5 89.1 37.5 87 37.5 85 37.5 84.8 37.5 84.6 37.6 84.5 37.7 84.3 37.8 84.2 37.9 84 38 83.9 38.1 83.8 38.3 83.7 38.5 83.6 38.6 83.6 38.8 83.5 39 83.5 39.2 83.5 39.4 83.6 39.5 83.6 39.7 83.7 39.9 83.8 40 83.9 40.1 84 40.2 84.2 40.3 84.3 40.4 84.5 40.5 84.6 40.5 84.8 40.5 85 40.5 85 Z" fill="rgb(0, 0, 0, 1)"/>
  <path d="M 13.1 60.9 Q 13.1 60.9 13.2 61.1 13.3 61.3 13.4 61.6 13.5 61.8 13.5 62 13.5 62.3 13.4 62.5 13.3 62.7 13.2 62.9 13 63.1 12.8 63.2 12.6 63.4 12.4 63.4 12.1 63.5 11.9 63.5 11.6 63.5 11.4 63.4 11.2 63.3 11 63.1 10.8 62.9 10.7 62.7 10.6 62.5 10.5 62.3 10.5 62 10.5 61.8 10.6 61.6 10.7 61.3 10.8 61.1 11 61 11.1 60.8 11.3 60.7 11.6 60.6 11.8 60.5 12 60.5 12.3 60.5 12.5 60.6 12.7 60.7 12.9 60.8 13.1 61 13.3 61.2 13.4 61.4 13.5 61.6 13.5 61.9 13.5 62.1 13.4 62.4 13.4 62.6 13.2 62.8 13.1 63 12.9 63.2 12.7 63.3 12.5 63.4 12.3 63.5 12 63.5 11.8 63.5 11.6 63.4 11.3 63.3 11.1 63.2 10.9 63.1 10.9 63.1 10.9 63.1 10.7 63 10.4 63 10.2 62.9 10 62.8 9.8 62.6 9.6 62.5 9.4 62.3 9.3 62.1 9.2 61.9 9.1 61.7 9 61.4 8.9 61.2 9 60.9 9 60.7 9 60.5 9.1 60.2 9.2 60 9.3 59.8 9.5 59.6 9.7 59.4 9.9 59.3 10.1 59.1 10.3 59.1 10.6 59 10.8 59 11.1 58.9 12.1 59.9 Z" fill="rgb(0, 0, 0, 1)"/>
  <path d="M 22.1 58.9 Q 22.1 58.9 22.2 59.1 22.3 59.3 22.4 59.6 22.5 59.8 22.5 60 22.5 60.3 22.4 60.5 22.3 60.7 22.2 60.9 22 61.1 21.8 61.2 21.6 61.4 21.4 61.4 21.1 61.5 20.9 61.5 20.6 61.5 20.4 61.4 20.2 61.3 20 61.1 19.8 60.9 19.7 60.7 19.6 60.5 19.5 60.3 19.5 60 19.5 59.8 19.6 59.6 19.7 59.3 19.8 59.1 20 59 20.1 58.8 20.3 58.7 20.6 58.6 20.8 58.5 21 58.5 21.3 58.5 21.5 58.6 21.7 58.7 21.9 58.8 22.1 59 22.3 59.2 22.4 59.4 22.5 59.6 22.5 59.9 22.5 60.1 22.4 60.4 22.4 60.6 22.2 60.8 22.1 61 21.9 61.2 21.7 61.3 21.5 61.4 21.3 61.5 21 61.5 20.8 61.5 20.6 61.4 20.3 61.3 20.1 61.2 19.9 61.1 19.9 61.1 19.9 61.1 19.7 61 19.4 61 19.2 60.9 19 60.8 18.8 60.6 18.6 60.5 18.4 60.3 18.3 60.1 18.2 59.9 18.1 59.7 18 59.4 17.9 59.2 18 58.9 18 58.7 18 58.5 18.1 58.2 18.2 58 18.3 57.8 18.5 57.6 18.7 57.4 18.9 57.3 19.1 57.1 19.3 57.1 19.6 57 19.8 57 20.1 56.9 21.1 57.9 Z" fill="rgb(0, 0, 0, 1)"/>
  <path d="M 40.1 56.9 Q 40.1 56.9 40.2 57.1 40.3 57.3 40.4 57.6 40.5 57.8 40.5 58 40.5 58.3 40.4 58.5 40.3 58.7 40.2 58.9 40 59.1 39.8 59.2 39.6 59.4 39.4 59.4 39.1 59.5 38.9 59.5 38.6 59.5 38.4 59.4 38.2 59.3 38 59.1 37.8 58.9 37.7 58.7 37.6 58.5 37.5 58.3 37.5 58 37.5 57.8 37.6 57.6 37.7 57.3 37.8 57.1 38 57 38.1 56.8 38.3 56.7 38.6 56.6 38.8 56.5 39 56.5 39.3 56.5 39.5 56.6 39.7 56.7 39.9 56.8 40.1 57 40.3 57.2 40.4 57.4 40.5 57.6 40.5 57.9 40.5 58.1 40.4 58.4 40.4 58.6 40.2 58.8 40.1 59 39.9 59.2 39.7 59.3 39.5 59.4 39.3 59.5 39 59.5 38.8 59.5 38.6 59.4 38.3 59.3 38.1 59.2 37.9 59.1 37.9 59.1 37.9 59.1 37.7 59 37.4 59 37.2 58.9 37 58.8 36.8 58.6 36.6 58.5 36.4 58.3 36.3 58.1 36.2 57.9 36.1 57.7 36 57.4 35.9 57.2 36 56.9 36 56.7 36 56.5 36.1 56.2 36.2 56 36.3 55.8 36.5 55.6 36.7 55.4 36.9 55.3 37.1 55.1 37.3 55.1 37.6 55 37.8 55 38.1 54.9 39.1 55.9 Z" fill="rgb(0, 0, 0, 1)"/>
  <path d="M 58.1 55.9 Q 58.1 55.9 58.2 56.1 58.3 56.3 58.4 56.6 58.5 56.8 58.5 57 58.5 57.3 58.4 57.5 58.3 57.7 58.2 57.9 58 58.1 57.8 58.2 57.6 58.4 57.4 58.4 57.1 58.5 56.9 58.5 56.6 58.5 56.4 58.4 56.2 58.3 56 58.1 55.8 57.9 55.7 57.7 55.6 57.5 55.5 57.3 55.5 57 55.5 56.8 55.6 56.6 55.7 56.3 55.8 56.1 56 56 56.1 55.8 56.3 55.7 56.6 55.6 56.8 55.5 57 55.5 57.3 55.5 57.5 55.6 57.7 55.7 57.9 55.8 58.1 56 58.3 56.2 58.4 56.4 58.5 56.6 58.5 56.9 58.5 57.1 58.4 57.4 58.4 57.6 58.2 57.8 58.1 58 57.9 58.2 57.7 58.3 57.5 58.4 57.3 58.5 57 58.5 56.8 58.5 56.6 58.4 56.3 58.3 56.1 58.2 55.9 58.1 55.9 58.1 55.9 58.1 55.7 58 55.4 58 55.2 57.9 55 57.8 54.8 57.6 54.6 57.5 54.4 57.3 54.3 57.1 54.2 56.9 54.1 56.7 54 56.4 53.9 56.2 54 55.9 54 55.7 54 55.5 54.1 55.2 54.2 55 54.3 54.8 54.5 54.6 54.7 54.4 54.9 54.3 55.1 54.1 55.3 54.1 55.6 54 55.8 54 56.1 53.9 57.1 54.9 Z" fill="rgb(0, 0, 0, 1)"/>
  <path d="M 65.1 64.9 Q 65.1 64.9 65.2 65.1 65.3 65.3 65.4 65.6 65.5 65.8 65.5 66 65.5 66.3 65.4 66.5 65.3 66.7 65.2 66.9 65 67.1 64.8 67.2 64.6 67.4 64.4 67.4 64.1 67.5 63.9 67.5 63.6 67.5 63.4 67.4 63.2 67.3 63 67.1 62.8 66.9 62.7 66.7 62.6 66.5 62.5 66.3 62.5 66 62.5 65.8 62.6 65.6 62.7 65.3 62.8 65.1 63 65 63.1 64.8 63.3 64.7 63.6 64.6 63.8 64.5 64 64.5 64.3 64.5 64.5 64.6 64.7 64.7 64.9 64.8 65.1 65 65.3 65.2 65.4 65.4 65.5 65.6 65.5 65.9 65.5 66.1 65.4 66.4 65.4 66.6 65.2 66.8 65.1 67 64.9 67.2 64.7 67.3 64.5 67.4 64.3 67.5 64 67.5 63.8 67.5 63.6 67.4 63.3 67.3 63.1 67.2 62.9 67.1 62.9 67.1 62.9 67.1 62.7 67 62.4 67 62.2 66.9 62 66.8 61.8 66.6 61.6 66.5 61.4 66.3 61.3 66.1 61.2 65.9 61.1 65.7 61 65.4 60.9 65.2 61 64.9 61 64.7 61 64.5 61.1 64.2 61.2 64 61.3 63.8 61.5 63.6 61.7 63.4 61.9 63.3 62.1 63.1 62.3 63.1 62.6 63 62.8 63 63.1 62.9 64.1 63.9 Z" fill="rgb(0, 0, 0, 1)"/>
  <path d="M 65.1 81.9 Q 65.1 81.9 65.2 82.1 65.3 82.3 65.4 82.6 65.5 82.8 65.5 83 65.5 83.3 65.4 83.5 65.3 83.7 65.2 83.9 65 84.1 64.8 84.2 64.6 84.4 64.4 84.4 64.1 84.5 63.9 84.5 63.6 84.5 63.4 84.4 63.2 84.3 63 84.1 62.8 83.9 62.7 83.7 62.6 83.5 62.5 83.3 62.5 83 62.5 82.8 62.6 82.6 62.7 82.3 62.8 82.1 63 82 63.1 81.8 63.3 81.7 63.6 81.6 63.8 81.5 64 81.5 64.3 81.5 64.5 81.6 64.7 81.7 64.9 81.8 65.1 82 65.3 82.2 65.4 82.4 65.5 82.6 65.5 82.9 65.5 83.1 65.4 83.4 65.4 83.6 65.2 83.8 65.1 84 64.9 84.2 64.7 84.3 64.5 84.4 64.3 84.5 64 84.5 63.8 84.5 63.6 84.4 63.3 84.3 63.1 84.2 62.9 84.1 62.9 84.1 62.9 84.1 62.7 84 62.4 84 62.2 83.9 62 83.8 61.8 83.6 61.6 83.5 61.4 83.3 61.3 83.1 61.2 82.9 61.1 82.7 61 82.4 60.9 82.2 61 81.9 61 81.7 61 81.5 61.1 81.2 61.2 81 61.3 80.8 61.5 80.6 61.7 80.4 61.9 80.3 62.1 80.1 62.3 80.1 62.6 80 62.8 80 63.1 79.9 64.1 80.9 Z" fill="rgb(0, 0, 0, 1)"/>
  <path d="M 68.1 100.9 Q 68.1 100.9 68.2 101.1 68.3 101.3 68.4 101.6 68.5 101.8 68.5 102 68.5 102.3 68.4 102.5 68.3 102.7 68.2 102.9 68 103.1 67.8 103.2 67.6 103.4 67.4 103.4 67.1 103.5 66.9 103.5 66.6 103.5 66.4 103.4 66.2 103.3 66 103.1 65.8 102.9 65.7 102.7 65.6 102.5 65.5 102.3 65.5 102 65.5 101.8 65.6 101.6 65.7 101.3 65.8 101.1 66 101 66.1 100.8 66.3 100.7 66.6 100.6 66.8 100.5 67 100.5 67.3 100.5 67.5 100.6 67.7 100.7 67.9 100.8 68.1 101 68.3 101.2 68.4 101.4 68.5 101.6 68.5 101.9 68.5 102.1 68.4 102.4 68.4 102.6 68.2 102.8 68.1 103 67.9 103.2 67.7 103.3 67.5 103.4 67.3 103.5 67 103.5 66.8 103.5 66.6 103.4 66.3 103.3 66.1 103.2 65.9 103.1 65.9 103.1 65.9 103.1 65.7 103 65.4 103 65.2 102.9 65 102.8 64.8 102.6 64.6 102.5 64.4 102.3 64.3 102.1 64.2 101.9 64.1 101.7 64 101.4 63.9 101.2 64 100.9 64 100.7 64 100.5 64.1 100.2 64.2 100 64.3 99.8 64.5 99.6 64.7 99.4 64.9 99.3 65.1 99.1 65.3 99.1 65.6 99 65.8 99 66.1 98.9 67.1 99.9 Z" fill="rgb(0, 0, 0, 1)"/>
  <path d="M 70.1 112.9 Q 70.1 112.9 70.2 113.1 70.3 113.3 70.4 113.6 70.5 113.8 70.5 114 70.5 114.3 70.4 114.5 70.3 114.7 70.2 114.9 70 115.1 69.8 115.2 69.6 115.4 69.4 115.4 69.1 115.5 68.9 115.5 68.6 115.5 68.4 115.4 68.2 115.3 68 115.1 67.8 114.9 67.7 114.7 67.6 114.5 67.5 114.3 67.5 114 67.5 113.8 67.6 113.6 67.7 113.3 67.8 113.1 68 113 68.1 112.8 68.3 112.7 68.6 112.6 68.8 112.5 69 112.5 69.3 112.5 69.5 112.6 69.7 112.7 69.9 112.8 70.1 113 70.3 113.2 70.4 113.4 70.5 113.6 70.5 113.9 70.5 114.1 70.4 114.4 70.4 114.6 70.2 114.8 70.1 115 69.9 115.2 69.7 115.3 69.5 115.4 69.3 115.5 69 115.5 68.8 115.5 68.6 115.4 68.3 115.3 68.1 115.2 67.9 115.1 67.9 115.1 67.9 115.1 67.7 115 67.4 115 67.2 114.9 67 114.8 66.8 114.6 66.6 114.5 66.4 114.3 66.3 114.1 66.2 113.9 66.1 113.7 66 113.4 65.9 113.2 66 112.9 66 112.7 66 112.5 66.1 112.2 66.2 112 66.3 111.8 66.5 111.6 66.7 111.4 66.9 111.3 67.1 111.1 67.3 111.1 67.6 111 67.8 111 68.1 110.9 69.1 111.9 Z" fill="rgb(0, 0, 0, 1)"/>
  <path d="M 52.1 113.9 Q 52.1 113.9 52.2 114.1 52.3 114.3 52.4 114.6 52.5 114.8 52.5 115 52.5 115.3 52.4 115.5 52.3 115.7 52.2 115.9 52 116.1 51.8 116.2 51.6 116.4 51.4 116.4 51.1 116.5 50.9 116.5 50.6 116.5 50.4 116.4 50.2 116.3 50 116.1 49.8 115.9 49.7 115.7 49.6 115.5 49.5 115.3 49.5 115 49.5 114.8 49.6 114.6 49.7 114.3 49.8 114.1 50 114 50.1 113.8 50.3 113.7 50.6 113.6 50.8 113.5 51 113.5 51.3 113.5 51.5 113.6 51.7 113.7 51.9 113.8 52.1 114 52.3 114.2 52.4 114.4 52.5 114.6 52.5 114.9 52.5 115.1 52.4 115.4 52.4 115.6 52.2 115.8 52.1 116 51.9 116.2 51.7 116.3 51.5 116.4 51.3 116.5 51 116.5 50.8 116.5 50.6 116.4 50.3 116.3 50.1 116.2 49.9 116.1 49.9 116.1 49.9 116.1 49.7 116 49.4 116 49.2 115.9 49 115.8 48.8 115.6 48.6 115.5 48.4 115.3 48.3 115.1 48.2 114.9 48.1 114.7 48 114.4 47.9 114.2 48 113.9 48 113.7 48 113.5 48.1 113.2 48.2 113 48.3 112.8 48.5 112.6 48.7 112.4 48.9 112.3 49.1 112.1 49.3 112.1 49.6 112 49.8 112 50.1 111.9 51.1 112.9 Z" fill="rgb(0, 0, 0, 1)"/>
  <path d="M 31.1 114.9 Q 31.1 114.9 31.2 115.1 31.3 115.3 31.4 115.6 31.5 115.8 31.5 116 31.5 116.3 31.4 116.5 31.3 116.7 31.2 116.9 31 117.1 30.8 117.2 30.6 117.4 30.4 117.4 30.1 117.5 29.9 117.5 29.6 117.5 29.4 117.4 29.2 117.3 29 117.1 28.8 116.9 28.7 116.7 28.6 116.5 28.5 116.3 28.5 116 28.5 115.8 28.6 115.6 28.7 115.3 28.8 115.1 29 115 29.1 114.8 29.3 114.7 29.6 114.6 29.8 114.5 30 114.5 30.3 114.5 30.5 114.6 30.7 114.7 30.9 114.8 31.1 115 31.3 115.2 31.4 115.4 31.5 115.6 31.5 115.9 31.5 116.1 31.4 116.4 31.4 116.6 31.2 116.8 31.1 117 30.9 117.2 30.7 117.3 30.5 117.4 30.3 117.5 30 117.5 29.8 117.5 29.6 117.4 29.3 117.3 29.1 117.2 28.9 117.1 28.9 117.1 28.9 117.1 28.7 117 28.4 117 28.2 116.9 28 116.8 27.8 116.6 27.6 116.5 27.4 116.3 27.3 116.1 27.2 115.9 27.1 115.7 27 115.4 26.9 115.2 27 114.9 27 114.7 27 114.5 27.1 114.2 27.2 114 27.3 113.8 27.5 113.6 27.7 113.4 27.9 113.3 28.1 113.1 28.3 113.1 28.6 113 28.8 113 29.1 112.9 30.1 113.9 Z" fill="rgb(0, 0, 0, 1)"/>
  <path d="M 18.1 114.9 Q 18.1 114.9 18.2 115.1 18.3 115.3 18.4 115.6 18.5 115.8 18.5 116 18.5 116.3 18.4 116.5 18.3 116.7 18.2 116.9 18 117.1 17.8 117.2 17.6 117.4 17.4 117.4 17.1 117.5 16.9 117.5 16.6 117.5 16.4 117.4 16.2 117.3 16 117.1 15.8 116.9 15.7 116.7 15.6 116.5 15.5 116.3 15.5 116 15.5 115.8 15.6 115.6 15.7 115.3 15.8 115.1 16 115 16.1 114.8 16.3 114.7 16.6 114.6 16.8 114.5 17 114.5 17.3 114.5 17.5 114.6 17.7 114.7 17.9 114.8 18.1 115 18.3 115.2 18.4 115.4 18.5 115.6 18.5 115.9 18.5 116.1 18.4 116.4 18.4 116.6 18.2 116.8 18.1 117 17.9 117.2 17.7 117.3 17.5 117.4 17.3 117.5 17 117.5 16.8 117.5 16.6 117.4 16.3 117.3 16.1 117.2 15.9 117.1 15.9 117.1 15.9 117.1 15.7 117 15.4 117 15.2 116.9 15 116.8 14.8 116.6 14.6 116.5 14.4 116.3 14.3 116.1 14.2 115.9 14.1 115.7 14 115.4 13.9 115.2 14 114.9 14 114.7 14 114.5 14.1 114.2 14.2 114 14.3 113.8 14.5 113.6 14.7 113.4 14.9 113.3 15.1 113.1 15.3 113.1 15.6 113 15.8 113 16.1 112.9 17.1 113.9 Z" fill="rgb(0, 0, 0, 1)"/>
  <path d="M 17.1 98.9 Q 17.1 98.9 17.2 99.1 17.3 99.3 17.4 99.6 17.5 99.8 17.5 100 17.5 100.3 17.4 100.5 17.3 100.7 17.2 100.9 17 101.1 16.8 101.2 16.6 101.4 16.4 101.4 16.1 101.5 15.9 101.5 15.6 101.5 15.4 101.4 15.2 101.3 15 101.1 14.8 100.9 14.7 100.7 14.6 100.5 14.5 100.3 14.5 100 14.5 99.8 14.6 99.6 14.7 99.3 14.8 99.1 15 99 15.1 98.8 15.3 98.7 15.6 98.6 15.8 98.5 16 98.5 16.3 98.5 16.5 98.6 16.7 98.7 16.9 98.8 17.1 99 17.3 99.2 17.4 99.4 17.5 99.6 17.5 99.9 17.5 100.1 17.4 100.4 17.4 100.6 17.2 100.8 17.1 101 16.9 101.2 16.7 101.3 16.5 101.4 16.3 101.5 16 101.5 15.8 101.5 15.6 101.4 15.3 101.3 15.1 101.2 14.9 101.1 14.9 101.1 14.9 101.1 14.7 101 14.4 101 14.2 100.9 14 100.8 13.8 100.6 13.6 100.5 13.4 100.3 13.3 100.1 13.2 99.9 13.1 99.7 13 99.4 12.9 99.2 13 98.9 13 98.7 13 98.5 13.1 98.2 13.2 98 13.3 97.8 13.5 97.6 13.7 97.4 13.9 97.3 14.1 97.1 14.3 97.1 14.6 97 14.8 97 15.1 96.9 16.1 97.9 Z" fill="rgb(0, 0, 0, 1)"/>
  <path d="M 14.1 79.9 Q 14.1 79.9 14.2 80.1 14.3 80.3 14.4 80.6 14.5 80.8 14.5 81 14.5 81.3 14.4 81.5 14.3 81.7 14.2 81.9 14 82.1 13.8 82.2 13.6 82.4 13.4 82.4 13.1 82.5 12.9 82.5 12.6 82.5 12.4 82.4 12.2 82.3 12 82.1 11.8 81.9 11.7 81.7 11.6 81.5 11.5 81.3 11.5 81 11.5 80.8 11.6 80.6 11.7 80.3 11.8 80.1 12 80 12.1 79.8 12.3 79.7 12.6 79.6 12.8 79.5 13 79.5 13.3 79.5 13.5 79.6 13.7 79.7 13.9 79.8 14.1 80 14.3 80.2 14.4 80.4 14.5 80.6 14.5 80.9 14.5 81.1 14.4 81.4 14.4 81.6 14.2 81.8 14.1 82 13.9 82.2 13.7 82.3 13.5 82.4 13.3 82.5 13 82.5 12.8 82.5 12.6 82.4 12.3 82.3 12.1 82.2 11.9 82.1 11.9 82.1 11.9 82.1 11.7 82 11.4 82 11.2 81.9 11 81.8 10.8 81.6 10.6 81.5 10.4 81.3 10.3 81.1 10.2 80.9 10.1 80.7 10 80.4 9.9 80.2 10 79.9 10 79.7 10 79.5 10.1 79.2 10.2 79 10.3 78.8 10.5 78.6 10.7 78.4 10.9 78.3 11.1 78.1 11.3 78.1 11.6 78 11.8 78 12.1 77.9 13.1 78.9 Z" fill="rgb(0, 0, 0, 1)"/>
  <path d="M 3.2 51.8 Q 3.2 51.8 4.7 50.8 6.2 49.8 6.6 49.3 7 48.9 8.1 48.3 9.3 47.7 9.6 47.3 9.9 46.9 10.4 46.4 11 45.9 12.1 45.3 13.3 44.7 13.8 44.2 14.3 43.8 15.6 43.7 16.9 43.5 17.6 43.1 18.3 42.7 18.6 42.3 19 41.9 20.1 41.3 21.3 40.7 21.8 40.2 22.3 39.8 23.5 39.7 24.7 39.6 26.3 39.1 28 38.5 28.2 38.5 28.5 38.6 28.7 38.7 28.9 38.8 29.1 39 29.2 39.2 29.3 39.4 29.4 39.6 29.5 39.8 29.5 40.1 29.4 40.3 29.4 40.6 29.3 40.8 29.1 41 29 41.1 28.8 41.3 28.5 41.4 28.3 41.5 28.1 41.5 27.8 41.5 27.6 41.4 27.4 41.4 27.2 41.2 27 41.1 26.8 40.9 26.7 40.7 26.6 40.5 26.5 40.2 26.5 40 26.5 39.8 26.6 39.5 26.7 39.3 26.8 39.1 27 38.9 27.2 38.8 27.4 38.6 27.6 38.6 27.8 38.5 28.1 38.5 28.3 38.5 28.5 38.6 28.8 38.7 29 38.9 29.1 39 29.3 39.2 29.4 39.4 29.4 39.7 29.5 39.9 29.5 40.2 29.4 40.4 29.3 40.6 29.2 40.8 29.1 41 28.9 41.2 28.7 41.3 28.5 41.4 28.2 41.5 28 41.5 28 41.5 28 41.5 26.7 41.9 25.3 42.4 24.5 42.3 23.8 42.2 23.2 42.8 22.7 43.3 21.9 43.7 21 44.1 20.4 44.7 19.7 45.3 18.4 45.9 17.1 46.5 16.4 46.3 15.8 46.2 15.2 46.8 14.7 47.3 13.9 47.7 13 48.1 12.6 48.6 12.1 49.1 11.4 49.7 10.7 50.3 9.9 50.7 9 51.1 8.4 51.7 7.8 52.2 6.3 53.2 4.8 54.2 4.7 54.3 4.5 54.4 4.3 54.5 4.2 54.5 4 54.5 3.8 54.5 3.6 54.4 3.4 54.4 3.3 54.3 3.1 54.2 3 54.1 2.9 54 2.8 53.8 2.7 53.7 2.6 53.5 2.5 53.3 2.5 53.2 2.5 53 2.5 52.8 2.5 52.6 2.6 52.4 2.7 52.3 2.8 52.1 2.9 52 3 51.9 3.2 51.8 3.2 51.8 Z" fill="rgb(0, 0, 0, 1)"/>
  <path d="M 65.8 48.2 Q 65.8 48.2 66.8 46.7 67.8 45.2 68.3 44.6 68.9 43.9 69.4 43.4 69.9 42.9 71.4 41.4 72.9 39.9 73.1 39.8 73.3 39.7 73.6 39.6 73.8 39.5 74 39.5 74.3 39.5 74.5 39.6 74.7 39.7 74.9 39.8 75.1 40 75.2 40.2 75.4 40.4 75.4 40.6 75.5 40.9 75.5 41.1 75.5 41.4 75.4 41.6 75.3 41.8 75.1 42 74.9 42.2 74.7 42.3 74.5 42.4 74.3 42.5 74 42.5 73.8 42.5 73.6 42.4 73.3 42.3 73.1 42.2 73 42 72.8 41.9 72.7 41.7 72.6 41.4 72.5 41.2 72.5 41 72.5 40.7 72.6 40.5 72.7 40.3 72.8 40.1 73 39.9 73.2 39.7 73.4 39.6 73.6 39.5 73.9 39.5 74.1 39.5 74.4 39.6 74.6 39.6 74.8 39.8 75 39.9 75.2 40.1 75.3 40.3 75.4 40.5 75.5 40.7 75.5 41 75.5 41.2 75.4 41.4 75.3 41.7 75.2 41.9 75.1 42.1 75.1 42.1 75.1 42.1 73.6 43.6 72.1 45.1 71.6 45.6 71.1 46.1 70.7 46.4 70.2 46.8 69.2 48.3 68.2 49.8 68.1 50 68 50.1 67.9 50.2 67.7 50.3 67.6 50.4 67.4 50.5 67.2 50.5 67 50.5 66.8 50.5 66.7 50.5 66.5 50.4 66.3 50.3 66.2 50.2 66 50.1 65.9 50 65.8 49.9 65.7 49.7 65.6 49.6 65.6 49.4 65.5 49.2 65.5 49 65.5 48.8 65.5 48.7 65.6 48.5 65.7 48.3 65.8 48.2 65.8 48.2 Z" fill="rgb(0, 0, 0, 1)"/>
  <path d="M 23 37.5 Q 23 37.5 25.5 37.5 28 37.5 29.5 37.5 31 37.5 32.5 37.5 34 37.5 36 37.5 38 37.5 40.5 37.5 43 37.5 45.4 37 47.7 36.5 49.4 36.5 51 36.5 52.5 36.5 54 36.5 55 36.5 56 36.5 57.3 36 58.6 35.6 60.3 35.5 62 35.5 63.5 35.5 65 35.5 66.5 35.5 68 35.5 69 35.5 70 35.5 71 35.5 72 35.5 73 35.5 74 35.5 76 35.5 78 35.5 78.2 35.5 78.5 35.6 78.7 35.7 78.9 35.8 79.1 36 79.2 36.2 79.3 36.4 79.4 36.6 79.5 36.8 79.5 37.1 79.4 37.3 79.4 37.6 79.3 37.8 79.1 38 79 38.1 78.8 38.3 78.5 38.4 78.3 38.5 78.1 38.5 77.8 38.5 77.6 38.4 77.4 38.4 77.2 38.2 77 38.1 76.8 37.9 76.7 37.7 76.6 37.5 76.5 37.2 76.5 37 76.5 36.8 76.6 36.5 76.7 36.3 76.8 36.1 77 35.9 77.2 35.8 77.4 35.6 77.6 35.6 77.8 35.5 78.1 35.5 78.3 35.5 78.5 35.6 78.8 35.7 79 35.9 79.1 36 79.3 36.2 79.4 36.4 79.4 36.7 79.5 36.9 79.5 37.2 79.4 37.4 79.3 37.6 79.2 37.8 79.1 38 78.9 38.2 78.7 38.3 78.5 38.4 78.2 38.5 78 38.5 78 38.5 78 38.5 76 38.5 74 38.5 73 38.5 72 38.5 71 38.5 70 38.5 69 38.5 68 38.5 66.5 38.5 65 38.5 63.5 38.5 62 38.5 60.7 38.5 59.5 38.4 57.7 39 56 39.5 55 39.5 54 39.5 52.5 39.5 51 39.5 49.6 39.5 48.3 39.5 45.6 40 43 40.5 40.5 40.5 38 40.5 36 40.5 34 40.5 32.5 40.5 31 40.5 29.5 40.5 28 40.5 25.5 40.5 23 40.5 22.8 40.5 22.6 40.5 22.5 40.4 22.3 40.3 22.2 40.2 22 40.1 21.9 40 21.8 39.9 21.7 39.7 21.6 39.5 21.6 39.4 21.5 39.2 21.5 39 21.5 38.8 21.6 38.6 21.6 38.5 21.7 38.3 21.8 38.1 21.9 38 22 37.9 22.2 37.8 22.3 37.7 22.5 37.6 22.6 37.5 22.8 37.5 23 37.5 23 37.5 Z" fill="rgb(0, 0, 0, 1)"/>
  <path d="M 77.4 37.5 Q 77.4 37.5 77.9 39 78.4 40.6 78.5 41.8 78.5 43 78.5 44 78.5 45 78.5 46 78.5 47 78.5 48 78.5 48.9 78.9 49.7 79.4 50.4 79.4 52.2 79.5 54 79.5 55 79.5 56 80 57.3 80.4 58.6 80.5 59.7 80.5 60.9 80.9 61.7 81.4 62.4 81.4 64 81.4 65.7 81.8 66 82.2 66.3 82.3 67.5 82.4 68.7 82.8 69 83.2 69.3 83.3 70.6 83.5 72 84 73.3 84.4 74.6 84.5 75.8 84.5 77 84.5 78 84.5 79 84.4 79.8 84.4 80.7 84.8 81 85.2 81.3 85.3 83.6 85.5 86 85.5 86.2 85.4 86.5 85.3 86.7 85.2 86.9 85 87.1 84.8 87.2 84.6 87.3 84.4 87.4 84.2 87.5 83.9 87.5 83.7 87.4 83.4 87.4 83.2 87.3 83 87.1 82.9 87 82.7 86.8 82.6 86.5 82.5 86.3 82.5 86.1 82.5 85.8 82.6 85.6 82.6 85.4 82.8 85.2 82.9 85 83.1 84.8 83.3 84.7 83.5 84.6 83.8 84.5 84 84.5 84.2 84.5 84.5 84.6 84.7 84.7 84.9 84.8 85.1 85 85.2 85.2 85.4 85.4 85.4 85.6 85.5 85.8 85.5 86.1 85.5 86.3 85.4 86.5 85.3 86.8 85.1 87 85 87.1 84.8 87.3 84.6 87.4 84.3 87.4 84.1 87.5 83.8 87.5 83.6 87.4 83.4 87.3 83.2 87.2 83 87.1 82.8 86.9 82.7 86.7 82.6 86.5 82.5 86.2 82.5 86 82.5 86 82.5 86 82.7 84.4 82.8 82.8 82.2 82 81.6 81.3 81.6 80.2 81.5 79 81.5 78 81.5 77 81.5 76.2 81.6 75.5 81 73.7 80.5 72 80.7 71.4 80.8 70.8 80.2 70 79.6 69.3 79.7 68.5 79.8 67.8 79.2 67 78.6 66.3 78.6 65 78.6 63.6 78.1 62.3 77.5 61.1 77.5 60.3 77.6 59.5 77 57.7 76.5 56 76.5 55 76.5 54 76.6 52.8 76.6 51.6 76.1 50.3 75.5 49.1 75.5 48 75.5 47 75.5 46 75.5 45 75.5 44 75.5 43 75.5 42.2 75.6 41.5 75.1 40 74.6 38.5 74.5 38.3 74.5 38.1 74.5 37.9 74.5 37.8 74.6 37.6 74.6 37.4 74.7 37.3 74.8 37.1 74.9 37 75.1 36.8 75.2 36.7 75.4 36.6 75.5 36.6 75.7 36.5 75.9 36.5 76.1 36.5 76.2 36.5 76.4 36.6 76.6 36.6 76.8 36.7 76.9 36.8 77 36.9 77.2 37.1 77.3 37.2 77.3 37.4 77.4 37.5 77.4 37.5 Z" fill="rgb(0, 0, 0, 1)"/>
  <path d="M 75.6 114.5 Q 75.6 114.5 76.1 113 76.6 111.5 77.1 110.4 77.7 109.3 78.2 108.3 78.7 107.3 79.3 106.6 79.9 106 80.3 105.1 80.7 104.3 81.2 103.4 81.6 102.4 81.6 101.5 81.6 100.7 82.2 100 82.8 99.3 82.7 98.5 82.6 97.7 83.3 96.8 83.9 96 84.2 94.5 84.5 93 84.5 92.8 84.6 92.5 84.7 92.3 84.8 92.1 85 91.9 85.2 91.8 85.4 91.7 85.6 91.6 85.8 91.5 86.1 91.5 86.3 91.6 86.6 91.6 86.8 91.7 87 91.9 87.1 92 87.3 92.2 87.4 92.5 87.5 92.7 87.5 92.9 87.5 93.2 87.4 93.4 87.4 93.6 87.2 93.8 87.1 94 86.9 94.2 86.7 94.3 86.5 94.4 86.2 94.5 86 94.5 85.8 94.5 85.5 94.4 85.3 94.3 85.1 94.2 84.9 94 84.8 93.8 84.6 93.6 84.6 93.4 84.5 93.2 84.5 92.9 84.5 92.7 84.6 92.5 84.7 92.2 84.9 92 85 91.9 85.2 91.7 85.4 91.6 85.7 91.6 85.9 91.5 86.2 91.5 86.4 91.6 86.6 91.7 86.8 91.8 87 91.9 87.2 92.1 87.3 92.3 87.4 92.5 87.5 92.8 87.5 93 87.5 93 87.5 93 86.8 95.5 86.1 98 85.7 98.2 85.4 98.3 85.3 99.5 85.2 100.8 84.8 101 84.4 101.3 84.4 102.5 84.4 103.6 83.9 104.6 83.3 105.7 82.7 106.9 82.1 108 81.7 108.4 81.3 108.7 80.8 109.7 80.3 110.7 79.9 111.6 79.4 112.5 78.9 114 78.4 115.5 78.3 115.6 78.3 115.8 78.2 115.9 78 116.1 77.9 116.2 77.8 116.3 77.6 116.4 77.4 116.4 77.2 116.5 77.1 116.5 76.9 116.5 76.7 116.5 76.5 116.4 76.4 116.4 76.2 116.3 76.1 116.2 75.9 116 75.8 115.9 75.7 115.7 75.6 115.6 75.6 115.4 75.5 115.2 75.5 115.1 75.5 114.9 75.5 114.7 75.6 114.5 75.6 114.5 Z" fill="rgb(0, 0, 0, 1)"/>
  <path d="M 85.9 92.1 Q 85.9 92.1 84.9 90.9 83.8 89.8 83.7 88.4 83.5 87.1 83.1 86.3 82.6 85.6 82.6 84.3 82.5 83 82.5 81 82.5 79 82.5 78.8 82.6 78.5 82.7 78.3 82.8 78.1 83 77.9 83.2 77.8 83.4 77.7 83.6 77.6 83.8 77.5 84.1 77.5 84.3 77.6 84.6 77.6 84.8 77.7 85 77.9 85.1 78 85.3 78.2 85.4 78.5 85.5 78.7 85.5 78.9 85.5 79.2 85.4 79.4 85.4 79.6 85.2 79.8 85.1 80 84.9 80.2 84.7 80.3 84.5 80.4 84.2 80.5 84 80.5 83.8 80.5 83.5 80.4 83.3 80.3 83.1 80.2 82.9 80 82.8 79.8 82.6 79.6 82.6 79.4 82.5 79.2 82.5 78.9 82.5 78.7 82.6 78.5 82.7 78.2 82.9 78 83 77.9 83.2 77.7 83.4 77.6 83.7 77.6 83.9 77.5 84.2 77.5 84.4 77.6 84.6 77.7 84.8 77.8 85 77.9 85.2 78.1 85.3 78.3 85.4 78.5 85.5 78.8 85.5 79 85.5 79 85.5 79 85.5 81 85.5 83 85.4 83.7 85.4 84.4 85.9 85.7 86.5 86.9 86.3 87.6 86.2 88.3 87.1 89.1 88.1 89.9 88.2 90.1 88.3 90.2 88.4 90.4 88.4 90.6 88.5 90.7 88.5 90.9 88.5 91.1 88.5 91.3 88.4 91.4 88.4 91.6 88.3 91.8 88.2 91.9 88.1 92.1 87.9 92.2 87.8 92.3 87.6 92.4 87.4 92.4 87.3 92.5 87.1 92.5 86.9 92.5 86.7 92.5 86.6 92.4 86.4 92.4 86.2 92.3 86.1 92.2 85.9 92.1 85.9 92.1 Z" fill="rgb(0, 0, 0, 1)"/>
  <path d="M 85.5 46 Q 85.5 46 85.4 48.2 85.4 50.3 84.7 51.2 84.1 52.1 83.6 52.4 83.2 52.8 83.3 53.5 83.4 54.3 82.7 55.2 82.1 56.1 81.6 56.4 81.2 56.8 81.3 57.5 81.4 58.3 80.7 58.1 80.1 57.9 80.6 58.4 81.1 58.9 81.6 59.4 82.1 59.9 82.6 60.4 83 60.9 83.9 61.3 84.7 61.7 85.4 62.3 86.1 62.9 86.6 63.4 87 63.9 87.9 64.3 88.7 64.7 89.7 65.2 90.7 65.7 91.2 66.2 91.8 66.8 92.4 66.7 93.1 66.5 94.4 67.1 95.7 67.7 96.6 68.2 97.6 68.6 98.5 68.6 99.3 68.6 100.7 69.1 102 69.5 102.2 69.5 102.5 69.6 102.7 69.7 102.9 69.8 103.1 70 103.2 70.2 103.3 70.4 103.4 70.6 103.5 70.8 103.5 71.1 103.4 71.3 103.4 71.6 103.3 71.8 103.1 72 103 72.1 102.8 72.3 102.5 72.4 102.3 72.5 102.1 72.5 101.8 72.5 101.6 72.4 101.4 72.4 101.2 72.2 101 72.1 100.8 71.9 100.7 71.7 100.6 71.5 100.5 71.2 100.5 71 100.5 70.8 100.6 70.5 100.7 70.3 100.8 70.1 101 69.9 101.2 69.8 101.4 69.6 101.6 69.6 101.8 69.5 102.1 69.5 102.3 69.5 102.5 69.6 102.8 69.7 103 69.9 103.1 70 103.3 70.2 103.4 70.4 103.4 70.7 103.5 70.9 103.5 71.2 103.4 71.4 103.3 71.6 103.2 71.8 103.1 72 102.9 72.2 102.7 72.3 102.5 72.4 102.2 72.5 102 72.5 102 72.5 102 72.5 100.3 71.9 98.7 71.4 97.5 71.4 96.4 71.4 95.4 70.9 94.3 70.3 93.6 69.9 92.9 69.5 91.6 69.3 90.3 69.2 89.8 68.8 89.3 68.3 88.3 67.8 87.3 67.3 86.1 66.7 85 66.1 84.4 65.6 83.9 65.1 83.6 64.7 83.3 64.3 82.1 63.7 81 63.1 80.4 62.6 79.9 62.1 79.4 61.6 78.9 61.1 78.4 60.6 77.9 60.1 78.3 58.9 78.6 57.7 78.7 56.5 78.8 55.3 79.4 54.6 79.9 53.9 80.3 53.8 80.6 53.7 80.7 52.5 80.8 51.3 81.4 50.6 81.9 49.9 82.3 49.8 82.6 49.7 82.6 47.8 82.5 46 82.5 45.8 82.5 45.6 82.6 45.5 82.7 45.3 82.8 45.2 82.9 45 83 44.9 83.1 44.8 83.3 44.7 83.5 44.6 83.6 44.6 83.8 44.5 84 44.5 84.2 44.5 84.4 44.6 84.5 44.6 84.7 44.7 84.9 44.8 85 44.9 85.1 45 85.2 45.2 85.3 45.3 85.4 45.5 85.5 45.6 85.5 45.8 85.5 46 85.5 46 Z" fill="rgb(0, 0, 0, 1)"/>
  <path d="M 86.1 42.9 Q 86.1 42.9 87.1 43.9 88.1 45 88.7 46.1 89.3 47.3 89.8 48.3 90.3 49.3 93.3 54.3 96.3 59.2 96.7 59.7 97.2 60.3 97.3 61.5 97.4 62.7 98.2 63.3 99.1 64 99.7 65.7 100.4 67.5 100.7 67.7 101.1 68 101.7 69.1 102.3 70.3 102.7 70.6 103.1 70.9 103.6 71.6 104.2 72.3 104.3 73.5 104.4 74.7 104.7 74.8 105.1 74.9 105.6 75.6 106.2 76.3 106.3 77.5 106.4 78.7 106.7 78.8 107.1 78.9 107.6 79.4 108.1 80 108.7 81.2 109.4 82.4 109.4 83.5 109.4 84.7 109.7 84.8 110.1 85 110.7 86.2 111.4 87.4 110.9 87.9 110.3 88.3 110.4 88.5 110.5 88.7 110.5 88.8 110.5 89 110.5 89.2 110.4 89.4 110.4 89.6 110.3 89.7 110.2 89.9 110.1 90 110 90.1 109.8 90.3 109.7 90.3 109.5 90.4 109.3 90.5 109.2 90.5 109 90.5 108.8 90.5 108.6 90.4 108.4 90.4 108.3 90.3 108.1 90.2 108 90.1 107.9 90 107.8 89.8 107.7 89.7 107.7 89.7 107.7 89.7 107.6 89.4 107.5 89.2 107.5 89 107.5 88.7 107.6 88.5 107.7 88.3 107.8 88.1 108 87.9 108.2 87.8 108.4 87.6 108.6 87.6 108.9 87.5 109.1 87.5 109.4 87.5 109.6 87.6 109.8 87.7 110 87.9 110.2 88.1 110.3 88.3 110.4 88.5 110.5 88.7 110.5 89 110.5 89.2 110.4 89.4 110.3 89.7 110.2 89.9 110 90 109.9 90.2 109.7 90.3 109.4 90.4 109.2 90.5 109 90.5 108.7 90.5 108.5 90.4 108.3 90.3 108.1 90.2 107.9 90 107.7 89.8 107.6 89.6 107.5 89.4 107.5 89.1 107.5 88.9 107.6 88.6 107.6 88.4 107.8 88.2 107.9 88 108.1 87.8 108.3 87.7 108.5 87.6 108.7 87.5 109 87.5 109.2 87.5 109.4 87.6 109.7 87.7 109.9 87.8 110.1 87.9 110.2 88.1 110.3 88.3 110.4 88.5 110.5 88.7 110.5 88.8 110.5 89 110.5 89.2 110.4 89.4 110.4 89.6 110.3 89.7 110.2 89.9 110.1 90 110 90.1 109.8 90.3 109.7 90.3 109.5 90.4 109.3 90.5 109.2 90.5 109 90.5 108.8 90.5 108.6 90.4 108.4 90.4 108.3 90.3 108.1 90.2 108 90.1 107.9 90 107.8 89.8 107.7 89.7 108.2 89.1 108.6 88.6 108.3 87.8 107.9 87 107.3 86.2 106.6 85.3 106.6 84.5 106.6 83.6 106.3 82.8 105.9 82 105.4 81.6 104.9 81.1 104.3 80.2 103.6 79.3 103.7 78.5 103.8 77.8 103.4 77.4 102.9 77.1 102.3 76.2 101.6 75.3 101.7 74.5 101.8 73.8 101.4 73.4 100.9 73.1 100.3 72.4 99.7 71.7 99.3 70.9 98.9 70 98.3 69.3 97.6 68.5 97.3 67.3 96.9 66 95.8 64.7 94.6 63.3 94.7 62.5 94.8 61.8 94.3 61.3 93.7 60.8 90.7 55.7 87.7 50.7 87.2 49.7 86.7 48.7 86.3 47.9 85.9 47 84.9 46.1 83.9 45.1 83.8 44.9 83.7 44.8 83.6 44.6 83.6 44.4 83.5 44.3 83.5 44.1 83.5 43.9 83.5 43.7 83.6 43.6 83.6 43.4 83.7 43.2 83.8 43.1 83.9 42.9 84.1 42.8 84.2 42.7 84.4 42.6 84.6 42.6 84.7 42.5 84.9 42.5 85.1 42.5 85.3 42.5 85.4 42.6 85.6 42.6 85.8 42.7 85.9 42.8 86.1 42.9 86.1 42.9 Z" fill="rgb(0, 0, 0, 1)"/>
  <path d="M 87.4 45.5 Q 87.4 45.5 89.4 46 91.4 46.5 92.5 47.1 93.7 47.7 95.1 48.1 96.5 48.6 97.7 49.7 98.9 50.9 101.1 51.2 103.3 51.5 105.8 52 108.3 52.5 110.8 53 113.3 53.5 115.8 54 118.3 54.5 119.1 54.5 120 54.5 121 54.5 122 54.5 123.5 54.5 125 54.5 125.3 55.3 125.5 56 125.5 55 125.5 54 125.5 53 125.5 52 125.5 51 125.5 50 125.5 49.8 125.5 49.6 125.6 49.5 125.7 49.3 125.8 49.2 125.9 49 126 48.9 126.1 48.8 126.3 48.7 126.5 48.6 126.6 48.6 126.8 48.5 127 48.5 127.2 48.5 127.4 48.6 127.5 48.6 127.7 48.7 127.9 48.8 128 48.9 128.1 49 128.2 49.2 128.3 49.3 128.4 49.5 128.5 49.6 128.5 49.8 128.5 50 128.8 50.1 129.2 50.3 129.1 51.1 129.1 51.9 129.2 52.1 129.3 52.2 129.4 52.4 129.4 52.6 129.5 52.7 129.5 52.9 129.5 53.1 129.5 53.3 129.4 53.4 129.4 53.6 129.3 53.8 129.2 53.9 129.1 54.1 128.9 54.2 128.8 54.3 128.6 54.4 128.4 54.4 128.3 54.5 128.1 54.5 127.9 54.5 127.7 54.5 127.6 54.4 127.4 54.4 127.2 54.3 127.1 54.2 126.9 54.1 127.4 52.5 127.9 50.9 128.4 51.5 128.9 52.1 128.4 50.5 127.9 48.9 128.1 48.8 128.2 48.7 128.4 48.6 128.6 48.6 128.7 48.5 128.9 48.5 129.1 48.5 129.3 48.5 129.4 48.6 129.6 48.6 129.8 48.7 129.9 48.8 130.1 48.9 130.2 49.1 130.3 49.2 130.4 49.4 130.4 49.6 130.5 49.7 130.5 49.9 130.5 50.1 130.5 50.3 130.4 50.4 130.4 50.6 130.3 50.8 130.2 50.9 130.1 51.1 130.3 51.5 130.5 52 130.5 53 130.5 54 129.8 54.3 129 54.5 129.8 54.6 130.7 54.6 130.8 54.4 130.8 54.3 130.7 53.5 130.6 52.7 131.2 52 131.8 51.3 131.7 50.8 131.6 50.3 131.3 50.2 130.9 50.1 130.4 49.6 129.9 49.1 129.8 48.9 129.7 48.8 129.6 48.6 129.6 48.4 129.5 48.3 129.5 48.1 129.5 47.9 129.5 47.7 129.6 47.6 129.6 47.4 129.7 47.2 129.8 47.1 129.9 46.9 130.1 46.8 130.2 46.7 130.4 46.6 130.6 46.6 130.7 46.5 130.9 46.5 131.1 46.5 131.3 46.5 131.4 46.6 131.6 46.6 131.8 46.7 131.9 46.8 132.1 46.9 130.5 49.2 129 51.5 128.8 51.5 128.5 51.4 128.3 51.3 128.1 51.2 127.9 51 127.8 50.8 127.7 50.6 127.6 50.4 127.5 50.2 127.5 49.9 127.6 49.7 127.6 49.4 127.7 49.2 127.9 49 128 48.9 128.2 48.7 128.5 48.6 128.7 48.5 128.9 48.5 129.2 48.5 129.4 48.6 129.6 48.6 129.8 48.8 130 48.9 130.2 49.1 130.3 49.3 130.4 49.5 130.5 49.8 130.5 50 130.5 50.2 130.4 50.5 130.3 50.7 130.2 50.9 130 51.1 129.8 51.2 129.6 51.4 129.4 51.4 129.2 51.5 128.9 51.5 128.7 51.5 128.5 51.4 128.2 51.3 128 51.1 127.9 51 127.7 50.8 127.6 50.6 127.6 50.3 127.5 50.1 127.5 49.8 127.6 49.6 127.7 49.4 127.8 49.2 127.9 49 128.1 48.8 128.3 48.7 128.5 48.6 128.8 48.5 129 48.5 129 48.5 129 48.5 129.5 48.8 129.9 49.1 129.8 48.9 129.7 48.8 129.6 48.6 129.6 48.4 129.5 48.3 129.5 48.1 129.5 47.9 129.5 47.7 129.6 47.6 129.6 47.4 129.7 47.2 129.8 47.1 129.9 46.9 130.1 46.8 130.2 46.7 130.4 46.6 130.6 46.6 130.7 46.5 130.9 46.5 131.1 46.5 131.3 46.5 131.4 46.6 131.6 46.6 131.8 46.7 131.9 46.8 132.1 46.9 132.6 47.4 133.1 47.9 133.7 48.8 134.4 49.7 134.3 51.2 134.2 52.8 133.8 53 133.4 53.3 133.3 54.5 133.2 55.8 132.3 56.6 131.3 57.4 130.2 57.4 129 57.5 128.3 55.8 127.5 54 127.5 53 127.5 52 127.7 50.5 127.9 48.9 128.1 48.8 128.2 48.7 128.4 48.6 128.6 48.6 128.7 48.5 128.9 48.5 129.1 48.5 129.3 48.5 129.4 48.6 129.6 48.6 129.8 48.7 129.9 48.8 130.1 48.9 130.2 49.1 130.3 49.2 130.4 49.4 130.4 49.6 130.5 49.7 130.5 49.9 130.5 50.1 130.5 50.3 130.4 50.4 130.4 50.6 130.3 50.8 130.2 50.9 130.1 51.1 130.6 50.5 131.1 49.9 130.6 51.5 130.1 53.1 129.6 52.5 129.1 51.9 129.2 52.1 129.3 52.2 129.4 52.4 129.4 52.6 129.5 52.7 129.5 52.9 129.5 53.1 129.5 53.3 129.4 53.4 129.4 53.6 129.3 53.8 129.2 53.9 129.1 54.1 128.9 54.2 128.8 54.3 128.6 54.4 128.4 54.4 128.3 54.5 128.1 54.5 127.9 54.5 127.7 54.5 127.6 54.4 127.4 54.4 127.2 54.3 127.1 54.2 126.9 54.1 126.9 52.9 126.8 51.8 126.2 50.9 125.5 50 125.5 49.8 125.5 49.6 125.6 49.5 125.7 49.3 125.8 49.2 125.9 49 126 48.9 126.1 48.8 126.3 48.7 126.5 48.6 126.6 48.6 126.8 48.5 127 48.5 127.2 48.5 127.4 48.6 127.5 48.6 127.7 48.7 127.9 48.8 128 48.9 128.1 49 128.2 49.2 128.3 49.3 128.4 49.5 128.5 49.6 128.5 49.8 128.5 50 128.5 51 128.5 52 128.5 53 128.5 54 128.5 55 128.5 56 126.8 56.8 125 57.5 123.5 57.5 122 57.5 121 57.5 120 57.5 118.9 57.5 117.7 57.5 115.2 57 112.7 56.5 110.2 56 107.7 55.5 105.2 55 102.7 54.5 99.9 53.8 97.1 53.1 96.3 52.3 95.5 51.4 93.9 50.9 92.3 50.3 91.5 49.9 90.6 49.5 88.6 49 86.6 48.5 86.5 48.4 86.3 48.3 86.2 48.2 86 48.1 85.9 48 85.8 47.8 85.7 47.7 85.6 47.5 85.6 47.4 85.5 47.2 85.5 47 85.5 46.8 85.6 46.6 85.6 46.5 85.7 46.3 85.8 46.1 85.9 46 86 45.9 86.2 45.8 86.3 45.7 86.5 45.6 86.6 45.5 86.8 45.5 87 45.5 87.2 45.5 87.4 45.5 87.4 45.5 Z" fill="rgb(0, 0, 0, 1)"/>
  <path d="M 130.1 49.1 Q 130.1 49.1 129.1 49.9 128.2 50.8 128.3 51.4 128.5 52 128.4 52.8 128.4 53.7 128.6 53.8 128.8 53.8 129.9 52.9 131.1 51.9 131.2 52.1 131.3 52.2 131.4 52.4 131.4 52.6 131.5 52.7 131.5 52.9 131.5 53.1 131.5 53.3 131.4 53.4 131.4 53.6 131.3 53.8 131.2 53.9 131.1 54.1 130.9 54.2 130.8 54.3 130.6 54.4 130.4 54.4 130.3 54.5 130.1 54.5 129.9 54.5 129.7 54.5 129.6 54.4 129.4 54.4 129.2 54.3 129.1 54.2 128.9 54.1 128.8 53.3 128.6 52.5 128.7 52.3 128.8 52.1 129 51.9 129.2 51.8 129.4 51.7 129.6 51.6 129.8 51.5 130.1 51.5 130.3 51.6 130.6 51.6 130.8 51.7 131 51.9 131.1 52 131.3 52.2 131.4 52.5 131.5 52.7 131.5 52.9 131.5 53.2 131.4 53.4 131.4 53.6 131.2 53.8 131.1 54 130.9 54.2 130.7 54.3 130.5 54.4 130.2 54.5 130 54.5 129.8 54.5 129.5 54.4 129.3 54.3 129.1 54.2 128.9 54 128.8 53.8 128.6 53.6 128.6 53.4 128.5 53.2 128.5 52.9 128.5 52.7 128.6 52.5 128.7 52.2 128.9 52 129 51.9 129.2 51.7 129.4 51.6 129.7 51.6 129.9 51.5 130.2 51.5 130.4 51.6 130.6 51.7 130.8 51.8 131 51.9 131.2 52.1 131.3 52.3 131.4 52.5 131.5 52.8 131.5 53 131.3 52.5 131.1 51.9 131.2 52.1 131.3 52.2 131.4 52.4 131.4 52.6 131.5 52.7 131.5 52.9 131.5 53.1 131.5 53.3 131.4 53.4 131.4 53.6 131.3 53.8 131.2 53.9 131.1 54.1 130.9 54.2 130.8 54.3 130.6 54.4 130.4 54.4 130.3 54.5 130.1 54.5 129.9 54.5 129.7 54.5 129.6 54.4 129.4 54.4 129.2 54.3 129.1 54.2 128.9 54.1 128.1 55.1 127.3 56.2 126.4 55.3 125.6 54.3 125.6 53.2 125.5 52 125.7 50.6 125.8 49.3 126.9 48.1 127.9 46.9 128.1 46.8 128.2 46.7 128.4 46.6 128.6 46.6 128.7 46.5 128.9 46.5 129.1 46.5 129.3 46.5 129.4 46.6 129.6 46.6 129.8 46.7 129.9 46.8 130.1 46.9 130.2 47.1 130.3 47.2 130.4 47.4 130.4 47.6 130.5 47.7 130.5 47.9 130.5 48.1 130.5 48.3 130.4 48.4 130.4 48.6 130.3 48.8 130.2 48.9 130.1 49.1 130.1 49.1 Z" fill="rgb(0, 0, 0, 1)"/>
  <path d="M 130.5 49.6 Q 130.5 49.6 131 47.6 131.5 45.6 132 43.6 132.5 41.6 133.1 40.5 133.6 39.4 133.6 38.7 133.5 37.9 134 36 134.5 34 134.5 33.8 134.6 33.5 134.7 33.3 134.8 33.1 135 32.9 135.2 32.8 135.4 32.7 135.6 32.6 135.8 32.5 136.1 32.5 136.3 32.6 136.6 32.6 136.8 32.7 137 32.9 137.1 33 137.3 33.2 137.4 33.5 137.5 33.7 137.5 33.9 137.5 34.2 137.4 34.4 137.4 34.6 137.2 34.8 137.1 35 136.9 35.2 136.7 35.3 136.5 35.4 136.2 35.5 136 35.5 135.8 35.5 135.5 35.4 135.3 35.3 135.1 35.2 134.9 35 134.8 34.8 134.6 34.6 134.6 34.4 134.5 34.2 134.5 33.9 134.5 33.7 134.6 33.5 134.7 33.2 134.9 33 135 32.9 135.2 32.7 135.4 32.6 135.7 32.6 135.9 32.5 136.2 32.5 136.4 32.6 136.6 32.7 136.8 32.8 137 32.9 137.2 33.1 137.3 33.3 137.4 33.5 137.5 33.8 137.5 34 137.5 34 137.5 34 137 36 136.5 38.1 136.4 39.3 136.4 40.6 135.9 41.5 135.5 42.4 135 44.4 134.5 46.4 134 48.4 133.5 50.4 133.4 50.5 133.3 50.7 133.2 50.8 133.1 51 133 51.1 132.8 51.2 132.7 51.3 132.5 51.4 132.4 51.4 132.2 51.5 132 51.5 131.8 51.5 131.6 51.4 131.5 51.4 131.3 51.3 131.1 51.2 131 51.1 130.9 51 130.8 50.8 130.7 50.7 130.6 50.5 130.5 50.4 130.5 50.2 130.5 50 130.5 49.8 130.5 49.6 130.5 49.6 Z" fill="rgb(0, 0, 0, 1)"/>
  <path d="M 134.1 33.9 Q 134.1 33.9 134.6 34.4 135.1 34.9 135.2 35.1 135.3 35.3 135.4 35.6 135.5 35.8 135.5 36 135.5 36.3 135.4 36.5 135.3 36.7 135.2 36.9 135 37.1 134.8 37.2 134.6 37.4 134.4 37.4 134.1 37.5 133.9 37.5 133.6 37.5 133.4 37.4 133.2 37.3 133 37.1 132.8 36.9 132.7 36.7 132.6 36.5 132.5 36.3 132.5 36 132.5 35.8 132.6 35.6 132.7 35.3 132.8 35.1 133 35 133.1 34.8 133.3 34.7 133.6 34.6 133.8 34.5 134 34.5 134.3 34.5 134.5 34.6 134.7 34.7 134.9 34.8 135.1 35 135.3 35.2 135.4 35.4 135.5 35.6 135.5 35.9 135.5 36.1 135.4 36.4 135.4 36.6 135.2 36.8 135.1 37 134.9 37.2 134.7 37.3 134.5 37.4 134.3 37.5 134 37.5 133.8 37.5 133.6 37.4 133.3 37.3 133.1 37.2 132.9 37.1 132.9 37.1 132.9 37.1 132.4 36.6 131.9 36.1 131.8 35.9 131.7 35.8 131.6 35.6 131.6 35.4 131.5 35.3 131.5 35.1 131.5 34.9 131.5 34.7 131.6 34.6 131.6 34.4 131.7 34.2 131.8 34.1 131.9 33.9 132.1 33.8 132.2 33.7 132.4 33.6 132.6 33.6 132.7 33.5 132.9 33.5 133.1 33.5 133.3 33.5 133.4 33.6 133.6 33.6 133.8 33.7 133.9 33.8 134.1 33.9 134.1 33.9 Z" fill="rgb(0, 0, 0, 1)"/>
  <path d="M 131 36.5 Q 131 36.5 132 36.5 133 36.5 133.2 36.5 133.5 36.6 133.7 36.7 133.9 36.8 134.1 37 134.2 37.2 134.3 37.4 134.4 37.6 134.5 37.8 134.5 38.1 134.4 38.3 134.4 38.6 134.3 38.8 134.1 39 134 39.1 133.8 39.3 133.5 39.4 133.3 39.5 133.1 39.5 132.8 39.5 132.6 39.4 132.4 39.4 132.2 39.2 132 39.1 131.8 38.9 131.7 38.7 131.6 38.5 131.5 38.2 131.5 38 131.5 37.8 131.6 37.5 131.7 37.3 131.8 37.1 132 36.9 132.2 36.8 132.4 36.6 132.6 36.6 132.8 36.5 133.1 36.5 133.3 36.5 133.5 36.6 133.8 36.7 134 36.9 134.1 37 134.3 37.2 134.4 37.4 134.4 37.7 134.5 37.9 134.5 38.2 134.4 38.4 134.3 38.6 134.2 38.8 134.1 39 133.9 39.2 133.7 39.3 133.5 39.4 133.2 39.5 133 39.5 133 39.5 133 39.5 132 39.5 131 39.5 130.8 39.5 130.6 39.5 130.5 39.4 130.3 39.3 130.2 39.2 130 39.1 129.9 39 129.8 38.9 129.7 38.7 129.6 38.5 129.6 38.4 129.5 38.2 129.5 38 129.5 37.8 129.6 37.6 129.6 37.5 129.7 37.3 129.8 37.1 129.9 37 130 36.9 130.2 36.8 130.3 36.7 130.5 36.6 130.6 36.5 130.8 36.5 131 36.5 131 36.5 Z" fill="rgb(0, 0, 0, 1)"/>
  <path d="M 102 71.5 Q 102 71.5 101.5 71.5 101 71.5 100.8 71.5 100.6 71.5 100.5 71.4 100.3 71.3 100.2 71.2 100 71.1 99.9 71 99.8 70.9 99.7 70.7 99.6 70.5 99.6 70.4 99.5 70.2 99.5 70 99.5 69.8 99.6 69.6 99.6 69.5 99.7 69.3 99.8 69.1 99.9 69 100 68.9 100.2 68.8 100.3 68.7 100.5 68.6 100.6 68.5 100.8 68.5 101 68.5 102.2 69.9 103.3 71.3 103.8 72.3 104.3 73.3 104.5 73.6 104.8 73.8 105.2 73.7 105.7 73.6 105.7 73.9 105.7 74.1 105.2 73.4 104.7 72.7 104.5 72.4 104.3 72.2 103.1 72.1 101.9 72.1 101.8 71.9 101.7 71.8 101.6 71.6 101.6 71.4 101.5 71.3 101.5 71.1 101.5 70.9 101.5 70.7 101.6 70.6 101.6 70.4 101.7 70.2 101.8 70.1 101.9 69.9 102.1 69.8 102.2 69.7 102.4 69.6 102.6 69.6 102.7 69.5 102.9 69.5 103.1 69.5 103.3 69.5 103.4 69.6 103.6 69.6 103.8 69.7 103.9 69.8 104.1 69.9 104 69.7 103.9 69.4 103.1 68 102.3 66.7 102.5 66.6 102.7 66.5 102.8 66.5 103 66.5 103.2 66.5 103.4 66.6 103.6 66.6 103.7 66.7 103.9 66.8 104 66.9 104.1 67 104.3 67.2 104.3 67.3 104.4 67.5 104.5 67.7 104.5 67.8 104.5 68 104.5 68.2 104.4 68.4 104.4 68.6 104.3 68.7 104.2 68.9 104.1 69 104 69.1 103.8 69.2 103.7 69.3 103.1 69.4 102.5 69.4 102.3 69.3 102.1 69.2 101.9 69 101.8 68.8 101.7 68.6 101.6 68.4 101.5 68.2 101.5 67.9 101.6 67.7 101.6 67.4 101.7 67.2 101.9 67 102 66.9 102.2 66.7 102.5 66.6 102.7 66.5 102.9 66.5 103.2 66.5 103.4 66.6 103.6 66.6 103.8 66.8 104 66.9 104.2 67.1 104.3 67.3 104.4 67.5 104.5 67.8 104.5 68 104.5 68.2 104.4 68.5 104.3 68.7 104.2 68.9 104 69.1 103.8 69.2 103.6 69.4 103.4 69.4 103.2 69.5 102.9 69.5 102.7 69.5 102.5 69.4 102.2 69.3 102 69.1 101.9 69 101.7 68.8 101.6 68.6 101.6 68.3 101.5 68.1 101.5 67.8 101.6 67.6 101.7 67.4 101.8 67.2 101.9 67 102.1 66.8 102.3 66.7 102.5 66.6 102.8 66.5 103 66.5 102.7 66.6 102.3 66.7 102.5 66.6 102.7 66.5 102.8 66.5 103 66.5 103.2 66.5 103.4 66.6 103.6 66.6 103.7 66.7 103.9 66.8 104 66.9 104.1 67 104.3 67.2 104.3 67.3 104.4 67.5 104.5 67.7 104.5 67.8 104.5 68 104.5 68.2 104.4 68.4 104.4 68.6 104.3 68.7 104.2 68.9 104.1 69 104 69.1 103.8 69.2 103.7 69.3 104.9 70 106.1 70.6 104 71.3 101.9 72.1 101.8 71.9 101.7 71.8 101.6 71.6 101.6 71.4 101.5 71.3 101.5 71.1 101.5 70.9 101.5 70.7 101.6 70.6 101.6 70.4 101.7 70.2 101.8 70.1 101.9 69.9 102.1 69.8 102.2 69.7 102.4 69.6 102.6 69.6 102.7 69.5 102.9 69.5 103.1 69.5 103.3 69.5 103.4 69.6 103.6 69.6 103.8 69.7 103.9 69.8 104.1 69.9 104.9 69.9 105.8 69.8 106.5 70.6 107.3 71.3 107.8 72.6 108.3 73.9 107.3 75.1 106.3 76.4 104.8 76.3 103.3 76.2 102.5 75.4 101.7 74.7 101.2 73.7 100.7 72.7 100.8 72.1 101 71.5 100.8 71.5 100.6 71.5 100.5 71.4 100.3 71.3 100.2 71.2 100 71.1 99.9 71 99.8 70.9 99.7 70.7 99.6 70.5 99.6 70.4 99.5 70.2 99.5 70 99.5 69.8 99.6 69.6 99.6 69.5 99.7 69.3 99.8 69.1 99.9 69 100 68.9 100.2 68.8 100.3 68.7 100.5 68.6 100.6 68.5 100.8 68.5 101 68.5 101.5 68.5 102 68.5 102.2 68.5 102.4 68.5 102.5 68.6 102.7 68.7 102.8 68.8 103 68.9 103.1 69 103.2 69.1 103.3 69.3 103.4 69.5 103.4 69.6 103.5 69.8 103.5 70 103.5 70.2 103.4 70.4 103.4 70.5 103.3 70.7 103.2 70.9 103.1 71 103 71.1 102.8 71.2 102.7 71.3 102.5 71.4 102.4 71.5 102.2 71.5 102 71.5 102 71.5 Z" fill="rgb(0, 0, 0, 1)"/>
  <path d="M 100 65.5 Q 100 65.5 102 65.5 104 65.5 105.2 65.6 106.3 65.6 107.2 67.3 108.1 69.1 107.6 69.6 107.1 70.1 106.6 70.6 106 71.1 104.9 71.7 103.7 72.3 103.2 72.8 102.7 73.3 102.5 73.4 102.3 73.5 102.2 73.5 102 73.5 101.8 73.5 101.6 73.4 101.4 73.4 101.3 73.3 101.1 73.2 101 73.1 100.9 73 100.7 72.8 100.7 72.7 100.6 72.5 100.5 72.3 100.5 72.2 100.5 72 100.5 71.8 100.6 71.6 100.6 71.4 100.7 71.3 100.8 71.1 100.9 71 101 70.9 101.2 70.8 101.3 70.7 102.7 72.4 104.1 74.1 103.9 74.2 103.7 74.3 103.4 74.4 103.2 74.5 103 74.5 102.7 74.5 102.5 74.4 102.3 74.3 102.1 74.2 101.9 74 101.8 73.8 101.6 73.6 101.6 73.4 101.5 73.1 101.5 72.9 101.5 72.6 101.6 72.4 101.7 72.2 101.9 72 102.1 71.8 102.3 71.7 102.5 71.6 102.7 71.5 103 71.5 103.2 71.5 103.4 71.6 103.7 71.7 103.9 71.8 104 72 104.2 72.1 104.3 72.3 104.4 72.6 104.5 72.8 104.5 73 104.5 73.3 104.4 73.5 104.3 73.7 104.2 73.9 104 74.1 103.8 74.3 103.6 74.4 103.4 74.5 103.1 74.5 102.9 74.5 102.6 74.4 102.4 74.4 102.2 74.2 102 74.1 101.8 73.9 101.7 73.7 101.6 73.5 101.5 73.3 101.5 73 101.5 72.8 101.6 72.6 101.7 72.3 101.8 72.1 101.9 71.9 101.9 71.9 101.9 71.9 102.3 72.6 102.7 73.3 102.5 73.4 102.3 73.5 102.2 73.5 102 73.5 101.8 73.5 101.6 73.4 101.4 73.4 101.3 73.3 101.1 73.2 101 73.1 100.9 73 100.7 72.8 100.7 72.7 100.6 72.5 100.5 72.3 100.5 72.2 100.5 72 100.5 71.8 100.6 71.6 100.6 71.4 100.7 71.3 100.8 71.1 100.9 71 101 70.9 101.2 70.8 101.3 70.7 101.8 70.2 102.3 69.7 103.1 69.3 104 68.9 104.4 68.4 104.9 67.9 105.4 67.4 105.9 66.9 105.8 67.7 105.7 68.4 104.8 68.4 104 68.5 102 68.5 100 68.5 99.8 68.5 99.6 68.5 99.5 68.4 99.3 68.3 99.2 68.2 99 68.1 98.9 68 98.8 67.9 98.7 67.7 98.6 67.5 98.6 67.4 98.5 67.2 98.5 67 98.5 66.8 98.6 66.6 98.6 66.5 98.7 66.3 98.8 66.1 98.9 66 99 65.9 99.2 65.8 99.3 65.7 99.5 65.6 99.6 65.5 99.8 65.5 100 65.5 100 65.5 Z" fill="rgb(0, 0, 0, 1)"/>
  <path d="M 104.5 69.6 Q 104.5 69.6 106.3 70.6 108.2 71.6 108.3 72.9 108.4 74.3 107.7 75.2 107.1 76.1 106.4 76.6 105.8 77.2 104.9 77.1 104.1 77.1 103.9 77.2 103.8 77.3 103.6 77.4 103.4 77.4 103.3 77.5 103.1 77.5 102.9 77.5 102.7 77.5 102.6 77.4 102.4 77.4 102.2 77.3 102.1 77.2 101.9 77.1 101.8 76.9 101.7 76.8 101.6 76.6 101.6 76.4 101.5 76.3 101.5 76.1 101.5 75.9 101.5 75.7 101.6 75.6 101.6 75.4 101.7 75.2 101.8 75.1 101.9 74.9 103.5 75.5 105.1 76.1 104.9 76.2 104.8 76.3 104.6 76.4 104.4 76.4 104.3 76.5 104.1 76.5 103.9 76.5 103.7 76.5 103.6 76.4 103.4 76.4 103.2 76.3 103.1 76.2 102.9 76.1 102.8 75.9 102.7 75.8 102.6 75.6 102.6 75.4 102.5 75.3 102.5 75.1 102.5 74.9 102.5 74.7 102.6 74.6 102.6 74.4 102.7 74.2 102.8 74.1 102.9 73.9 102.3 75.2 101.7 76.4 100.8 75.7 99.9 75.1 98.4 73.6 96.9 72.1 96.8 71.9 96.7 71.7 96.6 71.4 96.5 71.2 96.5 71 96.5 70.7 96.6 70.5 96.7 70.3 96.8 70.1 97 69.9 97.2 69.8 97.4 69.6 97.6 69.6 97.9 69.5 98.1 69.5 98.4 69.5 98.6 69.6 98.8 69.7 99 69.9 99.2 70.1 99.3 70.3 99.4 70.5 99.5 70.7 99.5 71 99.5 71.2 99.4 71.4 99.3 71.7 99.2 71.9 99 72 98.9 72.2 98.7 72.3 98.4 72.4 98.2 72.5 98 72.5 97.7 72.5 97.5 72.4 97.3 72.3 97.1 72.2 96.9 72 96.7 71.8 96.6 71.6 96.5 71.4 96.5 71.1 96.5 70.9 96.6 70.6 96.6 70.4 96.8 70.2 96.9 70 97.1 69.8 97.3 69.7 97.5 69.6 97.7 69.5 98 69.5 98.2 69.5 98.4 69.6 98.7 69.7 98.9 69.8 99.1 69.9 99.1 69.9 99.1 69.9 100.6 71.4 102.1 72.9 102.2 73.3 102.3 73.6 103.7 74.8 105.1 76.1 104.9 76.2 104.8 76.3 104.6 76.4 104.4 76.4 104.3 76.5 104.1 76.5 103.9 76.5 103.7 76.5 103.6 76.4 103.4 76.4 103.2 76.3 103.1 76.2 102.9 76.1 102.8 75.9 102.7 75.8 102.6 75.6 102.6 75.4 102.5 75.3 102.5 75.1 102.5 74.9 102.5 74.7 102.6 74.6 102.6 74.4 102.7 74.2 102.8 74.1 102.9 73.9 103.5 75.5 104.1 77.1 103.9 77.2 103.8 77.3 103.6 77.4 103.4 77.4 103.3 77.5 103.1 77.5 102.9 77.5 102.7 77.5 102.6 77.4 102.4 77.4 102.2 77.3 102.1 77.2 101.9 77.1 101.8 76.9 101.7 76.8 101.6 76.6 101.6 76.4 101.5 76.3 101.5 76.1 101.5 75.9 101.5 75.7 101.6 75.6 101.6 75.4 101.7 75.2 101.8 75.1 101.9 74.9 103.1 74.9 104.3 74.8 104.6 74.4 104.9 73.9 105.3 73.8 105.6 73.7 105.7 73.1 105.8 72.5 104.7 72.4 103.5 72.4 103.4 72.3 103.2 72.3 103.1 72.2 102.9 72 102.8 71.9 102.7 71.8 102.6 71.6 102.6 71.4 102.5 71.2 102.5 71.1 102.5 70.9 102.5 70.7 102.6 70.5 102.6 70.4 102.7 70.2 102.8 70.1 103 69.9 103.1 69.8 103.3 69.7 103.4 69.6 103.6 69.6 103.8 69.5 103.9 69.5 104.1 69.5 104.3 69.5 104.5 69.6 104.5 69.6 Z" fill="rgb(0, 0, 0, 1)"/>
  <path d="M 110.4 90.5 Q 110.4 90.5 109.9 92 109.4 93.5 109.5 95.2 109.5 97 109 98.7 108.4 100.5 107.9 102.4 107.5 104.4 107 106.8 106.5 109.3 105.9 110.9 105.4 112.5 104.9 114 104.4 115.5 103.9 117 103.4 118.5 102.9 119.6 102.3 120.7 101.9 122.1 101.4 123.5 100.9 124.6 100.3 125.7 99.9 126.8 99.5 128 99.5 128.2 99.4 128.5 99.3 128.7 99.2 128.9 99 129.1 98.8 129.2 98.6 129.3 98.4 129.4 98.2 129.5 97.9 129.5 97.7 129.4 97.4 129.4 97.2 129.3 97 129.1 96.9 129 96.7 128.8 96.6 128.5 96.5 128.3 96.5 128.1 96.5 127.8 96.6 127.6 96.6 127.4 96.8 127.2 96.9 127 97.1 126.8 97.3 126.7 97.5 126.6 97.8 126.5 98 126.5 98.2 126.5 98.5 126.6 98.7 126.7 98.9 126.8 99.1 127 99.2 127.2 99.4 127.4 99.4 127.6 99.5 127.8 99.5 128.1 99.5 128.3 99.4 128.5 99.3 128.8 99.1 129 99 129.1 98.8 129.3 98.6 129.4 98.3 129.4 98.1 129.5 97.8 129.5 97.6 129.4 97.4 129.3 97.2 129.2 97 129.1 96.8 128.9 96.7 128.7 96.6 128.5 96.5 128.2 96.5 128 96.5 128 96.5 128 97.1 126.2 97.7 124.3 98.1 123.4 98.6 122.5 99.1 120.9 99.7 119.3 100.1 118.4 100.6 117.5 101.1 116 101.6 114.5 102.1 113 102.6 111.5 103.1 110.1 103.5 108.7 104 106.2 104.5 103.6 105.1 101.6 105.6 99.5 106 98.3 106.5 97 106.5 94.8 106.6 92.6 107.1 91 107.6 89.5 107.7 89.4 107.7 89.2 107.8 89.1 108 88.9 108.1 88.8 108.2 88.7 108.4 88.6 108.6 88.6 108.8 88.5 108.9 88.5 109.1 88.5 109.3 88.5 109.5 88.6 109.6 88.6 109.8 88.7 109.9 88.8 110.1 89 110.2 89.1 110.3 89.3 110.4 89.4 110.4 89.6 110.5 89.8 110.5 89.9 110.5 90.1 110.5 90.3 110.4 90.5 110.4 90.5 Z" fill="rgb(0, 0, 0, 1)"/>
  <path d="M 110.2 88.2 Q 110.2 88.2 111.2 89.7 112.2 91.2 112.8 92.2 113.3 93.3 114.8 95.2 116.2 97.1 117.3 99.2 118.3 101.3 119.8 104.3 121.3 107.3 123.3 110.8 125.3 114.3 127.3 117.8 129.3 121.3 130.3 123.3 131.3 125.3 132.3 127.3 133.3 129.3 134.3 130.3 135.3 131.3 135.4 131.5 135.5 131.7 135.5 131.8 135.5 132 135.5 132.2 135.4 132.4 135.4 132.6 135.3 132.7 135.2 132.9 135.1 133 135 133.1 134.8 133.3 134.7 133.3 134.5 133.4 134.3 133.5 134.2 133.5 134 133.5 133.8 133.5 133.6 133.4 133.4 133.4 133.3 133.3 133.1 133.2 133 133.1 132.9 133 132.8 132.8 132.7 132.7 132.7 132.7 132.7 132.7 132.6 132.4 132.5 132.2 132.5 132 132.5 131.7 132.6 131.5 132.7 131.3 132.8 131.1 133 130.9 133.2 130.8 133.4 130.6 133.6 130.6 133.9 130.5 134.1 130.5 134.4 130.5 134.6 130.6 134.8 130.7 135 130.9 135.2 131.1 135.3 131.3 135.4 131.5 135.5 131.7 135.5 132 135.5 132.2 135.4 132.4 135.3 132.7 135.2 132.9 135 133 134.9 133.2 134.7 133.3 134.4 133.4 134.2 133.5 134 133.5 133.7 133.5 133.5 133.4 133.3 133.3 133.1 133.2 132.9 133 132.7 132.8 132.6 132.6 132.5 132.4 132.5 132.1 132.5 131.9 132.6 131.6 132.6 131.4 132.8 131.2 132.9 131 133.1 130.8 133.3 130.7 133.5 130.6 133.7 130.5 134 130.5 134.2 130.5 134.4 130.6 134.7 130.7 134.9 130.8 135.1 130.9 135.2 131.1 135.3 131.3 135.4 131.5 135.5 131.7 135.5 131.8 135.5 132 135.5 132.2 135.4 132.4 135.4 132.6 135.3 132.7 135.2 132.9 135.1 133 135 133.1 134.8 133.3 134.7 133.3 134.5 133.4 134.3 133.5 134.2 133.5 134 133.5 133.8 133.5 133.6 133.4 133.4 133.4 133.3 133.3 133.1 133.2 133 133.1 132.9 133 132.8 132.8 132.7 132.7 131.7 131.7 130.7 130.7 129.7 128.7 128.7 126.7 127.7 124.7 126.7 122.7 124.7 119.2 122.7 115.7 120.7 112.2 118.7 108.7 117.2 105.7 115.7 102.7 114.7 100.8 113.8 98.9 112.2 96.8 110.7 94.7 110.2 93.8 109.8 92.8 108.8 91.3 107.8 89.8 107.7 89.7 107.6 89.5 107.5 89.3 107.5 89.2 107.5 89 107.5 88.8 107.6 88.6 107.6 88.4 107.7 88.3 107.8 88.1 107.9 88 108 87.9 108.2 87.8 108.3 87.7 108.5 87.6 108.7 87.5 108.8 87.5 109 87.5 109.2 87.5 109.4 87.5 109.6 87.6 109.7 87.7 109.9 87.8 110 87.9 110.1 88 110.2 88.2 110.2 88.2 Z" fill="rgb(0, 0, 0, 1)"/>
  <path d="M 86.5 36 Q 86.5 36 86.5 38 86.5 40 86.5 41 86.5 42 86.8 43 87.1 43.9 87.2 44.1 87.3 44.3 87.4 44.6 87.5 44.8 87.5 45 87.5 45.3 87.4 45.5 87.3 45.7 87.2 45.9 87 46.1 86.8 46.2 86.6 46.4 86.4 46.4 86.1 46.5 85.9 46.5 85.6 46.5 85.4 46.4 85.2 46.3 85 46.1 84.8 45.9 84.7 45.7 84.6 45.5 84.5 45.3 84.5 45 84.5 44.8 84.6 44.6 84.7 44.3 84.8 44.1 85 44 85.1 43.8 85.3 43.7 85.6 43.6 85.8 43.5 86 43.5 86.3 43.5 86.5 43.6 86.7 43.7 86.9 43.8 87.1 44 87.3 44.2 87.4 44.4 87.5 44.6 87.5 44.9 87.5 45.1 87.4 45.4 87.4 45.6 87.2 45.8 87.1 46 86.9 46.2 86.7 46.3 86.5 46.4 86.3 46.5 86 46.5 85.8 46.5 85.6 46.4 85.3 46.3 85.1 46.2 84.9 46.1 84.9 46.1 84.9 46.1 84.2 44 83.5 42 83.5 41 83.5 40 83.5 38 83.5 36 83.5 35.8 83.5 35.6 83.6 35.5 83.7 35.3 83.8 35.2 83.9 35 84 34.9 84.1 34.8 84.3 34.7 84.5 34.6 84.6 34.6 84.8 34.5 85 34.5 85.2 34.5 85.4 34.6 85.5 34.6 85.7 34.7 85.9 34.8 86 34.9 86.1 35 86.2 35.2 86.3 35.3 86.4 35.5 86.5 35.6 86.5 35.8 86.5 36 86.5 36 Z" fill="rgb(0, 0, 0, 1)"/>
  <path d="M 84 33.5 Q 84 33.5 86 33.5 88 33.5 89 33.5 90 33.5 91 33.5 92 33.5 93.5 33.5 95 33.5 95.8 33.6 96.7 33.6 97 33.2 97.3 32.8 98.5 32.7 99.7 32.6 100 32.2 100.3 31.8 101.5 31.7 102.7 31.6 102.8 31.3 103 30.9 104.1 30.3 105.3 29.7 105.6 29.3 105.9 28.9 106.4 28.4 106.9 27.9 107.4 27.6 107.8 27.3 107.7 26.6 107.5 26 107.5 25 107.5 24 107.5 23 107.5 22 107.5 21 107.5 20 107.6 19.2 107.6 18.3 107.2 18 106.8 17.8 106.7 16.5 106.6 15.3 106.3 15.2 105.9 15 105.3 13.9 104.7 12.7 104.2 11.7 103.7 10.7 103.3 10.4 102.9 10.1 102.4 9.6 101.9 9.1 101.4 8.6 100.9 8.1 100.4 7.6 100 7.1 99.1 6.7 98.3 6.3 97.4 5.9 96.4 5.4 95.7 5.4 95 5.5 94 5.5 93 5.5 92.2 5.4 91.3 5.4 91 5.8 90.8 6.2 89.4 6.3 88 6.5 87.2 6.4 86.3 6.4 86 6.8 85.8 7.2 84.4 7.3 83.1 7.5 82.4 7.9 81.7 8.3 81.4 8.7 81.1 9.1 80.6 9.6 80.1 10.1 79.6 10.4 79.2 10.8 79.3 11.5 79.4 12.3 78.8 13 78.2 13.8 78.3 14.4 78.5 15 78.5 16 78.5 17 78.5 18 78.5 19 78.5 20 78.5 21 78.5 22 78.5 22.9 78.9 23.7 79.4 24.4 79.4 25.5 79.4 26.7 79.7 26.8 80.1 27 80.7 28.2 81.4 29.4 81.4 30.5 81.4 31.7 82.7 32.8 84.1 33.9 84.2 34.1 84.3 34.3 84.4 34.6 84.5 34.8 84.5 35 84.5 35.3 84.4 35.5 84.3 35.7 84.2 35.9 84 36.1 83.8 36.2 83.6 36.4 83.4 36.4 83.1 36.5 82.9 36.5 82.6 36.5 82.4 36.4 82.2 36.3 82 36.1 81.8 35.9 81.7 35.7 81.6 35.5 81.5 35.3 81.5 35 81.5 34.8 81.6 34.6 81.7 34.3 81.8 34.1 82 34 82.1 33.8 82.3 33.7 82.6 33.6 82.8 33.5 83 33.5 83.3 33.5 83.5 33.6 83.7 33.7 83.9 33.8 84.1 34 84.3 34.2 84.4 34.4 84.5 34.6 84.5 34.9 84.5 35.1 84.4 35.4 84.4 35.6 84.2 35.8 84.1 36 83.9 36.2 83.7 36.3 83.5 36.4 83.3 36.5 83 36.5 82.8 36.5 82.6 36.4 82.3 36.3 82.1 36.2 81.9 36.1 81.9 36.1 81.9 36.1 80.3 34.2 78.6 32.3 78.6 31.5 78.6 30.6 78.3 29.8 77.9 29 77.3 28.2 76.6 27.3 76.6 26.5 76.6 25.6 76.1 24.3 75.5 23.1 75.5 22 75.5 21 75.5 20 75.5 19 75.5 18 75.5 17 75.5 16 75.5 15 75.7 13.6 75.8 12.3 76.2 12 76.6 11.7 76.7 10.5 76.8 9.3 77.4 8.6 77.9 7.9 78.4 7.4 78.9 6.9 79.6 6.3 80.3 5.7 81.6 5.1 82.9 4.5 83.6 4.7 84.3 4.8 85 4.2 85.7 3.6 86.8 3.6 88 3.5 88.6 3.7 89.3 3.8 90 3.2 90.7 2.6 91.8 2.6 93 2.5 94 2.5 95 2.5 96.3 2.6 97.6 2.6 98.6 3.2 99.7 3.7 100.9 4.3 102 4.9 102.6 5.4 103.1 5.9 103.6 6.4 104.1 6.9 104.6 7.4 105.1 7.9 105.7 8.6 106.3 9.3 106.8 10.3 107.3 11.3 107.7 12.1 108.1 13 108.7 13.8 109.4 14.7 109.3 15.5 109.2 16.3 109.8 17 110.4 17.7 110.4 18.8 110.5 20 110.5 21 110.5 22 110.5 23 110.5 24 110.5 25 110.5 26 110.3 27.4 110.2 28.8 109.6 29.4 109.1 30.1 108.6 30.6 108.1 31.1 107.4 31.7 106.7 32.3 105.9 32.7 105 33.1 104.2 33.7 103.3 34.4 102.5 34.3 101.8 34.2 101 34.8 100.3 35.4 99.5 35.3 98.8 35.2 98 35.8 97.3 36.4 96.2 36.4 95 36.5 93.5 36.5 92 36.5 91 36.5 90 36.5 89 36.5 88 36.5 86 36.5 84 36.5 83.8 36.5 83.6 36.5 83.5 36.4 83.3 36.3 83.2 36.2 83 36.1 82.9 36 82.8 35.9 82.7 35.7 82.6 35.5 82.6 35.4 82.5 35.2 82.5 35 82.5 34.8 82.6 34.6 82.6 34.5 82.7 34.3 82.8 34.1 82.9 34 83 33.9 83.2 33.8 83.3 33.7 83.5 33.6 83.6 33.5 83.8 33.5 84 33.5 84 33.5 Z" fill="rgb(0, 0, 0, 1)"/>
</svg>