<?xml version="1.0" encoding="UTF-8"?>
<svg xmlns="http://www.w3.org/2000/svg" width="168.29999999999927" height="211.89999999999964" viewBox="0 0 168.29999999999927 211.89999999999964">
  <path d="M 63.5 207.9 Q 63.5 207.9 63.5 206 63.5 204.2 63.8 202.8 64.1 201.4 64.1 200.9 64.1 200.4 64.5 199.5 64.9 198.6 65.2 197.6 65.5 196.5 65.8 195.5 66.1 194.6 66 193.3 66 191.9 66.7 190.4 67.3 188.9 67.6 187.5 67.8 186.2 68.1 184.7 68.4 183.1 68.7 181.6 69 180.1 69.7 178.4 70.3 176.8 70.9 175 71.6 173.2 71.9 172 72.1 170.8 72.4 169.6 72.7 168.4 73.4 166.5 74 164.6 74.6 163.1 75.2 161.5 75.5 160.4 75.7 159.2 76 158 76.3 156.8 76.7 155.8 77.1 154.9 77.4 153.7 77.6 152.5 77.9 151.3 78.2 150.1 78.5 148.9 78.8 147.6 79.2 146.9 79.6 146.1 79.8 145.3 80.1 144.5 80.4 143.9 80.7 143.2 80.7 142.8 80.6 142.4 81 141.6 81.3 140.7 81.3 140.4 81.2 140 81.6 139.2 81.9 138.3 81.9 138 81.8 137.6 82.2 136.7 82.5 135.8 82.5 135.5 82.4 135.2 82.4 134.5 82.4 133.9 82.9 133 83.3 132.1 83.2 131.8 83.1 131.4 83.5 130.6 83.8 129.7 83.8 129.4 83.7 129 84.1 128.2 84.4 127.3 84.4 127 84.3 126.7 84.3 125.8 84.3 124.8 84 124.1 83.8 123.4 83.7 122.4 83.7 121.3 83.5 120.9 83.2 120.5 83.2 119.6 83.1 118.7 83.1 118.1 83.1 117.5 82.8 116.9 82.5 116.2 82.4 115.4 82.4 114.5 82.1 113.4 81.8 112.3 81.8 111.6 81.8 110.8 81.8 110.2 81.8 109.7 81.6 109.3 81.3 108.9 81.3 108 81.2 107.2 81 106.8 80.7 106.5 80.7 105.6 80.6 104.7 80.3 104 80.1 103.3 80 102.5 80 101.6 80 100.7 80 99.9 79.8 99.5 79.5 99.2 79.5 98.3 79.4 97.4 79.4 96.7 79.4 96.1 79.4 95.2 79.4 94.4 79.2 94 78.9 93.7 78.9 92.8 78.8 92 78.6 91.6 78.3 91.2 78.3 90 78.2 88.8 78.2 88.2 78.2 87.7 78 87.3 77.7 87 77.7 86 77.6 85.1 77.6 84.5 77.6 83.9 77.3 83.2 77.1 82.5 77 81.5 77 80.4 76.7 80 76.5 79.6 76.4 78.7 76.3 77.8 76.3 76.9 76.3 76 76.3 75.4 76.3 74.9 76.1 74.5 75.8 74.1 75.8 73.2 75.7 72.3 75.7 71.7 75.7 71.2 75.5 70.8 75.2 70.5 75.2 69.3 75.1 68.1 75.1 67.2 75.1 66.3 74.9 65.9 74.6 65.6 74.6 64.7 74.5 63.8 74.5 63.2 74.5 62.6 74.5 62 74.5 61.4 74.3 61 74 60.7 74 59.8 73.9 58.9 73.9 57 73.9 55.2 73.9 55 74 54.7 74.1 54.5 74.2 54.3 74.4 54.1 74.6 54 74.8 53.9 75 53.8 75.2 53.7 75.5 53.7 75.7 53.8 76 53.8 76.2 53.9 76.4 54.1 76.5 54.2 76.7 54.4 76.8 54.7 76.9 54.9 76.9 55.1 76.9 55.4 76.8 55.6 76.8 55.8 76.6 56 76.5 56.2 76.3 56.4 76.1 56.5 75.9 56.6 75.6 56.7 75.4 56.7 75.2 56.7 74.9 56.6 74.7 56.5 74.5 56.4 74.3 56.2 74.2 56 74 55.8 74 55.6 73.9 55.4 73.9 55.1 73.9 54.9 74 54.7 74.1 54.4 74.3 54.2 74.4 54.1 74.6 53.9 74.8 53.8 75.1 53.8 75.3 53.7 75.6 53.7 75.8 53.8 76 53.9 76.2 54 76.4 54.1 76.6 54.3 76.7 54.5 76.8 54.7 76.9 55 76.9 55.2 76.9 55.2 76.9 55.2 76.9 57 76.9 58.9 76.8 59.2 76.8 59.5 77.1 60.4 77.5 61.2 77.5 61.9 77.5 62.6 77.5 63.2 77.5 63.8 77.4 64.1 77.4 64.4 77.7 65.3 78.1 66.1 78.1 67.1 78.1 68.1 78 68.7 78 69.3 78.3 70.2 78.7 71 78.7 71.7 78.7 72.3 78.6 72.6 78.6 72.9 78.9 73.8 79.3 74.7 79.3 75.4 79.3 76 79.3 76.9 79.3 77.8 79.2 78.1 79.1 78.4 79.6 79.3 80 80.2 80 80.9 79.9 81.6 80.3 82.8 80.6 83.9 80.6 84.5 80.6 85.1 80.5 85.4 80.5 85.8 80.8 86.7 81.2 87.5 81.2 88.2 81.2 88.8 81.1 89.4 81.1 90 81.4 90.9 81.8 91.8 81.7 92.2 81.7 92.5 82 93.4 82.4 94.2 82.4 95.2 82.4 96.1 82.4 96.7 82.4 97.4 82.3 97.7 82.3 98 82.6 98.9 83 99.7 83 100.7 83 101.6 83 102 82.9 102.5 83.3 103.6 83.6 104.7 83.5 105 83.5 105.3 83.8 106.2 84.2 107 84.1 107.4 84.1 107.7 84.4 108.6 84.8 109.5 84.8 110.2 84.8 110.8 84.8 111.2 84.8 111.7 85.1 113.1 85.4 114.5 85.4 114.8 85.3 115.2 85.7 116.3 86.1 117.5 86.1 118.1 86.1 118.7 86 119 86 119.3 86.3 120.2 86.7 121.1 86.7 121.8 86.6 122.6 87 123.7 87.3 124.8 87.3 125.7 87.3 126.7 87.2 127.6 87.2 128.5 86.9 128.8 86.7 129.2 86.6 130 86.6 130.9 86.3 131.2 86.1 131.6 86 132.5 85.9 133.5 85.6 133.8 85.4 134.1 85.4 134.7 85.4 135.2 85.3 136.1 85.3 137 85 137.4 84.8 137.8 84.7 138.6 84.7 139.5 84.4 139.8 84.2 140.2 84.1 141 84.1 141.9 83.8 142.2 83.6 142.6 83.5 143.5 83.5 144.4 83.2 144.9 82.9 145.5 82.6 146.5 82.2 147.5 82 147.9 81.8 148.4 81.5 149.6 81.2 150.9 80.9 152.1 80.6 153.3 80.2 154.6 79.9 155.9 79.6 156.8 79.3 157.6 79 158.8 78.7 160 78.3 161.3 78 162.7 77.4 164.1 76.8 165.6 76.2 167.4 75.7 169.2 75.4 170.4 75.1 171.6 74.7 172.9 74.4 174.2 73.8 176 73.1 177.8 72.5 179.3 72 180.7 71.7 182.2 71.4 183.7 71.1 185.2 70.8 186.8 70.4 188.5 70.1 190.1 69.5 191.1 69 192.1 69 193.7 68.9 195.4 68.6 196.4 68.3 197.3 67.9 198.6 67.5 200 67.3 200.3 67.1 200.6 67.1 201.4 67.1 202.2 66.8 203.2 66.5 204.2 66.5 206.1 66.5 207.9 66.5 208.1 66.5 208.3 66.4 208.4 66.3 208.6 66.2 208.7 66.1 208.9 66 209 65.9 209.1 65.7 209.2 65.5 209.3 65.4 209.3 65.2 209.4 65 209.4 64.8 209.4 64.6 209.3 64.5 209.3 64.3 209.2 64.1 209.1 64 209 63.9 208.9 63.8 208.7 63.7 208.6 63.6 208.4 63.5 208.3 63.5 208.1 63.5 207.9 63.5 207.9 Z" fill="rgb(255, 255, 255, 1)"/>
  <path d="M 75.4 54.9 Q 75.4 54.9 74.2 54.9 73 54.9 72.3 55.2 71.6 55.4 71 55.7 70.5 56 69.6 56 68.7 56.1 68 56.4 67.4 56.6 66.4 56.9 65.4 57.2 64.3 57.3 63.2 57.3 61.8 57.6 60.4 58 59.6 58.2 58.8 58.5 57.9 58.8 57 59.1 55.7 59.4 54.3 59.8 53 59.8 51.6 59.8 50.6 60.1 49.6 60.4 48.3 60.7 47 61 45.7 61 44.3 61 42.9 61.3 41.5 61.6 40.4 61.6 39.4 61.6 37.9 61.6 36.3 61.6 35.3 61.9 34.3 62.2 32.8 62.2 31.4 62.2 30.5 62.2 29.6 62.2 28.9 62.5 28.2 62.7 27.1 62.8 26 62.8 25.3 63.1 24.6 63.4 23.4 63.5 22.3 63.5 21.7 63.5 21.1 63.5 20.4 63.8 19.6 64 18.5 64.1 17.4 64.1 16.8 64.1 16.2 64.1 15.6 64.1 15 64.1 14.3 64.1 13.7 64.1 12.8 64.1 11.9 64.1 11.3 64.1 10.7 64.1 10.1 64.1 9.5 64.1 8.5 64.1 7.6 64.1 5.8 64.4 4 64.7 3.8 64.7 3.5 64.6 3.3 64.5 3.1 64.4 2.9 64.2 2.8 64 2.7 63.8 2.6 63.6 2.5 63.4 2.5 63.1 2.6 62.9 2.6 62.6 2.7 62.4 2.9 62.2 3 62.1 3.2 61.9 3.5 61.8 3.7 61.7 3.9 61.7 4.2 61.7 4.4 61.8 4.6 61.8 4.8 62 5 62.1 5.2 62.3 5.3 62.5 5.4 62.7 5.5 63 5.5 63.2 5.5 63.4 5.4 63.7 5.3 63.9 5.2 64.1 5 64.3 4.8 64.4 4.6 64.6 4.4 64.6 4.2 64.7 3.9 64.7 3.7 64.7 3.5 64.6 3.2 64.5 3 64.3 2.9 64.2 2.7 64 2.6 63.8 2.6 63.5 2.5 63.3 2.5 63 2.6 62.8 2.7 62.6 2.8 62.4 2.9 62.2 3.1 62 3.3 61.9 3.5 61.8 3.8 61.7 4 61.7 4 61.7 4 61.7 5.8 61.4 7.6 61.1 8.5 61.1 9.5 61.1 10.1 61.1 10.7 61.1 11.3 61.1 11.9 61.1 12.8 61.1 13.7 61.1 14.3 61.1 15 61.1 15.6 61.1 16.2 61.1 16.8 61.1 17.4 61.1 18.1 61.1 18.8 61.2 19.9 60.8 21.1 60.5 21.7 60.5 22.3 60.5 23 60.5 23.6 60.6 24.8 60.2 26 59.8 26.7 59.8 27.3 59.9 28.5 59.5 29.6 59.2 30.5 59.2 31.4 59.2 32.5 59.2 33.5 59.2 34.9 58.9 36.3 58.6 37.8 58.6 39.4 58.6 40.2 58.6 40.9 58.6 42.6 58.3 44.3 58 45.3 58 46.4 58 47.6 57.7 48.8 57.4 50.2 57.1 51.6 56.8 52.6 56.8 53.7 56.8 54.8 56.6 56 56.3 56.9 56 57.8 55.7 58.8 55.4 59.8 55 61.5 54.7 63.2 54.3 63.9 54.3 64.6 54.4 65.5 54.1 66.4 53.8 67.6 53.4 68.7 53.1 69 53.2 69.3 53.2 70 52.9 70.6 52.6 71.8 52.2 73 51.9 74.2 51.9 75.4 51.9 75.6 51.9 75.8 51.9 75.9 52 76.1 52.1 76.2 52.2 76.4 52.3 76.5 52.4 76.6 52.5 76.7 52.7 76.8 52.9 76.8 53 76.9 53.2 76.9 53.4 76.9 53.6 76.8 53.8 76.8 53.9 76.7 54.1 76.6 54.3 76.5 54.4 76.4 54.5 76.2 54.6 76.1 54.7 75.9 54.8 75.8 54.9 75.6 54.9 75.4 54.9 75.4 54.9 Z" fill="rgb(255, 255, 255, 1)"/>
  <path d="M 74.6 53.1 Q 74.6 53.1 73.3 53.4 72 53.7 71.3 53.7 70.5 53.7 69.9 53.7 69.3 53.7 68.7 53.7 68.1 53.7 66.9 53.4 65.7 53 65 52.7 64.3 52.3 63.7 52 63.1 51.7 62.5 51.4 61.8 51 61.3 50.7 60.7 50.4 60.1 50.2 59.5 49.9 58.8 49.5 58.2 49.2 57.4 48.5 56.7 47.8 56.2 47.6 55.8 47.4 55.2 47.1 54.5 46.7 53.9 45.8 53.3 44.9 53 44.3 52.7 43.7 52.2 43.3 51.7 42.8 51.3 42.1 50.9 41.3 50.5 40.6 50.2 40 50.2 39.1 50.1 38.2 49.9 37.9 49.7 37.6 49.3 36.9 49 36.3 49 35.4 48.9 34.6 48.7 34.2 48.4 33.9 48.4 32.9 48.3 32 48.3 31.4 48.3 30.8 48.3 30.2 48.3 29.6 48.3 29 48.3 28.4 48.3 27.8 48.3 27.2 48.3 26.5 48.3 25.9 48.3 25.3 48.3 24.7 48.3 24.1 48.3 23.5 48.3 22.9 48.3 22.3 48.3 21.6 48.3 20.9 48.7 20 49.1 19.1 49.4 18.5 49.7 17.9 50.4 17.1 51.2 16.3 51.9 16 52.6 15.6 52.6 15.3 52.7 14.9 53 14.2 53.4 13.5 54.3 13 55.1 12.5 55.1 12.2 55.2 11.8 55.5 11.2 55.9 10.5 56.7 10 57.5 9.5 57.5 9.1 57.6 8.7 58.3 8 59 7.2 59.3 6.7 59.5 6.2 60.4 5.6 61.4 5 62 4.7 62.5 4.5 63.1 4.2 63.7 3.9 64.4 3.5 65 3.2 65.9 3.2 66.8 3.1 67.2 2.9 67.5 2.6 68.4 2.6 69.3 2.5 69.9 2.5 70.6 2.5 71.4 2.9 72.3 3.2 72.7 3.2 73.1 3.1 74 3.5 74.9 3.9 75.5 4.2 76.1 4.5 76.9 5.2 77.6 5.9 78.1 6.1 78.5 6.3 79.1 6.5 79.7 6.8 80.3 7.1 81 7.5 81.6 7.8 82.3 8.2 82.8 9.1 83.3 9.9 83.7 10 84.1 10.1 84.6 10.9 85.1 11.7 85.5 11.8 86 11.9 86.6 12.8 87.1 13.6 87.6 14.1 88.1 14.6 88.5 14.8 89 15 89.6 15.9 90.1 16.7 90.4 17.3 90.7 17.9 91.1 18.5 91.4 19.1 91.5 20 91.6 20.9 91.8 21.3 92.1 21.7 92.1 22.6 92.2 23.5 92.2 24.1 92.2 24.7 92.2 25.3 92.2 25.9 92.2 26.5 92.2 27.2 92.2 27.8 92.2 28.4 92.2 29 92.2 29.6 92.2 30.2 92.2 30.9 91.8 31.7 91.5 32.6 91.5 33 91.6 33.4 91.1 34.3 90.7 35.3 90.4 35.8 90.1 36.4 89.8 37 89.5 37.6 89.2 38.2 88.9 38.8 88.7 39.4 88.4 40 88.1 40.6 87.7 41.3 87.4 41.9 87 42.6 86.2 43.1 85.4 43.6 85.3 44 85.2 44.4 84.9 45 84.5 45.7 83.7 46.2 82.9 46.7 82.8 47.1 82.7 47.5 81.8 48.1 81 48.6 80.4 48.9 79.9 49.1 79.8 49.5 79.7 49.9 78.8 50.5 77.8 51.1 76 52 74.3 52.9 74 53 73.8 53.1 73.6 53.1 73.3 53.1 73.1 53 72.9 52.9 72.7 52.8 72.5 52.6 72.4 52.4 72.2 52.2 72.2 52 72.1 51.7 72.1 51.5 72.1 51.2 72.2 51 72.3 50.8 72.5 50.6 72.7 50.4 72.9 50.3 73.1 50.2 73.3 50.1 73.6 50.1 73.8 50.1 74 50.2 74.3 50.3 74.5 50.4 74.6 50.6 74.8 50.7 74.9 50.9 75 51.2 75.1 51.4 75.1 51.6 75.1 51.9 75 52.1 74.9 52.3 74.8 52.5 74.6 52.7 74.4 52.9 74.2 53 74 53.1 73.7 53.1 73.5 53.1 73.2 53 73 53 72.8 52.8 72.6 52.7 72.4 52.5 72.3 52.3 72.2 52.1 72.1 51.9 72.1 51.6 72.1 51.4 72.2 51.2 72.3 50.9 72.4 50.7 72.5 50.5 72.7 50.4 72.9 50.3 72.9 50.3 72.9 50.3 74.8 49.3 76.6 48.3 76.9 48.3 77.3 48.3 77.8 47.5 78.3 46.7 79 46.3 79.6 46 80 45.9 80.3 45.9 80.8 45.1 81.3 44.3 81.7 44.2 82.1 44.1 82.3 43.5 82.6 42.8 83.2 42 83.8 41.2 84.2 41.1 84.6 41 84.8 40.5 85.1 39.9 85.3 39.4 85.6 38.8 85.9 38.1 86.3 37.4 86.6 36.8 86.9 36.2 87.2 35.6 87.5 35 87.8 34.4 88.1 33.7 88.4 33.5 88.6 33.2 88.7 32.3 88.7 31.4 89 31.1 89.2 30.7 89.2 30.2 89.2 29.6 89.2 29 89.2 28.4 89.2 27.8 89.2 27.2 89.2 26.5 89.2 25.9 89.2 25.3 89.2 24.7 89.2 24.1 89.2 23.5 89.3 23.2 89.3 22.9 89 22 88.6 21.1 88.7 20.8 88.8 20.5 88.4 19.9 88.1 19.3 87.8 18.7 87.5 18.1 87.4 17.7 87.4 17.4 86.7 17 85.9 16.6 85.2 15.8 84.5 15 84.4 14.6 84.4 14.3 83.6 13.8 82.7 13.3 82.6 12.9 82.5 12.5 81.7 12 80.9 11.5 80.8 11 80.7 10.6 80.2 10.4 79.6 10.1 79.1 9.9 78.5 9.6 77.8 9.3 77.1 8.9 76.3 8.5 75.6 8.1 75.1 7.6 74.7 7.1 74.1 6.8 73.5 6.5 73.2 6.3 72.9 6.1 72 6 71.1 6 70.8 5.7 70.4 5.5 69.9 5.5 69.3 5.5 69 5.4 68.7 5.4 67.8 5.7 67 6.1 66.6 6 66.2 6 65.6 6.2 65.1 6.5 64.5 6.8 63.9 7.1 63.2 7.5 62.6 7.8 62.3 7.8 61.9 7.8 61.5 8.5 61.2 9.2 60.7 9.6 60.2 10.1 59.7 11 59.1 11.9 58.7 12 58.3 12.1 58.1 12.6 57.8 13.2 57.3 14 56.7 14.9 56.2 15 55.8 15.1 55.6 15.7 55.3 16.3 54.8 17.1 54.2 18 53.7 18.2 53.2 18.5 52.8 18.9 52.3 19.3 52 19.9 51.7 20.5 51.5 20.8 51.3 21.1 51.3 21.7 51.3 22.3 51.3 22.9 51.3 23.5 51.3 24.1 51.3 24.7 51.3 25.3 51.3 25.9 51.3 26.5 51.3 27.2 51.3 27.8 51.3 28.4 51.3 29 51.3 29.6 51.3 30.2 51.3 30.8 51.3 31.4 51.3 32 51.2 32.3 51.2 32.7 51.5 33.6 51.9 34.4 51.8 34.8 51.8 35.1 52 35.7 52.3 36.2 52.7 37.1 53.1 38 53 38.4 53 38.8 53.2 39.4 53.5 39.9 53.7 40.3 53.9 40.8 54.6 41.5 55.3 42.3 55.6 42.9 55.9 43.5 56 43.9 56.1 44.3 56.6 44.5 57.2 44.8 58 45.2 58.7 45.6 59.2 46.1 59.6 46.6 60.2 46.9 60.7 47.1 61.4 47.4 62.1 47.8 62.7 48.1 63.4 48.4 63.9 48.7 64.5 49.1 65.1 49.4 65.7 49.7 66.2 49.9 66.7 50.2 67.4 50.4 68.1 50.7 68.7 50.7 69.3 50.7 69.9 50.7 70.5 50.7 70.9 50.7 71.4 50.7 72.6 50.4 73.8 50.1 74 50.1 74.2 50.1 74.4 50.1 74.6 50.1 74.7 50.2 74.9 50.3 75.1 50.4 75.2 50.5 75.3 50.6 75.4 50.8 75.5 50.9 75.6 51.1 75.6 51.3 75.7 51.4 75.7 51.6 75.7 51.8 75.6 52 75.6 52.1 75.5 52.3 75.4 52.5 75.3 52.6 75.2 52.7 75 52.8 74.9 52.9 74.7 53 74.5 53.1 74.5 53.1 Z" fill="rgb(255, 255, 255, 1)"/>
  <path d="M 88.1 124.4 Q 88.1 124.4 89 125.3 89.9 126.3 90.8 127.1 91.7 128 92.9 129.2 94.2 130.4 94.8 131.1 95.4 131.8 96 132.4 96.6 132.9 98.2 134.8 99.7 136.7 100.6 137.6 101.5 138.4 102.7 139.6 103.9 140.8 105.3 142.8 106.6 144.8 107.8 146.2 109 147.6 109.9 149.3 110.9 150.9 112 152.4 113.2 153.8 114.2 155.7 115.2 157.7 115.5 158.3 115.8 158.9 116.4 159.8 117 160.7 117.5 161.2 118 161.7 118.5 162.9 118.9 164 119.2 164.5 119.4 165 120 165.9 120.6 166.8 121 167.5 121.4 168.2 121.4 169.1 121.5 169.9 121.7 170.2 121.9 170.5 122.3 171.2 122.6 171.9 123.1 172.7 123.6 173.5 124.3 174.4 124.9 175.3 125.2 176.3 125.6 177.4 126.1 177.9 126.7 178.4 126.6 179.1 126.5 179.7 127.2 180 127.8 180.4 128 181.1 128.1 181.9 128.5 182.1 129 182.4 129.4 183.6 129.9 184.8 130.4 185.3 130.9 185.8 131 186.7 131.2 187.6 132.1 189.2 132.9 190.7 133 191 133.1 191.2 133.1 191.4 133.1 191.7 133 191.9 132.9 192.1 132.8 192.3 132.6 192.5 132.4 192.6 132.2 192.8 132 192.8 131.7 192.9 131.5 192.9 131.2 192.9 131 192.8 130.8 192.7 130.6 192.5 130.4 192.3 130.3 192.1 130.2 191.9 130.1 191.7 130.1 191.4 130.1 191.2 130.2 191 130.3 190.7 130.4 190.5 130.6 190.4 130.7 190.2 130.9 190.1 131.2 190 131.4 189.9 131.6 189.9 131.9 189.9 132.1 190 132.3 190.1 132.5 190.2 132.7 190.4 132.9 190.6 133 190.8 133.1 191 133.1 191.3 133.1 191.5 133 191.8 133 192 132.8 192.2 132.7 192.4 132.5 192.6 132.3 192.7 132.1 192.8 131.9 192.9 131.6 192.9 131.4 192.9 131.2 192.8 130.9 192.7 130.7 192.6 130.5 192.5 130.4 192.3 130.3 192.1 130.3 192.1 130.3 192.1 129.2 189.9 128.2 187.8 128.4 187.5 128.5 187.3 127.8 186.5 127.1 185.8 127 185.1 126.8 184.4 126.1 183.5 125.3 182.5 125.4 182.1 125.6 181.6 125 181.4 124.5 181.1 124.4 180.5 124.3 179.9 123.6 179.2 122.8 178.4 122.6 177.7 122.3 176.9 121.7 176 121.2 175.1 120.5 174.1 119.8 173.1 119.5 172.5 119.3 171.9 118.9 171 118.5 170.1 118.6 169.7 118.6 169.4 118.4 168.9 118.2 168.4 117.5 167.4 116.8 166.4 116.4 165.7 116.1 165 115.9 164.3 115.8 163.7 115.1 163 114.4 162.3 113.8 161.3 113.2 160.3 112.9 159.7 112.6 159.1 111.7 157.4 110.8 155.6 109.6 154 108.3 152.5 107.5 151 106.6 149.6 105.3 148 104 146.4 102.9 144.7 101.9 143 100.6 141.8 99.3 140.6 98.4 139.6 97.5 138.7 95.9 136.9 94.4 135.1 93.8 134.4 93.2 133.8 92.6 133.2 92 132.6 90.9 131.4 89.7 130.2 88.7 129.3 87.7 128.3 86.8 127.4 85.9 126.4 85.8 126.3 85.7 126.1 85.6 126 85.6 125.8 85.5 125.6 85.5 125.5 85.5 125.3 85.5 125.1 85.6 124.9 85.6 124.7 85.7 124.6 85.8 124.4 86 124.3 86.1 124.2 86.3 124.1 86.4 124 86.6 124 86.8 123.9 87 123.9 87.1 123.9 87.3 123.9 87.5 124 87.6 124.1 87.8 124.1 87.9 124.3 88.1 124.4 88.1 124.4 Z" fill="rgb(255, 255, 255, 1)"/>
  <path d="M 75.4 50.1 Q 75.4 50.1 77.3 50.1 79.1 50.1 80.2 50.4 81.4 50.8 82.3 51.1 83.1 51.4 84.2 51.3 85.2 51.3 86.3 51.6 87.5 52 88.6 52.3 89.8 52.5 91.3 52.8 92.8 53.1 94 53.4 95.3 53.7 97.2 54.4 99.1 55.1 101.1 55.3 103.1 55.6 105 56.2 107 56.9 108.4 57.2 109.9 57.4 111.1 57.7 112.4 58 114 58.7 115.6 59.3 116.8 59.6 117.9 59.8 119.4 60.2 120.9 60.5 122.1 60.8 123.4 61.1 124.4 61.5 125.4 61.8 126.3 62.1 127.2 62.4 128.1 62.7 129 63 129.7 63.3 130.4 63.7 131.2 63.9 132 64.2 132.3 64.2 132.5 64.2 132.7 63.8 132.9 63.3 133.9 62.7 134.9 62 135.7 60.9 136.5 59.8 137.9 58.7 139.2 57.7 140 56.9 140.8 56 142.4 54.7 144 53.4 144.5 52.7 145 51.9 146.4 50.9 147.8 49.8 148.6 48.9 149.4 48.1 150.3 47.2 151.2 46.2 152.3 45.5 153.4 44.8 153.9 44.3 154.3 43.8 154.9 43.2 155.5 42.6 156.7 41.4 157.9 40.1 158.1 40 158.3 39.9 158.6 39.8 158.8 39.7 159 39.7 159.3 39.7 159.5 39.8 159.7 39.9 159.9 40 160.1 40.2 160.2 40.4 160.4 40.6 160.4 40.8 160.5 41.1 160.5 41.3 160.5 41.6 160.4 41.8 160.3 42 160.1 42.2 159.9 42.4 159.7 42.5 159.5 42.6 159.3 42.7 159 42.7 158.8 42.7 158.6 42.6 158.3 42.5 158.1 42.4 158 42.2 157.8 42.1 157.7 41.9 157.6 41.6 157.5 41.4 157.5 41.2 157.5 40.9 157.6 40.7 157.7 40.5 157.8 40.3 158 40.1 158.2 39.9 158.4 39.8 158.6 39.7 158.9 39.7 159.1 39.7 159.4 39.8 159.6 39.8 159.8 40 160 40.1 160.2 40.3 160.3 40.5 160.4 40.7 160.5 40.9 160.5 41.2 160.5 41.4 160.4 41.6 160.3 41.9 160.2 42.1 160.1 42.3 160.1 42.3 160.1 42.3 158.9 43.4 157.7 44.6 157.1 45.3 156.5 46 155.7 46.7 155 47.4 154.2 47.9 153.4 48.4 152.5 49.2 151.6 50.1 150.6 51.2 149.6 52.2 148.5 52.9 147.4 53.7 146.7 54.7 146 55.8 144.5 57 143 58.2 142 59.1 141 60.1 139.9 60.9 138.9 61.6 137.8 63 136.7 64.4 135.9 64.9 135.1 65.5 134.1 66.2 133.1 67 132.1 67 131.2 67 130.1 66.7 129 66.3 128.5 66.1 128 65.8 127.1 65.5 126.2 65.2 125.3 64.9 124.4 64.6 123.5 64.3 122.6 64.1 121.5 63.8 120.3 63.5 118.7 63.1 117.1 62.8 115.8 62.4 114.6 62.1 113.1 61.5 111.6 61 110.5 60.7 109.3 60.4 107.7 60 106 59.7 104.4 59.2 102.7 58.6 100.4 58.3 98.1 57.9 96.3 57.3 94.5 56.7 93.4 56.4 92.2 56.1 90.6 55.8 89 55.5 87.8 55.1 86.5 54.8 85.9 54.6 85.2 54.3 83.7 54.3 82.3 54.2 81.3 53.9 80.4 53.6 79.8 53.4 79.1 53.1 77.2 53.1 75.4 53.1 75.2 53.1 75 53.1 74.9 53 74.7 52.9 74.6 52.8 74.4 52.7 74.3 52.6 74.2 52.5 74.1 52.3 74 52.1 74 52 73.9 51.8 73.9 51.6 73.9 51.4 74 51.2 74 51.1 74.1 50.9 74.2 50.7 74.3 50.6 74.4 50.5 74.6 50.4 74.7 50.3 74.9 50.2 75 50.1 75.2 50.1 75.4 50.1 75.4 50.1 Z" fill="rgb(255, 255, 255, 1)"/>
  <path d="M 159.5 29.2 Q 159.5 29.2 159.5 30.5 159.5 31.9 159.5 32.5 159.5 33.2 159.5 33.9 159.5 34.6 159.5 35.2 159.5 35.9 159.5 36.5 159.5 37.2 159.5 38 159.5 38.9 159.6 39.2 159.7 39.5 159 39.6 158.3 39.7 158.9 39.7 159.6 39.7 159.9 39.6 160.2 39.5 162.1 39.1 164 38.7 164.2 38.7 164.5 38.8 164.7 38.9 164.9 39 165.1 39.2 165.2 39.4 165.3 39.6 165.4 39.8 165.5 40 165.5 40.3 165.4 40.5 165.4 40.8 165.3 41 165.1 41.2 165 41.3 164.8 41.5 164.5 41.6 164.3 41.7 164.1 41.7 163.8 41.7 163.6 41.6 163.4 41.6 163.2 41.4 163 41.3 162.8 41.1 162.7 40.9 162.6 40.7 162.5 40.4 162.5 40.2 162.5 40 162.6 39.7 162.7 39.5 162.8 39.3 163 39.1 163.2 39 163.4 38.8 163.6 38.8 163.8 38.7 164.1 38.7 164.3 38.7 164.5 38.8 164.8 38.9 165 39.1 165.1 39.2 165.3 39.4 165.4 39.6 165.4 39.9 165.5 40.1 165.5 40.4 165.4 40.6 165.3 40.8 165.2 41 165.1 41.2 164.9 41.4 164.7 41.5 164.5 41.6 164.2 41.7 164 41.7 164 41.7 164 41.7 162.5 42 161 42.3 160.3 42.5 159.6 42.7 159 42.7 158.3 42.7 157.6 41.5 156.9 40.3 156.7 39.6 156.5 38.9 156.5 38.1 156.5 37.2 156.5 36.5 156.5 35.9 156.5 35.2 156.5 34.6 156.5 33.9 156.5 33.2 156.5 32.5 156.5 31.9 156.5 30.5 156.5 29.2 156.5 29 156.5 28.8 156.6 28.7 156.7 28.5 156.8 28.4 156.9 28.2 157 28.1 157.1 28 157.3 27.9 157.5 27.8 157.6 27.8 157.8 27.7 158 27.7 158.2 27.7 158.4 27.8 158.5 27.8 158.7 27.9 158.9 28 159 28.1 159.1 28.2 159.2 28.4 159.3 28.5 159.4 28.7 159.5 28.8 159.5 29 159.5 29.2 159.5 29.2 Z" fill="rgb(255, 255, 255, 1)"/>
  <path d="M 158.3 35.1 Q 158.3 35.1 159.6 35.1 161 35.1 161.6 35.1 162.3 35.1 162.9 35.1 163.6 35.1 163.8 35.1 164 35.1 164.1 35.2 164.3 35.3 164.4 35.4 164.6 35.5 164.7 35.6 164.8 35.7 164.9 35.9 165 36.1 165 36.2 165.1 36.4 165.1 36.6 165.1 36.8 165 37 165 37.1 164.9 37.3 164.8 37.5 164.7 37.6 164.6 37.7 164.4 37.8 164.3 37.9 164.1 38 164 38.1 163.8 38.1 163.6 38.1 163.5 38.3 163.4 38.5 162.9 38.8 162.4 39.1 161.9 39.3 161.5 39.4 161.3 39.5 161.1 39.6 161 39.6 160.8 39.7 160.6 39.7 160.4 39.7 160.3 39.6 160.1 39.6 159.9 39.5 159.8 39.4 159.6 39.3 159.5 39.2 159.4 39.1 159.3 38.9 159.2 38.7 159.1 38.6 159.1 38.4 159.1 38.2 159.1 38 159.1 37.9 159.2 37.7 159.3 37.5 159.4 37.4 159.5 37.2 159.6 37.1 159.7 37 160.5 36.7 161.2 36.5 161.7 36.3 162.2 36.2 162.7 36 163.2 35.8 163.3 35.7 163.5 35.7 163.7 35.7 163.9 35.7 164.1 35.8 164.2 35.8 164.4 35.9 164.5 36 164.7 36.2 164.8 36.3 164.9 36.4 165 36.6 165 36.8 165.1 36.9 165.1 37.1 165.1 37.3 165.1 37.5 165 37.7 165 37.8 164.9 38 164.8 38.1 164.6 38.3 164.5 38.4 164.4 38.5 164.2 38.6 164 38.6 163.6 38.8 163.2 39 161.7 39.5 160.2 40 159.9 40 159.7 40.1 159.4 40.1 159.2 40 159 39.9 158.8 39.8 158.6 39.7 158.4 39.5 158.3 39.3 158.2 39.1 158.1 38.8 158.1 38.6 158.1 38.4 158.2 38.1 158.3 37.9 158.4 37.7 158.6 37.5 158.8 37.4 159 37.3 159.2 37.2 159.4 37.1 159.7 37.1 159.9 37.2 160.2 37.2 160.4 37.3 160.6 37.5 160.7 37.6 160.9 37.8 161 38.1 161.1 38.3 161.1 38.5 161.1 38.8 161 39 161 39.2 160.8 39.4 160.7 39.6 160.5 39.8 160.3 39.9 160.1 40 159.8 40.1 159.6 40.1 159.4 40.1 159.1 40 158.9 39.9 158.7 39.8 158.5 39.6 158.4 39.4 158.2 39.2 158.2 39 158.1 38.8 158.1 38.5 158.1 38.3 158.2 38.1 158.3 37.8 158.5 37.6 158.6 37.5 158.8 37.3 159 37.2 159 37.2 159 37.2 160.5 36.7 162 36.2 162.6 36 163.2 35.8 163.3 35.7 163.5 35.7 163.7 35.7 163.9 35.7 164.1 35.8 164.2 35.8 164.4 35.9 164.5 36 164.7 36.2 164.8 36.3 164.9 36.4 165 36.6 165 36.8 165.1 36.9 165.1 37.1 165.1 37.3 165.1 37.5 165 37.7 165 37.8 164.9 38 164.8 38.1 164.6 38.3 164.5 38.4 164.4 38.5 164.2 38.6 164 38.6 163.5 38.8 163 39 162.5 39.2 162 39.3 161.7 39.4 161.5 39.4 161.3 39.5 161.1 39.6 161 39.6 160.8 39.7 160.6 39.7 160.4 39.7 160.3 39.6 160.1 39.6 159.9 39.5 159.8 39.4 159.6 39.3 159.5 39.2 159.4 39.1 159.3 38.9 159.2 38.7 159.1 38.6 159.1 38.4 159.1 38.2 159.1 38 159.1 37.9 159.2 37.7 159.3 37.5 159.4 37.4 159.5 37.2 159.6 37.1 159.7 37 160.3 36.8 160.8 36.7 161.3 36.3 161.8 35.9 162.7 35.5 163.6 35.1 163.8 35.1 164 35.1 164.1 35.2 164.3 35.3 164.4 35.4 164.6 35.5 164.7 35.6 164.8 35.7 164.9 35.9 165 36.1 165 36.2 165.1 36.4 165.1 36.6 165.1 36.8 165 37 165 37.1 164.9 37.3 164.8 37.5 164.7 37.6 164.6 37.7 164.4 37.8 164.3 37.9 164.1 38 164 38.1 163.8 38.1 163.6 38.1 162.9 38.1 162.3 38.1 161.6 38.1 161 38.1 159.6 38.1 158.3 38.1 158.1 38.1 157.9 38.1 157.8 38 157.6 37.9 157.5 37.8 157.3 37.7 157.2 37.6 157.1 37.5 157 37.3 156.9 37.1 156.9 37 156.8 36.8 156.8 36.6 156.8 36.4 156.9 36.2 156.9 36.1 157 35.9 157.1 35.7 157.2 35.6 157.3 35.5 157.5 35.4 157.6 35.3 157.8 35.2 157.9 35.1 158.1 35.1 158.3 35.1 158.3 35.1 Z" fill="rgb(255, 255, 255, 1)"/>
  <path d="M 158.1 31.4 Q 158.1 31.4 159.3 31.3 160.4 31.1 161.2 31.1 162 31.1 162.4 31 162.8 30.8 163.1 31 163.4 31.2 163.6 31.2 163.8 31.1 164 31.1 164.2 31.1 164.3 31.1 164.5 31.2 164.7 31.3 164.8 31.4 165 31.5 165.1 31.6 165.2 31.7 165.3 31.9 165.4 32 165.4 32.2 165.5 32.4 165.5 32.6 165.5 32.8 165.5 32.9 165.4 33.1 165.3 33.3 165.2 33.4 165.1 33.6 165 33.7 164.9 33.8 164.7 33.9 164.6 34 164 34.2 163.5 34.3 163.1 34.6 162.8 34.8 162.1 35.1 161.4 35.3 162.1 35.3 162.7 35.3 162.6 35.4 162.4 35.4 162.2 35.4 162 35.4 161.8 35.3 161.7 35.3 161.5 35.2 161.4 35.1 161.2 34.9 161.1 34.8 161 34.7 160.9 34.5 160.9 34.3 160.8 34.2 160.8 34 160.8 33.8 160.8 33.6 160.9 33.4 160.9 33.3 161 33.1 161.1 33 161.3 32.8 161.4 32.7 161.5 32.6 161.7 32.5 161.9 32.5 162.1 32.4 162.4 32.4 162.6 32.4 162.8 32.5 163 32.6 163.2 32.7 163.4 32.9 163.6 33.1 163.7 33.3 163.8 33.5 163.8 33.8 163.8 34 163.7 34.3 163.7 34.5 163.5 34.7 163.4 34.9 163.2 35.1 163 35.2 162.8 35.3 162.6 35.4 162.3 35.4 162.1 35.4 161.9 35.3 161.6 35.2 161.4 35.1 161.2 35 161.1 34.8 161 34.6 160.9 34.3 160.8 34.1 160.8 33.9 160.8 33.6 160.9 33.4 161 33.2 161.2 33 161.3 32.8 161.5 32.6 161.7 32.5 162 32.5 162.2 32.4 162.4 32.4 162.7 32.4 162.9 32.5 163.1 32.6 163.3 32.8 163.5 33 163.6 33.2 163.7 33.4 163.8 33.6 163.8 33.9 163.8 34.1 163.7 34.3 163.6 34.6 163.5 34.8 163.3 35 163.2 35.1 162.9 35.2 162.7 35.3 162.7 35.3 162.7 35.3 162.6 35.4 162.4 35.4 162.2 35.4 162 35.4 161.8 35.3 161.7 35.3 161.5 35.2 161.4 35.1 161.2 34.9 161.1 34.8 161 34.7 160.9 34.5 160.9 34.3 160.8 34.2 160.8 34 160.8 33.8 160.8 33.6 160.9 33.4 160.9 33.3 161 33.1 161.1 33 161.3 32.8 161.4 32.7 161.5 32.6 161.7 32.5 161.9 32.5 161.2 32.5 160.6 32.5 160.9 32.4 161.2 32.4 161.9 31.9 162.5 31.5 163 31.3 163.4 31.2 163.6 31.2 163.8 31.1 164 31.1 164.2 31.1 164.3 31.1 164.5 31.2 164.7 31.3 164.8 31.4 165 31.5 165.1 31.6 165.2 31.7 165.3 31.9 165.4 32 165.4 32.2 165.5 32.4 165.5 32.6 165.5 32.8 165.5 32.9 165.4 33.1 165.3 33.3 165.2 33.4 165.1 33.6 165 33.7 164.9 33.8 164.7 33.9 164.6 34 163.9 33.8 163.2 33.6 162.6 33.8 162 34.1 161.4 34.1 160.8 34.1 159.6 34.2 158.5 34.4 158.3 34.4 158.1 34.4 158 34.3 157.8 34.3 157.6 34.2 157.5 34.1 157.3 34 157.2 33.9 157.1 33.8 157 33.6 156.9 33.4 156.8 33.3 156.8 33.1 156.8 32.9 156.8 32.7 156.8 32.6 156.9 32.4 157 32.2 157.1 32.1 157.2 31.9 157.3 31.8 157.4 31.7 157.6 31.6 157.8 31.5 157.9 31.5 158.1 31.4 158.1 31.4 Z" fill="rgb(255, 255, 255, 1)"/>
  <path d="M 158.3 27.7 Q 158.3 27.7 159.6 27.7 161 27.7 162.4 27.4 163.9 27.2 164.1 27.1 164.4 27.1 164.6 27.1 164.8 27.2 165 27.3 165.2 27.4 165.4 27.6 165.6 27.8 165.7 28 165.8 28.2 165.8 28.5 165.8 28.7 165.7 29 165.7 29.2 165.5 29.4 165.4 29.6 165.2 29.8 165 29.9 164.8 30 164.6 30.1 164.3 30.1 164.1 30.1 163.9 30 163.6 29.9 163.4 29.8 163.2 29.7 163.1 29.5 163 29.3 162.9 29 162.8 28.8 162.8 28.6 162.8 28.3 162.9 28.1 163 27.9 163.2 27.7 163.3 27.5 163.5 27.3 163.7 27.2 164 27.2 164.2 27.1 164.4 27.1 164.7 27.1 164.9 27.2 165.1 27.3 165.3 27.5 165.5 27.7 165.6 27.9 165.7 28.1 165.8 28.3 165.8 28.6 165.8 28.8 165.7 29 165.6 29.3 165.5 29.5 165.3 29.7 165.2 29.8 164.9 29.9 164.7 30 164.7 30 164.7 30 162.9 30.4 161 30.7 159.6 30.7 158.3 30.7 158.1 30.7 157.9 30.7 157.8 30.6 157.6 30.5 157.5 30.4 157.3 30.3 157.2 30.2 157.1 30.1 157 29.9 156.9 29.7 156.9 29.6 156.8 29.4 156.8 29.2 156.8 29 156.9 28.8 156.9 28.7 157 28.5 157.1 28.3 157.2 28.2 157.3 28.1 157.5 28 157.6 27.9 157.8 27.8 157.9 27.7 158.1 27.7 158.3 27.7 158.3 27.7 Z" fill="rgb(255, 255, 255, 1)"/>
  <path d="M 156.1 28.6 Q 156.1 28.6 156.1 27.2 156.1 25.9 156.1 25.2 156.1 24.6 156.4 22.5 156.6 20.3 156.7 20.1 156.9 19.9 157 19.8 157.2 19.6 157.5 19.5 157.7 19.4 157.9 19.4 158.2 19.4 158.4 19.5 158.6 19.5 158.8 19.7 159 19.8 159.2 20 159.3 20.2 159.4 20.4 159.5 20.7 159.5 20.9 159.5 21.1 159.4 21.4 159.3 21.6 159.2 21.8 159 22 158.8 22.1 158.6 22.3 158.4 22.3 158.2 22.4 157.9 22.4 157.7 22.4 157.5 22.3 157.2 22.2 157 22 156.9 21.9 156.7 21.7 156.6 21.5 156.6 21.2 156.5 21 156.5 20.7 156.6 20.5 156.7 20.3 156.8 20.1 156.9 19.9 157.1 19.7 157.3 19.6 157.5 19.5 157.8 19.4 158 19.4 158.2 19.4 158.5 19.5 158.7 19.6 158.9 19.7 159.1 19.9 159.2 20.1 159.3 20.3 159.4 20.5 159.5 20.7 159.5 21 159.4 21.2 159.4 21.5 159.4 21.5 159.4 21.5 159.2 23 159.1 24.6 159.1 25.2 159.1 25.9 159.1 27.2 159.1 28.6 159.1 28.8 159.1 29 159 29.1 158.9 29.3 158.8 29.4 158.7 29.6 158.6 29.7 158.5 29.8 158.3 29.9 158.1 30 158 30 157.8 30.1 157.6 30.1 157.4 30.1 157.2 30 157.1 30 156.9 29.9 156.7 29.8 156.6 29.7 156.5 29.6 156.4 29.4 156.3 29.3 156.2 29.1 156.1 29 156.1 28.8 156.1 28.6 156.1 28.6 Z" fill="rgb(255, 255, 255, 1)"/>
  <path d="M 61.2 23.5 Q 61.2 23.5 61.1 24.2 61 24.9 60.8 24.9 60.6 24.9 60.8 24.5 60.9 24 61.3 23.9 61.7 23.8 62.4 24.2 63.1 24.5 62.7 24.6 62.3 24.7 62.3 25 62.2 25.2 62.2 25.5 62.1 25.7 62.2 25.9 62.3 26.1 62.9 26.6 63.5 27.1 63.5 27.2 63.5 27.4 63.5 27.6 63.5 27.8 63.4 27.9 63.3 28.1 63.2 28.3 63.1 28.4 63 28.5 62.8 28.6 62.7 28.7 62.5 28.8 62.3 28.9 62.2 28.9 62 28.9 61.8 28.9 61.6 28.8 61.4 28.8 61.3 28.7 61.1 28.6 61 28.5 60.9 28.4 60.8 28.2 60.7 28.1 60.6 27.9 60.5 27.7 60.8 27.1 61.1 26.5 60.8 26.4 60.5 26.3 60 25.6 59.5 25 59.2 24.8 58.9 24.6 58.4 24.5 57.8 24.3 57.7 24.2 57.6 24.1 57.5 23.9 57.4 23.8 57.3 23.6 57.2 23.4 57.2 23.3 57.2 23.1 57.2 22.9 57.2 22.7 57.3 22.6 57.4 22.4 57.5 22.2 57.6 22.1 57.7 22 57.9 21.9 58 21.8 58.2 21.7 58.4 21.7 58.5 21.6 58.7 21.6 58.9 21.6 59.1 21.7 59.2 21.7 59.4 21.8 59.6 21.9 60.4 21.3 61.3 20.7 61.5 20.6 61.8 20.6 62 20.6 62.2 20.7 62.4 20.8 62.6 20.9 62.8 21.1 63 21.3 63.1 21.5 63.2 21.7 63.2 22 63.2 22.2 63.1 22.5 63.1 22.7 62.9 22.9 62.8 23.1 62.6 23.3 62.4 23.4 62.2 23.5 62 23.6 61.7 23.6 61.5 23.6 61.3 23.5 61 23.4 60.8 23.3 60.6 23.2 60.5 23 60.4 22.8 60.3 22.5 60.2 22.3 60.2 22.1 60.2 21.8 60.3 21.6 60.4 21.4 60.6 21.2 60.7 21 60.9 20.8 61.1 20.7 61.4 20.7 61.6 20.6 61.8 20.6 62.1 20.6 62.3 20.7 62.5 20.8 62.7 21 62.9 21.2 63 21.4 63.1 21.6 63.2 21.8 63.2 22.1 63.2 22.3 63.1 22.5 63 22.8 62.9 23 62.7 23.2 62.6 23.3 62.3 23.4 62.1 23.5 62.1 23.5 62.1 23.5 60 23.9 57.8 24.3 57.7 24.2 57.6 24.1 57.5 23.9 57.4 23.8 57.3 23.6 57.2 23.4 57.2 23.3 57.2 23.1 57.2 22.9 57.2 22.7 57.3 22.6 57.4 22.4 57.5 22.2 57.6 22.1 57.7 22 57.9 21.9 58 21.8 58.2 21.7 58.4 21.7 58.5 21.6 58.7 21.6 58.9 21.6 59.1 21.7 59.2 21.7 59.4 21.8 59.6 21.9 60 22 60.5 22.2 61.2 22.7 61.9 23.2 62.4 23.9 62.9 24.5 63.3 25.4 63.7 26.3 63.6 26.7 63.5 27.1 63.5 27.2 63.5 27.4 63.5 27.6 63.5 27.8 63.4 27.9 63.3 28.1 63.2 28.3 63.1 28.4 63 28.5 62.8 28.6 62.7 28.7 62.5 28.8 62.3 28.9 62.2 28.9 62 28.9 61.8 28.9 61.6 28.8 61.4 28.8 61.3 28.7 61.1 28.6 61 28.5 60.9 28.4 60.8 28.2 60.7 28.1 60.6 27.9 60.5 27.7 60.1 27.5 59.7 27.3 59.5 26.2 59.3 25.1 59.5 24.3 59.8 23.6 60.4 22.8 61.1 22.1 61.7 21.9 62.3 21.7 63.3 23 64.3 24.4 63.7 25.3 63.1 26.2 62.2 26.7 61.4 27.3 60.2 26.9 59 26.5 58.6 25.2 58.2 23.9 58.2 23.7 58.2 23.6 58.2 23.4 58.3 23.2 58.4 23 58.4 22.9 58.6 22.7 58.7 22.6 58.8 22.5 59 22.4 59.1 22.3 59.3 22.3 59.5 22.2 59.7 22.2 59.8 22.2 60 22.2 60.2 22.3 60.4 22.4 60.5 22.5 60.7 22.5 60.8 22.7 60.9 22.8 61 23 61.1 23.1 61.1 23.3 61.2 23.5 61.2 23.5 Z" fill="rgb(255, 255, 255, 1)"/>
  <path d="M 78.5 19.8 Q 78.5 19.8 77.5 20.8 76.5 21.8 76 22.4 75.6 23 75.1 23.6 74.6 24.3 74.1 23.7 73.6 23.2 74 23.5 74.4 23.8 74.7 23.7 75 23.6 76.3 23.8 77.6 23.9 78.5 23.9 79.4 23.9 81.6 24.1 83.7 24.2 83.9 24.3 84.2 24.4 84.4 24.6 84.5 24.7 84.7 24.9 84.8 25.1 84.8 25.4 84.9 25.6 84.9 25.9 84.8 26.1 84.7 26.3 84.6 26.5 84.5 26.7 84.3 26.9 84.1 27 83.9 27.1 83.6 27.2 83.4 27.2 83.2 27.2 82.9 27.1 82.7 27 82.5 26.9 82.3 26.7 82.2 26.5 82.1 26.3 82 26.1 81.9 25.9 81.9 25.6 82 25.4 82 25.2 82.1 24.9 82.3 24.7 82.4 24.6 82.6 24.4 82.8 24.3 83.1 24.2 83.3 24.2 83.6 24.2 83.8 24.3 84 24.3 84.2 24.5 84.4 24.6 84.6 24.8 84.7 25 84.8 25.2 84.9 25.4 84.9 25.7 84.9 25.9 84.8 26.2 84.7 26.4 84.6 26.6 84.4 26.8 84.2 26.9 84 27.1 83.8 27.1 83.6 27.2 83.3 27.2 83.1 27.2 83.1 27.2 83.1 27.2 81.2 27 79.4 26.9 78.3 26.9 77.2 26.9 76.1 26.7 75 26.6 74 26.5 73 26.4 72.4 26 71.8 25.6 72 24.1 72.2 22.5 72.7 21.9 73.2 21.2 73.8 20.4 74.3 19.6 75.3 18.6 76.3 17.6 76.5 17.5 76.6 17.4 76.8 17.3 77 17.3 77.1 17.2 77.3 17.2 77.5 17.2 77.7 17.2 77.8 17.3 78 17.3 78.2 17.4 78.3 17.5 78.5 17.6 78.6 17.8 78.7 17.9 78.8 18.1 78.8 18.3 78.9 18.4 78.9 18.6 78.9 18.8 78.9 19 78.8 19.1 78.8 19.3 78.7 19.5 78.6 19.6 78.5 19.8 78.5 19.8 Z" fill="rgb(255, 255, 255, 1)"/>
  <path d="M 60.4 35.1 Q 60.4 35.1 61.4 35.6 62.4 36.1 63.1 36.7 63.8 37.3 64.2 37.6 64.6 37.9 65.2 38.4 65.9 38.9 66.3 39.2 66.8 39.4 67.3 39.8 67.8 40.2 68.1 40.2 68.4 40.3 69.1 40.5 69.8 40.7 70.2 40.6 70.7 40.6 71.3 40.6 72 40.6 72.2 40.5 72.4 40.3 73.1 40 73.8 39.7 74.4 39.4 75 39.1 75.4 38.8 75.9 38.5 76.5 38.3 77.1 38.1 77.1 37.8 77.2 37.5 78.4 35.8 79.6 34 79.8 33.9 80 33.8 80.3 33.7 80.5 33.6 80.7 33.6 81 33.6 81.2 33.7 81.4 33.8 81.6 33.9 81.8 34.1 81.9 34.3 82.1 34.5 82.1 34.7 82.2 35 82.2 35.2 82.2 35.5 82.1 35.7 82 35.9 81.8 36.1 81.6 36.3 81.4 36.4 81.2 36.5 81 36.6 80.7 36.6 80.5 36.6 80.3 36.5 80 36.4 79.8 36.3 79.7 36.1 79.5 36 79.4 35.8 79.3 35.5 79.2 35.3 79.2 35.1 79.2 34.8 79.3 34.6 79.4 34.4 79.5 34.2 79.7 34 79.9 33.8 80.1 33.7 80.3 33.6 80.6 33.6 80.8 33.6 81.1 33.7 81.3 33.7 81.5 33.9 81.7 34 81.9 34.2 82 34.4 82.1 34.6 82.2 34.8 82.2 35.1 82.2 35.3 82.1 35.5 82 35.8 81.9 36 81.8 36.2 81.8 36.2 81.8 36.2 80.7 37.7 79.6 39.3 79 40 78.3 40.7 77.9 40.8 77.5 40.9 77 41.3 76.4 41.7 75.7 42.1 75 42.5 74.3 42.8 73.6 43.1 72.8 43.3 72 43.6 71.4 43.6 70.7 43.6 69.9 43.6 69 43.5 68.3 43.3 67.6 43.1 66.9 42.9 66.2 42.6 65.7 42.3 65.2 42 64.7 41.6 64.1 41.3 63.5 40.8 62.8 40.3 62.2 39.9 61.6 39.5 61.3 39.1 61 38.7 60 38.2 59 37.7 58.9 37.6 58.7 37.5 58.6 37.4 58.5 37.3 58.4 37.1 58.3 37 58.3 36.8 58.2 36.6 58.2 36.4 58.2 36.2 58.2 36.1 58.3 35.9 58.4 35.7 58.4 35.6 58.6 35.4 58.7 35.3 58.8 35.2 59 35.1 59.1 35 59.3 35 59.5 34.9 59.7 34.9 59.9 34.9 60 34.9 60.2 35 60.4 35.1 60.4 35.1 Z" fill="rgb(255, 255, 255, 1)"/>
  <path d="M 61.2 23.5 Q 61.2 23.5 60.2 23.8 59.2 24.1 59.3 24.3 59.4 24.5 59.2 25.1 59 25.6 59 25.9 59.1 26.2 59.3 26.4 59.5 26.5 59.8 26.7 60.1 26.9 60.4 26.9 60.7 27 61.1 26.9 61.6 26.9 61.8 26.8 62 26.8 62 26.5 62.1 26.3 62.1 26 62.2 25.7 62.4 25.1 62.6 24.6 62.6 24.2 62.5 23.8 61.8 23.1 61.1 22.3 61 22.2 60.8 22 60.7 21.8 60.6 21.6 60.5 21.3 60.5 21.1 60.5 20.8 60.6 20.6 60.7 20.4 60.8 20.2 61 20 61.2 19.8 61.4 19.7 61.6 19.6 61.9 19.6 62.1 19.6 62.3 19.7 62.6 19.7 62.8 19.8 63 20 63.1 20.2 63.3 20.3 63.4 20.6 63.5 20.8 63.5 21 63.5 21.3 63.4 21.5 63.4 21.8 63.2 21.9 63.1 22.1 62.9 22.3 62.7 22.4 62.5 22.5 62.2 22.6 62 22.6 61.7 22.6 61.5 22.5 61.3 22.4 61.1 22.3 60.9 22.1 60.8 21.9 60.6 21.7 60.6 21.5 60.5 21.2 60.5 21 60.5 20.8 60.6 20.5 60.7 20.3 60.9 20.1 61 19.9 61.3 19.8 61.5 19.7 61.7 19.6 61.9 19.6 62.2 19.6 62.4 19.7 62.6 19.8 62.9 19.9 62.9 19.9 62.9 19.9 64.2 21.8 65.5 23.8 65.4 24.7 65.4 25.6 65.2 26.1 65 26.5 64.8 27.2 64.5 27.9 63.9 28.7 63.2 29.4 62.4 29.7 61.6 29.9 60.8 29.9 59.9 29.8 59.2 29.6 58.5 29.3 57.8 28.8 57.1 28.3 56.6 27.4 56.1 26.6 56.2 25.6 56.2 24.6 56.4 24.1 56.6 23.7 57 22.9 57.4 22.1 58.7 21.4 60 20.7 60.2 20.7 60.3 20.6 60.5 20.6 60.7 20.6 60.9 20.6 61.1 20.7 61.2 20.8 61.4 20.8 61.5 20.9 61.7 21.1 61.8 21.2 61.9 21.3 62 21.5 62 21.7 62.1 21.9 62.1 22 62.1 22.2 62.1 22.4 62 22.6 62 22.7 61.9 22.9 61.8 23 61.6 23.2 61.5 23.3 61.4 23.4 61.2 23.5 61.2 23.5 Z" fill="rgb(255, 255, 255, 1)"/>
</svg>