<?xml version="1.0" encoding="UTF-8"?>
<svg xmlns="http://www.w3.org/2000/svg" width="155" height="113" viewBox="0 0 155 113">
  <path d="M 56.9 107.9 Q 56.9 107.9 57.9 106.9 58.9 106 59.4 105.1 59.8 104.2 61 103.5 62.2 102.8 62.4 102.1 62.7 101.3 63.3 100.6 63.9 99.9 64.9 98.9 65.9 97.9 66.9 96.9 68 95.9 69.1 95.3 70.3 94.7 71.1 93.8 71.9 92.9 72.9 91.9 73.9 90.9 74.9 89.5 75.8 88.1 77.5 86.9 79.2 85.8 80 84.9 80.9 84 81.9 82.1 82.8 80.2 84 79.5 85.2 78.8 85.5 78 85.8 77.2 87 76.5 88.2 75.8 88.4 75.1 88.7 74.3 89.3 73.6 89.9 72.9 90.4 72.4 90.9 71.9 91.4 71.4 91.9 70.9 92.2 70 92.5 69 92.5 68.8 92.6 68.5 92.7 68.3 92.8 68.1 93 67.9 93.2 67.8 93.4 67.7 93.6 67.6 93.8 67.5 94.1 67.5 94.3 67.6 94.6 67.6 94.8 67.7 95 67.9 95.1 68 95.3 68.2 95.4 68.5 95.5 68.7 95.5 68.9 95.5 69.2 95.4 69.4 95.4 69.6 95.2 69.8 95.1 70 94.9 70.2 94.7 70.3 94.5 70.4 94.2 70.5 94 70.5 93.8 70.5 93.5 70.4 93.3 70.3 93.1 70.2 92.9 70 92.8 69.8 92.6 69.6 92.6 69.4 92.5 69.2 92.5 68.9 92.5 68.7 92.6 68.5 92.7 68.2 92.9 68 93 67.9 93.2 67.7 93.4 67.6 93.7 67.6 93.9 67.5 94.2 67.5 94.4 67.6 94.6 67.7 94.8 67.8 95 67.9 95.2 68.1 95.3 68.3 95.4 68.5 95.5 68.8 95.5 69 95.5 69 95.5 69 94.8 71 94.1 73.1 93.6 73.6 93.1 74.1 92.6 74.6 92.1 75.1 91.7 75.4 91.3 75.7 90.6 76.9 89.8 78.2 89 78.5 88.2 78.8 87.5 80 86.8 81.2 86 81.5 85.2 81.8 84.1 83.9 83.1 86 82 87.1 80.8 88.2 79.5 89.1 78.2 89.9 77.1 91.5 76.1 93.1 75.1 94.1 74.1 95.1 72.9 96.2 71.7 97.3 70.9 97.7 70 98.1 69.1 99.1 68.1 100.1 67.1 101.1 66.1 102.1 65.7 102.4 65.3 102.7 64.6 103.9 63.8 105.2 63 105.5 62.2 105.8 61.6 106.9 61.1 108 60.1 109.1 59.1 110.1 58.9 110.2 58.8 110.3 58.6 110.4 58.4 110.4 58.3 110.5 58.1 110.5 57.9 110.5 57.7 110.5 57.6 110.4 57.4 110.4 57.2 110.3 57.1 110.2 56.9 110.1 56.8 109.9 56.7 109.8 56.6 109.6 56.6 109.4 56.5 109.3 56.5 109.1 56.5 108.9 56.5 108.7 56.6 108.6 56.6 108.4 56.7 108.2 56.8 108.1 56.9 107.9 56.9 107.9 Z" fill="rgb(0, 0, 0, 1)"/>
  <path d="M 96.4 66.5 Q 96.4 66.5 96.9 68 97.4 69.5 97.8 70.4 98.2 71.2 99 71.6 99.9 71.9 100.7 73.7 101.4 75.5 101.9 76.4 102.3 77.3 103.2 78.1 104 78.9 104.9 79.3 105.7 79.7 106.4 80.3 107.1 80.9 107.6 81.6 108.2 82.3 108.1 84 108 85.7 106.9 86.5 105.8 87.2 105.6 87.9 105.3 88.7 104.3 90.3 103.2 91.8 102.2 93.3 101.2 94.8 99.7 96.4 98.1 98 97.8 99.7 97.4 101.5 96.2 102.8 95.1 104.1 94.1 105.1 93.1 106 92.8 107.5 92.5 109 92.5 109.2 92.4 109.5 92.3 109.7 92.2 109.9 92 110.1 91.8 110.2 91.6 110.3 91.4 110.4 91.2 110.5 90.9 110.5 90.7 110.4 90.4 110.4 90.2 110.3 90 110.1 89.9 110 89.7 109.8 89.6 109.5 89.5 109.3 89.5 109.1 89.5 108.8 89.6 108.6 89.6 108.4 89.8 108.2 89.9 108 90.1 107.8 90.3 107.7 90.5 107.6 90.8 107.5 91 107.5 91.2 107.5 91.5 107.6 91.7 107.7 91.9 107.8 92.1 108 92.2 108.2 92.4 108.4 92.4 108.6 92.5 108.8 92.5 109.1 92.5 109.3 92.4 109.5 92.3 109.8 92.1 110 92 110.1 91.8 110.3 91.6 110.4 91.3 110.4 91.1 110.5 90.8 110.5 90.6 110.4 90.4 110.3 90.2 110.2 90 110.1 89.8 109.9 89.7 109.7 89.6 109.5 89.5 109.2 89.5 109 89.5 109 89.5 109 90.2 106.5 90.9 104 91.9 102.9 92.9 101.9 93.8 101.2 94.6 100.5 95.2 98.3 95.9 96 97.3 94.6 98.8 93.2 99.8 91.7 100.8 90.2 101.7 88.7 102.7 87.3 103.4 86.1 104.2 84.8 105.1 84.5 106 84.3 105.9 84 105.8 83.8 105.4 83.4 104.9 83.1 104.6 82.7 104.3 82.3 103.1 81.7 102 81.1 100.8 79.9 99.7 78.7 99.1 77.6 98.6 76.5 98.3 75.3 98.1 74.1 97 73.4 95.8 72.8 95.2 71.6 94.6 70.5 94.1 69 93.6 67.5 93.5 67.3 93.5 67.1 93.5 66.9 93.5 66.8 93.6 66.6 93.6 66.4 93.7 66.3 93.8 66.1 93.9 66 94.1 65.8 94.2 65.7 94.4 65.6 94.5 65.6 94.7 65.5 94.9 65.5 95.1 65.5 95.2 65.5 95.4 65.6 95.6 65.6 95.8 65.7 95.9 65.8 96 65.9 96.2 66.1 96.3 66.2 96.3 66.4 96.4 66.5 96.4 66.5 Z" fill="rgb(0, 0, 0, 1)"/>
  <path d="M 90.9 66.9 Q 90.9 66.9 91.9 66.1 92.8 65.3 92.7 64.6 92.5 64 92.5 63 92.5 62 93 60.2 93.6 58.5 94.1 57.5 94.6 56.4 94.6 54.7 94.5 53 95 51.3 95.6 49.6 95.5 48.3 95.5 47 95.5 46 95.5 45 95.5 43 95.5 40.9 96.1 39.7 96.6 38.4 96.6 37.7 96.5 36.9 97.1 35.7 97.6 34.4 97.6 33.7 97.5 33 98.3 31.3 99 29.5 100 29.5 101 29.5 102.7 30 104.5 30.6 106 31.1 107.5 31.6 108.2 31.5 109 31.5 110.7 32 112.5 32.6 114 33.1 115.5 33.6 116.7 33.5 118 33.5 119.8 34 121.5 34.6 123.6 35.6 125.7 36.7 127.1 37.1 128.5 37.6 129.3 37.5 130.1 37.5 132.1 38.7 134.1 39.9 134.2 40.1 134.3 40.3 134.4 40.6 134.5 40.8 134.5 41 134.5 41.3 134.4 41.5 134.3 41.7 134.2 41.9 134 42.1 133.8 42.2 133.6 42.4 133.4 42.4 133.1 42.5 132.9 42.5 132.6 42.5 132.4 42.4 132.2 42.3 132 42.1 131.8 41.9 131.7 41.7 131.6 41.5 131.5 41.3 131.5 41 131.5 40.8 131.6 40.6 131.7 40.3 131.8 40.1 132 40 132.1 39.8 132.3 39.7 132.6 39.6 132.8 39.5 133 39.5 133.3 39.5 133.5 39.6 133.7 39.7 133.9 39.8 134.1 40 134.3 40.2 134.4 40.4 134.5 40.6 134.5 40.9 134.5 41.1 134.4 41.4 134.4 41.6 134.2 41.8 134.1 42 133.9 42.2 133.7 42.3 133.5 42.4 133.3 42.5 133 42.5 132.8 42.5 132.6 42.4 132.3 42.3 132.1 42.2 131.9 42.1 131.9 42.1 131.9 42.1 130.9 41.3 129.9 40.5 128.7 40.5 127.6 40.4 125.9 39.9 124.3 39.3 122.4 38.4 120.5 37.4 119.2 37 118 36.5 116.3 36.5 114.6 36.4 113 35.9 111.5 35.4 110.3 35 109 34.5 107.8 34.5 106.6 34.4 105 33.9 103.5 33.4 102.3 33 101 32.5 100 32.5 99 32.5 99.8 32.8 100.5 33 100.4 34.3 100.4 35.6 99.9 36.3 99.5 37.1 99.4 38.3 99.4 39.6 98.9 40.3 98.5 41.1 98.5 43 98.5 45 98.5 46 98.5 47 98.5 48.7 98.4 50.5 98 51.7 97.5 53 97.4 55.3 97.4 57.6 96.9 58.5 96.4 59.5 96 60.8 95.5 62 95.5 63 95.5 64 95.3 65.4 95.2 66.8 94.1 67.9 93.1 69.1 92.9 69.2 92.8 69.3 92.6 69.4 92.4 69.4 92.3 69.5 92.1 69.5 91.9 69.5 91.7 69.5 91.6 69.4 91.4 69.4 91.2 69.3 91.1 69.2 90.9 69.1 90.8 68.9 90.7 68.8 90.6 68.6 90.6 68.4 90.5 68.3 90.5 68.1 90.5 67.9 90.5 67.7 90.6 67.6 90.6 67.4 90.7 67.2 90.8 67.1 90.9 66.9 90.9 66.9 Z" fill="rgb(0, 0, 0, 1)"/>
  <path d="M 100.3 28.7 Q 100.3 28.7 102.4 27.7 104.4 26.6 105.5 26.6 106.7 26.6 107 26.2 107.3 25.8 108.6 25.7 109.9 25.5 110.7 25.1 111.4 24.6 113.2 24.6 115 24.5 116.5 24.5 118 24.5 119.5 24.5 121 24.5 122.5 24.5 124 24.5 125 24.5 126 24.5 127 24.5 128 24.5 129 24.5 130 24.5 131.2 24.6 132.3 24.6 133.2 25.3 134.1 25.9 134.4 26.4 134.8 26.8 136.9 27.9 139.1 28.9 139.2 29.1 139.3 29.3 139.4 29.6 139.5 29.8 139.5 30 139.5 30.3 139.4 30.5 139.3 30.7 139.2 30.9 139 31.1 138.8 31.2 138.6 31.4 138.4 31.4 138.1 31.5 137.9 31.5 137.6 31.5 137.4 31.4 137.2 31.3 137 31.1 136.8 30.9 136.7 30.7 136.6 30.5 136.5 30.3 136.5 30 136.5 29.8 136.6 29.6 136.7 29.3 136.8 29.1 137 29 137.1 28.8 137.3 28.7 137.6 28.6 137.8 28.5 138 28.5 138.3 28.5 138.5 28.6 138.7 28.7 138.9 28.8 139.1 29 139.3 29.2 139.4 29.4 139.5 29.6 139.5 29.9 139.5 30.1 139.4 30.4 139.4 30.6 139.2 30.8 139.1 31 138.9 31.2 138.7 31.3 138.5 31.4 138.3 31.5 138 31.5 137.8 31.5 137.6 31.4 137.3 31.3 137.1 31.2 136.9 31.1 136.9 31.1 136.9 31.1 135.1 30.1 133.3 29.2 132.6 28.6 131.9 28.1 131.8 27.7 131.7 27.4 130.8 27.4 130 27.5 129 27.5 128 27.5 127 27.5 126 27.5 125 27.5 124 27.5 122.5 27.5 121 27.5 119.5 27.5 118 27.5 116.5 27.5 115 27.5 113.8 27.4 112.6 27.4 111.3 27.9 110.1 28.5 109.4 28.3 108.8 28.2 108 28.8 107.3 29.4 106.5 29.4 105.6 29.4 103.6 30.4 101.7 31.3 101.5 31.4 101.3 31.5 101.2 31.5 101 31.5 100.8 31.5 100.6 31.4 100.4 31.4 100.3 31.3 100.1 31.2 100 31.1 99.9 31 99.7 30.8 99.7 30.7 99.6 30.5 99.5 30.3 99.5 30.2 99.5 30 99.5 29.8 99.6 29.6 99.6 29.4 99.7 29.3 99.8 29.1 99.9 29 100 28.9 100.2 28.8 100.3 28.7 100.3 28.7 Z" fill="rgb(0, 0, 0, 1)"/>
  <path d="M 130.5 37.6 Q 130.5 37.6 132 37.1 133.6 36.6 134.6 36.6 135.7 36.6 137.3 36.1 139 35.5 139.2 35.5 139.5 35.6 139.7 35.7 139.9 35.8 140.1 36 140.2 36.2 140.3 36.4 140.4 36.6 140.5 36.8 140.5 37.1 140.4 37.3 140.4 37.6 140.3 37.8 140.1 38 140 38.1 139.8 38.3 139.5 38.4 139.3 38.5 139.1 38.5 138.8 38.5 138.6 38.4 138.4 38.4 138.2 38.2 138 38.1 137.8 37.9 137.7 37.7 137.6 37.5 137.5 37.2 137.5 37 137.5 36.8 137.6 36.5 137.7 36.3 137.8 36.1 138 35.9 138.2 35.8 138.4 35.6 138.6 35.6 138.8 35.5 139.1 35.5 139.3 35.5 139.5 35.6 139.8 35.7 140 35.9 140.1 36 140.3 36.2 140.4 36.4 140.4 36.7 140.5 36.9 140.5 37.2 140.4 37.4 140.3 37.6 140.2 37.8 140.1 38 139.9 38.2 139.7 38.3 139.5 38.4 139.2 38.5 139 38.5 139 38.5 139 38.5 137.7 38.9 136.3 39.4 135.4 39.4 134.5 39.4 133 39.9 131.5 40.4 131.3 40.5 131.1 40.5 130.9 40.5 130.8 40.5 130.6 40.4 130.4 40.4 130.3 40.3 130.1 40.2 130 40.1 129.8 39.9 129.7 39.8 129.6 39.6 129.6 39.5 129.5 39.3 129.5 39.1 129.5 38.9 129.5 38.8 129.6 38.6 129.6 38.4 129.7 38.2 129.8 38.1 129.9 38 130.1 37.8 130.2 37.7 130.4 37.7 130.5 37.6 130.5 37.6 Z" fill="rgb(0, 0, 0, 1)"/>
  <path d="M 138.4 29.5 Q 138.4 29.5 137.9 31 137.4 32.5 137.5 33.2 137.5 34 137.4 35.2 137.4 36.3 136.8 37 136.2 37.8 136.3 38.2 136.4 38.7 136.6 38.8 136.8 38.8 137.4 38.7 138 38.5 138.8 38.6 139.7 38.6 139.8 38.3 139.9 37.9 140.4 37.6 140.8 37.3 140.7 36.5 140.6 35.7 141.3 34.8 141.9 33.9 142.4 33.6 142.8 33.3 142.7 32.5 142.6 31.7 143.3 30.8 143.9 29.9 144.4 29.6 144.8 29.3 144.7 28.6 144.5 27.9 145.1 26.6 145.7 25.3 146.3 24.7 146.9 24 147.2 22.8 147.6 21.5 148.1 20.5 148.6 19.4 148.6 18.5 148.6 17.7 149.2 17 149.8 16.3 150.4 16.4 151 16.5 150 16.5 149 16.5 148 16.5 147.1 16.5 146.3 16.9 145.6 17.4 144.5 17.4 143.3 17.4 143 17.8 142.8 18.2 141.4 18.3 140 18.5 139.8 17.8 139.5 17 139.5 18 139.5 19 139.4 20.2 139.4 21.3 138.8 22 138.2 22.8 138.3 23.5 138.4 24.3 137.8 25 137.2 25.8 137.3 26.5 137.4 27.3 136.8 28 136.2 28.8 136.3 29.5 136.4 30.3 135.8 31 135.2 31.8 135.3 32.5 135.4 33.3 134.8 34 134.2 34.8 133.6 34.6 133 34.5 135.5 35.7 138.1 36.9 138.2 37.1 138.3 37.3 138.4 37.6 138.5 37.8 138.5 38 138.5 38.3 138.4 38.5 138.3 38.7 138.2 38.9 138 39.1 137.8 39.2 137.6 39.4 137.4 39.4 137.1 39.5 136.9 39.5 136.6 39.5 136.4 39.4 136.2 39.3 136 39.1 135.8 38.9 135.7 38.7 135.6 38.5 135.5 38.3 135.5 38 135.5 37.8 135.6 37.6 135.7 37.3 135.8 37.1 136 37 136.1 36.8 136.3 36.7 136.6 36.6 136.8 36.5 137 36.5 137.3 36.5 137.5 36.6 137.7 36.7 137.9 36.8 138.1 37 138.3 37.2 138.4 37.4 138.5 37.6 138.5 37.9 138.5 38.1 138.4 38.4 138.4 38.6 138.2 38.8 138.1 39 137.9 39.2 137.7 39.3 137.5 39.4 137.3 39.5 137 39.5 136.8 39.5 136.6 39.4 136.3 39.3 136.1 39.2 135.9 39.1 135.9 39.1 135.9 39.1 134.5 38.3 133 37.5 132.4 35.4 131.8 33.3 132.2 33 132.6 32.7 132.7 31.5 132.8 30.3 133.2 30 133.6 29.7 133.7 28.5 133.8 27.3 134.2 27 134.6 26.7 134.7 25.5 134.8 24.3 135.2 24 135.6 23.7 135.7 22.5 135.8 21.3 136.2 21 136.6 20.7 136.6 19.8 136.5 19 136.5 18 136.5 17 138.3 16.3 140 15.5 140.6 15.7 141.3 15.8 142 15.2 142.7 14.6 143.5 14.6 144.4 14.6 145.7 14.1 146.9 13.5 148 13.5 149 13.5 150 13.5 151 13.5 151.6 15.6 152.2 17.8 151.8 18 151.4 18.3 151.4 19.5 151.4 20.6 150.9 21.5 150.4 22.5 149.8 24.2 149.1 26 148.7 26.3 148.3 26.7 147.9 27.4 147.5 28.1 147.3 29.4 147.2 30.8 146.6 31.4 146.1 32.1 145.7 32.2 145.4 32.3 145.3 33.5 145.2 34.8 144.6 35.4 144.1 36.1 143.7 36.2 143.4 36.3 143.3 37.5 143.2 38.8 142.6 39.4 142.1 40.1 141.2 40.7 140.3 41.4 139.2 41.4 138 41.5 136.6 41.3 135.3 41.2 134.4 40.3 133.6 39.3 133.7 37.8 133.8 36.3 134.2 36 134.6 35.7 134.6 34.8 134.5 34 134.5 32.8 134.6 31.6 135.1 30 135.6 28.5 135.7 28.4 135.7 28.2 135.8 28.1 136 27.9 136.1 27.8 136.2 27.7 136.4 27.6 136.6 27.6 136.8 27.5 136.9 27.5 137.1 27.5 137.3 27.5 137.5 27.6 137.6 27.6 137.8 27.7 137.9 27.8 138.1 28 138.2 28.1 138.3 28.3 138.4 28.4 138.4 28.6 138.5 28.8 138.5 28.9 138.5 29.1 138.5 29.3 138.4 29.5 138.4 29.5 Z" fill="rgb(0, 0, 0, 1)"/>
  <path d="M 98.9 30.9 Q 98.9 30.9 99.9 29.9 100.9 28.9 101.4 28.4 101.9 27.9 102.4 27.4 102.9 27 103.7 25.9 104.4 24.9 105.5 24.7 106.7 24.6 107.3 23.8 107.9 23 108.3 22.1 108.7 21.3 109.2 20.3 109.7 19.3 110.3 18.6 110.9 18 111.3 17.2 111.6 16.4 111.6 15.7 111.5 15 111.5 14 111.5 13 111.6 12.2 111.6 11.3 111.3 11.2 110.9 11.1 110.4 10.6 109.9 10.1 109.4 9.6 108.9 9.1 108.4 8.6 108 8.1 107.1 7.7 106.3 7.3 105.4 6.9 104.4 6.4 103.7 6.4 103 6.5 102 6.5 101 6.5 100 6.5 99 6.5 98.4 6.3 97.7 6 97.5 6.9 97.3 7.7 96.2 8.9 95.1 10.1 94.6 10.6 94.1 11.1 93.6 11.6 93.1 12.1 92.6 12.4 92.2 12.8 92.3 13.5 92.4 14.3 91.7 15.2 91.1 16 90.7 16.8 90.4 17.6 90.4 18.8 90.5 20 90.5 21.5 90.5 23 90.4 23.8 90.4 24.7 90.7 24.8 91.1 25 91.7 26.2 92.4 27.4 92.4 28.5 92.4 29.7 92.7 29.8 93.1 29.9 93.6 30.4 94.1 30.9 94.4 31.4 94.8 31.8 95.4 31.7 96 31.5 97 31.5 98 31.5 100 31.5 102 31.5 102.2 31.5 102.5 31.6 102.7 31.7 102.9 31.8 103.1 32 103.2 32.2 103.3 32.4 103.4 32.6 103.5 32.8 103.5 33.1 103.4 33.3 103.4 33.6 103.3 33.8 103.1 34 103 34.1 102.8 34.3 102.5 34.4 102.3 34.5 102.1 34.5 101.8 34.5 101.6 34.4 101.4 34.4 101.2 34.2 101 34.1 100.8 33.9 100.7 33.7 100.6 33.5 100.5 33.2 100.5 33 100.5 32.8 100.6 32.5 100.7 32.3 100.8 32.1 101 31.9 101.2 31.8 101.4 31.6 101.6 31.6 101.8 31.5 102.1 31.5 102.3 31.5 102.5 31.6 102.8 31.7 103 31.9 103.1 32 103.3 32.2 103.4 32.4 103.4 32.7 103.5 32.9 103.5 33.2 103.4 33.4 103.3 33.6 103.2 33.8 103.1 34 102.9 34.2 102.7 34.3 102.5 34.4 102.2 34.5 102 34.5 102 34.5 102 34.5 100 34.5 98 34.5 97 34.5 96 34.5 94.6 34.3 93.3 34.2 92.6 33.6 91.9 33.1 91.4 32.6 90.9 32.1 90.3 31.2 89.6 30.3 89.6 29.5 89.6 28.6 89.3 27.8 88.9 27 88.3 26.2 87.6 25.3 87.6 24.2 87.5 23 87.5 21.5 87.5 20 87.6 18.2 87.6 16.4 88.3 15.2 88.9 14 89.3 13.8 89.6 13.7 89.7 12.5 89.8 11.3 90.4 10.6 90.9 9.9 91.4 9.4 91.9 8.9 92.4 8.4 92.9 7.9 93.8 7.1 94.7 6.3 95.5 5.1 96.3 4 97.6 3.7 99 3.5 100 3.5 101 3.5 102 3.5 103 3.5 104.3 3.6 105.6 3.6 106.6 4.2 107.7 4.7 108.9 5.3 110 5.9 110.6 6.4 111.1 6.9 111.6 7.4 112.1 7.9 112.6 8.4 113.1 8.9 113.7 9.8 114.4 10.7 114.4 11.8 114.5 13 114.5 14 114.5 15 114.4 16.3 114.4 17.6 113.7 18.8 113.1 20 112.7 20.4 112.3 20.7 111.8 21.7 111.3 22.7 110.7 23.9 110.1 25 108.7 26.2 107.3 27.4 106.5 27.3 105.6 27.1 105.3 28.1 105.1 29 104.6 29.6 104.1 30.1 103.6 30.6 103.1 31.1 102.1 32.1 101.1 33.1 100.9 33.2 100.8 33.3 100.6 33.4 100.4 33.4 100.3 33.5 100.1 33.5 99.9 33.5 99.7 33.5 99.6 33.4 99.4 33.4 99.2 33.3 99.1 33.2 98.9 33.1 98.8 32.9 98.7 32.8 98.6 32.6 98.6 32.4 98.5 32.3 98.5 32.1 98.5 31.9 98.5 31.7 98.6 31.6 98.6 31.4 98.7 31.2 98.8 31.1 98.9 30.9 98.9 30.9 Z" fill="rgb(0, 0, 0, 1)"/>
  <path d="M 34 84.5 Q 34 84.5 36 84.5 38 84.5 39.5 84.5 41 84.5 42.3 84 43.5 83.6 46 82.6 48.4 81.6 50 81.1 51.5 80.6 53.6 80.1 55.6 79.5 55.9 79.5 56.1 79.5 56.4 79.6 56.6 79.6 56.8 79.8 57 79.9 57.2 80.1 57.3 80.3 57.4 80.5 57.5 80.7 57.5 81 57.5 81.2 57.4 81.4 57.3 81.7 57.2 81.9 57.1 82.1 56.9 82.2 56.7 82.3 56.4 82.4 56.2 82.5 56 82.5 55.7 82.5 55.5 82.4 55.3 82.3 55.1 82.2 54.9 82 54.8 81.8 54.6 81.6 54.6 81.4 54.5 81.1 54.5 80.9 54.5 80.6 54.6 80.4 54.7 80.2 54.9 80 55.1 79.8 55.3 79.7 55.5 79.6 55.7 79.5 56 79.5 56.2 79.5 56.4 79.6 56.7 79.7 56.9 79.8 57 80 57.2 80.1 57.3 80.3 57.4 80.6 57.5 80.8 57.5 81 57.5 81.3 57.4 81.5 57.3 81.7 57.2 81.9 57 82.1 56.8 82.3 56.6 82.4 56.4 82.5 56.4 82.5 56.4 82.5 54.4 82.9 52.5 83.4 51 83.9 49.6 84.4 47 85.4 44.5 86.4 42.7 87 41 87.5 39.5 87.5 38 87.5 36 87.5 34 87.5 33.8 87.5 33.6 87.5 33.5 87.4 33.3 87.3 33.2 87.2 33 87.1 32.9 87 32.8 86.9 32.7 86.7 32.6 86.5 32.6 86.4 32.5 86.2 32.5 86 32.5 85.8 32.6 85.6 32.6 85.5 32.7 85.3 32.8 85.1 32.9 85 33 84.9 33.2 84.8 33.3 84.7 33.5 84.6 33.6 84.5 33.8 84.5 34 84.5 34 84.5 Z" fill="rgb(0, 0, 0, 1)"/>
  <path d="M 12 63.5 Q 12 63.5 13.5 63.5 15 63.5 16.3 63 17.6 62.6 20.3 62.5 23 62.5 23.2 62.5 23.5 62.6 23.7 62.7 23.9 62.8 24.1 63 24.2 63.2 24.3 63.4 24.4 63.6 24.5 63.8 24.5 64.1 24.4 64.3 24.4 64.6 24.3 64.8 24.1 65 24 65.1 23.8 65.3 23.5 65.4 23.3 65.5 23.1 65.5 22.8 65.5 22.6 65.4 22.4 65.4 22.2 65.2 22 65.1 21.8 64.9 21.7 64.7 21.6 64.5 21.5 64.2 21.5 64 21.5 63.8 21.6 63.5 21.7 63.3 21.8 63.1 22 62.9 22.2 62.8 22.4 62.6 22.6 62.6 22.8 62.5 23.1 62.5 23.3 62.5 23.5 62.6 23.8 62.7 24 62.9 24.1 63 24.3 63.2 24.4 63.4 24.4 63.7 24.5 63.9 24.5 64.2 24.4 64.4 24.3 64.6 24.2 64.8 24.1 65 23.9 65.2 23.7 65.3 23.5 65.4 23.2 65.5 23 65.5 23 65.5 23 65.5 20.7 65.5 18.5 65.4 16.7 66 15 66.5 13.5 66.5 12 66.5 11.8 66.5 11.6 66.5 11.5 66.4 11.3 66.3 11.2 66.2 11 66.1 10.9 66 10.8 65.9 10.7 65.7 10.6 65.5 10.6 65.4 10.5 65.2 10.5 65 10.5 64.8 10.6 64.6 10.6 64.5 10.7 64.3 10.8 64.1 10.9 64 11 63.9 11.2 63.8 11.3 63.7 11.5 63.6 11.6 63.5 11.8 63.5 12 63.5 12 63.5 Z" fill="rgb(0, 0, 0, 1)"/>
  <path d="M 41 43.5 Q 41 43.5 42.5 43.5 44 43.5 45.5 43.5 47 43.5 49 43.5 51 43.5 54 43.5 57 43.5 58.8 43 60.6 42.5 63.8 42.5 67 42.5 67.2 42.5 67.5 42.6 67.7 42.7 67.9 42.8 68.1 43 68.2 43.2 68.3 43.4 68.4 43.6 68.5 43.8 68.5 44.1 68.4 44.3 68.4 44.6 68.3 44.8 68.1 45 68 45.1 67.8 45.3 67.5 45.4 67.3 45.5 67.1 45.5 66.8 45.5 66.6 45.4 66.4 45.4 66.2 45.2 66 45.1 65.8 44.9 65.7 44.7 65.6 44.5 65.5 44.2 65.5 44 65.5 43.8 65.6 43.5 65.7 43.3 65.8 43.1 66 42.9 66.2 42.8 66.4 42.6 66.6 42.6 66.8 42.5 67.1 42.5 67.3 42.5 67.5 42.6 67.8 42.7 68 42.9 68.1 43 68.3 43.2 68.4 43.4 68.4 43.7 68.5 43.9 68.5 44.2 68.4 44.4 68.3 44.6 68.2 44.8 68.1 45 67.9 45.2 67.7 45.3 67.5 45.4 67.2 45.5 67 45.5 67 45.5 67 45.5 64.2 45.5 61.4 45.5 59.2 46 57 46.5 54 46.5 51 46.5 49 46.5 47 46.5 45.5 46.5 44 46.5 42.5 46.5 41 46.5 40.8 46.5 40.6 46.5 40.5 46.4 40.3 46.3 40.2 46.2 40 46.1 39.9 46 39.8 45.9 39.7 45.7 39.6 45.5 39.6 45.4 39.5 45.2 39.5 45 39.5 44.8 39.6 44.6 39.6 44.5 39.7 44.3 39.8 44.1 39.9 44 40 43.9 40.2 43.8 40.3 43.7 40.5 43.6 40.6 43.5 40.8 43.5 41 43.5 41 43.5 Z" fill="rgb(0, 0, 0, 1)"/>
  <path d="M 4.2 16.5 Q 4.2 16.5 7.2 17 10.2 17.5 11.8 18 13.5 18.6 15.2 18.5 17 18.5 19.5 18.5 22 18.5 24.5 18.5 27 18.5 29.5 18.5 32 18.5 35 18.5 38 18.5 40.9 18 43.8 17.5 46.4 17.5 49 17.5 49.2 17.5 49.5 17.6 49.7 17.7 49.9 17.8 50.1 18 50.2 18.2 50.3 18.4 50.4 18.6 50.5 18.8 50.5 19.1 50.4 19.3 50.4 19.6 50.3 19.8 50.1 20 50 20.1 49.8 20.3 49.5 20.4 49.3 20.5 49.1 20.5 48.8 20.5 48.6 20.4 48.4 20.4 48.2 20.2 48 20.1 47.8 19.9 47.7 19.7 47.6 19.5 47.5 19.2 47.5 19 47.5 18.8 47.6 18.5 47.7 18.3 47.8 18.1 48 17.9 48.2 17.8 48.4 17.6 48.6 17.6 48.8 17.5 49.1 17.5 49.3 17.5 49.5 17.6 49.8 17.7 50 17.9 50.1 18 50.3 18.2 50.4 18.4 50.4 18.7 50.5 18.9 50.5 19.2 50.4 19.4 50.3 19.6 50.2 19.8 50.1 20 49.9 20.2 49.7 20.3 49.5 20.4 49.2 20.5 49 20.5 49 20.5 49 20.5 46.6 20.5 44.2 20.5 41.1 21 38 21.5 35 21.5 32 21.5 29.5 21.5 27 21.5 24.5 21.5 22 21.5 19.5 21.5 17 21.5 14.8 21.5 12.6 21.4 11.2 21 9.8 20.5 6.8 20 3.8 19.5 3.6 19.4 3.4 19.4 3.3 19.3 3.1 19.2 3 19.1 2.8 18.9 2.7 18.8 2.6 18.6 2.6 18.5 2.5 18.3 2.5 18.1 2.5 17.9 2.5 17.8 2.6 17.6 2.6 17.4 2.7 17.2 2.8 17.1 2.9 17 3.1 16.8 3.2 16.7 3.4 16.7 3.5 16.6 3.7 16.5 3.9 16.5 4.1 16.5 4.2 16.5 4.2 16.5 Z" fill="rgb(0, 0, 0, 1)"/>
  <path d="M 49.6 3.5 Q 49.6 3.5 51.6 3 53.6 2.5 55.3 2.5 57 2.5 58.5 2.5 60 2.5 62.5 2.5 65 2.5 67.5 2.5 70 2.5 72 2.5 74 2.5 74.2 2.5 74.5 2.6 74.7 2.7 74.9 2.8 75.1 3 75.2 3.2 75.3 3.4 75.4 3.6 75.5 3.8 75.5 4.1 75.4 4.3 75.4 4.6 75.3 4.8 75.1 5 75 5.1 74.8 5.3 74.5 5.4 74.3 5.5 74.1 5.5 73.8 5.5 73.6 5.4 73.4 5.4 73.2 5.2 73 5.1 72.8 4.9 72.7 4.7 72.6 4.5 72.5 4.2 72.5 4 72.5 3.8 72.6 3.5 72.7 3.3 72.8 3.1 73 2.9 73.2 2.8 73.4 2.6 73.6 2.6 73.8 2.5 74.1 2.5 74.3 2.5 74.5 2.6 74.8 2.7 75 2.9 75.1 3 75.3 3.2 75.4 3.4 75.4 3.7 75.5 3.9 75.5 4.2 75.4 4.4 75.3 4.6 75.2 4.8 75.1 5 74.9 5.2 74.7 5.3 74.5 5.4 74.2 5.5 74 5.5 74 5.5 74 5.5 72 5.5 70 5.5 67.5 5.5 65 5.5 62.5 5.5 60 5.5 58.5 5.5 57 5.5 55.7 5.5 54.4 5.5 52.4 6 50.4 6.5 50.2 6.5 50 6.5 49.8 6.5 49.6 6.5 49.5 6.4 49.3 6.3 49.2 6.2 49 6.1 48.9 6 48.8 5.9 48.7 5.7 48.6 5.5 48.6 5.4 48.5 5.2 48.5 5 48.5 4.8 48.6 4.6 48.6 4.5 48.7 4.3 48.8 4.2 48.9 4 49 3.9 49.2 3.8 49.3 3.7 49.5 3.6 49.6 3.5 49.6 3.5 Z" fill="rgb(0, 0, 0, 1)"/>
</svg>